<svg width="472" height="270" viewBox="0 0 472 270" fill="none" xmlns="http://www.w3.org/2000/svg">
<rect x="18" width="418" height="270" rx="14" fill="#FFF6ED"/>
<path d="M138.616 24.44L83.7018 23.0012C83.4011 22.9915 83.1015 23.0425 82.8209 23.1512C82.5404 23.2599 82.2846 23.424 82.0688 23.6337C81.853 23.8434 81.6817 24.0944 81.5651 24.3718C81.4485 24.6492 81.389 24.9472 81.3902 25.2481C81.3936 25.865 81.6367 26.4565 82.068 26.8976C82.4993 27.3388 83.0851 27.5951 83.7018 27.6125L138.616 28.9794C138.91 28.9865 139.202 28.9343 139.476 28.8259C139.749 28.7176 139.997 28.5552 140.206 28.3486C140.416 28.142 140.581 27.8954 140.692 27.6235C140.804 27.3516 140.86 27.0599 140.856 26.766C140.855 26.1641 140.622 25.5859 140.204 25.1523C139.787 24.7187 139.218 24.4635 138.616 24.44Z" fill="#D8DEE8"/>
<path d="M138.616 32.5349L83.7018 31.2207C83.4009 31.2117 83.1012 31.2634 82.8206 31.3726C82.54 31.4818 82.2842 31.6464 82.0685 31.8564C81.8529 32.0665 81.6817 32.3179 81.5651 32.5955C81.4486 32.8732 81.3891 33.1714 81.3902 33.4725C81.3937 34.089 81.6369 34.6799 82.0683 35.1203C82.4997 35.5607 83.0856 35.816 83.7018 35.8321L138.616 37.0767C138.91 37.0831 139.203 37.0303 139.476 36.9214C139.749 36.8125 139.998 36.6497 140.207 36.4427C140.416 36.2357 140.581 35.9888 140.693 35.7167C140.804 35.4445 140.86 35.1526 140.856 34.8585C140.857 34.2563 140.624 33.6773 140.206 33.2438C139.788 32.8102 139.218 32.556 138.616 32.5349Z" fill="#D8DEE8"/>
<path d="M36.2703 163.149C38.0434 159.766 40.6145 156.866 43.7608 154.7C46.9072 152.534 50.534 151.168 54.3273 150.72L54.8716 117.388C32.5893 117.97 13.386 131.709 4.79395 151.404L36.2703 163.149Z" fill="#FE4D77"/>
<path d="M79.9762 178.3C78.0745 189.374 68.5688 197.87 57.0655 197.978C53.7729 198.013 50.5112 197.341 47.4999 196.009L30.0352 224.716C38.349 229.133 47.653 231.354 57.0655 231.169C86.0359 230.636 109.505 207.966 112.15 179.516L79.9762 178.3Z" fill="#18C4D6"/>
<path d="M24.6422 221.464L42.1477 192.731C39.434 190.5 37.2501 187.694 35.7542 184.515C34.2582 181.337 33.4876 177.865 33.4981 174.352C33.4976 172.594 33.6898 170.841 34.0712 169.125L2.55655 157.43C0.856656 162.945 -0.00506096 168.684 0.00025691 174.456C-0.0275509 183.705 2.20247 192.821 6.49673 201.013C10.791 209.205 17.0197 216.225 24.6422 221.464Z" fill="#FFB970"/>
<path d="M60.5679 150.848C71.0808 152.486 79.2508 161.212 80.2316 172.029L133.467 174.133V174.063C133.467 132.796 101.96 98.5064 61.4695 95.4609L60.5679 150.848Z" fill="#80CC28"/>
<path d="M95.6323 87.6381L8.56291 86.7724C7.62752 86.7738 6.72915 86.407 6.06192 85.7515C5.39469 85.0959 5.01219 84.2042 4.99707 83.2689V50.1524C5.00147 49.6937 5.09808 49.2407 5.28115 48.8202C5.46422 48.3997 5.73001 48.0203 6.0627 47.7046C6.39539 47.389 6.78818 47.1434 7.21771 46.9826C7.64723 46.8219 8.10471 46.7491 8.56291 46.7688L84.3617 48.5744C85.2619 48.5993 86.1172 48.9733 86.7468 49.6172C87.3764 50.2611 87.731 51.1246 87.7357 52.0252V80.4872L95.6323 87.6381Z" fill="#18C4D6"/>
<path opacity="0.67" d="M75.5064 60.5455L17.8462 59.4209V55.4521L75.5064 56.656V60.5455Z" fill="white"/>
<path opacity="0.67" d="M75.5064 68.3238L17.8462 67.3598V63.3887L75.5064 64.4342V68.3238Z" fill="white"/>
<path opacity="0.67" d="M75.5064 76.105L17.8462 75.2992V71.3281L75.5064 72.213V76.105Z" fill="white"/>
<path d="M138.826 199.09L216.615 197.412C217.101 197.407 217.584 197.501 218.034 197.687C218.484 197.872 218.892 198.147 219.234 198.493C219.576 198.839 219.845 199.251 220.025 199.703C220.205 200.156 220.292 200.639 220.281 201.126V237.336C220.281 239.432 218.641 241.185 216.615 241.252L134.627 244.017C134.125 244.034 133.625 243.948 133.157 243.766C132.69 243.584 132.264 243.309 131.905 242.958C131.546 242.607 131.263 242.187 131.071 241.723C130.879 241.259 130.784 240.761 130.79 240.259V192.93L138.826 199.09Z" fill="#80CC28" style="mix-blend-mode:multiply"/>
<path opacity="0.67" d="M144.628 229.753L207.001 227.888V232.264L144.628 234.206V229.753Z" fill="white"/>
<path opacity="0.67" d="M144.628 220.849L207.001 219.135V223.514L144.628 225.302V220.849Z" fill="white"/>
<path opacity="0.67" d="M144.628 211.941L207.001 210.38V214.759L144.628 216.394V211.941Z" fill="white"/>
<path d="M345.626 123.383L450.162 125.63C452.884 125.69 455.088 123.455 455.088 120.64L455.088 71.9603C455.088 69.145 452.884 66.7878 450.162 66.6967L339.983 62.9821C339.308 62.9584 338.636 63.0719 338.006 63.3159C337.376 63.5598 336.803 63.9291 336.32 64.4013C335.837 64.8735 335.455 65.4388 335.198 66.063C334.94 66.6871 334.811 67.3571 334.82 68.0324L334.82 131.666L345.626 123.383Z" fill="url(#paint0_linear_1398_2829)" style="mix-blend-mode:multiply"/>
<path opacity="0.67" d="M353.427 82.1787L437.244 84.6846L437.244 78.8022L353.427 76.1932L353.427 82.1787Z" fill="white"/>
<path opacity="0.67" d="M353.427 94.15L437.244 96.4522L437.244 90.5698L353.427 88.1646L353.427 94.15Z" fill="white"/>
<path opacity="0.67" d="M353.427 106.115L437.244 108.216L437.244 102.331L353.427 100.132L353.427 106.115Z" fill="white"/>
<path d="M469.766 201.099L470.617 198.598C471.972 194.607 469.742 190.356 465.639 189.104L304.768 140.101L299.867 156.714L459.924 206.015C464.006 207.278 468.413 205.075 469.766 201.099Z" fill="url(#paint1_linear_1398_2829)"/>
<path d="M144.907 95.0866C157.206 46.4932 205.406 17.2087 253.072 30.9326C301.615 44.9106 329.405 97.5038 314.657 147.083C300.255 195.496 250.87 221.615 204.778 206.678C159.487 192 132.888 142.572 144.907 95.0866ZM300.655 142.795C312.845 101.309 289.586 57.3563 249.053 45.5652C209.128 33.9493 168.568 58.3275 158.103 99.1272C147.837 139.145 170.254 180.856 208.497 193.144C247.307 205.613 288.706 183.468 300.655 142.795Z" fill="url(#paint2_linear_1398_2829)"/>
<g style="mix-blend-mode:multiply" opacity="0.3">
<path d="M304.768 140.101L325.278 146.335C326.686 152.88 329.425 156.628 332.178 158.911C342.539 167.498 356.373 158.131 375.675 168.203C385.361 173.255 383.519 176.471 392.598 179.999C407.607 185.828 414.477 177.752 427.76 183.059C441.189 188.425 442.52 200.024 450.141 199.605C453.399 199.427 457.596 197.056 462.275 188.066L465.632 189.09C469.735 190.341 471.965 194.593 470.61 198.583L469.759 201.084C468.406 205.06 464.003 207.257 459.927 206L299.869 156.7L304.768 140.101Z" fill="#D8DEE8"/>
</g>
<path opacity="0.2" d="M204.699 199.794C244.841 212.712 287.701 189.835 300.094 147.745C312.746 104.778 288.663 59.2586 246.669 47.0648C205.332 35.0603 163.374 60.3306 152.568 102.555C141.976 143.942 165.153 187.07 204.699 199.794Z" fill="white"/>
<path d="M141.793 99.2512C154.092 50.6603 202.29 21.3757 249.957 35.0996C298.498 49.0752 326.291 101.671 311.541 151.25C297.138 199.663 247.753 225.782 201.661 210.845C156.372 196.164 129.771 146.739 141.793 99.2512ZM297.539 146.96C309.728 105.474 286.472 61.5233 245.936 49.7322C206.014 38.1163 165.454 62.4944 154.986 103.294C144.723 143.312 167.14 185.023 205.381 197.311C244.19 209.778 285.592 187.635 297.539 146.96Z" fill="url(#paint3_linear_1398_2829)"/>
<path d="M146.449 100.683C158.106 54.8448 203.606 27.3036 248.53 40.2888C294.229 53.4947 320.413 103.021 306.579 149.732C293.049 195.409 246.489 220.133 202.985 206.071C160.168 192.239 135.044 145.533 146.449 100.683ZM297.536 146.964C309.725 105.479 286.469 61.528 245.933 49.737C206.011 38.121 165.451 62.4992 154.984 103.299C144.72 143.317 167.137 185.028 205.378 197.315C244.19 209.78 285.591 187.637 297.538 146.962L297.536 146.964Z" fill="url(#paint4_linear_1398_2829)"/>
<path d="M171 154.397C171 143.352 179.954 134.397 191 134.397H210C221.046 134.397 230 143.352 230 154.397V174H171V154.397Z" fill="#FE4D77"/>
<circle cx="200.904" cy="107.726" r="17.7808" fill="#FE4D77"/>
<path d="M221 145C221 133.954 229.954 125 241 125H274C285.046 125 294 133.954 294 145V174H221V145Z" fill="#FFB970"/>
<circle cx="258" cy="92" r="22" fill="#FFB970"/>
<defs>
<linearGradient id="paint0_linear_1398_2829" x1="974841" y1="-195451" x2="995063" y2="-146073" gradientUnits="userSpaceOnUse">
<stop stop-color="#FF9085"/>
<stop offset="1" stop-color="#FB6FBB"/>
</linearGradient>
<linearGradient id="paint1_linear_1398_2829" x1="299.867" y1="173.234" x2="471.013" y2="173.234" gradientUnits="userSpaceOnUse">
<stop stop-color="#444B8C"/>
<stop offset="1" stop-color="#26264F"/>
</linearGradient>
<linearGradient id="paint2_linear_1398_2829" x1="233693" y1="408990" x2="363737" y2="408990" gradientUnits="userSpaceOnUse">
<stop stop-color="#444B8C"/>
<stop offset="1" stop-color="#26264F"/>
</linearGradient>
<linearGradient id="paint3_linear_1398_2829" x1="1.36749e+06" y1="6564.08" x2="1.39079e+06" y2="-90870.8" gradientUnits="userSpaceOnUse">
<stop stop-color="#444B8C"/>
<stop offset="1" stop-color="#26264F"/>
</linearGradient>
<linearGradient id="paint4_linear_1398_2829" x1="1.31748e+06" y1="-129433" x2="1.28691e+06" y2="-6233.71" gradientUnits="userSpaceOnUse">
<stop stop-color="#444B8C"/>
<stop offset="1" stop-color="#26264F"/>
</linearGradient>
</defs>
</svg>
