<svg width="522" height="392" viewBox="0 0 522 392" fill="none" xmlns="http://www.w3.org/2000/svg">
<path style="mix-blend-mode:multiply" opacity="0.94" d="M206.078 379.596C319.892 379.596 412.156 375.836 412.156 371.198C412.156 366.561 319.892 362.801 206.078 362.801C92.2643 362.801 0 366.561 0 371.198C0 375.836 92.2643 379.596 206.078 379.596Z" fill="url(#paint0_radial_1395_3042)"/>
<path style="mix-blend-mode:multiply" opacity="0.94" d="M317.098 391.162C381.468 391.162 433.651 387.123 433.651 382.142C433.651 377.161 381.468 373.123 317.098 373.123C252.728 373.123 200.545 377.161 200.545 382.142C200.545 387.123 252.728 391.162 317.098 391.162Z" fill="url(#paint1_radial_1395_3042)"/>
<path style="mix-blend-mode:multiply" opacity="0.94" fill-rule="evenodd" clip-rule="evenodd" d="M409.822 382.142C409.822 384.704 368.303 386.78 317.098 386.78C265.893 386.78 224.374 384.704 224.374 382.142C224.374 379.58 265.893 377.488 317.098 377.488C368.303 377.488 409.822 379.565 409.822 382.142Z" fill="url(#paint2_radial_1395_3042)"/>
<path fill-rule="evenodd" clip-rule="evenodd" d="M501.469 107.033L314.263 166.393C313.532 166.63 312.856 167.012 312.274 167.515C311.692 168.017 311.217 168.632 310.877 169.321C310.536 170.011 310.337 170.761 310.291 171.529C310.246 172.296 310.354 173.065 310.61 173.79L326.405 218.795C326.89 220.185 327.89 221.336 329.199 222.01C330.508 222.685 332.025 222.831 333.439 222.418L517.658 168.833C519.09 168.416 520.305 167.459 521.045 166.164C521.786 164.869 521.996 163.337 521.63 161.891L508.821 111.095C508.629 110.331 508.282 109.615 507.801 108.991C507.321 108.366 506.717 107.848 506.028 107.467C505.338 107.086 504.578 106.851 503.794 106.776C503.009 106.701 502.218 106.789 501.469 107.033ZM321.085 177.565C320.423 177.759 319.718 177.753 319.06 177.546C318.401 177.34 317.819 176.943 317.386 176.406C316.954 175.869 316.69 175.215 316.629 174.528C316.568 173.841 316.712 173.151 317.044 172.546C317.375 171.94 317.878 171.447 318.49 171.128C319.102 170.809 319.794 170.679 320.48 170.754C321.166 170.828 321.814 171.105 322.343 171.548C322.871 171.992 323.256 172.582 323.449 173.244C323.688 174.111 323.583 175.035 323.157 175.826C322.73 176.617 322.015 177.213 321.16 177.489L321.085 177.565Z" fill="url(#paint3_linear_1395_3042)"/>
<path fill-rule="evenodd" clip-rule="evenodd" d="M501.257 106.427L314.051 165.787C313.321 166.026 312.646 166.409 312.065 166.912C311.485 167.415 311.01 168.029 310.67 168.718C310.33 169.407 310.131 170.157 310.084 170.924C310.037 171.691 310.144 172.459 310.398 173.184L326.193 218.205C326.681 219.592 327.682 220.739 328.99 221.411C330.299 222.082 331.815 222.226 333.226 221.812L517.446 168.228C518.876 167.813 520.089 166.859 520.828 165.565C521.566 164.272 521.772 162.743 521.402 161.3L508.609 110.489C508.415 109.726 508.067 109.011 507.586 108.388C507.105 107.765 506.501 107.248 505.812 106.867C505.123 106.486 504.363 106.251 503.58 106.175C502.797 106.099 502.006 106.185 501.257 106.427ZM320.872 176.959C320.213 177.147 319.512 177.136 318.859 176.927C318.206 176.717 317.629 176.319 317.202 175.782C316.775 175.246 316.516 174.594 316.459 173.911C316.402 173.227 316.549 172.542 316.88 171.942C317.212 171.341 317.715 170.853 318.324 170.538C318.933 170.223 319.622 170.095 320.304 170.171C320.986 170.248 321.629 170.524 322.154 170.966C322.679 171.408 323.061 171.995 323.252 172.654C323.383 173.089 323.426 173.545 323.38 173.997C323.335 174.449 323.2 174.887 322.985 175.287C322.769 175.687 322.477 176.04 322.125 176.327C321.773 176.614 321.368 176.829 320.933 176.959H320.872Z" fill="url(#paint4_linear_1395_3042)"/>
<path fill-rule="evenodd" clip-rule="evenodd" d="M367.666 205.774L344.55 212.49L329.679 167.651L352.993 160.284L367.666 205.774Z" fill="#598800"/>
<path fill-rule="evenodd" clip-rule="evenodd" d="M394.663 197.907L370.94 204.82L356.282 159.253L380.232 151.689L394.663 197.907Z" fill="#5E9339"/>
<path fill-rule="evenodd" clip-rule="evenodd" d="M422.388 189.859L398.013 196.938L383.613 150.629L408.215 142.868L422.388 189.859Z" fill="#97B368"/>
<path fill-rule="evenodd" clip-rule="evenodd" d="M450.855 181.567L425.814 188.858L411.671 141.761L436.97 133.788L450.855 181.567Z" fill="#B1CC00"/>
<path fill-rule="evenodd" clip-rule="evenodd" d="M480.126 173.063L454.387 180.551L440.533 132.666L466.529 124.45L480.126 173.063Z" fill="#E5CC00"/>
<path fill-rule="evenodd" clip-rule="evenodd" d="M510.216 164.301L483.749 172.002L470.198 123.298L496.952 114.854L510.216 164.301Z" fill="#EAD631"/>
<path fill-rule="evenodd" clip-rule="evenodd" d="M484.825 70.881L313.96 167.667C313.292 168.051 312.708 168.564 312.241 169.177C311.775 169.79 311.437 170.49 311.246 171.237C311.055 171.983 311.016 172.76 311.131 173.521C311.245 174.283 311.512 175.014 311.914 175.671L336.682 216.432C337.443 217.679 338.65 218.589 340.058 218.977C341.466 219.366 342.969 219.204 344.262 218.524L513.399 127.967C514.709 127.267 515.696 126.086 516.154 124.673C516.612 123.26 516.504 121.724 515.854 120.388L492.814 73.3973C492.471 72.6918 491.989 72.0636 491.395 71.5512C490.802 71.0388 490.11 70.6531 489.362 70.4175C488.614 70.1819 487.826 70.1015 487.046 70.1812C486.266 70.2609 485.51 70.499 484.825 70.881ZM323.01 177.202C322.404 177.525 321.716 177.662 321.033 177.595C320.35 177.527 319.702 177.259 319.172 176.824C318.641 176.388 318.251 175.805 318.052 175.148C317.853 174.491 317.853 173.79 318.052 173.133C318.251 172.476 318.64 171.893 319.171 171.457C319.702 171.022 320.349 170.753 321.033 170.686C321.716 170.618 322.404 170.755 323.009 171.078C323.615 171.402 324.111 171.897 324.434 172.503C324.65 172.905 324.783 173.345 324.828 173.799C324.873 174.253 324.828 174.711 324.696 175.148C324.563 175.584 324.346 175.99 324.057 176.342C323.768 176.695 323.412 176.987 323.01 177.202Z" fill="url(#paint5_linear_1395_3042)"/>
<path fill-rule="evenodd" clip-rule="evenodd" d="M484.446 70.41L313.642 167.227C312.979 167.617 312.4 168.135 311.939 168.751C311.478 169.368 311.145 170.07 310.959 170.816C310.772 171.563 310.737 172.339 310.854 173.099C310.971 173.86 311.239 174.589 311.641 175.245L336.425 216.006C337.186 217.253 338.393 218.163 339.801 218.552C341.208 218.94 342.711 218.778 344.004 218.098L513.141 127.542C514.451 126.841 515.438 125.66 515.896 124.247C516.354 122.834 516.247 121.298 515.597 119.963L492.556 72.9718C492.219 72.2459 491.735 71.5982 491.134 71.0699C490.533 70.5416 489.829 70.1443 489.066 69.9033C488.303 69.6622 487.498 69.5828 486.703 69.6701C485.907 69.7573 485.139 70.0093 484.446 70.41ZM322.691 176.761C322.084 177.088 321.393 177.227 320.706 177.16C320.019 177.094 319.368 176.825 318.834 176.389C318.3 175.952 317.907 175.366 317.706 174.706C317.505 174.046 317.504 173.342 317.704 172.681C317.904 172.021 318.295 171.435 318.828 170.996C319.361 170.558 320.011 170.288 320.698 170.22C321.385 170.153 322.076 170.29 322.684 170.615C323.293 170.94 323.791 171.438 324.116 172.047C324.551 172.861 324.646 173.815 324.379 174.699C324.111 175.582 323.505 176.324 322.691 176.761Z" fill="url(#paint6_linear_1395_3042)"/>
<path fill-rule="evenodd" clip-rule="evenodd" d="M374.366 195.256L353.144 206.61L329.315 165.818L350.598 153.798L374.366 195.256Z" fill="#005D88"/>
<path fill-rule="evenodd" clip-rule="evenodd" d="M399.165 181.975L377.368 193.647L353.614 152.098L375.473 139.744L399.165 181.975Z" fill="#005AD9"/>
<path fill-rule="evenodd" clip-rule="evenodd" d="M424.601 168.364L402.227 180.339L378.55 138.002L401.015 125.314L424.601 168.364Z" fill="#5B5BFF"/>
<path fill-rule="evenodd" clip-rule="evenodd" d="M450.749 154.357L427.754 166.665L404.183 123.524L427.269 110.488L450.749 154.357Z" fill="#8D91FF"/>
<path fill-rule="evenodd" clip-rule="evenodd" d="M477.625 139.974L453.993 152.631L430.528 108.656L454.266 95.2412L477.625 139.974Z" fill="#C2BAFF"/>
<path fill-rule="evenodd" clip-rule="evenodd" d="M505.244 125.193L480.945 138.199L457.616 93.3449L482.036 79.5508L505.244 125.193Z" fill="#FF8DF4"/>
<g style="mix-blend-mode:multiply" opacity="0.5">
<path fill-rule="evenodd" clip-rule="evenodd" d="M460.966 39.6546L312.414 168.152C311.836 168.66 311.366 169.278 311.03 169.97C310.694 170.662 310.5 171.415 310.459 172.183C310.418 172.951 310.531 173.719 310.792 174.443C311.052 175.167 311.454 175.832 311.974 176.398L344.277 211.505C345.274 212.588 346.648 213.248 348.117 213.35C349.586 213.451 351.038 212.986 352.174 212.051L500.226 90.041C501.373 89.09 502.108 87.7326 502.277 86.2524C502.447 84.7722 502.038 83.2837 501.136 82.0981L469.288 40.4883C468.81 39.8674 468.211 39.3508 467.526 38.9701C466.842 38.5894 466.086 38.3528 465.307 38.2747C464.528 38.1966 463.74 38.2787 462.994 38.516C462.247 38.7533 461.557 39.1408 460.966 39.6546ZM323.192 175.701C322.66 176.142 322.01 176.414 321.323 176.485C320.637 176.556 319.944 176.421 319.334 176.098C318.725 175.775 318.224 175.278 317.897 174.67C317.57 174.062 317.43 173.371 317.496 172.684C317.562 171.997 317.83 171.345 318.267 170.81C318.704 170.276 319.29 169.883 319.95 169.682C320.611 169.481 321.316 169.48 321.976 169.68C322.637 169.88 323.223 170.271 323.661 170.805C324.246 171.517 324.525 172.432 324.437 173.35C324.349 174.267 323.901 175.113 323.192 175.701Z" fill="#914881"/>
</g>
<path fill-rule="evenodd" clip-rule="evenodd" d="M460.42 38.5775L311.868 167.075C311.289 167.582 310.816 168.199 310.48 168.892C310.143 169.584 309.948 170.337 309.907 171.105C309.866 171.874 309.98 172.643 310.241 173.367C310.502 174.091 310.906 174.756 311.429 175.321L343.716 210.428C344.715 211.508 346.089 212.165 347.556 212.267C349.024 212.368 350.475 211.906 351.613 210.974L499.665 88.9639C500.815 88.0151 501.553 86.6572 501.722 85.1759C501.892 83.6946 501.481 82.2052 500.575 81.0209L468.742 39.4112C468.265 38.7903 467.665 38.2737 466.981 37.893C466.296 37.5123 465.541 37.2756 464.761 37.1976C463.982 37.1195 463.195 37.2016 462.448 37.4389C461.702 37.6762 461.012 38.0637 460.42 38.5775ZM322.631 174.624C322.099 175.064 321.449 175.337 320.762 175.408C320.076 175.478 319.384 175.344 318.774 175.021C318.164 174.697 317.663 174.2 317.336 173.593C317.009 172.985 316.869 172.294 316.935 171.607C317.001 170.92 317.27 170.267 317.706 169.733C318.143 169.199 318.729 168.806 319.389 168.605C320.05 168.404 320.755 168.403 321.415 168.603C322.076 168.803 322.663 169.194 323.101 169.728C323.685 170.44 323.964 171.355 323.876 172.273C323.788 173.19 323.34 174.036 322.631 174.624Z" fill="url(#paint7_linear_1395_3042)"/>
<path fill-rule="evenodd" clip-rule="evenodd" d="M460.011 38.1845L311.459 166.682C310.882 167.189 310.411 167.805 310.076 168.496C309.74 169.187 309.547 169.938 309.506 170.705C309.465 171.472 309.577 172.239 309.837 172.962C310.097 173.685 310.499 174.348 311.019 174.913L343.352 210.111C344.347 211.194 345.72 211.853 347.187 211.952C348.655 212.05 350.104 211.581 351.235 210.641L499.286 88.6316C500.435 87.6854 501.173 86.3302 501.342 84.8513C501.512 83.3725 501.101 81.8856 500.196 80.7038L468.363 39.094C467.893 38.4611 467.296 37.9322 466.612 37.5404C465.928 37.1486 465.17 36.9023 464.386 36.8169C463.602 36.7315 462.808 36.8089 462.056 37.0442C461.303 37.2795 460.607 37.6678 460.011 38.1845ZM322.252 174.231C321.72 174.669 321.07 174.94 320.384 175.009C319.698 175.079 319.007 174.943 318.398 174.619C317.79 174.296 317.29 173.799 316.964 173.192C316.637 172.585 316.498 171.895 316.564 171.209C316.629 170.522 316.897 169.871 317.333 169.337C317.768 168.803 318.353 168.41 319.012 168.207C319.671 168.005 320.375 168.003 321.035 168.201C321.696 168.399 322.282 168.788 322.722 169.32C323.014 169.673 323.233 170.08 323.367 170.518C323.502 170.956 323.548 171.417 323.505 171.873C323.461 172.329 323.328 172.772 323.113 173.177C322.898 173.581 322.605 173.939 322.252 174.231Z" fill="url(#paint8_linear_1395_3042)"/>
<path fill-rule="evenodd" clip-rule="evenodd" d="M376.549 182.219L357.965 197.529L326.587 162.21L345.095 146.248L376.549 182.219Z" fill="#88005B"/>
<path fill-rule="evenodd" clip-rule="evenodd" d="M398.241 164.333L379.171 180.053L347.703 143.991L366.711 127.574L398.241 164.333Z" fill="#D9005B"/>
<path fill-rule="evenodd" clip-rule="evenodd" d="M420.523 145.976L400.923 162.119L369.394 125.269L388.933 108.413L420.523 145.976Z" fill="#FF665B"/>
<path fill-rule="evenodd" clip-rule="evenodd" d="M443.397 127.118L423.267 143.702L391.677 106.033L411.762 88.707L443.397 127.118Z" fill="#FF928D"/>
<path fill-rule="evenodd" clip-rule="evenodd" d="M466.923 107.746L446.232 124.784L414.581 86.2813L435.227 68.4551L466.923 107.746Z" fill="#FFC4BA"/>
<path fill-rule="evenodd" clip-rule="evenodd" d="M491.101 87.8128L469.834 105.336L438.137 65.9544L459.374 47.6279L491.101 87.8128Z" fill="#FFD88D"/>
<g style="mix-blend-mode:multiply" opacity="0.5">
<path fill-rule="evenodd" clip-rule="evenodd" d="M445.671 26.2551L312.277 170.411C311.757 170.978 311.355 171.642 311.095 172.366C310.834 173.09 310.722 173.859 310.762 174.627C310.803 175.395 310.997 176.147 311.333 176.839C311.669 177.531 312.139 178.15 312.717 178.657L347.824 209.459C348.93 210.432 350.366 210.944 351.837 210.89C353.309 210.837 354.704 210.222 355.736 209.171L490.055 72.1699C491.091 71.0985 491.671 69.6662 491.671 68.1756C491.671 66.685 491.091 65.2528 490.055 64.1814L454.129 26.2096C453.587 25.6293 452.93 25.1675 452.201 24.8531C451.471 24.5387 450.685 24.3786 449.89 24.3829C449.096 24.3872 448.311 24.5557 447.585 24.8779C446.859 25.2001 446.207 25.669 445.671 26.2551ZM323.767 176.763C323.282 177.248 322.663 177.578 321.99 177.712C321.317 177.845 320.619 177.777 319.985 177.514C319.351 177.251 318.809 176.806 318.428 176.235C318.046 175.664 317.843 174.993 317.843 174.307C317.843 173.621 318.046 172.95 318.428 172.379C318.809 171.808 319.351 171.363 319.985 171.1C320.619 170.837 321.317 170.769 321.99 170.902C322.663 171.036 323.282 171.366 323.767 171.851C324.415 172.504 324.779 173.387 324.779 174.307C324.779 175.227 324.415 176.11 323.767 176.763Z" fill="#914881"/>
</g>
<path fill-rule="evenodd" clip-rule="evenodd" d="M445.035 25.5874L311.641 169.744C311.119 170.308 310.715 170.971 310.454 171.694C310.193 172.417 310.08 173.184 310.121 173.952C310.162 174.719 310.356 175.471 310.693 176.162C311.029 176.853 311.501 177.469 312.08 177.975L347.187 208.792C348.292 209.761 349.727 210.27 351.196 210.214C352.666 210.157 354.057 209.54 355.085 208.488L489.449 71.5476C490.485 70.4762 491.064 69.044 491.064 67.5534C491.064 66.0628 490.485 64.6305 489.449 63.5591L453.402 25.5419C452.861 24.976 452.21 24.5265 451.488 24.2207C450.767 23.915 449.992 23.7595 449.209 23.7638C448.425 23.768 447.651 23.9319 446.934 24.2455C446.216 24.559 445.57 25.0157 445.035 25.5874ZM323.085 176.11C322.599 176.593 321.98 176.921 321.308 177.053C320.635 177.185 319.938 177.115 319.306 176.852C318.673 176.588 318.132 176.143 317.752 175.573C317.371 175.003 317.168 174.332 317.168 173.647C317.168 172.961 317.371 172.291 317.752 171.721C318.132 171.151 318.673 170.706 319.306 170.442C319.938 170.179 320.635 170.109 321.308 170.24C321.98 170.372 322.599 170.701 323.085 171.184C323.407 171.509 323.662 171.895 323.834 172.32C324.006 172.744 324.092 173.198 324.088 173.656C324.084 174.114 323.989 174.567 323.809 174.988C323.629 175.409 323.368 175.79 323.04 176.11H323.085Z" fill="url(#paint9_linear_1395_3042)"/>
<path fill-rule="evenodd" clip-rule="evenodd" d="M444.595 25.1773L311.201 169.318C310.681 169.885 310.279 170.549 310.019 171.273C309.758 171.997 309.645 172.766 309.686 173.534C309.727 174.302 309.921 175.054 310.257 175.746C310.593 176.439 311.063 177.057 311.641 177.564L346.748 208.366C347.854 209.339 349.29 209.851 350.761 209.797C352.233 209.744 353.628 209.129 354.66 208.078L488.994 71.1527C490.03 70.0813 490.61 68.649 490.61 67.1584C490.61 65.6678 490.03 64.2356 488.994 63.1642L452.993 25.1773C452.454 24.6037 451.804 24.1466 451.082 23.8341C450.359 23.5216 449.581 23.3604 448.794 23.3604C448.007 23.3604 447.229 23.5216 446.506 23.8341C445.784 24.1466 445.134 24.6037 444.595 25.1773ZM322.646 175.685C322.16 176.17 321.542 176.5 320.869 176.634C320.195 176.768 319.497 176.699 318.863 176.436C318.229 176.173 317.687 175.728 317.306 175.157C316.925 174.587 316.721 173.916 316.721 173.229C316.721 172.543 316.925 171.872 317.306 171.301C317.687 170.73 318.229 170.285 318.863 170.022C319.497 169.76 320.195 169.691 320.869 169.824C321.542 169.958 322.16 170.288 322.646 170.774C322.975 171.095 323.237 171.48 323.415 171.904C323.594 172.328 323.686 172.784 323.686 173.244C323.686 173.705 323.594 174.16 323.415 174.585C323.237 175.009 322.975 175.393 322.646 175.715V175.685Z" fill="url(#paint10_linear_1395_3042)"/>
<path fill-rule="evenodd" clip-rule="evenodd" d="M315.885 169.091C315.034 169.943 314.456 171.029 314.225 172.211C313.994 173.393 314.12 174.617 314.587 175.727C315.055 176.837 315.842 177.783 316.849 178.444C317.856 179.105 319.036 179.451 320.241 179.438C321.445 179.425 322.618 179.054 323.611 178.371C324.603 177.689 325.37 176.727 325.813 175.607C326.257 174.487 326.357 173.261 326.1 172.084C325.844 170.907 325.243 169.834 324.374 169C323.228 167.901 321.698 167.295 320.111 167.312C318.524 167.329 317.006 167.968 315.885 169.091ZM322.358 175.427C321.931 175.844 321.391 176.126 320.805 176.238C320.218 176.349 319.612 176.285 319.062 176.054C318.512 175.822 318.043 175.434 317.713 174.937C317.383 174.439 317.206 173.856 317.206 173.259C317.206 172.663 317.383 172.079 317.713 171.582C318.043 171.085 318.512 170.696 319.062 170.465C319.612 170.234 320.218 170.17 320.805 170.281C321.391 170.392 321.931 170.674 322.358 171.092C322.646 171.374 322.876 171.711 323.033 172.083C323.189 172.456 323.27 172.855 323.27 173.259C323.27 173.663 323.189 174.063 323.033 174.435C322.876 174.807 322.646 175.145 322.358 175.427Z" fill="url(#paint11_linear_1395_3042)"/>
<path fill-rule="evenodd" clip-rule="evenodd" d="M317.704 170.851C317.099 171.518 316.776 172.393 316.802 173.294C316.828 174.194 317.202 175.049 317.844 175.68C318.487 176.311 319.349 176.669 320.25 176.679C321.151 176.688 322.02 176.349 322.676 175.732C323.018 175.41 323.291 175.022 323.48 174.592C323.668 174.162 323.768 173.699 323.773 173.229C323.778 172.76 323.688 172.294 323.509 171.86C323.329 171.427 323.064 171.033 322.729 170.705C322.394 170.376 321.996 170.118 321.559 169.947C321.122 169.775 320.655 169.694 320.186 169.708C319.716 169.721 319.255 169.829 318.828 170.026C318.402 170.222 318.019 170.503 317.704 170.851ZM322.373 175.398C321.946 175.815 321.406 176.097 320.82 176.209C320.234 176.32 319.628 176.256 319.078 176.025C318.528 175.793 318.058 175.405 317.728 174.908C317.398 174.411 317.222 173.827 317.222 173.23C317.222 172.634 317.398 172.05 317.728 171.553C318.058 171.056 318.528 170.667 319.078 170.436C319.628 170.205 320.234 170.141 320.82 170.252C321.406 170.364 321.946 170.646 322.373 171.063C322.665 171.347 322.898 171.686 323.056 172.062C323.214 172.438 323.295 172.841 323.293 173.249C323.292 173.656 323.208 174.059 323.047 174.434C322.887 174.808 322.652 175.147 322.358 175.428L322.373 175.398Z" fill="url(#paint12_linear_1395_3042)"/>
<path d="M409.852 81.6136C411.213 81.4484 412.589 81.759 413.748 82.4928L411.853 84.4179C411.195 84.1316 410.463 84.0575 409.761 84.2057C409.075 84.3609 408.445 84.7018 407.94 85.191C407.434 85.6803 407.073 86.299 406.896 86.9797C406.758 87.6275 406.811 88.3014 407.048 88.9199C407.337 89.63 407.769 90.2732 408.317 90.8102C408.864 91.3472 409.515 91.7666 410.231 92.0426C410.852 92.2725 411.529 92.3095 412.171 92.1487C412.806 91.9951 413.385 91.6639 413.839 91.1937C414.385 90.6668 414.756 89.9839 414.9 89.2383C415.026 88.5359 414.936 87.8119 414.642 87.1616L416.537 85.2213C417.297 86.3641 417.629 87.7381 417.477 89.1018C417.262 90.3716 416.699 91.5568 415.851 92.5256C415.002 93.4944 413.902 94.2088 412.671 94.5892C411.628 94.8996 410.517 94.8996 409.473 94.5892C408.329 94.2402 407.288 93.6155 406.441 92.7702C405.587 91.9468 404.938 90.9343 404.547 89.8143C404.2 88.7825 404.153 87.6735 404.41 86.6159C404.699 85.5043 405.286 84.4927 406.108 83.6903C407.08 82.5876 408.402 81.854 409.852 81.6136Z" fill="#642F4D"/>
<path d="M418.917 71.7292C419.996 71.4184 421.141 71.4184 422.221 71.7292C423.366 72.0667 424.412 72.6799 425.265 73.5149C426.119 74.35 426.755 75.3815 427.117 76.5192C427.412 77.6061 427.412 78.752 427.117 79.8389C426.815 80.953 426.224 81.9675 425.404 82.7796C424.614 83.6141 423.614 84.2213 422.509 84.538C421.423 84.8413 420.275 84.8413 419.189 84.538C418.04 84.216 416.995 83.5994 416.158 82.7493C415.29 81.9149 414.653 80.8706 414.308 79.7176C414.002 78.6374 414.002 77.4934 414.308 76.4131C414.607 75.3012 415.193 74.2872 416.006 73.4724C416.804 72.6429 417.809 72.0412 418.917 71.7292ZM416.673 76.9437C416.518 77.6031 416.56 78.2937 416.794 78.9294C417.057 79.6606 417.488 80.32 418.052 80.8545C418.598 81.4057 419.261 81.8256 419.993 82.0823C420.645 82.2787 421.341 82.2787 421.994 82.0823C422.662 81.882 423.268 81.5155 423.756 81.0171C424.243 80.5187 424.597 79.9047 424.783 79.2326C424.945 78.5747 424.908 77.8837 424.677 77.2468C424.414 76.5156 423.983 75.8563 423.419 75.3217C422.873 74.7705 422.21 74.3506 421.478 74.0939C420.826 73.8975 420.13 73.8975 419.477 74.0939C418.802 74.2714 418.191 74.6397 417.719 75.155C417.212 75.6435 416.85 76.2624 416.673 76.9437Z" fill="#642F4D"/>
<path d="M431.665 73.4422L434.697 70.3347L436.106 71.7293L431.256 76.6709L422.009 67.5759L423.828 65.7266L431.665 73.4422Z" fill="#642F4D"/>
<path d="M434.985 55.3427C436.065 55.0368 437.209 55.0368 438.289 55.3427C439.437 55.6592 440.483 56.2706 441.321 57.1163C442.184 57.9537 442.821 58.997 443.17 60.148C443.466 61.2348 443.466 62.3808 443.17 63.4676C442.862 64.579 442.272 65.5919 441.457 66.4084C440.659 67.23 439.662 67.8306 438.562 68.1516C437.477 68.4604 436.327 68.4604 435.242 68.1516C434.097 67.8141 433.052 67.2009 432.198 66.3659C431.345 65.5308 430.709 64.4993 430.346 63.3615C430.044 62.2757 430.044 61.1277 430.346 60.0419C430.642 58.9288 431.228 57.9142 432.044 57.1011C432.853 56.2667 433.867 55.6602 434.985 55.3427ZM432.741 60.5572C432.585 61.2217 432.627 61.9174 432.863 62.5581C433.123 63.2865 433.554 63.9416 434.121 64.4681C434.658 65.0296 435.324 65.4511 436.061 65.6959C436.706 65.9172 437.402 65.9435 438.062 65.7717C438.732 65.5817 439.34 65.2152 439.82 64.7106C440.323 64.2213 440.68 63.6021 440.851 62.9219C441.012 62.2589 440.975 61.5633 440.745 60.921C440.465 60.201 440.035 59.5487 439.484 59.0077C438.932 58.4667 438.272 58.0493 437.547 57.7832C436.894 57.5877 436.198 57.5877 435.546 57.7832C434.869 57.9694 434.256 58.3362 433.772 58.8443C433.286 59.3168 432.931 59.9069 432.741 60.5572Z" fill="#642F4D"/>
<path d="M452.053 55.495L446.338 54.1156L445.55 54.9341L449.143 58.466L447.339 60.3002L438.092 51.2052L441.548 47.6884C442.359 46.7378 443.504 46.1353 444.747 46.0059C445.73 46.0049 446.682 46.3558 447.43 46.9952C448.178 47.6345 448.672 48.5202 448.824 49.4923C448.894 50.4127 448.642 51.3289 448.112 52.0844L454.054 53.4031L452.053 55.495ZM444.277 53.6911L445.793 52.1753C446.838 51.1142 446.884 50.1289 445.944 49.1436C445.767 48.9443 445.55 48.7846 445.307 48.6749C445.064 48.5652 444.801 48.508 444.534 48.507C443.941 48.5805 443.398 48.8789 443.019 49.3407L441.503 50.8565L444.277 53.6911Z" fill="#642F4D"/>
<path d="M422.161 110.504L425.586 113.854L423.813 115.704L414.566 106.609L417.871 103.259C418.674 102.296 419.822 101.687 421.069 101.561C421.636 101.537 422.2 101.638 422.724 101.855C423.248 102.072 423.718 102.401 424.101 102.819C424.511 103.186 424.836 103.637 425.054 104.143C425.271 104.648 425.375 105.195 425.359 105.745C425.249 106.98 424.675 108.128 423.752 108.958L422.161 110.504ZM422.161 104.714C421.991 104.507 421.782 104.337 421.545 104.215C421.307 104.092 421.048 104.02 420.781 104.001C420.184 104.097 419.644 104.41 419.265 104.881L417.962 106.199L420.796 108.989L422.1 107.67C423.04 106.639 423.1 105.639 422.161 104.714Z" fill="#642F4D"/>
<path d="M435.151 100.394L431.513 104.092L432.726 106.578L430.816 108.549L425.026 96.1949L427.087 94.0879L439.547 99.6662L437.637 101.606L435.151 100.394ZM433.257 99.5146L428.027 97.0589L430.589 102.243L433.257 99.5146Z" fill="#642F4D"/>
<path d="M440.911 95.4055L443.943 92.2981L445.353 93.6926L440.502 98.6343L431.271 89.5393L433.074 87.7051L440.911 95.4055Z" fill="#642F4D"/>
<path d="M440.487 83.1274L442.882 85.4769L446.096 82.2027L447.505 83.5822L444.292 86.8564L446.778 89.2969L450.37 85.6285L451.886 87.1444L446.475 92.6469L437.243 83.5518L442.655 78.0342L444.17 79.4742L440.487 83.1274Z" fill="#642F4D"/>
<path d="M450.112 70.3809L451.628 71.8967L449.127 74.4433L456.888 82.0225L455.084 83.8718L447.308 76.2926L444.822 78.8241L443.306 77.3992L450.112 70.3809Z" fill="#642F4D"/>
<path d="M457.268 63.0732L458.783 64.5891L456.282 67.1357L464.058 74.7149L462.239 76.549L454.478 68.9699L451.977 71.5013L450.461 70.0613L457.268 63.0732Z" fill="#642F4D"/>
<path d="M461.557 61.664L463.937 64.0135L467.151 60.7393L468.56 62.1187L465.362 65.393L467.848 67.8335L471.44 64.1651L472.956 65.681L467.56 71.1835L458.313 62.0884L463.725 56.5859L465.241 58.1018L461.557 61.664Z" fill="#642F4D"/>
<path fill-rule="evenodd" clip-rule="evenodd" d="M264.362 362.619H162.513L170.926 324.723L171.229 323.358H183.916C184.189 324.63 184.549 325.88 184.993 327.103C187.433 333.878 194.739 347.445 214.112 347.445C226.663 347.445 233.666 341.761 237.547 335.91C240.041 332.13 241.662 327.843 242.291 323.358H255.646L259.223 339.548L264.362 362.619Z" fill="url(#paint13_linear_1395_3042)"/>
<path fill-rule="evenodd" clip-rule="evenodd" d="M131.756 362.618C131.756 362.618 129.392 366.665 134.121 370.288H289.54C289.54 370.288 295.164 367.105 293.981 362.618H131.756Z" fill="url(#paint14_linear_1395_3042)"/>
<g style="mix-blend-mode:multiply" opacity="0.5">
<path fill-rule="evenodd" clip-rule="evenodd" d="M183.916 323.312C184.189 324.584 184.549 325.835 184.993 327.057L170.926 324.677H170.759L171.229 323.343L183.916 323.312Z" fill="#614881"/>
</g>
<g style="mix-blend-mode:multiply" opacity="0.5">
<path fill-rule="evenodd" clip-rule="evenodd" d="M259.223 339.502L237.547 335.864C240.041 332.084 241.662 327.797 242.291 323.312H255.646L259.223 339.502Z" fill="#614881"/>
</g>
<path fill-rule="evenodd" clip-rule="evenodd" d="M31.7262 304.608L54.7063 123.299C55.225 119.285 57.1858 115.597 60.2231 112.922C63.2603 110.248 67.1667 108.769 71.2138 108.762H358.465C362.554 108.769 366.498 110.278 369.548 113.003C372.597 115.728 374.538 119.478 375.003 123.541L395.285 304.85C395.538 307.174 395.299 309.525 394.585 311.75C393.87 313.976 392.696 316.026 391.138 317.769C389.58 319.511 387.673 320.907 385.541 321.864C383.409 322.822 381.099 323.321 378.762 323.329H48.2185C45.8607 323.321 43.5315 322.813 41.3844 321.839C39.2374 320.864 37.3213 319.446 35.7628 317.677C34.2042 315.908 33.0386 313.828 32.3428 311.575C31.6469 309.323 31.4368 306.948 31.7262 304.608Z" fill="url(#paint15_linear_1395_3042)"/>
<path fill-rule="evenodd" clip-rule="evenodd" d="M31.1049 303.47L55.1916 113.551C55.5681 110.576 57.0171 107.842 59.2666 105.861C61.5161 103.879 64.4114 102.786 67.4092 102.788H362.331C365.36 102.788 368.284 103.903 370.544 105.922C372.803 107.941 374.239 110.722 374.578 113.732L395.8 303.652C395.985 305.371 395.806 307.11 395.275 308.756C394.744 310.401 393.873 311.917 392.718 313.203C391.562 314.49 390.149 315.519 388.57 316.224C386.991 316.929 385.281 317.294 383.552 317.294H43.3377C41.5933 317.292 39.8693 316.92 38.2793 316.202C36.6892 315.485 35.2694 314.439 34.1134 313.132C32.9575 311.826 32.0916 310.289 31.573 308.624C31.0544 306.958 30.8949 305.202 31.1049 303.47Z" fill="url(#paint16_radial_1395_3042)"/>
<g style="mix-blend-mode:soft-light" opacity="0.6">
<path fill-rule="evenodd" clip-rule="evenodd" d="M37.835 250.461L145.46 317.34L41.3215 317.158C41.3215 317.158 31.2715 314.035 31.7111 304.607C32.1506 295.178 31.0896 303.47 31.0896 303.47L37.835 250.461Z" fill="white"/>
</g>
<path fill-rule="evenodd" clip-rule="evenodd" d="M60.9669 122.207L363.589 116.234L387.16 294.648H39.5784L60.9669 122.207Z" fill="url(#paint17_linear_1395_3042)"/>
<path fill-rule="evenodd" clip-rule="evenodd" d="M65.2871 294.648L82.1432 136.349H346.505L362.937 294.648H65.2871Z" fill="white"/>
<path fill-rule="evenodd" clip-rule="evenodd" d="M41.3064 294.648L62.7858 123.844L362.937 117.508L385.265 294.648H387.16L363.589 116.234L60.9669 122.207L39.5784 294.648H41.3064Z" fill="url(#paint18_linear_1395_3042)"/>
<path fill-rule="evenodd" clip-rule="evenodd" d="M367.575 306.154V309.019H379.187V305.472L367.575 306.154Z" fill="url(#paint19_linear_1395_3042)"/>
<path fill-rule="evenodd" clip-rule="evenodd" d="M367.575 306.154L375.261 305.79V309.019H367.575V306.154Z" fill="#FF6BFF"/>
<path fill-rule="evenodd" clip-rule="evenodd" d="M334.196 207.291C298.65 207.291 285.962 147.112 246.49 149.856C207.018 152.599 203.274 207.291 185.493 207.291C167.712 207.291 167.379 177.11 143.049 178.49C118.72 179.869 109.201 207.291 109.201 207.291H334.196Z" fill="url(#paint20_linear_1395_3042)"/>
<path fill-rule="evenodd" clip-rule="evenodd" d="M190.374 207.289H334.257C334.257 207.289 339.32 165.77 307.942 158.055C276.564 150.339 264.529 185.34 251.856 187.796C239.184 190.251 236.819 181.217 221.782 182.111C206.745 183.006 205.714 201.135 196.483 204.212C187.251 207.289 184.174 198.437 173.23 200.468C162.285 202.499 158.541 207.289 158.541 207.289H190.374Z" fill="url(#paint21_linear_1395_3042)"/>
<path fill-rule="evenodd" clip-rule="evenodd" d="M86.4327 140.441L85.8264 144.322H119.766L120.448 140.441H86.4327Z" fill="url(#paint22_linear_1395_3042)"/>
<path fill-rule="evenodd" clip-rule="evenodd" d="M180.612 140.441L180.005 144.322H193.86L194.542 140.441H180.612Z" fill="#DDAEE5"/>
<path fill-rule="evenodd" clip-rule="evenodd" d="M206.684 140.441L206.078 144.322H219.933L220.615 140.441H206.684Z" fill="#DDAEE5"/>
<path fill-rule="evenodd" clip-rule="evenodd" d="M232.757 140.441L232.15 144.322H246.005L246.687 140.441H232.757Z" fill="#DDAEE5"/>
<path fill-rule="evenodd" clip-rule="evenodd" d="M258.844 140.441L258.223 144.322H272.077L272.76 140.441H258.844Z" fill="#DDAEE5"/>
<path fill-rule="evenodd" clip-rule="evenodd" d="M320.569 140.441L319.963 144.322H333.818L334.5 140.441H320.569Z" fill="#DDAEE5"/>
<path fill-rule="evenodd" clip-rule="evenodd" d="M82.1126 216.052L345.398 212.384L347.369 233.136L80.6726 233.075L82.1126 216.052Z" fill="#F0DBF4"/>
<path fill-rule="evenodd" clip-rule="evenodd" d="M155.358 290.328H111.944L117.993 236.955H158.799L155.358 290.328Z" fill="#CEECF4"/>
<path fill-rule="evenodd" clip-rule="evenodd" d="M126.269 251.386L124.389 269.924H146.551L147.961 251.386H126.269ZM142.943 266.665H128.528L129.71 254.539H143.959L142.943 266.665Z" fill="white"/>
<path fill-rule="evenodd" clip-rule="evenodd" d="M129.968 265.559H142.049L138.79 258.995L135.743 261.527L134.788 260.829L129.968 265.559Z" fill="white"/>
<path fill-rule="evenodd" clip-rule="evenodd" d="M136.243 258.404C136.177 258.956 135.91 259.465 135.494 259.833C135.078 260.202 134.541 260.405 133.985 260.405C133.723 260.417 133.463 260.373 133.22 260.275C132.977 260.178 132.759 260.029 132.579 259.839C132.399 259.649 132.262 259.422 132.178 259.175C132.093 258.927 132.063 258.664 132.09 258.404C132.16 257.854 132.427 257.347 132.843 256.979C133.258 256.611 133.793 256.406 134.349 256.403C134.61 256.391 134.871 256.435 135.113 256.533C135.356 256.631 135.575 256.78 135.754 256.97C135.934 257.16 136.071 257.386 136.155 257.634C136.24 257.881 136.27 258.144 136.243 258.404Z" fill="white"/>
<path fill-rule="evenodd" clip-rule="evenodd" d="M208.018 290.328H164.62L167.5 236.955H208.306L208.018 290.328Z" fill="#CEC4F4"/>
<path fill-rule="evenodd" clip-rule="evenodd" d="M176.625 251.386L175.852 269.924H197.953L198.256 251.386H176.625ZM194.254 266.665H179.763L180.233 254.539H194.482L194.254 266.665Z" fill="white"/>
<path fill-rule="evenodd" clip-rule="evenodd" d="M181.173 265.559H193.254L189.601 258.995L186.706 261.527L185.705 260.829L181.173 265.559Z" fill="white"/>
<path fill-rule="evenodd" clip-rule="evenodd" d="M187.024 258.406C186.997 258.951 186.758 259.465 186.36 259.838C185.961 260.211 185.433 260.415 184.887 260.407C184.622 260.413 184.358 260.365 184.111 260.267C183.865 260.169 183.641 260.022 183.453 259.835C183.265 259.648 183.116 259.425 183.016 259.18C182.916 258.934 182.866 258.671 182.871 258.406C182.905 257.863 183.146 257.354 183.543 256.982C183.94 256.61 184.464 256.404 185.008 256.405C185.273 256.399 185.537 256.446 185.783 256.544C186.03 256.642 186.254 256.789 186.442 256.976C186.63 257.163 186.779 257.386 186.879 257.632C186.979 257.877 187.028 258.141 187.024 258.406Z" fill="white"/>
<path fill-rule="evenodd" clip-rule="evenodd" d="M260.694 290.328H217.295L217.007 236.955H257.813L260.694 290.328Z" fill="#CED1F4"/>
<path fill-rule="evenodd" clip-rule="evenodd" d="M226.996 251.386L227.315 269.924H249.491L248.703 251.386H226.996ZM245.52 266.665H231.074L230.801 254.539H245.065L245.52 266.665Z" fill="white"/>
<path fill-rule="evenodd" clip-rule="evenodd" d="M232.378 265.559H244.459L240.427 258.995L237.668 261.527L236.637 260.829L232.378 265.559Z" fill="white"/>
<path fill-rule="evenodd" clip-rule="evenodd" d="M237.805 258.406C237.809 258.671 237.759 258.935 237.659 259.18C237.559 259.426 237.411 259.649 237.222 259.836C237.034 260.022 236.81 260.169 236.564 260.268C236.317 260.366 236.054 260.413 235.788 260.407C235.242 260.416 234.714 260.212 234.316 259.838C233.917 259.465 233.679 258.952 233.651 258.406C233.647 258.14 233.697 257.875 233.798 257.628C233.899 257.382 234.049 257.158 234.239 256.971C234.428 256.784 234.654 256.637 234.902 256.54C235.151 256.443 235.416 256.397 235.682 256.405C236.226 256.401 236.75 256.606 237.146 256.979C237.541 257.352 237.777 257.863 237.805 258.406Z" fill="white"/>
<path fill-rule="evenodd" clip-rule="evenodd" d="M313.369 290.328H269.955L266.529 236.955H307.32L313.369 290.328Z" fill="#FFC4F4"/>
<path fill-rule="evenodd" clip-rule="evenodd" d="M277.353 251.386L278.777 269.924H300.939L299.044 251.386H277.353ZM296.786 266.665H282.34L281.354 254.539H295.603L296.786 266.665Z" fill="white"/>
<path fill-rule="evenodd" clip-rule="evenodd" d="M283.583 265.559H295.664L291.238 258.995L288.63 261.527L287.554 260.829L283.583 265.559Z" fill="white"/>
<path fill-rule="evenodd" clip-rule="evenodd" d="M288.585 258.403C288.609 258.664 288.577 258.928 288.491 259.175C288.404 259.423 288.266 259.649 288.085 259.839C287.904 260.028 287.685 260.177 287.441 260.274C287.198 260.372 286.937 260.416 286.675 260.404C286.121 260.404 285.586 260.2 285.172 259.831C284.758 259.462 284.495 258.954 284.431 258.403C284.41 258.143 284.444 257.881 284.531 257.634C284.618 257.388 284.756 257.163 284.937 256.974C285.117 256.785 285.336 256.636 285.578 256.538C285.82 256.439 286.08 256.393 286.341 256.403C286.896 256.403 287.431 256.607 287.844 256.976C288.258 257.345 288.522 257.853 288.585 258.403Z" fill="white"/>
<path d="M195.009 186.517C199.42 182.106 199.42 174.956 195.009 170.546C190.599 166.136 183.449 166.136 179.039 170.546C174.629 174.956 174.629 182.106 179.039 186.517C183.449 190.927 190.599 190.927 195.009 186.517Z" fill="url(#paint23_linear_1395_3042)"/>
<path d="M162.755 182.112C166.079 182.112 168.773 179.418 168.773 176.094C168.773 172.77 166.079 170.076 162.755 170.076C159.432 170.076 156.737 172.77 156.737 176.094C156.737 179.418 159.432 182.112 162.755 182.112Z" fill="url(#paint24_linear_1395_3042)"/>
<path fill-rule="evenodd" clip-rule="evenodd" d="M109.155 198.15C109.152 198.884 108.932 199.6 108.522 200.209C108.112 200.818 107.531 201.291 106.852 201.57C106.173 201.849 105.427 201.92 104.708 201.775C103.988 201.63 103.328 201.275 102.81 200.755C102.292 200.235 101.94 199.574 101.798 198.854C101.656 198.134 101.73 197.388 102.012 196.71C102.293 196.032 102.769 195.453 103.38 195.046C103.99 194.638 104.708 194.421 105.442 194.421C105.931 194.421 106.415 194.517 106.866 194.705C107.318 194.893 107.728 195.168 108.073 195.514C108.418 195.86 108.691 196.272 108.877 196.724C109.063 197.176 109.157 197.661 109.155 198.15Z" fill="url(#paint25_linear_1395_3042)"/>
<path d="M65.5899 294.679L64.9988 294.618L81.8701 136.062H346.763L346.793 136.319L363.24 294.618L362.634 294.679L346.232 136.653H82.4006L65.5899 294.679Z" fill="#130025"/>
<g style="mix-blend-mode:multiply" opacity="0.5">
<path fill-rule="evenodd" clip-rule="evenodd" d="M209.473 208.608L211.565 270.151H357.707L349.355 207.335L209.473 208.608Z" fill="#8148B0"/>
</g>
<path fill-rule="evenodd" clip-rule="evenodd" d="M220.615 189.813L222.373 254.525H369.94L362.573 189.813H220.615Z" fill="white"/>
<path fill-rule="evenodd" clip-rule="evenodd" d="M220.903 200.546H363.801L362.573 189.813H220.615L220.903 200.546Z" fill="url(#paint26_linear_1395_3042)"/>
<path d="M370.273 254.827H222.07V254.539L220.296 189.524H362.785V189.782L370.273 254.827ZM222.661 254.22H369.606L362.315 190.116H220.918L222.661 254.22Z" fill="#130025"/>
<path fill-rule="evenodd" clip-rule="evenodd" d="M262.482 221.584H248.339L247.369 207.335H261.527L262.482 221.584Z" fill="#A900FF"/>
<path fill-rule="evenodd" clip-rule="evenodd" d="M279.035 221.584H264.892L263.922 207.335H278.065L279.035 221.584Z" fill="#FF00FF"/>
<path fill-rule="evenodd" clip-rule="evenodd" d="M295.361 221.584H281.218L280.248 207.335H294.391L295.361 221.584Z" fill="#FF60FF"/>
<path fill-rule="evenodd" clip-rule="evenodd" d="M311.686 221.584H297.544L296.573 207.335H310.716L311.686 221.584Z" fill="#FF86FF"/>
<path fill-rule="evenodd" clip-rule="evenodd" d="M328.012 221.584H313.869L312.899 207.335H327.042L328.012 221.584Z" fill="#FFB0FF"/>
<path fill-rule="evenodd" clip-rule="evenodd" d="M344.337 221.584H330.195L329.224 207.335H343.367L344.337 221.584Z" fill="#FFDBFF"/>
<path fill-rule="evenodd" clip-rule="evenodd" d="M263.649 238.911H249.506L248.552 224.662H262.694L263.649 238.911Z" fill="#2F56FF"/>
<path fill-rule="evenodd" clip-rule="evenodd" d="M280.203 238.911H266.06L265.105 224.662H279.248L280.203 238.911Z" fill="#2E8EFF"/>
<path fill-rule="evenodd" clip-rule="evenodd" d="M296.528 238.911H282.385L281.415 224.662H295.573L296.528 238.911Z" fill="#7F97FF"/>
<path fill-rule="evenodd" clip-rule="evenodd" d="M312.853 238.911H298.711L297.74 224.662H311.898L312.853 238.911Z" fill="#CEC2FF"/>
<path fill-rule="evenodd" clip-rule="evenodd" d="M329.179 238.911H315.036L314.066 224.662H328.224L329.179 238.911Z" fill="#2FE7FF"/>
<path fill-rule="evenodd" clip-rule="evenodd" d="M345.505 238.911H331.362L330.392 224.662H344.534L345.505 238.911Z" fill="#B0BFFF"/>
<g style="mix-blend-mode:soft-light">
<path fill-rule="evenodd" clip-rule="evenodd" d="M349.87 191.162L350.689 199.196H362.209L361.285 191.162H349.87Z" fill="#DDC2FF"/>
</g>
<g style="mix-blend-mode:soft-light" opacity="0.6">
<path fill-rule="evenodd" clip-rule="evenodd" d="M184.993 331.377C184.993 331.377 193.36 348.46 212.657 348.46C218.096 348.576 223.477 347.326 228.308 344.823C233.138 342.321 237.263 338.646 240.306 334.136C240.306 334.136 231.59 349.961 212.642 349.961C192.845 349.991 184.993 331.377 184.993 331.377Z" fill="white"/>
</g>
<path fill-rule="evenodd" clip-rule="evenodd" d="M220.13 347.733C224.039 346.944 227.757 345.4 231.074 343.186C229.797 344.823 228.118 346.103 226.2 346.9C224.283 347.697 222.191 347.984 220.13 347.733Z" fill="white"/>
<path d="M353.909 192.254L353.123 193.157L358.703 198.013L359.489 197.11L353.909 192.254Z" fill="white"/>
<path d="M358.23 192.258L353.364 197.124L354.21 197.971L359.077 193.105L358.23 192.258Z" fill="white"/>
<path fill-rule="evenodd" clip-rule="evenodd" d="M226.496 358.436L238.304 382.052L369.879 384.66C371.511 382.476 373.029 380.209 374.427 377.869C374.139 367.531 365.423 339.26 325.192 331.393C277.944 322.146 226.496 358.436 226.496 358.436Z" fill="url(#paint27_radial_1395_3042)"/>
<path fill-rule="evenodd" clip-rule="evenodd" d="M226.496 358.435C311.61 323.101 289.221 393.678 374.108 375.776C374.108 375.776 370.652 335.667 314.991 330.589C266.514 326.163 226.496 358.435 226.496 358.435Z" fill="url(#paint28_radial_1395_3042)"/>
<g style="mix-blend-mode:multiply" opacity="0.5">
<path fill-rule="evenodd" clip-rule="evenodd" d="M238.304 382.052C272.608 382.052 333.514 380.536 351.598 378.611C369.682 376.686 374.336 377.868 374.336 377.868L369.788 384.659L238.304 382.052Z" fill="#614881"/>
</g>
<path style="mix-blend-mode:multiply" opacity="0.8" fill-rule="evenodd" clip-rule="evenodd" d="M230.513 365.469C230.513 365.469 248.051 357.298 274.654 364.195C301.257 371.092 315.733 377.004 317.295 378.611C318.856 380.218 315.385 381.506 315.385 381.506L346.96 379.081C346.96 379.081 338.698 380.597 317.901 373.412C297.104 366.227 283.325 336.319 226.496 358.435L230.513 365.469Z" fill="url(#paint29_linear_1395_3042)"/>
<g style="mix-blend-mode:multiply" opacity="0.5">
<g style="mix-blend-mode:multiply" opacity="0.5">
<path d="M351.735 379.611C343.422 379.559 335.136 378.644 327.012 376.883C318.796 375.155 312.353 370.243 305.532 365.029C289.964 353.16 272.335 339.714 226.709 358.965L226.254 357.874C272.502 338.335 290.419 352.008 306.229 364.059C312.945 369.182 319.296 374.033 327.239 375.7C357.343 382.021 373.699 375.276 373.866 375.2L374.336 376.307C374.245 376.367 366.408 379.611 351.735 379.611Z" fill="#614881"/>
</g>
</g>
<path d="M233.575 358.224C243.759 351.071 256.154 347.772 268.545 348.917C274.706 349.446 280.746 350.935 286.447 353.328C292.094 355.831 297.397 359.045 302.227 362.893C306.994 366.752 312.133 370.129 317.568 372.973C320.324 374.309 323.19 375.41 326.132 376.262C329.08 377.089 332.077 377.727 335.106 378.172C341.196 378.955 347.343 379.209 353.478 378.93C359.541 378.733 365.741 378.142 371.835 377.414C359.708 379.143 347.308 380.219 335.06 378.597C331.991 378.176 328.953 377.553 325.965 376.732C322.991 375.887 320.095 374.786 317.31 373.443C311.827 370.62 306.643 367.253 301.833 363.393C297.033 359.589 291.784 356.387 286.205 353.858C280.564 351.433 274.581 349.899 268.47 349.311C262.369 348.757 256.219 349.239 250.28 350.736C244.299 352.185 238.636 354.724 233.575 358.224Z" fill="#614881"/>
<path fill-rule="evenodd" clip-rule="evenodd" d="M287.281 333.499L294.709 332.544C294.709 332.544 277.777 324.662 264.862 333.211C264.862 333.211 276.306 329.224 287.281 333.499Z" fill="url(#paint30_radial_1395_3042)"/>
<g style="mix-blend-mode:multiply" opacity="0.5">
<g style="mix-blend-mode:multiply" opacity="0.5">
<path d="M243.837 348.87L243.549 348.355C273.063 332.469 292.86 331.499 308.336 332.635V333.227C292.905 332.105 273.214 333.075 243.837 348.87Z" fill="#614881"/>
</g>
</g>
<path fill-rule="evenodd" clip-rule="evenodd" d="M254.039 343.247C254.039 343.247 265.711 323.314 287.266 333.5C275.863 335.507 264.719 338.776 254.039 343.247Z" fill="url(#paint31_radial_1395_3042)"/>
<g style="mix-blend-mode:multiply" opacity="0.5">
<g style="mix-blend-mode:multiply" opacity="0.5">
<path d="M271.744 349.143L271.395 348.658C271.729 348.431 304.531 325.632 332.029 332.681L331.877 333.257C304.668 326.284 272.062 348.916 271.744 349.143Z" fill="#614881"/>
</g>
</g>
<path fill-rule="evenodd" clip-rule="evenodd" d="M313.005 333.804C313.005 333.804 340.29 335.789 358.723 363.863H362.179C362.179 363.863 347.642 337.305 314.824 333.546L313.005 333.804Z" fill="url(#paint32_linear_1395_3042)"/>
<path fill-rule="evenodd" clip-rule="evenodd" d="M268.151 331.378C268.151 331.378 277.898 326.679 290.889 333.046L293.026 332.757C293.026 332.757 279.975 326.361 268.151 331.378Z" fill="url(#paint33_linear_1395_3042)"/>
<path style="mix-blend-mode:screen" opacity="0.5" fill-rule="evenodd" clip-rule="evenodd" d="M301.212 339.032C301.985 343.579 291.313 349.249 277.383 351.568C263.452 353.887 251.614 352.038 250.78 347.445C249.946 342.852 260.678 337.228 274.609 334.909C288.539 332.589 300.454 334.409 301.212 339.032Z" fill="url(#paint34_radial_1395_3042)"/>
<path fill-rule="evenodd" clip-rule="evenodd" d="M244.019 354.465L248.339 358.239C248.339 358.239 268.758 353.995 285.826 361.786L291.253 358.239C291.253 358.239 268.849 345.233 244.019 354.465Z" fill="url(#paint35_radial_1395_3042)"/>
<g style="mix-blend-mode:multiply" opacity="0.5">
<g style="mix-blend-mode:multiply" opacity="0.5">
<path d="M267.61 350.575L266.418 350.681L267.021 357.49L268.213 357.385L267.61 350.575Z" fill="#614881"/>
</g>
</g>
<path fill-rule="evenodd" clip-rule="evenodd" d="M20.4332 63.9994C18.1686 63.0718 15.695 62.7748 13.2752 63.14C10.8553 63.5051 8.57949 64.5186 6.68932 66.073C4.79915 67.6274 3.36522 69.6647 2.53969 71.9685C1.71416 74.2723 1.52787 76.7566 2.00062 79.1577L36.8649 116.538L42.8221 109.884L50.5529 105.23L20.4332 63.9994Z" fill="url(#paint36_linear_1395_3042)"/>
<path fill-rule="evenodd" clip-rule="evenodd" d="M38.0322 127.452C38.0322 127.452 43.8379 110.884 61.5732 108.004C61.5277 108.004 55.2976 117.387 38.0322 127.452Z" fill="url(#paint37_linear_1395_3042)"/>
<path fill-rule="evenodd" clip-rule="evenodd" d="M38.0322 127.451L33.136 122.449C33.136 122.449 39.1084 104.729 58.3444 102.485L61.5731 108.003C61.5731 108.003 45.0202 111.732 38.0322 127.451Z" fill="url(#paint38_linear_1395_3042)"/>
<path style="mix-blend-mode:screen" fill-rule="evenodd" clip-rule="evenodd" d="M2.00061 79.233C3.75042 75.4933 6.31339 72.1915 9.5024 69.569C12.6914 66.9465 16.4259 65.0693 20.4332 64.0746C20.4332 64.0746 12.1415 61.8615 6.65419 66.1665C1.16686 70.4714 2.00061 79.233 2.00061 79.233Z" fill="url(#paint39_linear_1395_3042)"/>
<path fill-rule="evenodd" clip-rule="evenodd" d="M88.2516 161.134C88.7634 161.245 89.2693 161.382 89.7675 161.543C97.8621 164.045 93.2994 170.093 93.2994 170.093C93.2994 170.093 87.3118 173.034 85.8111 166.44C85.594 165.444 85.4822 164.427 85.4776 163.408C82.642 163.29 79.8363 162.78 77.1405 161.892C74.1089 160.604 43.3525 121.859 43.3525 121.859C44.649 119.552 46.4213 117.547 48.5519 115.977C50.5367 114.234 52.8295 112.877 55.3125 111.976C55.3125 111.976 87.5847 149.417 88.2668 152.691C88.6471 155.493 88.6419 158.334 88.2516 161.134Z" fill="url(#paint40_linear_1395_3042)"/>
<path fill-rule="evenodd" clip-rule="evenodd" d="M62.5737 143.17C65.021 139.507 67.9877 136.218 71.3807 133.408C71.3807 133.408 85.8721 150.082 86.6149 152.72C87.3577 155.358 87.3274 159.92 85.9934 161.163C84.6595 162.406 79.9301 162.482 77.0197 160.132C74.1093 157.783 62.5737 143.17 62.5737 143.17Z" fill="url(#paint41_linear_1395_3042)"/>
<path fill-rule="evenodd" clip-rule="evenodd" d="M87.297 163.331C85.948 164.998 88.9645 171.471 92.4509 168.955C95.9373 166.438 89.7375 160.254 87.297 163.331Z" fill="url(#paint42_linear_1395_3042)"/>
<g style="mix-blend-mode:multiply" opacity="0.5">
<path fill-rule="evenodd" clip-rule="evenodd" d="M47.7032 127.21C47.7032 127.21 52.1295 118.584 59.8299 117.175L56.9801 113.309L61.6186 108.004C61.6186 108.004 45.5659 111.748 38.0776 127.452L44.3987 123.481L47.7032 127.21Z" fill="#BD4881"/>
</g>
<g style="mix-blend-mode:multiply" opacity="0.5">
<path fill-rule="evenodd" clip-rule="evenodd" d="M88.252 161.133C88.7637 161.244 89.2697 161.38 89.7678 161.542C89.4647 161.542 85.387 161.027 85.8115 166.438C85.5943 165.442 85.4825 164.426 85.478 163.406C82.6423 163.288 79.8367 162.778 77.1409 161.891C77.1409 161.891 84.9929 158.146 88.2672 152.689C88.6474 155.491 88.6423 158.332 88.252 161.133Z" fill="#BD4881"/>
</g>
<g style="mix-blend-mode:multiply" opacity="0.5">
<path fill-rule="evenodd" clip-rule="evenodd" d="M32.2722 111.58C32.2722 111.58 34.5763 114.793 41.9584 108.76C49.3405 102.727 46.3695 99.4531 46.3695 99.4531L50.1894 104.683C44.52 106.938 39.7337 110.97 36.5468 116.173L32.2722 111.58Z" fill="#FFA2BF"/>
</g>
<path style="mix-blend-mode:screen" opacity="0.5" fill-rule="evenodd" clip-rule="evenodd" d="M27.9366 87.5257C35.3036 96.4236 39.2751 105.306 36.8043 107.353C34.3335 109.399 26.3601 103.821 18.9932 94.9229C11.6262 86.025 7.66988 77.127 10.1407 75.0958C12.6115 73.0646 20.6 78.6125 27.9366 87.5257Z" fill="url(#paint43_radial_1395_3042)"/>
<path style="mix-blend-mode:screen" opacity="0.5" fill-rule="evenodd" clip-rule="evenodd" d="M35.152 84.6589C42.2461 93.7539 47.1271 101.848 46.0357 102.697C44.9443 103.546 38.2897 96.8614 31.1956 87.736C24.1015 78.6107 19.2053 70.5464 20.2967 69.6975C21.3881 68.8487 28.0427 75.5487 35.152 84.6589Z" fill="url(#paint44_radial_1395_3042)"/>
<path fill-rule="evenodd" clip-rule="evenodd" d="M62.5737 143.17C62.5737 143.17 68.9402 142.761 71.3807 133.408C67.6859 135.887 64.6606 139.241 62.5737 143.17Z" fill="url(#paint45_linear_1395_3042)"/>
<path fill-rule="evenodd" clip-rule="evenodd" d="M401.742 0C383.552 25.5722 343.913 73.8668 343.913 73.8668L345.429 74.9733L305.411 128.573L303.895 127.482L301.667 130.514L299.772 146.187L301.727 147.703L303.667 149.219L318.159 142.959L320.402 139.927L318.886 138.82L358.905 85.2204L360.42 86.3118C360.42 86.3118 395.467 34.5762 414.824 9.86809C414.824 9.86809 412.535 4.54751 409.882 2.86493C407.502 0.666968 401.742 0 401.742 0Z" fill="url(#paint46_radial_1395_3042)"/>
<path fill-rule="evenodd" clip-rule="evenodd" d="M303.88 127.483L303.501 125.967C303.501 125.967 327.83 97.9545 342.761 73.3828C342.761 73.3828 351.856 76.6419 361.451 86.6464C361.451 86.6464 338.016 114.538 321.554 140.08L320.387 139.761C320.387 139.761 307.988 131.667 303.88 127.483Z" fill="url(#paint47_linear_1395_3042)"/>
<path fill-rule="evenodd" clip-rule="evenodd" d="M300.287 146.551L298.165 149.401C298.045 149.574 297.962 149.77 297.922 149.977C297.883 150.184 297.886 150.397 297.933 150.602C297.981 150.808 298.07 151.001 298.196 151.17C298.322 151.339 298.482 151.48 298.665 151.583C298.981 151.862 299.395 152.004 299.815 151.979C300.236 151.953 300.629 151.762 300.909 151.447L303.031 148.597L300.287 146.551Z" fill="url(#paint48_radial_1395_3042)"/>
<g style="mix-blend-mode:multiply" opacity="0.5">
<path fill-rule="evenodd" clip-rule="evenodd" d="M344.61 73.0186C344.61 73.0186 355.221 76.9597 361.936 83.9478L360.557 85.7819C360.557 85.7819 352.614 76.8839 343.883 73.8674L344.61 73.0186Z" fill="#614881"/>
</g>
<path style="mix-blend-mode:screen" opacity="0.5" fill-rule="evenodd" clip-rule="evenodd" d="M404.986 0.605469C407.002 1.2118 351.386 71.3193 350.113 73.108C348.839 74.8967 345.823 73.5173 345.823 73.5173C348.577 74.7382 351.259 76.1148 353.857 77.6404C353.857 77.6404 351.25 75.0634 351.735 73.7598C352.22 72.4562 405.304 3.22788 406.305 2.51544C407.268 2.12682 408.331 2.05773 409.337 2.31837C407.965 1.5658 406.503 0.990236 404.986 0.605469Z" fill="url(#paint49_linear_1395_3042)"/>
<path fill-rule="evenodd" clip-rule="evenodd" d="M392.647 12.3689C397.682 14.4444 402.114 17.7547 405.532 21.9944L406.093 21.2517C402.94 16.7506 398.455 13.3521 393.269 11.5352L392.647 12.3689Z" fill="url(#paint50_linear_1395_3042)"/>
<path style="mix-blend-mode:screen" opacity="0.5" fill-rule="evenodd" clip-rule="evenodd" d="M301.651 130.468C305.764 136.161 311.518 140.461 318.144 142.792L303.652 149.052L299.757 146.142L301.651 130.468Z" fill="url(#paint51_linear_1395_3042)"/>
<path fill-rule="evenodd" clip-rule="evenodd" d="M308.003 122.859C308.857 124.122 309.942 125.212 311.201 126.073L338.335 89.6926L335.303 87.4795C335.303 87.4795 319.402 107.958 308.003 122.859Z" fill="url(#paint52_linear_1395_3042)"/>
<path fill-rule="evenodd" clip-rule="evenodd" d="M308.488 123.526L321.16 106.549L322.418 106.64L321.964 105.472L335.773 87.8281L338.335 89.7381L311.201 126.118C311.201 126.118 308.958 124.678 308.488 123.526Z" fill="url(#paint53_radial_1395_3042)"/>
<g style="mix-blend-mode:multiply">
<path fill-rule="evenodd" clip-rule="evenodd" d="M338.335 89.7373L324.419 107.154L321.964 105.472L322.418 106.639L321.16 106.548L323.631 108.397L311.201 126.072L338.335 89.7373Z" fill="#614881"/>
</g>
<g style="mix-blend-mode:multiply" opacity="0.5">
<path d="M374.578 113.733L398.392 203.456L385.053 207.336L374.578 113.733Z" fill="#963C98"/>
</g>
<defs>
<radialGradient id="paint0_radial_1395_3042" cx="0" cy="0" r="1" gradientUnits="userSpaceOnUse" gradientTransform="translate(206.224 369.458) scale(205.912 7.96344)">
<stop offset="0.01" stop-color="#74409C"/>
<stop offset="0.94" stop-color="white"/>
</radialGradient>
<radialGradient id="paint1_radial_1395_3042" cx="0" cy="0" r="1" gradientUnits="userSpaceOnUse" gradientTransform="translate(67207.8 983.028) scale(17844.5 108.303)">
<stop offset="0.01" stop-color="#74409C"/>
<stop offset="0.94" stop-color="white"/>
</radialGradient>
<radialGradient id="paint2_radial_1395_3042" cx="0" cy="0" r="1" gradientUnits="userSpaceOnUse" gradientTransform="translate(315.192 381.702) scale(92.3209 4.52551)">
<stop offset="0.62" stop-color="#74409C"/>
<stop offset="0.94" stop-color="white"/>
</radialGradient>
<linearGradient id="paint3_linear_1395_3042" x1="471.209" y1="217.167" x2="365.347" y2="113.318" gradientUnits="userSpaceOnUse">
<stop offset="0.02" stop-color="#C289B0"/>
<stop offset="1" stop-color="#FF93AC"/>
</linearGradient>
<linearGradient id="paint4_linear_1395_3042" x1="471" y1="216.644" x2="365.139" y2="112.796" gradientUnits="userSpaceOnUse">
<stop offset="0.02" stop-color="#FFDBE7"/>
<stop offset="1" stop-color="#FFE8DE"/>
</linearGradient>
<linearGradient id="paint5_linear_1395_3042" x1="53940.7" y1="111809" x2="53940.7" y2="100495" gradientUnits="userSpaceOnUse">
<stop offset="0.02" stop-color="#C289B0"/>
<stop offset="1" stop-color="#FF93AC"/>
</linearGradient>
<linearGradient id="paint6_linear_1395_3042" x1="53962.6" y1="111821" x2="53962.6" y2="100500" gradientUnits="userSpaceOnUse">
<stop offset="0.02" stop-color="#FFDBE7"/>
<stop offset="1" stop-color="#FFE8DE"/>
</linearGradient>
<linearGradient id="paint7_linear_1395_3042" x1="51458.1" y1="127009" x2="51458.1" y2="117836" gradientUnits="userSpaceOnUse">
<stop offset="0.02" stop-color="#C289B0"/>
<stop offset="1" stop-color="#FF93AC"/>
</linearGradient>
<linearGradient id="paint8_linear_1395_3042" x1="51463.4" y1="126994" x2="51463.4" y2="117818" gradientUnits="userSpaceOnUse">
<stop offset="0.02" stop-color="#FFDBE7"/>
<stop offset="1" stop-color="#FFE8DE"/>
</linearGradient>
<linearGradient id="paint9_linear_1395_3042" x1="48550.1" y1="132809" x2="48550.1" y2="124954" gradientUnits="userSpaceOnUse">
<stop offset="0.02" stop-color="#C289B0"/>
<stop offset="1" stop-color="#FF93AC"/>
</linearGradient>
<linearGradient id="paint10_linear_1395_3042" x1="421.609" y1="139.844" x2="376.01" y2="95.1112" gradientUnits="userSpaceOnUse">
<stop offset="0.02" stop-color="#FFE5EE"/>
<stop offset="1" stop-color="#FFE8DE"/>
</linearGradient>
<linearGradient id="paint11_linear_1395_3042" x1="7784.22" y1="3473.85" x2="7715.66" y2="3406.59" gradientUnits="userSpaceOnUse">
<stop offset="0.02" stop-color="#B1ACC7"/>
<stop offset="1" stop-color="#CCCAE2"/>
</linearGradient>
<linearGradient id="paint12_linear_1395_3042" x1="322.727" y1="175.685" x2="317.749" y2="170.802" gradientUnits="userSpaceOnUse">
<stop stop-color="#A6A3CC"/>
<stop offset="0.98" stop-color="#8C7DAC"/>
</linearGradient>
<linearGradient id="paint13_linear_1395_3042" x1="40821.7" y1="15266.2" x2="40821.7" y2="14248.2" gradientUnits="userSpaceOnUse">
<stop stop-color="#A6A3CC"/>
<stop offset="0.98" stop-color="#8C7DAC"/>
</linearGradient>
<linearGradient id="paint14_linear_1395_3042" x1="65111.1" y1="3320.78" x2="65111.1" y2="3281.97" gradientUnits="userSpaceOnUse">
<stop offset="0.02" stop-color="#B1ACC7"/>
<stop offset="1" stop-color="#CCCAE2"/>
</linearGradient>
<linearGradient id="paint15_linear_1395_3042" x1="31.5897" y1="216.053" x2="395.391" y2="216.053" gradientUnits="userSpaceOnUse">
<stop stop-color="#D4D2E6"/>
<stop offset="0.12" stop-color="#8F87AE"/>
<stop offset="0.91" stop-color="#8F87AE"/>
<stop offset="1" stop-color="#E7E6F1"/>
</linearGradient>
<radialGradient id="paint16_radial_1395_3042" cx="0" cy="0" r="1" gradientUnits="userSpaceOnUse" gradientTransform="translate(213.46 210.064) scale(149.659 149.659)">
<stop stop-color="#2F3460"/>
<stop offset="0.98" stop-color="#422B55"/>
</radialGradient>
<linearGradient id="paint17_linear_1395_3042" x1="88.7218" y1="343.777" x2="339.926" y2="92.5721" gradientUnits="userSpaceOnUse">
<stop offset="0.03" stop-color="#BB86FF"/>
<stop offset="1" stop-color="#7C9FFF"/>
</linearGradient>
<linearGradient id="paint18_linear_1395_3042" x1="39.5784" y1="205.441" x2="387.16" y2="205.441" gradientUnits="userSpaceOnUse">
<stop offset="0.02" stop-color="#1A0018"/>
<stop offset="1" stop-color="#0B0425"/>
</linearGradient>
<linearGradient id="paint19_linear_1395_3042" x1="370.698" y1="311.277" x2="376.397" y2="303.44" gradientUnits="userSpaceOnUse">
<stop offset="0.03" stop-color="#BD5AC9"/>
<stop offset="1" stop-color="#A45CFF"/>
</linearGradient>
<linearGradient id="paint20_linear_1395_3042" x1="182.128" y1="260.224" x2="261.891" y2="150.447" gradientUnits="userSpaceOnUse">
<stop offset="0.03" stop-color="#FF9DDF"/>
<stop offset="1" stop-color="#E0C7FF"/>
</linearGradient>
<linearGradient id="paint21_linear_1395_3042" x1="215.992" y1="249.066" x2="292.481" y2="143.791" gradientUnits="userSpaceOnUse">
<stop offset="0.03" stop-color="#FF6BCF"/>
<stop offset="1" stop-color="#B67CFF"/>
</linearGradient>
<linearGradient id="paint22_linear_1395_3042" x1="11229.9" y1="1077.91" x2="11235.9" y2="1004.05" gradientUnits="userSpaceOnUse">
<stop offset="0.03" stop-color="#FF6BCF"/>
<stop offset="1" stop-color="#B67CFF"/>
</linearGradient>
<linearGradient id="paint23_linear_1395_3042" x1="8699.9" y1="6156.8" x2="8897.75" y2="5884.42" gradientUnits="userSpaceOnUse">
<stop offset="0.03" stop-color="#FF6BCF"/>
<stop offset="1" stop-color="#B67CFF"/>
</linearGradient>
<linearGradient id="paint24_linear_1395_3042" x1="4531.01" y1="3308.76" x2="4587.22" y2="3231.37" gradientUnits="userSpaceOnUse">
<stop offset="0.03" stop-color="#FF9DDF"/>
<stop offset="1" stop-color="#E0C7FF"/>
</linearGradient>
<linearGradient id="paint25_linear_1395_3042" x1="2527.07" y1="2230.26" x2="2548.46" y2="2200.77" gradientUnits="userSpaceOnUse">
<stop offset="0.03" stop-color="#FF9DDF"/>
<stop offset="1" stop-color="#E0C7FF"/>
</linearGradient>
<linearGradient id="paint26_linear_1395_3042" x1="58060.6" y1="3089.11" x2="71586" y2="3089.11" gradientUnits="userSpaceOnUse">
<stop offset="0.03" stop-color="#BB86FF"/>
<stop offset="1" stop-color="#7C9FFF"/>
</linearGradient>
<radialGradient id="paint27_radial_1395_3042" cx="0" cy="0" r="1" gradientUnits="userSpaceOnUse" gradientTransform="translate(274.685 382.844) scale(70.8957 30.4851)">
<stop stop-color="#2F3460"/>
<stop offset="0.98" stop-color="#270C3D"/>
</radialGradient>
<radialGradient id="paint28_radial_1395_3042" cx="0" cy="0" r="1" gradientUnits="userSpaceOnUse" gradientTransform="translate(297.513 334.797) scale(68.0914 26.5557)">
<stop stop-color="#2F3460"/>
<stop offset="0.64" stop-color="#391B5C"/>
<stop offset="0.98" stop-color="#2A164A"/>
</radialGradient>
<linearGradient id="paint29_linear_1395_3042" x1="226.496" y1="365.969" x2="346.96" y2="365.969" gradientUnits="userSpaceOnUse">
<stop offset="0.01" stop-color="#542F83"/>
<stop offset="0.94" stop-color="white"/>
</linearGradient>
<radialGradient id="paint30_radial_1395_3042" cx="0" cy="0" r="1" gradientUnits="userSpaceOnUse" gradientTransform="translate(269.076 331.422) scale(11.0504 11.0505)">
<stop stop-color="#635272"/>
<stop offset="0.31" stop-color="#614F70"/>
<stop offset="0.52" stop-color="#594669"/>
<stop offset="0.7" stop-color="#4C375E"/>
<stop offset="0.86" stop-color="#3A224E"/>
<stop offset="0.98" stop-color="#270C3D"/>
</radialGradient>
<radialGradient id="paint31_radial_1395_3042" cx="0" cy="0" r="1" gradientUnits="userSpaceOnUse" gradientTransform="translate(258.738 337.093) scale(12.5511 12.5511)">
<stop stop-color="#2F1160"/>
<stop offset="0.98" stop-color="#1D002C"/>
</radialGradient>
<linearGradient id="paint32_linear_1395_3042" x1="313.005" y1="348.674" x2="362.179" y2="348.674" gradientUnits="userSpaceOnUse">
<stop offset="0.07" stop-color="#F92CFF"/>
<stop offset="0.6" stop-color="#009FFF"/>
<stop offset="0.99" stop-color="#00FF90"/>
</linearGradient>
<linearGradient id="paint33_linear_1395_3042" x1="268.151" y1="331.242" x2="293.072" y2="331.242" gradientUnits="userSpaceOnUse">
<stop stop-color="#009FFF"/>
<stop offset="0.93" stop-color="#F92CFF"/>
</linearGradient>
<radialGradient id="paint34_radial_1395_3042" cx="0" cy="0" r="1" gradientUnits="userSpaceOnUse" gradientTransform="translate(279.987 342.781) rotate(-9.50327) scale(25.5731 8.45745)">
<stop offset="0.01" stop-color="#003772"/>
<stop offset="0.09" stop-color="#003064"/>
<stop offset="0.37" stop-color="#001C39"/>
<stop offset="0.62" stop-color="#000D1A"/>
<stop offset="0.84" stop-color="#000307"/>
<stop offset="0.99"/>
</radialGradient>
<radialGradient id="paint35_radial_1395_3042" cx="0" cy="0" r="1" gradientUnits="userSpaceOnUse" gradientTransform="translate(266.742 351.758) scale(20.3274 7.92767)">
<stop stop-color="#0F062D"/>
<stop offset="0.98" stop-color="#0E0020"/>
</radialGradient>
<linearGradient id="paint36_linear_1395_3042" x1="18.6676" y1="94.8445" x2="37.0859" y2="79.5358" gradientUnits="userSpaceOnUse">
<stop offset="0.33" stop-color="#FFB848"/>
<stop offset="0.98" stop-color="#FF7F2C"/>
</linearGradient>
<linearGradient id="paint37_linear_1395_3042" x1="39.9971" y1="125.113" x2="63.516" y2="105.564" gradientUnits="userSpaceOnUse">
<stop stop-color="#FF6E31"/>
<stop offset="0.05" stop-color="#FF7B20"/>
<stop offset="0.13" stop-color="#FF8710"/>
<stop offset="0.21" stop-color="#FF8E07"/>
<stop offset="0.33" stop-color="#FF9004"/>
<stop offset="0.98" stop-color="#FF7540"/>
</linearGradient>
<linearGradient id="paint38_linear_1395_3042" x1="36.808" y1="122.177" x2="61.5642" y2="101.601" gradientUnits="userSpaceOnUse">
<stop offset="0.33" stop-color="#FFD157"/>
<stop offset="0.98" stop-color="#FF9340"/>
</linearGradient>
<linearGradient id="paint39_linear_1395_3042" x1="2.32075" y1="75.1768" x2="20.7391" y2="59.868" gradientUnits="userSpaceOnUse">
<stop stop-color="#DEBD95"/>
<stop offset="0.2" stop-color="#9D8669"/>
<stop offset="0.4" stop-color="#655644"/>
<stop offset="0.59" stop-color="#393126"/>
<stop offset="0.75" stop-color="#1A1611"/>
<stop offset="0.89" stop-color="#070605"/>
<stop offset="0.99"/>
</linearGradient>
<linearGradient id="paint40_linear_1395_3042" x1="67.6488" y1="146.771" x2="80.1028" y2="136.419" gradientUnits="userSpaceOnUse">
<stop stop-color="#FFC6B0"/>
<stop offset="1" stop-color="#FFEECC"/>
</linearGradient>
<linearGradient id="paint41_linear_1395_3042" x1="88.8899" y1="159.764" x2="69.2446" y2="136.128" gradientUnits="userSpaceOnUse">
<stop offset="0.03" stop-color="#C3005A"/>
<stop offset="1" stop-color="#FF224D"/>
</linearGradient>
<linearGradient id="paint42_linear_1395_3042" x1="95.5124" y1="167.423" x2="90.5938" y2="161.505" gradientUnits="userSpaceOnUse">
<stop stop-color="#FF224D"/>
<stop offset="0.97" stop-color="#C3005A"/>
</linearGradient>
<radialGradient id="paint43_radial_1395_3042" cx="0" cy="0" r="1" gradientUnits="userSpaceOnUse" gradientTransform="translate(17.8451 96.9081) rotate(-39.4725) scale(5.73851 20.919)">
<stop offset="0.01" stop-color="#FFA93B"/>
<stop offset="0.09" stop-color="#E09534"/>
<stop offset="0.28" stop-color="#9D6824"/>
<stop offset="0.46" stop-color="#654317"/>
<stop offset="0.62" stop-color="#39260D"/>
<stop offset="0.77" stop-color="#1A1106"/>
<stop offset="0.9" stop-color="#070502"/>
<stop offset="0.99"/>
</radialGradient>
<radialGradient id="paint44_radial_1395_3042" cx="0" cy="0" r="1" gradientUnits="userSpaceOnUse" gradientTransform="translate(19188.4 8853.13) rotate(-36.8699) scale(44.7952 454.935)">
<stop offset="0.01" stop-color="#FFA93B"/>
<stop offset="0.09" stop-color="#E09534"/>
<stop offset="0.28" stop-color="#9D6824"/>
<stop offset="0.46" stop-color="#654317"/>
<stop offset="0.62" stop-color="#39260D"/>
<stop offset="0.77" stop-color="#1A1106"/>
<stop offset="0.9" stop-color="#070502"/>
<stop offset="0.99"/>
</radialGradient>
<linearGradient id="paint45_linear_1395_3042" x1="70.5385" y1="140.914" x2="69.1594" y2="132.844" gradientUnits="userSpaceOnUse">
<stop stop-color="#FF5973"/>
<stop offset="1" stop-color="#FF427E"/>
</linearGradient>
<radialGradient id="paint46_radial_1395_3042" cx="0" cy="0" r="1" gradientUnits="userSpaceOnUse" gradientTransform="translate(26386.4 -1885.7) rotate(-53.1301) scale(5703.13 902.408)">
<stop stop-color="#2F3460"/>
<stop offset="0.64" stop-color="#391B5C"/>
<stop offset="0.98" stop-color="#2A164A"/>
</radialGradient>
<linearGradient id="paint47_linear_1395_3042" x1="340.157" y1="115.726" x2="321.833" y2="101.984" gradientUnits="userSpaceOnUse">
<stop offset="0.03" stop-color="#9A007E"/>
<stop offset="0.38" stop-color="#CD0558"/>
<stop offset="1" stop-color="#FF224D"/>
</linearGradient>
<radialGradient id="paint48_radial_1395_3042" cx="0" cy="0" r="1" gradientUnits="userSpaceOnUse" gradientTransform="translate(2023.25 231.441) rotate(-53.1299) scale(9.65492 4.67629)">
<stop stop-color="#2F3460"/>
<stop offset="0.64" stop-color="#391B5C"/>
<stop offset="0.98" stop-color="#2A164A"/>
</radialGradient>
<linearGradient id="paint49_linear_1395_3042" x1="348.127" y1="78.5195" x2="405.144" y2="2.49721" gradientUnits="userSpaceOnUse">
<stop offset="0.01" stop-color="#6052A9"/>
<stop offset="0.06" stop-color="#594C9C"/>
<stop offset="0.29" stop-color="#393165"/>
<stop offset="0.51" stop-color="#211C39"/>
<stop offset="0.71" stop-color="#0F0D1A"/>
<stop offset="0.87" stop-color="#040307"/>
<stop offset="0.99"/>
</linearGradient>
<linearGradient id="paint50_linear_1395_3042" x1="405.047" y1="23.5709" x2="392.18" y2="13.9211" gradientUnits="userSpaceOnUse">
<stop offset="0.43" stop-color="#D8D9FF"/>
<stop offset="0.84" stop-color="#80618E"/>
<stop offset="0.96" stop-color="#E3DCE6"/>
</linearGradient>
<linearGradient id="paint51_linear_1395_3042" x1="312.626" y1="150.537" x2="296.158" y2="138.186" gradientUnits="userSpaceOnUse">
<stop offset="0.01"/>
<stop offset="0.13" stop-color="#040307"/>
<stop offset="0.29" stop-color="#0F0D1A"/>
<stop offset="0.49" stop-color="#211C39"/>
<stop offset="0.71" stop-color="#393165"/>
<stop offset="0.94" stop-color="#594C9C"/>
<stop offset="0.99" stop-color="#6052A9"/>
</linearGradient>
<linearGradient id="paint52_linear_1395_3042" x1="323.419" y1="110.202" x2="319.829" y2="107.51" gradientUnits="userSpaceOnUse">
<stop offset="0.03" stop-color="#930045"/>
<stop offset="1" stop-color="#6B004D"/>
</linearGradient>
<radialGradient id="paint53_radial_1395_3042" cx="0" cy="0" r="1" gradientUnits="userSpaceOnUse" gradientTransform="translate(26583.4 15295.8) rotate(-53.1301) scale(316.973 406.64)">
<stop stop-color="#391B5C"/>
<stop offset="0.98" stop-color="#2A164A"/>
</radialGradient>
</defs>
</svg>
