<svg width="1440" height="354" viewBox="0 0 1440 354" fill="none" xmlns="http://www.w3.org/2000/svg">
<rect x="1080" width="360" height="354" fill="url(#paint0_linear_2232_4402)"/>
<path d="M1230.93 300.808H1224.26L1223.15 304H1219.62L1225.65 287.224H1229.56L1235.58 304H1232.03L1230.93 300.808ZM1230.02 298.12L1227.59 291.112L1225.17 298.12H1230.02ZM1236.97 297.304C1236.97 295.96 1237.24 294.768 1237.76 293.728C1238.31 292.688 1239.04 291.888 1239.97 291.328C1240.9 290.768 1241.93 290.488 1243.07 290.488C1243.93 290.488 1244.76 290.68 1245.54 291.064C1246.32 291.432 1246.95 291.928 1247.41 292.552V286.24H1250.82V304H1247.41V302.032C1247 302.688 1246.41 303.216 1245.66 303.616C1244.91 304.016 1244.04 304.216 1243.04 304.216C1241.92 304.216 1240.9 303.928 1239.97 303.352C1239.04 302.776 1238.31 301.968 1237.76 300.928C1237.24 299.872 1236.97 298.664 1236.97 297.304ZM1247.44 297.352C1247.44 296.536 1247.28 295.84 1246.96 295.264C1246.64 294.672 1246.2 294.224 1245.66 293.92C1245.12 293.6 1244.53 293.44 1243.91 293.44C1243.28 293.44 1242.71 293.592 1242.18 293.896C1241.65 294.2 1241.22 294.648 1240.88 295.24C1240.56 295.816 1240.4 296.504 1240.4 297.304C1240.4 298.104 1240.56 298.808 1240.88 299.416C1241.22 300.008 1241.65 300.464 1242.18 300.784C1242.72 301.104 1243.3 301.264 1243.91 301.264C1244.53 301.264 1245.12 301.112 1245.66 300.808C1246.2 300.488 1246.64 300.04 1246.96 299.464C1247.28 298.872 1247.44 298.168 1247.44 297.352ZM1270.61 290.512C1272.25 290.512 1273.56 291.016 1274.55 292.024C1275.56 293.016 1276.06 294.408 1276.06 296.2V304H1272.7V296.656C1272.7 295.616 1272.44 294.824 1271.91 294.28C1271.38 293.72 1270.66 293.44 1269.75 293.44C1268.84 293.44 1268.11 293.72 1267.57 294.28C1267.04 294.824 1266.77 295.616 1266.77 296.656V304H1263.41V296.656C1263.41 295.616 1263.15 294.824 1262.62 294.28C1262.09 293.72 1261.37 293.44 1260.46 293.44C1259.53 293.44 1258.8 293.72 1258.25 294.28C1257.73 294.824 1257.46 295.616 1257.46 296.656V304H1254.1V290.704H1257.46V292.312C1257.89 291.752 1258.45 291.312 1259.12 290.992C1259.81 290.672 1260.56 290.512 1261.37 290.512C1262.41 290.512 1263.34 290.736 1264.16 291.184C1264.97 291.616 1265.61 292.24 1266.05 293.056C1266.49 292.288 1267.11 291.672 1267.93 291.208C1268.76 290.744 1269.65 290.512 1270.61 290.512ZM1280.95 289.12C1280.36 289.12 1279.87 288.936 1279.47 288.568C1279.08 288.184 1278.89 287.712 1278.89 287.152C1278.89 286.592 1279.08 286.128 1279.47 285.76C1279.87 285.376 1280.36 285.184 1280.95 285.184C1281.55 285.184 1282.03 285.376 1282.42 285.76C1282.82 286.128 1283.02 286.592 1283.02 287.152C1283.02 287.712 1282.82 288.184 1282.42 288.568C1282.03 288.936 1281.55 289.12 1280.95 289.12ZM1282.61 290.704V304H1279.25V290.704H1282.61ZM1293.3 290.512C1294.88 290.512 1296.16 291.016 1297.14 292.024C1298.11 293.016 1298.6 294.408 1298.6 296.2V304H1295.24V296.656C1295.24 295.6 1294.98 294.792 1294.45 294.232C1293.92 293.656 1293.2 293.368 1292.29 293.368C1291.36 293.368 1290.63 293.656 1290.08 294.232C1289.55 294.792 1289.29 295.6 1289.29 296.656V304H1285.93V290.704H1289.29V292.36C1289.74 291.784 1290.31 291.336 1290.99 291.016C1291.7 290.68 1292.47 290.512 1293.3 290.512Z" fill="white"/>
<path fill-rule="evenodd" clip-rule="evenodd" d="M1183 130.353C1183 126.844 1185.84 124 1189.35 124H1331.23C1334.74 124 1337.58 126.844 1337.58 130.353V208.701C1337.58 212.21 1334.74 215.054 1331.23 215.054H1189.35C1185.84 215.054 1183 212.21 1183 208.701V130.353ZM1189.35 128.235C1188.18 128.235 1187.24 129.183 1187.24 130.353V208.701C1187.24 209.871 1188.18 210.819 1189.35 210.819H1331.23C1332.4 210.819 1333.34 209.871 1333.34 208.701V130.353C1333.34 129.183 1332.4 128.235 1331.23 128.235H1189.35Z" fill="white"/>
<path fill-rule="evenodd" clip-rule="evenodd" d="M1274.05 215.054H1246.52V225.642H1274.05V215.054ZM1242.29 210.819V229.877H1278.29V210.819H1242.29Z" fill="white"/>
<path fill-rule="evenodd" clip-rule="evenodd" d="M1227.47 168.468H1199.94L1199.94 193.879H1227.47V168.468ZM1199.94 164.233C1197.6 164.233 1195.7 166.13 1195.7 168.468V193.879C1195.7 196.218 1197.6 198.114 1199.94 198.114H1227.47C1229.81 198.114 1231.7 196.218 1231.7 193.879V168.468C1231.7 166.13 1229.81 164.233 1227.47 164.233H1199.94Z" fill="white"/>
<path fill-rule="evenodd" clip-rule="evenodd" d="M1208.41 143.058H1199.94V151.528H1208.41V143.058ZM1199.94 138.823C1197.6 138.823 1195.7 140.719 1195.7 143.058V151.528C1195.7 153.867 1197.6 155.764 1199.94 155.764H1208.41C1210.75 155.764 1212.64 153.867 1212.64 151.528V143.058C1212.64 140.719 1210.75 138.823 1208.41 138.823H1199.94Z" fill="white"/>
<path fill-rule="evenodd" clip-rule="evenodd" d="M1318.52 143.058H1225.35V151.528H1318.52V143.058ZM1225.35 138.823C1223.01 138.823 1221.12 140.719 1221.12 143.058V151.528C1221.12 153.867 1223.01 155.764 1225.35 155.764H1318.52C1320.86 155.764 1322.76 153.867 1322.76 151.528V143.058C1322.76 140.719 1320.86 138.823 1318.52 138.823H1225.35Z" fill="white"/>
<path fill-rule="evenodd" clip-rule="evenodd" d="M1318.52 168.468H1244.41L1244.41 174.821H1318.52V168.468ZM1244.41 164.233C1242.07 164.233 1240.17 166.13 1240.17 168.468V174.821C1240.17 177.16 1242.07 179.056 1244.41 179.056H1318.52C1320.86 179.056 1322.76 177.16 1322.76 174.821V168.468C1322.76 166.13 1320.86 164.233 1318.52 164.233H1244.41Z" fill="white"/>
<path fill-rule="evenodd" clip-rule="evenodd" d="M1318.52 187.526H1244.41L1244.41 193.879H1318.52V187.526ZM1244.41 183.291C1242.07 183.291 1240.17 185.187 1240.17 187.526V193.879C1240.17 196.218 1242.07 198.114 1244.41 198.114H1318.52C1320.86 198.114 1322.76 196.218 1322.76 193.879V187.526C1322.76 185.187 1320.86 183.291 1318.52 183.291H1244.41Z" fill="white"/>
<rect width="360" height="354" fill="url(#paint1_linear_2232_4402)"/>
<g clip-path="url(#clip0_2232_4402)">
<path d="M117.213 185.029H137.266C138.098 185.029 138.897 184.698 139.485 184.11C140.074 183.521 140.405 182.723 140.405 181.89V161.705C140.405 160.873 140.074 160.075 139.485 159.486C138.897 158.898 138.098 158.567 137.266 158.567H126.069C125.459 158.567 124.862 158.744 124.351 159.078C123.84 159.412 123.438 159.887 123.193 160.446L114.35 180.631C114.14 181.108 114.053 181.631 114.097 182.151C114.14 182.67 114.312 183.171 114.598 183.608C114.883 184.044 115.273 184.403 115.732 184.651C116.19 184.899 116.704 185.029 117.225 185.029H117.213ZM128.105 164.844H134.115V178.743H121.997L128.105 164.844Z" fill="white"/>
<path d="M257.584 107H218.665C217.833 107 217.035 107.331 216.446 107.919C215.857 108.508 215.527 109.306 215.527 110.139C215.527 110.971 215.857 111.769 216.446 112.358C217.035 112.947 217.833 113.277 218.665 113.277H254.441V142.543H220.82V130.998C220.82 130.423 220.663 129.86 220.365 129.369C220.067 128.877 219.639 128.477 219.13 128.212C218.62 127.947 218.047 127.827 217.474 127.865C216.901 127.903 216.349 128.098 215.879 128.427L179.136 154.147C178.723 154.437 178.385 154.821 178.153 155.269C177.92 155.716 177.798 156.213 177.798 156.717C177.798 157.222 177.92 157.719 178.153 158.166C178.385 158.614 178.723 158.998 179.136 159.288L215.879 185.029C216.349 185.359 216.901 185.553 217.474 185.591C218.047 185.629 218.62 185.509 219.13 185.244C219.639 184.979 220.067 184.579 220.365 184.088C220.663 183.596 220.82 183.033 220.82 182.458V170.952H254.446V210.719H237.518C237.541 210.337 237.552 209.951 237.552 209.561C237.552 204.145 235.401 198.951 231.571 195.122C227.742 191.292 222.548 189.141 217.132 189.141C211.716 189.141 206.522 191.292 202.693 195.122C198.863 198.951 196.712 204.145 196.712 209.561C196.712 209.948 196.723 210.334 196.746 210.719H154.464V113.277H190.24C191.072 113.277 191.87 112.947 192.459 112.358C193.048 111.769 193.378 110.971 193.378 110.139C193.378 109.306 193.048 108.508 192.459 107.919C191.87 107.331 191.072 107 190.24 107H151.321C150.488 107 149.69 107.331 149.101 107.919C148.513 108.508 148.182 109.306 148.182 110.139V144.494H116.86C116.249 144.494 115.653 144.671 115.142 145.005C114.631 145.339 114.229 145.814 113.984 146.373L100.263 177.674C100.088 178.075 99.998 178.509 100 178.946V213.87C100 214.702 100.331 215.501 100.919 216.089C101.508 216.678 102.306 217.009 103.139 217.009H112.419C113.094 220.657 115.025 223.954 117.878 226.327C120.73 228.7 124.323 229.999 128.033 229.999C131.744 229.999 135.337 228.7 138.189 226.327C141.042 223.954 142.973 220.657 143.648 217.009H198.107C199.6 220.839 202.214 224.129 205.608 226.449C209.002 228.769 213.017 230.01 217.128 230.01C221.239 230.01 225.254 228.769 228.648 226.449C232.041 224.129 234.656 220.839 236.148 217.009H257.58C258.412 217.009 259.211 216.678 259.799 216.089C260.388 215.501 260.719 214.702 260.719 213.87V110.139C260.719 109.307 260.389 108.509 259.801 107.921C259.213 107.332 258.416 107.001 257.584 107ZM106.277 179.595L118.908 150.754H148.174V210.719H143.546C142.774 207.178 140.814 204.008 137.992 201.735C135.17 199.462 131.655 198.223 128.031 198.223C124.408 198.223 120.893 199.462 118.071 201.735C115.248 204.008 113.289 207.178 112.516 210.719H106.277V179.595ZM128.031 223.706C126.129 223.709 124.268 223.148 122.685 222.094C121.101 221.039 119.866 219.539 119.136 217.782C118.406 216.025 118.213 214.091 118.582 212.225C118.951 210.359 119.865 208.644 121.209 207.298C122.553 205.951 124.267 205.034 126.132 204.661C127.998 204.289 129.932 204.478 131.69 205.206C133.448 205.933 134.951 207.165 136.008 208.747C137.065 210.328 137.63 212.188 137.63 214.091C137.628 216.637 136.617 219.08 134.818 220.882C133.019 222.685 130.578 223.7 128.031 223.706ZM217.13 223.706C214.328 223.71 211.588 222.883 209.256 221.329C206.924 219.775 205.106 217.565 204.03 214.977C202.955 212.389 202.672 209.541 203.217 206.792C203.761 204.044 205.109 201.518 207.089 199.536C209.069 197.553 211.593 196.203 214.341 195.655C217.089 195.107 219.937 195.387 222.526 196.459C225.115 197.531 227.328 199.347 228.885 201.677C230.441 204.007 231.272 206.746 231.271 209.548C231.268 213.299 229.778 216.896 227.128 219.551C224.477 222.205 220.881 223.699 217.13 223.706ZM217.681 164.657C216.849 164.657 216.051 164.988 215.462 165.577C214.873 166.165 214.543 166.964 214.543 167.796V176.431L186.41 156.722L214.543 137.012V145.664C214.543 146.497 214.873 147.295 215.462 147.884C216.051 148.472 216.849 148.803 217.681 148.803H254.446V164.674L217.681 164.657Z" fill="white"/>
</g>
<path d="M116.512 287.248C118.272 287.248 119.816 287.592 121.144 288.28C122.488 288.968 123.52 289.952 124.24 291.232C124.976 292.496 125.344 293.968 125.344 295.648C125.344 297.328 124.976 298.8 124.24 300.064C123.52 301.312 122.488 302.28 121.144 302.968C119.816 303.656 118.272 304 116.512 304H110.656V287.248H116.512ZM116.392 301.144C118.152 301.144 119.512 300.664 120.472 299.704C121.432 298.744 121.912 297.392 121.912 295.648C121.912 293.904 121.432 292.544 120.472 291.568C119.512 290.576 118.152 290.08 116.392 290.08H114.016V301.144H116.392ZM129.563 289.12C128.971 289.12 128.475 288.936 128.075 288.568C127.691 288.184 127.499 287.712 127.499 287.152C127.499 286.592 127.691 286.128 128.075 285.76C128.475 285.376 128.971 285.184 129.563 285.184C130.155 285.184 130.643 285.376 131.027 285.76C131.427 286.128 131.627 286.592 131.627 287.152C131.627 287.712 131.427 288.184 131.027 288.568C130.643 288.936 130.155 289.12 129.563 289.12ZM131.219 290.704V304H127.859V290.704H131.219ZM139.627 304.216C138.539 304.216 137.563 304.024 136.699 303.64C135.835 303.24 135.147 302.704 134.635 302.032C134.139 301.36 133.867 300.616 133.819 299.8H137.203C137.267 300.312 137.515 300.736 137.947 301.072C138.395 301.408 138.947 301.576 139.603 301.576C140.243 301.576 140.739 301.448 141.091 301.192C141.459 300.936 141.643 300.608 141.643 300.208C141.643 299.776 141.419 299.456 140.971 299.248C140.539 299.024 139.843 298.784 138.883 298.528C137.891 298.288 137.075 298.04 136.435 297.784C135.811 297.528 135.267 297.136 134.803 296.608C134.355 296.08 134.131 295.368 134.131 294.472C134.131 293.736 134.339 293.064 134.755 292.456C135.187 291.848 135.795 291.368 136.579 291.016C137.379 290.664 138.315 290.488 139.387 290.488C140.971 290.488 142.235 290.888 143.179 291.688C144.123 292.472 144.643 293.536 144.739 294.88H141.523C141.475 294.352 141.251 293.936 140.851 293.632C140.467 293.312 139.947 293.152 139.291 293.152C138.683 293.152 138.211 293.264 137.875 293.488C137.555 293.712 137.395 294.024 137.395 294.424C137.395 294.872 137.619 295.216 138.067 295.456C138.515 295.68 139.211 295.912 140.155 296.152C141.115 296.392 141.907 296.64 142.531 296.896C143.155 297.152 143.691 297.552 144.139 298.096C144.603 298.624 144.843 299.328 144.859 300.208C144.859 300.976 144.643 301.664 144.211 302.272C143.795 302.88 143.187 303.36 142.387 303.712C141.603 304.048 140.683 304.216 139.627 304.216ZM151.529 293.464V299.896C151.529 300.344 151.633 300.672 151.841 300.88C152.065 301.072 152.433 301.168 152.945 301.168H154.505V304H152.393C149.561 304 148.145 302.624 148.145 299.872V293.464H146.561V290.704H148.145V287.416H151.529V290.704H154.505V293.464H151.529ZM160.282 292.768C160.714 292.064 161.274 291.512 161.962 291.112C162.666 290.712 163.466 290.512 164.362 290.512V294.04H163.474C162.418 294.04 161.618 294.288 161.074 294.784C160.546 295.28 160.282 296.144 160.282 297.376V304H156.922V290.704H160.282V292.768ZM168.329 289.12C167.737 289.12 167.241 288.936 166.841 288.568C166.457 288.184 166.265 287.712 166.265 287.152C166.265 286.592 166.457 286.128 166.841 285.76C167.241 285.376 167.737 285.184 168.329 285.184C168.921 285.184 169.409 285.376 169.793 285.76C170.193 286.128 170.393 286.592 170.393 287.152C170.393 287.712 170.193 288.184 169.793 288.568C169.409 288.936 168.921 289.12 168.329 289.12ZM169.985 290.704V304H166.625V290.704H169.985ZM176.664 292.648C177.096 292.008 177.688 291.488 178.44 291.088C179.208 290.688 180.08 290.488 181.056 290.488C182.192 290.488 183.216 290.768 184.128 291.328C185.056 291.888 185.784 292.688 186.312 293.728C186.856 294.752 187.128 295.944 187.128 297.304C187.128 298.664 186.856 299.872 186.312 300.928C185.784 301.968 185.056 302.776 184.128 303.352C183.216 303.928 182.192 304.216 181.056 304.216C180.064 304.216 179.192 304.024 178.44 303.64C177.704 303.24 177.112 302.728 176.664 302.104V304H173.304V286.24H176.664V292.648ZM183.696 297.304C183.696 296.504 183.528 295.816 183.192 295.24C182.872 294.648 182.44 294.2 181.896 293.896C181.368 293.592 180.792 293.44 180.168 293.44C179.56 293.44 178.984 293.6 178.44 293.92C177.912 294.224 177.48 294.672 177.144 295.264C176.824 295.856 176.664 296.552 176.664 297.352C176.664 298.152 176.824 298.848 177.144 299.44C177.48 300.032 177.912 300.488 178.44 300.808C178.984 301.112 179.56 301.264 180.168 301.264C180.792 301.264 181.368 301.104 181.896 300.784C182.44 300.464 182.872 300.008 183.192 299.416C183.528 298.824 183.696 298.12 183.696 297.304ZM202.122 290.704V304H198.738V302.32C198.306 302.896 197.738 303.352 197.034 303.688C196.346 304.008 195.594 304.168 194.778 304.168C193.738 304.168 192.818 303.952 192.018 303.52C191.218 303.072 190.586 302.424 190.122 301.576C189.674 300.712 189.45 299.688 189.45 298.504V290.704H192.81V298.024C192.81 299.08 193.074 299.896 193.602 300.472C194.13 301.032 194.85 301.312 195.762 301.312C196.69 301.312 197.418 301.032 197.946 300.472C198.474 299.896 198.738 299.08 198.738 298.024V290.704H202.122ZM209.349 293.464V299.896C209.349 300.344 209.453 300.672 209.661 300.88C209.885 301.072 210.253 301.168 210.765 301.168H212.325V304H210.213C207.381 304 205.965 302.624 205.965 299.872V293.464H204.381V290.704H205.965V287.416H209.349V290.704H212.325V293.464H209.349ZM216.446 289.12C215.854 289.12 215.358 288.936 214.958 288.568C214.574 288.184 214.382 287.712 214.382 287.152C214.382 286.592 214.574 286.128 214.958 285.76C215.358 285.376 215.854 285.184 216.446 285.184C217.038 285.184 217.526 285.376 217.91 285.76C218.31 286.128 218.51 286.592 218.51 287.152C218.51 287.712 218.31 288.184 217.91 288.568C217.526 288.936 217.038 289.12 216.446 289.12ZM218.102 290.704V304H214.742V290.704H218.102ZM227.326 304.216C226.046 304.216 224.894 303.936 223.87 303.376C222.846 302.8 222.038 301.992 221.446 300.952C220.87 299.912 220.582 298.712 220.582 297.352C220.582 295.992 220.878 294.792 221.47 293.752C222.078 292.712 222.902 291.912 223.942 291.352C224.982 290.776 226.142 290.488 227.422 290.488C228.702 290.488 229.862 290.776 230.902 291.352C231.942 291.912 232.758 292.712 233.35 293.752C233.958 294.792 234.262 295.992 234.262 297.352C234.262 298.712 233.95 299.912 233.326 300.952C232.718 301.992 231.886 302.8 230.83 303.376C229.79 303.936 228.622 304.216 227.326 304.216ZM227.326 301.288C227.934 301.288 228.502 301.144 229.03 300.856C229.574 300.552 230.006 300.104 230.326 299.512C230.646 298.92 230.806 298.2 230.806 297.352C230.806 296.088 230.47 295.12 229.798 294.448C229.142 293.76 228.334 293.416 227.374 293.416C226.414 293.416 225.606 293.76 224.95 294.448C224.31 295.12 223.99 296.088 223.99 297.352C223.99 298.616 224.302 299.592 224.926 300.28C225.566 300.952 226.366 301.288 227.326 301.288ZM244.094 290.512C245.678 290.512 246.958 291.016 247.934 292.024C248.91 293.016 249.398 294.408 249.398 296.2V304H246.038V296.656C246.038 295.6 245.774 294.792 245.246 294.232C244.718 293.656 243.998 293.368 243.086 293.368C242.158 293.368 241.422 293.656 240.878 294.232C240.35 294.792 240.086 295.6 240.086 296.656V304H236.726V290.704H240.086V292.36C240.534 291.784 241.102 291.336 241.79 291.016C242.494 290.68 243.262 290.512 244.094 290.512Z" fill="white"/>
<rect x="720" width="360" height="354" fill="url(#paint2_linear_2232_4402)"/>
<path d="M961.049 219.751H958.998V193.101C958.998 192.557 958.782 192.035 958.398 191.65C958.013 191.266 957.491 191.049 956.947 191.049H942.6V190.717C942.595 188.009 941.698 185.377 940.047 183.23C938.397 181.083 936.084 179.54 933.468 178.839L911.86 173.075V168.943C914.421 167.274 916.616 165.102 918.314 162.56C920.011 160.018 921.176 157.158 921.736 154.153H923.136C924.495 154.152 925.799 153.612 926.76 152.651C927.721 151.69 928.261 150.386 928.262 149.027V138.775C928.261 137.416 927.721 136.113 926.76 135.151C925.799 134.19 924.495 133.65 923.136 133.649H922.099V129.55C922.099 123.57 919.723 117.834 915.494 113.605C911.265 109.376 905.529 107 899.549 107C893.568 107 887.832 109.376 883.603 113.605C879.374 117.834 876.998 123.57 876.998 129.55V133.649H875.974C874.615 133.65 873.312 134.19 872.351 135.151C871.39 136.113 870.849 137.416 870.848 138.775V149.024C870.849 150.383 871.39 151.686 872.351 152.648C873.312 153.609 874.615 154.149 875.974 154.15H877.374C877.935 157.155 879.099 160.015 880.797 162.557C882.494 165.099 884.69 167.27 887.25 168.94V173.072L865.643 178.836C863.306 179.457 861.203 180.752 859.597 182.56C857.991 184.367 856.952 186.608 856.611 189.002H842.15C841.606 189.002 841.084 189.218 840.7 189.602C840.315 189.987 840.099 190.509 840.099 191.053V205.4C840.099 205.944 840.315 206.466 840.7 206.851C841.084 207.235 841.606 207.451 842.15 207.451H850.351V209.502H842.15C841.606 209.502 841.084 209.719 840.7 210.103C840.315 210.488 840.099 211.01 840.099 211.554V219.755H838.051C837.508 219.755 836.988 219.97 836.603 220.353C836.219 220.736 836.002 221.256 836 221.799V227.949C836 228.493 836.216 229.015 836.601 229.399C836.985 229.784 837.507 230 838.051 230H961.049C961.593 230 962.115 229.784 962.5 229.399C962.884 229.015 963.101 228.493 963.101 227.949V221.799C963.1 221.256 962.883 220.735 962.499 220.351C962.114 219.967 961.593 219.751 961.049 219.751ZM922.099 137.751H923.123C923.394 137.751 923.655 137.859 923.847 138.051C924.039 138.243 924.147 138.504 924.147 138.775V149.024C924.147 149.295 924.039 149.556 923.847 149.748C923.655 149.94 923.394 150.048 923.123 150.048H922.099V137.751ZM876.998 150.051H875.974C875.703 150.051 875.442 149.943 875.25 149.751C875.058 149.559 874.951 149.299 874.951 149.027V138.775C874.951 138.504 875.058 138.243 875.25 138.051C875.442 137.859 875.703 137.751 875.974 137.751H876.998V150.051ZM944.647 211.55C945.191 211.55 945.713 211.334 946.098 210.949C946.482 210.565 946.699 210.043 946.699 209.499V195.152H954.899V219.751H922.099V195.152H930.3V209.502C930.3 210.046 930.516 210.568 930.901 210.953C931.285 211.337 931.807 211.554 932.351 211.554L944.647 211.55ZM942.596 195.152V207.451H934.399V195.152H942.596ZM932.404 182.795C934.149 183.262 935.69 184.292 936.791 185.724C937.891 187.156 938.489 188.911 938.491 190.717V191.049H920.041C919.497 191.049 918.975 191.266 918.591 191.65C918.206 192.035 917.99 192.557 917.99 193.101V207.451H907.748C907.479 207.451 907.212 207.504 906.963 207.608C906.714 207.711 906.488 207.862 906.298 208.052C906.107 208.243 905.956 208.469 905.853 208.718C905.75 208.966 905.697 209.233 905.697 209.502V219.751H901.598V182.649C905.102 181.765 908.227 179.771 910.504 176.964L932.404 182.795ZM918 211.55V219.751H909.799V211.55H918ZM899.55 178.75C897.918 178.564 896.343 178.036 894.929 177.198C893.516 176.36 892.296 175.233 891.349 173.889V171.054C896.622 173.11 902.475 173.11 907.748 171.054V173.889C906.802 175.232 905.582 176.36 904.17 177.197C902.757 178.035 901.182 178.564 899.55 178.75ZM881.1 129.55C881.1 124.657 883.044 119.964 886.504 116.504C889.964 113.044 894.657 111.1 899.55 111.1C904.443 111.1 909.136 113.044 912.596 116.504C916.056 119.964 918 124.657 918 129.55V131.701C916.425 131.01 914.991 130.035 913.768 128.826C912.187 127.382 910.712 125.827 909.354 124.172C909.161 123.932 908.917 123.738 908.64 123.605C908.362 123.473 908.059 123.404 907.751 123.404H907.661C907.34 123.418 907.026 123.508 906.745 123.666C906.464 123.824 906.225 124.046 906.046 124.315C903.779 127.719 890.797 130.378 881.114 131.399L881.1 129.55ZM881.1 150.051V135.511C883.451 135.261 887.706 134.746 892.25 133.872C897.708 133.191 902.956 131.349 907.642 128.47C908.7 129.651 909.819 130.777 910.992 131.844C912.899 133.835 915.328 135.248 918 135.923V150.051C918 154.944 916.056 159.637 912.596 163.097C909.136 166.557 904.443 168.501 899.55 168.501C894.657 168.501 889.964 166.557 886.504 163.097C883.044 159.637 881.1 154.944 881.1 150.051ZM866.686 182.795L888.593 176.954C890.871 179.761 893.995 181.755 897.499 182.639V219.751H893.4V211.55C893.4 211.006 893.184 210.485 892.8 210.1C892.415 209.715 891.893 209.499 891.349 209.499H889.298V205.4C889.298 204.856 889.082 204.335 888.697 203.95C888.313 203.565 887.791 203.349 887.247 203.349H874.947C874.403 203.349 873.882 203.565 873.497 203.95C873.112 204.335 872.896 204.856 872.896 205.4V209.499H860.6V207.448H868.801C869.345 207.448 869.866 207.232 870.251 206.847C870.636 206.463 870.852 205.941 870.852 205.397V191.049C870.852 190.505 870.636 189.984 870.251 189.599C869.866 189.214 869.345 188.998 868.801 188.998H860.783C861.101 187.521 861.821 186.161 862.862 185.067C863.904 183.972 865.227 183.186 866.686 182.795ZM885.199 207.451V209.502H876.998V207.451H885.199ZM844.201 203.349V193.101H866.75V203.349H860.6V197.199C860.6 196.655 860.384 196.134 859.999 195.749C859.614 195.364 859.093 195.148 858.549 195.148H852.399C851.855 195.148 851.333 195.364 850.948 195.749C850.564 196.134 850.348 196.655 850.348 197.199V203.349H844.201ZM856.501 199.25V213.601H854.45V199.25H856.501ZM844.201 213.601H850.351V215.652C850.351 216.196 850.567 216.718 850.952 217.103C851.336 217.487 851.858 217.703 852.402 217.703H858.552C859.096 217.703 859.618 217.487 860.002 217.103C860.387 216.718 860.603 216.196 860.603 215.652V213.601H889.301V219.751H844.201V213.601ZM958.998 225.901H840.099V223.85H958.998V225.901Z" fill="white"/>
<path d="M875.296 304L871.6 297.472H870.016V304H866.656V287.248H872.944C874.24 287.248 875.344 287.48 876.256 287.944C877.168 288.392 877.848 289.008 878.296 289.792C878.76 290.56 878.992 291.424 878.992 292.384C878.992 293.488 878.672 294.488 878.032 295.384C877.392 296.264 876.44 296.872 875.176 297.208L879.184 304H875.296ZM870.016 294.952H872.824C873.736 294.952 874.416 294.736 874.864 294.304C875.312 293.856 875.536 293.24 875.536 292.456C875.536 291.688 875.312 291.096 874.864 290.68C874.416 290.248 873.736 290.032 872.824 290.032H870.016V294.952ZM894.391 297.064C894.391 297.544 894.359 297.976 894.295 298.36H884.575C884.655 299.32 884.991 300.072 885.583 300.616C886.175 301.16 886.903 301.432 887.767 301.432C889.015 301.432 889.903 300.896 890.431 299.824H894.055C893.671 301.104 892.935 302.16 891.847 302.992C890.759 303.808 889.423 304.216 887.839 304.216C886.559 304.216 885.407 303.936 884.383 303.376C883.375 302.8 882.583 301.992 882.007 300.952C881.447 299.912 881.167 298.712 881.167 297.352C881.167 295.976 881.447 294.768 882.007 293.728C882.567 292.688 883.351 291.888 884.359 291.328C885.367 290.768 886.527 290.488 887.839 290.488C889.103 290.488 890.231 290.76 891.223 291.304C892.231 291.848 893.007 292.624 893.551 293.632C894.111 294.624 894.391 295.768 894.391 297.064ZM890.911 296.104C890.895 295.24 890.583 294.552 889.975 294.04C889.367 293.512 888.623 293.248 887.743 293.248C886.911 293.248 886.207 293.504 885.631 294.016C885.071 294.512 884.727 295.208 884.599 296.104H890.911ZM900.756 293.464V299.896C900.756 300.344 900.86 300.672 901.068 300.88C901.292 301.072 901.66 301.168 902.172 301.168H903.732V304H901.62C898.788 304 897.372 302.624 897.372 299.872V293.464H895.788V290.704H897.372V287.416H900.756V290.704H903.732V293.464H900.756ZM905.284 297.304C905.284 295.96 905.548 294.768 906.076 293.728C906.62 292.688 907.348 291.888 908.26 291.328C909.188 290.768 910.22 290.488 911.356 290.488C912.348 290.488 913.212 290.688 913.948 291.088C914.7 291.488 915.3 291.992 915.748 292.6V290.704H919.132V304H915.748V302.056C915.316 302.68 914.716 303.2 913.948 303.616C913.196 304.016 912.324 304.216 911.332 304.216C910.212 304.216 909.188 303.928 908.26 303.352C907.348 302.776 906.62 301.968 906.076 300.928C905.548 299.872 905.284 298.664 905.284 297.304ZM915.748 297.352C915.748 296.536 915.588 295.84 915.268 295.264C914.948 294.672 914.516 294.224 913.972 293.92C913.428 293.6 912.844 293.44 912.22 293.44C911.596 293.44 911.02 293.592 910.492 293.896C909.964 294.2 909.532 294.648 909.196 295.24C908.876 295.816 908.716 296.504 908.716 297.304C908.716 298.104 908.876 298.808 909.196 299.416C909.532 300.008 909.964 300.464 910.492 300.784C911.036 301.104 911.612 301.264 912.22 301.264C912.844 301.264 913.428 301.112 913.972 300.808C914.516 300.488 914.948 300.04 915.268 299.464C915.588 298.872 915.748 298.168 915.748 297.352ZM924.118 289.12C923.526 289.12 923.03 288.936 922.63 288.568C922.246 288.184 922.054 287.712 922.054 287.152C922.054 286.592 922.246 286.128 922.63 285.76C923.03 285.376 923.526 285.184 924.118 285.184C924.71 285.184 925.198 285.376 925.582 285.76C925.982 286.128 926.182 286.592 926.182 287.152C926.182 287.712 925.982 288.184 925.582 288.568C925.198 288.936 924.71 289.12 924.118 289.12ZM925.774 290.704V304H922.414V290.704H925.774ZM932.454 286.24V304H929.094V286.24H932.454Z" fill="white"/>
<rect x="360" width="360" height="354" fill="url(#paint3_linear_2232_4402)"/>
<path d="M514.44 304.168C513.272 304.168 512.216 303.968 511.272 303.568C510.344 303.168 509.608 302.592 509.064 301.84C508.52 301.088 508.24 300.2 508.224 299.176H511.824C511.872 299.864 512.112 300.408 512.544 300.808C512.992 301.208 513.6 301.408 514.368 301.408C515.152 301.408 515.768 301.224 516.216 300.856C516.664 300.472 516.888 299.976 516.888 299.368C516.888 298.872 516.736 298.464 516.432 298.144C516.128 297.824 515.744 297.576 515.28 297.4C514.832 297.208 514.208 297 513.408 296.776C512.32 296.456 511.432 296.144 510.744 295.84C510.072 295.52 509.488 295.048 508.992 294.424C508.512 293.784 508.272 292.936 508.272 291.88C508.272 290.888 508.52 290.024 509.016 289.288C509.512 288.552 510.208 287.992 511.104 287.608C512 287.208 513.024 287.008 514.176 287.008C515.904 287.008 517.304 287.432 518.376 288.28C519.464 289.112 520.064 290.28 520.176 291.784H516.48C516.448 291.208 516.2 290.736 515.736 290.368C515.288 289.984 514.688 289.792 513.936 289.792C513.28 289.792 512.752 289.96 512.352 290.296C511.968 290.632 511.776 291.12 511.776 291.76C511.776 292.208 511.92 292.584 512.208 292.888C512.512 293.176 512.88 293.416 513.312 293.608C513.76 293.784 514.384 293.992 515.184 294.232C516.272 294.552 517.16 294.872 517.848 295.192C518.536 295.512 519.128 295.992 519.624 296.632C520.12 297.272 520.368 298.112 520.368 299.152C520.368 300.048 520.136 300.88 519.672 301.648C519.208 302.416 518.528 303.032 517.632 303.496C516.736 303.944 515.672 304.168 514.44 304.168ZM522.417 297.304C522.417 295.96 522.681 294.768 523.209 293.728C523.753 292.688 524.481 291.888 525.393 291.328C526.321 290.768 527.353 290.488 528.489 290.488C529.481 290.488 530.345 290.688 531.081 291.088C531.833 291.488 532.433 291.992 532.881 292.6V290.704H536.265V304H532.881V302.056C532.449 302.68 531.849 303.2 531.081 303.616C530.329 304.016 529.457 304.216 528.465 304.216C527.345 304.216 526.321 303.928 525.393 303.352C524.481 302.776 523.753 301.968 523.209 300.928C522.681 299.872 522.417 298.664 522.417 297.304ZM532.881 297.352C532.881 296.536 532.721 295.84 532.401 295.264C532.081 294.672 531.649 294.224 531.105 293.92C530.561 293.6 529.977 293.44 529.353 293.44C528.729 293.44 528.153 293.592 527.625 293.896C527.097 294.2 526.665 294.648 526.329 295.24C526.009 295.816 525.849 296.504 525.849 297.304C525.849 298.104 526.009 298.808 526.329 299.416C526.665 300.008 527.097 300.464 527.625 300.784C528.169 301.104 528.745 301.264 529.353 301.264C529.977 301.264 530.561 301.112 531.105 300.808C531.649 300.488 532.081 300.04 532.401 299.464C532.721 298.872 532.881 298.168 532.881 297.352ZM542.907 286.24V304H539.547V286.24H542.907ZM558.586 297.064C558.586 297.544 558.554 297.976 558.49 298.36H548.77C548.85 299.32 549.186 300.072 549.778 300.616C550.37 301.16 551.098 301.432 551.962 301.432C553.21 301.432 554.098 300.896 554.626 299.824H558.25C557.866 301.104 557.13 302.16 556.042 302.992C554.954 303.808 553.618 304.216 552.034 304.216C550.754 304.216 549.602 303.936 548.578 303.376C547.57 302.8 546.778 301.992 546.202 300.952C545.642 299.912 545.362 298.712 545.362 297.352C545.362 295.976 545.642 294.768 546.202 293.728C546.762 292.688 547.546 291.888 548.554 291.328C549.562 290.768 550.722 290.488 552.034 290.488C553.298 290.488 554.426 290.76 555.418 291.304C556.426 291.848 557.202 292.624 557.746 293.632C558.306 294.624 558.586 295.768 558.586 297.064ZM555.106 296.104C555.09 295.24 554.778 294.552 554.17 294.04C553.562 293.512 552.818 293.248 551.938 293.248C551.106 293.248 550.402 293.504 549.826 294.016C549.266 294.512 548.922 295.208 548.794 296.104H555.106ZM566.127 304.216C565.039 304.216 564.063 304.024 563.199 303.64C562.335 303.24 561.647 302.704 561.135 302.032C560.639 301.36 560.367 300.616 560.319 299.8H563.703C563.767 300.312 564.015 300.736 564.447 301.072C564.895 301.408 565.447 301.576 566.103 301.576C566.743 301.576 567.239 301.448 567.591 301.192C567.959 300.936 568.143 300.608 568.143 300.208C568.143 299.776 567.919 299.456 567.471 299.248C567.039 299.024 566.343 298.784 565.383 298.528C564.391 298.288 563.575 298.04 562.935 297.784C562.311 297.528 561.767 297.136 561.303 296.608C560.855 296.08 560.631 295.368 560.631 294.472C560.631 293.736 560.839 293.064 561.255 292.456C561.687 291.848 562.295 291.368 563.079 291.016C563.879 290.664 564.815 290.488 565.887 290.488C567.471 290.488 568.735 290.888 569.679 291.688C570.623 292.472 571.143 293.536 571.239 294.88H568.023C567.975 294.352 567.751 293.936 567.351 293.632C566.967 293.312 566.447 293.152 565.791 293.152C565.183 293.152 564.711 293.264 564.375 293.488C564.055 293.712 563.895 294.024 563.895 294.424C563.895 294.872 564.119 295.216 564.567 295.456C565.015 295.68 565.711 295.912 566.655 296.152C567.615 296.392 568.407 296.64 569.031 296.896C569.655 297.152 570.191 297.552 570.639 298.096C571.103 298.624 571.343 299.328 571.359 300.208C571.359 300.976 571.143 301.664 570.711 302.272C570.295 302.88 569.687 303.36 568.887 303.712C568.103 304.048 567.183 304.216 566.127 304.216Z" fill="white"/>
<path d="M586.867 199.759V194.45C586.857 190.074 585.578 185.796 583.184 182.133C580.79 178.47 577.385 175.58 573.382 173.814L555.4 165.847C558.509 162.517 560.258 158.144 560.303 153.589L565.205 151.135C566.245 150.635 567.123 149.852 567.738 148.876C568.354 147.9 568.683 146.771 568.688 145.617V144.186C568.703 143.377 568.554 142.573 568.251 141.823C567.949 141.073 567.498 140.391 566.926 139.819C566.353 139.247 565.672 138.796 564.922 138.493C564.171 138.19 563.368 138.042 562.559 138.056H560.516V123.755C560.529 122.41 560.274 121.075 559.765 119.83C559.257 118.584 558.505 117.453 557.554 116.501C556.602 115.55 555.471 114.798 554.225 114.29C552.98 113.781 551.645 113.526 550.3 113.539H549.279C547.938 113.559 546.608 113.297 545.375 112.77C544.142 112.244 543.033 111.464 542.12 110.483L538.638 107L526.991 110.869C525.534 111.342 524.157 112.031 522.904 112.913L521.271 114.139C519.431 115.471 517.933 117.222 516.903 119.247C515.873 121.273 515.34 123.514 515.347 125.786V138.056H513.304C512.496 138.043 511.694 138.193 510.945 138.496C510.196 138.8 509.516 139.251 508.945 139.823C508.374 140.395 507.924 141.076 507.622 141.826C507.32 142.575 507.172 143.378 507.187 144.186V145.819C507.175 146.976 507.498 148.112 508.116 149.09C508.733 150.069 509.62 150.849 510.669 151.336L515.572 153.79C515.654 158.338 517.398 162.698 520.474 166.048L502.493 174.015C498.488 175.78 495.081 178.669 492.686 182.332C490.291 185.995 489.01 190.275 489 194.651V229.999H585.029C585.838 230.013 586.643 229.864 587.393 229.56C588.144 229.256 588.825 228.804 589.397 228.231C589.969 227.658 590.419 226.975 590.721 226.224C591.023 225.472 591.17 224.668 591.154 223.858V205.478C591.087 204.207 590.643 202.984 589.878 201.966C589.114 200.948 588.065 200.179 586.863 199.759H586.867ZM560.307 142.143H562.35C562.622 142.127 562.895 142.169 563.15 142.266C563.405 142.363 563.636 142.513 563.829 142.706C564.022 142.899 564.172 143.131 564.269 143.386C564.367 143.641 564.409 143.913 564.393 144.186V145.819C564.397 146.213 564.282 146.599 564.063 146.927C563.844 147.255 563.532 147.509 563.166 147.657L560.307 149.088V142.143ZM515.359 149.108L512.499 147.676C512.16 147.494 511.87 147.231 511.656 146.91C511.442 146.59 511.311 146.221 511.273 145.838V144.186C511.257 143.913 511.299 143.641 511.396 143.386C511.493 143.131 511.643 142.899 511.836 142.706C512.029 142.513 512.261 142.363 512.516 142.266C512.771 142.169 513.043 142.127 513.316 142.143H515.359V149.108ZM561.328 173.013L551.929 182.412L542.325 174.24C543.347 173.83 544.163 173.423 544.98 173.013L551.109 169.337C551.314 169.337 551.314 169.132 551.519 168.927L561.328 173.013ZM519.441 125.798C519.407 124.206 519.761 122.63 520.473 121.206C521.185 119.782 522.233 118.553 523.527 117.626L525.16 116.399C526 115.723 526.975 115.235 528.02 114.967L537.214 111.903L538.847 113.536C541.553 116.262 545.228 117.808 549.07 117.835H550.091C550.9 117.82 551.704 117.968 552.454 118.271C553.204 118.574 553.886 119.025 554.458 119.597C555.03 120.169 555.481 120.851 555.784 121.601C556.087 122.351 556.235 123.155 556.221 123.964V132.539C555.563 132.304 554.875 132.166 554.177 132.128H541.304C539.907 132.12 538.532 131.783 537.29 131.144C536.047 130.505 534.973 129.583 534.153 128.452L533.542 127.841C532.602 126.565 531.204 125.703 529.642 125.436C528.079 125.169 526.474 125.518 525.164 126.409L519.445 130.085L519.441 125.798ZM523.732 168.703C523.938 168.703 523.938 168.908 524.143 169.113L530.272 172.789C531.071 173.363 531.972 173.779 532.926 174.015L523.322 182.188L513.927 172.781L523.732 168.703ZM535.786 225.909H513.312V203.435H509.226V225.909H492.869V194.241C492.848 190.671 493.884 187.175 495.848 184.193C497.811 181.211 500.613 178.877 503.901 177.486L510.236 174.627L523.311 187.702L535.774 177.076L535.786 225.909ZM532.52 169.299L526.391 165.623C524.271 164.354 522.515 162.558 521.295 160.41C520.074 158.262 519.43 155.835 519.426 153.364V136.218C519.484 135.591 519.776 135.009 520.242 134.586L527.393 129.683C527.841 129.401 528.374 129.287 528.898 129.362C529.422 129.437 529.902 129.696 530.252 130.093L530.864 130.704C532.107 132.303 533.686 133.608 535.491 134.527C537.295 135.446 539.28 135.956 541.304 136.021H554.174C554.446 136.005 554.719 136.047 554.974 136.145C555.229 136.242 555.46 136.392 555.653 136.585C555.846 136.777 555.996 137.009 556.093 137.264C556.19 137.519 556.232 137.792 556.217 138.064V153.387C556.212 155.858 555.568 158.285 554.348 160.433C553.127 162.581 551.372 164.377 549.252 165.646L543.122 169.322C541.531 170.323 539.69 170.854 537.81 170.854C535.93 170.854 534.088 170.323 532.497 169.322L532.52 169.299ZM550.501 225.894H539.876V177.285L552.339 187.911L565.414 174.836L571.749 177.695C575.021 179.109 577.808 181.448 579.768 184.425C581.728 187.401 582.775 190.886 582.781 194.45V199.353H578.694V197.31C578.71 196.502 578.562 195.699 578.26 194.949C577.959 194.2 577.509 193.518 576.939 192.946C576.368 192.374 575.688 191.922 574.94 191.618C574.191 191.314 573.389 191.164 572.581 191.177H568.479C567.67 191.162 566.866 191.31 566.116 191.613C565.366 191.916 564.684 192.367 564.112 192.939C563.54 193.511 563.089 194.193 562.786 194.943C562.484 195.693 562.335 196.497 562.35 197.306V199.349H556.221C555.412 199.334 554.608 199.483 553.858 199.786C553.107 200.088 552.426 200.539 551.854 201.111C551.282 201.684 550.831 202.365 550.528 203.115C550.225 203.866 550.077 204.669 550.091 205.478V223.858C550.129 224.555 550.267 225.244 550.501 225.901V225.894ZM574.612 197.29V199.333H566.436V197.29C566.42 197.018 566.462 196.745 566.559 196.49C566.657 196.235 566.806 196.004 566.999 195.811C567.192 195.618 567.424 195.468 567.679 195.371C567.934 195.274 568.207 195.232 568.479 195.247H572.581C572.853 195.234 573.126 195.278 573.38 195.377C573.634 195.476 573.865 195.628 574.056 195.822C574.248 196.016 574.396 196.249 574.491 196.505C574.586 196.761 574.626 197.034 574.608 197.306L574.612 197.29ZM586.867 223.858C586.883 224.131 586.84 224.403 586.743 224.658C586.646 224.913 586.496 225.145 586.303 225.338C586.11 225.531 585.879 225.681 585.624 225.778C585.369 225.875 585.096 225.917 584.824 225.901H556.221C555.948 225.917 555.675 225.875 555.42 225.778C555.165 225.681 554.934 225.531 554.741 225.338C554.548 225.145 554.398 224.913 554.301 224.658C554.204 224.403 554.162 224.131 554.177 223.858V213.643H568.495V217.729H572.581V213.651H586.898L586.867 223.858ZM586.867 209.541H554.177V205.478C554.162 205.206 554.204 204.933 554.301 204.678C554.398 204.423 554.548 204.192 554.741 203.999C554.934 203.806 555.165 203.656 555.42 203.559C555.675 203.461 555.948 203.419 556.221 203.435H584.824C585.096 203.419 585.369 203.461 585.624 203.559C585.879 203.656 586.11 203.806 586.303 203.999C586.496 204.192 586.646 204.423 586.743 204.678C586.84 204.933 586.883 205.206 586.867 205.478V209.541Z" fill="white"/>
<defs>
<linearGradient id="paint0_linear_2232_4402" x1="1260" y1="0" x2="1260" y2="354" gradientUnits="userSpaceOnUse">
<stop stop-color="#357882"/>
<stop offset="1" stop-color="#1F4A50"/>
</linearGradient>
<linearGradient id="paint1_linear_2232_4402" x1="180" y1="0" x2="180" y2="354" gradientUnits="userSpaceOnUse">
<stop stop-color="#D68060"/>
<stop offset="1" stop-color="#87513D"/>
</linearGradient>
<linearGradient id="paint2_linear_2232_4402" x1="900" y1="0" x2="900" y2="354" gradientUnits="userSpaceOnUse">
<stop stop-color="#5A3F74"/>
<stop offset="1" stop-color="#39254D"/>
</linearGradient>
<linearGradient id="paint3_linear_2232_4402" x1="540" y1="0" x2="540" y2="354" gradientUnits="userSpaceOnUse">
<stop stop-color="#BF345E"/>
<stop offset="1" stop-color="#962749"/>
</linearGradient>
<clipPath id="clip0_2232_4402">
<rect width="160.723" height="123" fill="white" transform="translate(100 107)"/>
</clipPath>
</defs>
</svg>
