<svg width="320" height="405" viewBox="0 0 320 405" fill="none" xmlns="http://www.w3.org/2000/svg">
<path d="M10.88 8.04V10.3H7.16V22H4.36V10.3H0.64V8.04H10.88ZM23.523 10.92L16.663 27.24H13.683L16.083 21.72L11.643 10.92H14.783L17.643 18.66L20.543 10.92H23.523ZM27.8323 12.52C28.1923 12.0133 28.6857 11.5933 29.3123 11.26C29.9523 10.9133 30.679 10.74 31.4923 10.74C32.439 10.74 33.2923 10.9733 34.0523 11.44C34.8257 11.9067 35.4323 12.5733 35.8723 13.44C36.3257 14.2933 36.5523 15.2867 36.5523 16.42C36.5523 17.5533 36.3257 18.56 35.8723 19.44C35.4323 20.3067 34.8257 20.98 34.0523 21.46C33.2923 21.94 32.439 22.18 31.4923 22.18C30.679 22.18 29.959 22.0133 29.3323 21.68C28.719 21.3467 28.219 20.9267 27.8323 20.42V27.28H25.0323V10.92H27.8323V12.52ZM33.6923 16.42C33.6923 15.7533 33.5523 15.18 33.2723 14.7C33.0057 14.2067 32.6457 13.8333 32.1923 13.58C31.7523 13.3267 31.2723 13.2 30.7523 13.2C30.2457 13.2 29.7657 13.3333 29.3123 13.6C28.8723 13.8533 28.5123 14.2267 28.2323 14.72C27.9657 15.2133 27.8323 15.7933 27.8323 16.46C27.8323 17.1267 27.9657 17.7067 28.2323 18.2C28.5123 18.6933 28.8723 19.0733 29.3123 19.34C29.7657 19.5933 30.2457 19.72 30.7523 19.72C31.2723 19.72 31.7523 19.5867 32.1923 19.32C32.6457 19.0533 33.0057 18.6733 33.2723 18.18C33.5523 17.6867 33.6923 17.1 33.6923 16.42ZM48.887 16.22C48.887 16.62 48.8604 16.98 48.807 17.3H40.707C40.7737 18.1 41.0537 18.7267 41.547 19.18C42.0404 19.6333 42.647 19.86 43.367 19.86C44.407 19.86 45.147 19.4133 45.587 18.52H48.607C48.287 19.5867 47.6737 20.4667 46.767 21.16C45.8604 21.84 44.747 22.18 43.427 22.18C42.3604 22.18 41.4004 21.9467 40.547 21.48C39.707 21 39.047 20.3267 38.567 19.46C38.1004 18.5933 37.867 17.5933 37.867 16.46C37.867 15.3133 38.1004 14.3067 38.567 13.44C39.0337 12.5733 39.687 11.9067 40.527 11.44C41.367 10.9733 42.3337 10.74 43.427 10.74C44.4804 10.74 45.4204 10.9667 46.247 11.42C47.087 11.8733 47.7337 12.52 48.187 13.36C48.6537 14.1867 48.887 15.14 48.887 16.22ZM45.987 15.42C45.9737 14.7 45.7137 14.1267 45.207 13.7C44.7004 13.26 44.0804 13.04 43.347 13.04C42.6537 13.04 42.067 13.2533 41.587 13.68C41.1204 14.0933 40.8337 14.6733 40.727 15.42H45.987ZM56.0108 13.22H54.0708V22H51.2308V13.22H49.9708V10.92H51.2308V10.36C51.2308 9 51.6174 8 52.3908 7.36C53.1641 6.72 54.3308 6.42 55.8908 6.46V8.82C55.2108 8.80667 54.7374 8.92 54.4708 9.16C54.2041 9.4 54.0708 9.83333 54.0708 10.46V10.92H56.0108V13.22ZM57.1053 16.42C57.1053 15.3 57.3253 14.3067 57.7653 13.44C58.2186 12.5733 58.8253 11.9067 59.5853 11.44C60.3586 10.9733 61.2186 10.74 62.1653 10.74C62.992 10.74 63.712 10.9067 64.3253 11.24C64.952 11.5733 65.452 11.9933 65.8253 12.5V10.92H68.6453V22H65.8253V20.38C65.4653 20.9 64.9653 21.3333 64.3253 21.68C63.6986 22.0133 62.972 22.18 62.1453 22.18C61.212 22.18 60.3586 21.94 59.5853 21.46C58.8253 20.98 58.2186 20.3067 57.7653 19.44C57.3253 18.56 57.1053 17.5533 57.1053 16.42ZM65.8253 16.46C65.8253 15.78 65.692 15.2 65.4253 14.72C65.1586 14.2267 64.7986 13.8533 64.3453 13.6C63.892 13.3333 63.4053 13.2 62.8853 13.2C62.3653 13.2 61.8853 13.3267 61.4453 13.58C61.0053 13.8333 60.6453 14.2067 60.3653 14.7C60.0986 15.18 59.9653 15.7533 59.9653 16.42C59.9653 17.0867 60.0986 17.6733 60.3653 18.18C60.6453 18.6733 61.0053 19.0533 61.4453 19.32C61.8986 19.5867 62.3786 19.72 62.8853 19.72C63.4053 19.72 63.892 19.5933 64.3453 19.34C64.7986 19.0733 65.1586 18.7 65.4253 18.22C65.692 17.7267 65.8253 17.14 65.8253 16.46ZM70.66 16.46C70.66 15.3133 70.8933 14.3133 71.36 13.46C71.8267 12.5933 72.4733 11.9267 73.3 11.46C74.1267 10.98 75.0733 10.74 76.14 10.74C77.5133 10.74 78.6467 11.0867 79.54 11.78C80.4467 12.46 81.0533 13.42 81.36 14.66H78.34C78.18 14.18 77.9067 13.8067 77.52 13.54C77.1467 13.26 76.68 13.12 76.12 13.12C75.32 13.12 74.6867 13.4133 74.22 14C73.7533 14.5733 73.52 15.3933 73.52 16.46C73.52 17.5133 73.7533 18.3333 74.22 18.92C74.6867 19.4933 75.32 19.78 76.12 19.78C77.2533 19.78 77.9933 19.2733 78.34 18.26H81.36C81.0533 19.46 80.4467 20.4133 79.54 21.12C78.6333 21.8267 77.5 22.18 76.14 22.18C75.0733 22.18 74.1267 21.9467 73.3 21.48C72.4733 21 71.8267 20.3333 71.36 19.48C70.8933 18.6133 70.66 17.6067 70.66 16.46ZM93.7113 16.22C93.7113 16.62 93.6846 16.98 93.6313 17.3H85.5313C85.5979 18.1 85.8779 18.7267 86.3713 19.18C86.8646 19.6333 87.4713 19.86 88.1913 19.86C89.2313 19.86 89.9713 19.4133 90.4113 18.52H93.4313C93.1113 19.5867 92.4979 20.4667 91.5913 21.16C90.6846 21.84 89.5713 22.18 88.2513 22.18C87.1846 22.18 86.2246 21.9467 85.3713 21.48C84.5313 21 83.8713 20.3267 83.3913 19.46C82.9246 18.5933 82.6912 17.5933 82.6912 16.46C82.6912 15.3133 82.9246 14.3067 83.3913 13.44C83.8579 12.5733 84.5113 11.9067 85.3513 11.44C86.1913 10.9733 87.1579 10.74 88.2513 10.74C89.3046 10.74 90.2446 10.9667 91.0713 11.42C91.9113 11.8733 92.5579 12.52 93.0113 13.36C93.4779 14.1867 93.7113 15.14 93.7113 16.22ZM90.8113 15.42C90.7979 14.7 90.5379 14.1267 90.0313 13.7C89.5246 13.26 88.9046 13.04 88.1713 13.04C87.4779 13.04 86.8913 13.2533 86.4113 13.68C85.9446 14.0933 85.6579 14.6733 85.5513 15.42H90.8113Z" fill="black"/>
<path d="M7.392 62.28C7.21467 61.9533 6.958 61.706 6.622 61.538C6.29533 61.3607 5.908 61.272 5.46 61.272C4.68533 61.272 4.06467 61.5287 3.598 62.042C3.13133 62.546 2.898 63.2227 2.898 64.072C2.898 64.9773 3.14067 65.6867 3.626 66.2C4.12067 66.704 4.79733 66.956 5.656 66.956C6.244 66.956 6.73867 66.8067 7.14 66.508C7.55067 66.2093 7.84933 65.78 8.036 65.22H4.998V63.456H10.206V65.682C10.0287 66.2793 9.72533 66.8347 9.296 67.348C8.876 67.8613 8.33933 68.2767 7.686 68.594C7.03267 68.9113 6.29533 69.07 5.474 69.07C4.50333 69.07 3.63533 68.86 2.87 68.44C2.114 68.0107 1.52133 67.418 1.092 66.662C0.672 65.906 0.462 65.0427 0.462 64.072C0.462 63.1013 0.672 62.238 1.092 61.482C1.52133 60.7167 2.114 60.124 2.87 59.704C3.626 59.2747 4.48933 59.06 5.46 59.06C6.636 59.06 7.62533 59.3447 8.428 59.914C9.24 60.4833 9.77667 61.272 10.038 62.28H7.392ZM15.0881 69.112C14.3227 69.112 13.6321 68.9487 13.0161 68.622C12.4094 68.2953 11.9287 67.8287 11.5741 67.222C11.2287 66.6153 11.0561 65.906 11.0561 65.094C11.0561 64.2913 11.2334 63.5867 11.5881 62.98C11.9427 62.364 12.4281 61.8927 13.0441 61.566C13.6601 61.2393 14.3507 61.076 15.1161 61.076C15.8814 61.076 16.5721 61.2393 17.1881 61.566C17.8041 61.8927 18.2894 62.364 18.6441 62.98C18.9987 63.5867 19.1761 64.2913 19.1761 65.094C19.1761 65.8967 18.9941 66.606 18.6301 67.222C18.2754 67.8287 17.7854 68.2953 17.1601 68.622C16.5441 68.9487 15.8534 69.112 15.0881 69.112ZM15.0881 67.04C15.5454 67.04 15.9327 66.872 16.2501 66.536C16.5767 66.2 16.7401 65.7193 16.7401 65.094C16.7401 64.4687 16.5814 63.988 16.2641 63.652C15.9561 63.316 15.5734 63.148 15.1161 63.148C14.6494 63.148 14.2621 63.316 13.9541 63.652C13.6461 63.9787 13.4921 64.4593 13.4921 65.094C13.4921 65.7193 13.6414 66.2 13.9401 66.536C14.2481 66.872 14.6307 67.04 15.0881 67.04ZM24.8001 66.97V69H23.5821C22.7141 69 22.0375 68.79 21.5521 68.37C21.0668 67.9407 20.8241 67.2453 20.8241 66.284V63.176H19.8721V61.188H20.8241V59.284H23.2181V61.188H24.7861V63.176H23.2181V66.312C23.2181 66.5453 23.2741 66.7133 23.3861 66.816C23.4981 66.9187 23.6848 66.97 23.9461 66.97H24.8001ZM30.9356 61.104C31.8316 61.104 32.5503 61.4027 33.0916 62C33.633 62.588 33.9036 63.4 33.9036 64.436V69H31.5236V64.758C31.5236 64.2353 31.3883 63.8293 31.1176 63.54C30.847 63.2507 30.483 63.106 30.0256 63.106C29.5683 63.106 29.2043 63.2507 28.9336 63.54C28.663 63.8293 28.5276 64.2353 28.5276 64.758V69H26.1336V58.64H28.5276V62.238C28.7703 61.8927 29.1016 61.6173 29.5216 61.412C29.9416 61.2067 30.413 61.104 30.9356 61.104ZM35.0912 65.08C35.0912 64.2773 35.2406 63.5727 35.5392 62.966C35.8472 62.3593 36.2626 61.8927 36.7852 61.566C37.3079 61.2393 37.8912 61.076 38.5352 61.076C39.0859 61.076 39.5666 61.188 39.9772 61.412C40.3972 61.636 40.7192 61.93 40.9432 62.294V61.188H43.3372V69H40.9432V67.894C40.7099 68.258 40.3832 68.552 39.9632 68.776C39.5526 69 39.0719 69.112 38.5212 69.112C37.8866 69.112 37.3079 68.9487 36.7852 68.622C36.2626 68.286 35.8472 67.8147 35.5392 67.208C35.2406 66.592 35.0912 65.8827 35.0912 65.08ZM40.9432 65.094C40.9432 64.4967 40.7752 64.0253 40.4392 63.68C40.1126 63.3347 39.7112 63.162 39.2352 63.162C38.7592 63.162 38.3532 63.3347 38.0172 63.68C37.6906 64.016 37.5272 64.4827 37.5272 65.08C37.5272 65.6773 37.6906 66.1533 38.0172 66.508C38.3532 66.8533 38.7592 67.026 39.2352 67.026C39.7112 67.026 40.1126 66.8533 40.4392 66.508C40.7752 66.1627 40.9432 65.6913 40.9432 65.094ZM55.0372 61.104C56.0078 61.104 56.7778 61.398 57.3472 61.986C57.9258 62.574 58.2152 63.3907 58.2152 64.436V69H55.8352V64.758C55.8352 64.254 55.6998 63.8667 55.4292 63.596C55.1678 63.316 54.8038 63.176 54.3372 63.176C53.8705 63.176 53.5018 63.316 53.2312 63.596C52.9698 63.8667 52.8392 64.254 52.8392 64.758V69H50.4592V64.758C50.4592 64.254 50.3238 63.8667 50.0532 63.596C49.7918 63.316 49.4278 63.176 48.9612 63.176C48.4945 63.176 48.1258 63.316 47.8552 63.596C47.5938 63.8667 47.4632 64.254 47.4632 64.758V69H45.0692V61.188H47.4632V62.168C47.7058 61.8413 48.0232 61.5847 48.4152 61.398C48.8072 61.202 49.2505 61.104 49.7452 61.104C50.3332 61.104 50.8558 61.23 51.3132 61.482C51.7798 61.734 52.1438 62.0933 52.4052 62.56C52.6758 62.1307 53.0445 61.7807 53.5112 61.51C53.9778 61.2393 54.4865 61.104 55.0372 61.104Z" fill="#161616"/>
<circle cx="90" cy="152" r="59.5" fill="white" stroke="#E5E5E5"/>
<circle cx="230" cy="152" r="59.5" fill="white" stroke="#E5E5E5"/>
<path d="M79.28 123.8H76.32L63.56 152H66.8L70.12 144.6H85.36L88.64 152H92.04L79.28 123.8ZM84.12 141.76H71.36L77.76 127.48L84.12 141.76ZM104.522 133.76C106.468 133.76 107.975 134.24 109.042 135.2C110.135 136.133 110.682 137.533 110.682 139.4V140.12C109.748 139.853 108.788 139.64 107.802 139.48C106.815 139.32 105.655 139.24 104.322 139.24C103.015 139.24 101.815 139.387 100.722 139.68C99.6549 139.973 98.7216 140.4 97.9216 140.96C97.1482 141.52 96.5482 142.227 96.1216 143.08C95.6949 143.907 95.4816 144.867 95.4816 145.96C95.4816 147.053 95.6949 148 96.1216 148.8C96.5749 149.6 97.1616 150.28 97.8816 150.84C98.6282 151.373 99.4549 151.773 100.362 152.04C101.295 152.307 102.242 152.44 103.202 152.44C105.042 152.44 106.562 152.08 107.762 151.36C108.988 150.64 109.962 149.813 110.682 148.88V152H113.642V139.36C113.642 136.613 112.882 134.547 111.362 133.16C109.842 131.747 107.668 131.04 104.842 131.04C103.322 131.04 101.975 131.2 100.802 131.52C99.6282 131.813 98.4682 132.227 97.3216 132.76L98.2416 135.28C99.2016 134.827 100.175 134.467 101.162 134.2C102.175 133.907 103.295 133.76 104.522 133.76ZM104.642 141.52C105.922 141.52 107.055 141.613 108.042 141.8C109.055 141.987 109.948 142.187 110.722 142.4V144.4C110.722 145.227 110.535 145.987 110.162 146.68C109.815 147.347 109.322 147.933 108.682 148.44C108.068 148.92 107.335 149.307 106.482 149.6C105.655 149.867 104.762 150 103.802 150C103.108 150 102.442 149.907 101.802 149.72C101.188 149.533 100.642 149.267 100.162 148.92C99.6816 148.547 99.2949 148.107 99.0016 147.6C98.7349 147.093 98.6016 146.507 98.6016 145.84C98.6016 144.507 99.1216 143.453 100.162 142.68C101.202 141.907 102.695 141.52 104.642 141.52Z" fill="#474A5C"/>
<path d="M232.64 156L220.64 127.8H214.96L202.96 156H209.24L211.8 149.72H223.64L226.2 156H232.64ZM221.44 144.28H214L217.72 135.2L221.44 144.28ZM254.762 156V143.56C254.762 137.76 251.842 134.32 245.202 134.32C241.562 134.32 239.242 135 236.882 136.04L238.402 140.68C240.362 139.96 242.002 139.52 244.322 139.52C247.362 139.52 248.922 140.92 248.922 143.44V143.8C247.402 143.28 245.842 142.92 243.682 142.92C238.602 142.92 235.042 145.08 235.042 149.76V149.84C235.042 154.08 238.362 156.4 242.402 156.4C245.362 156.4 247.402 155.32 248.882 153.68V156H254.762ZM249.002 148.44C249.002 150.64 247.082 152.2 244.242 152.2C242.282 152.2 240.922 151.24 240.922 149.6V149.52C240.922 147.6 242.522 146.56 245.122 146.56C246.602 146.56 247.962 146.88 249.002 147.36V148.44Z" fill="#474A5C"/>
<path d="M68.3 176.112C68.3 177.204 67.67 177.988 66.228 177.988H64.352V174.292H66.228C67.684 174.292 68.3 175.006 68.3 176.112ZM63.078 173.242V183H64.352V179.01H65.892L68.216 183H69.742L67.292 178.912C68.93 178.548 69.616 177.358 69.616 176.112C69.616 174.516 68.524 173.242 66.228 173.242H63.078ZM74.8576 176.28C76.1736 176.28 77.2936 177.106 77.2796 178.604H72.4356C72.5756 177.106 73.6116 176.28 74.8576 176.28ZM78.4416 180.634H77.0696C76.7896 181.46 76.0616 182.048 74.9136 182.048C73.6116 182.048 72.5196 181.194 72.4216 179.64H78.5536C78.5816 179.374 78.5956 179.15 78.5956 178.87C78.5956 176.77 77.1396 175.202 74.9136 175.202C72.6736 175.202 71.1196 176.728 71.1196 179.15C71.1196 181.586 72.7296 183.126 74.9136 183.126C76.8176 183.126 78.0496 182.034 78.4416 180.634ZM79.8012 179.136C79.8012 181.516 81.3832 183.126 83.4412 183.126C84.8412 183.126 85.8352 182.384 86.2972 181.558V183.168C86.2972 184.806 85.2752 185.674 83.9172 185.674C82.6572 185.674 81.7472 185.044 81.4672 184.12H80.2072C80.4592 185.758 81.9012 186.78 83.9172 186.78C86.1712 186.78 87.5852 185.282 87.5852 183.168V175.328H86.2972V176.728C85.8492 175.902 84.8412 175.202 83.4412 175.202C81.3832 175.202 79.8012 176.742 79.8012 179.136ZM86.2972 179.15C86.2972 180.956 85.0932 182.006 83.6932 182.006C82.2932 182.006 81.1032 180.942 81.1032 179.136C81.1032 177.33 82.2932 176.308 83.6932 176.308C85.0932 176.308 86.2972 177.372 86.2972 179.15ZM96.5422 175.328H95.2682V179.542C95.2682 181.194 94.3862 182.006 93.0702 182.006C91.7822 182.006 90.9282 181.208 90.9282 179.654V175.328H89.6682V179.822C89.6682 182.02 91.0542 183.112 92.8182 183.112C93.8402 183.112 94.7782 182.664 95.2682 181.866V183H96.5422V175.328ZM98.6932 183H99.9672V172.64H98.6932V183ZM101.663 179.136C101.663 181.516 103.245 183.126 105.289 183.126C106.703 183.126 107.697 182.398 108.159 181.572V183H109.447V175.328H108.159V176.728C107.711 175.93 106.731 175.202 105.303 175.202C103.245 175.202 101.663 176.742 101.663 179.136ZM108.159 179.15C108.159 180.956 106.955 182.006 105.555 182.006C104.155 182.006 102.965 180.942 102.965 179.136C102.965 177.33 104.155 176.308 105.555 176.308C106.955 176.308 108.159 177.372 108.159 179.15ZM112.873 178.828C112.873 177.05 113.797 176.504 115.015 176.504H115.351V175.188C114.133 175.188 113.307 175.72 112.873 176.574V175.328H111.599V183H112.873V178.828Z" fill="black"/>
<path d="M220.622 180.256C220.622 181.32 219.866 181.95 218.606 181.95H216.352V178.506H218.564C219.81 178.506 220.622 179.178 220.622 180.256ZM220.37 175.874C220.37 176.868 219.684 177.456 218.494 177.456H216.352V174.292H218.466C219.712 174.292 220.37 174.908 220.37 175.874ZM221.896 180.382C221.896 179.178 221.028 178.156 219.964 177.974C220.902 177.666 221.672 176.952 221.672 175.72C221.672 174.362 220.636 173.242 218.578 173.242H215.078V183H218.718C220.734 183 221.896 181.852 221.896 180.382ZM230.944 179.15C230.944 176.728 229.25 175.202 227.066 175.202C224.896 175.202 223.188 176.728 223.188 179.15C223.188 181.586 224.84 183.126 227.01 183.126C229.194 183.126 230.944 181.586 230.944 179.15ZM224.49 179.15C224.49 177.218 225.708 176.308 227.052 176.308C228.368 176.308 229.642 177.218 229.642 179.15C229.642 181.096 228.34 182.006 227.01 182.006C225.68 182.006 224.49 181.096 224.49 179.15ZM232.619 183H233.893V172.64H232.619V183ZM235.588 179.136C235.588 181.516 237.17 183.126 239.228 183.126C240.628 183.126 241.622 182.412 242.084 181.558V183H243.372V172.64H242.084V176.7C241.552 175.818 240.446 175.202 239.242 175.202C237.17 175.202 235.588 176.742 235.588 179.136ZM242.084 179.15C242.084 180.956 240.88 182.006 239.48 182.006C238.08 182.006 236.89 180.942 236.89 179.136C236.89 177.33 238.08 176.308 239.48 176.308C240.88 176.308 242.084 177.372 242.084 179.15Z" fill="black"/>
<path d="M4.14 295.04V303.68C4.14 304.627 4.38667 305.353 4.88 305.86C5.37333 306.353 6.06667 306.6 6.96 306.6C7.86667 306.6 8.56667 306.353 9.06 305.86C9.55333 305.353 9.8 304.627 9.8 303.68V295.04H12.62V303.66C12.62 304.847 12.36 305.853 11.84 306.68C11.3333 307.493 10.6467 308.107 9.78 308.52C8.92667 308.933 7.97333 309.14 6.92 309.14C5.88 309.14 4.93333 308.933 4.08 308.52C3.24 308.107 2.57333 307.493 2.08 306.68C1.58667 305.853 1.34 304.847 1.34 303.66V295.04H4.14ZM19.5653 309.18C18.6586 309.18 17.8453 309.02 17.1253 308.7C16.4053 308.367 15.832 307.92 15.4053 307.36C14.992 306.8 14.7653 306.18 14.7253 305.5H17.5453C17.5986 305.927 17.8053 306.28 18.1653 306.56C18.5386 306.84 18.9986 306.98 19.5453 306.98C20.0786 306.98 20.492 306.873 20.7853 306.66C21.092 306.447 21.2453 306.173 21.2453 305.84C21.2453 305.48 21.0586 305.213 20.6853 305.04C20.3253 304.853 19.7453 304.653 18.9453 304.44C18.1186 304.24 17.4386 304.033 16.9053 303.82C16.3853 303.607 15.932 303.28 15.5453 302.84C15.172 302.4 14.9853 301.807 14.9853 301.06C14.9853 300.447 15.1586 299.887 15.5053 299.38C15.8653 298.873 16.372 298.473 17.0253 298.18C17.692 297.887 18.472 297.74 19.3653 297.74C20.6853 297.74 21.7386 298.073 22.5253 298.74C23.312 299.393 23.7453 300.28 23.8253 301.4H21.1453C21.1053 300.96 20.9186 300.613 20.5853 300.36C20.2653 300.093 19.832 299.96 19.2853 299.96C18.7786 299.96 18.3853 300.053 18.1053 300.24C17.8386 300.427 17.7053 300.687 17.7053 301.02C17.7053 301.393 17.892 301.68 18.2653 301.88C18.6386 302.067 19.2186 302.26 20.0053 302.46C20.8053 302.66 21.4653 302.867 21.9853 303.08C22.5053 303.293 22.952 303.627 23.3253 304.08C23.712 304.52 23.912 305.107 23.9253 305.84C23.9253 306.48 23.7453 307.053 23.3853 307.56C23.0386 308.067 22.532 308.467 21.8653 308.76C21.212 309.04 20.4453 309.18 19.5653 309.18ZM36.5238 303.22C36.5238 303.62 36.4971 303.98 36.4438 304.3H28.3438C28.4104 305.1 28.6904 305.727 29.1838 306.18C29.6771 306.633 30.2838 306.86 31.0038 306.86C32.0438 306.86 32.7838 306.413 33.2238 305.52H36.2438C35.9238 306.587 35.3104 307.467 34.4038 308.16C33.4971 308.84 32.3838 309.18 31.0638 309.18C29.9971 309.18 29.0371 308.947 28.1838 308.48C27.3438 308 26.6838 307.327 26.2038 306.46C25.7371 305.593 25.5037 304.593 25.5037 303.46C25.5037 302.313 25.7371 301.307 26.2038 300.44C26.6704 299.573 27.3238 298.907 28.1638 298.44C29.0038 297.973 29.9704 297.74 31.0638 297.74C32.1171 297.74 33.0571 297.967 33.8838 298.42C34.7238 298.873 35.3704 299.52 35.8238 300.36C36.2904 301.187 36.5238 302.14 36.5238 303.22ZM33.6238 302.42C33.6104 301.7 33.3504 301.127 32.8438 300.7C32.3371 300.26 31.7171 300.04 30.9838 300.04C30.2904 300.04 29.7038 300.253 29.2238 300.68C28.7571 301.093 28.4704 301.673 28.3638 302.42H33.6238ZM41.3675 299.64C41.7275 299.053 42.1942 298.593 42.7675 298.26C43.3542 297.927 44.0208 297.76 44.7675 297.76V300.7H44.0275C43.1475 300.7 42.4808 300.907 42.0275 301.32C41.5875 301.733 41.3675 302.453 41.3675 303.48V309H38.5675V297.92H41.3675V299.64ZM54.2191 295.04V309H51.4191V295.04H54.2191ZM63.1255 297.76C64.4455 297.76 65.5121 298.18 66.3255 299.02C67.1388 299.847 67.5455 301.007 67.5455 302.5V309H64.7455V302.88C64.7455 302 64.5255 301.327 64.0855 300.86C63.6455 300.38 63.0455 300.14 62.2855 300.14C61.5121 300.14 60.8988 300.38 60.4455 300.86C60.0055 301.327 59.7855 302 59.7855 302.88V309H56.9855V297.92H59.7855V299.3C60.1588 298.82 60.6321 298.447 61.2055 298.18C61.7921 297.9 62.4321 297.76 63.1255 297.76ZM73.4681 300.22V305.58C73.4681 305.953 73.5548 306.227 73.7281 306.4C73.9148 306.56 74.2215 306.64 74.6481 306.64H75.9481V309H74.1881C71.8281 309 70.6481 307.853 70.6481 305.56V300.22H69.3281V297.92H70.6481V295.18H73.4681V297.92H75.9481V300.22H73.4681ZM88.262 303.22C88.262 303.62 88.2354 303.98 88.182 304.3H80.082C80.1487 305.1 80.4287 305.727 80.922 306.18C81.4154 306.633 82.022 306.86 82.742 306.86C83.782 306.86 84.522 306.413 84.962 305.52H87.982C87.662 306.587 87.0487 307.467 86.142 308.16C85.2354 308.84 84.122 309.18 82.802 309.18C81.7354 309.18 80.7754 308.947 79.922 308.48C79.082 308 78.422 307.327 77.942 306.46C77.4754 305.593 77.242 304.593 77.242 303.46C77.242 302.313 77.4754 301.307 77.942 300.44C78.4087 299.573 79.062 298.907 79.902 298.44C80.742 297.973 81.7087 297.74 82.802 297.74C83.8554 297.74 84.7954 297.967 85.622 298.42C86.462 298.873 87.1087 299.52 87.562 300.36C88.0287 301.187 88.262 302.14 88.262 303.22ZM85.362 302.42C85.3487 301.7 85.0887 301.127 84.582 300.7C84.0754 300.26 83.4554 300.04 82.722 300.04C82.0287 300.04 81.442 300.253 80.962 300.68C80.4954 301.093 80.2087 301.673 80.102 302.42H85.362ZM93.1058 299.64C93.4658 299.053 93.9324 298.593 94.5058 298.26C95.0924 297.927 95.7591 297.76 96.5058 297.76V300.7H95.7658C94.8858 300.7 94.2191 300.907 93.7658 301.32C93.3258 301.733 93.1058 302.453 93.1058 303.48V309H90.3058V297.92H93.1058V299.64ZM103.472 300.22H101.532V309H98.6917V300.22H97.4317V297.92H98.6917V297.36C98.6917 296 99.0784 295 99.8517 294.36C100.625 293.72 101.792 293.42 103.352 293.46V295.82C102.672 295.807 102.198 295.92 101.932 296.16C101.665 296.4 101.532 296.833 101.532 297.46V297.92H103.472V300.22ZM104.566 303.42C104.566 302.3 104.786 301.307 105.226 300.44C105.68 299.573 106.286 298.907 107.046 298.44C107.82 297.973 108.68 297.74 109.626 297.74C110.453 297.74 111.173 297.907 111.786 298.24C112.413 298.573 112.913 298.993 113.286 299.5V297.92H116.106V309H113.286V307.38C112.926 307.9 112.426 308.333 111.786 308.68C111.16 309.013 110.433 309.18 109.606 309.18C108.673 309.18 107.82 308.94 107.046 308.46C106.286 307.98 105.68 307.307 105.226 306.44C104.786 305.56 104.566 304.553 104.566 303.42ZM113.286 303.46C113.286 302.78 113.153 302.2 112.886 301.72C112.62 301.227 112.26 300.853 111.806 300.6C111.353 300.333 110.866 300.2 110.346 300.2C109.826 300.2 109.346 300.327 108.906 300.58C108.466 300.833 108.106 301.207 107.826 301.7C107.56 302.18 107.426 302.753 107.426 303.42C107.426 304.087 107.56 304.673 107.826 305.18C108.106 305.673 108.466 306.053 108.906 306.32C109.36 306.587 109.84 306.72 110.346 306.72C110.866 306.72 111.353 306.593 111.806 306.34C112.26 306.073 112.62 305.7 112.886 305.22C113.153 304.727 113.286 304.14 113.286 303.46ZM118.121 303.46C118.121 302.313 118.354 301.313 118.821 300.46C119.288 299.593 119.934 298.927 120.761 298.46C121.588 297.98 122.534 297.74 123.601 297.74C124.974 297.74 126.108 298.087 127.001 298.78C127.908 299.46 128.514 300.42 128.821 301.66H125.801C125.641 301.18 125.368 300.807 124.981 300.54C124.608 300.26 124.141 300.12 123.581 300.12C122.781 300.12 122.148 300.413 121.681 301C121.214 301.573 120.981 302.393 120.981 303.46C120.981 304.513 121.214 305.333 121.681 305.92C122.148 306.493 122.781 306.78 123.581 306.78C124.714 306.78 125.454 306.273 125.801 305.26H128.821C128.514 306.46 127.908 307.413 127.001 308.12C126.094 308.827 124.961 309.18 123.601 309.18C122.534 309.18 121.588 308.947 120.761 308.48C119.934 308 119.288 307.333 118.821 306.48C118.354 305.613 118.121 304.607 118.121 303.46ZM141.172 303.22C141.172 303.62 141.146 303.98 141.092 304.3H132.992C133.059 305.1 133.339 305.727 133.832 306.18C134.326 306.633 134.932 306.86 135.652 306.86C136.692 306.86 137.432 306.413 137.872 305.52H140.892C140.572 306.587 139.959 307.467 139.052 308.16C138.146 308.84 137.032 309.18 135.712 309.18C134.646 309.18 133.686 308.947 132.832 308.48C131.992 308 131.332 307.327 130.852 306.46C130.386 305.593 130.152 304.593 130.152 303.46C130.152 302.313 130.386 301.307 130.852 300.44C131.319 299.573 131.972 298.907 132.812 298.44C133.652 297.973 134.619 297.74 135.712 297.74C136.766 297.74 137.706 297.967 138.532 298.42C139.372 298.873 140.019 299.52 140.472 300.36C140.939 301.187 141.172 302.14 141.172 303.22ZM138.272 302.42C138.259 301.7 137.999 301.127 137.492 300.7C136.986 300.26 136.366 300.04 135.632 300.04C134.939 300.04 134.352 300.253 133.872 300.68C133.406 301.093 133.119 301.673 133.012 302.42H138.272Z" fill="black"/>
<path d="M0.924 346H2.016V342.232H4.968V341.344H2.016V338.524H5.652V337.636H0.924V346ZM13.2109 342.7C13.2109 340.624 11.7589 339.316 9.88688 339.316C8.02688 339.316 6.56288 340.624 6.56288 342.7C6.56288 344.788 7.97888 346.108 9.83888 346.108C11.7109 346.108 13.2109 344.788 13.2109 342.7ZM7.67888 342.7C7.67888 341.044 8.72288 340.264 9.87488 340.264C11.0029 340.264 12.0949 341.044 12.0949 342.7C12.0949 344.368 10.9789 345.148 9.83888 345.148C8.69888 345.148 7.67888 344.368 7.67888 342.7ZM14.2387 342.7C14.2387 344.788 15.5707 346.108 17.4427 346.108C19.0747 346.108 20.1427 345.196 20.4787 343.888H19.3027C19.0627 344.716 18.4147 345.184 17.4427 345.184C16.2427 345.184 15.3547 344.332 15.3547 342.7C15.3547 341.092 16.2427 340.24 17.4427 340.24C18.4147 340.24 19.0747 340.744 19.3027 341.536H20.4787C20.1427 340.156 19.0747 339.316 17.4427 339.316C15.5707 339.316 14.2387 340.636 14.2387 342.7ZM27.7677 339.424H26.6757V343.036C26.6757 344.452 25.9197 345.148 24.7917 345.148C23.6877 345.148 22.9557 344.464 22.9557 343.132V339.424H21.8757V343.276C21.8757 345.16 23.0637 346.096 24.5757 346.096C25.4517 346.096 26.2557 345.712 26.6757 345.028V346H27.7677V339.424ZM34.3395 344.212C34.2915 341.86 30.4755 342.712 30.4755 341.152C30.4755 340.624 30.9555 340.24 31.7595 340.24C32.6355 340.24 33.1395 340.72 33.1875 341.38H34.2795C34.2075 340.096 33.2475 339.316 31.7955 339.316C30.3315 339.316 29.3835 340.144 29.3835 341.152C29.3835 343.6 33.2715 342.748 33.2715 344.212C33.2715 344.752 32.7915 345.184 31.9275 345.184C31.0035 345.184 30.4395 344.704 30.3795 344.068H29.2515C29.3235 345.268 30.4035 346.108 31.9395 346.108C33.3915 346.108 34.3395 345.292 34.3395 344.212ZM35.881 346H36.973V339.424H35.881V346ZM36.445 338.356C36.841 338.356 37.165 338.032 37.165 337.612C37.165 337.192 36.841 336.868 36.445 336.868C36.025 336.868 35.701 337.192 35.701 337.612C35.701 338.032 36.025 338.356 36.445 338.356ZM43.6462 346H44.7262V342.124C44.7262 340.24 43.5622 339.304 42.0382 339.304C41.1502 339.304 40.3582 339.676 39.9262 340.36V339.424H38.8342V346H39.9262V342.364C39.9262 340.948 40.6942 340.252 41.8102 340.252C42.9142 340.252 43.6462 340.936 43.6462 342.28V346ZM46.1019 342.688C46.1019 344.728 47.4579 346.108 49.2219 346.108C50.4219 346.108 51.2739 345.472 51.6699 344.764V346.144C51.6699 347.548 50.7939 348.292 49.6299 348.292C48.5499 348.292 47.7699 347.752 47.5299 346.96H46.4499C46.6659 348.364 47.9019 349.24 49.6299 349.24C51.5619 349.24 52.7739 347.956 52.7739 346.144V339.424H51.6699V340.624C51.2859 339.916 50.4219 339.316 49.2219 339.316C47.4579 339.316 46.1019 340.636 46.1019 342.688ZM51.6699 342.7C51.6699 344.248 50.6379 345.148 49.4379 345.148C48.2379 345.148 47.2179 344.236 47.2179 342.688C47.2179 341.14 48.2379 340.264 49.4379 340.264C50.6379 340.264 51.6699 341.176 51.6699 342.7ZM64.0585 342.7C64.0585 340.624 62.6065 339.316 60.7345 339.316C58.8745 339.316 57.4105 340.624 57.4105 342.7C57.4105 344.788 58.8265 346.108 60.6865 346.108C62.5585 346.108 64.0585 344.788 64.0585 342.7ZM58.5265 342.7C58.5265 341.044 59.5705 340.264 60.7225 340.264C61.8505 340.264 62.9425 341.044 62.9425 342.7C62.9425 344.368 61.8265 345.148 60.6865 345.148C59.5465 345.148 58.5265 344.368 58.5265 342.7ZM70.3063 346H71.3863V342.124C71.3863 340.24 70.2223 339.304 68.6983 339.304C67.8103 339.304 67.0183 339.676 66.5863 340.36V339.424H65.4943V346H66.5863V342.364C66.5863 340.948 67.3543 340.252 68.4703 340.252C69.5743 340.252 70.3063 340.936 70.3063 342.28V346ZM76.6093 344.2C76.6093 345.52 77.2693 346 78.4333 346H79.4173V345.076H78.6133C77.9413 345.076 77.7013 344.848 77.7013 344.2V340.324H79.4173V339.424H77.7013V337.768H76.6093V339.424H75.7573V340.324H76.6093V344.2ZM80.7404 346H81.8324V342.364C81.8324 340.948 82.6004 340.252 83.7164 340.252C84.8204 340.252 85.5524 340.936 85.5524 342.28V346H86.6324V342.124C86.6324 340.24 85.4684 339.304 84.0044 339.304C83.0804 339.304 82.2644 339.676 81.8324 340.372V337.12H80.7404V346ZM91.2122 340.24C92.3402 340.24 93.3002 340.948 93.2882 342.232H89.1362C89.2562 340.948 90.1442 340.24 91.2122 340.24ZM94.2842 343.972H93.1082C92.8682 344.68 92.2442 345.184 91.2602 345.184C90.1442 345.184 89.2082 344.452 89.1242 343.12H94.3802C94.4042 342.892 94.4162 342.7 94.4162 342.46C94.4162 340.66 93.1682 339.316 91.2602 339.316C89.3402 339.316 88.0082 340.624 88.0082 342.7C88.0082 344.788 89.3882 346.108 91.2602 346.108C92.8922 346.108 93.9482 345.172 94.2842 343.972ZM98.6488 342.688C98.6488 344.728 100.005 346.108 101.757 346.108C102.969 346.108 103.821 345.484 104.217 344.776V346H105.321V339.424H104.217V340.624C103.833 339.94 102.993 339.316 101.769 339.316C100.005 339.316 98.6488 340.636 98.6488 342.688ZM104.217 342.7C104.217 344.248 103.185 345.148 101.985 345.148C100.785 345.148 99.7648 344.236 99.7648 342.688C99.7648 341.14 100.785 340.264 101.985 340.264C103.185 340.264 104.217 341.176 104.217 342.7ZM111.978 346H113.058V342.124C113.058 340.24 111.894 339.304 110.37 339.304C109.482 339.304 108.69 339.676 108.258 340.36V339.424H107.166V346H108.258V342.364C108.258 340.948 109.026 340.252 110.142 340.252C111.246 340.252 111.978 340.936 111.978 342.28V346ZM115.082 344.2C115.082 345.52 115.742 346 116.906 346H117.89V345.076H117.086C116.414 345.076 116.174 344.848 116.174 344.2V340.324H117.89V339.424H116.174V337.768H115.082V339.424H114.23V340.324H115.082V344.2ZM119.213 346H120.305V339.424H119.213V346ZM119.777 338.356C120.173 338.356 120.497 338.032 120.497 337.612C120.497 337.192 120.173 336.868 119.777 336.868C119.357 336.868 119.033 337.192 119.033 337.612C119.033 338.032 119.357 338.356 119.777 338.356ZM121.758 342.7C121.758 344.788 123.09 346.108 124.962 346.108C126.594 346.108 127.662 345.196 127.998 343.888H126.822C126.582 344.716 125.934 345.184 124.962 345.184C123.762 345.184 122.874 344.332 122.874 342.7C122.874 341.092 123.762 340.24 124.962 340.24C125.934 340.24 126.594 340.744 126.822 341.536H127.998C127.662 340.156 126.594 339.316 124.962 339.316C123.09 339.316 121.758 340.636 121.758 342.7ZM129.455 346H130.547V339.424H129.455V346ZM130.019 338.356C130.415 338.356 130.739 338.032 130.739 337.612C130.739 337.192 130.415 336.868 130.019 336.868C129.599 336.868 129.275 337.192 129.275 337.612C129.275 338.032 129.599 338.356 130.019 338.356ZM133.5 340.636V339.424H132.408V349.12H133.5V344.788C133.908 345.46 134.76 346.108 135.96 346.108C137.724 346.108 139.08 344.728 139.08 342.688C139.08 340.636 137.724 339.316 135.96 339.316C134.76 339.316 133.896 339.94 133.5 340.636ZM137.964 342.688C137.964 344.236 136.944 345.148 135.732 345.148C134.544 345.148 133.5 344.248 133.5 342.7C133.5 341.176 134.544 340.264 135.732 340.264C136.944 340.264 137.964 341.14 137.964 342.688ZM140.11 342.688C140.11 344.728 141.466 346.108 143.218 346.108C144.43 346.108 145.282 345.484 145.678 344.776V346H146.782V339.424H145.678V340.624C145.294 339.94 144.454 339.316 143.23 339.316C141.466 339.316 140.11 340.636 140.11 342.688ZM145.678 342.7C145.678 344.248 144.646 345.148 143.446 345.148C142.246 345.148 141.226 344.236 141.226 342.688C141.226 341.14 142.246 340.264 143.446 340.264C144.646 340.264 145.678 341.176 145.678 342.7ZM148.867 344.2C148.867 345.52 149.527 346 150.691 346H151.675V345.076H150.871C150.199 345.076 149.959 344.848 149.959 344.2V340.324H151.675V339.424H149.959V337.768H148.867V339.424H148.015V340.324H148.867V344.2ZM152.998 346H154.09V339.424H152.998V346ZM153.562 338.356C153.958 338.356 154.282 338.032 154.282 337.612C154.282 337.192 153.958 336.868 153.562 336.868C153.142 336.868 152.818 337.192 152.818 337.612C152.818 338.032 153.142 338.356 153.562 338.356ZM162.191 342.7C162.191 340.624 160.739 339.316 158.867 339.316C157.007 339.316 155.543 340.624 155.543 342.7C155.543 344.788 156.959 346.108 158.819 346.108C160.691 346.108 162.191 344.788 162.191 342.7ZM156.659 342.7C156.659 341.044 157.703 340.264 158.855 340.264C159.983 340.264 161.075 341.044 161.075 342.7C161.075 344.368 159.959 345.148 158.819 345.148C157.679 345.148 156.659 344.368 156.659 342.7ZM168.439 346H169.519V342.124C169.519 340.24 168.355 339.304 166.831 339.304C165.943 339.304 165.151 339.676 164.719 340.36V339.424H163.627V346H164.719V342.364C164.719 340.948 165.487 340.252 166.603 340.252C167.707 340.252 168.439 340.936 168.439 342.28V346ZM180.742 342.7C180.742 340.624 179.29 339.316 177.418 339.316C175.558 339.316 174.094 340.624 174.094 342.7C174.094 344.788 175.51 346.108 177.37 346.108C179.242 346.108 180.742 344.788 180.742 342.7ZM175.21 342.7C175.21 341.044 176.254 340.264 177.406 340.264C178.534 340.264 179.626 341.044 179.626 342.7C179.626 344.368 178.51 345.148 177.37 345.148C176.23 345.148 175.21 344.368 175.21 342.7ZM182.382 346H183.474V340.324H184.854V339.424H183.474V338.956C183.474 338.104 183.798 337.744 184.782 337.744V336.832C183.102 336.832 182.382 337.492 182.382 338.956V339.424H181.53V340.324H182.382V346ZM190.61 346H191.738L193.322 340.78L194.906 346H196.034L198.086 339.424H197.006L195.518 344.956L193.922 339.424H192.806L191.174 344.944L189.662 339.424H188.546L190.61 346ZM199.17 346H200.262V342.364C200.262 340.948 201.03 340.252 202.146 340.252C203.25 340.252 203.982 340.936 203.982 342.28V346H205.062V342.124C205.062 340.24 203.898 339.304 202.434 339.304C201.51 339.304 200.694 339.676 200.262 340.372V337.12H199.17V346ZM206.438 342.688C206.438 344.728 207.794 346.108 209.546 346.108C210.758 346.108 211.61 345.484 212.006 344.776V346H213.11V339.424H212.006V340.624C211.622 339.94 210.782 339.316 209.558 339.316C207.794 339.316 206.438 340.636 206.438 342.688ZM212.006 342.7C212.006 344.248 210.974 345.148 209.774 345.148C208.574 345.148 207.554 344.236 207.554 342.688C207.554 341.14 208.574 340.264 209.774 340.264C210.974 340.264 212.006 341.176 212.006 342.7ZM215.195 344.2C215.195 345.52 215.855 346 217.019 346H218.003V345.076H217.199C216.527 345.076 216.287 344.848 216.287 344.2V340.324H218.003V339.424H216.287V337.768H215.195V339.424H214.343V340.324H215.195V344.2ZM228.358 339.424H227.266V343.036C227.266 344.452 226.51 345.148 225.382 345.148C224.278 345.148 223.546 344.464 223.546 343.132V339.424H222.466V343.276C222.466 345.16 223.654 346.096 225.166 346.096C226.042 346.096 226.846 345.712 227.266 345.028V346H228.358V339.424ZM234.929 344.212C234.881 341.86 231.065 342.712 231.065 341.152C231.065 340.624 231.545 340.24 232.349 340.24C233.225 340.24 233.729 340.72 233.777 341.38H234.869C234.797 340.096 233.837 339.316 232.385 339.316C230.921 339.316 229.973 340.144 229.973 341.152C229.973 343.6 233.861 342.748 233.861 344.212C233.861 344.752 233.381 345.184 232.517 345.184C231.593 345.184 231.029 344.704 230.969 344.068H229.841C229.913 345.268 230.993 346.108 232.529 346.108C233.981 346.108 234.929 345.292 234.929 344.212ZM239.267 340.24C240.395 340.24 241.355 340.948 241.343 342.232H237.191C237.311 340.948 238.199 340.24 239.267 340.24ZM242.339 343.972H241.163C240.923 344.68 240.299 345.184 239.315 345.184C238.199 345.184 237.263 344.452 237.179 343.12H242.435C242.459 342.892 242.471 342.7 242.471 342.46C242.471 340.66 241.223 339.316 239.315 339.316C237.395 339.316 236.063 340.624 236.063 342.7C236.063 344.788 237.443 346.108 239.315 346.108C240.947 346.108 242.003 345.172 242.339 343.972ZM245.004 342.424C245.004 340.9 245.796 340.432 246.84 340.432H247.128V339.304C246.084 339.304 245.376 339.76 245.004 340.492V339.424H243.912V346H245.004V342.424ZM253.117 344.212C253.069 341.86 249.253 342.712 249.253 341.152C249.253 340.624 249.733 340.24 250.537 340.24C251.413 340.24 251.917 340.72 251.965 341.38H253.057C252.985 340.096 252.025 339.316 250.573 339.316C249.109 339.316 248.161 340.144 248.161 341.152C248.161 343.6 252.049 342.748 252.049 344.212C252.049 344.752 251.569 345.184 250.705 345.184C249.781 345.184 249.217 344.704 249.157 344.068H248.029C248.101 345.268 249.181 346.108 250.717 346.108C252.169 346.108 253.117 345.292 253.117 344.212ZM267.35 346H268.43V342.124C268.43 340.24 267.266 339.304 265.766 339.304C264.758 339.304 263.822 339.82 263.438 340.768C263.006 339.784 262.106 339.304 261.026 339.304C260.162 339.304 259.382 339.676 258.95 340.372V339.424H257.858V346H258.95V342.376C258.95 340.96 259.706 340.252 260.81 340.252C261.89 340.252 262.61 340.936 262.61 342.28V346H263.69V342.376C263.69 340.96 264.446 340.252 265.55 340.252C266.63 340.252 267.35 340.936 267.35 342.28V346ZM270.221 346H271.313V339.424H270.221V346ZM270.785 338.356C271.181 338.356 271.505 338.032 271.505 337.612C271.505 337.192 271.181 336.868 270.785 336.868C270.365 336.868 270.041 337.192 270.041 337.612C270.041 338.032 270.365 338.356 270.785 338.356ZM272.766 342.688C272.766 344.728 274.122 346.108 275.886 346.108C277.086 346.108 277.938 345.472 278.334 344.764V346.144C278.334 347.548 277.458 348.292 276.294 348.292C275.214 348.292 274.434 347.752 274.194 346.96H273.114C273.33 348.364 274.566 349.24 276.294 349.24C278.226 349.24 279.438 347.956 279.438 346.144V339.424H278.334V340.624C277.95 339.916 277.086 339.316 275.886 339.316C274.122 339.316 272.766 340.636 272.766 342.688ZM278.334 342.7C278.334 344.248 277.302 345.148 276.102 345.148C274.902 345.148 273.882 344.236 273.882 342.688C273.882 341.14 274.902 340.264 276.102 340.264C277.302 340.264 278.334 341.176 278.334 342.7ZM281.283 346H282.375V342.364C282.375 340.948 283.143 340.252 284.259 340.252C285.363 340.252 286.095 340.936 286.095 342.28V346H287.175V342.124C287.175 340.24 286.011 339.304 284.547 339.304C283.623 339.304 282.807 339.676 282.375 340.372V337.12H281.283V346ZM289.199 344.2C289.199 345.52 289.859 346 291.023 346H292.007V345.076H291.203C290.531 345.076 290.291 344.848 290.291 344.2V340.324H292.007V339.424H290.291V337.768H289.199V339.424H288.347V340.324H289.199V344.2ZM5.736 364H6.816V360.124C6.816 358.24 5.652 357.304 4.128 357.304C3.24 357.304 2.448 357.676 2.016 358.36V357.424H0.924V364H2.016V360.364C2.016 358.948 2.784 358.252 3.9 358.252C5.004 358.252 5.736 358.936 5.736 360.28V364ZM11.3958 358.24C12.5238 358.24 13.4838 358.948 13.4718 360.232H9.31978C9.43978 358.948 10.3278 358.24 11.3958 358.24ZM14.4678 361.972H13.2918C13.0518 362.68 12.4278 363.184 11.4438 363.184C10.3278 363.184 9.39178 362.452 9.30778 361.12H14.5638C14.5878 360.892 14.5998 360.7 14.5998 360.46C14.5998 358.66 13.3518 357.316 11.4438 357.316C9.52378 357.316 8.19178 358.624 8.19178 360.7C8.19178 362.788 9.57178 364.108 11.4438 364.108C13.0758 364.108 14.1318 363.172 14.4678 361.972ZM18.8372 358.24C19.9652 358.24 20.9252 358.948 20.9132 360.232H16.7612C16.8812 358.948 17.7692 358.24 18.8372 358.24ZM21.9092 361.972H20.7332C20.4932 362.68 19.8692 363.184 18.8852 363.184C17.7692 363.184 16.8332 362.452 16.7492 361.12H22.0052C22.0292 360.892 22.0412 360.7 22.0412 360.46C22.0412 358.66 20.7932 357.316 18.8852 357.316C16.9652 357.316 15.6332 358.624 15.6332 360.7C15.6332 362.788 17.0132 364.108 18.8852 364.108C20.5172 364.108 21.5732 363.172 21.9092 361.972ZM23.0746 360.688C23.0746 362.728 24.4306 364.108 26.1946 364.108C27.3946 364.108 28.2466 363.496 28.6426 362.764V364H29.7466V355.12H28.6426V358.6C28.1866 357.844 27.2386 357.316 26.2066 357.316C24.4306 357.316 23.0746 358.636 23.0746 360.688ZM28.6426 360.7C28.6426 362.248 27.6106 363.148 26.4106 363.148C25.2106 363.148 24.1906 362.236 24.1906 360.688C24.1906 359.14 25.2106 358.264 26.4106 358.264C27.6106 358.264 28.6426 359.176 28.6426 360.7ZM35.0312 362.2C35.0312 363.52 35.6912 364 36.8552 364H37.8392V363.076H37.0352C36.3632 363.076 36.1232 362.848 36.1232 362.2V358.324H37.8392V357.424H36.1232V355.768H35.0312V357.424H34.1792V358.324H35.0312V362.2ZM45.4023 360.7C45.4023 358.624 43.9503 357.316 42.0783 357.316C40.2183 357.316 38.7543 358.624 38.7543 360.7C38.7543 362.788 40.1703 364.108 42.0303 364.108C43.9023 364.108 45.4023 362.788 45.4023 360.7ZM39.8703 360.7C39.8703 359.044 40.9143 358.264 42.0663 358.264C43.1943 358.264 44.2863 359.044 44.2863 360.7C44.2863 362.368 43.1703 363.148 42.0303 363.148C40.8903 363.148 39.8703 362.368 39.8703 360.7ZM49.6293 360.688C49.6293 362.728 50.9853 364.108 52.7493 364.108C53.9493 364.108 54.8013 363.496 55.1973 362.764V364H56.3013V355.12H55.1973V358.6C54.7413 357.844 53.7933 357.316 52.7613 357.316C50.9853 357.316 49.6293 358.636 49.6293 360.688ZM55.1973 360.7C55.1973 362.248 54.1653 363.148 52.9653 363.148C51.7653 363.148 50.7453 362.236 50.7453 360.688C50.7453 359.14 51.7653 358.264 52.9653 358.264C54.1653 358.264 55.1973 359.176 55.1973 360.7ZM64.3867 360.7C64.3867 358.624 62.9347 357.316 61.0627 357.316C59.2027 357.316 57.7387 358.624 57.7387 360.7C57.7387 362.788 59.1547 364.108 61.0147 364.108C62.8867 364.108 64.3867 362.788 64.3867 360.7ZM58.8547 360.7C58.8547 359.044 59.8987 358.264 61.0507 358.264C62.1787 358.264 63.2707 359.044 63.2707 360.7C63.2707 362.368 62.1547 363.148 61.0147 363.148C59.8747 363.148 58.8547 362.368 58.8547 360.7ZM68.6137 360.688C68.6137 362.728 69.9697 364.108 71.7217 364.108C72.9337 364.108 73.7857 363.484 74.1817 362.776V364H75.2857V357.424H74.1817V358.624C73.7977 357.94 72.9577 357.316 71.7337 357.316C69.9697 357.316 68.6137 358.636 68.6137 360.688ZM74.1817 360.7C74.1817 362.248 73.1497 363.148 71.9497 363.148C70.7497 363.148 69.7297 362.236 69.7297 360.688C69.7297 359.14 70.7497 358.264 71.9497 358.264C73.1497 358.264 74.1817 359.176 74.1817 360.7ZM81.943 364H83.023V360.124C83.023 358.24 81.859 357.304 80.335 357.304C79.447 357.304 78.655 357.676 78.223 358.36V357.424H77.131V364H78.223V360.364C78.223 358.948 78.991 358.252 80.107 358.252C81.211 358.252 81.943 358.936 81.943 360.28V364ZM84.3988 360.688C84.3988 362.728 85.7548 364.108 87.5188 364.108C88.7188 364.108 89.5708 363.496 89.9668 362.764V364H91.0708V355.12H89.9668V358.6C89.5108 357.844 88.5628 357.316 87.5308 357.316C85.7548 357.316 84.3988 358.636 84.3988 360.688ZM89.9668 360.7C89.9668 362.248 88.9348 363.148 87.7348 363.148C86.5348 363.148 85.5148 362.236 85.5148 360.688C85.5148 359.14 86.5348 358.264 87.7348 358.264C88.9348 358.264 89.9668 359.176 89.9668 360.7ZM98.9114 358.24C100.039 358.24 100.999 358.948 100.987 360.232H96.8354C96.9554 358.948 97.8434 358.24 98.9114 358.24ZM101.983 361.972H100.807C100.567 362.68 99.9434 363.184 98.9594 363.184C97.8434 363.184 96.9074 362.452 96.8234 361.12H102.079C102.103 360.892 102.115 360.7 102.115 360.46C102.115 358.66 100.867 357.316 98.9594 357.316C97.0394 357.316 95.7074 358.624 95.7074 360.7C95.7074 362.788 97.0874 364.108 98.9594 364.108C100.591 364.108 101.647 363.172 101.983 361.972ZM108.369 364H109.449V360.124C109.449 358.24 108.285 357.304 106.761 357.304C105.873 357.304 105.081 357.676 104.649 358.36V357.424H103.557V364H104.649V360.364C104.649 358.948 105.417 358.252 106.533 358.252C107.637 358.252 108.369 358.936 108.369 360.28V364ZM115.961 362.212C115.913 359.86 112.097 360.712 112.097 359.152C112.097 358.624 112.577 358.24 113.381 358.24C114.257 358.24 114.761 358.72 114.809 359.38H115.901C115.829 358.096 114.869 357.316 113.417 357.316C111.953 357.316 111.005 358.144 111.005 359.152C111.005 361.6 114.893 360.748 114.893 362.212C114.893 362.752 114.413 363.184 113.549 363.184C112.625 363.184 112.061 362.704 112.001 362.068H110.873C110.945 363.268 112.025 364.108 113.561 364.108C115.013 364.108 115.961 363.292 115.961 362.212ZM123.334 357.424H122.242V361.036C122.242 362.452 121.486 363.148 120.358 363.148C119.254 363.148 118.522 362.464 118.522 361.132V357.424H117.442V361.276C117.442 363.16 118.63 364.096 120.142 364.096C121.018 364.096 121.822 363.712 122.242 363.028V364H123.334V357.424ZM126.27 360.424C126.27 358.9 127.062 358.432 128.106 358.432H128.394V357.304C127.35 357.304 126.642 357.76 126.27 358.492V357.424H125.178V364H126.27V360.424ZM129.654 364H130.746V357.424H129.654V364ZM130.218 356.356C130.614 356.356 130.938 356.032 130.938 355.612C130.938 355.192 130.614 354.868 130.218 354.868C129.798 354.868 129.474 355.192 129.474 355.612C129.474 356.032 129.798 356.356 130.218 356.356ZM137.42 364H138.5V360.124C138.5 358.24 137.336 357.304 135.812 357.304C134.924 357.304 134.132 357.676 133.7 358.36V357.424H132.608V364H133.7V360.364C133.7 358.948 134.468 358.252 135.584 358.252C136.688 358.252 137.42 358.936 137.42 360.28V364ZM139.875 360.688C139.875 362.728 141.231 364.108 142.995 364.108C144.195 364.108 145.047 363.472 145.443 362.764V364.144C145.443 365.548 144.567 366.292 143.403 366.292C142.323 366.292 141.543 365.752 141.303 364.96H140.223C140.439 366.364 141.675 367.24 143.403 367.24C145.335 367.24 146.547 365.956 146.547 364.144V357.424H145.443V358.624C145.059 357.916 144.195 357.316 142.995 357.316C141.231 357.316 139.875 358.636 139.875 360.688ZM145.443 360.7C145.443 362.248 144.411 363.148 143.211 363.148C142.011 363.148 140.991 362.236 140.991 360.688C140.991 359.14 142.011 358.264 143.211 358.264C144.411 358.264 145.443 359.176 145.443 360.7ZM151.832 362.2C151.832 363.52 152.492 364 153.656 364H154.64V363.076H153.836C153.164 363.076 152.924 362.848 152.924 362.2V358.324H154.64V357.424H152.924V355.768H151.832V357.424H150.98V358.324H151.832V362.2ZM155.963 364H157.055V360.364C157.055 358.948 157.823 358.252 158.939 358.252C160.043 358.252 160.775 358.936 160.775 360.28V364H161.855V360.124C161.855 358.24 160.691 357.304 159.227 357.304C158.303 357.304 157.487 357.676 157.055 358.372V355.12H155.963V364ZM163.231 360.688C163.231 362.728 164.587 364.108 166.339 364.108C167.551 364.108 168.403 363.484 168.799 362.776V364H169.903V357.424H168.799V358.624C168.415 357.94 167.575 357.316 166.351 357.316C164.587 357.316 163.231 358.636 163.231 360.688ZM168.799 360.7C168.799 362.248 167.767 363.148 166.567 363.148C165.367 363.148 164.347 362.236 164.347 360.688C164.347 359.14 165.367 358.264 166.567 358.264C167.767 358.264 168.799 359.176 168.799 360.7ZM171.988 362.2C171.988 363.52 172.648 364 173.812 364H174.796V363.076H173.992C173.32 363.076 173.08 362.848 173.08 362.2V358.324H174.796V357.424H173.08V355.768H171.988V357.424H171.136V358.324H171.988V362.2ZM179.559 362.2C179.559 363.52 180.219 364 181.383 364H182.367V363.076H181.563C180.891 363.076 180.651 362.848 180.651 362.2V358.324H182.367V357.424H180.651V355.768H179.559V357.424H178.707V358.324H179.559V362.2ZM183.69 364H184.782V360.364C184.782 358.948 185.55 358.252 186.666 358.252C187.77 358.252 188.502 358.936 188.502 360.28V364H189.582V360.124C189.582 358.24 188.418 357.304 186.954 357.304C186.03 357.304 185.214 357.676 184.782 358.372V355.12H183.69V364ZM194.161 358.24C195.289 358.24 196.249 358.948 196.237 360.232H192.085C192.205 358.948 193.093 358.24 194.161 358.24ZM197.233 361.972H196.057C195.817 362.68 195.193 363.184 194.209 363.184C193.093 363.184 192.157 362.452 192.073 361.12H197.329C197.353 360.892 197.365 360.7 197.365 360.46C197.365 358.66 196.117 357.316 194.209 357.316C192.289 357.316 190.957 358.624 190.957 360.7C190.957 362.788 192.337 364.108 194.209 364.108C195.841 364.108 196.897 363.172 197.233 361.972ZM202.006 364H203.098V357.424H202.006V364ZM202.57 356.356C202.966 356.356 203.29 356.032 203.29 355.612C203.29 355.192 202.966 354.868 202.57 354.868C202.15 354.868 201.826 355.192 201.826 355.612C201.826 356.032 202.15 356.356 202.57 356.356ZM209.771 364H210.851V360.124C210.851 358.24 209.687 357.304 208.163 357.304C207.275 357.304 206.483 357.676 206.051 358.36V357.424H204.959V364H206.051V360.364C206.051 358.948 206.819 358.252 207.935 358.252C209.039 358.252 209.771 358.936 209.771 360.28V364ZM212.875 362.2C212.875 363.52 213.535 364 214.699 364H215.683V363.076H214.879C214.207 363.076 213.967 362.848 213.967 362.2V358.324H215.683V357.424H213.967V355.768H212.875V357.424H212.023V358.324H212.875V362.2ZM219.802 358.24C220.93 358.24 221.89 358.948 221.878 360.232H217.726C217.846 358.948 218.734 358.24 219.802 358.24ZM222.874 361.972H221.698C221.458 362.68 220.834 363.184 219.85 363.184C218.734 363.184 217.798 362.452 217.714 361.12H222.97C222.994 360.892 223.006 360.7 223.006 360.46C223.006 358.66 221.758 357.316 219.85 357.316C217.93 357.316 216.598 358.624 216.598 360.7C216.598 362.788 217.978 364.108 219.85 364.108C221.482 364.108 222.538 363.172 222.874 361.972ZM225.539 360.424C225.539 358.9 226.331 358.432 227.375 358.432H227.663V357.304C226.619 357.304 225.911 357.76 225.539 358.492V357.424H224.447V364H225.539V360.424ZM229.128 364H230.22V358.324H231.6V357.424H230.22V356.956C230.22 356.104 230.544 355.744 231.528 355.744V354.832C229.848 354.832 229.128 355.492 229.128 356.956V357.424H228.276V358.324H229.128V364ZM232.465 360.688C232.465 362.728 233.821 364.108 235.573 364.108C236.785 364.108 237.637 363.484 238.033 362.776V364H239.137V357.424H238.033V358.624C237.649 357.94 236.809 357.316 235.585 357.316C233.821 357.316 232.465 358.636 232.465 360.688ZM238.033 360.7C238.033 362.248 237.001 363.148 235.801 363.148C234.601 363.148 233.581 362.236 233.581 360.688C233.581 359.14 234.601 358.264 235.801 358.264C237.001 358.264 238.033 359.176 238.033 360.7ZM240.575 360.7C240.575 362.788 241.907 364.108 243.779 364.108C245.411 364.108 246.479 363.196 246.815 361.888H245.639C245.399 362.716 244.751 363.184 243.779 363.184C242.579 363.184 241.691 362.332 241.691 360.7C241.691 359.092 242.579 358.24 243.779 358.24C244.751 358.24 245.411 358.744 245.639 359.536H246.815C246.479 358.156 245.411 357.316 243.779 357.316C241.907 357.316 240.575 358.636 240.575 360.7ZM251.068 358.24C252.196 358.24 253.156 358.948 253.144 360.232H248.992C249.112 358.948 250 358.24 251.068 358.24ZM254.14 361.972H252.964C252.724 362.68 252.1 363.184 251.116 363.184C250 363.184 249.064 362.452 248.98 361.12H254.236C254.26 360.892 254.272 360.7 254.272 360.46C254.272 358.66 253.024 357.316 251.116 357.316C249.196 357.316 247.864 358.624 247.864 360.7C247.864 362.788 249.244 364.108 251.116 364.108C252.748 364.108 253.804 363.172 254.14 361.972ZM258.912 364H260.004V360.364C260.004 358.948 260.772 358.252 261.888 358.252C262.992 358.252 263.724 358.936 263.724 360.28V364H264.804V360.124C264.804 358.24 263.64 357.304 262.176 357.304C261.252 357.304 260.436 357.676 260.004 358.372V355.12H258.912V364ZM266.18 360.688C266.18 362.728 267.536 364.108 269.288 364.108C270.5 364.108 271.352 363.484 271.748 362.776V364H272.852V357.424H271.748V358.624C271.364 357.94 270.524 357.316 269.3 357.316C267.536 357.316 266.18 358.636 266.18 360.688ZM271.748 360.7C271.748 362.248 270.716 363.148 269.516 363.148C268.316 363.148 267.296 362.236 267.296 360.688C267.296 359.14 268.316 358.264 269.516 358.264C270.716 358.264 271.748 359.176 271.748 360.7ZM279.425 362.212C279.377 359.86 275.561 360.712 275.561 359.152C275.561 358.624 276.041 358.24 276.845 358.24C277.721 358.24 278.225 358.72 278.273 359.38H279.365C279.293 358.096 278.333 357.316 276.881 357.316C275.417 357.316 274.469 358.144 274.469 359.152C274.469 361.6 278.357 360.748 278.357 362.212C278.357 362.752 277.877 363.184 277.013 363.184C276.089 363.184 275.525 362.704 275.465 362.068H274.337C274.409 363.268 275.489 364.108 277.025 364.108C278.477 364.108 279.425 363.292 279.425 362.212ZM3.72 376.24C4.848 376.24 5.808 376.948 5.796 378.232H1.644C1.764 376.948 2.652 376.24 3.72 376.24ZM6.792 379.972H5.616C5.376 380.68 4.752 381.184 3.768 381.184C2.652 381.184 1.716 380.452 1.632 379.12H6.888C6.912 378.892 6.924 378.7 6.924 378.46C6.924 376.66 5.676 375.316 3.768 375.316C1.848 375.316 0.516 376.624 0.516 378.7C0.516 380.788 1.896 382.108 3.768 382.108C5.4 382.108 6.456 381.172 6.792 379.972ZM8.36541 382H9.45741V373.12H8.36541V382ZM14.1145 376.24C15.2425 376.24 16.2025 376.948 16.1905 378.232H12.0385C12.1585 376.948 13.0465 376.24 14.1145 376.24ZM17.1865 379.972H16.0105C15.7705 380.68 15.1465 381.184 14.1625 381.184C13.0465 381.184 12.1105 380.452 12.0265 379.12H17.2825C17.3065 378.892 17.3185 378.7 17.3185 378.46C17.3185 376.66 16.0705 375.316 14.1625 375.316C12.2425 375.316 10.9105 376.624 10.9105 378.7C10.9105 380.788 12.2905 382.108 14.1625 382.108C15.7945 382.108 16.8505 381.172 17.1865 379.972ZM28.2519 382H29.3319V378.124C29.3319 376.24 28.1679 375.304 26.6679 375.304C25.6599 375.304 24.7239 375.82 24.3399 376.768C23.9079 375.784 23.0079 375.304 21.9279 375.304C21.0639 375.304 20.2839 375.676 19.8519 376.372V375.424H18.7599V382H19.8519V378.376C19.8519 376.96 20.6079 376.252 21.7119 376.252C22.7919 376.252 23.5119 376.936 23.5119 378.28V382H24.5919V378.376C24.5919 376.96 25.3479 376.252 26.4519 376.252C27.5319 376.252 28.2519 376.936 28.2519 378.28V382ZM33.9192 376.24C35.0472 376.24 36.0072 376.948 35.9952 378.232H31.8432C31.9632 376.948 32.8512 376.24 33.9192 376.24ZM36.9912 379.972H35.8152C35.5752 380.68 34.9512 381.184 33.9672 381.184C32.8512 381.184 31.9152 380.452 31.8312 379.12H37.0872C37.1112 378.892 37.1232 378.7 37.1232 378.46C37.1232 376.66 35.8752 375.316 33.9672 375.316C32.0472 375.316 30.7152 376.624 30.7152 378.7C30.7152 380.788 32.0952 382.108 33.9672 382.108C35.5992 382.108 36.6552 381.172 36.9912 379.972ZM43.3766 382H44.4566V378.124C44.4566 376.24 43.2926 375.304 41.7686 375.304C40.8806 375.304 40.0886 375.676 39.6566 376.36V375.424H38.5646V382H39.6566V378.364C39.6566 376.948 40.4246 376.252 41.5406 376.252C42.6446 376.252 43.3766 376.936 43.3766 378.28V382ZM46.4804 380.2C46.4804 381.52 47.1404 382 48.3044 382H49.2884V381.076H48.4844C47.8124 381.076 47.5724 380.848 47.5724 380.2V376.324H49.2884V375.424H47.5724V373.768H46.4804V375.424H45.6284V376.324H46.4804V380.2ZM55.3395 380.212C55.2915 377.86 51.4755 378.712 51.4755 377.152C51.4755 376.624 51.9555 376.24 52.7595 376.24C53.6355 376.24 54.1395 376.72 54.1875 377.38H55.2795C55.2075 376.096 54.2475 375.316 52.7955 375.316C51.3315 375.316 50.3835 376.144 50.3835 377.152C50.3835 379.6 54.2715 378.748 54.2715 380.212C54.2715 380.752 53.7915 381.184 52.9275 381.184C52.0035 381.184 51.4395 380.704 51.3795 380.068H50.2515C50.3235 381.268 51.4035 382.108 52.9395 382.108C54.3915 382.108 55.3395 381.292 55.3395 380.212ZM60.3203 380.2C60.3203 381.52 60.9803 382 62.1443 382H63.1283V381.076H62.3242C61.6523 381.076 61.4123 380.848 61.4123 380.2V376.324H63.1283V375.424H61.4123V373.768H60.3203V375.424H59.4683V376.324H60.3203V380.2ZM64.4513 382H65.5433V378.364C65.5433 376.948 66.3113 376.252 67.4273 376.252C68.5313 376.252 69.2633 376.936 69.2633 378.28V382H70.3433V378.124C70.3433 376.24 69.1793 375.304 67.7153 375.304C66.7913 375.304 65.9753 375.676 65.5433 376.372V373.12H64.4513V382ZM71.7191 378.688C71.7191 380.728 73.0751 382.108 74.8271 382.108C76.0391 382.108 76.8911 381.484 77.2871 380.776V382H78.3911V375.424H77.2871V376.624C76.9031 375.94 76.0631 375.316 74.8391 375.316C73.0751 375.316 71.7191 376.636 71.7191 378.688ZM77.2871 378.7C77.2871 380.248 76.2551 381.148 75.0551 381.148C73.8551 381.148 72.8351 380.236 72.8351 378.688C72.8351 377.14 73.8551 376.264 75.0551 376.264C76.2551 376.264 77.2871 377.176 77.2871 378.7ZM80.4765 380.2C80.4765 381.52 81.1365 382 82.3005 382H83.2845V381.076H82.4805C81.8085 381.076 81.5685 380.848 81.5685 380.2V376.324H83.2845V375.424H81.5685V373.768H80.4765V375.424H79.6245V376.324H80.4765V380.2ZM87.3988 378.688C87.3988 380.728 88.7548 382.108 90.5068 382.108C91.7188 382.108 92.5708 381.484 92.9668 380.776V382H94.0708V375.424H92.9668V376.624C92.5828 375.94 91.7428 375.316 90.5188 375.316C88.7548 375.316 87.3988 376.636 87.3988 378.688ZM92.9668 378.7C92.9668 380.248 91.9348 381.148 90.7348 381.148C89.5348 381.148 88.5148 380.236 88.5148 378.688C88.5148 377.14 89.5348 376.264 90.7348 376.264C91.9348 376.264 92.9668 377.176 92.9668 378.7ZM97.0082 378.424C97.0082 376.9 97.8002 376.432 98.8442 376.432H99.1322V375.304C98.0882 375.304 97.3802 375.76 97.0082 376.492V375.424H95.9162V382H97.0082V378.424ZM103.189 376.24C104.317 376.24 105.277 376.948 105.265 378.232H101.113C101.233 376.948 102.121 376.24 103.189 376.24ZM106.261 379.972H105.085C104.845 380.68 104.221 381.184 103.237 381.184C102.121 381.184 101.185 380.452 101.101 379.12H106.357C106.381 378.892 106.393 378.7 106.393 378.46C106.393 376.66 105.145 375.316 103.237 375.316C101.317 375.316 99.9848 376.624 99.9848 378.7C99.9848 380.788 101.365 382.108 103.237 382.108C104.869 382.108 105.925 381.172 106.261 379.972ZM113.829 376.24C114.957 376.24 115.917 376.948 115.905 378.232H111.753C111.873 376.948 112.761 376.24 113.829 376.24ZM116.901 379.972H115.725C115.485 380.68 114.861 381.184 113.877 381.184C112.761 381.184 111.825 380.452 111.741 379.12H116.997C117.021 378.892 117.033 378.7 117.033 378.46C117.033 376.66 115.785 375.316 113.877 375.316C111.957 375.316 110.625 376.624 110.625 378.7C110.625 380.788 112.005 382.108 113.877 382.108C115.509 382.108 116.565 381.172 116.901 379.972ZM118.067 378.688C118.067 380.728 119.423 382.108 121.175 382.108C122.387 382.108 123.239 381.484 123.635 380.776V382H124.739V375.424H123.635V376.624C123.251 375.94 122.411 375.316 121.187 375.316C119.423 375.316 118.067 376.636 118.067 378.688ZM123.635 378.7C123.635 380.248 122.603 381.148 121.403 381.148C120.203 381.148 119.183 380.236 119.183 378.688C119.183 377.14 120.203 376.264 121.403 376.264C122.603 376.264 123.635 377.176 123.635 378.7ZM131.312 380.212C131.264 377.86 127.448 378.712 127.448 377.152C127.448 376.624 127.928 376.24 128.732 376.24C129.608 376.24 130.112 376.72 130.16 377.38H131.252C131.18 376.096 130.22 375.316 128.768 375.316C127.304 375.316 126.356 376.144 126.356 377.152C126.356 379.6 130.244 378.748 130.244 380.212C130.244 380.752 129.764 381.184 128.9 381.184C127.976 381.184 127.412 380.704 127.352 380.068H126.224C126.296 381.268 127.376 382.108 128.912 382.108C130.364 382.108 131.312 381.292 131.312 380.212ZM135.35 380.752L133.286 375.424H132.074L134.726 381.928L133.43 385.096H134.558L138.518 375.424H137.39L135.35 380.752ZM143.055 380.2C143.055 381.52 143.715 382 144.879 382H145.863V381.076H145.059C144.387 381.076 144.147 380.848 144.147 380.2V376.324H145.863V375.424H144.147V373.768H143.055V375.424H142.203V376.324H143.055V380.2ZM153.426 378.7C153.426 376.624 151.974 375.316 150.102 375.316C148.242 375.316 146.778 376.624 146.778 378.7C146.778 380.788 148.194 382.108 150.054 382.108C151.926 382.108 153.426 380.788 153.426 378.7ZM147.894 378.7C147.894 377.044 148.938 376.264 150.09 376.264C151.218 376.264 152.31 377.044 152.31 378.7C152.31 380.368 151.194 381.148 150.054 381.148C148.914 381.148 147.894 380.368 147.894 378.7ZM157.653 378.688C157.653 380.728 159.009 382.108 160.761 382.108C161.973 382.108 162.825 381.484 163.221 380.776V382H164.325V375.424H163.221V376.624C162.837 375.94 161.997 375.316 160.773 375.316C159.009 375.316 157.653 376.636 157.653 378.688ZM163.221 378.7C163.221 380.248 162.189 381.148 160.989 381.148C159.789 381.148 158.769 380.236 158.769 378.688C158.769 377.14 159.789 376.264 160.989 376.264C162.189 376.264 163.221 377.176 163.221 378.7ZM165.762 378.7C165.762 380.788 167.094 382.108 168.966 382.108C170.598 382.108 171.666 381.196 172.002 379.888H170.826C170.586 380.716 169.938 381.184 168.966 381.184C167.766 381.184 166.878 380.332 166.878 378.7C166.878 377.092 167.766 376.24 168.966 376.24C169.938 376.24 170.598 376.744 170.826 377.536H172.002C171.666 376.156 170.598 375.316 168.966 375.316C167.094 375.316 165.762 376.636 165.762 378.7ZM173.051 378.7C173.051 380.788 174.383 382.108 176.255 382.108C177.887 382.108 178.955 381.196 179.291 379.888H178.115C177.875 380.716 177.227 381.184 176.255 381.184C175.055 381.184 174.167 380.332 174.167 378.7C174.167 377.092 175.055 376.24 176.255 376.24C177.227 376.24 177.887 376.744 178.115 377.536H179.291C178.955 376.156 177.887 375.316 176.255 375.316C174.383 375.316 173.051 376.636 173.051 378.7ZM183.544 376.24C184.672 376.24 185.632 376.948 185.62 378.232H181.468C181.588 376.948 182.476 376.24 183.544 376.24ZM186.616 379.972H185.44C185.2 380.68 184.576 381.184 183.592 381.184C182.476 381.184 181.54 380.452 181.456 379.12H186.712C186.736 378.892 186.748 378.7 186.748 378.46C186.748 376.66 185.5 375.316 183.592 375.316C181.672 375.316 180.34 376.624 180.34 378.7C180.34 380.788 181.72 382.108 183.592 382.108C185.224 382.108 186.28 381.172 186.616 379.972ZM192.918 380.212C192.87 377.86 189.054 378.712 189.054 377.152C189.054 376.624 189.534 376.24 190.338 376.24C191.214 376.24 191.718 376.72 191.766 377.38H192.858C192.786 376.096 191.826 375.316 190.374 375.316C188.91 375.316 187.962 376.144 187.962 377.152C187.962 379.6 191.85 378.748 191.85 380.212C191.85 380.752 191.37 381.184 190.506 381.184C189.582 381.184 189.018 380.704 188.958 380.068H187.83C187.902 381.268 188.982 382.108 190.518 382.108C191.97 382.108 192.918 381.292 192.918 380.212ZM199.187 380.212C199.139 377.86 195.323 378.712 195.323 377.152C195.323 376.624 195.803 376.24 196.607 376.24C197.483 376.24 197.987 376.72 198.035 377.38H199.127C199.055 376.096 198.095 375.316 196.643 375.316C195.179 375.316 194.231 376.144 194.231 377.152C194.231 379.6 198.119 378.748 198.119 380.212C198.119 380.752 197.639 381.184 196.775 381.184C195.851 381.184 195.287 380.704 195.227 380.068H194.099C194.171 381.268 195.251 382.108 196.787 382.108C198.239 382.108 199.187 381.292 199.187 380.212ZM199.781 383.716H200.513L201.857 380.488H200.657L199.781 383.716ZM212.139 375.424H211.047V379.036C211.047 380.452 210.291 381.148 209.163 381.148C208.059 381.148 207.327 380.464 207.327 379.132V375.424H206.247V379.276C206.247 381.16 207.435 382.096 208.947 382.096C209.823 382.096 210.627 381.712 211.047 381.028V382H212.139V375.424ZM218.795 382H219.875V378.124C219.875 376.24 218.711 375.304 217.187 375.304C216.299 375.304 215.507 375.676 215.075 376.36V375.424H213.983V382H215.075V378.364C215.075 376.948 215.843 376.252 216.959 376.252C218.063 376.252 218.795 376.936 218.795 378.28V382ZM221.25 378.688C221.25 380.728 222.606 382.108 224.37 382.108C225.57 382.108 226.422 381.496 226.818 380.764V382H227.922V373.12H226.818V376.6C226.362 375.844 225.414 375.316 224.382 375.316C222.606 375.316 221.25 376.636 221.25 378.688ZM226.818 378.7C226.818 380.248 225.786 381.148 224.586 381.148C223.386 381.148 222.366 380.236 222.366 378.688C222.366 377.14 223.386 376.264 224.586 376.264C225.786 376.264 226.818 377.176 226.818 378.7ZM232.564 376.24C233.692 376.24 234.652 376.948 234.64 378.232H230.488C230.608 376.948 231.496 376.24 232.564 376.24ZM235.636 379.972H234.46C234.22 380.68 233.596 381.184 232.612 381.184C231.496 381.184 230.56 380.452 230.476 379.12H235.732C235.756 378.892 235.768 378.7 235.768 378.46C235.768 376.66 234.52 375.316 232.612 375.316C230.692 375.316 229.36 376.624 229.36 378.7C229.36 380.788 230.74 382.108 232.612 382.108C234.244 382.108 235.3 381.172 235.636 379.972ZM238.301 378.424C238.301 376.9 239.093 376.432 240.137 376.432H240.425V375.304C239.381 375.304 238.673 375.76 238.301 376.492V375.424H237.209V382H238.301V378.424ZM246.414 380.212C246.366 377.86 242.55 378.712 242.55 377.152C242.55 376.624 243.03 376.24 243.834 376.24C244.71 376.24 245.214 376.72 245.262 377.38H246.354C246.282 376.096 245.322 375.316 243.87 375.316C242.406 375.316 241.458 376.144 241.458 377.152C241.458 379.6 245.346 378.748 245.346 380.212C245.346 380.752 244.866 381.184 244.002 381.184C243.078 381.184 242.514 380.704 242.454 380.068H241.326C241.398 381.268 242.478 382.108 244.014 382.108C245.466 382.108 246.414 381.292 246.414 380.212ZM248.195 380.2C248.195 381.52 248.855 382 250.019 382H251.003V381.076H250.199C249.527 381.076 249.287 380.848 249.287 380.2V376.324H251.003V375.424H249.287V373.768H248.195V375.424H247.343V376.324H248.195V380.2ZM251.918 378.688C251.918 380.728 253.274 382.108 255.026 382.108C256.238 382.108 257.09 381.484 257.486 380.776V382H258.59V375.424H257.486V376.624C257.102 375.94 256.262 375.316 255.038 375.316C253.274 375.316 251.918 376.636 251.918 378.688ZM257.486 378.7C257.486 380.248 256.454 381.148 255.254 381.148C254.054 381.148 253.034 380.236 253.034 378.688C253.034 377.14 254.054 376.264 255.254 376.264C256.454 376.264 257.486 377.176 257.486 378.7ZM265.248 382H266.328V378.124C266.328 376.24 265.164 375.304 263.64 375.304C262.752 375.304 261.96 375.676 261.528 376.36V375.424H260.436V382H261.528V378.364C261.528 376.948 262.296 376.252 263.412 376.252C264.516 376.252 265.248 376.936 265.248 378.28V382ZM267.704 378.688C267.704 380.728 269.06 382.108 270.824 382.108C272.024 382.108 272.876 381.496 273.272 380.764V382H274.376V373.12H273.272V376.6C272.816 375.844 271.868 375.316 270.836 375.316C269.06 375.316 267.704 376.636 267.704 378.688ZM273.272 378.7C273.272 380.248 272.24 381.148 271.04 381.148C269.84 381.148 268.82 380.236 268.82 378.688C268.82 377.14 269.84 376.264 271.04 376.264C272.24 376.264 273.272 377.176 273.272 378.7ZM279.012 378.688C279.012 380.728 280.368 382.108 282.12 382.108C283.332 382.108 284.184 381.484 284.58 380.776V382H285.684V375.424H284.58V376.624C284.196 375.94 283.356 375.316 282.132 375.316C280.368 375.316 279.012 376.636 279.012 378.688ZM284.58 378.7C284.58 380.248 283.548 381.148 282.348 381.148C281.148 381.148 280.128 380.236 280.128 378.688C280.128 377.14 281.148 376.264 282.348 376.264C283.548 376.264 284.58 377.176 284.58 378.7ZM292.341 382H293.421V378.124C293.421 376.24 292.257 375.304 290.733 375.304C289.845 375.304 289.053 375.676 288.621 376.36V375.424H287.529V382H288.621V378.364C288.621 376.948 289.389 376.252 290.505 376.252C291.609 376.252 292.341 376.936 292.341 378.28V382ZM294.797 378.688C294.797 380.728 296.153 382.108 297.917 382.108C299.117 382.108 299.969 381.496 300.365 380.764V382H301.469V373.12H300.365V376.6C299.909 375.844 298.961 375.316 297.929 375.316C296.153 375.316 294.797 376.636 294.797 378.688ZM300.365 378.7C300.365 380.248 299.333 381.148 298.133 381.148C296.933 381.148 295.913 380.236 295.913 378.688C295.913 377.14 296.933 376.264 298.133 376.264C299.333 376.264 300.365 377.176 300.365 378.7ZM6.756 393.424H5.664V397.036C5.664 398.452 4.908 399.148 3.78 399.148C2.676 399.148 1.944 398.464 1.944 397.132V393.424H0.864V397.276C0.864 399.16 2.052 400.096 3.564 400.096C4.44 400.096 5.244 399.712 5.664 399.028V400H6.756V393.424ZM13.3278 398.212C13.2798 395.86 9.46378 396.712 9.46378 395.152C9.46378 394.624 9.94378 394.24 10.7478 394.24C11.6238 394.24 12.1278 394.72 12.1758 395.38H13.2678C13.1958 394.096 12.2358 393.316 10.7838 393.316C9.31978 393.316 8.37178 394.144 8.37178 395.152C8.37178 397.6 12.2598 396.748 12.2598 398.212C12.2598 398.752 11.7798 399.184 10.9158 399.184C9.99178 399.184 9.42778 398.704 9.36778 398.068H8.23978C8.31178 399.268 9.39178 400.108 10.9278 400.108C12.3798 400.108 13.3278 399.292 13.3278 398.212ZM17.6653 394.24C18.7933 394.24 19.7533 394.948 19.7413 396.232H15.5893C15.7093 394.948 16.5973 394.24 17.6653 394.24ZM20.7373 397.972H19.5613C19.3213 398.68 18.6973 399.184 17.7133 399.184C16.5973 399.184 15.6613 398.452 15.5773 397.12H20.8333C20.8573 396.892 20.8693 396.7 20.8693 396.46C20.8693 394.66 19.6213 393.316 17.7133 393.316C15.7933 393.316 14.4613 394.624 14.4613 396.7C14.4613 398.788 15.8413 400.108 17.7133 400.108C19.3453 400.108 20.4013 399.172 20.7373 397.972ZM25.7499 398.2C25.7499 399.52 26.4099 400 27.5739 400H28.5579V399.076H27.7539C27.0819 399.076 26.8419 398.848 26.8419 398.2V394.324H28.5579V393.424H26.8419V391.768H25.7499V393.424H24.8979V394.324H25.7499V398.2ZM36.121 396.7C36.121 394.624 34.669 393.316 32.797 393.316C30.937 393.316 29.473 394.624 29.473 396.7C29.473 398.788 30.889 400.108 32.749 400.108C34.621 400.108 36.121 398.788 36.121 396.7ZM30.589 396.7C30.589 395.044 31.633 394.264 32.785 394.264C33.913 394.264 35.005 395.044 35.005 396.7C35.005 398.368 33.889 399.148 32.749 399.148C31.609 399.148 30.589 398.368 30.589 396.7ZM40.96 400H42.052V394.324H43.432V393.424H42.052V392.956C42.052 392.104 42.376 391.744 43.36 391.744V390.832C41.68 390.832 40.96 391.492 40.96 392.956V393.424H40.108V394.324H40.96V400ZM44.2973 396.688C44.2973 398.728 45.6533 400.108 47.4053 400.108C48.6173 400.108 49.4693 399.484 49.8653 398.776V400H50.9693V393.424H49.8653V394.624C49.4813 393.94 48.6413 393.316 47.4173 393.316C45.6533 393.316 44.2973 394.636 44.2973 396.688ZM49.8653 396.7C49.8653 398.248 48.8333 399.148 47.6333 399.148C46.4333 399.148 45.4133 398.236 45.4133 396.688C45.4133 395.14 46.4333 394.264 47.6333 394.264C48.8333 394.264 49.8653 395.176 49.8653 396.7ZM52.4066 396.7C52.4066 398.788 53.7386 400.108 55.6106 400.108C57.2426 400.108 58.3106 399.196 58.6466 397.888H57.4706C57.2306 398.716 56.5826 399.184 55.6106 399.184C54.4106 399.184 53.5226 398.332 53.5226 396.7C53.5226 395.092 54.4106 394.24 55.6106 394.24C56.5826 394.24 57.2426 394.744 57.4706 395.536H58.6466C58.3106 394.156 57.2426 393.316 55.6106 393.316C53.7386 393.316 52.4066 394.636 52.4066 396.7ZM60.1037 400H61.1957V393.424H60.1037V400ZM60.6677 392.356C61.0637 392.356 61.3877 392.032 61.3877 391.612C61.3877 391.192 61.0637 390.868 60.6677 390.868C60.2477 390.868 59.9237 391.192 59.9237 391.612C59.9237 392.032 60.2477 392.356 60.6677 392.356ZM63.0568 400H64.1488V391.12H63.0568V400ZM66.0099 400H67.1019V393.424H66.0099V400ZM66.5739 392.356C66.9699 392.356 67.2939 392.032 67.2939 391.612C67.2939 391.192 66.9699 390.868 66.5739 390.868C66.1539 390.868 65.8299 391.192 65.8299 391.612C65.8299 392.032 66.1539 392.356 66.5739 392.356ZM69.2031 398.2C69.2031 399.52 69.8631 400 71.0271 400H72.0111V399.076H71.2071C70.5351 399.076 70.2951 398.848 70.2951 398.2V394.324H72.0111V393.424H70.2951V391.768H69.2031V393.424H68.3511V394.324H69.2031V398.2ZM72.9262 396.688C72.9262 398.728 74.2822 400.108 76.0342 400.108C77.2462 400.108 78.0982 399.484 78.4942 398.776V400H79.5982V393.424H78.4942V394.624C78.1102 393.94 77.2702 393.316 76.0462 393.316C74.2822 393.316 72.9262 394.636 72.9262 396.688ZM78.4942 396.7C78.4942 398.248 77.4622 399.148 76.2622 399.148C75.0622 399.148 74.0422 398.236 74.0422 396.688C74.0422 395.14 75.0622 394.264 76.2622 394.264C77.4622 394.264 78.4942 395.176 78.4942 396.7ZM81.6835 398.2C81.6835 399.52 82.3435 400 83.5075 400H84.4915V399.076H83.6875C83.0155 399.076 82.7755 398.848 82.7755 398.2V394.324H84.4915V393.424H82.7755V391.768H81.6835V393.424H80.8315V394.324H81.6835V398.2ZM88.6106 394.24C89.7386 394.24 90.6986 394.948 90.6866 396.232H86.5346C86.6546 394.948 87.5426 394.24 88.6106 394.24ZM91.6826 397.972H90.5066C90.2666 398.68 89.6426 399.184 88.6586 399.184C87.5426 399.184 86.6066 398.452 86.5226 397.12H91.7786C91.8026 396.892 91.8146 396.7 91.8146 396.46C91.8146 394.66 90.5666 393.316 88.6586 393.316C86.7386 393.316 85.4066 394.624 85.4066 396.7C85.4066 398.788 86.7866 400.108 88.6586 400.108C90.2906 400.108 91.3466 399.172 91.6826 397.972ZM96.0473 396.688C96.0473 398.728 97.4033 400.108 99.1553 400.108C100.367 400.108 101.219 399.484 101.615 398.776V400H102.719V393.424H101.615V394.624C101.231 393.94 100.391 393.316 99.1673 393.316C97.4033 393.316 96.0473 394.636 96.0473 396.688ZM101.615 396.7C101.615 398.248 100.583 399.148 99.3833 399.148C98.1833 399.148 97.1633 398.236 97.1633 396.688C97.1633 395.14 98.1833 394.264 99.3833 394.264C100.583 394.264 101.615 395.176 101.615 396.7ZM109.377 400H110.457V396.124C110.457 394.24 109.293 393.304 107.769 393.304C106.881 393.304 106.089 393.676 105.657 394.36V393.424H104.565V400H105.657V396.364C105.657 394.948 106.425 394.252 107.541 394.252C108.645 394.252 109.377 394.936 109.377 396.28V400ZM114.736 398.752L112.672 393.424H111.46L114.112 399.928L112.816 403.096H113.944L117.904 393.424H116.776L114.736 398.752ZM121.793 396.688C121.793 398.728 123.149 400.108 124.901 400.108C126.113 400.108 126.965 399.484 127.361 398.776V400H128.465V393.424H127.361V394.624C126.977 393.94 126.137 393.316 124.913 393.316C123.149 393.316 121.793 394.636 121.793 396.688ZM127.361 396.7C127.361 398.248 126.329 399.148 125.129 399.148C123.929 399.148 122.909 398.236 122.909 396.688C122.909 395.14 123.929 394.264 125.129 394.264C126.329 394.264 127.361 395.176 127.361 396.7ZM129.903 396.7C129.903 398.788 131.235 400.108 133.107 400.108C134.739 400.108 135.807 399.196 136.143 397.888H134.967C134.727 398.716 134.079 399.184 133.107 399.184C131.907 399.184 131.019 398.332 131.019 396.7C131.019 395.092 131.907 394.24 133.107 394.24C134.079 394.24 134.739 394.744 134.967 395.536H136.143C135.807 394.156 134.739 393.316 133.107 393.316C131.235 393.316 129.903 394.636 129.903 396.7ZM137.84 398.2C137.84 399.52 138.5 400 139.664 400H140.648V399.076H139.844C139.172 399.076 138.932 398.848 138.932 398.2V394.324H140.648V393.424H138.932V391.768H137.84V393.424H136.988V394.324H137.84V398.2ZM141.971 400H143.063V393.424H141.971V400ZM142.535 392.356C142.931 392.356 143.255 392.032 143.255 391.612C143.255 391.192 142.931 390.868 142.535 390.868C142.115 390.868 141.791 391.192 141.791 391.612C141.791 392.032 142.115 392.356 142.535 392.356ZM151.164 396.7C151.164 394.624 149.712 393.316 147.84 393.316C145.98 393.316 144.516 394.624 144.516 396.7C144.516 398.788 145.932 400.108 147.792 400.108C149.664 400.108 151.164 398.788 151.164 396.7ZM145.632 396.7C145.632 395.044 146.676 394.264 147.828 394.264C148.956 394.264 150.048 395.044 150.048 396.7C150.048 398.368 148.932 399.148 147.792 399.148C146.652 399.148 145.632 398.368 145.632 396.7ZM157.412 400H158.492V396.124C158.492 394.24 157.328 393.304 155.804 393.304C154.916 393.304 154.124 393.676 153.692 394.36V393.424H152.6V400H153.692V396.364C153.692 394.948 154.46 394.252 155.576 394.252C156.68 394.252 157.412 394.936 157.412 396.28V400ZM161.344 399.328C161.344 398.908 161.02 398.584 160.624 398.584C160.204 398.584 159.88 398.908 159.88 399.328C159.88 399.748 160.204 400.072 160.624 400.072C161.02 400.072 161.344 399.748 161.344 399.328Z" fill="black"/>
</svg>
