<svg width="401" height="391" viewBox="0 0 401 391" fill="none" xmlns="http://www.w3.org/2000/svg">
<path style="mix-blend-mode:multiply" opacity="0.3" d="M186.113 347.841V332.928C186.111 332.145 185.81 331.393 185.272 330.825C184.734 330.256 183.999 329.915 183.217 329.871L175.823 329.498C174.889 326.019 173.506 322.677 171.709 319.556L176.904 313.802C177.375 313.29 177.63 312.615 177.614 311.92C177.597 311.224 177.312 310.562 176.817 310.073L165.781 299.05C165.294 298.553 164.632 298.265 163.937 298.247C163.241 298.228 162.566 298.48 162.053 298.95L156.299 304.157C153.179 302.357 149.836 300.974 146.356 300.044L146.008 293.209C145.961 292.274 145.556 291.394 144.879 290.749C144.201 290.104 143.302 289.743 142.367 289.741H128.647C127.711 289.743 126.812 290.104 126.135 290.749C125.457 291.394 125.053 292.274 125.005 293.209L124.657 300.044C121.179 300.977 117.836 302.36 114.715 304.157L109.296 299.186C108.699 298.641 107.914 298.349 107.105 298.37C106.297 298.39 105.528 298.723 104.959 299.298L94.5446 309.7C93.9723 310.271 93.6415 311.039 93.6207 311.847C93.5999 312.654 93.8906 313.439 94.4327 314.038L99.4039 319.469C97.6043 322.589 96.2213 325.931 95.2903 329.411L88.1442 329.771C87.2958 329.813 86.4959 330.179 85.9104 330.795C85.325 331.41 84.999 332.228 85 333.077V347.493C84.999 348.343 85.325 349.16 85.9104 349.776C86.4959 350.391 87.2958 350.758 88.1442 350.799L95.2903 351.16C96.2213 354.639 97.6043 357.982 99.4039 361.102L94.2712 366.781C93.7904 367.314 93.5327 368.011 93.5512 368.728C93.5697 369.445 93.863 370.127 94.3706 370.634L105.257 381.521C105.766 382.027 106.449 382.318 107.166 382.334C107.883 382.35 108.579 382.09 109.11 381.608L114.777 376.488C117.901 378.28 121.242 379.662 124.719 380.601L125.105 388.058C125.143 388.823 125.474 389.544 126.029 390.071C126.585 390.599 127.321 390.892 128.087 390.891H143.113C143.878 390.892 144.615 390.599 145.171 390.071C145.726 389.544 146.057 388.823 146.095 388.058L146.481 380.601C149.959 379.666 153.3 378.283 156.423 376.488L162.028 381.546C162.581 382.045 163.304 382.313 164.049 382.294C164.793 382.276 165.502 381.972 166.03 381.446L176.767 370.696C177.294 370.172 177.599 369.466 177.62 368.724C177.641 367.981 177.376 367.259 176.879 366.707L171.808 361.102C173.608 357.982 174.991 354.639 175.922 351.16L183.317 350.787C184.064 350.726 184.762 350.392 185.278 349.848C185.794 349.305 186.091 348.59 186.113 347.841ZM137.421 363.799C132.628 364.185 127.832 363.09 123.682 360.664C119.531 358.237 116.225 354.595 114.21 350.229C112.195 345.864 111.568 340.985 112.414 336.252C113.26 331.519 115.539 327.159 118.942 323.762C122.344 320.366 126.708 318.095 131.442 317.257C136.177 316.419 141.054 317.054 145.417 319.076C149.779 321.099 153.415 324.411 155.834 328.566C158.254 332.722 159.34 337.519 158.946 342.311C158.489 347.864 156.074 353.073 152.131 357.009C148.188 360.945 142.974 363.352 137.421 363.799Z" fill="#494949"/>
<g opacity="0.3">
<g opacity="0.3">
<path d="M56.6088 289.71L52.5574 293.376C50.2597 292.051 47.7989 291.032 45.2374 290.344L44.964 284.788C44.9353 284.241 44.6975 283.726 44.2997 283.349C43.9019 282.972 43.3744 282.762 42.8264 282.763H31.6413C31.0932 282.762 30.5658 282.972 30.168 283.349C29.7702 283.726 29.5324 284.241 29.5037 284.788L29.2179 290.344C26.6611 291.034 24.2047 292.053 21.9103 293.376L17.8215 289.648C17.4031 289.269 16.8549 289.065 16.2904 289.079C15.726 289.093 15.1884 289.323 14.7891 289.722L6.9596 297.564C6.55755 297.962 6.32518 298.5 6.31128 299.065C6.29738 299.631 6.50302 300.18 6.88504 300.597L10.6134 304.673C9.29754 306.974 8.28258 309.434 7.59342 311.993L1.9636 312.279C1.43497 312.301 0.93549 312.527 0.569548 312.909C0.203605 313.291 -0.000474961 313.8 1.39427e-06 314.329V325.676C-0.000614827 326.206 0.203052 326.717 0.568694 327.101C0.934337 327.485 1.43387 327.714 1.9636 327.739L7.59342 328.025C8.28478 330.583 9.29963 333.043 10.6134 335.345L7.08389 339.247C6.67284 339.717 6.45358 340.324 6.4697 340.948C6.48582 341.572 6.73613 342.167 7.17087 342.615L14.6276 350.072C15.0755 350.507 15.6706 350.757 16.2946 350.773C16.9186 350.789 17.5258 350.57 17.9955 350.159L21.9103 346.629C24.2076 347.943 26.6633 348.958 29.2179 349.649L29.4913 355.043C29.5231 355.638 29.782 356.197 30.2144 356.607C30.6468 357.016 31.2199 357.244 31.8153 357.243H42.6648C43.2602 357.244 43.8333 357.016 44.2657 356.607C44.6981 356.197 44.957 355.638 44.9888 355.043L45.2498 349.649C47.809 348.96 50.2691 347.945 52.5698 346.629L56.2981 350.01C56.8113 350.48 57.4869 350.732 58.1824 350.713C58.8779 350.695 59.5391 350.407 60.0265 349.91L67.2098 342.727C67.7018 342.236 67.9854 341.575 68.0016 340.88C68.0178 340.186 67.7653 339.512 67.2968 338.999L63.9164 335.27C65.2392 332.972 66.2585 330.511 66.9488 327.95L72.6532 327.665C73.1621 327.636 73.6409 327.414 73.992 327.045C74.3431 326.675 74.5399 326.186 74.5422 325.676V314.18C74.5427 313.671 74.3465 313.181 73.9945 312.813C73.6426 312.445 73.162 312.227 72.6532 312.204L66.9488 311.918C66.2607 309.357 65.2413 306.896 63.9164 304.598L67.5826 300.547C67.9728 300.121 68.182 299.56 68.1657 298.982C68.1495 298.404 67.9092 297.856 67.4956 297.452L59.7282 289.685C59.3074 289.282 58.746 289.059 58.1635 289.064C57.581 289.069 57.0232 289.3 56.6088 289.71ZM48.4189 306.835C51.1257 309.127 53.0636 312.194 53.9703 315.622C54.8771 319.051 54.7091 322.675 53.489 326.005C52.2688 329.335 50.0555 332.21 47.1483 334.241C44.241 336.272 40.7802 337.361 37.2338 337.361C33.6874 337.361 30.2266 336.272 27.3194 334.241C24.4122 332.21 22.1988 329.335 20.9787 326.005C19.7586 322.675 19.5905 319.051 20.4973 315.622C21.4041 312.194 23.3419 309.127 26.0488 306.835C29.1749 304.189 33.1381 302.737 37.2338 302.737C41.3296 302.737 45.2927 304.189 48.4189 306.835Z" fill="black" style="mix-blend-mode:multiply"/>
</g>
</g>
<path d="M314.676 53.1035H39.9584C29.2991 53.1035 20.658 61.7446 20.658 72.404V289.257C20.658 299.917 29.2991 308.558 39.9584 308.558H314.676C325.335 308.558 333.976 299.917 333.976 289.257V72.404C333.976 61.7446 325.335 53.1035 314.676 53.1035Z" fill="#B3C9DA"/>
<path style="mix-blend-mode:multiply" opacity="0.5" d="M193.505 147.741H44.6562C37.8131 147.741 32.2656 153.289 32.2656 160.132V256.622C32.2656 263.465 37.8131 269.012 44.6562 269.012H193.505C200.348 269.012 205.895 263.465 205.895 256.622V160.132C205.895 153.289 200.348 147.741 193.505 147.741Z" fill="url(#paint0_linear_1387_2947)"/>
<path d="M196.202 145.889H47.3535C40.5103 145.889 34.9629 151.436 34.9629 158.279V254.769C34.9629 261.612 40.5103 267.16 47.3535 267.16H196.202C203.045 267.16 208.592 261.612 208.592 254.769V158.279C208.592 151.436 203.045 145.889 196.202 145.889Z" fill="white"/>
<path d="M194.225 208.128C194.225 216.618 191.708 224.917 186.991 231.976C182.274 239.035 175.57 244.537 167.727 247.786C159.883 251.035 151.252 251.885 142.925 250.229C134.598 248.573 126.95 244.484 120.946 238.481C114.943 232.478 110.855 224.829 109.199 216.502C107.542 208.176 108.392 199.545 111.641 191.701C114.89 183.857 120.392 177.153 127.451 172.436C134.51 167.72 142.81 165.202 151.3 165.202C162.684 165.202 173.603 169.725 181.653 177.775C189.703 185.825 194.225 196.743 194.225 208.128Z" fill="#EDE5FC"/>
<path d="M154.121 163.238C147.263 163.232 140.504 164.869 134.409 168.012C128.314 171.155 123.061 175.712 119.089 181.302C115.118 186.893 112.543 193.353 111.581 200.143C110.619 206.933 111.298 213.854 113.561 220.328C115.823 226.801 119.604 232.638 124.586 237.35C129.568 242.063 135.607 245.513 142.196 247.411C148.786 249.31 155.734 249.603 162.46 248.264C169.185 246.926 175.493 243.996 180.853 239.719L154.121 206.164V163.238Z" fill="url(#paint1_linear_1387_2947)"/>
<path d="M188.273 180.24C184.279 174.961 179.118 170.68 173.192 167.73C167.267 164.78 160.74 163.243 154.121 163.238V206.152L188.273 180.24Z" fill="url(#paint2_linear_1387_2947)"/>
<path d="M188.273 180.24C184.279 174.961 179.118 170.68 173.192 167.73C167.267 164.78 160.74 163.243 154.121 163.238V206.152L188.273 180.24Z" fill="url(#paint3_linear_1387_2947)"/>
<path d="M196.984 206.152C197.003 196.795 193.946 187.691 188.285 180.24L154.121 206.152L180.853 239.707C185.895 235.69 189.965 230.586 192.758 224.776C195.552 218.965 196.996 212.599 196.984 206.152Z" fill="url(#paint4_linear_1387_2947)"/>
<path d="M112.873 161.958H42.059C41.455 161.958 40.9653 162.448 40.9653 163.052V163.623C40.9653 164.227 41.455 164.717 42.059 164.717H112.873C113.477 164.717 113.967 164.227 113.967 163.623V163.052C113.967 162.448 113.477 161.958 112.873 161.958Z" fill="#EDE5FC"/>
<path d="M112.873 171.79H42.059C41.455 171.79 40.9653 172.28 40.9653 172.884V173.455C40.9653 174.059 41.455 174.549 42.059 174.549H112.873C113.477 174.549 113.967 174.059 113.967 173.455V172.884C113.967 172.28 113.477 171.79 112.873 171.79Z" fill="#EDE5FC"/>
<path d="M86.2524 181.62H42.059C41.455 181.62 40.9653 182.11 40.9653 182.714V183.285C40.9653 183.889 41.455 184.379 42.059 184.379H86.2524C86.8564 184.379 87.3461 183.889 87.3461 183.285V182.714C87.3461 182.11 86.8564 181.62 86.2524 181.62Z" fill="#EDE5FC"/>
<path d="M86.2524 191.45H42.059C41.455 191.45 40.9653 191.94 40.9653 192.544V193.116C40.9653 193.72 41.455 194.209 42.059 194.209H86.2524C86.8564 194.209 87.3461 193.72 87.3461 193.116V192.544C87.3461 191.94 86.8564 191.45 86.2524 191.45Z" fill="#EDE5FC"/>
<path d="M42.9657 160.195H113.804C114.094 160.195 114.373 160.31 114.578 160.515C114.783 160.72 114.898 160.999 114.898 161.289V161.848C114.898 162.138 114.783 162.416 114.578 162.621C114.373 162.826 114.094 162.942 113.804 162.942H42.9657C42.6723 162.942 42.391 162.825 42.1836 162.618C41.9762 162.41 41.8596 162.129 41.8596 161.836V161.276C41.8596 160.986 41.9748 160.708 42.1799 160.503C42.385 160.298 42.6632 160.183 42.9533 160.183L42.9657 160.195Z" fill="url(#paint5_linear_1387_2947)"/>
<path d="M42.9657 170.024H113.804C114.094 170.024 114.373 170.14 114.578 170.345C114.783 170.55 114.898 170.828 114.898 171.118V171.677C114.898 171.967 114.783 172.246 114.578 172.451C114.373 172.656 114.094 172.771 113.804 172.771H42.9657C42.6723 172.771 42.391 172.654 42.1836 172.447C41.9762 172.24 41.8596 171.958 41.8596 171.665V171.081C41.8724 170.796 41.9946 170.527 42.2007 170.331C42.4067 170.134 42.6808 170.024 42.9657 170.024Z" fill="url(#paint6_linear_1387_2947)"/>
<path d="M87.1591 179.855H42.9533C42.3493 179.855 41.8596 180.345 41.8596 180.949V181.521C41.8596 182.125 42.3493 182.614 42.9533 182.614H87.1591C87.7631 182.614 88.2528 182.125 88.2528 181.521V180.949C88.2528 180.345 87.7631 179.855 87.1591 179.855Z" fill="url(#paint7_linear_1387_2947)"/>
<path d="M87.1591 189.687H42.9533C42.3493 189.687 41.8596 190.176 41.8596 190.78V191.352C41.8596 191.956 42.3493 192.446 42.9533 192.446H87.1591C87.7631 192.446 88.2528 191.956 88.2528 191.352V190.78C88.2528 190.176 87.7631 189.687 87.1591 189.687Z" fill="url(#paint8_linear_1387_2947)"/>
<path d="M34.0679 52.5313H320.343C324.101 52.5312 327.705 54.0214 330.366 56.675C333.026 59.3285 334.526 62.9289 334.536 66.6866V71.6577H19.9001V66.6866C19.91 62.9332 21.4062 59.3366 24.0614 56.6837C26.7166 54.0309 30.3145 52.5378 34.0679 52.5313Z" fill="#443F4D"/>
<g style="mix-blend-mode:multiply" opacity="0.4">
<path style="mix-blend-mode:multiply" opacity="0.4" d="M355.638 147.319H303.441C303.075 147.319 302.724 147.173 302.466 146.915C302.207 146.656 302.062 146.305 302.062 145.939C302.062 145.573 302.207 145.222 302.466 144.964C302.724 144.705 303.075 144.56 303.441 144.56H355.638C355.819 144.56 355.998 144.595 356.166 144.665C356.333 144.734 356.485 144.836 356.613 144.964C356.741 145.092 356.843 145.244 356.912 145.411C356.982 145.579 357.017 145.758 357.017 145.939C357.017 146.12 356.982 146.3 356.912 146.467C356.843 146.634 356.741 146.786 356.613 146.915C356.485 147.043 356.333 147.144 356.166 147.214C355.998 147.283 355.819 147.319 355.638 147.319Z" fill="url(#paint9_linear_1387_2947)"/>
<path style="mix-blend-mode:multiply" opacity="0.4" d="M355.638 155.657H303.441C303.26 155.657 303.08 155.622 302.913 155.552C302.746 155.483 302.594 155.381 302.466 155.253C302.337 155.125 302.236 154.973 302.167 154.806C302.097 154.638 302.062 154.459 302.062 154.278C302.062 153.912 302.207 153.561 302.466 153.302C302.724 153.044 303.075 152.898 303.441 152.898H355.638C355.819 152.898 355.998 152.934 356.166 153.003C356.333 153.073 356.485 153.174 356.613 153.302C356.741 153.431 356.843 153.583 356.912 153.75C356.982 153.917 357.017 154.097 357.017 154.278C357.017 154.459 356.982 154.638 356.912 154.806C356.843 154.973 356.741 155.125 356.613 155.253C356.485 155.381 356.333 155.483 356.166 155.552C355.998 155.622 355.819 155.657 355.638 155.657Z" fill="url(#paint10_linear_1387_2947)"/>
<path style="mix-blend-mode:multiply" opacity="0.4" d="M355.638 163.996H303.441C303.075 163.996 302.724 163.851 302.466 163.592C302.207 163.334 302.062 162.983 302.062 162.617C302.06 162.435 302.094 162.255 302.163 162.087C302.232 161.919 302.333 161.766 302.462 161.638C302.59 161.509 302.743 161.408 302.911 161.339C303.079 161.27 303.259 161.236 303.441 161.237H355.638C355.819 161.237 355.999 161.273 356.166 161.342C356.333 161.412 356.485 161.513 356.613 161.641C356.742 161.769 356.843 161.922 356.912 162.089C356.982 162.256 357.018 162.436 357.018 162.617C357.018 162.798 356.982 162.977 356.912 163.145C356.843 163.312 356.742 163.464 356.613 163.592C356.485 163.72 356.333 163.822 356.166 163.891C355.999 163.961 355.819 163.996 355.638 163.996Z" fill="url(#paint11_linear_1387_2947)"/>
<path style="mix-blend-mode:multiply" opacity="0.4" d="M340.762 172.323H303.478C303.113 172.323 302.762 172.178 302.503 171.919C302.244 171.661 302.099 171.31 302.099 170.944C302.097 170.762 302.132 170.582 302.201 170.414C302.269 170.246 302.371 170.093 302.499 169.965C302.628 169.836 302.78 169.735 302.949 169.666C303.117 169.597 303.297 169.563 303.478 169.565H340.762C340.944 169.563 341.124 169.597 341.292 169.666C341.46 169.735 341.613 169.836 341.741 169.965C341.87 170.093 341.971 170.246 342.04 170.414C342.109 170.582 342.143 170.762 342.141 170.944C342.141 171.125 342.106 171.305 342.036 171.472C341.967 171.639 341.865 171.791 341.737 171.919C341.609 172.048 341.457 172.149 341.29 172.218C341.122 172.288 340.943 172.323 340.762 172.323Z" fill="url(#paint12_linear_1387_2947)"/>
<path style="mix-blend-mode:multiply" opacity="0.4" d="M330.596 180.661H303.503C303.321 180.663 303.141 180.628 302.973 180.56C302.805 180.491 302.652 180.389 302.524 180.261C302.396 180.133 302.294 179.98 302.225 179.812C302.156 179.644 302.122 179.463 302.124 179.282C302.124 178.916 302.269 178.565 302.528 178.306C302.786 178.048 303.137 177.902 303.503 177.902H330.596C330.962 177.902 331.313 178.048 331.571 178.306C331.83 178.565 331.975 178.916 331.975 179.282C331.975 179.648 331.83 179.999 331.571 180.257C331.313 180.516 330.962 180.661 330.596 180.661Z" fill="url(#paint13_linear_1387_2947)"/>
</g>
<path d="M46.2471 62.5243C46.2471 63.5477 45.9441 64.5482 45.3763 65.3996C44.8084 66.251 44.0013 66.9153 43.0565 67.3086C42.1117 67.7019 41.0716 67.8067 40.0673 67.6097C39.0631 67.4128 38.1396 66.9229 37.4134 66.2018C36.6871 65.4808 36.1906 64.5609 35.9865 63.558C35.7823 62.5552 35.8797 61.5144 36.2662 60.5668C36.6527 59.6192 37.3112 58.8073 38.1585 58.2334C39.0058 57.6595 40.0041 57.3493 41.0275 57.3419C41.7111 57.337 42.3891 57.4674 43.0221 57.7257C43.6552 57.9839 44.2309 58.3648 44.7161 58.8466C45.2013 59.3283 45.5864 59.9013 45.8491 60.5325C46.1119 61.1637 46.2472 61.8406 46.2471 62.5243Z" fill="#E90000"/>
<path d="M59.1595 62.5242C59.1595 63.5492 58.8556 64.5512 58.2861 65.4034C57.7167 66.2556 56.9073 66.9199 55.9603 67.3121C55.0134 67.7044 53.9713 67.807 52.9661 67.607C51.9608 67.4071 51.0373 66.9135 50.3126 66.1887C49.5878 65.4639 49.0942 64.5405 48.8943 63.5352C48.6943 62.53 48.7969 61.4879 49.1892 60.541C49.5814 59.594 50.2457 58.7846 51.0979 58.2152C51.9501 57.6457 52.9521 57.3418 53.9771 57.3418C55.3515 57.3418 56.6697 57.8878 57.6416 58.8597C58.6135 59.8316 59.1595 61.1497 59.1595 62.5242Z" fill="#F2A044"/>
<path d="M72.0972 62.5242C72.0972 63.5492 71.7933 64.5512 71.2239 65.4034C70.6544 66.2556 69.845 66.9199 68.8981 67.3121C67.9511 67.7044 66.9091 67.807 65.9038 67.607C64.8985 67.4071 63.9751 66.9135 63.2503 66.1887C62.5255 65.4639 62.032 64.5405 61.832 63.5352C61.632 62.53 61.7347 61.4879 62.1269 60.541C62.5191 59.594 63.1834 58.7846 64.0356 58.2152C64.8879 57.6457 65.8899 57.3418 66.9148 57.3418C67.5954 57.3418 68.2693 57.4758 68.8981 57.7363C69.5268 57.9967 70.0981 58.3785 70.5794 58.8597C71.0606 59.3409 71.4423 59.9122 71.7028 60.541C71.9632 61.1697 72.0972 61.8436 72.0972 62.5242Z" fill="#00B183"/>
<path style="mix-blend-mode:multiply" opacity="0.5" d="M79.3797 85.2793H38.3678C35.3203 85.2793 32.8499 87.7498 32.8499 90.7973V131.809C32.8499 134.857 35.3203 137.327 38.3678 137.327H79.3797C82.4272 137.327 84.8977 134.857 84.8977 131.809V90.7973C84.8977 87.7498 82.4272 85.2793 79.3797 85.2793Z" fill="url(#paint14_linear_1387_2947)"/>
<path d="M82.3126 83.252H41.3007C38.2532 83.252 35.7827 85.7224 35.7827 88.7699V129.782C35.7827 132.829 38.2532 135.3 41.3007 135.3H82.3126C85.3601 135.3 87.8305 132.829 87.8305 129.782V88.7699C87.8305 85.7224 85.3601 83.252 82.3126 83.252Z" fill="white"/>
<path d="M38.6785 126.34H83.6921L71.4755 99.7323C71.3502 99.4586 71.1525 99.2243 70.9037 99.0547C70.655 98.8851 70.3646 98.7867 70.064 98.7701C69.7634 98.7535 69.464 98.8193 69.1981 98.9604C68.9321 99.1015 68.7098 99.3125 68.555 99.5707L58.998 115.528L52.0011 108.307C51.8249 108.127 51.6096 107.989 51.3718 107.904C51.134 107.82 50.88 107.791 50.6292 107.819C50.3785 107.848 50.1377 107.934 49.9252 108.07C49.7128 108.207 49.5344 108.39 49.4037 108.606L38.6785 126.34Z" fill="url(#paint15_linear_1387_2947)"/>
<path d="M60.5643 97.5573C60.5668 98.3622 60.3302 99.1496 59.8846 99.8198C59.439 100.49 58.8044 101.013 58.0613 101.322C57.3183 101.631 56.5001 101.713 55.7106 101.556C54.9212 101.4 54.1959 101.012 53.6268 100.443C53.0577 99.8743 52.6704 99.149 52.514 98.3596C52.3576 97.5701 52.4391 96.7519 52.7483 96.0088C53.0574 95.2657 53.5802 94.6312 54.2504 94.1856C54.9206 93.74 55.708 93.5034 56.5129 93.5059C57.5874 93.5059 58.6179 93.9327 59.3777 94.6925C60.1375 95.4523 60.5643 96.4828 60.5643 97.5573Z" fill="url(#paint16_linear_1387_2947)"/>
<path style="mix-blend-mode:multiply" opacity="0.5" d="M139.369 85.2793H98.3568C95.3093 85.2793 92.8389 87.7498 92.8389 90.7973V131.809C92.8389 134.857 95.3093 137.327 98.3568 137.327H139.369C142.416 137.327 144.887 134.857 144.887 131.809V90.7973C144.887 87.7498 142.416 85.2793 139.369 85.2793Z" fill="url(#paint17_linear_1387_2947)"/>
<path d="M142.302 83.252H101.29C98.2427 83.252 95.7722 85.7224 95.7722 88.7699V129.782C95.7722 132.829 98.2427 135.3 101.29 135.3H142.302C145.35 135.3 147.82 132.829 147.82 129.782V88.7699C147.82 85.7224 145.35 83.252 142.302 83.252Z" fill="white"/>
<path d="M132.186 126.005C132.186 127.434 127.525 128.59 121.796 128.59C116.067 128.59 111.394 127.434 111.394 126.005C111.394 124.575 116.054 123.407 121.796 123.407C127.538 123.407 132.186 124.575 132.186 126.005Z" fill="url(#paint18_linear_1387_2947)"/>
<path d="M130.757 116.038L121.808 125.098L112.848 116.075C110.466 113.671 109.13 110.424 109.13 107.04C109.13 103.656 110.466 100.409 112.848 98.0049C114.019 96.8183 115.414 95.8761 116.952 95.233C118.491 94.5899 120.141 94.2588 121.808 94.2588C123.476 94.2588 125.126 94.5899 126.664 95.233C128.203 95.8761 129.598 96.8183 130.769 98.0049C133.132 100.412 134.454 103.651 134.452 107.024C134.449 110.397 133.122 113.634 130.757 116.038Z" fill="url(#paint19_linear_1387_2947)"/>
<path d="M129.948 106.641C130.03 108.301 129.613 109.947 128.751 111.367C127.889 112.787 126.621 113.916 125.11 114.609C123.6 115.301 121.917 115.526 120.278 115.253C118.639 114.98 117.12 114.222 115.916 113.077C114.712 111.932 113.878 110.453 113.523 108.83C113.167 107.207 113.306 105.515 113.921 103.972C114.537 102.428 115.601 101.105 116.975 100.172C118.35 99.239 119.973 98.7392 121.634 98.7372C122.699 98.7091 123.76 98.8914 124.754 99.2736C125.749 99.6558 126.659 100.23 127.431 100.965C128.203 101.699 128.823 102.578 129.255 103.552C129.687 104.526 129.923 105.576 129.948 106.641Z" fill="white"/>
<path d="M201.16 42.2412V105.834C201.16 106.567 201.016 107.293 200.735 107.97C200.455 108.647 200.044 109.262 199.526 109.78C199.008 110.298 198.392 110.709 197.715 110.99C197.038 111.27 196.313 111.415 195.58 111.415H182.009" stroke="#E08433" stroke-width="1.35464" stroke-miterlimit="10"/>
<path d="M186.508 111.589C186.508 112.526 186.23 113.442 185.709 114.22C185.188 114.999 184.448 115.606 183.582 115.964C182.716 116.322 181.763 116.415 180.844 116.232C179.925 116.048 179.082 115.596 178.42 114.932C177.758 114.269 177.308 113.424 177.127 112.505C176.946 111.585 177.041 110.633 177.402 109.768C177.762 108.903 178.371 108.164 179.151 107.645C179.931 107.127 180.848 106.851 181.785 106.854C182.406 106.854 183.021 106.976 183.595 107.214C184.169 107.452 184.69 107.801 185.129 108.241C185.568 108.681 185.915 109.203 186.152 109.777C186.388 110.352 186.509 110.967 186.508 111.589Z" fill="white"/>
<path d="M187.502 9.89258H191.231V21.3635H187.502C186.802 21.3635 186.109 21.2256 185.462 20.9576C184.815 20.6897 184.228 20.297 183.732 19.8019C183.237 19.3068 182.845 18.7191 182.577 18.0722C182.309 17.4254 182.171 16.7321 182.171 16.0319V15.2241C182.171 13.8101 182.733 12.454 183.732 11.4542C184.732 10.4543 186.088 9.89258 187.502 9.89258Z" fill="url(#paint20_linear_1387_2947)"/>
<path d="M207.436 31.256L193.082 21.351V9.90499L207.436 0V31.256Z" fill="url(#paint21_linear_1387_2947)"/>
<path d="M216.185 26.6817L214.16 24.5938C216.507 22.2852 217.843 19.1394 217.873 15.847C217.903 12.5546 216.626 9.38467 214.321 7.03328L216.384 4.99512C217.808 6.42874 218.934 8.13065 219.695 10.0023C220.457 11.8739 220.839 13.878 220.821 15.8986C220.802 17.9191 220.383 19.9159 219.587 21.7733C218.792 23.6306 217.635 25.3117 216.185 26.719V26.6817Z" fill="url(#paint22_linear_1387_2947)"/>
<path d="M211.836 22.1328L209.798 20.0698C210.373 19.5009 210.829 18.8234 211.141 18.0768C211.452 17.3301 211.612 16.5291 211.612 15.7201C211.611 14.158 211.006 12.6568 209.922 11.5319L212.035 9.51855C213.664 11.2236 214.557 13.5018 214.52 15.8603C214.483 18.2187 213.519 20.4676 211.836 22.1204V22.1328Z" fill="url(#paint23_linear_1387_2947)"/>
<path d="M360.485 89.1064H232.242C225.214 89.1064 219.516 94.8041 219.516 101.833V332.444C219.516 339.472 225.214 345.17 232.242 345.17H360.485C367.514 345.17 373.211 339.472 373.211 332.444V101.833C373.211 94.8041 367.514 89.1064 360.485 89.1064Z" fill="#443F4D"/>
<path d="M234.653 96.9482H358.074C360.315 96.9482 362.465 97.8386 364.05 99.4235C365.635 101.008 366.525 103.158 366.525 105.399V312.546C366.525 314.785 365.636 316.931 364.053 318.513C362.471 320.096 360.324 320.985 358.086 320.985H234.653C232.415 320.985 230.269 320.096 228.686 318.513C227.104 316.931 226.215 314.785 226.215 312.546V105.387C226.215 103.149 227.104 101.002 228.686 99.4198C230.269 97.8373 232.415 96.9482 234.653 96.9482Z" fill="#B3C9DA"/>
<g style="mix-blend-mode:multiply" opacity="0.4">
<path d="M238.63 269.41H274.671C276.286 269.41 277.835 270.052 278.977 271.194C280.119 272.336 280.76 273.885 280.76 275.5V309.515C280.76 311.127 280.12 312.672 278.98 313.812C277.841 314.952 276.295 315.592 274.683 315.592H238.63C237.018 315.592 235.472 314.952 234.333 313.812C233.193 312.672 232.553 311.127 232.553 309.515V275.475C232.556 273.865 233.198 272.323 234.337 271.186C235.476 270.049 237.02 269.41 238.63 269.41Z" fill="#6B9A9E"/>
</g>
<path d="M240.382 268.229H276.423C278.035 268.229 279.581 268.869 280.72 270.009C281.86 271.148 282.5 272.694 282.5 274.306V308.333C282.5 309.948 281.859 311.497 280.717 312.639C279.575 313.781 278.026 314.423 276.411 314.423H240.37C238.755 314.423 237.206 313.781 236.064 312.639C234.922 311.497 234.28 309.948 234.28 308.333V274.306C234.28 273.506 234.438 272.713 234.745 271.974C235.052 271.235 235.502 270.564 236.069 270C236.636 269.435 237.309 268.988 238.049 268.684C238.789 268.38 239.582 268.225 240.382 268.229Z" fill="white"/>
<g style="mix-blend-mode:multiply" opacity="0.4">
<path d="M295.003 268.787H331.043C332.659 268.787 334.208 269.429 335.35 270.571C336.492 271.713 337.133 273.262 337.133 274.877V308.892C337.133 310.504 336.493 312.049 335.353 313.189C334.213 314.329 332.668 314.969 331.056 314.969H295.015C293.403 314.969 291.858 314.329 290.718 313.189C289.578 312.049 288.938 310.504 288.938 308.892V274.877C288.938 273.266 289.576 271.721 290.713 270.579C291.849 269.438 293.392 268.794 295.003 268.787Z" fill="#6B9A9E"/>
</g>
<path d="M296.693 268.229H332.734C334.349 268.229 335.898 268.87 337.04 270.012C338.182 271.154 338.824 272.703 338.824 274.318V308.333C338.824 309.948 338.182 311.497 337.04 312.639C335.898 313.781 334.349 314.423 332.734 314.423H296.693C295.081 314.423 293.536 313.783 292.396 312.643C291.256 311.503 290.616 309.957 290.616 308.346V274.306C290.616 272.694 291.256 271.148 292.396 270.008C293.536 268.869 295.081 268.229 296.693 268.229Z" fill="white"/>
<g style="mix-blend-mode:multiply" opacity="0.4">
<path d="M344.739 198.496H237.971C235.068 198.496 232.714 200.85 232.714 203.753V250.357C232.714 253.261 235.068 255.614 237.971 255.614H344.739C347.642 255.614 349.996 253.261 349.996 250.357V203.753C349.996 200.85 347.642 198.496 344.739 198.496Z" fill="#6B9A9E"/>
</g>
<path d="M346.305 197.366H239.55C236.646 197.366 234.293 199.72 234.293 202.623V249.228C234.293 252.131 236.646 254.485 239.55 254.485H346.305C349.208 254.485 351.562 252.131 351.562 249.228V202.623C351.562 199.72 349.208 197.366 346.305 197.366Z" fill="white"/>
<path d="M345.161 207.954H292.964C292.599 207.954 292.248 207.809 291.989 207.55C291.73 207.292 291.585 206.941 291.585 206.575C291.585 206.209 291.73 205.858 291.989 205.599C292.248 205.341 292.599 205.195 292.964 205.195H345.161C345.527 205.195 345.878 205.341 346.137 205.599C346.396 205.858 346.541 206.209 346.541 206.575C346.541 206.941 346.396 207.292 346.137 207.55C345.878 207.809 345.527 207.954 345.161 207.954Z" fill="url(#paint24_linear_1387_2947)"/>
<path d="M345.161 216.292H292.964C292.599 216.292 292.248 216.147 291.989 215.888C291.73 215.629 291.585 215.279 291.585 214.913C291.585 214.547 291.73 214.196 291.989 213.937C292.248 213.679 292.599 213.533 292.964 213.533H345.161C345.527 213.533 345.878 213.679 346.137 213.937C346.396 214.196 346.541 214.547 346.541 214.913C346.541 215.279 346.396 215.629 346.137 215.888C345.878 216.147 345.527 216.292 345.161 216.292Z" fill="url(#paint25_linear_1387_2947)"/>
<path d="M330.285 224.632H293.002C292.636 224.632 292.285 224.487 292.026 224.228C291.768 223.969 291.622 223.618 291.622 223.253C291.622 222.887 291.768 222.536 292.026 222.277C292.285 222.018 292.636 221.873 293.002 221.873H330.285C330.651 221.873 331.002 222.018 331.261 222.277C331.519 222.536 331.665 222.887 331.665 223.253C331.665 223.618 331.519 223.969 331.261 224.228C331.002 224.487 330.651 224.632 330.285 224.632Z" fill="url(#paint26_linear_1387_2947)"/>
<path d="M281.593 202.685H246.895C244.671 202.685 242.868 204.487 242.868 206.711V242.093C242.868 244.317 244.671 246.12 246.895 246.12H281.593C283.817 246.12 285.62 244.317 285.62 242.093V206.711C285.62 204.487 283.817 202.685 281.593 202.685Z" fill="url(#paint27_linear_1387_2947)"/>
<path d="M245.341 238.689H283.258L272.968 216.319C272.865 216.082 272.699 215.878 272.487 215.73C272.275 215.582 272.026 215.497 271.768 215.483C271.51 215.468 271.253 215.526 271.026 215.65C270.799 215.773 270.611 215.958 270.483 216.182L262.429 229.616L256.539 223.539C256.39 223.387 256.209 223.271 256.009 223.199C255.809 223.128 255.595 223.103 255.384 223.127C255.173 223.151 254.97 223.223 254.791 223.338C254.612 223.452 254.462 223.606 254.351 223.788L245.341 238.689Z" fill="url(#paint28_linear_1387_2947)"/>
<path d="M263.784 214.492C263.784 215.168 263.584 215.829 263.208 216.391C262.833 216.953 262.299 217.391 261.674 217.649C261.05 217.908 260.363 217.976 259.7 217.844C259.037 217.712 258.428 217.387 257.95 216.909C257.472 216.431 257.146 215.822 257.014 215.159C256.883 214.496 256.95 213.809 257.209 213.184C257.468 212.56 257.906 212.026 258.468 211.65C259.03 211.275 259.69 211.074 260.366 211.074C261.273 211.074 262.142 211.434 262.783 212.075C263.424 212.716 263.784 213.585 263.784 214.492Z" fill="url(#paint29_linear_1387_2947)"/>
<path style="mix-blend-mode:multiply" opacity="0.4" d="M354.134 105.213H236.592C234.388 105.213 232.602 106.999 232.602 109.202V119.48C232.602 121.683 234.388 123.469 236.592 123.469H354.134C356.337 123.469 358.124 121.683 358.124 119.48V109.202C358.124 106.999 356.337 105.213 354.134 105.213Z" fill="url(#paint30_linear_1387_2947)"/>
<path d="M355.825 103.921H238.282C236.079 103.921 234.293 105.707 234.293 107.91V118.188C234.293 120.391 236.079 122.177 238.282 122.177H355.825C358.028 122.177 359.814 120.391 359.814 118.188V107.91C359.814 105.707 358.028 103.921 355.825 103.921Z" fill="white"/>
<path d="M356.135 146.225H303.939C303.572 146.225 303.219 146.08 302.959 145.822C302.698 145.563 302.55 145.212 302.547 144.845C302.55 144.478 302.698 144.127 302.959 143.869C303.219 143.611 303.572 143.466 303.939 143.466H356.135C356.501 143.466 356.852 143.611 357.111 143.87C357.37 144.129 357.515 144.479 357.515 144.845C357.515 145.211 357.37 145.562 357.111 145.821C356.852 146.079 356.501 146.225 356.135 146.225Z" fill="white"/>
<path d="M356.135 154.564H303.939C303.572 154.564 303.219 154.419 302.959 154.16C302.698 153.902 302.55 153.551 302.547 153.184C302.547 153.002 302.583 152.822 302.653 152.653C302.723 152.485 302.826 152.333 302.955 152.204C303.084 152.076 303.238 151.975 303.407 151.906C303.576 151.838 303.756 151.803 303.939 151.805H356.135C356.317 151.803 356.497 151.838 356.665 151.906C356.833 151.975 356.986 152.077 357.115 152.205C357.243 152.334 357.345 152.486 357.413 152.654C357.482 152.822 357.517 153.003 357.515 153.184C357.515 153.365 357.479 153.545 357.41 153.712C357.341 153.88 357.239 154.032 357.111 154.16C356.983 154.288 356.831 154.389 356.663 154.459C356.496 154.528 356.317 154.564 356.135 154.564Z" fill="white"/>
<path d="M356.135 162.891H303.939C303.756 162.892 303.576 162.858 303.407 162.789C303.238 162.721 303.084 162.619 302.955 162.491C302.826 162.363 302.723 162.21 302.653 162.042C302.583 161.874 302.547 161.694 302.547 161.511C302.55 161.144 302.698 160.793 302.959 160.535C303.219 160.277 303.572 160.132 303.939 160.132H356.135C356.501 160.132 356.852 160.277 357.111 160.536C357.37 160.795 357.515 161.145 357.515 161.511C357.517 161.693 357.482 161.873 357.413 162.041C357.345 162.209 357.243 162.362 357.115 162.49C356.986 162.619 356.833 162.72 356.665 162.789C356.497 162.858 356.317 162.892 356.135 162.891Z" fill="white"/>
<path d="M341.272 171.23H303.988C303.806 171.231 303.625 171.197 303.456 171.128C303.288 171.06 303.134 170.958 303.005 170.83C302.875 170.702 302.772 170.549 302.702 170.381C302.632 170.213 302.596 170.032 302.596 169.85C302.599 169.483 302.748 169.132 303.008 168.874C303.269 168.616 303.621 168.471 303.988 168.471H341.272C341.635 168.471 341.984 168.614 342.243 168.87C342.501 169.126 342.648 169.474 342.651 169.838C342.653 170.02 342.618 170.201 342.55 170.37C342.481 170.538 342.38 170.692 342.252 170.821C342.123 170.951 341.971 171.053 341.802 171.124C341.634 171.194 341.454 171.23 341.272 171.23Z" fill="white"/>
<path d="M331.081 179.569H303.988C303.621 179.569 303.269 179.424 303.008 179.165C302.748 178.907 302.599 178.556 302.596 178.189C302.599 177.822 302.748 177.471 303.008 177.213C303.269 176.954 303.621 176.81 303.988 176.81H331.081C331.447 176.81 331.798 176.955 332.056 177.214C332.315 177.472 332.46 177.823 332.46 178.189C332.46 178.555 332.315 178.906 332.056 179.165C331.798 179.423 331.447 179.569 331.081 179.569Z" fill="white"/>
<path style="mix-blend-mode:multiply" opacity="0.4" d="M284.688 135.065H238.493C235.322 135.065 232.752 137.636 232.752 140.807V183.397C232.752 186.568 235.322 189.139 238.493 189.139H284.688C287.859 189.139 290.429 186.568 290.429 183.397V140.807C290.429 137.636 287.859 135.065 284.688 135.065Z" fill="#006A4E"/>
<path d="M286.229 133.945H240.034C236.863 133.945 234.293 136.516 234.293 139.687V182.277C234.293 185.448 236.863 188.019 240.034 188.019H286.229C289.4 188.019 291.97 185.448 291.97 182.277V139.687C291.97 136.516 289.4 133.945 286.229 133.945Z" fill="white"/>
<path d="M284.427 160.976C284.429 165.19 283.182 169.311 280.842 172.815C278.502 176.32 275.176 179.053 271.283 180.666C267.39 182.28 263.106 182.703 258.973 181.881C254.839 181.06 251.043 179.031 248.063 176.051C245.083 173.071 243.054 169.275 242.233 165.141C241.411 161.008 241.834 156.724 243.448 152.831C245.062 148.939 247.794 145.612 251.299 143.272C254.804 140.933 258.924 139.685 263.138 139.688C268.784 139.688 274.199 141.93 278.191 145.923C282.184 149.915 284.427 155.33 284.427 160.976Z" fill="url(#paint31_linear_1387_2947)"/>
<path d="M270.283 152.166C270.283 153.583 269.863 154.967 269.076 156.145C268.289 157.322 267.17 158.24 265.862 158.781C264.553 159.322 263.113 159.463 261.724 159.186C260.335 158.909 259.059 158.226 258.059 157.224C257.058 156.221 256.377 154.945 256.103 153.555C255.828 152.166 255.971 150.726 256.515 149.418C257.059 148.11 257.978 146.993 259.157 146.208C260.336 145.423 261.721 145.005 263.137 145.008C265.034 145.011 266.851 145.767 268.191 147.109C269.531 148.451 270.283 150.27 270.283 152.166Z" fill="url(#paint32_linear_1387_2947)"/>
<path d="M261.97 160.642H264.306C267.243 160.642 270.059 161.808 272.136 163.885C274.213 165.961 275.379 168.778 275.379 171.715V174.387C275.379 174.809 275.212 175.213 274.913 175.512C274.615 175.81 274.21 175.978 273.789 175.978H252.487C252.062 175.978 251.654 175.809 251.354 175.508C251.053 175.207 250.884 174.8 250.884 174.374V171.715C250.884 170.26 251.171 168.819 251.728 167.474C252.285 166.13 253.102 164.909 254.132 163.88C255.161 162.852 256.383 162.037 257.728 161.481C259.073 160.925 260.514 160.64 261.97 160.642Z" fill="url(#paint33_linear_1387_2947)"/>
<path d="M391.48 0H324.904C319.647 0 315.385 4.26213 315.385 9.51973V70.2422C315.385 75.4998 319.647 79.7619 324.904 79.7619H391.48C396.738 79.7619 401 75.4998 401 70.2422V9.51973C401 4.26213 396.738 0 391.48 0Z" fill="#D6D6D6" fill-opacity="0.15"/>
<path d="M382.035 15.9932H334.374C332.851 15.9932 331.615 17.2284 331.615 18.7521V54.4698C331.615 55.9935 332.851 57.2288 334.374 57.2288H382.035C383.559 57.2288 384.794 55.9935 384.794 54.4698V18.7521C384.794 17.2284 383.559 15.9932 382.035 15.9932Z" fill="url(#paint34_linear_1387_2947)"/>
<path d="M352.097 37.2829V29.2048C352.088 28.9389 352.152 28.6757 352.283 28.4443C352.415 28.2129 352.607 28.0223 352.84 27.8936C353.073 27.765 353.337 27.7033 353.603 27.7154C353.869 27.7274 354.126 27.8128 354.346 27.962L366.115 36.0525C366.305 36.1855 366.46 36.3622 366.567 36.5677C366.674 36.7733 366.73 37.0015 366.73 37.2332C366.73 37.4649 366.674 37.6931 366.567 37.8987C366.46 38.1042 366.305 38.2809 366.115 38.4138L354.346 46.5044C354.127 46.6585 353.869 46.7479 353.601 46.7624C353.334 46.7769 353.067 46.7159 352.833 46.5863C352.598 46.4567 352.405 46.2638 352.275 46.0295C352.145 45.7953 352.083 45.5292 352.097 45.2616V37.2829Z" fill="white"/>
<path d="M315.161 37.7412H292.182C290.689 37.7412 289.257 38.3343 288.201 39.3901C287.145 40.4459 286.552 41.8779 286.552 43.371V81.8973" stroke="#E14B2C" stroke-width="1.35464" stroke-miterlimit="10"/>
<path d="M291.449 81.7245C291.451 82.6616 291.175 83.5782 290.657 84.3586C290.138 85.1389 289.399 85.7477 288.534 86.108C287.669 86.4683 286.717 86.5638 285.797 86.3825C284.878 86.2012 284.033 85.7512 283.37 85.0895C282.706 84.4278 282.254 83.5841 282.07 82.6653C281.887 81.7465 281.98 80.7938 282.338 79.9278C282.696 79.0619 283.303 78.3217 284.082 77.8008C284.861 77.28 285.776 77.002 286.714 77.002C287.335 77.0003 287.95 77.1213 288.525 77.3579C289.099 77.5945 289.621 77.9421 290.061 78.3808C290.501 78.8195 290.85 79.3406 291.088 79.9144C291.326 80.4882 291.449 81.1033 291.449 81.7245Z" fill="white"/>
<g style="mix-blend-mode:multiply">
<g style="mix-blend-mode:multiply">
<path d="M106.501 240.798C106.481 239.164 106.14 237.551 105.497 236.05C104.853 234.549 103.92 233.189 102.751 232.049C101.582 230.908 100.199 230.01 98.6827 229.404C97.1659 228.798 95.5446 228.497 93.9115 228.519C92.5183 228.51 91.1331 228.728 89.8103 229.165C89.0698 229.27 88.3706 229.57 87.7845 230.035L87.3371 230.296C86.8152 223.361 80.6758 217.868 73.1694 217.868C65.315 217.868 58.9519 223.846 58.9519 231.228C58.952 231.689 58.9769 232.149 59.0265 232.608C56.7656 231.178 54.0312 230.702 51.42 231.281C48.8089 231.861 46.5329 233.449 45.0889 235.701C43.6448 237.952 43.1499 240.683 43.7122 243.298C44.2744 245.913 45.8482 248.2 48.09 249.659L48.2391 249.795H102.412C103.69 248.669 104.715 247.285 105.42 245.734C106.125 244.183 106.493 242.501 106.501 240.798Z" fill="#EDE5FC"/>
</g>
</g>
<g style="mix-blend-mode:multiply">
<path d="M79.669 255.24V238.238H70.373V255.24H66.7068L75.021 262.348L83.3228 255.24H79.669Z" fill="#EDE5FC"/>
</g>
<path d="M107.855 239.78C107.836 238.146 107.495 236.533 106.851 235.032C106.208 233.531 105.275 232.171 104.106 231.031C102.936 229.89 101.554 228.992 100.037 228.386C98.5202 227.78 96.8989 227.479 95.2658 227.501C93.8879 227.504 92.5197 227.731 91.2143 228.172C90.4747 228.272 89.7753 228.568 89.1886 229.029L88.7287 229.303C88.2068 222.368 82.0798 216.875 74.5734 216.875C66.719 216.875 60.356 222.853 60.356 230.235C60.3538 230.708 60.3787 231.181 60.4305 231.652C58.1697 230.223 55.4353 229.746 52.8241 230.325C50.2129 230.905 47.937 232.494 46.4929 234.745C45.0489 236.996 44.554 239.728 45.1162 242.342C45.6785 244.957 47.2522 247.244 49.494 248.703L49.6432 248.852H103.766C105.052 247.716 106.081 246.319 106.786 244.755C107.491 243.191 107.855 241.495 107.855 239.78Z" fill="#A1C3F8" fill-opacity="0.8"/>
<path d="M81.0111 254.232V237.219H71.7275V254.232H68.0613L76.3755 261.341L84.6773 254.232H81.0111Z" fill="#006A4E"/>
<path d="M319.821 335.028H277.765C277.357 335.028 276.953 334.948 276.576 334.792C276.199 334.636 275.857 334.407 275.568 334.118C275.28 333.83 275.051 333.487 274.895 333.11C274.739 332.733 274.658 332.329 274.658 331.921C274.658 331.097 274.986 330.307 275.568 329.724C276.151 329.142 276.941 328.814 277.765 328.814H319.821C320.645 328.814 321.435 329.142 322.018 329.724C322.601 330.307 322.928 331.097 322.928 331.921C322.928 332.329 322.848 332.733 322.691 333.11C322.535 333.487 322.306 333.83 322.018 334.118C321.729 334.407 321.387 334.636 321.01 334.792C320.633 334.948 320.229 335.028 319.821 335.028Z" fill="#777085"/>
<defs>
<linearGradient id="paint0_linear_1387_2947" x1="43618.5" y1="21758.2" x2="44195.8" y2="33955.1" gradientUnits="userSpaceOnUse">
<stop stop-color="#B493F9"/>
<stop offset="1" stop-color="#651AEC"/>
</linearGradient>
<linearGradient id="paint1_linear_1387_2947" x1="19270.7" y1="17468.3" x2="19347.9" y2="20814.2" gradientUnits="userSpaceOnUse">
<stop stop-color="#B493F9"/>
<stop offset="1" stop-color="#651AEC"/>
</linearGradient>
<linearGradient id="paint2_linear_1387_2947" x1="10212.5" y1="5496.94" x2="10344.6" y2="12749.7" gradientUnits="userSpaceOnUse">
<stop stop-color="#B493F9"/>
<stop offset="1" stop-color="#651AEC"/>
</linearGradient>
<linearGradient id="paint3_linear_1387_2947" x1="169.991" y1="111.911" x2="171.806" y2="236.749" gradientUnits="userSpaceOnUse">
<stop stop-color="#23D0DC"/>
<stop offset="1" stop-color="#2790F1"/>
</linearGradient>
<linearGradient id="paint4_linear_1387_2947" x1="13047.1" y1="11662.2" x2="12808.7" y2="14379.9" gradientUnits="userSpaceOnUse">
<stop stop-color="#F9B546"/>
<stop offset="1" stop-color="#F4642C"/>
</linearGradient>
<linearGradient id="paint5_linear_1387_2947" x1="14041.1" y1="660.524" x2="18331.4" y2="660.524" gradientUnits="userSpaceOnUse">
<stop stop-color="#23D0DC"/>
<stop offset="1" stop-color="#2790F1"/>
</linearGradient>
<linearGradient id="paint6_linear_1387_2947" x1="14041.1" y1="689.839" x2="18331.4" y2="689.839" gradientUnits="userSpaceOnUse">
<stop stop-color="#23D0DC"/>
<stop offset="1" stop-color="#2790F1"/>
</linearGradient>
<linearGradient id="paint7_linear_1387_2947" x1="8934.04" y1="723.844" x2="10665.9" y2="723.844" gradientUnits="userSpaceOnUse">
<stop stop-color="#23D0DC"/>
<stop offset="1" stop-color="#2790F1"/>
</linearGradient>
<linearGradient id="paint8_linear_1387_2947" x1="8934.04" y1="755.499" x2="10665.9" y2="755.499" gradientUnits="userSpaceOnUse">
<stop stop-color="#23D0DC"/>
<stop offset="1" stop-color="#2790F1"/>
</linearGradient>
<linearGradient id="paint9_linear_1387_2947" x1="22343.2" y1="610.193" x2="24771.7" y2="610.193" gradientUnits="userSpaceOnUse">
<stop stop-color="#23D0DC"/>
<stop offset="1" stop-color="#2790F1"/>
</linearGradient>
<linearGradient id="paint10_linear_1387_2947" x1="22343.2" y1="637.045" x2="24771.7" y2="637.045" gradientUnits="userSpaceOnUse">
<stop stop-color="#23D0DC"/>
<stop offset="1" stop-color="#2790F1"/>
</linearGradient>
<linearGradient id="paint11_linear_1387_2947" x1="22343.3" y1="663.907" x2="24771.8" y2="663.907" gradientUnits="userSpaceOnUse">
<stop stop-color="#23D0DC"/>
<stop offset="1" stop-color="#2790F1"/>
</linearGradient>
<linearGradient id="paint12_linear_1387_2947" x1="16362" y1="690.747" x2="17652.2" y2="690.747" gradientUnits="userSpaceOnUse">
<stop stop-color="#23D0DC"/>
<stop offset="1" stop-color="#2790F1"/>
</linearGradient>
<linearGradient id="paint13_linear_1387_2947" x1="12274.8" y1="717.571" x2="12991.8" y2="717.571" gradientUnits="userSpaceOnUse">
<stop stop-color="#23D0DC"/>
<stop offset="1" stop-color="#2790F1"/>
</linearGradient>
<linearGradient id="paint14_linear_1387_2947" x1="9631.51" y1="7418.82" x2="11811.3" y2="7418.82" gradientUnits="userSpaceOnUse">
<stop stop-color="#B493F9"/>
<stop offset="1" stop-color="#651AEC"/>
</linearGradient>
<linearGradient id="paint15_linear_1387_2947" x1="9345.25" y1="3883.95" x2="9355.39" y2="4435.99" gradientUnits="userSpaceOnUse">
<stop stop-color="#23D0DC"/>
<stop offset="1" stop-color="#2790F1"/>
</linearGradient>
<linearGradient id="paint16_linear_1387_2947" x1="56.2519" y1="88.6839" x2="57.0348" y2="115.603" gradientUnits="userSpaceOnUse">
<stop stop-color="#FC8190"/>
<stop offset="1" stop-color="#F9394A"/>
</linearGradient>
<linearGradient id="paint17_linear_1387_2947" x1="12203.8" y1="7418.82" x2="14383.6" y2="7418.82" gradientUnits="userSpaceOnUse">
<stop stop-color="#B493F9"/>
<stop offset="1" stop-color="#651AEC"/>
</linearGradient>
<linearGradient id="paint18_linear_1387_2947" x1="5438.04" y1="952.282" x2="5437.57" y2="885.015" gradientUnits="userSpaceOnUse">
<stop stop-color="#FC8190"/>
<stop offset="1" stop-color="#F9394A"/>
</linearGradient>
<linearGradient id="paint19_linear_1387_2947" x1="6588.38" y1="4401.83" x2="6569.63" y2="4714.48" gradientUnits="userSpaceOnUse">
<stop stop-color="#FC8190"/>
<stop offset="1" stop-color="#F9394A"/>
</linearGradient>
<linearGradient id="paint20_linear_1387_2947" x1="2974.33" y1="654.328" x2="2976.37" y2="924.462" gradientUnits="userSpaceOnUse">
<stop stop-color="#F9B546"/>
<stop offset="1" stop-color="#F4642C"/>
</linearGradient>
<linearGradient id="paint21_linear_1387_2947" x1="4773.49" y1="1754.09" x2="4783.02" y2="2489.76" gradientUnits="userSpaceOnUse">
<stop stop-color="#F9B546"/>
<stop offset="1" stop-color="#F4642C"/>
</linearGradient>
<linearGradient id="paint22_linear_1387_2947" x1="2431.99" y1="1222.18" x2="2441.91" y2="1733.39" gradientUnits="userSpaceOnUse">
<stop stop-color="#F9B546"/>
<stop offset="1" stop-color="#F4642C"/>
</linearGradient>
<linearGradient id="paint23_linear_1387_2947" x1="1762.19" y1="716.674" x2="1766.9" y2="1013.55" gradientUnits="userSpaceOnUse">
<stop stop-color="#F9B546"/>
<stop offset="1" stop-color="#F4642C"/>
</linearGradient>
<linearGradient id="paint24_linear_1387_2947" x1="21869.5" y1="805.44" x2="24298" y2="805.44" gradientUnits="userSpaceOnUse">
<stop stop-color="#EDE5FC"/>
<stop offset="1" stop-color="#DCD0F7"/>
</linearGradient>
<linearGradient id="paint25_linear_1387_2947" x1="21869.5" y1="832.29" x2="24298" y2="832.29" gradientUnits="userSpaceOnUse">
<stop stop-color="#EDE5FC"/>
<stop offset="1" stop-color="#DCD0F7"/>
</linearGradient>
<linearGradient id="paint26_linear_1387_2947" x1="16013.9" y1="859.143" x2="17304.1" y2="859.143" gradientUnits="userSpaceOnUse">
<stop stop-color="#EDE5FC"/>
<stop offset="1" stop-color="#DCD0F7"/>
</linearGradient>
<linearGradient id="paint27_linear_1387_2947" x1="16093.9" y1="9521.74" x2="16077.6" y2="11262.2" gradientUnits="userSpaceOnUse">
<stop stop-color="#EDE5FC"/>
<stop offset="1" stop-color="#DCD0F7"/>
</linearGradient>
<linearGradient id="paint28_linear_1387_2947" x1="14284.6" y1="5558.01" x2="14291.7" y2="5949.52" gradientUnits="userSpaceOnUse">
<stop stop-color="#23D0DC"/>
<stop offset="1" stop-color="#2790F1"/>
</linearGradient>
<linearGradient id="paint29_linear_1387_2947" x1="2767.62" y1="1700.63" x2="2771.24" y2="1825.37" gradientUnits="userSpaceOnUse">
<stop stop-color="#FC8190"/>
<stop offset="1" stop-color="#F9394A"/>
</linearGradient>
<linearGradient id="paint30_linear_1387_2947" x1="43556.3" y1="2722.1" x2="56235.2" y2="2722.1" gradientUnits="userSpaceOnUse">
<stop stop-color="#23D0DC"/>
<stop offset="1" stop-color="#2790F1"/>
</linearGradient>
<linearGradient id="paint31_linear_1387_2947" x1="15940.5" y1="7443.06" x2="16079.8" y2="8516.65" gradientUnits="userSpaceOnUse">
<stop stop-color="#EDE5FC"/>
<stop offset="1" stop-color="#DCD0F7"/>
</linearGradient>
<linearGradient id="paint32_linear_1387_2947" x1="5548.35" y1="2580.16" x2="5554.79" y2="3017.4" gradientUnits="userSpaceOnUse">
<stop stop-color="#B493F9"/>
<stop offset="1" stop-color="#651AEC"/>
</linearGradient>
<linearGradient id="paint33_linear_1387_2947" x1="9299.94" y1="2768.98" x2="9304.17" y2="3237.25" gradientUnits="userSpaceOnUse">
<stop stop-color="#B493F9"/>
<stop offset="1" stop-color="#651AEC"/>
</linearGradient>
<linearGradient id="paint34_linear_1387_2947" x1="24016.9" y1="2962.69" x2="24109.9" y2="4327.22" gradientUnits="userSpaceOnUse">
<stop stop-color="#FC8190"/>
<stop offset="1" stop-color="#F9394A"/>
</linearGradient>
</defs>
</svg>
