<svg width="20" height="20" viewBox="0 0 20 20" fill="none" xmlns="http://www.w3.org/2000/svg">
<path d="M8.82515 14.1671L12.3585 10.5921C12.4366 10.5146 12.4986 10.4224 12.5409 10.3209C12.5832 10.2193 12.605 10.1104 12.605 10.0004C12.605 9.89039 12.5832 9.78147 12.5409 9.67992C12.4986 9.57837 12.4366 9.48621 12.3585 9.40874L8.82515 5.8754C8.74768 5.7973 8.65551 5.7353 8.55396 5.69299C8.45241 5.65069 8.34349 5.62891 8.23348 5.62891C8.12347 5.62891 8.01455 5.65069 7.913 5.69299C7.81145 5.7353 7.71928 5.7973 7.64182 5.8754C7.48661 6.03154 7.39949 6.24275 7.39949 6.4629C7.39949 6.68306 7.48661 6.89427 7.64182 7.0504L10.5918 10.0004L7.64181 12.9504C7.48786 13.1056 7.40107 13.3151 7.40015 13.5337C7.39951 13.6434 7.42053 13.7521 7.462 13.8537C7.50348 13.9552 7.56458 14.0475 7.64181 14.1254C7.7165 14.2063 7.80647 14.2716 7.90653 14.3175C8.00659 14.3634 8.11476 14.3891 8.22479 14.393C8.33482 14.3968 8.44453 14.3789 8.54758 14.3401C8.65062 14.3013 8.74496 14.2425 8.82515 14.1671Z" fill="white"/>
</svg>
