<svg width="302" height="701" viewBox="0 0 302 701" fill="none" xmlns="http://www.w3.org/2000/svg">
<g clip-path="url(#clip0)">
<path d="M39.6516 47.2648C35.089 48.4037 31.0968 49.5426 26.5342 50.6815C25.3935 53.5288 24.2529 56.376 22.5419 59.2233C30.5264 56.376 38.511 54.0982 47.0658 52.3899C44.7845 51.2509 41.9329 49.5426 39.6516 47.2648Z" fill="#006A4E"/>
<path d="M-4.83342 63.7794C-4.2631 64.9183 -3.12245 66.0572 -1.98181 67.1961C4.29174 64.9183 9.99496 60.3626 13.4169 55.2375C15.1279 52.3903 16.8388 48.9735 17.9795 45.5568C17.9795 44.4179 18.5498 43.279 18.5498 42.1401C19.6904 33.5982 17.4092 24.4869 11.7059 17.084C2.01045 20.5007 -5.40374 28.4731 -8.25536 38.7233C-9.396 43.8484 -9.396 49.543 -8.25536 54.0986C-7.68503 58.0848 -6.54439 60.9321 -4.83342 63.7794Z" fill="#E08433"/>
<path d="M243.827 499.982L243.257 499.413L223.866 480.051C222.155 481.76 219.874 482.899 217.592 484.037C218.163 485.746 219.303 488.024 219.874 489.732L222.155 496.565L224.436 502.83L219.874 507.385L214.17 512.51C213.03 513.08 212.459 514.219 211.319 514.788C203.905 581.414 148.013 630.957 80.7149 630.957C13.4169 630.957 -42.4748 580.845 -49.889 514.788C-51.0296 514.219 -51.5999 513.08 -52.7406 512.51L-58.4438 507.385L-63.0064 502.83L-60.7251 496.565L-58.4438 489.732C-57.8735 488.024 -57.3031 485.746 -56.1625 484.037C-58.4438 482.899 -60.1548 481.19 -62.436 480.051L-81.827 499.413L-82.3973 499.982C-70.9909 580.845 -1.98185 640.638 80.7149 640.638C163.412 641.207 232.421 580.845 243.827 499.982Z" fill="#E08433"/>
<path d="M53.3394 656.013C50.4878 657.721 47.6362 659.43 44.7846 661.708C44.2143 662.277 43.0736 663.416 42.5033 663.985C36.8001 671.388 34.5188 680.5 35.6594 689.611C45.9252 691.319 56.191 687.903 63.6052 681.069C67.5975 677.083 69.8788 672.527 71.5897 667.972C72.7304 664.555 73.3007 661.138 72.7304 657.721C72.7304 656.013 72.7304 654.305 72.1601 653.166C66.4569 652.027 59.613 653.166 53.3394 656.013Z" fill="#E08433"/>
<path d="M47.6362 648.041C39.0814 646.333 31.0969 644.055 23.1124 641.207C24.8233 644.055 25.964 646.902 27.1046 649.749C31.0969 650.888 35.6595 652.027 40.222 653.166C41.933 651.458 44.7846 649.749 47.6362 648.041Z" fill="#006A4E"/>
<path d="M45.3549 38.7228C47.6362 41.0007 50.4878 43.2785 53.9097 44.4174C60.1833 47.2647 67.0272 48.4036 73.871 47.2647C73.871 45.5563 74.4413 43.8479 74.4413 42.709C74.4413 39.2923 73.871 35.8755 73.3007 32.4588C71.5898 27.3337 69.3085 22.7781 65.3162 19.3613C57.902 11.9584 47.6362 8.54167 37.3704 10.8195C35.6594 19.9308 37.9407 29.0421 44.2143 36.445C43.6439 37.0145 44.2143 37.5839 45.3549 38.7228Z" fill="#006A4E"/>
<path d="M17.9794 654.875C16.8388 651.458 15.6981 648.041 13.4168 645.194C9.42459 639.499 4.29169 635.513 -1.98185 633.235C-3.1225 634.374 -3.69282 635.513 -4.83347 636.652C-6.54444 639.499 -7.68508 642.916 -8.82573 645.763C-9.96637 650.888 -9.96637 656.013 -8.82573 661.139C-5.97412 671.389 1.44008 679.361 11.1356 682.778C16.8388 675.944 19.6904 666.264 17.9794 657.152C18.5498 657.152 17.9794 656.013 17.9794 654.875Z" fill="#006A4E"/>
<path d="M-81.827 201.018H-60.725L-62.436 195.324L-57.8734 190.768L-52.1702 185.643C-51.0295 184.504 -49.8889 183.934 -49.3186 183.365C-40.7637 117.878 13.9872 68.9043 80.715 68.9043C147.443 68.9043 202.764 117.878 210.749 183.365C211.889 183.934 213.03 185.073 213.6 185.643L219.303 190.768L223.866 195.324L222.155 201.018H243.257C231.85 120.155 162.841 59.793 80.1446 59.793C-1.98182 59.793 -70.9908 120.155 -81.827 201.018Z" fill="#E08433"/>
<path d="M108.09 44.4177C110.942 42.7093 113.794 41.001 116.645 38.7231C117.215 38.1537 118.356 37.0148 118.926 36.4453C124.63 29.0424 126.911 19.9311 125.77 10.8198C115.505 9.11144 105.239 12.5282 97.8245 19.3616C93.8323 23.3478 91.551 27.9035 89.84 32.4591C88.6993 35.8759 88.129 39.2926 88.129 42.7093C88.129 44.4177 88.129 46.1261 88.6993 47.265C95.5432 48.4039 102.387 47.265 108.09 44.4177Z" fill="#E08433"/>
<path d="M114.364 52.9595C122.919 54.6678 130.904 56.9457 138.888 59.7929C137.177 56.9457 136.036 54.0984 134.896 51.2511C130.903 50.1122 126.341 48.9733 121.778 47.8344C120.067 49.5427 117.216 51.2511 114.364 52.9595Z" fill="#006A4E"/>
<path d="M226.147 101.933C225.006 105.919 225.006 110.475 225.577 114.461C226.147 120.155 228.999 125.85 232.421 130.405C233.561 129.836 234.132 129.836 235.272 129.267C238.124 127.558 240.975 125.85 243.827 123.572C247.819 119.586 251.241 114.461 252.382 108.766C255.233 98.516 252.382 88.2657 246.108 80.2934C236.983 83.7101 230.139 91.113 226.717 100.224C226.717 100.224 226.147 100.794 226.147 101.933Z" fill="#006A4E"/>
<path d="M14.5574 116.169L5.43224 105.35C-1.98195 111.614 -9.39614 118.447 -15.0994 126.42L-1.41163 134.392C3.15095 127.558 8.28386 121.864 14.5574 116.169Z" fill="#006A4E"/>
<path d="M144.021 46.1262C145.161 49.543 146.302 52.9597 148.583 55.807C152.576 61.5016 157.709 65.4877 163.982 67.7656C165.123 66.6267 165.693 65.4877 166.834 64.3488C168.545 61.5016 169.685 58.0848 170.826 55.2375C171.967 50.1124 171.967 44.9873 170.826 39.8622C167.974 29.0426 159.99 20.5007 150.294 17.084C144.591 23.9175 141.74 33.5982 143.451 42.7095C143.451 43.8484 144.021 44.9873 144.021 46.1262Z" fill="#006A4E"/>
<path d="M206.186 81.4324C206.756 81.4324 207.897 80.863 208.467 80.863C217.592 77.4462 224.436 70.6128 227.858 61.5015C219.874 54.668 209.037 52.3902 199.342 55.2375C194.209 56.3764 189.646 59.2237 185.654 63.2098C183.373 65.4877 181.092 68.3349 179.381 71.1822C178.81 72.3211 178.24 74.0295 177.67 75.1684C182.803 79.1546 188.506 82.0019 195.35 82.5713C198.772 83.1408 202.194 82.5713 206.186 81.4324Z" fill="#E08433"/>
<path d="M197.631 92.8212C197.061 92.8212 196.49 92.8212 195.92 92.8212C202.764 98.5157 209.038 105.349 214.741 112.183C214.741 109.335 214.741 105.919 215.311 103.071C211.889 99.6546 208.467 95.6684 205.045 92.8212C202.764 92.2517 200.483 92.8212 197.631 92.8212Z" fill="#006A4E"/>
<path d="M195.92 162.295C192.498 152.614 188.506 142.934 182.803 134.392L168.545 142.364C172.537 149.198 175.389 157.17 177.67 165.142L195.92 162.295Z" fill="#006A4E"/>
<path d="M123.489 86.557L118.927 98.5156C126.341 101.363 133.185 105.349 140.028 109.905L148.583 99.6545C140.599 94.5294 132.044 89.9738 123.489 86.557Z" fill="#006A4E"/>
<path d="M156.568 105.919L147.443 116.738C153.716 121.864 158.849 128.128 163.412 134.961L177.099 126.989C171.396 119.016 164.552 111.613 156.568 105.919Z" fill="#E08433"/>
<path d="M198.772 171.976L190.787 173.684C194.209 174.253 197.061 175.392 199.912 176.531C199.342 175.392 199.342 173.684 198.772 171.976Z" fill="#E08433"/>
<path d="M76.1524 79.1546C66.4569 79.724 57.3317 80.863 48.7769 83.7102L52.7691 95.0994C60.1833 92.8215 68.1678 91.6826 76.1524 91.1132V79.1546Z" fill="#006A4E"/>
<path d="M43.0736 98.5156L38.511 86.557C29.3858 89.9738 20.831 93.96 13.4168 99.6545L21.9716 109.905C28.8155 105.349 35.6594 101.363 43.0736 98.5156Z" fill="#E08433"/>
<path d="M85.8479 79.1546V91.1132C93.8324 91.6826 101.817 92.8215 109.231 95.0994L113.223 83.7102C104.669 81.4324 95.5434 79.724 85.8479 79.1546Z" fill="#E08433"/>
<path d="M176.529 218.102C184.514 215.824 190.787 210.699 193.639 203.296C187.365 198.74 178.81 197.032 171.396 199.31C163.412 201.587 157.138 206.713 154.286 214.115C160.56 218.671 168.545 220.38 176.529 218.102Z" fill="#E08433"/>
<path d="M148.583 349.646C148.583 371.855 137.747 391.216 121.208 403.744C150.294 394.633 176.529 375.841 194.209 349.646C176.529 323.451 150.864 304.659 121.208 295.548C137.747 308.076 148.583 327.437 148.583 349.646Z" fill="#E08433"/>
<path d="M-32.209 349.646C-14.529 375.841 11.1355 394.633 40.7923 403.744C24.2529 391.216 13.4168 371.855 13.4168 349.646C13.4168 327.437 24.2529 308.076 40.7923 295.548C11.1355 304.659 -14.529 323.451 -32.209 349.646Z" fill="#E08433"/>
<path d="M23.6827 349.646C23.6827 381.536 49.3472 407.161 81.2853 407.161C113.223 407.161 138.888 381.536 138.888 349.646C138.888 317.757 113.223 292.131 81.2853 292.131C49.3472 292.131 23.6827 317.757 23.6827 349.646ZM80.715 312.062C101.247 312.062 118.356 328.576 118.356 349.646C118.356 370.147 101.817 387.23 80.715 387.23C60.1834 387.23 43.0737 370.716 43.0737 349.646C43.644 328.576 60.1834 312.062 80.715 312.062Z" fill="#F9F9F4"/>
<path d="M33.378 190.198C35.6593 182.226 33.9483 174.253 29.3857 167.989C21.9715 171.406 16.8386 177.67 14.5573 185.073C12.2761 193.045 13.987 201.018 18.5496 207.282C25.9638 204.435 31.667 198.171 33.378 190.198Z" fill="#E08433"/>
<path d="M142.88 207.851C147.443 201.587 149.154 193.046 146.872 185.643C144.591 177.67 139.458 171.406 132.044 168.559C127.481 174.823 125.77 183.365 128.052 190.768C130.333 198.171 136.036 204.435 142.88 207.851Z" fill="#E08433"/>
<path d="M254.093 171.406C251.241 170.267 248.96 168.559 246.679 166.851C250.101 177.67 252.952 189.059 254.663 201.018H260.366C258.655 190.768 256.944 181.087 254.093 171.406Z" fill="#006A4E"/>
<path d="M217.592 226.074C213.6 222.657 208.467 220.379 203.904 218.671C206.756 214.685 209.037 210.129 210.748 205.573L213.03 198.74L207.326 193.615C199.342 186.212 189.076 182.226 178.24 182.226C174.248 182.226 170.826 182.795 166.833 183.934C165.693 184.504 164.552 184.504 163.412 185.073C163.412 183.934 162.841 182.795 162.841 181.656C158.849 167.42 148.583 156.031 134.325 151.475L127.481 149.197L122.348 154.892C114.934 163.434 110.942 173.684 110.942 184.504C101.246 181.087 90.9806 179.378 80.7148 179.378C70.449 179.378 60.1832 181.087 50.4877 184.504C50.4877 173.684 46.4954 162.864 39.0812 154.892L33.9483 149.197L27.1044 151.475C12.8464 156.031 2.58057 167.42 -1.4117 181.656C-1.98202 182.795 -1.98201 183.934 -1.98201 185.073C-3.12266 184.504 -4.26331 184.504 -5.40395 183.934C-9.3962 182.795 -12.8181 182.226 -16.8104 182.226C-27.6465 182.226 -37.9123 186.212 -45.8969 193.615L-51.6001 198.74L-49.3188 205.573C-47.6078 210.129 -45.3265 214.685 -42.4749 218.671C-47.6078 220.379 -52.1704 223.227 -56.1627 226.074V211.268H-121.179V459.551L-88.6711 492.579L-63.0065 466.954C-57.3033 473.218 -49.8891 477.773 -41.9046 480.62C-44.7562 484.607 -47.0375 489.162 -48.7485 493.718L-51.0298 500.551L-45.3265 505.677C-37.342 513.079 -26.5059 517.066 -16.2401 517.066C-12.8181 517.066 -8.82588 516.496 -5.40395 515.357C-4.26331 514.788 -3.12266 514.788 -1.98201 514.218C-1.98201 515.357 -1.4117 516.496 -1.4117 517.635C2.58057 531.871 12.8464 543.261 27.1044 547.816L33.9483 550.094L39.0812 544.399C46.4954 535.858 50.4877 525.607 50.4877 514.788C60.1832 518.205 70.449 519.913 80.7148 519.913C90.9806 519.913 101.246 518.205 110.942 514.788C110.942 525.607 114.934 536.427 122.348 544.399L127.481 550.094L134.325 547.816C148.583 543.261 158.849 531.871 162.841 517.635C163.412 516.496 163.412 515.357 163.412 514.218C164.552 514.788 165.693 514.788 166.833 515.357C170.255 516.496 174.248 517.066 177.67 517.066C188.506 517.066 198.772 513.079 206.756 505.677L212.459 500.551L210.178 493.718C208.467 489.162 206.186 484.607 203.334 480.62C211.319 477.773 218.163 473.218 224.436 466.954L250.101 492.579L283.179 459.551V211.268H217.592V226.074ZM223.866 241.449V217.532H276.906V457.273L250.101 484.037L223.866 457.842C216.452 468.092 204.475 475.495 191.357 477.773C197.631 482.329 202.193 488.593 204.475 495.996L205.615 498.843L203.334 501.121C196.49 507.385 187.365 510.802 178.81 510.802C175.388 510.802 172.537 510.232 169.115 509.663C165.123 508.524 161.701 506.815 158.279 504.538C158.279 508.524 158.279 512.51 157.138 516.496C153.716 528.455 144.591 538.136 132.614 542.122L129.763 543.261L127.481 540.983C118.926 531.872 116.075 518.774 118.926 506.815C118.926 506.246 119.497 505.677 119.497 505.107C108.09 510.802 94.9728 514.218 81.2851 514.218C67.5973 514.218 54.4799 510.802 43.0735 505.107C43.0735 505.677 43.6438 506.246 43.6438 506.815C47.0657 518.774 43.6438 531.872 35.089 540.983L32.8077 543.261L29.9561 542.122C17.9793 538.136 8.85411 528.455 5.43218 516.496C4.29153 512.51 4.29153 508.524 4.29153 504.538C0.869598 506.815 -2.55234 508.524 -6.54459 509.663C-9.96653 510.232 -12.8181 510.802 -16.2401 510.802C-25.3652 510.802 -33.9201 507.385 -40.764 501.121L-43.0452 498.843L-41.9046 495.996C-39.6233 488.593 -35.0607 482.329 -28.7872 477.773C-41.9046 475.495 -53.8814 468.662 -61.2956 457.842L-88.6711 483.468L-115.476 456.703V454.426V217.532H-62.4362V241.449C-55.022 231.199 -43.0452 224.365 -29.9278 222.088C-36.2014 217.532 -40.764 211.268 -43.0452 203.865L-44.1859 201.018L-41.9046 198.74C-32.7794 190.198 -19.662 187.351 -7.68523 190.198C-3.69298 191.337 -0.271042 193.045 3.15089 195.323C3.15089 191.337 3.15089 187.351 4.29153 183.365C7.71347 171.406 16.8386 161.725 28.8154 157.739L31.667 156.6L33.9483 158.878C42.5031 167.989 45.3548 181.087 42.5031 193.045C42.5031 193.615 41.9328 194.184 41.9328 194.754C53.3393 189.059 66.4567 185.642 80.1444 185.642C93.8322 185.642 106.95 189.059 118.356 194.754C118.356 194.184 117.786 193.615 117.786 193.045C114.364 181.087 117.786 167.989 126.341 158.878L128.622 156.6L131.473 157.739C143.45 161.725 152.575 171.406 155.997 183.365C157.138 187.351 157.138 191.337 157.138 195.323C160.56 193.045 163.982 191.337 167.974 190.198C179.951 186.781 193.068 190.198 202.193 198.74L204.475 201.018L203.334 203.865C201.053 211.268 196.49 217.532 190.217 222.088C204.475 223.796 216.452 231.199 223.866 241.449Z" fill="#006A4E"/>
<path d="M157.708 240.88L152.575 245.436L149.724 239.172C137.177 212.407 110.372 195.324 81.2851 195.324C52.1987 195.324 24.8232 212.407 12.8464 239.172L9.99479 245.436L4.86189 240.88C-2.55231 234.616 -11.6775 231.199 -21.373 231.199C-43.6155 231.199 -61.2955 248.852 -61.2955 271.061C-61.2955 293.27 -43.6155 310.923 -21.373 310.923C-18.5213 310.923 -16.24 310.923 -13.3884 310.354C-10.5368 309.784 -7.68521 308.645 -5.40392 307.506C-0.841335 304.09 3.72124 301.242 8.28383 298.395C-8.25553 296.687 -23.0839 285.867 -30.4981 271.061L-21.373 267.075C-15.0994 280.742 -1.41166 289.284 13.4167 289.284C26.5341 289.284 38.5109 282.45 45.9251 271.631C41.3625 267.075 37.3703 261.95 34.5187 256.255L43.6438 252.269C50.4877 267.075 65.3161 276.186 81.2851 276.186C97.2542 276.186 112.083 266.505 118.926 252.269L128.052 256.255C125.2 261.95 121.778 267.075 117.215 271.631C124.059 282.45 136.606 289.853 149.724 289.853C164.552 289.853 178.24 281.311 184.514 267.644L193.639 271.631C186.224 287.006 171.396 297.256 154.857 299.534C159.419 302.381 163.982 305.228 168.544 308.645C171.396 309.784 173.677 310.923 176.529 311.492C178.81 312.062 181.662 312.062 184.514 312.062C206.756 312.062 224.436 294.409 224.436 272.2C224.436 249.991 206.756 232.338 184.514 232.338C174.248 231.199 165.123 234.616 157.708 240.88Z" fill="#F9F9F4"/>
<path d="M268.921 137.239C263.218 135.53 256.945 136.1 251.812 137.808C248.39 138.947 245.538 140.086 242.686 142.364C242.116 142.933 240.975 143.503 240.405 144.072C242.116 149.197 244.968 153.184 248.96 156.6C252.382 160.017 256.945 162.295 262.077 163.434C272.343 166.281 282.609 163.434 290.594 157.17C287.172 147.489 279.187 140.086 268.921 137.239Z" fill="#E08433"/>
<path d="M-14.529 480.621C-22.5135 482.899 -28.7871 488.024 -31.6387 495.427C-25.3651 499.982 -16.8103 501.691 -9.39609 499.413C-1.41158 497.135 4.86197 492.01 7.71358 484.607C1.44004 480.051 -6.54448 478.912 -14.529 480.621Z" fill="#E08433"/>
<path d="M128.622 508.524C126.341 516.497 128.051 524.469 132.614 530.733C140.028 527.316 145.161 521.052 147.442 513.649C149.724 505.677 148.013 497.705 143.45 491.441C136.036 494.288 130.333 500.552 128.622 508.524Z" fill="#E08433"/>
<path d="M19.12 490.871C14.5574 497.135 12.8464 505.677 15.1277 513.08C17.409 521.052 22.5419 527.316 29.9561 530.163C34.5187 523.899 36.2297 515.358 33.9484 507.955C31.6671 500.552 25.9638 494.288 19.12 490.871Z" fill="#E08433"/>
<path d="M176.529 480.62C168.545 478.343 160.56 480.051 154.286 484.607C157.708 492.01 163.982 497.135 171.396 499.412C179.381 501.69 187.365 499.982 193.639 495.426C190.217 488.023 183.943 482.898 176.529 480.62Z" fill="#E08433"/>
<path d="M183.943 387.8C181.092 387.8 178.81 387.8 175.959 388.369C173.107 388.938 170.255 390.077 167.404 391.216C162.841 394.633 158.279 397.48 153.716 399.758C170.255 401.466 185.084 411.717 192.498 427.661L183.373 431.648C177.099 417.981 163.412 409.439 148.583 409.439C135.466 409.439 123.489 416.272 116.075 427.092C120.637 431.648 124.63 436.773 127.481 442.467L118.356 446.453C111.512 431.648 96.6838 422.536 80.7148 422.536C64.7458 422.536 49.9174 432.217 43.0735 446.453L33.9484 442.467C36.8 436.773 40.2219 431.648 44.7845 427.092C37.9406 416.272 25.3935 408.869 12.2761 408.869C-2.55228 408.869 -16.24 417.411 -22.5136 431.078L-31.6387 427.092C-24.2245 411.717 -9.39616 401.466 7.1432 399.189C2.58061 396.341 -1.98196 393.494 -6.54454 390.647C-9.39616 389.508 -12.2478 388.369 -15.0994 387.8C-17.3807 387.23 -20.2323 387.23 -23.0839 387.23C-45.3265 387.23 -63.0065 404.883 -63.0065 427.092C-63.0065 449.301 -45.3265 466.954 -23.0839 466.954C-13.3884 466.954 -4.26325 463.537 3.15095 457.273L8.28384 452.717L11.1355 458.981C23.6826 485.746 50.4877 502.83 79.5742 502.83C108.661 502.83 136.036 485.746 148.013 458.981L150.864 452.717L155.997 457.273C163.412 463.537 172.537 466.954 182.232 466.954C204.475 466.954 222.155 449.301 222.155 427.092C223.866 405.453 206.186 387.8 183.943 387.8Z" fill="#F9F9F4"/>
<path d="M183.943 321.173C191.357 328.576 198.772 337.118 204.475 346.798L206.186 349.646L204.475 352.493C198.201 362.174 191.357 370.146 183.373 378.118C199.912 378.118 214.17 386.091 223.296 398.049V301.242C214.741 313.2 200.483 321.173 183.943 321.173Z" fill="#006A4E"/>
<path d="M-14.529 218.102C-6.54448 220.38 1.44004 218.671 7.71358 214.115C4.29165 206.713 -1.9819 201.587 -9.39609 199.31C-17.3806 197.032 -25.3651 198.74 -31.6387 203.296C-28.2167 210.699 -21.9432 215.824 -14.529 218.102Z" fill="#E08433"/>
<path d="M243.827 577.428C241.546 575.15 238.694 572.873 235.272 571.734C234.132 571.164 233.561 570.595 232.421 570.595C228.428 575.15 226.147 580.845 225.577 586.54C225.006 590.526 225.006 595.081 226.147 599.068C226.147 599.637 226.717 600.206 226.717 600.776C229.569 609.887 236.983 617.29 246.108 620.707C252.952 612.734 255.233 601.915 252.382 592.234C250.671 586.54 247.819 581.414 243.827 577.428Z" fill="#E08433"/>
<path d="M116.645 662.277C114.364 659.999 111.512 657.721 108.09 656.582C101.817 653.735 94.9729 652.596 88.129 653.735C88.129 655.444 87.5587 657.152 87.5587 658.291C87.5587 661.707 88.129 665.124 88.6993 668.541C90.4103 673.666 92.6916 678.222 96.6839 681.638C104.098 689.041 114.364 692.458 124.63 690.18C126.341 681.069 123.489 671.958 117.786 664.555C118.356 663.985 117.786 662.846 116.645 662.277Z" fill="#006A4E"/>
<path d="M208.467 620.137C207.897 620.137 206.756 619.568 206.186 619.568C202.194 618.429 198.772 618.429 194.779 618.429C188.506 618.998 182.232 621.846 177.099 625.832C177.67 626.971 178.24 628.679 178.81 629.818C180.521 632.665 182.232 635.513 185.084 637.79C189.076 641.207 193.639 644.054 198.772 645.763C209.038 648.61 219.303 645.763 227.288 639.499C224.436 629.818 217.592 622.985 208.467 620.137Z" fill="#006A4E"/>
<path d="M166.834 636.652C166.263 635.513 165.123 634.374 163.982 633.235C157.709 635.513 152.005 640.069 148.583 645.194C146.872 648.041 145.161 651.458 144.021 654.875C144.021 656.013 143.451 657.152 143.451 658.291C141.74 667.403 144.591 676.514 150.294 683.917C159.99 680.5 167.404 672.528 170.256 662.277C171.396 657.152 171.396 651.458 170.256 646.902C169.685 642.916 168.545 639.499 166.834 636.652Z" fill="#E08433"/>
<path d="M122.348 653.735C126.911 652.597 130.903 651.458 135.466 650.319C136.607 647.471 137.747 644.624 139.458 641.777C131.474 644.624 123.489 646.902 114.934 648.61C117.216 649.749 120.067 651.458 122.348 653.735Z" fill="#006A4E"/>
<path d="M245.538 255.686H234.132V271.061V427.661V434.495C237.553 431.648 241.546 429.939 245.538 429.37V255.686Z" fill="#E08433"/>
<path d="M196.49 608.179C199.342 608.179 202.764 608.179 205.616 608.748C209.038 605.332 212.46 601.915 215.881 597.929C215.311 595.081 215.311 591.665 215.311 588.817C209.608 595.651 203.334 602.484 196.49 608.179Z" fill="#006A4E"/>
<path d="M177.099 574.011L163.412 566.039C158.849 572.872 153.146 578.567 147.443 584.261L156.568 595.081C164.552 588.817 171.396 581.984 177.099 574.011Z" fill="#E08433"/>
<path d="M199.912 521.622C195.35 523.899 190.217 525.038 185.084 525.608L198.772 527.886C199.342 526.177 199.912 523.899 199.912 521.622Z" fill="#E08433"/>
<path d="M169.115 558.067L183.373 566.039C189.076 557.497 193.069 548.386 196.49 538.136L178.24 535.288C175.959 543.261 173.107 550.664 169.115 558.067Z" fill="#006A4E"/>
<path d="M118.926 601.915L123.489 613.873C132.614 610.456 141.169 606.47 148.583 600.776L140.028 590.525C133.184 595.081 126.341 599.067 118.926 601.915Z" fill="#006A4E"/>
<path d="M85.8478 621.276C95.5433 620.707 104.668 619.568 113.223 616.721L109.231 605.332C101.817 607.61 93.8323 608.748 85.8478 609.318V621.276Z" fill="#E08433"/>
<path d="M76.1524 621.276V609.318C68.1678 608.748 60.1833 607.61 52.7691 605.332L48.7769 616.721C57.3317 619.568 66.4569 620.707 76.1524 621.276Z" fill="#006A4E"/>
<path d="M-1.98199 566.609L-15.6697 574.581C-9.96651 582.553 -2.55231 589.387 4.86188 595.651L13.987 584.831C8.28382 579.137 3.15092 572.873 -1.98199 566.609Z" fill="#006A4E"/>
<path d="M43.0735 601.915C35.6593 599.067 28.8154 595.081 21.9715 590.525L13.4167 600.776C21.4012 605.901 29.956 610.456 38.5109 613.873L43.0735 601.915Z" fill="#E08433"/>
<path d="M255.804 429.37C259.796 430.509 263.788 432.217 267.21 435.064V255.686H255.804V429.37Z" fill="#E08433"/>
<path d="M267.21 227.213H234.132V245.435H267.21V227.213Z" fill="#F9F9F4"/>
<path d="M250.101 438.481C241.546 438.481 235.272 444.745 234.132 452.717L250.671 469.232L266.64 453.287C265.499 445.314 258.655 438.481 250.101 438.481Z" fill="#F9F9F4"/>
<path d="M260.367 497.135L257.515 499.982L253.523 503.399C251.812 513.649 249.53 523.899 246.109 533.58C248.39 531.872 251.241 530.163 253.523 529.024C256.945 518.774 259.226 507.955 260.367 497.135Z" fill="#006A4E"/>
<path d="M262.077 537.567C256.945 538.706 252.382 541.553 248.96 544.969C244.968 548.386 242.116 552.942 240.405 557.498C240.975 558.067 242.116 558.636 242.686 559.206C245.538 560.914 248.39 562.623 251.812 563.762C257.515 565.47 263.218 565.47 269.492 564.331C279.757 561.484 287.742 554.081 291.164 544.4C282.609 536.997 271.773 534.719 262.077 537.567Z" fill="#006A4E"/>
<path d="M80.7148 386.66C101.246 386.66 118.356 370.146 118.356 349.076C118.356 328.576 101.817 311.492 80.7148 311.492C60.1832 311.492 43.0735 328.006 43.0735 349.076C43.6439 370.146 60.1832 386.66 80.7148 386.66Z" fill="#072119"/>
<path d="M223.866 217.532V241.449C216.452 231.199 204.475 224.366 191.357 222.088C197.631 217.532 202.194 211.268 204.475 203.865L205.616 201.018L203.334 198.74C194.209 190.198 181.092 187.351 169.115 190.198C165.123 191.337 161.701 193.046 158.279 195.323C158.279 191.337 158.279 187.351 157.138 183.365C153.716 171.406 144.591 161.726 132.614 157.739L129.763 156.6L127.481 158.878C118.926 167.99 116.075 181.087 118.926 193.046C118.926 193.615 119.497 194.184 119.497 194.754C108.09 189.059 94.9729 185.643 81.2852 185.643C67.5974 185.643 54.48 189.059 43.0736 194.754C43.0736 194.184 43.6439 193.615 43.6439 193.046C47.0659 181.087 43.6439 167.99 35.0891 158.878L32.8078 156.6L29.9562 157.739C17.9794 161.726 8.85423 171.406 5.4323 183.365C4.29166 187.351 4.29165 191.337 4.29165 195.323C0.869713 193.046 -2.55222 191.337 -6.54447 190.198C-18.5212 186.782 -31.6387 190.198 -40.7638 198.74L-43.0451 201.018L-41.9045 203.865C-39.6232 211.268 -35.0606 217.532 -28.7871 222.088C-41.9045 224.366 -53.3109 231.199 -61.2954 241.449V217.532H-114.906V454.995V457.273L-88.6709 483.468L-62.4361 457.273C-55.0219 467.523 -43.0451 474.926 -29.9277 477.204C-36.2012 481.76 -40.7638 488.024 -43.0451 495.427L-44.1858 498.274L-41.9045 500.552C-35.0606 506.816 -25.9354 510.232 -17.3806 510.232C-13.9587 510.232 -11.107 509.663 -7.68511 509.093C-3.69286 507.955 -0.27092 506.246 3.15102 503.968C3.15102 507.955 3.15101 511.941 4.29165 515.927C7.71358 527.886 16.8388 537.566 28.8155 541.552L31.6671 542.691L33.9484 540.414C42.5033 531.302 45.3549 518.205 42.5033 506.246C42.5033 505.677 41.9329 505.107 41.9329 504.538C53.3394 510.232 66.4568 513.649 80.1445 513.649C93.8323 513.649 106.95 510.232 118.356 504.538C118.356 505.107 117.786 505.677 117.786 506.246C114.364 518.205 117.786 531.302 126.341 540.414L128.622 542.691L131.474 541.552C143.45 537.566 152.576 527.886 155.997 515.927C157.138 511.941 157.138 507.955 157.138 503.968C160.56 506.246 163.982 507.955 167.974 509.093C171.396 509.663 174.248 510.232 177.67 510.232C186.795 510.232 195.35 506.816 202.194 500.552L204.475 498.274V495.427C202.194 488.024 197.631 481.76 191.357 477.204C204.475 474.926 216.452 468.093 223.866 457.273L250.101 483.468L276.906 456.704V217.532H223.866ZM-105.21 255.686H-93.8038V428.8C-97.7961 429.37 -101.788 431.647 -105.21 433.925V255.686ZM-88.6709 469.232L-105.21 452.717C-104.07 444.745 -97.2258 438.481 -88.6709 438.481C-80.1161 438.481 -73.2722 444.745 -72.7019 453.287L-88.6709 469.232ZM-72.1316 271.061V427.661V434.495C-75.5535 431.648 -79.5458 429.939 -83.538 428.8V255.686H-72.1316V271.061ZM-72.1316 246.005H-105.21V227.782H-72.1316V246.005ZM171.396 199.879C179.381 197.601 187.365 199.31 193.639 203.865C190.217 211.268 183.943 216.393 176.529 218.671C168.545 220.949 160.56 219.241 154.286 214.685C157.708 207.282 163.982 201.587 171.396 199.879ZM132.614 167.99C140.028 171.406 145.161 177.67 147.443 185.073C149.724 193.046 148.013 201.018 143.45 207.282C136.036 203.865 130.903 197.601 128.622 190.198C126.341 182.795 128.052 174.823 132.614 167.99ZM15.1278 185.643C17.4091 177.67 22.542 171.406 29.9562 168.559C34.5188 174.823 36.2297 183.365 33.9484 190.768C31.6671 198.74 26.5342 205.004 19.12 207.851C14.5575 201.587 12.8465 193.046 15.1278 185.643ZM-31.6387 203.865C-25.3651 199.31 -16.8103 197.601 -9.39609 199.879C-1.41158 202.157 4.86198 207.282 7.71359 214.685C1.44004 219.241 -7.1148 220.949 -14.529 218.671C-21.9432 215.824 -28.2167 210.699 -31.6387 203.865ZM-61.8658 301.242C-52.7406 313.201 -38.4825 321.173 -21.9432 321.173C-29.9277 328.576 -36.7716 337.118 -43.0451 346.799L-44.7561 349.646L-43.0451 352.493C-36.7716 362.174 -29.9277 370.146 -21.9432 378.119C-38.4825 378.119 -52.7406 386.091 -61.8658 398.05V301.242ZM138.317 349.646C138.317 381.535 112.653 407.161 80.7149 407.161C48.7768 407.161 23.1123 381.535 23.1123 349.646C23.1123 317.756 48.7768 292.131 80.7149 292.131C112.653 292.131 138.317 317.756 138.317 349.646ZM121.208 295.548C150.294 304.659 176.529 323.451 194.209 349.646C176.529 375.841 150.865 394.633 121.208 403.744C137.747 391.216 148.583 371.855 148.583 349.646C148.583 327.437 137.747 308.076 121.208 295.548ZM107.52 417.981C107.52 417.981 108.09 417.981 107.52 417.981C108.09 417.981 107.52 417.981 107.52 417.981ZM53.9097 417.411C53.9097 417.411 53.3394 417.411 53.9097 417.411C53.3394 417.411 53.9097 417.411 53.9097 417.411ZM13.4168 349.646C13.4168 371.855 24.2529 391.216 40.7923 403.744C11.7059 394.633 -14.529 375.841 -32.209 349.646C-14.529 323.451 11.1355 304.659 40.7923 295.548C24.2529 308.076 13.4168 327.437 13.4168 349.646ZM-9.39609 499.413C-17.3806 501.121 -25.3651 499.982 -31.6387 495.427C-28.2167 488.024 -21.9432 482.899 -14.529 480.621C-6.54447 478.343 1.44004 480.051 7.71359 484.607C4.29166 492.01 -1.9819 497.135 -9.39609 499.413ZM29.3858 530.733C21.9717 527.316 16.8388 521.052 14.5575 513.649C12.2762 505.677 13.9871 497.704 18.5497 491.44C25.9639 494.857 31.0968 501.121 33.3781 508.524C35.6594 515.927 33.9484 524.469 29.3858 530.733ZM146.872 513.649C144.591 521.621 139.458 527.886 132.044 530.733C127.481 524.469 125.77 515.927 128.052 508.524C130.333 500.552 135.466 494.288 142.88 491.44C147.443 497.704 149.154 505.677 146.872 513.649ZM193.639 495.427C187.365 499.982 178.81 501.691 171.396 499.413C163.412 497.135 157.138 492.01 154.286 484.607C160.56 480.051 169.115 478.343 176.529 480.621C183.943 482.899 190.217 488.024 193.639 495.427ZM183.943 467.523C174.248 467.523 165.123 464.106 157.708 457.842L152.576 453.287L149.724 459.551C137.177 486.315 110.372 503.399 81.2852 503.399C52.1987 503.399 24.8233 486.315 12.8465 459.551L9.99488 453.287L4.86198 457.842C-2.55222 464.106 -11.6774 467.523 -21.3729 467.523C-43.6154 467.523 -61.2954 449.87 -61.2954 427.661C-61.2954 405.453 -43.6154 387.799 -21.3729 387.799C-18.5212 387.799 -16.24 387.799 -13.3883 388.369C-10.5367 388.938 -7.68511 390.077 -4.8335 391.216C-0.27092 394.633 4.29166 397.48 8.85424 399.758C-7.68512 401.466 -22.5135 411.717 -29.9277 427.661L-20.8025 431.648C-14.529 417.981 -0.841248 409.439 13.9871 409.439C27.1046 409.439 39.6517 416.272 46.4955 427.661C41.933 432.217 37.9407 437.342 35.6594 443.037L44.7846 447.023C51.6284 432.217 66.4568 423.106 82.4258 423.106C98.3949 423.106 113.223 432.786 120.067 447.023L129.192 443.037C126.341 437.342 122.348 431.647 117.786 427.661C124.63 416.842 137.177 410.008 150.294 410.008C165.123 410.008 178.81 418.55 185.084 432.217L194.209 428.231C186.795 412.855 171.966 402.605 155.427 400.327C159.99 397.48 164.552 394.633 169.115 391.786C171.966 390.647 174.818 389.508 177.67 388.938C179.951 388.369 182.803 388.369 185.654 388.369C207.897 388.369 225.577 406.022 225.577 428.231C223.866 449.87 206.186 467.523 183.943 467.523ZM223.866 397.48C214.741 385.522 200.483 377.549 183.943 377.549C191.928 370.146 198.772 361.604 205.045 351.924L206.756 349.076L205.045 346.229C198.772 337.118 191.928 328.576 183.943 320.604C200.483 320.604 214.741 312.631 223.866 300.673V397.48ZM183.943 310.923C181.092 310.923 178.81 310.923 175.959 310.353C173.107 309.784 170.256 308.645 167.974 307.506C163.412 304.089 158.849 301.242 154.286 298.395C170.826 296.687 185.654 286.436 193.068 270.492L183.943 266.505C177.67 280.172 163.982 288.714 149.154 288.714C136.036 288.714 123.489 281.881 116.645 270.492C121.208 265.936 125.2 260.811 127.481 255.116L118.356 251.13C111.512 265.936 96.6839 275.047 80.7149 275.047C64.7458 275.047 49.9174 265.366 43.0736 251.13L33.9484 255.116C36.8 260.811 40.7923 266.505 45.3549 270.492C38.511 281.311 25.9639 288.145 12.8465 288.145C-1.9819 288.145 -15.6696 279.603 -21.9432 265.936L-31.0683 269.922C-23.6541 285.297 -9.39609 295.548 7.71359 297.256C3.15101 300.103 -1.41157 302.951 -5.97415 306.367C-8.82576 307.506 -11.107 308.645 -13.9587 309.215C-16.24 309.784 -19.0916 309.784 -21.9432 309.784C-44.1858 309.784 -61.8658 292.131 -61.8658 269.922C-61.8658 247.713 -44.1858 230.06 -21.9432 230.06C-12.2477 230.06 -3.12254 233.477 4.29165 239.741L9.42456 244.297L12.2762 238.033C24.8233 211.268 51.6284 194.184 80.7149 194.184C109.801 194.184 137.177 211.268 149.154 238.033L152.005 244.297L157.138 239.741C164.552 233.477 173.677 230.06 183.373 230.06C205.616 230.06 223.296 247.713 223.296 269.922C223.866 293.27 206.186 310.923 183.943 310.923ZM234.132 427.661V271.061V255.686H245.538V428.8C241.546 429.37 237.554 431.647 234.132 433.925V427.661ZM250.671 469.232L234.132 452.717C235.272 444.745 242.116 438.481 250.101 438.481C258.656 438.481 265.499 444.745 266.07 453.287L250.671 469.232ZM267.21 434.495C263.788 431.648 259.796 429.939 255.804 428.8V255.686H267.21V434.495ZM267.21 246.005H234.132V227.782H267.21V246.005Z" fill="#072119"/>
<path d="M299.719 162.298L302 160.021L301.43 157.173C297.437 142.367 286.031 130.978 271.773 127.562C266.07 125.853 260.366 125.853 254.663 126.423C258.085 121.867 260.937 116.742 262.648 111.047C266.64 96.8109 262.077 80.8661 251.812 70.616L249.53 68.3381L246.679 68.9076C239.835 70.616 234.132 74.0327 228.999 78.5883C233.561 73.4632 236.983 67.7687 238.694 60.9352L239.264 58.0879L236.983 55.8101C226.717 46.1294 210.748 41.5737 196.49 45.5599C190.787 47.2683 185.654 49.5461 181.092 53.5323C182.232 47.8377 181.662 42.1432 179.951 36.4486C175.959 22.2122 164.552 10.8231 150.294 6.83691L147.443 5.69799L145.161 7.97582C140.028 12.5315 136.606 18.7955 134.895 25.0595C136.036 18.7955 136.036 11.962 134.325 5.12854L133.755 2.28126L130.903 1.7118C116.645 -2.27439 100.676 1.7118 90.4103 12.5315C86.418 16.5177 82.9961 21.6428 81.2851 26.7679C79.0038 21.6428 76.1522 16.5177 72.1599 12.5315C61.3238 1.7118 45.9251 -2.27439 31.667 1.7118L28.8154 2.28126L28.2451 5.12854C25.3935 11.3926 25.3935 18.226 27.1044 25.0595C24.8232 18.7955 21.4012 13.1009 16.8386 7.97582L14.5574 5.69799L11.7057 6.26745C-3.12265 10.2536 -14.5291 21.6428 -17.951 36.4486C-19.662 42.1432 -19.662 47.8377 -19.0917 53.5323C-23.6543 50.1155 -28.7872 47.2683 -34.4904 45.5599C-48.7485 41.5737 -64.7175 46.1293 -74.9833 56.3796L-77.2646 58.6574L-76.6943 61.5047C-74.9833 68.3381 -71.5614 74.0327 -66.9988 79.1578C-72.1317 74.6021 -77.8349 71.1854 -84.6788 69.477L-87.5304 68.9076L-89.8117 71.1854C-100.077 81.4356 -104.07 96.8109 -100.077 111.047C-98.3665 116.742 -96.0852 121.867 -92.093 126.423C-97.7962 125.284 -103.499 125.853 -109.203 127.562C-123.461 131.548 -134.867 142.937 -138.859 157.173L-140 160.021L-137.719 162.298C-129.734 170.271 -118.898 174.826 -108.062 174.826C-106.351 174.826 -104.64 174.826 -102.929 174.257C-105.21 182.799 -106.921 191.91 -108.062 201.021H-121.179H-131.445V211.272V459.554V463.54L-128.594 466.957L-108.632 486.888V497.138V497.708C-107.492 507.389 -105.781 517.069 -103.499 526.181C-116.047 525.042 -128.594 529.597 -137.719 538.709L-140 540.417L-139.43 543.264C-135.437 558.07 -124.031 569.459 -109.773 572.876C-106.351 574.015 -102.359 574.015 -98.9368 574.015C-96.6555 574.015 -94.9446 574.015 -92.6633 573.445C-96.0852 578.001 -98.9368 583.126 -100.648 588.821C-104.64 603.057 -100.077 619.002 -89.8117 629.252L-87.5304 631.53L-84.6788 630.96C-77.8349 629.252 -72.1317 625.835 -66.9988 621.28C-71.5614 626.405 -74.9833 632.099 -76.6943 638.933L-77.2646 641.78L-74.9833 644.058C-66.9988 652.03 -56.1626 656.586 -45.3265 656.586C-41.9046 656.586 -37.9123 656.017 -34.4904 655.447C-28.7872 653.739 -23.6543 651.461 -19.0917 647.475C-20.2323 653.169 -19.662 658.864 -17.951 664.558C-13.9588 678.795 -2.55232 690.184 11.7057 694.17L14.5574 694.739L16.8386 692.462C21.9715 687.906 25.3935 681.642 27.1044 675.378C25.9638 681.642 25.9638 688.475 27.6748 695.309L28.2451 698.156L31.0967 698.726C34.5186 699.865 38.5109 700.434 41.9328 700.434C52.769 700.434 63.6051 695.878 71.5896 688.475C75.5819 684.489 79.0038 679.364 80.7148 674.239C82.9961 679.364 85.8477 684.489 89.8399 688.475C97.8244 696.448 108.661 700.434 119.497 700.434C122.919 700.434 126.911 699.865 130.333 698.726L133.184 698.156L133.755 695.309C135.466 688.475 135.466 681.642 134.325 675.378C136.606 681.642 140.028 687.337 144.591 692.462L146.872 694.739L149.724 694.17C164.552 690.184 175.959 678.795 179.381 664.558C181.092 658.864 181.092 653.169 180.521 647.475C185.084 650.891 190.217 653.739 195.92 655.447C199.342 656.586 203.334 656.586 206.756 656.586C217.592 656.586 228.428 652.03 236.413 644.058L238.694 641.78L238.124 638.933C236.413 632.099 232.991 626.405 228.428 621.28C233.561 625.835 239.264 629.252 246.108 630.96L248.96 631.53L251.241 629.252C262.077 618.432 266.07 603.057 262.077 588.821C260.366 583.126 258.085 578.001 254.093 573.445C256.374 574.015 258.085 574.015 260.366 574.015C263.788 574.015 267.781 573.445 271.202 572.876C285.461 568.89 296.867 557.501 300.859 543.264L301.43 540.417L299.148 538.139C290.023 529.028 276.906 524.472 264.359 526.181C266.64 516.5 268.351 506.819 269.492 496.569V486.319L289.453 466.388L292.304 463.54V459.554V211.272V201.021H282.039H268.921C267.781 191.91 266.07 182.799 263.788 174.257C265.499 174.257 267.21 174.826 268.351 174.826C280.898 174.826 291.734 170.271 299.719 162.298ZM246.108 80.2967C252.952 88.2691 255.233 99.0887 252.382 108.769C250.671 114.464 247.819 119.589 243.827 123.575C241.546 125.853 238.694 128.131 235.272 129.27C234.132 129.839 233.561 130.409 232.421 130.409C228.428 125.853 226.147 120.159 225.577 114.464C225.006 110.478 225.006 105.922 226.147 101.936C226.147 101.367 226.717 100.797 226.717 100.228C230.139 90.5469 236.983 83.144 246.108 80.2967ZM219.303 91.6858C218.163 90.5469 217.022 89.408 216.452 88.2691C219.873 86.5607 223.295 84.2829 226.147 81.4356C223.295 84.8523 221.014 87.6996 219.303 91.6858ZM179.381 71.1854C181.092 68.3381 182.802 65.4909 185.654 63.213C189.646 59.7963 194.209 56.949 199.342 55.2406C209.608 52.3934 219.873 55.2406 227.858 61.5047C224.436 70.616 217.592 77.4494 208.467 80.8661C207.897 80.8661 206.756 81.4356 206.186 81.4356C202.193 82.5745 198.772 82.5745 194.779 82.5745C188.506 82.0051 182.232 79.1578 177.099 75.1716C177.67 74.0327 178.24 72.3243 179.381 71.1854ZM215.881 102.505C215.311 105.353 215.311 108.769 215.311 111.617C209.608 104.783 203.334 98.5193 196.49 92.2553C197.061 92.2553 197.631 92.2553 198.201 92.2553C200.483 92.2553 203.334 91.6858 205.615 91.6858C209.037 95.1025 212.459 99.0887 215.881 102.505ZM150.294 17.0871C159.99 20.5038 167.404 28.4762 170.255 38.7264C171.396 43.8515 171.396 49.5461 170.255 54.1017C169.685 57.5185 167.974 60.3657 166.263 63.213C165.693 64.3519 164.552 65.4908 163.412 66.6298C157.138 64.3519 151.435 59.7963 148.013 54.6712C146.302 51.8239 144.591 48.4072 143.45 44.9904C143.45 43.8515 142.88 42.7126 142.88 41.5737C142.31 33.6013 144.591 24.49 150.294 17.0871ZM134.895 50.685C136.036 53.5323 137.177 56.3796 138.888 59.2268C130.903 56.3796 122.919 54.1017 114.364 52.3934C117.215 50.685 119.497 48.9766 122.348 46.6988C126.911 48.4072 130.903 49.5461 134.895 50.685ZM134.325 29.0457C133.755 32.4624 133.184 35.8791 133.184 39.8653C132.044 39.2959 130.903 39.2959 129.763 38.7264C131.473 35.3097 133.184 32.4624 134.325 29.0457ZM89.8399 32.4624C91.5509 27.3373 93.8322 22.7817 97.8244 19.3649C105.239 11.962 115.504 8.54527 125.77 10.8231C127.481 19.9344 124.63 29.0457 118.926 36.4486C118.356 37.0181 117.786 38.157 116.645 38.7264C114.364 41.0042 111.512 43.2821 108.09 44.421C101.817 47.2683 94.9728 48.4072 88.129 47.2683C88.129 45.5599 88.129 44.421 88.129 42.7126C88.129 39.2959 88.6993 35.8791 89.8399 32.4624ZM81.2851 59.7963C163.982 59.7963 232.991 120.159 244.397 201.021H223.295L225.006 195.327L220.444 190.771L214.741 185.646C213.6 184.507 212.459 183.938 211.889 183.368C203.334 117.881 148.013 68.9076 81.8554 68.9076C15.1277 68.9076 -40.1936 117.881 -48.1781 183.368C-49.3188 183.938 -50.4594 185.077 -51.0297 185.646L-56.733 190.771L-61.2955 195.327L-59.5846 201.021H-80.6865C-70.991 120.159 -1.98201 59.7963 81.2851 59.7963ZM-33.9201 162.298C-30.4981 152.618 -26.5059 142.937 -20.8027 134.395L-6.54459 142.367C-10.5368 149.201 -13.3885 157.173 -15.6697 165.146L-33.9201 162.298ZM-28.7872 173.687C-32.2091 174.257 -35.0607 175.396 -37.9123 176.535C-37.342 174.826 -37.342 173.687 -36.7717 171.979L-28.7872 173.687ZM-15.0994 126.423C-9.39619 118.45 -1.98199 111.617 5.43219 105.353L14.5574 116.172C8.28381 121.298 3.15089 127.562 -1.41168 134.395L-15.0994 126.423ZM13.4167 99.6582C21.4012 94.5331 29.9561 89.9774 38.5109 86.5607L43.0735 98.5193C35.6593 101.367 28.8154 105.353 21.9715 109.908L13.4167 99.6582ZM81.2851 101.367C122.919 101.367 157.708 128.7 168.544 167.423C162.271 155.465 151.435 145.784 137.747 141.798L130.903 139.52L124.63 137.242L120.067 142.367L114.934 148.062C108.661 154.895 104.668 162.868 102.387 171.979C95.5432 170.271 88.129 169.701 80.7148 169.701C73.3006 169.701 66.4567 170.271 59.0425 171.979C56.7612 163.437 52.769 154.895 46.4954 148.062L41.3625 142.367L36.7999 137.242L30.5264 139.52L23.6825 141.798C9.99478 146.354 -0.841354 155.465 -7.11491 167.423C4.29155 128.7 39.6515 101.367 81.2851 101.367ZM48.2064 83.7134C56.7612 81.4356 66.4567 79.7272 75.5819 79.1578V91.1164C67.5974 91.6858 59.6128 92.8247 52.1986 95.1026L48.2064 83.7134ZM85.8477 91.6858V79.7272C95.5432 80.2967 104.668 81.4356 113.223 84.2829L109.231 95.672C101.817 93.3942 93.8322 91.6858 85.8477 91.6858ZM118.926 98.5193L123.489 86.5607C132.614 89.9774 141.169 93.9636 148.583 99.6582L140.028 109.908C133.184 105.353 126.341 101.936 118.926 98.5193ZM163.982 134.395C159.419 127.562 153.716 121.867 148.013 116.172L157.138 105.353C164.552 111.617 171.966 118.45 177.67 126.423L163.982 134.395ZM183.373 134.964C189.076 143.506 193.068 152.618 196.49 162.868L178.24 166.285C175.959 158.312 173.107 150.909 169.115 143.506L183.373 134.964ZM198.772 171.979C199.342 173.687 199.342 174.826 199.912 176.535C197.061 175.396 193.639 174.257 190.787 173.687L198.772 171.979ZM-57.3033 91.6858C-59.0143 88.2691 -61.2955 84.8523 -64.1472 82.0051C-61.2955 84.8523 -57.8736 86.5607 -54.4517 88.8385C-55.5923 89.408 -56.1626 90.5469 -57.3033 91.6858ZM-53.8814 102.505C-50.4594 99.0887 -47.0375 95.1025 -43.6155 91.6858C-41.3343 92.2553 -38.4826 92.2553 -36.2013 92.2553C-35.631 92.2553 -35.0607 92.2553 -34.4904 92.2553C-41.3343 97.9498 -47.6078 104.783 -53.311 111.617C-52.7407 108.769 -53.311 105.353 -53.8814 102.505ZM36.2296 10.8231C46.4954 9.11473 56.7612 12.5315 64.1754 19.3649C68.1677 23.3511 70.449 27.9068 72.1599 32.4624C73.3006 35.8791 73.8709 39.2959 73.3006 42.7126C73.3006 44.421 73.3006 46.1294 72.7303 47.2683C65.8864 48.4072 59.0425 47.2683 52.769 44.421C49.9173 42.7126 47.0657 41.0042 44.2141 38.7264C43.6438 38.157 42.5032 37.0181 41.9328 36.4486C37.3703 29.0457 35.089 19.3649 36.2296 10.8231ZM32.2374 38.7264C31.0967 39.2959 29.9561 39.2959 28.8154 39.8653C28.8154 36.4486 28.8154 32.4624 27.6748 29.0457C28.8154 32.4624 30.5264 35.3097 32.2374 38.7264ZM27.1044 50.685C31.0967 49.5461 35.6593 48.4072 40.2219 47.2683C42.5032 49.5461 45.3548 51.2545 48.2064 52.9628C39.6516 54.6712 31.667 56.949 23.6825 59.7963C24.8232 56.3796 25.9638 53.5323 27.1044 50.685ZM-8.25555 38.7264C-5.40393 28.4762 2.01025 20.5038 11.7057 17.0871C17.409 23.9206 20.2606 33.6013 18.5496 42.7126C18.5496 43.8515 17.9793 44.9904 17.9793 46.1294C16.8387 49.5461 15.698 52.9628 13.4167 55.8101C9.42445 61.5047 4.29155 65.4908 -1.98199 67.7687C-3.12263 66.6298 -3.69296 65.4909 -4.8336 64.3519C-6.54457 61.5047 -7.68523 58.0879 -8.82587 55.2406C-9.96652 49.5461 -9.96652 43.8515 -8.25555 38.7264ZM-36.7717 55.2406C-31.6388 56.3796 -27.0762 59.2268 -23.0839 63.213C-20.8026 65.4909 -18.5214 68.3381 -16.8104 71.1854C-16.2401 72.3243 -15.6697 74.0327 -15.0994 75.1716C-20.2323 79.1578 -25.9356 82.0051 -32.7794 82.5745C-36.7717 83.144 -40.1936 82.5745 -44.1859 81.4356C-44.7562 81.4356 -45.8968 80.8661 -46.4672 80.8661C-55.5923 77.4494 -62.4362 70.616 -65.8581 61.5047C-57.8736 55.2406 -47.0375 52.3934 -36.7717 55.2406ZM-84.1084 80.2967C-74.9833 83.7134 -68.1394 91.1164 -64.7175 100.228C-64.7175 100.797 -64.1472 101.367 -64.1472 101.936C-63.0065 105.922 -63.0065 110.478 -63.5768 114.464C-64.1472 120.159 -66.9988 125.853 -70.4207 130.409C-71.5614 129.839 -72.1317 129.839 -73.2723 129.27C-76.1239 127.562 -78.9755 125.853 -81.8272 123.575C-85.8194 119.589 -88.671 114.464 -90.382 108.769C-93.2336 98.5193 -90.9523 87.6996 -84.1084 80.2967ZM-128.594 157.173C-125.172 147.492 -117.187 140.09 -106.921 137.242C-101.218 135.534 -94.9446 136.103 -89.2414 137.812C-85.8194 138.951 -82.9678 140.09 -80.1162 142.367C-79.5459 142.937 -78.4052 143.506 -77.8349 144.076C-79.5459 149.201 -82.3975 153.187 -86.3897 156.604C-89.8117 160.021 -94.3743 162.298 -99.5072 164.007C-109.773 166.285 -120.609 163.437 -128.594 157.173ZM-84.1084 166.854C-87.5304 177.674 -90.382 189.063 -92.093 201.021H-97.7962C-96.6555 190.771 -94.3743 181.09 -92.093 171.41C-89.2414 170.271 -86.9601 168.562 -84.1084 166.854ZM-106.921 563.765C-117.187 560.917 -125.172 553.514 -128.594 543.834C-120.609 537 -110.343 534.722 -100.077 537.57C-94.9446 538.709 -90.9523 541.556 -86.9601 544.403C-82.9678 547.82 -80.1162 552.376 -78.4052 556.931C-78.9755 557.501 -80.1162 558.07 -80.6865 558.64C-83.5381 560.348 -86.3897 562.056 -89.8117 563.195C-94.9446 564.904 -101.218 564.904 -106.921 563.765ZM-98.3665 497.138L-95.5149 499.986L-91.5226 503.972C-89.8117 514.222 -87.5304 524.472 -84.1084 534.153C-86.3897 532.445 -89.2414 530.736 -91.5226 529.597C-94.9446 518.778 -97.2259 507.958 -98.3665 497.138ZM-84.1084 620.71C-90.9523 612.738 -93.2336 601.918 -90.382 592.237C-88.671 586.543 -85.8194 581.418 -81.8272 577.432C-79.5459 575.154 -76.6943 572.876 -73.2723 571.737C-72.1317 571.168 -71.5614 570.598 -70.4207 570.598C-66.4285 575.154 -64.1472 580.848 -63.5768 586.543C-63.0065 590.529 -63.0065 595.085 -64.1472 599.071C-64.1472 599.64 -64.7175 600.21 -64.7175 600.779C-68.1394 609.891 -74.9833 617.293 -84.1084 620.71ZM-57.3033 609.321C-56.1626 610.46 -55.022 611.599 -54.4517 612.738C-57.8736 614.446 -61.2955 616.724 -64.1472 619.571C-61.2955 616.155 -59.0143 612.738 -57.3033 609.321ZM-17.3807 629.252C-19.0917 632.099 -20.8027 634.947 -23.6543 637.224C-27.6465 640.641 -32.2091 643.488 -37.342 645.197C-47.6078 648.044 -57.8736 645.197 -65.8581 638.933C-62.4362 629.821 -55.5923 622.988 -46.4672 619.571C-45.8968 619.571 -44.7562 619.002 -44.1859 619.002C-40.1936 617.863 -36.7717 617.863 -32.7794 617.863C-26.5059 618.432 -20.2323 621.28 -15.0994 625.266C-15.6697 626.974 -16.2401 628.113 -17.3807 629.252ZM-53.8814 598.501C-53.311 595.654 -53.311 592.237 -53.311 589.39C-47.6078 596.224 -41.3343 602.488 -34.4904 608.752C-37.342 608.752 -40.7639 608.752 -43.6155 609.321C-47.0375 605.335 -50.4594 601.918 -53.8814 598.501ZM11.7057 683.35C2.01025 679.934 -5.40393 671.961 -8.25555 661.711C-9.39619 656.586 -9.39619 650.891 -8.25555 646.336C-7.68523 642.919 -5.97426 640.072 -4.26329 637.224C-3.69298 636.086 -2.55232 634.947 -1.41168 633.808C4.86186 636.086 10.5651 640.641 13.987 645.766C15.698 648.614 17.409 652.03 18.5496 655.447C18.5496 656.586 19.1199 657.725 19.1199 658.864C19.6902 666.836 17.409 676.517 11.7057 683.35ZM27.1044 650.322C25.9638 647.475 24.8232 644.627 23.1122 641.78C31.0967 644.627 39.0812 646.905 47.6361 648.614C44.7845 650.322 42.5032 652.03 39.6516 654.308C35.6593 652.6 31.0967 651.461 27.1044 650.322ZM27.6748 671.961C28.2451 668.545 28.8154 665.128 28.8154 661.142C29.9561 661.711 31.0967 661.711 32.2374 662.281C30.5264 665.128 28.8154 668.545 27.6748 671.961ZM72.1599 667.975C70.449 673.1 68.1677 677.656 64.1754 681.073C56.7612 688.475 46.4954 691.892 36.2296 689.614C34.5186 680.503 36.7999 671.392 43.0735 663.989C43.6438 663.419 44.2141 662.28 45.3548 661.711C47.6361 659.433 50.4877 657.155 53.9096 656.016C60.1832 653.169 67.027 652.03 73.8709 653.169C73.8709 654.878 74.4412 656.586 74.4412 657.725C73.8709 661.711 73.3006 665.128 72.1599 667.975ZM80.7148 641.211C-1.98199 641.211 -70.991 580.848 -82.3975 500.555L-81.8272 499.986L-62.4362 480.624C-60.7252 482.332 -58.4439 483.471 -56.1626 484.61C-56.733 486.319 -57.8736 488.596 -58.4439 490.305L-60.7252 497.138L-63.0065 503.402L-58.4439 507.958L-52.7407 513.083C-51.6001 513.653 -51.0297 514.791 -49.8891 515.361C-42.4749 581.987 13.4167 631.53 80.7148 631.53C148.013 631.53 203.904 581.418 211.319 515.361C212.459 514.791 213.03 513.653 214.17 513.083L219.873 507.958L224.436 503.402L222.155 497.138L219.873 490.305C219.303 488.596 218.733 486.319 217.592 484.61C219.873 483.471 221.584 481.763 223.866 480.624L243.257 499.986L243.827 500.555C232.421 580.848 163.412 641.211 80.7148 641.211ZM195.92 538.139C192.498 547.82 188.506 557.501 182.802 566.043L169.115 558.07C173.107 551.237 175.959 543.264 178.24 535.292L195.92 538.139ZM185.084 526.181C190.217 525.611 195.35 523.903 199.912 522.194C199.342 524.472 199.342 526.75 198.772 529.028L185.084 526.181ZM147.443 584.265C153.716 579.14 158.849 572.876 163.412 566.043L177.099 574.015C171.396 581.987 163.982 588.821 156.568 595.085L147.443 584.265ZM148.583 601.349C140.599 606.474 132.044 611.03 123.489 614.446L118.926 602.488C126.341 599.64 133.184 595.654 140.028 591.099L148.583 601.349ZM80.7148 599.64C37.9406 599.64 1.43994 570.029 -7.68523 529.597C-1.41167 542.695 9.99477 552.945 24.2528 557.501L31.0967 559.778L37.3703 562.056L41.9328 557.501L47.0657 551.806C53.3393 544.973 57.3315 537 59.6128 527.889C66.4567 529.597 73.8709 530.167 81.2851 530.167C88.6993 530.167 95.5432 529.597 102.957 527.889C105.239 536.431 109.231 544.973 115.504 551.806L120.637 557.501L125.2 562.626L131.473 560.348L138.317 558.07C152.575 553.514 163.982 543.264 170.255 530.167C159.99 570.029 124.059 599.64 80.7148 599.64ZM113.793 617.293C105.239 619.571 95.5432 621.28 86.418 621.849V609.321C94.4025 608.752 102.387 607.613 109.801 605.335L113.793 617.293ZM76.1522 609.321V621.28C66.4567 620.71 57.3315 619.571 48.7767 616.724L52.769 605.335C60.1832 607.613 67.5974 608.752 76.1522 609.321ZM21.9715 590.529C28.2451 595.085 35.6593 599.071 43.0735 601.918L38.5109 613.877C29.3857 610.46 20.8309 606.474 13.4167 600.779L21.9715 590.529ZM5.43219 595.085C-1.98199 588.821 -9.39619 581.987 -15.0994 574.015L-1.41168 566.043C3.15089 572.876 8.85413 578.571 14.5574 584.265L5.43219 595.085ZM-7.11491 558.07L-21.373 566.043C-27.0762 557.501 -31.0685 548.389 -34.4904 538.139L-16.2401 534.722C-13.9588 543.264 -11.1072 550.667 -7.11491 558.07ZM-36.7717 528.458C-37.342 526.181 -37.9123 523.903 -37.9123 521.625C-33.3497 523.903 -28.2168 525.042 -23.0839 525.611L-36.7717 528.458ZM219.303 609.321C221.014 612.738 223.295 616.155 226.147 619.002C223.295 616.155 219.873 614.446 216.452 612.168C217.592 611.599 218.163 610.46 219.303 609.321ZM215.881 598.501C212.459 601.918 209.037 605.904 205.615 609.321C202.764 608.752 199.342 608.752 196.49 608.752C203.334 603.057 209.608 596.224 215.311 589.39C214.741 592.237 215.311 595.085 215.881 598.501ZM125.77 690.184C115.504 691.892 105.239 688.475 97.8244 681.642C93.8322 677.656 91.5509 673.1 89.8399 668.545C88.6993 665.128 88.129 661.711 88.6993 658.294C88.6993 656.586 88.6993 654.878 89.2696 653.739C96.1135 652.6 102.957 653.739 109.231 656.586C112.083 658.294 114.934 660.003 117.786 662.281C118.356 662.85 119.497 663.989 120.067 664.558C124.63 671.961 126.911 681.073 125.77 690.184ZM129.763 662.281C130.903 661.711 132.044 661.711 133.184 661.142C133.184 664.558 133.184 668.545 134.325 671.961C133.184 668.545 131.473 665.128 129.763 662.281ZM134.895 650.322C130.903 651.461 126.341 652.6 121.778 653.739C119.497 651.461 116.645 649.752 113.793 648.044C122.348 646.336 130.333 644.058 138.317 641.211C137.177 644.058 136.036 646.905 134.895 650.322ZM170.255 661.711C167.404 671.961 159.99 679.934 150.294 683.35C144.591 676.517 141.739 666.836 143.45 657.725C143.45 656.586 144.021 655.447 144.021 654.308C145.161 650.891 146.302 647.475 148.583 644.627C152.575 638.933 157.708 634.947 163.982 632.669C165.122 633.808 165.693 634.947 166.833 636.086C168.544 638.933 169.685 642.35 170.826 645.197C171.966 651.461 171.966 656.586 170.255 661.711ZM198.772 645.197C193.639 644.058 189.076 641.211 185.084 637.224C182.803 634.947 180.521 632.099 178.81 629.252C178.24 628.113 177.67 626.405 177.099 625.266C182.232 621.28 187.935 618.432 194.779 617.863C198.772 617.293 202.193 617.863 206.186 619.002C206.756 619.002 207.897 619.571 208.467 619.571C217.592 622.988 224.436 629.821 227.858 638.933C219.873 645.766 209.037 648.044 198.772 645.197ZM246.108 620.71C236.983 617.293 230.139 609.891 226.717 600.779C226.717 600.21 226.147 599.64 226.147 599.071C225.006 595.085 225.006 590.529 225.577 586.543C226.147 580.848 228.999 575.154 232.421 570.598C233.561 571.168 234.132 571.168 235.272 571.737C238.124 573.445 240.975 575.154 243.827 577.432C247.819 581.418 251.241 586.543 252.382 592.237C255.233 601.918 252.952 612.738 246.108 620.71ZM290.593 543.834C287.172 553.514 279.187 560.917 268.921 563.765C263.218 565.473 256.944 564.904 251.241 563.195C247.819 562.056 244.968 560.917 242.116 558.64C241.546 558.07 240.405 557.501 239.835 556.931C241.546 551.806 244.397 547.82 248.39 544.403C251.812 540.986 256.374 538.709 261.507 537C271.773 534.722 282.609 537 290.593 543.834ZM246.108 533.583C249.53 523.903 251.812 513.653 253.522 503.402L257.515 499.416L260.366 496.569C259.226 507.958 256.944 518.778 254.093 529.028C251.241 530.736 248.39 531.875 246.108 533.583ZM283.179 211.272V459.554L250.101 492.583L224.436 466.957C218.733 473.221 211.319 477.777 203.334 480.624C206.186 484.61 208.467 489.166 210.178 493.722L212.459 500.555L206.756 505.68C198.772 513.083 187.935 517.069 177.67 517.069C174.248 517.069 170.255 516.5 166.833 515.361C165.693 514.791 164.552 514.791 163.412 514.222C163.412 515.361 162.841 516.5 162.841 517.639C158.849 531.875 148.583 543.264 134.325 547.82L127.481 550.098L122.348 544.403C114.934 535.861 110.942 525.611 110.942 514.791C101.246 518.208 90.9806 519.917 80.7148 519.917C70.449 519.917 60.1832 518.208 50.4877 514.791C50.4877 525.611 46.4954 536.431 39.0812 544.403L33.9483 550.098L27.1044 547.82C12.8464 543.264 2.58058 531.875 -1.41168 517.639C-1.98201 516.5 -1.98199 515.361 -1.98199 514.222C-3.12263 514.791 -4.26329 514.791 -5.40393 515.361C-8.82587 516.5 -12.8181 517.069 -16.2401 517.069C-27.0762 517.069 -37.342 513.083 -45.3265 505.68L-51.0297 500.555L-48.7485 493.722C-47.0375 489.166 -44.7562 484.61 -41.9046 480.624C-49.8891 477.777 -56.733 473.221 -63.0065 466.957L-88.671 492.583L-121.75 459.554V211.272H-56.1626V226.077C-52.1704 222.661 -47.0375 220.383 -42.4749 218.674C-45.3265 214.688 -47.6078 210.133 -49.3188 205.577L-51.6001 198.744L-45.8968 193.618C-37.9123 186.215 -27.6465 182.229 -16.8104 182.229C-12.8181 182.229 -9.39619 182.799 -5.40393 183.938C-4.26329 184.507 -3.12263 184.507 -1.98199 185.077C-1.98199 183.938 -1.41168 182.799 -1.41168 181.66C2.58058 167.423 12.8464 156.034 27.1044 151.479L33.9483 149.201L39.0812 154.895C46.4954 163.437 50.4877 173.687 50.4877 184.507C60.1832 181.09 70.449 179.382 80.7148 179.382C90.9806 179.382 101.246 181.09 110.942 184.507C110.942 173.687 114.934 162.868 122.348 154.895L127.481 149.201L134.325 151.479C148.583 156.034 158.849 167.423 162.841 181.66C163.412 182.799 163.412 183.938 163.412 185.077C164.552 184.507 165.693 184.507 166.833 183.938C170.826 182.799 174.248 182.229 178.24 182.229C189.076 182.229 199.342 186.215 207.326 193.618L213.03 198.744L210.748 205.577C209.037 210.133 206.756 214.688 203.904 218.674C209.037 220.383 213.6 223.23 217.592 226.077V211.272H283.179ZM246.108 166.854C248.39 168.562 251.241 170.271 253.522 171.41C256.374 181.09 258.085 190.771 259.796 201.021H254.093C252.952 189.063 250.101 177.674 246.108 166.854ZM262.077 163.437C256.944 162.298 252.382 159.451 248.96 156.034C244.968 152.618 242.116 148.062 240.405 143.506C240.975 142.937 242.116 142.367 242.686 141.798C245.538 140.09 248.39 138.381 251.812 137.242C257.515 135.534 263.218 135.534 268.921 136.673C279.187 139.52 287.172 146.923 290.593 156.604C282.609 163.437 272.343 166.285 262.077 163.437Z" fill="#072119"/>
<path d="M137.177 556.928L130.333 559.206L124.059 561.484L119.497 556.358L114.364 550.664C108.09 543.83 104.098 535.858 101.817 526.747C95.5433 529.025 88.1291 529.594 80.715 529.594C73.3008 529.594 66.4569 529.025 59.0427 527.316C56.7614 535.858 52.7691 544.4 46.4956 551.233L41.3627 556.928L36.8001 561.484L30.5266 559.206L23.6827 556.928C9.42463 552.372 -1.98182 542.122 -8.25537 529.025C0.86979 570.025 36.8001 599.068 80.1446 599.068C122.919 599.068 158.849 569.456 168.545 529.025C162.841 542.692 151.435 552.372 137.177 556.928Z" fill="#F9F9F4"/>
<path d="M81.2851 101.363C39.6516 101.363 4.86189 128.697 -5.97424 167.42C0.299306 155.462 11.1354 146.35 24.8232 141.795L31.6671 139.517L37.9406 137.239L42.5032 142.364L47.6361 148.059C53.9096 154.892 57.9019 162.865 60.1832 171.976C67.027 170.267 74.4413 169.698 81.8555 169.698C89.2696 169.698 96.1135 170.267 103.528 171.976C105.809 163.434 109.801 154.892 116.075 148.059L121.208 142.364L125.77 137.808L132.044 140.086L138.888 142.364C152.575 146.92 163.412 156.031 169.685 167.99C157.708 129.267 122.348 101.363 81.2851 101.363Z" fill="#F9F9F4"/>
</g>
<defs>
<clipPath id="clip0">
<rect width="442" height="701" fill="white" transform="translate(-140)"/>
</clipPath>
</defs>
</svg>
