<svg width="79" height="126" viewBox="0 0 79 126" fill="none" xmlns="http://www.w3.org/2000/svg">
<path d="M10.6016 100.411C10.7036 100.309 10.9074 100.206 11.0094 100.104C10.7036 99.1828 10.1939 98.4663 9.48035 97.8522C8.86874 97.238 8.05326 96.8286 7.13584 96.6239C5.301 96.1121 3.46616 96.6239 2.03906 97.7498C2.65068 99.4899 4.07777 100.82 5.91261 101.332C6.93197 101.639 8.05326 101.537 8.97068 101.23C9.58229 101.025 10.092 100.82 10.6016 100.411Z" fill="#E08433"/>
<path d="M7.54346 36.1315H8.56281C8.86862 33.982 9.27636 31.9349 9.98991 29.9901C9.58217 30.2972 9.07249 30.6042 8.66475 30.809C8.05313 32.549 7.74733 34.2891 7.54346 36.1315Z" fill="#006A4E"/>
<path d="M13.5575 107.678C13.7613 106.962 13.7613 106.143 13.6594 105.426C13.5575 104.403 13.0478 103.379 12.4362 102.56C12.2323 102.663 12.1304 102.663 11.9265 102.765C11.4168 103.072 10.9072 103.379 10.3975 103.789C9.68393 104.505 9.17425 105.426 8.86844 106.45C8.35876 108.292 8.86844 110.135 9.98973 111.568C11.6207 110.954 12.8439 109.623 13.4555 107.985C13.4555 107.883 13.5575 107.781 13.5575 107.678Z" fill="#006A4E"/>
<path d="M8.66463 90.4825L7.95108 89.7661L7.44141 89.2543C7.64528 91.3014 8.05302 93.2462 8.5627 95.0886C9.07237 95.2933 9.48012 95.6003 9.88786 95.9074C9.37818 94.1674 8.8685 92.325 8.66463 90.4825Z" fill="#006A4E"/>
<path d="M7.13584 29.3761C8.05326 29.1714 8.86874 28.6596 9.48035 28.0455C10.1939 27.4314 10.7036 26.6125 11.0094 25.7937C10.9074 25.6913 10.7036 25.589 10.6016 25.4866C10.092 25.1795 9.58229 24.8725 8.97068 24.6678C7.95132 24.3607 6.93197 24.3607 5.81068 24.5654C4.07777 25.1795 2.65068 26.5102 2.03906 28.2502C3.46616 29.3761 5.40293 29.8879 7.13584 29.3761Z" fill="#006A4E"/>
<path d="M32.1093 8.49561C31.2939 8.70032 30.5803 8.90503 29.7648 9.10974C29.5609 9.62152 29.3571 10.1333 29.0513 10.6451C30.4784 10.1333 31.9055 9.72387 33.4345 9.41681C33.0268 9.2121 32.5171 8.90503 32.1093 8.49561Z" fill="#006A4E"/>
<path d="M10.397 22.211C10.8047 22.6205 11.3144 23.0299 11.926 23.2346C12.1299 23.337 12.2318 23.4393 12.4357 23.4393C13.1492 22.6205 13.557 21.5969 13.6589 20.5734C13.7608 19.8569 13.7608 19.038 13.557 18.3215C13.557 18.2192 13.455 18.1168 13.455 18.0145C12.9453 16.3768 11.6202 15.0461 9.98921 14.432C8.76599 15.865 8.35825 17.8097 8.86792 19.5498C9.17373 20.5734 9.68341 21.4946 10.397 22.211Z" fill="#E08433"/>
<path d="M16.7174 14.5345C16.8193 14.5345 17.0232 14.6368 17.1251 14.6368C17.8387 14.8415 18.4503 14.8415 19.1638 14.8415C20.2851 14.7392 21.4064 14.2274 22.3238 13.5109C22.2219 13.3062 22.12 12.9991 22.018 12.7944C21.7122 12.2826 21.4064 11.7709 20.8967 11.3614C20.1832 10.7473 19.3677 10.2355 18.4503 9.92846C16.6155 9.41668 14.7806 9.92846 13.3535 11.0544C13.8632 12.6921 15.0864 13.9203 16.7174 14.5345Z" fill="#006A4E"/>
<path d="M24.1586 11.464C24.2605 11.6687 24.4644 11.8734 24.6682 12.0781C25.7895 11.6687 26.8089 10.8498 27.4205 9.92864C27.7263 9.41686 28.0321 8.80273 28.236 8.18859C28.236 7.98388 28.3379 7.77917 28.3379 7.57446C28.5418 6.03912 28.134 4.40143 27.1147 3.0708C25.3818 3.68494 24.0566 5.11792 23.5469 6.96032C23.3431 7.88153 23.3431 8.90508 23.5469 9.72393C23.6489 10.4404 23.8528 10.9522 24.1586 11.464Z" fill="#E08433"/>
<path d="M68.603 89.8683L68.5011 89.766L65.0353 86.2859C64.7295 86.593 64.3217 86.7977 63.914 87.0024C64.0159 87.3094 64.2198 87.7189 64.3217 88.0259L64.7295 89.2542L65.1372 90.3801L64.3217 91.199L63.3024 92.1202C63.0985 92.2225 62.9965 92.4272 62.7927 92.5296C61.4675 104.505 51.4778 113.41 39.4494 113.41C27.4211 113.41 17.4314 104.403 16.1062 92.5296C15.9024 92.4272 15.8004 92.2225 15.5965 92.1202L14.5772 91.199L13.7617 90.3801L14.1694 89.2542L14.5772 88.0259C14.6791 87.7189 14.7811 87.3094 14.9849 87.0024C14.5772 86.7977 14.2714 86.4906 13.8636 86.2859L10.3978 89.766L10.2959 89.8683C12.3346 104.403 24.6688 115.15 39.4494 115.15C54.2301 115.253 66.5643 104.403 68.603 89.8683Z" fill="#E08433"/>
<path d="M34.5562 117.914C34.0465 118.221 33.5368 118.528 33.0272 118.937C32.9252 119.04 32.7213 119.244 32.6194 119.347C31.6001 120.677 31.1923 122.315 31.3962 123.953C33.231 124.26 35.0659 123.646 36.391 122.417C37.1046 121.701 37.5123 120.882 37.8181 120.063C38.022 119.449 38.1239 118.835 38.022 118.221C38.022 117.914 38.022 117.607 37.9201 117.402C36.9007 117.197 35.6775 117.402 34.5562 117.914Z" fill="#E08433"/>
<path d="M33.537 116.481C32.008 116.174 30.5809 115.764 29.1538 115.253C29.4596 115.764 29.6635 116.276 29.8674 116.788C30.5809 116.993 31.3964 117.197 32.2119 117.402C32.5177 117.095 33.0274 116.788 33.537 116.481Z" fill="#006A4E"/>
<path d="M33.1289 6.96017C33.5366 7.3696 34.0463 7.77902 34.6579 7.98373C35.7792 8.49551 37.0025 8.70022 38.2257 8.49551C38.2257 8.18844 38.3276 7.88137 38.3276 7.67666C38.3276 7.06253 38.2257 6.44839 38.1237 5.83426C37.8179 4.91306 37.4102 4.09421 36.6966 3.48007C35.3715 2.14945 33.5366 1.53531 31.7018 1.94474C31.396 3.58243 31.8037 5.22012 32.925 6.55075C32.8231 6.6531 32.925 6.75546 33.1289 6.96017Z" fill="#006A4E"/>
<path d="M28.2364 117.709C28.0325 117.095 27.8286 116.481 27.4209 115.969C26.7073 114.946 25.7899 114.229 24.6686 113.82C24.4647 114.024 24.3628 114.229 24.1589 114.434C23.8531 114.946 23.6493 115.56 23.4454 116.072C23.2415 116.993 23.2415 117.914 23.4454 118.835C23.9551 120.678 25.2802 122.111 27.0131 122.725C28.0325 121.496 28.5422 119.756 28.2364 118.119C28.3383 118.119 28.2364 117.914 28.2364 117.709Z" fill="#006A4E"/>
<path d="M17.1255 111.261C17.0236 111.261 16.8197 111.363 16.7178 111.363C15.0868 111.977 13.8636 113.205 13.252 114.843C14.6791 116.071 16.6158 116.481 18.3487 115.969C19.2661 115.764 20.0816 115.253 20.7952 114.536C21.2029 114.127 21.6107 113.615 21.9165 113.103C22.0184 112.898 22.1203 112.591 22.2223 112.387C21.3049 111.67 20.2855 111.158 19.0623 111.056C18.4507 111.056 17.8391 111.158 17.1255 111.261Z" fill="#E08433"/>
<path d="M10.3975 36.1317H14.1691L13.8633 35.1081L14.6788 34.2893L15.6981 33.3681C15.902 33.1634 16.1058 33.061 16.2078 32.9586C17.7368 21.1877 27.5226 12.3851 39.4491 12.3851C51.3755 12.3851 61.2633 21.1877 62.6904 32.9586C62.8942 33.061 63.0981 33.2657 63.2 33.3681L64.2194 34.2893L65.0349 35.1081L64.7291 36.1317H68.5007C66.462 21.5972 54.1278 10.7474 39.3471 10.7474C24.6684 10.7474 12.3342 21.5972 10.3975 36.1317Z" fill="#E08433"/>
<path d="M44.3422 7.98382C44.8518 7.67675 45.3615 7.36969 45.8712 6.96026C45.9731 6.85791 46.177 6.6532 46.2789 6.55084C47.2983 5.22022 47.706 3.58252 47.5022 1.94483C45.6673 1.63776 43.8325 2.2519 42.5073 3.48017C41.7938 4.19666 41.386 5.0155 41.0802 5.83435C40.8763 6.44848 40.7744 7.06262 40.7744 7.67675C40.7744 7.98382 40.7744 8.29089 40.8763 8.4956C42.0996 8.70031 43.3228 8.4956 44.3422 7.98382Z" fill="#E08433"/>
<path d="M23.7513 25.6913L21.2029 24.2583C20.1836 25.7936 19.47 27.4313 18.8584 29.2737L22.1203 29.8879C22.5281 28.3525 23.0378 26.9196 23.7513 25.6913Z" fill="#E08433"/>
<path d="M18.2466 31.8328C18.7563 31.6281 19.3679 31.4233 19.8776 31.321L18.3485 31.0139C18.3485 31.2186 18.3485 31.5257 18.2466 31.8328Z" fill="#006A4E"/>
<path d="M45.4634 9.5191C46.9924 9.82617 48.4195 10.2356 49.8466 10.7474C49.5408 10.2356 49.3369 9.72381 49.1331 9.21204C48.4195 9.00732 47.604 8.80261 46.7885 8.5979C46.4827 8.90497 45.9731 9.21204 45.4634 9.5191Z" fill="#006A4E"/>
<path d="M65.4428 18.3215C65.2389 19.038 65.2389 19.8569 65.3409 20.5734C65.4428 21.5969 65.9525 22.6205 66.5641 23.4393C66.768 23.337 66.8699 23.337 67.0738 23.2346C67.5835 22.9275 68.0932 22.6205 68.6028 22.211C69.3164 21.4946 69.928 20.5734 70.1319 19.5498C70.6415 17.7074 70.1319 15.865 69.0106 14.432C67.3796 15.0461 66.1564 16.3768 65.5448 18.0145C65.5448 18.0145 65.4428 18.1168 65.4428 18.3215Z" fill="#006A4E"/>
<path d="M27.6244 20.8807L25.9934 18.9359C24.6683 20.0618 23.3431 21.2901 22.3237 22.7231L24.7702 24.1561C25.5857 22.9278 26.5031 21.9042 27.6244 20.8807Z" fill="#006A4E"/>
<path d="M50.7643 8.29095C50.9682 8.90508 51.172 9.51922 51.5798 10.031C52.2933 11.0546 53.2107 11.771 54.332 12.1805C54.5359 11.9758 54.6378 11.771 54.8417 11.5663C55.1475 11.0546 55.3514 10.4404 55.5553 9.92864C55.7591 9.00744 55.7591 8.08624 55.5553 7.16503C55.0456 5.22027 53.6185 3.68494 51.8856 3.0708C50.8662 4.29907 50.3566 6.03912 50.6624 7.67681C50.6624 7.88152 50.7643 8.08624 50.7643 8.29095Z" fill="#006A4E"/>
<path d="M61.8751 14.6367C61.977 14.6367 62.1809 14.5344 62.2828 14.5344C63.9138 13.9203 65.137 12.692 65.7486 11.0543C64.3215 9.82602 62.3848 9.4166 60.6519 9.92838C59.7344 10.1331 58.919 10.6449 58.2054 11.3614C57.7977 11.7708 57.3899 12.2826 57.0841 12.7943C56.9822 12.9991 56.8803 13.3061 56.7783 13.5108C57.6957 14.2273 58.7151 14.7391 59.9383 14.8415C60.5499 14.9438 61.1615 14.8415 61.8751 14.6367Z" fill="#E08433"/>
<path d="M18.8579 16.684C18.756 16.684 18.654 16.684 18.5521 16.684C18.1444 16.684 17.6347 16.5817 17.2269 16.5817C16.6153 17.1958 16.0037 17.8099 15.3921 18.5264C15.494 19.0382 15.494 19.6523 15.494 20.1641C16.5134 18.8335 17.6347 17.7076 18.8579 16.684Z" fill="#006A4E"/>
<path d="M60.3454 16.684C60.2434 16.684 60.1415 16.684 60.0396 16.684C61.2628 17.7076 62.3841 18.9359 63.4034 20.1641C63.4034 19.6524 63.4034 19.0382 63.5054 18.5264C62.8937 17.9123 62.2821 17.1958 61.6705 16.684C61.2628 16.5817 60.855 16.684 60.3454 16.684Z" fill="#006A4E"/>
<path d="M60.0404 29.1714C59.4287 27.4314 58.7152 25.6913 57.6958 24.156L55.1475 25.589C55.861 26.8173 56.3707 28.2502 56.7784 29.6832L60.0404 29.1714Z" fill="#006A4E"/>
<path d="M47.0943 15.558L46.2788 17.7075C47.604 18.2192 48.8272 18.9357 50.0504 19.7546L51.5795 17.9122C50.1524 16.991 48.6233 16.1721 47.0943 15.558Z" fill="#006A4E"/>
<path d="M53.0065 19.0382L51.3755 20.983C52.4968 21.9042 53.4142 23.0301 54.2297 24.2584L56.6761 22.8254C55.6568 21.3924 54.4336 20.0618 53.0065 19.0382Z" fill="#E08433"/>
<path d="M60.5497 30.9113L59.1226 31.2183C59.7342 31.3207 60.2438 31.5254 60.7535 31.7301C60.6516 31.5254 60.6516 31.2183 60.5497 30.9113Z" fill="#E08433"/>
<path d="M38.6336 14.2274C36.9007 14.3298 35.2698 14.5345 33.7407 15.0463L34.4543 17.0934C35.7794 16.684 37.2065 16.4792 38.6336 16.3769V14.2274Z" fill="#006A4E"/>
<path d="M32.722 17.7075L31.9065 15.558C30.2756 16.1721 28.7465 16.8886 27.4214 17.9122L28.9504 19.7546C30.1736 18.9357 31.3969 18.2192 32.722 17.7075Z" fill="#E08433"/>
<path d="M40.3662 14.2274V16.3769C41.7933 16.4792 43.2204 16.684 44.5456 17.0934L45.2591 15.0463C43.7301 14.6368 42.0991 14.3298 40.3662 14.2274Z" fill="#E08433"/>
<path d="M18.8579 109.316C17.6347 108.292 16.5134 107.064 15.494 105.836C15.494 106.348 15.494 106.962 15.3921 107.473C16.0037 108.088 16.6153 108.804 17.2269 109.418C17.8385 109.316 18.3482 109.316 18.8579 109.316Z" fill="#006A4E"/>
<path d="M56.5741 39.2023C58.0012 38.7929 59.1225 37.8717 59.6322 36.5411C58.5109 35.7222 56.9819 35.4152 55.6567 35.8246C54.2296 36.234 53.1083 37.1552 52.5986 38.4858C53.7199 39.3047 55.147 39.6118 56.5741 39.2023Z" fill="#E08433"/>
<path d="M51.5799 62.8466C51.5799 66.8385 49.6431 70.3186 46.687 72.5704C51.8857 70.9327 56.5748 67.555 59.7348 62.8466C56.5748 58.1382 51.9877 54.7605 46.687 53.1228C49.6431 55.3746 51.5799 58.8547 51.5799 62.8466Z" fill="#E08433"/>
<path d="M19.2656 62.8466C22.4256 67.555 27.0127 70.9327 32.3134 72.5704C29.3572 70.3186 27.4205 66.8385 27.4205 62.8466C27.4205 58.8547 29.3572 55.3746 32.3134 53.1228C27.0127 54.7605 22.4256 58.1382 19.2656 62.8466Z" fill="#E08433"/>
<path d="M29.2549 62.8465C29.2549 68.5784 33.842 73.1844 39.5504 73.1844C45.2588 73.1844 49.8459 68.5784 49.8459 62.8465C49.8459 57.1146 45.2588 52.5085 39.5504 52.5085C33.842 52.5085 29.2549 57.1146 29.2549 62.8465ZM39.4484 56.091C43.1181 56.091 46.1762 59.0593 46.1762 62.8465C46.1762 66.5313 43.2201 69.602 39.4484 69.602C35.7788 69.602 32.7207 66.6337 32.7207 62.8465C32.8226 59.0593 35.7788 56.091 39.4484 56.091Z" fill="#F9F9F4"/>
<path d="M30.9885 34.1867C31.3962 32.7537 31.0904 31.3207 30.275 30.1948C28.9498 30.809 28.0324 31.9349 27.6246 33.2655C27.2169 34.6985 27.5227 36.1315 28.3382 37.2574C29.6633 36.7456 30.6827 35.6197 30.9885 34.1867Z" fill="#E08433"/>
<path d="M50.5601 37.3598C51.3756 36.2339 51.6814 34.6985 51.2737 33.3679C50.8659 31.9349 49.9485 30.809 48.6234 30.2972C47.8079 31.4232 47.5021 32.9585 47.9098 34.2891C48.3175 35.6197 49.3369 36.7457 50.5601 37.3598Z" fill="#E08433"/>
<path d="M21.1009 67.8619C19.7758 66.5312 18.4506 64.9959 17.4313 63.2559L17.1254 62.7441L17.4313 62.2323C18.5525 60.5946 19.7758 59.0593 21.2029 57.6263C18.2467 57.6263 15.6984 56.1933 14.0674 54.0438V71.4443C15.5964 69.2949 18.1448 67.8619 21.1009 67.8619Z" fill="#006A4E"/>
<path d="M70.4375 30.809C69.9278 30.6042 69.52 30.2972 69.1123 29.9901C69.7239 31.9349 70.2336 33.982 70.5394 36.1315H71.5588C71.2529 34.2891 70.9471 32.549 70.4375 30.809Z" fill="#006A4E"/>
<path d="M63.9135 40.6352C63.1999 40.021 62.2825 39.6116 61.467 39.3045C61.9767 38.5881 62.3844 37.7692 62.6902 36.9504L63.098 35.7221L62.0786 34.8009C60.6515 33.4703 58.8167 32.7538 56.8799 32.7538C56.1664 32.7538 55.5547 32.8561 54.8412 33.0608C54.6373 33.1632 54.4335 33.1632 54.2296 33.2656C54.2296 33.0608 54.1276 32.8561 54.1276 32.6514C53.4141 30.0925 51.5793 28.0454 49.0309 27.2266L47.8076 26.8171L46.8902 27.8407C45.5651 29.376 44.8515 31.2184 44.8515 33.1632C43.1186 32.5491 41.2838 32.242 39.4489 32.242C37.6141 32.242 35.7793 32.5491 34.0464 33.1632C34.0464 31.2184 33.3328 29.2737 32.0076 27.8407L31.0902 26.8171L29.867 27.2266C27.3186 28.0454 25.4838 30.0925 24.7702 32.6514C24.6683 32.8561 24.6683 33.0608 24.6683 33.2656C24.4644 33.1632 24.2605 33.1632 24.0567 33.0608C23.3431 32.8561 22.7315 32.7538 22.018 32.7538C20.0812 32.7538 18.2464 33.4703 16.8193 34.8009L15.7999 35.7221L16.2076 36.9504C16.5134 37.7692 16.9212 38.5881 17.4309 39.3045C16.5134 39.6116 15.698 40.1234 14.9844 40.6352V37.9739H3.36377V82.601L9.17409 88.5377L13.7612 83.9317C14.7805 85.0576 16.1057 85.8764 17.5328 86.3882C17.0231 87.1047 16.6154 87.9235 16.3096 88.7424L15.9018 89.9707L16.9212 90.8919C18.3483 92.2225 20.2851 92.939 22.1199 92.939C22.7315 92.939 23.4451 92.8366 24.0567 92.6319C24.2605 92.5296 24.4644 92.5296 24.6683 92.4272C24.6683 92.6319 24.7702 92.8366 24.7702 93.0413C25.4838 95.6002 27.3186 97.6474 29.867 98.4662L31.0902 98.8756L32.0076 97.8521C33.3328 96.3167 34.0464 94.4743 34.0464 92.5296C35.7793 93.1437 37.6141 93.4508 39.4489 93.4508C41.2838 93.4508 43.1186 93.1437 44.8515 92.5296C44.8515 94.4743 45.5651 96.4191 46.8902 97.8521L47.8076 98.8756L49.0309 98.4662C51.5793 97.6474 53.4141 95.6002 54.1276 93.0413C54.2296 92.8366 54.2296 92.6319 54.2296 92.4272C54.4335 92.5296 54.6373 92.5296 54.8412 92.6319C55.4528 92.8366 56.1664 92.939 56.778 92.939C58.7147 92.939 60.5496 92.2225 61.9767 90.8919L62.996 89.9707L62.5883 88.7424C62.2825 87.9235 61.8747 87.1047 61.3651 86.3882C62.7922 85.8764 64.0154 85.0576 65.1367 83.9317L69.7238 88.5377L75.636 82.601V37.9739H63.9135V40.6352ZM65.0347 43.3988V39.0998H74.5147V82.1916L69.7238 87.0023L65.0347 82.294C63.7096 84.1364 61.5689 85.467 59.2244 85.8764C60.3457 86.6953 61.1612 87.8212 61.5689 89.1518L61.7728 89.6636L61.3651 90.073C60.1418 91.1989 58.5109 91.8131 56.9818 91.8131C56.3702 91.8131 55.8605 91.7107 55.2489 91.6084C54.5354 91.4036 53.9238 91.0966 53.3122 90.6872C53.3122 91.4036 53.3122 92.1201 53.1083 92.8366C52.4967 94.9861 50.8657 96.7262 48.7251 97.4426L48.2154 97.6474L47.8076 97.2379C46.2786 95.6002 45.7689 93.2461 46.2786 91.0966C46.2786 90.9942 46.3806 90.8919 46.3806 90.7895C44.3418 91.8131 41.9973 92.4272 39.5509 92.4272C37.1044 92.4272 34.7599 91.8131 32.7212 90.7895C32.7212 90.8919 32.8231 90.9942 32.8231 91.0966C33.4347 93.2461 32.8231 95.6002 31.2941 97.2379L30.8864 97.6474L30.3767 97.4426C28.236 96.7262 26.6051 94.9861 25.9935 92.8366C25.7896 92.1201 25.7896 91.4036 25.7896 90.6872C25.178 91.0966 24.5664 91.4036 23.8528 91.6084C23.2412 91.7107 22.7315 91.8131 22.1199 91.8131C20.4889 91.8131 18.9599 91.1989 17.7367 90.073L17.3289 89.6636L17.5328 89.1518C17.9405 87.8212 18.756 86.6953 19.8773 85.8764C17.5328 85.467 15.3922 84.2387 14.067 82.294L9.17409 86.9L4.38312 82.0893V81.6799V39.0998H13.8631V43.3988C15.1883 41.5564 17.3289 40.3281 19.6734 39.9187C18.5522 39.0998 17.7367 37.9739 17.3289 36.6433L17.1251 36.1315L17.5328 35.7221C19.1638 34.1868 21.5083 33.675 23.6489 34.1868C24.3625 34.3915 24.9741 34.6985 25.5857 35.108C25.5857 34.3915 25.5857 33.675 25.7896 32.9585C26.4012 30.809 28.0322 29.069 30.1728 28.3525L30.6825 28.1478L31.0902 28.5572C32.6193 30.1949 33.1289 32.5491 32.6193 34.6985C32.6193 34.8009 32.5173 34.9032 32.5173 35.0056C34.556 33.982 36.9005 33.3679 39.347 33.3679C41.7934 33.3679 44.138 33.982 46.1767 35.0056C46.1767 34.9032 46.0747 34.8009 46.0747 34.6985C45.4631 32.5491 46.0747 30.1949 47.6038 28.5572L48.0115 28.1478L48.5212 28.3525C50.6618 29.069 52.2928 30.809 52.9044 32.9585C53.1083 33.675 53.1083 34.3915 53.1083 35.108C53.7199 34.6985 54.3315 34.3915 55.0451 34.1868C57.1857 33.5726 59.5302 34.1868 61.1612 35.7221L61.5689 36.1315L61.3651 36.6433C60.9573 37.9739 60.1418 39.0998 59.0205 39.9187C61.5689 40.2257 63.7096 41.5564 65.0347 43.3988Z" fill="#006A4E"/>
<path d="M53.2106 43.2965L52.2932 44.1153L51.7835 42.9894C49.5409 38.1787 44.75 35.108 39.5513 35.108C34.3525 35.108 29.4596 38.1787 27.319 42.9894L26.8093 44.1153L25.8919 43.2965C24.5667 42.1706 22.9358 41.5564 21.2029 41.5564C17.2274 41.5564 14.0674 44.7295 14.0674 48.7214C14.0674 52.7132 17.2274 55.8863 21.2029 55.8863C21.7125 55.8863 22.1203 55.8863 22.63 55.7839C23.1396 55.6815 23.6493 55.4768 24.0571 55.2721C24.8725 54.658 25.688 54.1462 26.5035 53.6344C23.5474 53.3274 20.8971 51.3826 19.5719 48.7214L21.2029 48.0049C22.3242 50.4614 24.7706 51.9967 27.4209 51.9967C29.7654 51.9967 31.9061 50.7685 33.2313 48.8237C32.4158 48.0049 31.7022 47.0837 31.1925 46.0601L32.8235 45.3436C34.0467 48.0049 36.6971 49.6426 39.5513 49.6426C42.4054 49.6426 45.0558 47.9025 46.279 45.3436L47.91 46.0601C47.4003 47.0837 46.7887 48.0049 45.9732 48.8237C47.1964 50.7685 49.439 52.0991 51.7835 52.0991C54.4338 52.0991 56.8803 50.5638 58.0016 48.1072L59.6325 48.8237C58.3074 51.5873 55.6571 53.4297 52.7009 53.8391C53.5164 54.3509 54.3319 54.8627 55.1474 55.4768C55.6571 55.6815 56.0648 55.8863 56.5745 55.9886C56.9822 56.091 57.4919 56.091 58.0016 56.091C61.9771 56.091 65.1371 52.9179 65.1371 48.9261C65.1371 44.9342 61.9771 41.7612 58.0016 41.7612C56.1667 41.5564 54.5358 42.1706 53.2106 43.2965Z" fill="#F9F9F4"/>
<path d="M73.0875 24.6677C72.0681 24.3606 70.9469 24.463 70.0294 24.7701C69.4178 24.9748 68.9081 25.1795 68.3985 25.5889C68.2965 25.6913 68.0927 25.7936 67.9907 25.896C68.2965 26.8172 68.8062 27.5337 69.5198 28.1478C70.1314 28.7619 70.9469 29.1714 71.8643 29.3761C73.6991 29.8878 75.5339 29.3761 76.961 28.2502C76.3494 26.5101 74.9223 25.1795 73.0875 24.6677Z" fill="#E08433"/>
<path d="M22.4257 86.3883C20.9986 86.7978 19.8774 87.719 19.3677 89.0496C20.489 89.8684 22.018 90.1755 23.3432 89.7661C24.7703 89.3567 25.8916 88.4355 26.4012 87.1048C25.2799 86.286 23.8528 86.0813 22.4257 86.3883Z" fill="#E08433"/>
<path d="M48.0119 91.4038C47.6041 92.8368 47.9099 94.2698 48.7254 95.3957C50.0506 94.7815 50.968 93.6556 51.3757 92.325C51.7835 90.892 51.4777 89.459 50.6622 88.3331C49.337 88.8449 48.3177 89.9708 48.0119 91.4038Z" fill="#E08433"/>
<path d="M28.4402 88.2307C27.6248 89.3566 27.319 90.892 27.7267 92.2226C28.1344 93.6556 29.0519 94.7815 30.377 95.2933C31.1925 94.1673 31.4983 92.632 31.0906 91.3014C30.6828 89.9708 29.6635 88.8448 28.4402 88.2307Z" fill="#E08433"/>
<path d="M56.5741 86.3883C55.147 85.9789 53.7199 86.286 52.5986 87.1048C53.2102 88.4354 54.3315 89.3566 55.6567 89.7661C57.0838 90.1755 58.5109 89.8684 59.6322 89.0496C59.0206 87.7189 57.8993 86.7977 56.5741 86.3883Z" fill="#E08433"/>
<path d="M57.8998 69.7044C57.3901 69.7044 56.9823 69.7044 56.4727 69.8068C55.963 69.9091 55.4533 70.1138 54.9436 70.3185C54.1282 70.9327 53.3127 71.4445 52.4972 71.8539C55.4533 72.1609 58.1036 74.0033 59.4288 76.8693L57.7978 77.5858C56.6765 75.1293 54.2301 73.5939 51.5798 73.5939C49.2353 73.5939 47.0946 74.8222 45.7695 76.767C46.5849 77.5858 47.2985 78.507 47.8082 79.5306L46.1772 80.2471C44.954 77.5858 42.3036 75.9481 39.4495 75.9481C36.5953 75.9481 33.9449 77.6882 32.7217 80.2471L31.0907 79.5306C31.6004 78.507 32.212 77.5858 33.0275 76.767C31.8043 74.8222 29.5617 73.4916 27.2172 73.4916C24.5669 73.4916 22.1204 75.0269 20.9991 77.4834L19.3682 76.767C20.6933 74.0034 23.3436 72.1609 26.2998 71.7515C25.4843 71.2397 24.6688 70.728 23.8533 70.2162C23.3436 70.0115 22.834 69.8068 22.3243 69.7044C21.9166 69.602 21.4069 69.6021 20.8972 69.6021C16.9217 69.6021 13.7617 72.7751 13.7617 76.767C13.7617 80.7588 16.9217 83.9319 20.8972 83.9319C22.6301 83.9319 24.2611 83.3177 25.5862 82.1918L26.5036 81.373L27.0133 82.4989C29.2559 87.3096 34.0469 90.3803 39.2456 90.3803C44.4443 90.3803 49.3372 87.3096 51.4778 82.4989L51.9875 81.373L52.9049 82.1918C54.2301 83.3177 55.8611 83.9319 57.594 83.9319C61.5694 83.9319 64.7294 80.7588 64.7294 76.767C65.0352 72.8774 61.8752 69.7044 57.8998 69.7044Z" fill="#F9F9F4"/>
<path d="M57.8988 57.7286C59.224 59.0592 60.5491 60.5945 61.5685 62.3346L61.8743 62.8464L61.5685 63.3581C60.4472 65.0982 59.224 66.5312 57.7969 67.9641C60.753 67.9641 63.3014 69.3971 64.9324 71.5466V54.1461C63.4033 56.2956 60.8549 57.7286 57.8988 57.7286Z" fill="#006A4E"/>
<path d="M22.4257 39.2023C23.8528 39.6118 25.2799 39.3047 26.4012 38.4858C25.7896 37.1552 24.6683 36.234 23.3432 35.8246C21.9161 35.4152 20.489 35.7222 19.3677 36.5411C19.9793 37.8717 21.1006 38.7929 22.4257 39.2023Z" fill="#E08433"/>
<path d="M68.6028 103.789C68.1951 103.379 67.6854 102.97 67.0738 102.765C66.8699 102.663 66.768 102.56 66.5641 102.56C65.8506 103.379 65.4428 104.403 65.3409 105.426C65.2389 106.143 65.2389 106.962 65.4428 107.678C65.4428 107.781 65.5448 107.883 65.5448 107.985C66.0544 109.623 67.3796 110.954 69.0106 111.568C70.2338 110.135 70.6415 108.19 70.1319 106.45C69.8261 105.426 69.3164 104.505 68.6028 103.789Z" fill="#E08433"/>
<path d="M45.8706 119.04C45.4628 118.63 44.9532 118.221 44.3416 118.016C43.2203 117.504 41.997 117.3 40.7738 117.504C40.7738 117.811 40.6719 118.118 40.6719 118.323C40.6719 118.937 40.7738 119.551 40.8757 120.166C41.1815 121.087 41.5893 121.906 42.3028 122.52C43.628 123.85 45.4628 124.465 47.2977 124.055C47.6035 122.417 47.0938 120.78 46.0745 119.449C46.1764 119.347 46.0745 119.142 45.8706 119.04Z" fill="#006A4E"/>
<path d="M62.2827 111.465C62.1808 111.465 61.9769 111.363 61.875 111.363C61.1614 111.158 60.5498 111.158 59.8363 111.158C58.715 111.261 57.5937 111.772 56.6763 112.489C56.7782 112.694 56.8801 113.001 56.9821 113.205C57.2879 113.717 57.5937 114.229 58.1034 114.638C58.8169 115.252 59.6324 115.764 60.5498 116.071C62.3847 116.583 64.2195 116.071 65.6466 114.945C65.1369 113.205 63.9137 111.977 62.2827 111.465Z" fill="#006A4E"/>
<path d="M54.8417 114.434C54.7398 114.229 54.5359 114.024 54.332 113.82C53.2107 114.229 52.1914 115.048 51.5798 115.969C51.274 116.481 50.9682 117.095 50.7643 117.709C50.7643 117.914 50.6624 118.119 50.6624 118.323C50.3566 119.961 50.8662 121.599 51.8856 122.929C53.6185 122.315 54.9437 120.882 55.4533 119.04C55.6572 118.119 55.6572 117.095 55.4533 116.276C55.3514 115.56 55.1475 114.946 54.8417 114.434Z" fill="#E08433"/>
<path d="M46.8906 117.504C47.7061 117.3 48.4196 117.095 49.2351 116.89C49.439 116.379 49.6428 115.867 49.9487 115.355C48.5216 115.867 47.0945 116.276 45.5654 116.583C45.9732 116.788 46.4828 117.095 46.8906 117.504Z" fill="#006A4E"/>
<path d="M68.9088 45.9578H66.8701V48.7214V76.8692V78.0975C67.4817 77.5857 68.1953 77.2786 68.9088 77.1763V45.9578Z" fill="#E08433"/>
<path d="M60.1421 109.316C60.6518 109.316 61.2634 109.316 61.7731 109.418C62.3847 108.804 62.9963 108.19 63.6079 107.473C63.506 106.962 63.506 106.348 63.506 105.836C62.4866 107.064 61.3653 108.292 60.1421 109.316Z" fill="#006A4E"/>
<path d="M56.6771 103.175L54.2307 101.742C53.4152 102.97 52.3958 103.994 51.3765 105.017L53.0074 106.962C54.4345 105.836 55.6578 104.608 56.6771 103.175Z" fill="#E08433"/>
<path d="M60.7538 93.7579C59.9384 94.1674 59.0209 94.3721 58.1035 94.4744L60.55 94.8838C60.6519 94.5768 60.7538 94.1674 60.7538 93.7579Z" fill="#E08433"/>
<path d="M55.25 100.309L57.7984 101.742C58.8177 100.206 59.5313 98.5685 60.1429 96.7261L56.881 96.2144C56.4732 97.6473 55.9635 98.978 55.25 100.309Z" fill="#006A4E"/>
<path d="M46.2793 108.19L47.0948 110.34C48.7257 109.725 50.2548 109.009 51.5799 107.985L50.0509 106.143C48.8277 106.962 47.6045 107.678 46.2793 108.19Z" fill="#006A4E"/>
<path d="M40.3672 111.67C42.1001 111.568 43.7311 111.363 45.2601 110.851L44.5466 108.804C43.2214 109.214 41.7943 109.418 40.3672 109.521V111.67Z" fill="#E08433"/>
<path d="M38.6341 111.67V109.521C37.207 109.418 35.7799 109.214 34.4548 108.804L33.7412 110.851C35.2702 111.363 36.9012 111.568 38.6341 111.67Z" fill="#006A4E"/>
<path d="M24.6691 101.844L22.2227 103.277C23.242 104.71 24.5672 105.938 25.8923 107.064L27.5233 105.119C26.504 104.096 25.5865 102.97 24.6691 101.844Z" fill="#006A4E"/>
<path d="M18.4509 94.9868L20.8974 94.5773C19.98 94.475 19.0626 94.1679 18.2471 93.8608C18.2471 94.1679 18.349 94.5773 18.4509 94.9868Z" fill="#006A4E"/>
<path d="M18.9604 96.7261C19.5721 98.4662 20.2856 100.206 21.305 101.742L23.8533 100.309C23.1398 99.0803 22.6301 97.6473 22.2224 96.2144L18.9604 96.7261Z" fill="#E08433"/>
<path d="M32.7215 108.19C31.3964 107.678 30.1732 106.962 28.9499 106.143L27.4209 107.985C28.848 108.907 30.377 109.725 31.9061 110.34L32.7215 108.19Z" fill="#E08433"/>
<path d="M12.1305 40.8398H6.21826V44.1152H12.1305V40.8398Z" fill="#F9F9F4"/>
<path d="M70.7432 77.1763C71.4567 77.381 72.1703 77.6881 72.7819 78.1998V45.9578H70.7432V77.1763Z" fill="#E08433"/>
<path d="M72.7824 40.8398H66.8701V44.1152H72.7824V40.8398Z" fill="#F9F9F4"/>
<path d="M10.0918 77.1763C10.8053 77.381 11.5189 77.6881 12.1305 78.1998V76.9716V48.7214V45.9578H10.0918V77.1763Z" fill="#E08433"/>
<path d="M69.7243 78.814C68.1953 78.814 67.074 79.9399 66.8701 81.3729L69.8263 84.3412L72.6805 81.4752C72.4766 80.0422 71.2534 78.814 69.7243 78.814Z" fill="#F9F9F4"/>
<path d="M8.25697 45.9578H6.21826V77.9951C6.82987 77.4833 7.54342 77.1763 8.25697 77.0739V45.9578Z" fill="#E08433"/>
<path d="M71.5591 89.3566L71.0494 89.8683L70.3359 90.4825C70.0301 92.3249 69.6224 94.1673 69.0107 95.9073C69.4185 95.6003 69.9282 95.2932 70.3359 95.0885C70.9475 93.2461 71.3552 91.3013 71.5591 89.3566Z" fill="#006A4E"/>
<path d="M71.8643 96.624C70.9469 96.8287 70.1314 97.3405 69.5198 97.9546C68.8062 98.5688 68.2965 99.3876 67.9907 100.206C68.0927 100.309 68.2965 100.411 68.3985 100.514C68.9081 100.821 69.4178 101.128 70.0294 101.332C71.0488 101.639 72.0682 101.639 73.1894 101.435C75.0243 100.923 76.4514 99.5923 77.063 97.8523C75.534 96.5216 73.5972 96.1122 71.8643 96.624Z" fill="#006A4E"/>
<path d="M9.17451 78.814C7.64547 78.814 6.52418 79.9399 6.32031 81.3729L9.17451 84.3412L12.0287 81.4752C11.9268 80.0422 10.7035 78.814 9.17451 78.814Z" fill="#F9F9F4"/>
<path d="M39.4494 69.4995C43.1191 69.4995 46.1772 66.5312 46.1772 62.744C46.1772 59.0592 43.221 55.9885 39.4494 55.9885C35.7797 55.9885 32.7217 58.9568 32.7217 62.744C32.8236 66.5312 35.7797 69.4995 39.4494 69.4995Z" fill="#072119"/>
<path d="M65.035 39.0999V43.3988C63.7099 41.5564 61.5692 40.3282 59.2247 39.9187C60.346 39.0999 61.1615 37.974 61.5692 36.6434L61.7731 36.1316L61.3653 35.7222C59.7344 34.1868 57.3899 33.675 55.2492 34.1868C54.5357 34.3915 53.9241 34.6986 53.3124 35.108C53.3124 34.3915 53.3124 33.675 53.1086 32.9586C52.497 30.8091 50.866 29.069 48.7253 28.3525L48.2157 28.1478L47.8079 28.5573C46.2789 30.1949 45.7692 32.5491 46.2789 34.6986C46.2789 34.801 46.3808 34.9033 46.3808 35.0057C44.3421 33.9821 41.9976 33.368 39.5512 33.368C37.1047 33.368 34.7602 33.9821 32.7215 35.0057C32.7215 34.9033 32.8234 34.801 32.8234 34.6986C33.435 32.5491 32.8234 30.1949 31.2944 28.5573L30.8866 28.1478L30.377 28.3525C28.2363 29.069 26.6054 30.8091 25.9937 32.9586C25.7899 33.675 25.7899 34.3915 25.7899 35.108C25.1783 34.6986 24.5666 34.3915 23.8531 34.1868C21.7124 33.5727 19.3679 34.1868 17.737 35.7222L17.3292 36.1316L17.5331 36.6434C17.9408 37.974 18.7563 39.0999 19.8776 39.9187C17.5331 40.3282 15.4944 41.5564 14.0673 43.3988V39.0999H4.48535V81.7823V82.1917L9.17438 86.9001L13.8634 82.1917C15.1886 84.0341 17.3292 85.3647 19.6737 85.7742C18.5524 86.593 17.737 87.7189 17.3292 89.0495L17.1254 89.5613L17.5331 89.9707C18.7563 91.0967 20.3873 91.7108 21.9163 91.7108C22.5279 91.7108 23.0376 91.6084 23.6492 91.5061C24.3628 91.3014 24.9744 90.9943 25.586 90.5849C25.586 91.3014 25.586 92.0179 25.7899 92.7343C26.4015 94.8838 28.0324 96.6239 30.1731 97.3404L30.6828 97.5451L31.0905 97.1357C32.6195 95.498 33.1292 93.1438 32.6195 90.9943C32.6195 90.8919 32.5176 90.7896 32.5176 90.6872C34.5563 91.7108 36.9008 92.3249 39.3473 92.3249C41.7937 92.3249 44.1383 91.7108 46.177 90.6872C46.177 90.7896 46.075 90.8919 46.075 90.9943C45.4634 93.1438 46.075 95.498 47.6041 97.1357L48.0118 97.5451L48.5215 97.3404C50.6621 96.6239 52.2931 94.8838 52.9047 92.7343C53.1086 92.0179 53.1086 91.3014 53.1086 90.5849C53.7202 90.9943 54.3318 91.3014 55.0453 91.5061C55.657 91.6084 56.1666 91.7108 56.7783 91.7108C58.4092 91.7108 59.9383 91.0967 61.1615 89.9707L61.5692 89.5613V89.0495C61.1615 87.7189 60.346 86.593 59.2247 85.7742C61.5692 85.3647 63.7099 84.1365 65.035 82.1917L69.7241 86.9001L74.515 82.0893V39.0999H65.035ZM6.21825 45.9577H8.25696V77.0739C7.54342 77.1763 6.82987 77.5857 6.21825 77.9951V45.9577ZM9.17438 84.3412L6.21825 81.3728C6.42213 79.9399 7.64535 78.814 9.17438 78.814C10.7034 78.814 11.9266 79.9399 12.0286 81.4752L9.17438 84.3412ZM12.1305 48.7213V76.8692V78.0975C11.5189 77.5857 10.8054 77.2786 10.0918 77.0739V45.9577H12.1305V48.7213ZM12.1305 44.2177H6.21825V40.9423H12.1305V44.2177ZM55.657 35.9269C57.0841 35.5174 58.5112 35.8245 59.6324 36.6434C59.0208 37.974 57.8995 38.8952 56.5744 39.3046C55.1473 39.714 53.7202 39.407 52.5989 38.5881C53.2105 37.2575 54.3318 36.2339 55.657 35.9269ZM48.7253 30.1949C50.0505 30.8091 50.9679 31.935 51.3757 33.2656C51.7834 34.6986 51.4776 36.1316 50.6621 37.2575C49.337 36.6434 48.4195 35.5174 48.0118 34.1868C47.6041 32.8562 47.9099 31.4232 48.7253 30.1949ZM27.7266 33.368C28.1344 31.935 29.0518 30.8091 30.377 30.2973C31.1924 31.4232 31.4983 32.9586 31.0905 34.2892C30.6828 35.7222 29.7654 36.8481 28.4402 37.3598C27.6247 36.2339 27.3189 34.6986 27.7266 33.368ZM19.3679 36.6434C20.4892 35.8245 22.0183 35.5174 23.3434 35.9269C24.7705 36.3363 25.8918 37.2575 26.4015 38.5881C25.2802 39.407 23.7512 39.714 22.426 39.3046C21.1008 38.7928 19.9795 37.8716 19.3679 36.6434ZM13.9654 54.1462C15.5963 56.2957 18.1447 57.7287 21.1008 57.7287C19.6737 59.0593 18.4505 60.5946 17.3292 62.3347L17.0234 62.8465L17.3292 63.3582C18.4505 65.0983 19.6737 66.5313 21.1008 67.9642C18.1447 67.9642 15.5963 69.3972 13.9654 71.5467V54.1462ZM49.7447 62.8465C49.7447 68.5784 45.1576 73.1844 39.4492 73.1844C33.7408 73.1844 29.1537 68.5784 29.1537 62.8465C29.1537 57.1145 33.7408 52.5085 39.4492 52.5085C45.1576 52.5085 49.7447 57.1145 49.7447 62.8465ZM46.6866 53.1226C51.8853 54.7603 56.5744 58.1381 59.7344 62.8465C56.5744 67.5548 51.9873 70.9326 46.6866 72.5703C49.6428 70.3184 51.5795 66.8383 51.5795 62.8465C51.5795 58.8546 49.6428 55.3745 46.6866 53.1226ZM44.2402 75.1291C44.2402 75.1291 44.3421 75.1291 44.2402 75.1291C44.3421 75.1291 44.2402 75.1291 44.2402 75.1291ZM34.6583 75.0268C34.6583 75.0268 34.5563 75.0268 34.6583 75.0268C34.5563 75.0268 34.6583 75.0268 34.6583 75.0268ZM27.4208 62.8465C27.4208 66.8383 29.3576 70.3184 32.3137 72.5703C27.115 70.9326 22.426 67.5548 19.266 62.8465C22.426 58.1381 27.0131 54.7603 32.3137 53.1226C29.3576 55.3745 27.4208 58.8546 27.4208 62.8465ZM23.3434 89.766C21.9163 90.0731 20.4892 89.8684 19.3679 89.0495C19.9795 87.7189 21.1008 86.7977 22.426 86.3883C23.8531 85.9789 25.2802 86.2859 26.4015 87.1048C25.7899 88.4354 24.6686 89.3566 23.3434 89.766ZM30.275 95.3956C28.9499 94.7815 28.0324 93.6555 27.6247 92.3249C27.217 90.8919 27.5228 89.459 28.3383 88.333C29.6634 88.9472 30.5808 90.0731 30.9886 91.4037C31.3963 92.7344 31.0905 94.2697 30.275 95.3956ZM51.2737 92.3249C50.866 93.7579 49.9486 94.8838 48.6234 95.3956C47.8079 94.2697 47.5021 92.7344 47.9099 91.4037C48.3176 89.9707 49.235 88.8448 50.5602 88.333C51.3757 89.459 51.6815 90.8919 51.2737 92.3249ZM59.6324 89.0495C58.5112 89.8684 56.9821 90.1754 55.657 89.766C54.2299 89.3566 53.1086 88.4354 52.5989 87.1048C53.7202 86.2859 55.2492 85.9789 56.5744 86.3883C57.8995 86.7977 59.0208 87.7189 59.6324 89.0495ZM57.8995 84.0341C56.1666 84.0341 54.5357 83.42 53.2105 82.2941L52.2931 81.4752L51.7834 82.6011C49.5408 87.4118 44.7499 90.4825 39.5512 90.4825C34.3524 90.4825 29.4595 87.4118 27.3189 82.6011L26.8092 81.4752L25.8918 82.2941C24.5666 83.42 22.9357 84.0341 21.2028 84.0341C17.2273 84.0341 14.0673 80.8611 14.0673 76.8692C14.0673 72.8773 17.2273 69.7043 21.2028 69.7043C21.7124 69.7043 22.1202 69.7043 22.6299 69.8066C23.1395 69.909 23.6492 70.1137 24.1589 70.3184C24.9744 70.9326 25.7899 71.4443 26.6054 71.8538C23.6492 72.1608 20.9989 74.0032 19.6737 76.8692L21.3047 77.5857C22.426 75.1292 24.8724 73.5938 27.5228 73.5938C29.8673 73.5938 32.1099 74.8221 33.3331 76.8692C32.5176 77.688 31.8041 78.6092 31.3963 79.6328L33.0273 80.3493C34.2505 77.688 36.9008 76.0504 39.755 76.0504C42.6092 76.0504 45.2595 77.7904 46.4828 80.3493L48.1137 79.6328C47.6041 78.6092 46.8905 77.5857 46.075 76.8692C47.2983 74.9244 49.5408 73.6962 51.8853 73.6962C54.5357 73.6962 56.9821 75.2315 58.1034 77.688L59.7344 76.9715C58.4092 74.2079 55.7589 72.3655 52.8028 71.9561C53.6183 71.4443 54.4337 70.9326 55.2492 70.4208C55.7589 70.2161 56.2686 70.0114 56.7783 69.909C57.186 69.8066 57.6957 69.8066 58.2053 69.8066C62.1808 69.8066 65.3408 72.9797 65.3408 76.9715C65.035 80.8611 61.875 84.0341 57.8995 84.0341ZM65.035 71.4443C63.4041 69.2949 60.8557 67.8619 57.8995 67.8619C59.3266 66.5313 60.5499 64.9959 61.6712 63.2559L61.977 62.7441L61.6712 62.2323C60.5499 60.5946 59.3266 59.0593 57.8995 57.6263C60.8557 57.6263 63.4041 56.1933 65.035 54.0438V71.4443ZM57.8995 55.8863C57.3899 55.8863 56.9821 55.8863 56.4724 55.7839C55.9628 55.6815 55.4531 55.4768 55.0453 55.2721C54.2299 54.658 53.4144 54.1462 52.5989 53.6344C55.555 53.3274 58.2053 51.485 59.5305 48.619L57.8995 47.9025C56.7783 50.359 54.3318 51.8944 51.6815 51.8944C49.337 51.8944 47.0944 50.6661 45.8712 48.619C46.6866 47.8001 47.4002 46.8789 47.8079 45.8554L46.177 45.1389C44.9537 47.8001 42.3034 49.4378 39.4492 49.4378C36.595 49.4378 33.9447 47.6978 32.7215 45.1389L31.0905 45.8554C31.6002 46.8789 32.3137 47.9025 33.1292 48.619C31.906 50.5638 29.6634 51.792 27.3189 51.792C24.6686 51.792 22.2221 50.2567 21.1008 47.8001L19.4699 48.5166C20.795 51.2802 23.3434 53.1226 26.4015 53.4297C25.586 53.9415 24.7705 54.4533 23.955 55.0674C23.4454 55.2721 23.0376 55.4768 22.5279 55.5792C22.1202 55.6815 21.6105 55.6815 21.1008 55.6815C17.1254 55.6815 13.9654 52.5085 13.9654 48.5166C13.9654 44.5248 17.1254 41.3517 21.1008 41.3517C22.8337 41.3517 24.4647 41.9659 25.7899 43.0918L26.7073 43.9106L27.217 42.7847C29.4595 37.974 34.2505 34.9033 39.4492 34.9033C44.6479 34.9033 49.5408 37.974 51.6815 42.7847L52.1912 43.9106L53.1086 43.0918C54.4337 41.9659 56.0647 41.3517 57.7976 41.3517C61.7731 41.3517 64.9331 44.5248 64.9331 48.5166C65.035 52.7132 61.875 55.8863 57.8995 55.8863ZM66.8699 76.8692V48.7213V45.9577H68.9086V77.0739C68.195 77.1763 67.4815 77.5857 66.8699 77.9951V76.8692ZM69.826 84.3412L66.8699 81.3728C67.0737 79.9399 68.297 78.814 69.7241 78.814C71.2531 78.814 72.4763 79.9399 72.5782 81.4752L69.826 84.3412ZM72.7821 78.0975C72.1705 77.5857 71.457 77.2786 70.7434 77.0739V45.9577H72.7821V78.0975ZM72.7821 44.2177H66.8699V40.9423H72.7821V44.2177Z" fill="#072119"/>
<path d="M78.5923 29.1716L79 28.7622L78.8981 28.2504C78.1845 25.5891 76.1458 23.542 73.5974 22.9279C72.5781 22.6208 71.5587 22.6208 70.5394 22.7232C71.151 21.9043 71.6606 20.9831 71.9664 19.9596C72.68 17.4007 71.8645 14.5347 70.0297 12.6923L69.6219 12.2829L69.1123 12.3852C67.889 12.6923 66.8697 13.3064 65.9523 14.1253C66.7677 13.2041 67.3794 12.1805 67.6852 10.9523L67.7871 10.4405L67.3793 10.0311C65.5445 8.291 62.6903 7.47216 60.1419 8.18865C59.1226 8.49572 58.2052 8.90514 57.3897 9.62163C57.5935 8.59807 57.4916 7.57451 57.1858 6.55095C56.4723 3.99206 54.4335 1.94494 51.8852 1.22845L51.3755 1.02374L50.9677 1.43316C50.0503 2.25201 49.4387 3.37792 49.1329 4.50384C49.3368 3.37792 49.3368 2.14965 49.031 0.921385L48.929 0.409606L48.4194 0.30725C45.871 -0.409241 43.0168 0.30725 41.1819 2.25201C40.4684 2.9685 39.8568 3.8897 39.551 4.8109C39.1432 3.8897 38.6335 2.9685 37.92 2.25201C35.9832 0.30725 33.231 -0.409241 30.6826 0.30725L30.1729 0.409606L30.071 0.921385C29.5613 2.0473 29.5613 3.27557 29.8671 4.50384C29.4594 3.37792 28.8477 2.35437 28.0323 1.43316L27.6245 1.02374L27.1148 1.1261C24.4645 1.84259 22.4258 3.8897 21.8142 6.55095C21.5084 7.57451 21.5084 8.59807 21.6103 9.62163C20.7948 9.00749 19.8774 8.49572 18.8581 8.18865C16.3097 7.47216 13.4555 8.291 11.6206 10.1334L11.2129 10.5428L11.3148 11.0546C11.6206 12.2829 12.2323 13.3064 13.0477 14.2276C12.1303 13.4088 11.111 12.7947 9.88774 12.4876L9.37806 12.3852L8.97032 12.7947C7.13548 14.6371 6.42194 17.4007 7.13548 19.9596C7.44129 20.9831 7.84903 21.9043 8.56258 22.7232C7.54323 22.5185 6.52387 22.6208 5.50452 22.9279C2.95613 23.6444 0.917419 25.6915 0.203871 28.2504L0 28.7622L0.407742 29.1716C1.83484 30.6046 3.77161 31.4234 5.70839 31.4234C6.01419 31.4234 6.32 31.4234 6.62581 31.3211C6.21806 32.8564 5.91226 34.4941 5.70839 36.1318H3.36387H1.52903V37.9742V82.6013V83.3178L2.03871 83.932L5.60645 87.5144V89.3568V89.4592C5.81032 91.1992 6.11613 92.9393 6.52387 94.577C4.28129 94.3722 2.03871 95.1911 0.407742 96.8288L0 97.1359L0.101935 97.6476C0.815484 100.309 2.85419 102.356 5.40258 102.97C6.01419 103.175 6.72774 103.175 7.33935 103.175C7.7471 103.175 8.0529 103.175 8.46065 103.072C7.84903 103.891 7.33935 104.813 7.03355 105.836C6.32 108.395 7.13548 111.261 8.97032 113.103L9.37806 113.513L9.88774 113.41C11.111 113.103 12.1303 112.489 13.0477 111.67C12.2323 112.592 11.6206 113.615 11.3148 114.843L11.2129 115.355L11.6206 115.765C13.0477 117.198 14.9845 118.016 16.9213 118.016C17.5329 118.016 18.2465 117.914 18.8581 117.812C19.8774 117.505 20.7948 117.095 21.6103 116.379C21.4065 117.402 21.5084 118.426 21.8142 119.449C22.5277 122.008 24.5665 124.055 27.1148 124.772L27.6245 124.874L28.0323 124.465C28.9497 123.646 29.5613 122.52 29.8671 121.394C29.6632 122.52 29.6632 123.748 29.969 124.977L30.071 125.488L30.5806 125.591C31.1923 125.795 31.9058 125.898 32.5174 125.898C34.4542 125.898 36.391 125.079 37.8181 123.748C38.5316 123.032 39.1432 122.111 39.449 121.189C39.8568 122.111 40.3665 123.032 41.08 123.748C42.5071 125.181 44.4439 125.898 46.3806 125.898C46.9923 125.898 47.7058 125.795 48.3174 125.591L48.8271 125.488L48.929 124.977C49.2348 123.748 49.2348 122.52 49.031 121.394C49.4387 122.52 50.0503 123.544 50.8658 124.465L51.2735 124.874L51.7832 124.772C54.4335 124.055 56.4723 122.008 57.0839 119.449C57.3897 118.426 57.3897 117.402 57.2877 116.379C58.1032 116.993 59.0206 117.505 60.04 117.812C60.6516 118.016 61.3652 118.016 61.9768 118.016C63.9135 118.016 65.8503 117.198 67.2774 115.765L67.6852 115.355L67.5832 114.843C67.2774 113.615 66.6658 112.592 65.8503 111.67C66.7677 112.489 67.7871 113.103 69.0103 113.41L69.52 113.513L69.9277 113.103C71.8645 111.159 72.5781 108.395 71.8645 105.836C71.5587 104.813 71.151 103.891 70.4374 103.072C70.8452 103.175 71.151 103.175 71.5587 103.175C72.1703 103.175 72.8839 103.072 73.4955 102.97C76.0439 102.254 78.0826 100.207 78.7961 97.6476L78.8981 97.1359L78.4903 96.7264C76.8594 95.0887 74.5148 94.2699 72.2723 94.577C72.68 92.8369 72.9858 91.0969 73.1897 89.2544V87.412L76.7574 83.8296L77.2671 83.3178V82.6013V37.9742V36.1318H75.4323H73.0877C72.8839 34.4941 72.5781 32.8564 72.1703 31.3211C72.4761 31.3211 72.7819 31.4234 72.9858 31.4234C75.2284 31.4234 77.1652 30.6046 78.5923 29.1716ZM69.0103 14.4324C70.2335 15.8653 70.6413 17.8101 70.1316 19.5501C69.8258 20.5737 69.3161 21.4949 68.6026 22.2114C68.1948 22.6208 67.6852 23.0302 67.0735 23.235C66.8697 23.3373 66.7677 23.4397 66.5639 23.4397C65.8503 22.6208 65.4426 21.5973 65.3406 20.5737C65.2387 19.8572 65.2387 19.0384 65.4426 18.3219C65.4426 18.2195 65.5445 18.1172 65.5445 18.0148C66.1561 16.2748 67.3793 14.9441 69.0103 14.4324ZM64.2194 16.4795C64.0155 16.2748 63.8116 16.07 63.7097 15.8653C64.3213 15.5583 64.9329 15.1488 65.4426 14.6371C64.9329 15.2512 64.5252 15.763 64.2194 16.4795ZM57.0839 12.7947C57.3897 12.2829 57.6955 11.7711 58.2052 11.3617C58.9187 10.7475 59.7342 10.2358 60.6516 9.9287C62.4865 9.41692 64.3213 9.9287 65.7484 11.0546C65.1368 12.6923 63.9135 13.9206 62.2826 14.5347C62.1806 14.5347 61.9768 14.6371 61.8748 14.6371C61.1613 14.8418 60.5497 14.8418 59.8361 14.8418C58.7148 14.7394 57.5935 14.2276 56.6761 13.5111C56.7781 13.3064 56.88 12.9994 57.0839 12.7947ZM63.6077 18.4242C63.5058 18.936 63.5058 19.5501 63.5058 20.0619C62.4865 18.8337 61.3652 17.7077 60.1419 16.5818C60.2439 16.5818 60.3458 16.5818 60.4477 16.5818C60.8555 16.5818 61.3652 16.4795 61.7729 16.4795C62.3845 17.0936 62.9961 17.8101 63.6077 18.4242ZM51.8852 3.07086C53.6181 3.68499 54.9432 5.11797 55.4529 6.96038C55.6568 7.88158 55.6568 8.90514 55.4529 9.72398C55.351 10.3381 55.0452 10.8499 54.7394 11.3617C54.6374 11.5664 54.4335 11.7711 54.2297 11.9758C53.1084 11.5664 52.089 10.7475 51.4774 9.82634C51.1716 9.31456 50.8658 8.70043 50.6619 8.08629C50.6619 7.88158 50.56 7.67687 50.56 7.47216C50.4581 6.03918 50.8658 4.40148 51.8852 3.07086ZM49.1329 9.10985C49.3368 9.62163 49.5406 10.1334 49.8465 10.6452C48.4194 10.1334 46.9923 9.72398 45.4632 9.41692C45.9729 9.10985 46.3806 8.80278 46.8903 8.39336C47.7058 8.70043 48.4194 8.90514 49.1329 9.10985ZM49.031 5.22033C48.929 5.83446 48.8271 6.4486 48.8271 7.16509C48.6232 7.06273 48.4194 7.06273 48.2155 6.96038C48.5213 6.34624 48.8271 5.83446 49.031 5.22033ZM41.08 5.83446C41.3858 4.91326 41.7935 4.09442 42.5071 3.48028C43.8323 2.14965 45.6671 1.53552 47.5019 1.94494C47.8077 3.58264 47.2981 5.22033 46.2787 6.55095C46.1768 6.65331 46.0748 6.85802 45.871 6.96038C45.4632 7.3698 44.9535 7.77922 44.3419 7.98394C43.2206 8.49572 41.9974 8.70043 40.7742 8.49572C40.7742 8.18865 40.7742 7.98394 40.7742 7.67687C40.7742 7.06273 40.8761 6.4486 41.08 5.83446ZM39.551 10.7475C54.3316 10.7475 66.6658 21.5973 68.7045 36.1318H64.9329L65.2387 35.1082L64.4232 34.2894L63.4039 33.3682C63.2 33.1635 62.9961 33.0611 62.8942 32.9588C61.3652 21.1878 51.4774 12.3852 39.6529 12.3852C27.7265 12.3852 17.8387 21.1878 16.4116 32.9588C16.2077 33.0611 16.0039 33.2658 15.9019 33.3682L14.8826 34.2894L14.0671 35.1082L14.3729 36.1318H10.6013C12.3342 21.5973 24.6684 10.7475 39.551 10.7475ZM18.96 29.1716C19.5716 27.4315 20.2852 25.6915 21.3045 24.1562L23.8529 25.5891C23.1394 26.8174 22.6297 28.2504 22.2219 29.6834L18.96 29.1716ZM19.8774 31.2187C19.2658 31.3211 18.7561 31.5258 18.2465 31.7305C18.3484 31.4234 18.3484 31.2187 18.4503 30.9116L19.8774 31.2187ZM22.3239 22.7232C23.3432 21.2902 24.6684 20.0619 25.9935 18.936L27.6245 20.8808C26.5032 21.802 25.5858 22.9279 24.7703 24.1562L22.3239 22.7232ZM27.4206 17.9124C28.8477 16.9912 30.3768 16.1724 31.9058 15.5583L32.7213 17.7077C31.3961 18.2195 30.1729 18.936 28.9497 19.7549L27.4206 17.9124ZM39.551 18.2195C46.9923 18.2195 53.2103 23.1326 55.1471 30.0928C54.0258 27.9433 52.089 26.2033 49.6426 25.4868L48.4194 25.0774L47.2981 24.6679L46.4826 25.5891L45.5652 26.6127C44.4439 27.841 43.7303 29.2739 43.3226 30.9116C42.0994 30.6046 40.7742 30.5022 39.449 30.5022C38.1239 30.5022 36.9006 30.6046 35.5755 30.9116C35.1677 29.3763 34.4542 27.841 33.3329 26.6127L32.4155 25.5891L31.6 24.6679L30.4787 25.0774L29.2555 25.4868C26.809 26.3056 24.8723 27.9433 23.751 30.0928C25.7897 23.1326 32.1097 18.2195 39.551 18.2195ZM33.6387 15.0465C35.1677 14.6371 36.9006 14.33 38.5316 14.2276V16.3771C37.1045 16.4795 35.6774 16.6842 34.3523 17.0936L33.6387 15.0465ZM40.3664 16.4795V14.33C42.0994 14.4324 43.7303 14.6371 45.2594 15.1488L44.5458 17.196C43.2206 16.7865 41.7935 16.4795 40.3664 16.4795ZM46.2787 17.7077L47.0942 15.5583C48.7252 16.1724 50.2542 16.8889 51.5794 17.9124L50.0503 19.7549C48.8271 18.936 47.6039 18.3219 46.2787 17.7077ZM54.3316 24.1562C53.5161 22.9279 52.4968 21.9043 51.4774 20.8808L53.1084 18.936C54.4335 20.0619 55.7587 21.2902 56.7781 22.7232L54.3316 24.1562ZM57.7974 24.2585C58.8168 25.7938 59.5303 27.4315 60.1419 29.2739L56.88 29.8881C56.4723 28.4551 55.9626 27.1245 55.249 25.7938L57.7974 24.2585ZM60.5497 30.9116C60.6516 31.2187 60.6516 31.4234 60.7535 31.7305C60.2439 31.5258 59.6323 31.3211 59.1226 31.2187L60.5497 30.9116ZM14.7806 16.4795C14.4748 15.8653 14.0671 15.2512 13.5574 14.7394C14.0671 15.2512 14.6787 15.5583 15.2903 15.9677C15.0865 16.07 14.9845 16.2748 14.7806 16.4795ZM15.3923 18.4242C16.0039 17.8101 16.6155 17.0936 17.2271 16.4795C17.6348 16.5818 18.1445 16.5818 18.5523 16.5818C18.6542 16.5818 18.7561 16.5818 18.8581 16.5818C17.6348 17.6054 16.5135 18.8337 15.4942 20.0619C15.5961 19.5501 15.4942 18.936 15.3923 18.4242ZM31.4981 1.94494C33.3329 1.63788 35.1677 2.25201 36.4929 3.48028C37.2065 4.19677 37.6142 5.01562 37.92 5.83446C38.1239 6.4486 38.2258 7.06273 38.1239 7.67687C38.1239 7.98394 38.1239 8.291 38.0219 8.49572C36.7987 8.70043 35.5755 8.49572 34.4542 7.98394C33.9445 7.67687 33.4348 7.3698 32.9252 6.96038C32.8232 6.85802 32.6194 6.65331 32.5174 6.55095C31.7019 5.22033 31.2942 3.48028 31.4981 1.94494ZM30.7845 6.96038C30.5806 7.06273 30.3768 7.06273 30.1729 7.16509C30.1729 6.55095 30.1729 5.83446 29.969 5.22033C30.1729 5.83446 30.4787 6.34624 30.7845 6.96038ZM29.8671 9.10985C30.5806 8.90514 31.3961 8.70043 32.2116 8.49572C32.6194 8.90514 33.129 9.21221 33.6387 9.51927C32.1097 9.82634 30.6826 10.2358 29.2555 10.7475C29.4594 10.1334 29.6632 9.62163 29.8671 9.10985ZM23.5471 6.96038C24.0568 5.11797 25.3819 3.68499 27.1148 3.07086C28.1342 4.29913 28.6439 6.03918 28.3381 7.67687C28.3381 7.88158 28.2361 8.08629 28.2361 8.291C28.0323 8.90514 27.8284 9.51927 27.4206 10.0311C26.7071 11.0546 25.7897 11.7711 24.6684 12.1805C24.4645 11.9758 24.3626 11.7711 24.1587 11.5664C23.8529 11.0546 23.649 10.4405 23.4452 9.9287C23.2413 8.90514 23.2413 7.88158 23.5471 6.96038ZM18.4503 9.9287C19.3677 10.1334 20.1832 10.6452 20.8968 11.3617C21.3045 11.7711 21.7123 12.2829 22.0181 12.7947C22.12 12.9994 22.2219 13.3064 22.3239 13.5111C21.4065 14.2276 20.3871 14.7394 19.1639 14.8418C18.4503 14.9441 17.8387 14.8418 17.1252 14.6371C17.0232 14.6371 16.8194 14.5347 16.7174 14.5347C15.0865 13.9206 13.8632 12.6923 13.2516 11.0546C14.6787 9.9287 16.6155 9.41692 18.4503 9.9287ZM9.98968 14.4324C11.6206 15.0465 12.8439 16.3771 13.4555 18.0148C13.4555 18.1172 13.5574 18.2195 13.5574 18.3219C13.7613 19.0384 13.7613 19.8572 13.6594 20.5737C13.5574 21.5973 13.0477 22.6208 12.4361 23.4397C12.2323 23.3373 12.1303 23.3373 11.9265 23.235C11.4168 22.9279 10.9071 22.6208 10.3974 22.2114C9.68387 21.4949 9.17419 20.5737 8.86839 19.5501C8.35871 17.7077 8.76645 15.763 9.98968 14.4324ZM2.03871 28.2504C2.65032 26.5103 4.07742 25.1797 5.91226 24.6679C6.93161 24.3609 8.0529 24.4632 9.07226 24.7703C9.68387 24.975 10.1935 25.1797 10.7032 25.5891C10.8052 25.6915 11.009 25.7938 11.111 25.8962C10.8052 26.8174 10.2955 27.5339 9.58193 28.148C8.97032 28.7622 8.15484 29.1716 7.23742 29.4787C5.40258 29.8881 3.46581 29.3763 2.03871 28.2504ZM9.98968 29.9904C9.37806 31.9352 8.86839 33.9823 8.56258 36.1318H7.54323C7.7471 34.2894 8.15484 32.5493 8.56258 30.8093C9.07226 30.6046 9.48 30.2975 9.98968 29.9904ZM5.91226 101.332C4.07742 100.821 2.65032 99.49 2.03871 97.75C3.46581 96.5217 5.30065 96.1123 7.13548 96.6241C8.0529 96.8288 8.76645 97.3406 9.48 97.8523C10.1935 98.4665 10.7032 99.2853 11.009 100.104C10.9071 100.207 10.7032 100.309 10.6013 100.411C10.0916 100.718 9.58194 101.025 8.97032 101.23C8.0529 101.537 6.93161 101.537 5.91226 101.332ZM7.44129 89.3568L7.95097 89.8686L8.66452 90.5851C8.97032 92.4275 9.37806 94.2699 9.98968 96.0099C9.58194 95.7029 9.07226 95.3958 8.66452 95.1911C8.0529 93.2463 7.64516 91.3016 7.44129 89.3568ZM9.98968 111.568C8.76645 110.135 8.35871 108.19 8.86839 106.45C9.17419 105.427 9.68387 104.505 10.3974 103.789C10.8052 103.38 11.3148 102.97 11.9265 102.765C12.1303 102.663 12.2323 102.561 12.4361 102.561C13.1497 103.38 13.5574 104.403 13.6594 105.427C13.7613 106.143 13.7613 106.962 13.5574 107.678C13.5574 107.781 13.4555 107.883 13.4555 107.986C12.8439 109.623 11.6206 110.954 9.98968 111.568ZM14.7806 109.521C14.9845 109.726 15.1884 109.93 15.2903 110.135C14.6787 110.442 14.0671 110.852 13.5574 111.363C14.0671 110.749 14.4748 110.135 14.7806 109.521ZM21.9161 113.103C21.6103 113.615 21.3045 114.127 20.7948 114.536C20.0813 115.15 19.2658 115.662 18.3484 115.969C16.5135 116.481 14.6787 115.969 13.2516 114.843C13.8632 113.206 15.0865 111.977 16.7174 111.363C16.8194 111.363 17.0232 111.261 17.1252 111.261C17.8387 111.056 18.4503 111.056 19.1639 111.056C20.2852 111.159 21.4065 111.67 22.3239 112.387C22.2219 112.694 22.12 112.899 21.9161 113.103ZM15.3923 107.576C15.4942 107.064 15.4942 106.45 15.4942 105.938C16.5135 107.167 17.6348 108.293 18.8581 109.419C18.3484 109.419 17.7368 109.419 17.2271 109.521C16.6155 108.804 16.0039 108.19 15.3923 107.576ZM27.1148 122.827C25.3819 122.213 24.0568 120.78 23.5471 118.938C23.3432 118.016 23.3432 116.993 23.5471 116.174C23.649 115.56 23.9548 115.048 24.2606 114.536C24.3626 114.332 24.5665 114.127 24.7703 113.922C25.8916 114.332 26.911 115.15 27.5226 116.072C27.8284 116.583 28.1342 117.198 28.3381 117.812C28.3381 118.016 28.44 118.221 28.44 118.426C28.5419 119.859 28.1342 121.599 27.1148 122.827ZM29.8671 116.891C29.6632 116.379 29.4594 115.867 29.1535 115.355C30.5806 115.867 32.0077 116.276 33.5368 116.583C33.0271 116.891 32.6194 117.198 32.1097 117.607C31.3961 117.3 30.5806 117.095 29.8671 116.891ZM29.969 120.78C30.071 120.166 30.1729 119.552 30.1729 118.835C30.3768 118.938 30.5806 118.938 30.7845 119.04C30.4787 119.552 30.1729 120.166 29.969 120.78ZM37.92 120.064C37.6142 120.985 37.2065 121.804 36.4929 122.418C35.1677 123.748 33.3329 124.362 31.4981 123.953C31.1923 122.315 31.6 120.678 32.7213 119.347C32.8232 119.245 32.9252 119.04 33.129 118.938C33.5368 118.528 34.0465 118.119 34.6581 117.914C35.7794 117.402 37.0026 117.198 38.2258 117.402C38.2258 117.709 38.3277 118.016 38.3277 118.221C38.2258 118.938 38.1239 119.552 37.92 120.064ZM39.449 115.253C24.6684 115.253 12.3342 104.403 10.2955 89.9709L10.3974 89.8686L13.8632 86.3885C14.169 86.6956 14.5768 86.9003 14.9845 87.105C14.8826 87.412 14.6787 87.8215 14.5768 88.1285L14.169 89.3568L13.7613 90.4827L14.5768 91.3016L15.5961 92.2228C15.8 92.3251 15.9019 92.5298 16.1058 92.6322C17.431 104.608 27.4206 113.513 39.449 113.513C51.4774 113.513 61.4671 104.505 62.7923 92.6322C62.9961 92.5298 63.0981 92.3251 63.3019 92.2228L64.3213 91.3016L65.1368 90.4827L64.729 89.3568L64.3213 88.1285C64.2194 87.8215 64.1174 87.412 63.9135 87.105C64.3213 86.9003 64.6271 86.5932 65.0348 86.3885L68.5006 89.8686L68.6026 89.9709C66.5639 104.403 54.2297 115.253 39.449 115.253ZM60.04 96.7264C59.4284 98.4665 58.7148 100.207 57.6955 101.742L55.249 100.309C55.9626 99.0806 56.4723 97.6476 56.88 96.2147L60.04 96.7264ZM58.1032 94.577C59.0206 94.4746 59.9381 94.1675 60.7535 93.8605C60.6516 94.2699 60.6516 94.6793 60.5497 95.0887L58.1032 94.577ZM51.3755 105.017C52.4968 104.096 53.4142 102.97 54.2297 101.742L56.6761 103.175C55.6568 104.608 54.3316 105.836 53.0065 106.962L51.3755 105.017ZM51.5794 108.088C50.1523 109.009 48.6232 109.828 47.0942 110.442L46.2787 108.293C47.6039 107.781 48.8271 107.064 50.0503 106.246L51.5794 108.088ZM39.449 107.781C31.8039 107.781 25.28 102.458 23.649 95.1911C24.7703 97.5453 26.809 99.3877 29.3574 100.207L30.5806 100.616L31.7019 101.025L32.5174 100.207L33.4348 99.183C34.5561 97.9547 35.2697 96.5217 35.6774 94.884C36.9006 95.1911 38.2258 95.2934 39.551 95.2934C40.8761 95.2934 42.0994 95.1911 43.4245 94.884C43.8323 96.4194 44.5458 97.9547 45.6671 99.183L46.5845 100.207L47.4 101.128L48.5213 100.718L49.7445 100.309C52.2929 99.49 54.3316 97.6476 55.4529 95.2934C53.6181 102.458 47.1961 107.781 39.449 107.781ZM45.3613 110.954C43.8323 111.363 42.0994 111.67 40.4684 111.773V109.521C41.8955 109.419 43.3226 109.214 44.6477 108.804L45.3613 110.954ZM38.6335 109.521V111.67C36.9006 111.568 35.2697 111.363 33.7406 110.852L34.4542 108.804C35.7794 109.214 37.1045 109.419 38.6335 109.521ZM28.9497 106.143C30.071 106.962 31.3961 107.678 32.7213 108.19L31.9058 110.34C30.2748 109.726 28.7458 109.009 27.4206 107.986L28.9497 106.143ZM25.9935 106.962C24.6684 105.836 23.3432 104.608 22.3239 103.175L24.7703 101.742C25.5858 102.97 26.6052 103.994 27.6245 105.017L25.9935 106.962ZM23.751 100.309L21.2026 101.742C20.1832 100.207 19.4697 98.5688 18.8581 96.7264L22.12 96.1123C22.5277 97.6476 23.0374 98.9783 23.751 100.309ZM18.4503 94.9864C18.3484 94.577 18.2465 94.1675 18.2465 93.7581C19.0619 94.1675 19.9794 94.3722 20.8968 94.4746L18.4503 94.9864ZM64.2194 109.521C64.5252 110.135 64.9329 110.749 65.4426 111.261C64.9329 110.749 64.3213 110.442 63.7097 110.033C63.9135 109.93 64.0155 109.726 64.2194 109.521ZM63.6077 107.576C62.9961 108.19 62.3845 108.907 61.7729 109.521C61.2632 109.419 60.6516 109.419 60.1419 109.419C61.3652 108.395 62.4865 107.167 63.5058 105.938C63.4039 106.45 63.5058 106.962 63.6077 107.576ZM47.5019 124.055C45.6671 124.362 43.8323 123.748 42.5071 122.52C41.7935 121.804 41.3858 120.985 41.08 120.166C40.8761 119.552 40.7742 118.938 40.8761 118.324C40.8761 118.016 40.8761 117.709 40.9781 117.505C42.2013 117.3 43.4245 117.505 44.5458 118.016C45.0555 118.324 45.5652 118.631 46.0748 119.04C46.1768 119.142 46.3806 119.347 46.4826 119.449C47.2981 120.78 47.7058 122.418 47.5019 124.055ZM48.2155 119.04C48.4194 118.938 48.6232 118.938 48.8271 118.835C48.8271 119.449 48.8271 120.166 49.031 120.78C48.8271 120.166 48.5213 119.552 48.2155 119.04ZM49.1329 116.891C48.4194 117.095 47.6039 117.3 46.7884 117.505C46.3806 117.095 45.871 116.788 45.3613 116.481C46.8903 116.174 48.3174 115.765 49.7445 115.253C49.5406 115.765 49.3368 116.276 49.1329 116.891ZM55.4529 118.938C54.9432 120.78 53.6181 122.213 51.8852 122.827C50.8658 121.599 50.3561 119.859 50.6619 118.221C50.6619 118.016 50.7639 117.812 50.7639 117.607C50.9677 116.993 51.1716 116.379 51.5794 115.867C52.2929 114.843 53.2103 114.127 54.3316 113.717C54.5355 113.922 54.6374 114.127 54.8413 114.332C55.1471 114.843 55.351 115.458 55.5548 115.969C55.7587 117.095 55.7587 118.016 55.4529 118.938ZM60.5497 115.969C59.6323 115.765 58.8168 115.253 58.1032 114.536C57.6955 114.127 57.2877 113.615 56.9819 113.103C56.88 112.899 56.7781 112.592 56.6761 112.387C57.5935 111.67 58.6129 111.159 59.8361 111.056C60.5497 110.954 61.1613 111.056 61.8748 111.261C61.9768 111.261 62.1806 111.363 62.2826 111.363C63.9135 111.977 65.1368 113.206 65.7484 114.843C64.3213 116.072 62.3845 116.481 60.5497 115.969ZM69.0103 111.568C67.3793 110.954 66.1561 109.623 65.5445 107.986C65.5445 107.883 65.4426 107.781 65.4426 107.678C65.2387 106.962 65.2387 106.143 65.3406 105.427C65.4426 104.403 65.9523 103.38 66.5639 102.561C66.7677 102.663 66.8697 102.663 67.0735 102.765C67.5832 103.072 68.0929 103.38 68.6026 103.789C69.3161 104.505 69.9277 105.427 70.1316 106.45C70.6413 108.19 70.2335 110.135 69.0103 111.568ZM76.9613 97.75C76.3497 99.49 74.9226 100.821 73.0877 101.332C72.0684 101.64 70.9471 101.537 69.9277 101.23C69.3161 101.025 68.8064 100.821 68.2968 100.411C68.1948 100.309 67.991 100.207 67.889 100.104C68.1948 99.183 68.7045 98.4665 69.4181 97.8523C70.0297 97.2382 70.8452 96.8288 71.7626 96.5217C73.5974 96.1123 75.5342 96.5217 76.9613 97.75ZM69.0103 95.9076C69.6219 94.1675 70.0297 92.3251 70.3355 90.4827L71.049 89.7662L71.5587 89.2544C71.3548 91.3016 70.9471 93.2463 70.4374 95.0887C69.9277 95.3958 69.4181 95.6005 69.0103 95.9076ZM75.6361 37.9742V82.6013L69.7239 88.538L65.1368 83.932C64.1174 85.0579 62.7923 85.8767 61.3652 86.3885C61.8748 87.105 62.2826 87.9238 62.5884 88.7427L62.9961 89.9709L61.9768 90.8922C60.5497 92.2228 58.6129 92.9393 56.7781 92.9393C56.1665 92.9393 55.4529 92.8369 54.8413 92.6322C54.6374 92.5298 54.4335 92.5298 54.2297 92.4275C54.2297 92.6322 54.1277 92.8369 54.1277 93.0416C53.4142 95.6005 51.5794 97.6476 49.031 98.4665L47.8077 98.8759L46.8903 97.8523C45.5652 96.317 44.8516 94.4746 44.8516 92.5298C43.1187 93.144 41.2839 93.451 39.449 93.451C37.6142 93.451 35.7794 93.144 34.0465 92.5298C34.0465 94.4746 33.3329 96.4194 32.0077 97.8523L31.0903 98.8759L29.8671 98.4665C27.3187 97.6476 25.4839 95.6005 24.7703 93.0416C24.6684 92.8369 24.6684 92.6322 24.6684 92.4275C24.4645 92.5298 24.2606 92.5298 24.0568 92.6322C23.4452 92.8369 22.7316 92.9393 22.12 92.9393C20.1832 92.9393 18.3484 92.2228 16.9213 90.8922L15.9019 89.9709L16.3097 88.7427C16.6155 87.9238 17.0232 87.105 17.5329 86.3885C16.1058 85.8767 14.8826 85.0579 13.7613 83.932L9.17419 88.538L3.26194 82.6013V37.9742H14.9845V40.6354C15.6981 40.0213 16.6155 39.6119 17.431 39.3048C16.9213 38.5883 16.5135 37.7695 16.2077 36.9506L15.8 35.7224L16.8194 34.8012C18.2465 33.4705 20.0813 32.754 22.0181 32.754C22.7316 32.754 23.3432 32.8564 24.0568 33.0611C24.2606 33.1635 24.4645 33.1635 24.6684 33.2658C24.6684 33.0611 24.7703 32.8564 24.7703 32.6517C25.4839 30.0928 27.3187 28.0457 29.8671 27.2268L31.0903 26.8174L32.0077 27.841C33.3329 29.3763 34.0465 31.2187 34.0465 33.1635C35.7794 32.5493 37.6142 32.2423 39.449 32.2423C41.2839 32.2423 43.1187 32.5493 44.8516 33.1635C44.8516 31.2187 45.5652 29.2739 46.8903 27.841L47.8077 26.8174L49.031 27.2268C51.5794 28.0457 53.4142 30.0928 54.1277 32.6517C54.2297 32.8564 54.2297 33.0611 54.2297 33.2658C54.4335 33.1635 54.6374 33.1635 54.8413 33.0611C55.5548 32.8564 56.1665 32.754 56.88 32.754C58.8168 32.754 60.6516 33.4705 62.0787 34.8012L63.0981 35.7224L62.6903 36.9506C62.3845 37.7695 61.9768 38.5883 61.4671 39.3048C62.3845 39.6119 63.2 40.1237 63.9135 40.6354V37.9742H75.6361ZM69.0103 29.9904C69.4181 30.2975 69.9277 30.6046 70.3355 30.8093C70.8452 32.5493 71.151 34.2894 71.4568 36.1318H70.4374C70.2335 33.9823 69.7239 31.9352 69.0103 29.9904ZM71.8645 29.3763C70.9471 29.1716 70.1316 28.6598 69.52 28.0457C68.8064 27.4315 68.2968 26.6127 67.991 25.7938C68.0929 25.6915 68.2968 25.5891 68.3987 25.4868C68.9084 25.1797 69.4181 24.8726 70.0297 24.6679C71.049 24.3609 72.0684 24.3609 73.0877 24.5656C74.9226 25.0774 76.3497 26.408 76.9613 28.148C75.5342 29.3763 73.6994 29.8881 71.8645 29.3763Z" fill="#072119"/>
<path d="M49.5404 100.104L48.3172 100.513L47.1959 100.923L46.3804 100.002L45.463 98.978C44.3417 97.7497 43.6282 96.3168 43.2204 94.6791C42.0991 95.0885 40.774 95.1909 39.4488 95.1909C38.1237 95.1909 36.9004 95.0885 35.5753 94.7814C35.1675 96.3168 34.454 97.8521 33.3327 99.0804L32.4153 100.104L31.5998 100.923L30.4785 100.513L29.2553 100.104C26.7069 99.2851 24.6682 97.4427 23.5469 95.0885C25.1778 102.458 31.5998 107.678 39.3469 107.678C46.992 107.678 53.414 102.356 55.1469 95.0885C54.1275 97.545 52.0888 99.2851 49.5404 100.104Z" fill="#F9F9F4"/>
<path d="M39.5507 18.2194C32.1094 18.2194 25.8914 23.1324 23.9546 30.0926C25.0759 27.9432 27.0127 26.3055 29.4591 25.4866L30.6823 25.0772L31.8036 24.6678L32.6191 25.589L33.5365 26.6125C34.6578 27.8408 35.3714 29.2738 35.7791 30.9115C37.0023 30.6044 38.3275 30.5021 39.6527 30.5021C40.9778 30.5021 42.201 30.6044 43.5262 30.9115C43.934 29.3761 44.6475 27.8408 45.7688 26.6125L46.6862 25.589L47.5017 24.7701L48.623 25.1796L49.8462 25.589C52.2927 26.4078 54.2294 28.0455 55.3507 30.195C53.2101 23.2348 46.8901 18.2194 39.5507 18.2194Z" fill="#F9F9F4"/>
</svg>
