<svg width="365" height="579" viewBox="0 0 365 579" fill="none" xmlns="http://www.w3.org/2000/svg">
<g clip-path="url(#clip0_2522_4672)">
<path d="M49.0542 461.605C49.5246 461.135 50.4655 460.666 50.9359 460.196C49.5246 455.97 47.1724 452.683 43.8793 449.865C41.0567 447.048 37.2931 445.169 33.0592 444.23C24.5912 441.882 16.1233 444.23 9.53711 449.396C12.3598 457.378 18.9459 463.483 27.4139 465.831C32.1183 467.24 37.2931 466.77 41.5271 465.361C44.3498 464.422 46.702 463.483 49.0542 461.605Z" fill="#E08433"/>
<path d="M34.9434 166.709H39.6478C41.0591 156.848 42.9409 147.456 46.2339 138.534C44.3522 139.943 42 141.351 40.1182 142.291C37.2956 150.273 35.8842 158.256 34.9434 166.709Z" fill="#006A4E"/>
<path d="M62.6988 494.945C63.6396 491.658 63.6396 487.902 63.1692 484.615C62.6988 479.919 60.3466 475.223 57.5239 471.466C56.583 471.936 56.1126 471.936 55.1717 472.405C52.8195 473.814 50.4673 475.223 48.1151 477.101C44.822 480.388 42.4698 484.615 41.0585 489.31C38.7063 497.763 41.0585 506.215 46.2333 512.789C53.7604 509.972 59.4057 503.867 62.2283 496.354C62.2283 495.884 62.6988 495.415 62.6988 494.945Z" fill="#006A4E"/>
<path d="M40.1199 416.056L36.8268 412.769L34.4746 410.421C35.4155 419.813 37.2973 428.735 39.6495 437.187C42.0017 438.126 43.8834 439.535 45.7652 440.944C43.413 432.961 41.0608 424.508 40.1199 416.056Z" fill="#006A4E"/>
<path d="M33.0592 135.716C37.2931 134.777 41.0567 132.429 43.8793 129.612C47.1724 126.794 49.5246 123.038 50.9359 119.281C50.4655 118.812 49.5246 118.342 49.0542 117.872C46.702 116.464 44.3498 115.055 41.5271 114.116C36.8227 112.707 32.1183 112.707 26.9434 113.646C18.9459 116.464 12.3598 122.568 9.53711 130.551C16.1233 135.716 25.0617 138.064 33.0592 135.716Z" fill="#006A4E"/>
<path d="M148.32 39.9219C144.557 40.8611 141.264 41.8002 137.5 42.7394C136.559 45.0873 135.618 47.4352 134.207 49.7831C140.793 47.4352 147.379 45.5569 154.436 44.1481C152.554 43.209 150.202 41.8002 148.32 39.9219Z" fill="#006A4E"/>
<path d="M48.1173 102.846C49.9991 104.724 52.3513 106.602 55.174 107.542C56.1148 108.011 56.5853 108.481 57.5262 108.481C60.8193 104.724 62.701 100.028 63.1715 95.3325C63.6419 92.0454 63.6419 88.2888 62.701 85.0017C62.701 84.5321 62.2306 84.0626 62.2306 83.593C59.8784 76.0797 53.7626 69.9752 46.2356 67.1577C40.5903 73.7318 38.7085 82.6538 41.0607 90.6367C42.472 95.3325 44.8243 99.5587 48.1173 102.846Z" fill="#E08433"/>
<path d="M77.2824 67.6273C77.7528 67.6273 78.6937 68.0968 79.1641 68.0968C82.4572 69.036 85.2799 69.036 88.573 69.036C93.7478 68.5664 98.9227 66.2185 103.157 62.9315C102.686 61.9923 102.216 60.5836 101.745 59.6444C100.334 57.2965 98.9227 54.9486 96.5705 53.0703C93.2774 50.2528 89.5138 47.9049 85.2799 46.4962C76.8119 44.1483 68.344 46.4962 61.7578 51.6615C64.11 59.1748 69.7553 64.8098 77.2824 67.6273Z" fill="#006A4E"/>
<path d="M111.626 53.54C112.096 54.4792 113.037 55.4184 113.978 56.3575C119.153 54.4792 123.857 50.7225 126.68 46.4963C128.091 44.1484 129.503 41.3309 130.444 38.5135C130.444 37.5743 130.914 36.6351 130.914 35.696C131.855 28.6523 129.973 21.139 125.269 15.0345C117.271 17.8519 111.156 24.4261 108.803 32.8785C107.862 37.1047 107.862 41.8005 108.803 45.5572C109.274 48.8442 110.215 51.1921 111.626 53.54Z" fill="#E08433"/>
<path d="M316.737 413.238L316.266 412.769L300.271 396.803C298.86 398.212 296.978 399.151 295.097 400.09C295.567 401.499 296.508 403.377 296.978 404.786L298.86 410.421L300.742 415.586L296.978 419.343L292.274 423.569C291.333 424.039 290.863 424.978 289.922 425.447C283.806 480.388 237.703 521.242 182.191 521.242C126.679 521.242 80.5754 479.919 74.4597 425.447C73.5188 424.978 73.0484 424.039 72.1075 423.569L67.4031 419.343L63.6395 415.586L65.5213 410.421L67.4031 404.786C67.8735 403.377 68.3439 401.499 69.2848 400.09C67.4031 399.151 65.9917 397.742 64.11 396.803L48.115 412.769L47.6445 413.238C57.0534 479.919 113.977 529.225 182.191 529.225C250.405 529.694 307.328 479.919 316.737 413.238Z" fill="#E08433"/>
<path d="M159.612 541.903C157.26 543.312 154.907 544.721 152.555 546.599C152.085 547.068 151.144 548.008 150.673 548.477C145.969 554.582 144.087 562.095 145.028 569.608C153.496 571.017 161.964 568.2 168.08 562.565C171.373 559.278 173.255 555.521 174.666 551.764C175.607 548.947 176.077 546.129 175.607 543.312C175.607 541.903 175.607 540.494 175.136 539.555C170.432 538.616 164.787 539.555 159.612 541.903Z" fill="#E08433"/>
<path d="M154.909 535.329C147.852 533.921 141.266 532.042 134.68 529.694C136.091 532.042 137.032 534.39 137.973 536.738C141.266 537.677 145.029 538.616 148.793 539.556C150.204 538.147 152.556 536.738 154.909 535.329Z" fill="#006A4E"/>
<path d="M153.022 32.8781C154.904 34.7564 157.256 36.6347 160.079 37.5739C165.254 39.9218 170.899 40.861 176.544 39.9218C176.544 38.5131 177.015 37.1043 177.015 36.1652C177.015 33.3477 176.544 30.5302 176.074 27.7127C174.663 23.4865 172.781 19.7299 169.488 16.9124C163.372 10.8078 154.904 7.99035 146.436 9.86867C145.025 17.382 146.906 24.8952 152.081 30.9998C151.611 31.4694 152.081 31.9389 153.022 32.8781Z" fill="#006A4E"/>
<path d="M130.443 540.964C129.502 538.147 128.562 535.329 126.68 532.982C123.387 528.286 119.153 524.999 113.978 523.12C113.037 524.06 112.567 524.999 111.626 525.938C110.214 528.286 109.273 531.103 108.333 533.451C107.392 537.677 107.392 541.904 108.333 546.13C110.685 554.582 116.801 561.156 124.798 563.974C129.502 558.339 131.855 550.356 130.443 542.843C130.914 542.843 130.443 541.904 130.443 540.964Z" fill="#006A4E"/>
<path d="M79.1658 511.38C78.6954 511.38 77.7545 511.85 77.2841 511.85C69.757 514.667 64.1117 520.302 61.2891 527.816C67.8752 533.45 76.8136 535.329 84.8111 532.981C89.0451 532.042 92.8086 529.694 96.1017 526.407C97.9835 524.528 99.8652 522.181 101.277 519.833C101.747 518.893 102.217 517.485 102.688 516.546C98.4539 513.259 93.7495 510.911 88.1042 510.441C85.2816 510.441 82.4589 510.911 79.1658 511.38Z" fill="#E08433"/>
<path d="M48.1172 166.709H65.5235L64.1122 162.013L67.8757 158.256L72.5801 154.03C73.521 153.091 74.4619 152.621 74.9323 152.152C81.989 98.15 127.151 57.7661 182.193 57.7661C237.235 57.7661 282.867 98.15 289.454 152.152C290.394 152.621 291.335 153.561 291.806 154.03L296.51 158.256L300.274 162.013L298.862 166.709H316.269C306.86 100.028 249.936 50.2529 181.722 50.2529C113.979 50.2529 57.0556 100.028 48.1172 166.709Z" fill="#E08433"/>
<path d="M204.774 37.5742C207.126 36.1654 209.478 34.7567 211.831 32.8784C212.301 32.4088 213.242 31.4696 213.712 31C218.417 24.8955 220.299 17.3822 219.358 9.86893C210.89 8.46019 202.422 11.2777 196.306 16.9126C193.013 20.1997 191.131 23.9563 189.72 27.713C188.779 30.5305 188.309 33.3479 188.309 36.1654C188.309 37.5742 188.309 38.9829 188.779 39.9221C194.424 40.8612 200.07 39.9221 204.774 37.5742Z" fill="#E08433"/>
<path d="M109.745 118.811L97.9842 112.237C93.2798 119.281 89.9867 126.794 87.1641 135.247L102.218 138.064C104.1 131.02 106.452 124.446 109.745 118.811Z" fill="#E08433"/>
<path d="M84.3398 146.986C86.6921 146.047 89.5147 145.108 91.8669 144.638L84.8103 143.23C84.8103 144.169 84.8103 145.578 84.3398 146.986Z" fill="#006A4E"/>
<path d="M209.947 44.6178C217.004 46.0266 223.59 47.9049 230.176 50.2528C228.765 47.9049 227.824 45.557 226.883 43.2091C223.59 42.2699 219.827 41.3307 216.063 40.3916C214.652 41.8003 212.299 43.2091 209.947 44.6178Z" fill="#006A4E"/>
<path d="M302.152 85.0017C301.212 88.2888 301.212 92.0454 301.682 95.3325C302.153 100.028 304.505 104.724 307.327 108.481C308.268 108.011 308.739 108.011 309.68 107.542C312.032 106.133 314.384 104.724 316.736 102.846C320.029 99.5587 322.852 95.3325 323.793 90.6367C326.145 82.1842 323.793 73.7318 318.618 67.1577C311.091 69.9752 305.446 76.0797 302.623 83.593C302.623 83.593 302.152 84.0626 302.152 85.0017Z" fill="#006A4E"/>
<path d="M127.621 96.7415L120.094 87.8194C113.978 92.9848 107.863 98.6198 103.158 105.194L114.449 111.768C118.212 106.133 122.446 101.437 127.621 96.7415Z" fill="#006A4E"/>
<path d="M234.41 38.983C235.351 41.8005 236.292 44.618 238.174 46.9659C241.467 51.6617 245.701 54.9488 250.876 56.8271C251.817 55.8879 252.287 54.9488 253.228 54.0096C254.639 51.6617 255.58 48.8442 256.521 46.4963C257.462 42.2701 257.462 38.0439 256.521 33.8177C254.169 24.8956 247.583 17.8519 239.585 15.0345C234.881 20.6694 232.529 28.6523 233.94 36.1656C233.94 37.1047 234.41 38.0439 234.41 38.983Z" fill="#006A4E"/>
<path d="M285.688 68.0969C286.159 68.0969 287.099 67.6274 287.57 67.6274C295.097 64.8099 300.742 59.1749 303.565 51.6616C296.979 46.0267 288.04 44.1484 280.043 46.4963C275.809 47.4354 272.045 49.7833 268.752 53.0704C266.87 54.9487 264.989 57.2966 263.577 59.6445C263.107 60.5837 262.636 61.9924 262.166 62.9316C266.4 66.2186 271.104 68.5665 276.75 69.0361C279.572 69.5057 282.395 69.0361 285.688 68.0969Z" fill="#E08433"/>
<path d="M87.163 77.4883C86.6925 77.4883 86.2221 77.4883 85.7516 77.4883C83.8699 77.4883 81.5177 77.0188 79.6359 77.0188C76.8133 79.8362 73.9906 82.6537 71.168 85.9408C71.6384 88.2887 71.6384 91.1062 71.6384 93.4541C76.3428 87.3495 81.5177 82.1841 87.163 77.4883Z" fill="#006A4E"/>
<path d="M278.632 77.4882C278.162 77.4882 277.691 77.4882 277.221 77.4882C282.866 82.184 288.041 87.819 292.745 93.454C292.745 91.1061 292.745 88.2886 293.216 85.9407C290.393 83.1232 287.57 79.8361 284.748 77.4882C282.866 77.0187 280.984 77.4882 278.632 77.4882Z" fill="#006A4E"/>
<path d="M277.222 134.777C274.399 126.794 271.106 118.812 266.402 111.768L254.641 118.342C257.934 123.977 260.286 130.551 262.168 137.125L277.222 134.777Z" fill="#006A4E"/>
<path d="M217.473 72.3228L213.709 82.1839C219.825 84.5318 225.47 87.8189 231.115 91.5756L238.172 83.1231C231.586 78.8969 224.529 75.1402 217.473 72.3228Z" fill="#006A4E"/>
<path d="M244.761 88.2888L237.234 97.2108C242.409 101.437 246.643 106.602 250.407 112.237L261.697 105.663C256.993 99.0891 251.348 92.9846 244.761 88.2888Z" fill="#E08433"/>
<path d="M279.573 142.76L272.986 144.169C275.809 144.638 278.161 145.577 280.513 146.517C280.043 145.577 280.043 144.169 279.573 142.76Z" fill="#E08433"/>
<path d="M178.429 66.2187C170.431 66.6882 162.904 67.6274 155.848 69.9753L159.141 79.3669C165.256 77.4886 171.843 76.5494 178.429 76.0798V66.2187Z" fill="#006A4E"/>
<path d="M151.141 82.1839L147.377 72.3228C139.85 75.1402 132.793 78.4273 126.678 83.1231L133.734 91.5756C139.38 87.8189 145.025 84.5318 151.141 82.1839Z" fill="#E08433"/>
<path d="M186.428 66.2187V76.0798C193.014 76.5494 199.6 77.4886 205.716 79.3669L209.009 69.9753C201.952 68.097 194.425 66.6882 186.428 66.2187Z" fill="#E08433"/>
<path d="M87.163 502.459C81.5177 497.763 76.3428 492.128 71.6384 486.493C71.6384 488.841 71.6384 491.658 71.168 494.006C73.9906 496.824 76.8133 500.111 79.6359 502.928C82.4586 502.459 84.8108 502.459 87.163 502.459Z" fill="#006A4E"/>
<path d="M261.226 180.796C267.812 178.918 272.987 174.692 275.339 168.587C270.164 164.83 263.108 163.422 256.992 165.3C250.406 167.178 245.231 171.405 242.879 177.509C248.054 181.266 254.64 182.674 261.226 180.796Z" fill="#E08433"/>
<path d="M238.171 289.269C238.171 307.583 229.233 323.549 215.59 333.879C239.582 326.366 261.223 310.87 275.806 289.269C261.223 267.669 240.053 252.173 215.59 244.659C229.233 254.99 238.171 270.956 238.171 289.269Z" fill="#E08433"/>
<path d="M89.0449 289.269C103.629 310.87 124.798 326.366 149.261 333.879C135.619 323.549 126.68 307.583 126.68 289.269C126.68 270.956 135.619 254.99 149.261 244.659C124.798 252.173 103.629 267.669 89.0449 289.269Z" fill="#E08433"/>
<path d="M135.146 289.269C135.146 315.566 156.316 336.697 182.661 336.697C209.006 336.697 230.176 315.566 230.176 289.269C230.176 262.973 209.006 241.842 182.661 241.842C156.316 241.842 135.146 262.973 135.146 289.269ZM182.191 258.277C199.126 258.277 213.24 271.895 213.24 289.269C213.24 306.174 199.597 320.262 182.191 320.262C165.255 320.262 151.141 306.644 151.141 289.269C151.612 271.895 165.255 258.277 182.191 258.277Z" fill="#F9F9F4"/>
<path d="M143.143 157.787C145.025 151.212 143.614 144.638 139.85 139.473C133.735 142.29 129.501 147.456 127.619 153.56C125.737 160.134 127.148 166.709 130.912 171.874C137.028 169.526 141.732 164.361 143.143 157.787Z" fill="#E08433"/>
<path d="M233.468 172.344C237.231 167.178 238.642 160.135 236.761 154.03C234.879 147.456 230.645 142.291 224.529 139.943C220.766 145.108 219.354 152.152 221.236 158.256C223.118 164.361 227.822 169.526 233.468 172.344Z" fill="#E08433"/>
<path d="M97.5132 312.279C91.3974 306.174 85.2817 299.13 80.5773 291.148L79.166 288.8L80.5773 286.452C85.7521 278.938 91.3974 271.895 97.9836 265.321C84.3408 265.321 72.5798 258.746 65.0527 248.885V328.714C72.1094 318.853 83.8704 312.279 97.5132 312.279Z" fill="#006A4E"/>
<path d="M325.206 142.291C322.853 141.351 320.972 139.943 319.09 138.534C321.912 147.456 324.265 156.848 325.676 166.709H330.38C328.969 158.256 327.558 150.273 325.206 142.291Z" fill="#006A4E"/>
<path d="M295.096 187.37C291.803 184.553 287.569 182.674 283.806 181.265C286.158 177.978 288.04 174.222 289.451 170.465L291.333 164.83L286.628 160.604C280.042 154.499 271.574 151.212 262.636 151.212C259.343 151.212 256.52 151.682 253.227 152.621C252.286 153.091 251.345 153.091 250.404 153.56C250.404 152.621 249.934 151.682 249.934 150.743C246.641 139.003 238.173 129.612 226.412 125.855L220.767 123.977L216.533 128.672C210.417 135.716 207.124 144.169 207.124 153.091C199.126 150.273 190.658 148.864 182.191 148.864C173.723 148.864 165.255 150.273 157.257 153.091C157.257 144.169 153.964 135.247 147.848 128.672L143.614 123.977L137.969 125.855C126.208 129.612 117.74 139.003 114.447 150.743C113.977 151.682 113.977 152.621 113.977 153.56C113.036 153.091 112.095 153.091 111.154 152.621C107.861 151.682 105.038 151.212 101.745 151.212C92.8067 151.212 84.3387 154.499 77.7525 160.604L73.0481 164.83L74.9299 170.465C76.3412 174.222 78.223 177.978 80.5752 181.265C76.3412 182.674 72.5777 185.022 69.2846 187.37V175.161H15.6543V379.898L42.4694 407.134L63.6393 386.002C68.3437 391.168 74.4595 394.924 81.0456 397.272C78.6934 400.559 76.8117 404.316 75.4003 408.073L73.5186 413.708L78.223 417.934C84.8092 424.038 93.7476 427.326 102.215 427.326C105.038 427.326 108.331 426.856 111.154 425.917C112.095 425.447 113.036 425.447 113.977 424.978C113.977 425.917 114.447 426.856 114.447 427.795C117.74 439.535 126.208 448.926 137.969 452.683L143.614 454.561L147.848 449.865C153.964 442.822 157.257 434.369 157.257 425.447C165.255 428.265 173.723 429.673 182.191 429.673C190.658 429.673 199.126 428.265 207.124 425.447C207.124 434.369 210.417 443.291 216.533 449.865L220.767 454.561L226.412 452.683C238.173 448.926 246.641 439.535 249.934 427.795C250.404 426.856 250.404 425.917 250.404 424.978C251.345 425.447 252.286 425.447 253.227 425.917C256.05 426.856 259.343 427.326 262.166 427.326C271.104 427.326 279.572 424.038 286.158 417.934L290.862 413.708L288.981 408.073C287.569 404.316 285.688 400.559 283.335 397.272C289.922 394.924 295.567 391.168 300.742 386.002L321.912 407.134L349.197 379.898V175.161H295.096V187.37ZM300.271 200.049V180.326H344.022V378.02L321.912 400.09L300.271 378.489C294.156 386.942 284.276 393.046 273.456 394.924C278.631 398.681 282.395 403.846 284.276 409.951L285.217 412.299L283.335 414.177C277.69 419.343 270.163 422.16 263.106 422.16C260.284 422.16 257.932 421.691 255.109 421.221C251.816 420.282 248.993 418.873 246.171 416.995C246.171 420.282 246.171 423.569 245.23 426.856C242.407 436.717 234.88 444.7 225.001 447.987L222.648 448.926L220.767 447.048C213.71 439.535 211.358 428.734 213.71 418.873C213.71 418.403 214.181 417.934 214.181 417.464C204.772 422.16 193.952 424.978 182.661 424.978C171.37 424.978 160.55 422.16 151.141 417.464C151.141 417.934 151.612 418.403 151.612 418.873C154.434 428.734 151.612 439.535 144.555 447.048L142.673 448.926L140.321 447.987C130.442 444.7 122.915 436.717 120.092 426.856C119.151 423.569 119.151 420.282 119.151 416.995C116.329 418.873 113.506 420.282 110.213 421.221C107.39 421.691 105.038 422.16 102.215 422.16C94.6884 422.16 87.6318 419.343 81.9865 414.177L80.1047 412.299L81.0456 409.951C82.9274 403.846 86.6909 398.681 91.8658 394.924C81.0456 393.046 71.1664 387.411 65.0506 378.489L42.4694 399.62L20.3587 377.55V375.672V180.326H64.1097V200.049C70.2255 191.596 80.1047 185.961 90.9249 184.083C85.75 180.326 81.9865 175.161 80.1047 169.056L79.1639 166.708L81.0456 164.83C88.5727 157.786 99.3928 155.439 109.272 157.786C112.565 158.726 115.388 160.134 118.21 162.013C118.21 158.726 118.21 155.439 119.151 152.151C121.974 142.29 129.501 134.307 139.38 131.02L141.733 130.081L143.614 131.96C150.671 139.473 153.023 150.273 150.671 160.134C150.671 160.604 150.201 161.074 150.201 161.543C159.609 156.847 170.429 154.03 181.72 154.03C193.011 154.03 203.831 156.847 213.24 161.543C213.24 161.074 212.769 160.604 212.769 160.134C209.947 150.273 212.769 139.473 219.826 131.96L221.708 130.081L224.06 131.02C233.939 134.307 241.466 142.29 244.289 152.151C245.23 155.439 245.23 158.726 245.23 162.013C248.052 160.134 250.875 158.726 254.168 157.786C264.047 154.969 274.867 157.786 282.395 164.83L284.276 166.708L283.335 169.056C281.454 175.161 277.69 180.326 272.515 184.083C284.276 185.492 294.156 191.596 300.271 200.049Z" fill="#006A4E"/>
<path d="M245.702 199.579L241.468 203.336L239.116 198.171C228.766 176.1 206.656 162.013 182.663 162.013C158.671 162.013 136.089 176.1 126.21 198.171L123.858 203.336L119.624 199.579C113.508 194.414 105.981 191.597 97.9836 191.597C79.6364 191.597 65.0527 206.154 65.0527 224.467C65.0527 242.781 79.6364 257.338 97.9836 257.338C100.336 257.338 102.218 257.338 104.57 256.868C106.922 256.399 109.274 255.459 111.156 254.52C114.92 251.703 118.683 249.355 122.447 247.007C108.804 245.598 96.5723 236.676 90.4566 224.467L97.9836 221.18C103.158 232.45 114.449 239.494 126.681 239.494C137.501 239.494 147.38 233.859 153.496 224.937C149.732 221.18 146.439 216.954 144.087 212.258L151.614 208.971C157.259 221.18 169.491 228.693 182.663 228.693C195.835 228.693 208.067 220.711 213.712 208.971L221.239 212.258C218.887 216.954 216.064 221.18 212.301 224.937C217.946 233.859 228.296 239.963 239.116 239.963C251.347 239.963 262.638 232.92 267.813 221.65L275.34 224.937C269.224 237.615 256.993 246.068 243.35 247.946C247.114 250.294 250.877 252.642 254.641 255.459C256.993 256.399 258.875 257.338 261.227 257.807C263.109 258.277 265.461 258.277 267.813 258.277C286.16 258.277 300.744 243.72 300.744 225.406C300.744 207.093 286.16 192.536 267.813 192.536C259.345 191.597 251.818 194.414 245.702 199.579Z" fill="#F9F9F4"/>
<path d="M337.434 114.116C332.73 112.707 327.555 113.176 323.321 114.585C320.498 115.524 318.146 116.464 315.794 118.342C315.323 118.811 314.383 119.281 313.912 119.751C315.323 123.977 317.676 127.264 320.969 130.081C323.791 132.899 327.555 134.777 331.789 135.716C340.257 138.064 348.725 135.716 355.311 130.551C352.488 122.568 345.902 116.464 337.434 114.116Z" fill="#E08433"/>
<path d="M103.629 397.273C97.0427 399.151 91.8678 403.377 89.5156 409.482C94.6905 413.238 101.747 414.647 107.863 412.769C114.449 410.89 119.624 406.664 121.976 400.56C116.801 396.803 110.215 395.864 103.629 397.273Z" fill="#E08433"/>
<path d="M221.707 420.282C219.825 426.856 221.236 433.43 225 438.596C231.116 435.778 235.35 430.613 237.231 424.508C239.113 417.934 237.702 411.36 233.938 406.195C227.823 408.543 223.118 413.708 221.707 420.282Z" fill="#E08433"/>
<path d="M131.385 405.725C127.621 410.89 126.21 417.934 128.092 424.039C129.973 430.613 134.207 435.778 140.323 438.126C144.087 432.961 145.498 425.917 143.616 419.812C141.734 413.708 137.03 408.542 131.385 405.725Z" fill="#E08433"/>
<path d="M261.226 397.272C254.64 395.394 248.054 396.803 242.879 400.559C245.702 406.664 250.876 410.89 256.992 412.769C263.578 414.647 270.164 413.238 275.339 409.481C272.517 403.377 267.342 399.151 261.226 397.272Z" fill="#E08433"/>
<path d="M267.344 320.731C264.991 320.731 263.11 320.731 260.757 321.201C258.405 321.67 256.053 322.609 253.701 323.549C249.937 326.366 246.174 328.714 242.41 330.592C256.053 332.001 268.285 340.453 274.4 353.602L266.873 356.889C261.698 345.619 250.408 338.575 238.176 338.575C227.356 338.575 217.477 344.21 211.361 353.132C215.125 356.889 218.418 361.115 220.77 365.811L213.243 369.098C207.598 356.889 195.366 349.375 182.194 349.375C169.021 349.375 156.79 357.358 151.145 369.098L143.618 365.811C145.97 361.115 148.792 356.889 152.556 353.132C146.911 344.21 136.561 338.106 125.741 338.106C113.509 338.106 102.219 345.149 97.0439 356.419L89.5168 353.132C95.6326 340.453 107.864 332.001 121.507 330.123C117.743 327.775 113.98 325.427 110.216 323.079C107.864 322.14 105.512 321.201 103.16 320.731C101.278 320.261 98.9257 320.262 96.5735 320.262C78.2263 320.262 63.6426 334.818 63.6426 353.132C63.6426 371.446 78.2263 386.003 96.5735 386.003C104.571 386.003 112.098 383.185 118.214 378.02L122.448 374.263L124.8 379.429C135.15 401.499 157.26 415.586 181.253 415.586C205.245 415.586 227.827 401.499 237.706 379.429L240.058 374.263L244.292 378.02C250.408 383.185 257.935 386.003 265.932 386.003C284.279 386.003 298.863 371.446 298.863 353.132C300.275 335.288 285.691 320.731 267.344 320.731Z" fill="#F9F9F4"/>
<path d="M267.342 265.79C273.457 271.894 279.573 278.938 284.277 286.921L285.689 289.269L284.277 291.617C279.103 299.6 273.457 306.174 266.871 312.748C280.514 312.748 292.275 319.322 299.802 329.183V249.355C292.745 259.216 280.984 265.79 267.342 265.79Z" fill="#006A4E"/>
<path d="M103.629 180.796C110.215 182.674 116.801 181.266 121.976 177.509C119.153 171.405 113.979 167.178 107.863 165.3C101.277 163.422 94.6905 164.83 89.5156 168.587C92.3383 174.692 97.5131 178.918 103.629 180.796Z" fill="#E08433"/>
<path d="M316.736 477.101C314.854 475.223 312.502 473.345 309.68 472.405C308.739 471.936 308.268 471.466 307.327 471.466C304.034 475.223 302.153 479.919 301.682 484.615C301.212 487.902 301.212 491.658 302.152 494.945C302.152 495.415 302.623 495.884 302.623 496.354C304.975 503.867 311.091 509.972 318.618 512.789C324.263 506.215 326.145 497.293 323.793 489.31C322.381 484.615 320.029 480.388 316.736 477.101Z" fill="#E08433"/>
<path d="M211.828 547.068C209.947 545.19 207.594 543.312 204.772 542.373C199.597 540.025 193.952 539.086 188.306 540.025C188.306 541.433 187.836 542.842 187.836 543.781C187.836 546.599 188.306 549.416 188.777 552.234C190.188 556.46 192.07 560.217 195.363 563.034C201.479 569.139 209.947 571.956 218.415 570.078C219.826 562.565 217.474 555.051 212.769 548.947C213.24 548.477 212.769 547.538 211.828 547.068Z" fill="#006A4E"/>
<path d="M287.572 512.32C287.101 512.32 286.16 511.85 285.69 511.85C282.397 510.911 279.574 510.911 276.281 510.911C271.106 511.38 265.931 513.728 261.697 517.015C262.168 517.955 262.638 519.363 263.109 520.302C264.52 522.65 265.931 524.998 268.283 526.877C271.577 529.694 275.34 532.042 279.574 533.451C288.042 535.799 296.51 533.451 303.096 528.285C300.744 520.303 295.099 514.668 287.572 512.32Z" fill="#006A4E"/>
<path d="M253.228 525.938C252.758 524.999 251.817 524.06 250.876 523.12C245.701 524.999 240.997 528.755 238.174 532.982C236.763 535.329 235.351 538.147 234.41 540.964C234.41 541.904 233.94 542.843 233.94 543.782C232.529 551.295 234.881 558.808 239.585 564.913C247.583 562.096 253.699 555.521 256.051 547.069C256.992 542.843 256.992 538.147 256.051 534.39C255.58 531.103 254.639 528.286 253.228 525.938Z" fill="#E08433"/>
<path d="M216.534 540.025C220.297 539.086 223.59 538.147 227.354 537.208C228.295 534.86 229.236 532.512 230.647 530.164C224.061 532.512 217.475 534.39 210.418 535.799C212.3 536.738 214.652 538.147 216.534 540.025Z" fill="#006A4E"/>
<path d="M318.147 211.788H308.738V224.467V353.602V359.237C311.561 356.889 314.854 355.48 318.147 355.01V211.788Z" fill="#E08433"/>
<path d="M277.691 502.459C280.044 502.459 282.866 502.459 285.218 502.928C288.041 500.111 290.864 497.293 293.686 494.006C293.216 491.658 293.216 488.841 293.216 486.493C288.512 492.128 283.337 497.763 277.691 502.459Z" fill="#006A4E"/>
<path d="M261.699 474.283L250.409 467.709C246.645 473.344 241.941 478.04 237.236 482.736L244.763 491.658C251.35 486.492 256.995 480.858 261.699 474.283Z" fill="#E08433"/>
<path d="M280.517 431.082C276.753 432.961 272.519 433.9 268.285 434.369L279.576 436.248C280.046 434.839 280.517 432.961 280.517 431.082Z" fill="#E08433"/>
<path d="M255.113 461.135L266.874 467.71C271.579 460.666 274.872 453.153 277.694 444.7L262.64 442.352C260.759 448.926 258.406 455.031 255.113 461.135Z" fill="#006A4E"/>
<path d="M213.713 497.293L217.476 507.154C225.003 504.337 232.06 501.05 238.176 496.354L231.119 487.901C225.474 491.658 219.829 494.945 213.713 497.293Z" fill="#006A4E"/>
<path d="M186.428 513.259C194.425 512.789 201.952 511.85 209.009 509.502L205.716 500.111C199.6 501.989 193.014 502.928 186.428 503.398V513.259Z" fill="#E08433"/>
<path d="M178.431 513.259V503.398C171.845 502.928 165.258 501.989 159.143 500.111L155.85 509.502C162.906 511.85 170.433 512.789 178.431 513.259Z" fill="#006A4E"/>
<path d="M113.978 468.179L102.688 474.753C107.392 481.327 113.508 486.962 119.623 492.128L127.15 483.206C122.446 478.51 118.212 473.345 113.978 468.179Z" fill="#006A4E"/>
<path d="M85.2827 436.717L96.5733 434.839C92.3393 434.37 88.1053 432.961 84.3418 431.552C84.3418 432.961 84.8122 434.839 85.2827 436.717Z" fill="#006A4E"/>
<path d="M87.6348 444.7C90.4574 452.683 93.7505 460.666 98.4549 467.71L110.216 461.135C106.923 455.5 104.571 448.926 102.689 442.352L87.6348 444.7Z" fill="#E08433"/>
<path d="M151.143 497.293C145.027 494.945 139.382 491.658 133.736 487.901L126.68 496.354C133.266 500.58 140.322 504.337 147.379 507.154L151.143 497.293Z" fill="#E08433"/>
<path d="M56.1118 188.309H28.8262V203.336H56.1118V188.309Z" fill="#F9F9F4"/>
<path d="M326.617 355.01C329.91 355.95 333.203 357.358 336.026 359.706V211.788H326.617V355.01Z" fill="#E08433"/>
<path d="M336.024 188.309H308.738V203.336H336.024V188.309Z" fill="#F9F9F4"/>
<path d="M46.707 355.01C50.0001 355.95 53.2932 357.358 56.1159 359.706V354.071V224.467V211.788H46.707V355.01Z" fill="#E08433"/>
<path d="M321.911 362.524C314.854 362.524 309.679 367.689 308.738 374.263L322.381 387.881L335.553 374.733C334.613 368.159 328.967 362.524 321.911 362.524Z" fill="#F9F9F4"/>
<path d="M38.235 211.788H28.8262V358.767C31.6488 356.419 34.9419 355.01 38.235 354.541V211.788Z" fill="#E08433"/>
<path d="M330.382 410.89L328.03 413.238L324.737 416.056C323.326 424.508 321.444 432.961 318.621 440.943C320.503 439.535 322.855 438.126 324.737 437.187C327.56 428.734 329.441 419.812 330.382 410.89Z" fill="#006A4E"/>
<path d="M331.789 444.231C327.555 445.17 323.791 447.518 320.969 450.335C317.676 453.153 315.323 456.909 313.912 460.666C314.383 461.136 315.323 461.605 315.794 462.075C318.146 463.484 320.498 464.892 323.321 465.832C328.025 467.24 332.73 467.24 337.905 466.301C346.373 463.953 352.959 457.849 355.781 449.866C348.725 443.761 339.786 441.883 331.789 444.231Z" fill="#006A4E"/>
<path d="M42.4712 362.524C35.4146 362.524 30.2397 367.689 29.2988 374.263L42.4712 387.881L55.6435 374.733C55.1731 368.159 49.5278 362.524 42.4712 362.524Z" fill="#F9F9F4"/>
<path d="M182.194 319.792C199.13 319.792 213.243 306.174 213.243 288.799C213.243 271.894 199.6 257.807 182.194 257.807C165.258 257.807 151.145 271.425 151.145 288.799C151.615 306.174 165.258 319.792 182.194 319.792Z" fill="#072119"/>
<path d="M300.272 180.327V200.049C294.156 191.596 284.277 185.961 273.457 184.083C278.632 180.327 282.395 175.161 284.277 169.057L285.218 166.709L283.336 164.83C275.809 157.787 264.989 155.439 255.11 157.787C251.817 158.726 248.994 160.135 246.171 162.013C246.171 158.726 246.171 155.439 245.231 152.152C242.408 142.291 234.881 134.308 225.002 131.021L222.649 130.081L220.768 131.96C213.711 139.473 211.359 150.273 213.711 160.135C213.711 160.604 214.181 161.074 214.181 161.543C204.773 156.847 193.952 154.03 182.662 154.03C171.371 154.03 160.551 156.847 151.142 161.543C151.142 161.074 151.613 160.604 151.613 160.135C154.435 150.273 151.613 139.473 144.556 131.96L142.674 130.081L140.322 131.021C130.443 134.308 122.916 142.291 120.093 152.152C119.152 155.439 119.152 158.726 119.152 162.013C116.33 160.135 113.507 158.726 110.214 157.787C100.335 154.969 89.5145 157.787 81.9874 164.83L80.1057 166.709L81.0466 169.057C82.9283 175.161 86.6918 180.327 91.8667 184.083C81.0466 185.961 71.6377 191.596 65.0515 200.049V180.327H20.8301V376.141V378.02L42.4704 399.62L64.1107 378.02C70.2264 386.472 80.1057 392.577 90.9258 394.455C85.751 398.212 81.9874 403.377 80.1057 409.482L79.1648 411.83L81.0466 413.708C86.6918 418.873 94.2189 421.691 101.276 421.691C104.098 421.691 106.45 421.221 109.273 420.752C112.566 419.812 115.389 418.404 118.211 416.525C118.211 419.812 118.211 423.099 119.152 426.387C121.975 436.248 129.502 444.231 139.381 447.518L141.733 448.457L143.615 446.578C150.672 439.065 153.024 428.265 150.672 418.404C150.672 417.934 150.201 417.465 150.201 416.995C159.61 421.691 170.43 424.508 181.721 424.508C193.012 424.508 203.832 421.691 213.241 416.995C213.241 417.465 212.77 417.934 212.77 418.404C209.947 428.265 212.77 439.065 219.827 446.578L221.708 448.457L224.061 447.518C233.94 444.231 241.467 436.248 244.29 426.387C245.231 423.099 245.231 419.812 245.231 416.525C248.053 418.404 250.876 419.812 254.169 420.752C256.992 421.221 259.344 421.691 262.166 421.691C269.693 421.691 276.75 418.873 282.395 413.708L284.277 411.83V409.482C282.395 403.377 278.632 398.212 273.457 394.455C284.277 392.577 294.156 386.942 300.272 378.02L321.912 399.62L344.023 377.55V180.327H300.272ZM28.8276 211.788H38.2364V354.541C34.9433 355.01 31.6502 356.889 28.8276 358.767V211.788ZM42.4704 387.881L28.8276 374.263C29.7685 367.689 35.4138 362.524 42.4704 362.524C49.527 362.524 55.1723 367.689 55.6427 374.733L42.4704 387.881ZM56.1132 224.467V353.602V359.237C53.2905 356.889 49.9974 355.48 46.7043 354.541V211.788H56.1132V224.467ZM56.1132 203.806H28.8276V188.779H56.1132V203.806ZM256.992 165.77C263.578 163.891 270.164 165.3 275.339 169.057C272.516 175.161 267.341 179.387 261.226 181.266C254.639 183.144 248.053 181.735 242.878 177.979C245.701 171.874 250.876 167.178 256.992 165.77ZM225.002 139.473C231.117 142.291 235.351 147.456 237.233 153.56C239.115 160.135 237.703 166.709 233.94 171.874C227.824 169.057 223.59 163.891 221.708 157.787C219.827 151.682 221.238 145.108 225.002 139.473ZM128.091 154.03C129.972 147.456 134.206 142.291 140.322 139.943C144.086 145.108 145.497 152.152 143.615 158.256C141.733 164.83 137.499 169.996 131.384 172.344C127.62 167.178 126.209 160.135 128.091 154.03ZM89.5145 169.057C94.6893 165.3 101.746 163.891 107.862 165.77C114.448 167.648 119.623 171.874 121.975 177.979C116.8 181.735 109.743 183.144 103.628 181.266C97.512 178.918 92.3371 174.692 89.5145 169.057ZM64.5811 249.355C72.1082 259.216 83.8692 265.79 97.512 265.79C90.9258 271.895 85.2805 278.938 80.1057 286.921L78.6944 289.269L80.1057 291.617C85.2805 299.6 90.9258 306.174 97.512 312.748C83.8692 312.748 72.1082 319.322 64.5811 329.183V249.355ZM229.706 289.269C229.706 315.566 208.536 336.697 182.191 336.697C155.847 336.697 134.677 315.566 134.677 289.269C134.677 262.973 155.847 241.842 182.191 241.842C208.536 241.842 229.706 262.973 229.706 289.269ZM215.593 244.659C239.585 252.172 261.226 267.668 275.809 289.269C261.226 310.87 240.056 326.366 215.593 333.879C229.236 323.548 238.174 307.583 238.174 289.269C238.174 270.955 229.236 254.99 215.593 244.659ZM204.302 345.619C204.302 345.619 204.773 345.619 204.302 345.619C204.773 345.619 204.302 345.619 204.302 345.619ZM160.081 345.149C160.081 345.149 159.61 345.149 160.081 345.149C159.61 345.149 160.081 345.149 160.081 345.149ZM126.679 289.269C126.679 307.583 135.618 323.548 149.261 333.879C125.268 326.366 103.628 310.87 89.0441 289.269C103.628 267.668 124.798 252.172 149.261 244.659C135.618 254.99 126.679 270.955 126.679 289.269ZM107.862 412.769C101.276 414.177 94.6893 413.238 89.5145 409.482C92.3371 403.377 97.512 399.151 103.628 397.273C110.214 395.394 116.8 396.803 121.975 400.56C119.152 406.664 113.977 410.89 107.862 412.769ZM139.852 438.596C133.736 435.778 129.502 430.613 127.62 424.508C125.738 417.934 127.15 411.36 130.913 406.195C137.029 409.012 141.263 414.177 143.145 420.282C145.027 426.387 143.615 433.43 139.852 438.596ZM236.763 424.508C234.881 431.082 230.647 436.248 224.531 438.596C220.768 433.43 219.356 426.387 221.238 420.282C223.12 413.708 227.354 408.543 233.469 406.195C237.233 411.36 238.644 417.934 236.763 424.508ZM275.339 409.482C270.164 413.238 263.107 414.647 256.992 412.769C250.405 410.89 245.231 406.664 242.878 400.56C248.053 396.803 255.11 395.394 261.226 397.273C267.341 399.151 272.516 403.377 275.339 409.482ZM267.341 386.472C259.344 386.472 251.817 383.655 245.701 378.489L241.467 374.733L239.115 379.898C228.765 401.968 206.654 416.056 182.662 416.056C158.669 416.056 136.088 401.968 126.209 379.898L123.857 374.733L119.623 378.489C113.507 383.655 105.98 386.472 97.9824 386.472C79.6352 386.472 65.0515 371.915 65.0515 353.602C65.0515 335.288 79.6352 320.731 97.9824 320.731C100.335 320.731 102.216 320.731 104.569 321.201C106.921 321.67 109.273 322.609 111.625 323.548C115.389 326.366 119.152 328.714 122.916 330.592C109.273 332.001 97.0415 340.453 90.9258 353.602L98.4529 356.889C103.628 345.619 114.918 338.575 127.15 338.575C137.97 338.575 148.32 344.21 153.965 353.602C150.201 357.358 146.908 361.584 145.027 366.28L152.554 369.567C158.199 357.358 170.43 349.845 183.603 349.845C196.775 349.845 209.007 357.828 214.652 369.567L222.179 366.28C219.827 361.584 216.534 356.889 212.77 353.602C218.415 344.68 228.765 339.045 239.585 339.045C251.817 339.045 263.107 346.088 268.282 357.358L275.809 354.071C269.693 341.393 257.462 332.94 243.819 331.062C247.583 328.714 251.346 326.366 255.11 324.018C257.462 323.079 259.814 322.14 262.166 321.67C264.048 321.201 266.4 321.201 268.753 321.201C287.1 321.201 301.683 335.758 301.683 354.071C300.272 371.915 285.688 386.472 267.341 386.472ZM300.272 328.714C292.745 318.853 280.984 312.279 267.341 312.279C273.927 306.174 279.573 299.13 284.748 291.147L286.159 288.8L284.748 286.452C279.573 278.938 273.927 271.895 267.341 265.321C280.984 265.321 292.745 258.746 300.272 248.885V328.714ZM267.341 257.338C264.989 257.338 263.107 257.338 260.755 256.868C258.403 256.398 256.051 255.459 254.169 254.52C250.405 251.703 246.642 249.355 242.878 247.007C256.521 245.598 268.753 237.146 274.868 223.997L267.341 220.71C262.166 231.98 250.876 239.024 238.644 239.024C227.824 239.024 217.474 233.389 211.829 223.997C215.593 220.241 218.886 216.015 220.768 211.319L213.241 208.032C207.595 220.241 195.364 227.754 182.191 227.754C169.019 227.754 156.788 219.771 151.142 208.032L143.615 211.319C145.967 216.015 149.261 220.71 153.024 223.997C147.379 232.919 137.029 238.554 126.209 238.554C113.977 238.554 102.687 231.511 97.512 220.241L89.9849 223.528C96.1007 236.207 107.862 244.659 121.975 246.068C118.211 248.416 114.448 250.764 110.684 253.581C108.332 254.52 106.45 255.459 104.098 255.929C102.216 256.398 99.8642 256.399 97.512 256.399C79.1648 256.399 64.5811 241.842 64.5811 223.528C64.5811 205.214 79.1648 190.657 97.512 190.657C105.509 190.657 113.037 193.475 119.152 198.64L123.386 202.397L125.738 197.231C136.088 175.161 158.199 161.074 182.191 161.074C206.184 161.074 228.765 175.161 238.644 197.231L240.997 202.397L245.231 198.64C251.346 193.475 258.873 190.657 266.871 190.657C285.218 190.657 299.802 205.214 299.802 223.528C300.272 242.781 285.688 257.338 267.341 257.338ZM308.74 353.602V224.467V211.788H318.149V354.541C314.856 355.01 311.563 356.889 308.74 358.767V353.602ZM322.383 387.881L308.74 374.263C309.681 367.689 315.326 362.524 321.912 362.524C328.969 362.524 334.614 367.689 335.085 374.733L322.383 387.881ZM336.026 359.237C333.203 356.889 329.91 355.48 326.617 354.541V211.788H336.026V359.237ZM336.026 203.806H308.74V188.779H336.026V203.806Z" fill="#072119"/>
<path d="M362.841 134.78L364.723 132.902L364.252 130.554C360.959 118.345 351.55 108.953 339.789 106.136C335.085 104.727 330.381 104.727 325.676 105.196C328.499 101.44 330.851 97.2136 332.262 92.5178C335.555 80.7783 331.792 67.63 323.324 59.1776L321.442 57.2992L319.09 57.7688C313.445 59.1776 308.74 61.995 304.506 65.7517C308.27 61.5255 311.092 56.8297 312.504 51.1947L312.974 48.8468L311.092 46.9685C302.625 38.9856 289.452 35.229 277.691 38.516C272.987 39.9248 268.753 41.8031 264.989 45.0902C265.93 40.3944 265.46 35.6986 264.048 31.0027C260.755 19.2632 251.346 9.87164 239.585 6.58458L237.233 5.64542L235.351 7.52374C231.117 11.2804 228.295 16.4458 226.883 21.6111C227.824 16.4458 227.824 10.8108 226.413 5.17584L225.943 2.82794L223.59 2.35836C211.829 -0.928705 198.657 2.35836 190.189 11.2804C186.896 14.5674 184.073 18.7937 182.662 23.0199C180.78 18.7937 178.428 14.5674 175.135 11.2804C166.197 2.35836 153.495 -0.928705 141.734 2.35836L139.381 2.82794L138.911 5.17584C136.559 10.3412 136.559 15.9762 137.97 21.6111C136.088 16.4458 133.266 11.75 129.502 7.52374L127.62 5.64542L125.268 6.115C113.037 9.40206 103.628 18.7937 100.805 31.0027C99.3939 35.6986 99.3939 40.3944 99.8644 45.0902C96.1009 42.2727 91.8669 39.9248 87.1625 38.516C75.4014 35.229 62.2291 38.9856 53.7612 47.4381L51.8794 49.3164L52.3498 51.6643C53.7612 57.2992 56.5838 61.995 60.3473 66.2213C56.1134 62.4646 51.4089 59.6471 45.7636 58.2384L43.4114 57.7688L41.5297 59.6471C33.0617 68.0996 29.7687 80.7783 33.0617 92.5178C34.4731 97.2136 36.3548 101.44 39.6479 105.196C34.9435 104.257 30.2391 104.727 25.5347 106.136C13.7737 109.423 4.36483 118.814 1.07174 130.554L0.130859 132.902L2.01262 134.78C8.5988 141.354 17.5372 145.111 26.4756 145.111C27.8869 145.111 29.2982 145.111 30.7095 144.641C28.8278 151.685 27.4164 159.198 26.4756 166.711H15.6554H7.18748V175.164V379.901V383.188L9.53968 386.005L26.0051 402.441V410.893V411.363C26.946 419.346 28.3573 427.328 30.2391 434.842C19.8894 433.903 9.53968 437.659 2.01262 445.173L0.130859 446.581L0.601301 448.929C3.89439 461.138 13.3032 470.53 25.0642 473.347C27.8869 474.286 31.18 474.286 34.0026 474.286C35.8844 474.286 37.2957 474.286 39.1775 473.817C36.3548 477.574 34.0026 481.8 32.5913 486.496C29.2982 498.235 33.0617 511.383 41.5297 519.836L43.4114 521.714L45.7636 521.245C51.4089 519.836 56.1134 517.018 60.3473 513.262C56.5838 517.488 53.7612 522.184 52.3498 527.819L51.8794 530.167L53.7612 532.045C60.3473 538.619 69.2857 542.376 78.2241 542.376C81.0467 542.376 84.3398 541.906 87.1625 541.436C91.8669 540.028 96.1009 538.149 99.8644 534.862C98.9235 539.558 99.3939 544.254 100.805 548.95C104.098 560.689 113.507 570.081 125.268 573.368L127.62 573.837L129.502 571.959C133.736 568.203 136.559 563.037 137.97 557.872C137.029 563.037 137.029 568.672 138.441 574.307L138.911 576.655L141.263 577.125C144.086 578.064 147.379 578.533 150.202 578.533C159.14 578.533 168.078 574.777 174.665 568.672C177.958 565.385 180.78 561.159 182.192 556.933C184.073 561.159 186.426 565.385 189.719 568.672C196.305 575.246 205.243 578.533 214.182 578.533C217.004 578.533 220.297 578.064 223.12 577.125L225.472 576.655L225.943 574.307C227.354 568.672 227.354 563.037 226.413 557.872C228.295 563.037 231.117 567.733 234.881 571.959L236.763 573.837L239.115 573.368C251.346 570.081 260.755 560.689 263.578 548.95C264.989 544.254 264.989 539.558 264.519 534.862C268.282 537.68 272.516 540.028 277.221 541.436C280.043 542.376 283.336 542.376 286.159 542.376C295.097 542.376 304.036 538.619 310.622 532.045L312.504 530.167L312.033 527.819C310.622 522.184 307.799 517.488 304.036 513.262C308.27 517.018 312.974 519.836 318.62 521.245L320.972 521.714L322.853 519.836C331.792 510.914 335.085 498.235 331.792 486.496C330.381 481.8 328.499 477.574 325.206 473.817C327.087 474.286 328.499 474.286 330.381 474.286C333.203 474.286 336.496 473.817 339.319 473.347C351.08 470.06 360.489 460.669 363.782 448.929L364.252 446.581L362.371 444.703C354.843 437.19 344.023 433.433 333.674 434.842C335.555 426.859 336.967 418.876 337.908 410.424V401.971L354.373 385.536L356.725 383.188V379.901V175.164V166.711H348.257H337.437C336.496 159.198 335.085 151.685 333.203 144.641C334.615 144.641 336.026 145.111 336.967 145.111C347.316 145.111 356.255 141.354 362.841 134.78ZM318.62 67.1604C324.265 73.7346 326.147 82.6566 323.794 90.6394C322.383 95.3352 320.031 99.5615 316.738 102.849C314.856 104.727 312.504 106.605 309.681 107.544C308.74 108.014 308.27 108.483 307.329 108.483C304.036 104.727 302.154 100.031 301.684 95.3352C301.213 92.0482 301.213 88.2915 302.154 85.0045C302.154 84.5349 302.625 84.0653 302.625 83.5957C305.447 75.6129 311.092 69.5083 318.62 67.1604ZM296.509 76.552C295.568 75.6129 294.627 74.6737 294.157 73.7346C296.979 72.3258 299.802 70.4475 302.154 68.0996C299.802 70.9171 297.92 73.265 296.509 76.552ZM263.578 59.6471C264.989 57.2992 266.401 54.9513 268.753 53.073C272.046 50.2555 275.809 47.9076 280.043 46.4989C288.511 44.151 296.979 46.4989 303.565 51.6643C300.743 59.1776 295.097 64.8125 287.57 67.63C287.1 67.63 286.159 68.0996 285.689 68.0996C282.396 69.0387 279.573 69.0387 276.28 69.0387C271.105 68.5692 265.93 66.2213 261.696 62.9342C262.167 61.995 262.637 60.5863 263.578 59.6471ZM293.686 85.4741C293.216 87.822 293.216 90.6394 293.216 92.9873C288.511 87.3524 283.336 82.187 277.691 77.0216C278.162 77.0216 278.632 77.0216 279.102 77.0216C280.984 77.0216 283.336 76.552 285.218 76.552C288.041 79.3695 290.863 82.6566 293.686 85.4741ZM239.585 15.037C247.583 17.8545 253.699 24.4286 256.051 32.8811C256.992 37.1073 256.992 41.8031 256.051 45.5597C255.58 48.3772 254.169 50.7251 252.758 53.073C252.287 54.0122 251.346 54.9513 250.406 55.8905C245.231 54.0122 240.526 50.2555 237.704 46.0293C236.292 43.6814 234.881 40.8639 233.94 38.0465C233.94 37.1073 233.47 36.1681 233.47 35.229C232.999 28.6548 234.881 21.1416 239.585 15.037ZM226.883 42.7423C227.824 45.0902 228.765 47.4381 230.177 49.786C223.59 47.4381 217.004 45.5597 209.948 44.151C212.3 42.7423 214.182 41.3335 216.534 39.4552C220.297 40.8639 223.59 41.8031 226.883 42.7423ZM226.413 24.8982C225.943 27.7157 225.472 30.5332 225.472 33.8202C224.531 33.3507 223.59 33.3507 222.65 32.8811C224.061 30.0636 225.472 27.7157 226.413 24.8982ZM189.719 27.7157C191.13 23.4895 193.012 19.7328 196.305 16.9153C202.421 10.8108 210.888 7.99332 219.356 9.87164C220.768 17.3849 218.416 24.8982 213.711 31.0027C213.241 31.4723 212.77 32.4115 211.829 32.8811C209.948 34.7594 207.595 36.6377 204.773 37.5769C199.598 39.9248 193.953 40.8639 188.307 39.9248C188.307 38.516 188.307 37.5769 188.307 36.1681C188.307 33.3507 188.778 30.5332 189.719 27.7157ZM182.662 50.2555C250.876 50.2555 307.799 100.031 317.208 166.711H299.802L301.213 162.016L297.45 158.259L292.745 154.033C291.804 153.094 290.863 152.624 290.393 152.154C283.336 98.1527 237.704 57.7688 183.132 57.7688C128.091 57.7688 82.4581 98.1527 75.8719 152.154C74.931 152.624 73.9901 153.563 73.5197 154.033L68.8153 158.259L65.0517 162.016L66.4631 166.711H49.0567C57.0542 100.031 113.978 50.2555 182.662 50.2555ZM87.6329 134.78C90.4556 126.797 93.7486 118.814 98.4531 111.771L110.214 118.345C106.921 123.98 104.569 130.554 102.687 137.128L87.6329 134.78ZM91.8669 144.172C89.0442 144.641 86.692 145.58 84.3398 146.519C84.8103 145.111 84.8103 144.172 85.2807 142.763L91.8669 144.172ZM103.157 105.196C107.862 98.6223 113.978 92.9873 120.093 87.822L127.62 96.744C122.446 100.97 118.212 106.136 114.448 111.771L103.157 105.196ZM126.68 83.1262C133.266 78.8999 140.322 75.1433 147.379 72.3258L151.142 82.187C145.027 84.5349 139.381 87.822 133.736 91.5786L126.68 83.1262ZM182.662 84.5349C217.004 84.5349 245.701 107.075 254.64 139.006C249.465 129.145 240.526 121.162 229.236 117.875L223.59 115.997L218.416 114.118L214.652 118.345L210.418 123.04C205.243 128.675 201.95 135.25 200.068 142.763C194.423 141.354 188.307 140.885 182.192 140.885C176.076 140.885 170.431 141.354 164.315 142.763C162.433 135.719 159.14 128.675 153.965 123.04L149.731 118.345L145.968 114.118L140.793 115.997L135.147 117.875C123.857 121.632 114.918 129.145 109.744 139.006C119.152 107.075 148.32 84.5349 182.662 84.5349ZM155.376 69.9779C162.433 68.0996 170.431 66.6908 177.958 66.2213V76.0825C171.371 76.552 164.785 77.4912 158.67 79.3695L155.376 69.9779ZM186.426 76.552V66.6908C194.423 67.1604 201.95 68.0996 209.007 70.4475L205.714 79.8391C199.598 77.9608 193.012 76.552 186.426 76.552ZM213.711 82.187L217.475 72.3258C225.002 75.1433 232.058 78.4304 238.174 83.1262L231.117 91.5786C225.472 87.822 219.827 85.0045 213.711 82.187ZM250.876 111.771C247.112 106.136 242.408 101.44 237.704 96.744L245.231 87.822C251.346 92.9873 257.462 98.6223 262.167 105.196L250.876 111.771ZM266.871 112.24C271.575 119.284 274.868 126.797 277.691 135.25L262.637 138.067C260.755 131.493 258.403 125.388 255.11 119.284L266.871 112.24ZM279.573 142.763C280.043 144.172 280.043 145.111 280.514 146.519C278.162 145.58 275.339 144.641 272.987 144.172L279.573 142.763ZM68.3448 76.552C66.9335 73.7346 65.0517 70.9171 62.6995 68.5692C65.0517 70.9171 67.8744 72.3258 70.697 74.2041C69.7561 74.6737 69.2857 75.6129 68.3448 76.552ZM71.1675 85.4741C73.9901 82.6566 76.8128 79.3695 79.6354 76.552C81.5172 77.0216 83.8694 77.0216 85.7512 77.0216C86.2216 77.0216 86.692 77.0216 87.1625 77.0216C81.5172 81.7174 76.3423 87.3524 71.6379 92.9873C72.1084 90.6394 71.6379 87.822 71.1675 85.4741ZM145.497 9.87164C153.965 8.4629 162.433 11.2804 168.549 16.9153C171.842 20.2024 173.724 23.959 175.135 27.7157C176.076 30.5332 176.546 33.3507 176.076 36.1681C176.076 37.5769 176.076 38.9856 175.605 39.9248C169.96 40.8639 164.315 39.9248 159.14 37.5769C156.788 36.1681 154.436 34.7594 152.083 32.8811C151.613 32.4115 150.672 31.4723 150.202 31.0027C146.438 24.8982 144.556 16.9153 145.497 9.87164ZM142.204 32.8811C141.263 33.3507 140.322 33.3507 139.381 33.8202C139.381 31.0027 139.381 27.7157 138.441 24.8982C139.381 27.7157 140.793 30.0636 142.204 32.8811ZM137.97 42.7423C141.263 41.8031 145.027 40.8639 148.79 39.9248C150.672 41.8031 153.024 43.2118 155.376 44.6206C148.32 46.0293 141.734 47.9076 135.147 50.2555C136.088 47.4381 137.029 45.0902 137.97 42.7423ZM108.803 32.8811C111.155 24.4286 117.271 17.8545 125.268 15.037C129.973 20.672 132.325 28.6548 130.913 36.1681C130.913 37.1073 130.443 38.0465 130.443 38.9856C129.502 41.8031 128.561 44.6206 126.68 46.9685C123.386 51.6643 119.152 54.9513 113.978 56.8297C113.037 55.8905 112.566 54.9513 111.625 54.0122C110.214 51.6643 109.273 48.8468 108.332 46.4989C107.391 41.8031 107.391 37.1073 108.803 32.8811ZM85.2807 46.4989C89.5147 47.4381 93.2782 49.786 96.5713 53.073C98.4531 54.9513 100.335 57.2992 101.746 59.6471C102.217 60.5863 102.687 61.995 103.157 62.9342C98.9235 66.2213 94.2191 68.5692 88.5738 69.0387C85.2807 69.5083 82.4581 69.0387 79.165 68.0996C78.6945 68.0996 77.7536 67.63 77.2832 67.63C69.7561 64.8125 64.1109 59.1776 61.2882 51.6643C67.8744 46.4989 76.8128 44.151 85.2807 46.4989ZM46.2341 67.1604C53.7612 69.9779 59.4064 76.0825 62.2291 83.5957C62.2291 84.0653 62.6995 84.5349 62.6995 85.0045C63.6404 88.2915 63.6404 92.0482 63.17 95.3352C62.6995 100.031 60.3473 104.727 57.5247 108.483C56.5838 108.014 56.1134 108.014 55.1725 107.544C52.8203 106.136 50.4681 104.727 48.1159 102.849C44.8228 99.5615 42.4706 95.3352 41.0592 90.6394C38.707 82.187 40.5888 73.265 46.2341 67.1604ZM9.53968 130.554C12.3623 122.571 18.9485 116.466 27.4164 114.118C32.1209 112.71 37.2957 113.179 42.0001 114.588C44.8228 115.527 47.175 116.466 49.5272 118.345C49.9976 118.814 50.9385 119.284 51.4089 119.753C49.9976 123.98 47.6454 127.267 44.3523 130.084C41.5297 132.902 37.7662 134.78 33.5322 136.189C25.0642 138.067 16.1259 135.719 9.53968 130.554ZM46.2341 138.537C43.4114 147.459 41.0592 156.85 39.6479 166.711H34.9435C35.8844 158.259 37.7662 150.276 39.6479 142.293C42.0001 141.354 43.8819 139.945 46.2341 138.537ZM27.4164 465.834C18.9485 463.486 12.3623 457.382 9.53968 449.399C16.1259 443.764 24.5938 441.885 33.0617 444.233C37.2957 445.173 40.5888 447.52 43.8819 449.868C47.175 452.686 49.5272 456.442 50.9385 460.199C50.4681 460.669 49.5272 461.138 49.0567 461.608C46.7045 463.017 44.3523 464.425 41.5297 465.364C37.2957 466.773 32.1209 466.773 27.4164 465.834ZM34.4731 410.893L36.8253 413.241L40.1184 416.528C41.5297 424.981 43.4114 433.433 46.2341 441.416C44.3523 440.007 42.0001 438.598 40.1184 437.659C37.2957 428.737 35.4139 419.815 34.4731 410.893ZM46.2341 512.792C40.5888 506.218 38.707 497.296 41.0592 489.313C42.4706 484.617 44.8228 480.391 48.1159 477.104C49.9976 475.226 52.3498 473.347 55.1725 472.408C56.1134 471.939 56.5838 471.469 57.5247 471.469C60.8178 475.226 62.6995 479.921 63.17 484.617C63.6404 487.904 63.6404 491.661 62.6995 494.948C62.6995 495.418 62.2291 495.887 62.2291 496.357C59.4064 503.87 53.7612 509.975 46.2341 512.792ZM68.3448 503.4C69.2857 504.34 70.2266 505.279 70.697 506.218C67.8744 507.627 65.0517 509.505 62.6995 511.853C65.0517 509.035 66.9335 506.218 68.3448 503.4ZM101.276 519.836C99.8644 522.184 98.4531 524.532 96.1009 526.41C92.8078 529.227 89.0442 531.575 84.8103 532.984C76.3423 535.332 67.8744 532.984 61.2882 527.819C64.1109 520.305 69.7561 514.67 77.2832 511.853C77.7536 511.853 78.6945 511.383 79.165 511.383C82.4581 510.444 85.2807 510.444 88.5738 510.444C93.7486 510.914 98.9235 513.262 103.157 516.549C102.687 517.957 102.217 518.897 101.276 519.836ZM71.1675 494.478C71.6379 492.131 71.6379 489.313 71.6379 486.965C76.3423 492.6 81.5172 497.766 87.1625 502.931C84.8103 502.931 81.9876 502.931 79.6354 503.4C76.8128 500.113 73.9901 497.296 71.1675 494.478ZM125.268 564.446C117.271 561.628 111.155 555.054 108.803 546.602C107.862 542.376 107.862 537.68 108.803 533.923C109.273 531.106 110.685 528.758 112.096 526.41C112.566 525.471 113.507 524.532 114.448 523.592C119.623 525.471 124.327 529.227 127.15 533.454C128.561 535.801 129.973 538.619 130.913 541.436C130.913 542.376 131.384 543.315 131.384 544.254C131.854 550.828 129.973 558.811 125.268 564.446ZM137.97 537.21C137.029 534.862 136.088 532.514 134.677 530.167C141.263 532.514 147.849 534.393 154.906 535.801C152.554 537.21 150.672 538.619 148.32 540.497C145.027 539.089 141.263 538.149 137.97 537.21ZM138.441 555.054C138.911 552.237 139.381 549.419 139.381 546.132C140.322 546.602 141.263 546.602 142.204 547.071C140.793 549.419 139.381 552.237 138.441 555.054ZM175.135 551.767C173.724 555.993 171.842 559.75 168.549 562.568C162.433 568.672 153.965 571.49 145.497 569.611C144.086 562.098 145.968 554.585 151.142 548.48C151.613 548.011 152.083 547.071 153.024 546.602C154.906 544.723 157.258 542.845 160.081 541.906C165.256 539.558 170.901 538.619 176.546 539.558C176.546 540.967 177.017 542.376 177.017 543.315C176.546 546.602 176.076 549.419 175.135 551.767ZM182.192 529.697C113.978 529.697 57.0542 479.921 47.6454 413.711L48.1159 413.241L64.1109 397.275C65.5222 398.684 67.4039 399.623 69.2857 400.562C68.8153 401.971 67.8744 403.849 67.4039 405.258L65.5222 410.893L63.6404 416.059L67.4039 419.815L72.1084 424.041C73.0492 424.511 73.5197 425.45 74.4606 425.92C80.5763 480.861 126.68 521.714 182.192 521.714C237.704 521.714 283.807 480.391 289.923 425.92C290.863 425.45 291.334 424.511 292.275 424.041L296.979 419.815L300.743 416.059L298.861 410.893L296.979 405.258C296.509 403.849 296.038 401.971 295.097 400.562C296.979 399.623 298.391 398.215 300.272 397.275L316.267 413.241L316.738 413.711C307.329 479.921 250.406 529.697 182.192 529.697ZM277.221 444.703C274.398 452.686 271.105 460.669 266.401 467.712L255.11 461.138C258.403 455.503 260.755 448.929 262.637 442.355L277.221 444.703ZM268.282 434.842C272.516 434.372 276.75 432.963 280.514 431.555C280.043 433.433 280.043 435.311 279.573 437.19L268.282 434.842ZM237.233 482.739C242.408 478.513 246.642 473.347 250.406 467.712L261.696 474.286C256.992 480.861 250.876 486.496 244.76 491.661L237.233 482.739ZM238.174 496.826C231.588 501.053 224.531 504.809 217.475 507.627L213.711 497.766C219.827 495.418 225.472 492.131 231.117 488.374L238.174 496.826ZM182.192 495.418C146.909 495.418 116.8 470.999 109.273 437.659C114.448 448.46 123.857 456.912 135.618 460.669L141.263 462.547L146.438 464.425L150.202 460.669L154.436 455.973C159.61 450.338 162.904 443.764 164.785 436.25C170.431 437.659 176.546 438.129 182.662 438.129C188.778 438.129 194.423 437.659 200.539 436.25C202.421 443.294 205.714 450.338 210.888 455.973L215.122 460.669L218.886 464.895L224.061 463.017L229.706 461.138C241.467 457.382 250.876 448.929 256.051 438.129C247.583 470.999 217.945 495.418 182.192 495.418ZM209.477 509.975C202.421 511.853 194.423 513.262 186.896 513.731V503.4C193.482 502.931 200.068 501.992 206.184 500.113L209.477 509.975ZM178.428 503.4V513.262C170.431 512.792 162.903 511.853 155.847 509.505L159.14 500.113C165.256 501.992 171.371 502.931 178.428 503.4ZM133.736 487.904C138.911 491.661 145.027 494.948 151.142 497.296L147.379 507.157C139.852 504.34 132.795 501.053 126.68 496.357L133.736 487.904ZM120.093 491.661C113.978 486.496 107.862 480.861 103.157 474.286L114.448 467.712C118.212 473.347 122.916 478.043 127.62 482.739L120.093 491.661ZM109.744 461.138L97.9826 467.712C93.2782 460.669 89.9851 453.155 87.1625 444.703L102.217 441.885C104.098 448.929 106.451 455.034 109.744 461.138ZM85.2807 436.72C84.8103 434.842 84.3398 432.963 84.3398 431.085C88.1034 432.963 92.3373 433.903 96.5713 434.372L85.2807 436.72ZM296.509 503.4C297.92 506.218 299.802 509.035 302.154 511.383C299.802 509.035 296.979 507.627 294.157 505.748C295.097 505.279 295.568 504.34 296.509 503.4ZM293.686 494.478C290.863 497.296 288.041 500.583 285.218 503.4C282.866 502.931 280.043 502.931 277.691 502.931C283.336 498.235 288.511 492.6 293.216 486.965C292.745 489.313 293.216 491.661 293.686 494.478ZM219.356 570.081C210.888 571.49 202.421 568.672 196.305 563.037C193.012 559.75 191.13 555.993 189.719 552.237C188.778 549.419 188.307 546.602 188.778 543.784C188.778 542.376 188.778 540.967 189.248 540.028C194.893 539.089 200.539 540.028 205.714 542.376C208.066 543.784 210.418 545.193 212.77 547.071C213.241 547.541 214.182 548.48 214.652 548.95C218.416 555.054 220.297 562.568 219.356 570.081ZM222.65 547.071C223.59 546.602 224.531 546.602 225.472 546.132C225.472 548.95 225.472 552.237 226.413 555.054C225.472 552.237 224.061 549.419 222.65 547.071ZM226.883 537.21C223.59 538.149 219.827 539.089 216.063 540.028C214.182 538.149 211.829 536.741 209.477 535.332C216.534 533.923 223.12 532.045 229.706 529.697C228.765 532.045 227.824 534.393 226.883 537.21ZM256.051 546.602C253.699 555.054 247.583 561.628 239.585 564.446C234.881 558.811 232.529 550.828 233.94 543.315C233.94 542.376 234.411 541.436 234.411 540.497C235.351 537.68 236.292 534.862 238.174 532.514C241.467 527.819 245.701 524.532 250.876 522.653C251.817 523.592 252.287 524.532 253.228 525.471C254.64 527.819 255.58 530.636 256.521 532.984C257.462 538.149 257.462 542.376 256.051 546.602ZM279.573 532.984C275.339 532.045 271.575 529.697 268.282 526.41C266.401 524.532 264.519 522.184 263.107 519.836C262.637 518.897 262.167 517.488 261.696 516.549C265.93 513.262 270.635 510.914 276.28 510.444C279.573 509.975 282.396 510.444 285.689 511.383C286.159 511.383 287.1 511.853 287.57 511.853C295.097 514.67 300.743 520.305 303.565 527.819C296.979 533.454 288.041 535.332 279.573 532.984ZM318.62 512.792C311.092 509.975 305.447 503.87 302.625 496.357C302.625 495.887 302.154 495.418 302.154 494.948C301.213 491.661 301.213 487.904 301.684 484.617C302.154 479.921 304.506 475.226 307.329 471.469C308.27 471.939 308.74 471.939 309.681 472.408C312.033 473.817 314.386 475.226 316.738 477.104C320.031 480.391 322.854 484.617 323.794 489.313C326.147 497.296 324.265 506.218 318.62 512.792ZM355.314 449.399C352.491 457.382 345.905 463.486 337.437 465.834C332.733 467.243 327.558 466.773 322.853 465.364C320.031 464.425 317.679 463.486 315.326 461.608C314.856 461.138 313.915 460.669 313.445 460.199C314.856 455.973 317.208 452.686 320.501 449.868C323.324 447.051 327.087 445.173 331.321 443.764C339.789 441.885 348.728 443.764 355.314 449.399ZM318.62 440.946C321.442 432.963 323.324 424.511 324.735 416.059L328.028 412.771L330.381 410.424C329.44 419.815 327.558 428.737 325.206 437.19C322.853 438.598 320.501 439.538 318.62 440.946ZM349.198 175.164V379.901L321.913 407.137L300.743 386.005C296.038 391.171 289.923 394.927 283.336 397.275C285.689 400.562 287.57 404.319 288.982 408.076L290.863 413.711L286.159 417.937C279.573 424.041 270.635 427.328 262.167 427.328C259.344 427.328 256.051 426.859 253.228 425.92C252.287 425.45 251.346 425.45 250.406 424.981C250.406 425.92 249.935 426.859 249.935 427.798C246.642 439.538 238.174 448.929 226.413 452.686L220.768 454.564L216.534 449.868C210.418 442.825 207.125 434.372 207.125 425.45C199.127 428.268 190.66 429.676 182.192 429.676C173.724 429.676 165.256 428.268 157.258 425.45C157.258 434.372 153.965 443.294 147.849 449.868L143.615 454.564L137.97 452.686C126.209 448.929 117.741 439.538 114.448 427.798C113.978 426.859 113.978 425.92 113.978 424.981C113.037 425.45 112.096 425.45 111.155 425.92C108.332 426.859 105.039 427.328 102.217 427.328C93.2782 427.328 84.8103 424.041 78.2241 417.937L73.5197 413.711L75.4014 408.076C76.8128 404.319 78.6945 400.562 81.0467 397.275C74.4606 394.927 68.8153 391.171 63.6404 386.005L42.4706 407.137L15.185 379.901V175.164H69.2857V187.373C72.5788 184.555 76.8128 182.677 80.5763 181.268C78.2241 177.981 76.3423 174.225 74.931 170.468L73.0492 164.833L77.7536 160.607C84.3398 154.502 92.8078 151.215 101.746 151.215C105.039 151.215 107.862 151.685 111.155 152.624C112.096 153.094 113.037 153.094 113.978 153.563C113.978 152.624 114.448 151.685 114.448 150.746C117.741 139.006 126.209 129.615 137.97 125.858L143.615 123.98L147.849 128.675C153.965 135.719 157.258 144.172 157.258 153.094C165.256 150.276 173.724 148.867 182.192 148.867C190.66 148.867 199.127 150.276 207.125 153.094C207.125 144.172 210.418 135.25 216.534 128.675L220.768 123.98L226.413 125.858C238.174 129.615 246.642 139.006 249.935 150.746C250.406 151.685 250.406 152.624 250.406 153.563C251.346 153.094 252.287 153.094 253.228 152.624C256.521 151.685 259.344 151.215 262.637 151.215C271.575 151.215 280.043 154.502 286.63 160.607L291.334 164.833L289.452 170.468C288.041 174.225 286.159 177.981 283.807 181.268C288.041 182.677 291.804 185.025 295.097 187.373V175.164H349.198ZM318.62 138.537C320.501 139.945 322.853 141.354 324.735 142.293C327.087 150.276 328.499 158.259 329.91 166.711H325.206C324.265 156.85 321.913 147.459 318.62 138.537ZM331.792 135.719C327.558 134.78 323.794 132.432 320.972 129.615C317.679 126.797 315.326 123.04 313.915 119.284C314.386 118.814 315.326 118.345 315.797 117.875C318.149 116.466 320.501 115.058 323.324 114.118C328.028 112.71 332.733 112.71 337.437 113.649C345.905 115.997 352.491 122.101 355.314 130.084C348.728 135.719 340.26 138.067 331.792 135.719Z" fill="#072119"/>
<path d="M228.767 460.196L223.122 462.075L217.947 463.953L214.184 459.727L209.95 455.031C204.775 449.396 201.482 442.822 199.6 435.309C194.425 437.187 188.309 437.656 182.194 437.656C176.078 437.656 170.432 437.187 164.317 435.778C162.435 442.822 159.142 449.866 153.967 455.501L149.733 460.196L145.97 463.953L140.795 462.075L135.149 460.196C123.388 456.44 113.98 447.987 108.805 437.187C116.332 470.997 145.97 494.945 181.723 494.945C217.006 494.945 246.644 470.527 254.641 437.187C249.937 448.457 240.528 456.44 228.767 460.196Z" fill="#F9F9F4"/>
<path d="M182.661 84.5322C148.319 84.5322 119.622 107.072 110.684 139.004C115.858 129.142 124.797 121.629 136.087 117.872L141.733 115.994L146.908 114.116L150.671 118.342L154.905 123.038C160.08 128.673 163.373 135.247 165.255 142.76C170.9 141.351 177.016 140.882 183.132 140.882C189.247 140.882 194.893 141.351 201.008 142.76C202.89 135.716 206.183 128.673 211.358 123.038L215.592 118.342L219.356 114.585L224.53 116.464L230.176 118.342C241.466 122.099 250.405 129.612 255.58 139.473C245.7 107.542 216.533 84.5322 182.661 84.5322Z" fill="#F9F9F4"/>
</g>
<defs>
<clipPath id="clip0_2522_4672">
<rect width="364.592" height="578.053" fill="white" transform="translate(0.128906 0.946777)"/>
</clipPath>
</defs>
</svg>
