<svg width="135" height="135" viewBox="0 0 135 135" fill="none" xmlns="http://www.w3.org/2000/svg">
<g clip-path="url(#clip0)">
<path d="M98.0534 48.7064L112.842 89.759L116.186 93.1026C117.479 94.3956 117.344 96.6583 115.849 98.1534L111.249 102.753C109.775 104.228 107.529 104.379 106.219 103.069L103.582 100.433L61.0212 85.7521L35.7203 43.8307L51.317 28.234L98.0534 48.7064Z" fill="#E08433"/>
<path d="M89.0496 51.1106L106.508 99.6484L110.475 103.615C112.004 105.144 111.825 107.8 110.078 109.548L104.633 114.993C102.885 116.74 100.232 116.915 98.7033 115.387L95.5853 112.269L45.2561 94.9041L15.3522 45.3426L39.8181 20.8767L89.0496 51.1106Z" fill="#015123"/>
<path d="M64.8296 69.2698C64.3831 69.7163 64.1322 70.3219 64.1322 70.9534C64.1322 71.5848 64.3831 72.1904 64.8296 72.637L101.956 109.763C102.403 110.21 103.008 110.461 103.64 110.461C104.271 110.461 104.877 110.21 105.323 109.763C105.77 109.317 106.021 108.711 106.021 108.08C106.021 107.448 105.77 106.843 105.323 106.396L68.1968 69.2698C67.7502 68.8233 67.1446 68.5724 66.5132 68.5724C65.8817 68.5724 65.2761 68.8233 64.8296 69.2698Z" fill="white"/>
<path d="M65.1862 66.8818C67.4368 66.1319 69.8691 67.3483 70.6191 69.5989C71.3691 71.8494 70.1526 74.2818 67.9021 75.0317C65.6516 75.7817 63.2192 74.5652 62.4692 72.3147C61.7193 70.0642 62.9357 67.6318 65.1862 66.8818Z" fill="white"/>
<path d="M63.072 74.3947C63.7528 75.0767 64.6206 75.5416 65.5656 75.7304C66.5106 75.9192 67.4903 75.8235 68.3809 75.4554C69.2715 75.0873 70.0329 74.4632 70.5688 73.6623C71.1047 72.8614 71.391 71.9195 71.3914 70.9558C71.3919 69.9921 71.1066 69.0499 70.5715 68.2485C70.0364 67.447 69.2756 66.8222 68.3853 66.4532C67.4951 66.0842 66.5154 65.9876 65.5702 66.1755C64.625 66.3634 63.7568 66.8274 63.0754 67.5088C62.1624 68.4218 61.6492 69.6599 61.6486 70.951C61.648 72.2422 62.1599 73.4808 63.072 74.3947ZM69.1329 68.3337C69.6553 68.8548 70.0114 69.5192 70.156 70.2427C70.3007 70.9662 70.2274 71.7164 69.9455 72.3983C69.6635 73.0801 69.1856 73.663 68.5723 74.0731C67.9589 74.4832 67.2377 74.7022 66.4998 74.7022C65.762 74.7022 65.0407 74.4833 64.4273 74.0731C63.814 73.663 63.3361 73.0801 63.0541 72.3983C62.7722 71.7164 62.6989 70.9662 62.8436 70.2427C62.9882 69.5192 63.3443 68.8548 63.8667 68.3337C64.2113 67.982 64.6222 67.702 65.0757 67.5099C65.5292 67.3178 66.0162 67.2175 66.5086 67.2146C67.0011 67.2118 67.4892 67.3066 67.9449 67.4935C68.4005 67.6804 68.8146 67.9556 69.1632 68.3034L69.1329 68.3337Z" fill="white"/>
<path d="M49.6332 36.652L30.1036 56.1816C25.0826 61.2026 16.9419 61.2026 11.9208 56.1816C6.89981 51.1605 6.89981 43.0199 11.9208 37.9988L31.4504 18.4692C36.4715 13.4482 44.6122 13.4482 49.6332 18.4692C54.6542 23.4902 54.6542 31.6309 49.6332 36.652Z" fill="#E08433"/>
</g>
<defs>
<clipPath id="clip0">
<rect width="70" height="120" fill="white" transform="matrix(0.707107 -0.707107 -0.707107 -0.707107 84.9888 134.637)"/>
</clipPath>
</defs>
</svg>
