<svg xmlns="http://www.w3.org/2000/svg" width="115.883" height="77.151" viewBox="0 0 115.883 77.151"><defs><style>.a{fill:#f15b41;}.b,.c{fill:#256da1;font-family:Arial-BoldMT, Arial;font-weight:700;}.b{font-size:28px;}.c{font-size:27px;}</style></defs><g transform="translate(-1145.238 -940.689)"><path class="a" d="M179.711,96.638h-39.7C138.993,57.715,174.6,57.1,174.6,57.1c36.012,3.483,34.58,34.622,34.58,34.622l-27.152.082-2.517-5,6.138-.2L171.936,73.694l-.2,19.052,4.706-4.3Z" transform="translate(1033.888 890.964)"/><g transform="translate(1145.238 987.839)"><text class="b" transform="translate(0 24)"><tspan x="0" y="0">C</tspan></text><text class="c" transform="translate(20.883 24)"><tspan x="0" y="0">OFRSH</tspan></text></g><path class="a" d="M386.828,248.534H350.714L350.1,247.1h36.728Z" transform="translate(866.773 739.888)"/><path class="a" d="M177.216,94.675H136.6V88.939a35.3,35.3,0,1,1,70.592,0v.717H178.648V88.222h27.111a33.867,33.867,0,0,0-67.727.717v4.3h39.184Z" transform="translate(1036.588 893.747)"/><path class="a" d="M288.06,29.09a7.98,7.98,0,1,0-15.96,0" transform="translate(928.814 919.589)"/><path class="a" d="M308.708,145.016,292.4,130v22.166l4.931-4.732,3.458,7.621-.061.348h1.841l-4.706-10.448-2.5,2.438-1.555,1.475V133.2l11.52,10.612-5.545.348,2.824,6.207a2.127,2.127,0,0,1,1.248-.656l-1.964-4.261Z" transform="translate(912.667 832.998)"/></g></svg>