<svg xmlns="http://www.w3.org/2000/svg" width="76.288" height="49.967" viewBox="0 0 76.288 49.967"><defs><style>.a,.b{fill:#7c878e;}.b{font-size:18px;font-family:Arial-BoldMT, Arial;font-weight:700;}</style></defs><path class="a" d="M165.267,82.229H140.008c-.651-24.738,22-25.129,22-25.129,22.916,2.213,22,22,22,22l-17.278.052-1.6-3.177,3.906-.13-8.724-8.2-.13,12.109,2.995-2.734Z" transform="translate(-121.767 -52.413)"/><g transform="translate(0 29.967)"><text class="b" transform="translate(0 16)"><tspan x="0" y="0">C</tspan></text><text class="b" transform="translate(13.288 16)"><tspan x="0" y="0">OFRSH</tspan></text></g><path class="a" d="M373.471,248.011H350.491l-.391-.911h23.371Z" transform="translate(-304.516 -217.674)"/><path class="a" d="M162.445,79.706H136.6V76.06a22.46,22.46,0,0,1,44.92,0v.456H163.357V75.6h17.252a21.551,21.551,0,0,0-43.1.456v2.734h24.934Z" transform="translate(-118.814 -49.368)"/><path class="a" d="M282.256,26.178a5.078,5.078,0,1,0-10.156,0" transform="translate(-236.672 -21.1)"/><path class="a" d="M302.777,139.544,292.4,130v14.088l3.138-3.008,2.2,4.844-.039.221h1.172l-2.995-6.64-1.588,1.549-.99.937v-9.961l7.33,6.745L297.1,139l1.8,3.945a1.354,1.354,0,0,1,.794-.417l-1.25-2.708Z" transform="translate(-254.329 -115.821)"/></svg>