<svg width="432" height="406" viewBox="0 0 432 406" fill="none" xmlns="http://www.w3.org/2000/svg">
<rect x="26" width="406" height="406" rx="203" fill="#F2F2F2"/>
<path d="M121.934 264.061L67.8142 224.066C66.5235 223.112 64.9611 222.597 63.3563 222.597C61.7515 222.597 60.189 223.112 58.8984 224.066L4.78156 264.067C3.44455 265.054 2.35808 266.342 1.60972 267.827C0.861357 269.312 0.472041 270.952 0.473147 272.614H121.103H0.473147L43.2743 308.269L58.8263 296.473C60.1315 295.481 61.7254 294.944 63.3643 294.944C65.0032 294.944 66.597 295.481 67.9023 296.473L83.4515 308.269L126.25 272.609C126.249 270.946 125.858 269.306 125.109 267.821C124.359 266.336 123.271 265.049 121.934 264.061Z" fill="url(#paint0_linear_1113_2799)"/>
<path d="M113.295 236.113H14.6553V321.777H113.295V236.113Z" fill="url(#paint1_linear_1113_2799)"/>
<path d="M76.5694 257.033C78.3434 249.546 73.7163 242.038 66.2343 240.263C58.7523 238.487 51.2488 243.118 49.4747 250.605C47.7006 258.091 52.3278 265.6 59.8098 267.375C67.2918 269.15 74.7953 264.52 76.5694 257.033Z" fill="#FF8136"/>
<path d="M68.0168 262.662C66.4366 263.495 64.8296 263.81 62.9076 263.81C58.1988 263.81 54.208 260.364 54.208 254.849C54.208 248.932 58.3136 243.819 64.6854 243.819C69.6799 243.819 73.038 247.324 73.038 252.119C73.038 256.427 70.6355 258.957 67.9287 258.957C66.7809 258.957 65.7185 258.179 65.7932 256.427H65.6784C64.6747 258.123 63.3561 258.957 61.6316 258.957C59.9686 258.957 58.5324 257.605 58.5324 255.337C58.5289 254.442 58.7024 253.556 59.0429 252.728C59.3835 251.901 59.8843 251.149 60.5166 250.516C61.1488 249.883 61.9 249.381 62.7268 249.04C63.5537 248.699 64.4398 248.525 65.3341 248.529C66.3891 248.513 67.4356 248.719 68.4066 249.132L67.4296 254.33C66.9998 256.515 67.3441 257.52 68.2918 257.549C69.7546 257.578 71.391 255.623 71.391 252.292C71.391 248.128 68.8951 245.139 64.4505 245.142C59.771 245.142 55.839 248.846 55.839 254.678C55.839 259.472 58.9676 262.424 63.2172 262.424C64.7232 262.46 66.2137 262.113 67.5497 261.417L68.0168 262.662ZM66.4365 250.254C65.9706 250.115 65.4865 250.047 65.0004 250.051C62.4751 250.051 60.4384 252.436 60.4384 255.222C60.4384 256.486 61.0684 257.405 62.331 257.405C63.9967 257.405 65.5183 255.268 65.8333 253.5L66.4365 250.254Z" fill="url(#paint2_linear_1113_2799)"/>
<path opacity="0.39" d="M65.5904 272.606H25.5174C24.6048 272.606 23.865 273.347 23.865 274.26V277.292C23.865 278.205 24.6048 278.945 25.5174 278.945H65.5904C66.503 278.945 67.2428 278.205 67.2428 277.292V274.26C67.2428 273.347 66.503 272.606 65.5904 272.606Z" fill="url(#paint3_linear_1113_2799)"/>
<path opacity="0.39" d="M102.594 281.547H23.865V284.717H102.594V281.547Z" fill="url(#paint4_linear_1113_2799)"/>
<path opacity="0.39" d="M102.594 287.316H23.865V290.487H102.594V287.316Z" fill="url(#paint5_linear_1113_2799)"/>
<path opacity="0.39" d="M102.594 293.086H23.865V296.257H102.594V293.086Z" fill="url(#paint6_linear_1113_2799)"/>
<path opacity="0.39" d="M102.594 298.856H23.865V302.026H102.594V298.856Z" fill="url(#paint7_linear_1113_2799)"/>
<path opacity="0.39" d="M102.594 304.626H23.865V307.796H102.594V304.626Z" fill="url(#paint8_linear_1113_2799)"/>
<path d="M126.245 340.732V346.979H0.47583V340.742L43.2744 308.269L58.8263 296.473C60.1315 295.481 61.7254 294.944 63.3643 294.944C65.0032 294.944 66.5971 295.481 67.9023 296.473L83.4516 308.269L126.245 340.732Z" fill="#FFBD60"/>
<path d="M43.2743 308.269L0.475812 340.734L0.473145 272.612L43.2743 308.269Z" fill="url(#paint9_linear_1113_2799)"/>
<path d="M126.242 272.606L126.245 340.732L83.4434 308.266L126.242 272.606Z" fill="url(#paint10_linear_1113_2799)"/>
<path d="M352.573 312.751H142.798C144.666 290.364 151.166 266.863 158.307 246.261C167.698 219.047 192.643 199.863 219.933 199.863H275.438C302.727 199.863 327.672 219.047 337.063 246.261C344.204 266.863 350.693 290.364 352.573 312.751Z" fill="url(#paint11_linear_1113_2799)"/>
<path d="M352.597 337.23C352.039 342.796 347.258 346.971 341.676 346.971H153.694C148.107 346.971 143.331 342.796 142.774 337.23C141.986 329.363 142.055 321.152 142.798 312.751H352.573C353.315 321.152 353.384 329.363 352.597 337.23Z" fill="url(#paint12_linear_1113_2799)"/>
<path d="M292.748 319.611H202.619V340.112H292.748V319.611Z" fill="url(#paint13_linear_1113_2799)"/>
<path d="M258.711 221.09V229.558C258.708 229.787 258.67 230.014 258.596 230.231C258.457 230.592 258.212 230.902 257.893 231.121C257.574 231.341 257.197 231.459 256.81 231.46H238.586C238.2 231.459 237.823 231.341 237.504 231.121C237.185 230.902 236.94 230.592 236.801 230.231C236.727 230.014 236.688 229.787 236.686 229.558V221.09C236.688 220.586 236.889 220.104 237.245 219.747C237.601 219.39 238.083 219.189 238.586 219.186H256.81C257.314 219.189 257.796 219.39 258.152 219.747C258.508 220.104 258.709 220.586 258.711 221.09Z" fill="url(#paint14_linear_1113_2799)"/>
<path d="M258.583 230.231C258.583 230.231 258.465 232.598 256.96 234.361H238.424C236.918 232.598 236.801 230.231 236.801 230.231C236.94 230.592 237.185 230.902 237.504 231.121C237.822 231.341 238.2 231.459 238.586 231.46H256.81C257.195 231.456 257.569 231.337 257.885 231.118C258.201 230.899 258.444 230.59 258.583 230.231Z" fill="url(#paint15_linear_1113_2799)"/>
<path d="M226.433 221.09V229.558C226.43 229.787 226.391 230.015 226.315 230.231C226.177 230.592 225.932 230.903 225.614 231.122C225.295 231.341 224.918 231.459 224.532 231.46H206.308C205.921 231.459 205.544 231.341 205.225 231.122C204.906 230.903 204.661 230.592 204.522 230.231C204.449 230.014 204.41 229.787 204.407 229.558V221.09C204.409 220.586 204.61 220.104 204.966 219.747C205.322 219.39 205.804 219.189 206.308 219.186H224.543C225.044 219.192 225.524 219.394 225.877 219.751C226.231 220.107 226.43 220.588 226.433 221.09Z" fill="url(#paint16_linear_1113_2799)"/>
<path d="M226.315 230.231C226.315 230.231 226.2 232.598 224.695 234.361H206.145C204.64 232.598 204.522 230.231 204.522 230.231C204.662 230.592 204.907 230.903 205.225 231.122C205.544 231.341 205.921 231.459 206.308 231.46H224.543C224.927 231.457 225.302 231.338 225.618 231.119C225.935 230.9 226.177 230.59 226.315 230.231Z" fill="url(#paint17_linear_1113_2799)"/>
<path d="M226.433 241.298V249.765C226.43 249.995 226.391 250.222 226.315 250.438C226.177 250.799 225.932 251.11 225.614 251.329C225.295 251.549 224.918 251.666 224.532 251.667H206.308C205.921 251.666 205.544 251.548 205.225 251.329C204.906 251.11 204.661 250.799 204.522 250.438C204.449 250.222 204.41 249.994 204.407 249.765V241.298C204.409 240.794 204.61 240.311 204.966 239.954C205.322 239.598 205.804 239.396 206.308 239.393H224.543C225.044 239.399 225.524 239.602 225.877 239.958C226.231 240.314 226.43 240.796 226.433 241.298Z" fill="url(#paint18_linear_1113_2799)"/>
<path d="M226.315 250.438C226.315 250.438 226.2 252.805 224.695 254.568H206.145C204.64 252.805 204.522 250.438 204.522 250.438C204.662 250.799 204.907 251.11 205.225 251.329C205.544 251.548 205.921 251.666 206.308 251.667H224.543C224.927 251.664 225.302 251.545 225.618 251.326C225.935 251.107 226.177 250.798 226.315 250.438Z" fill="url(#paint19_linear_1113_2799)"/>
<path d="M226.433 261.502V269.97C226.43 270.199 226.391 270.427 226.315 270.643C226.177 271.004 225.932 271.315 225.614 271.534C225.295 271.753 224.918 271.871 224.532 271.872H206.308C205.921 271.871 205.544 271.753 205.225 271.534C204.906 271.315 204.661 271.004 204.522 270.643C204.449 270.426 204.41 270.199 204.407 269.97V261.502C204.409 260.998 204.61 260.516 204.966 260.159C205.322 259.802 205.804 259.601 206.308 259.598H224.543C225.044 259.603 225.524 259.806 225.877 260.163C226.231 260.519 226.43 261 226.433 261.502Z" fill="url(#paint20_linear_1113_2799)"/>
<path d="M226.315 270.646C226.315 270.646 226.2 273.01 224.695 274.775H206.145C204.64 273.01 204.522 270.646 204.522 270.646C204.662 271.007 204.907 271.317 205.225 271.536C205.544 271.756 205.921 271.874 206.308 271.874H224.543C224.927 271.872 225.302 271.753 225.618 271.534C225.935 271.314 226.177 271.005 226.315 270.646Z" fill="url(#paint21_linear_1113_2799)"/>
<path d="M292.751 221.09V229.558C292.748 229.787 292.708 230.014 292.634 230.231C292.494 230.592 292.249 230.903 291.931 231.122C291.612 231.341 291.235 231.459 290.848 231.46H272.627C272.24 231.459 271.863 231.341 271.544 231.122C271.225 230.903 270.98 230.592 270.841 230.231C270.767 230.014 270.729 229.787 270.726 229.558V221.09C270.728 220.586 270.929 220.104 271.285 219.747C271.641 219.39 272.123 219.189 272.627 219.186H290.848C291.352 219.189 291.834 219.39 292.191 219.747C292.547 220.103 292.748 220.586 292.751 221.09Z" fill="url(#paint22_linear_1113_2799)"/>
<path d="M292.634 230.231C292.634 230.231 292.519 232.598 291.011 234.361H272.464C270.958 232.598 270.841 230.231 270.841 230.231C270.98 230.592 271.225 230.903 271.544 231.122C271.862 231.341 272.24 231.459 272.626 231.46H290.848C291.235 231.459 291.612 231.341 291.931 231.122C292.249 230.903 292.494 230.592 292.634 230.231Z" fill="url(#paint23_linear_1113_2799)"/>
<path d="M292.751 241.298V249.765C292.748 249.994 292.708 250.222 292.634 250.438C292.494 250.799 292.249 251.11 291.931 251.329C291.612 251.548 291.235 251.666 290.848 251.667H272.627C272.24 251.666 271.863 251.548 271.544 251.329C271.225 251.11 270.98 250.799 270.841 250.438C270.767 250.222 270.729 249.994 270.726 249.765V241.298C270.728 240.794 270.929 240.311 271.285 239.954C271.641 239.598 272.123 239.396 272.627 239.393H290.848C291.352 239.396 291.834 239.598 292.191 239.954C292.547 240.311 292.748 240.793 292.751 241.298Z" fill="url(#paint24_linear_1113_2799)"/>
<path d="M292.634 250.438C292.634 250.438 292.519 252.805 291.011 254.568H272.464C270.958 252.805 270.841 250.438 270.841 250.438C270.98 250.799 271.225 251.11 271.544 251.329C271.862 251.548 272.24 251.666 272.626 251.667H290.848C291.235 251.666 291.612 251.548 291.931 251.329C292.249 251.11 292.494 250.799 292.634 250.438Z" fill="url(#paint25_linear_1113_2799)"/>
<path d="M292.751 261.502V269.97C292.748 270.199 292.708 270.426 292.634 270.643C292.494 271.004 292.249 271.315 291.931 271.534C291.612 271.753 291.235 271.871 290.848 271.872H272.627C272.24 271.871 271.863 271.753 271.544 271.534C271.225 271.315 270.98 271.004 270.841 270.643C270.767 270.426 270.729 270.199 270.726 269.97V261.502C270.728 260.998 270.929 260.516 271.285 260.159C271.641 259.802 272.123 259.601 272.627 259.598H290.848C291.352 259.601 291.834 259.802 292.191 260.159C292.547 260.515 292.748 260.998 292.751 261.502Z" fill="url(#paint26_linear_1113_2799)"/>
<path d="M292.634 270.646C292.634 270.646 292.519 273.01 291.011 274.775H272.464C270.958 273.01 270.841 270.646 270.841 270.646C270.98 271.007 271.225 271.317 271.544 271.536C271.862 271.756 272.24 271.874 272.626 271.874H290.848C291.235 271.874 291.612 271.756 291.931 271.536C292.249 271.317 292.494 271.007 292.634 270.646Z" fill="url(#paint27_linear_1113_2799)"/>
<path d="M258.711 241.298V249.765C258.708 249.994 258.67 250.222 258.596 250.438C258.457 250.799 258.212 251.109 257.893 251.329C257.574 251.548 257.197 251.666 256.81 251.667H238.586C238.2 251.666 237.823 251.548 237.504 251.329C237.185 251.109 236.94 250.799 236.801 250.438C236.727 250.222 236.688 249.994 236.686 249.765V241.298C236.688 240.794 236.889 240.311 237.245 239.954C237.601 239.598 238.083 239.396 238.586 239.393H256.81C257.314 239.396 257.796 239.598 258.152 239.954C258.508 240.311 258.709 240.794 258.711 241.298Z" fill="url(#paint28_linear_1113_2799)"/>
<path d="M258.583 250.438C258.583 250.438 258.465 252.805 256.96 254.568H238.424C236.918 252.805 236.801 250.438 236.801 250.438C236.94 250.799 237.185 251.109 237.504 251.329C237.822 251.548 238.2 251.666 238.586 251.667H256.81C257.195 251.663 257.569 251.544 257.885 251.325C258.201 251.106 258.444 250.797 258.583 250.438Z" fill="url(#paint29_linear_1113_2799)"/>
<path d="M258.711 261.502V269.97C258.708 270.199 258.67 270.426 258.596 270.643C258.457 271.004 258.212 271.314 257.893 271.533C257.574 271.753 257.197 271.87 256.81 271.872H238.586C238.2 271.87 237.823 271.753 237.504 271.533C237.185 271.314 236.94 271.004 236.801 270.643C236.727 270.426 236.688 270.199 236.686 269.97V261.502C236.688 260.998 236.889 260.516 237.245 260.159C237.601 259.802 238.083 259.601 238.586 259.598H256.81C257.314 259.601 257.796 259.802 258.152 260.159C258.508 260.516 258.709 260.998 258.711 261.502Z" fill="url(#paint30_linear_1113_2799)"/>
<path d="M258.583 270.646C258.583 270.646 258.465 273.01 256.96 274.775H238.424C236.918 273.01 236.801 270.646 236.801 270.646C236.94 271.007 237.185 271.317 237.504 271.536C237.822 271.755 238.2 271.873 238.586 271.874H256.81C257.195 271.871 257.569 271.751 257.885 271.532C258.201 271.313 258.444 271.004 258.583 270.646Z" fill="url(#paint31_linear_1113_2799)"/>
<path d="M258.711 281.71V290.18C258.709 290.408 258.67 290.634 258.596 290.85C258.457 291.212 258.213 291.523 257.894 291.743C257.575 291.962 257.197 292.081 256.81 292.082H238.586C238.199 292.081 237.822 291.962 237.503 291.743C237.184 291.523 236.939 291.212 236.801 290.85C236.727 290.634 236.688 290.408 236.686 290.18V281.71C236.689 281.206 236.89 280.724 237.246 280.368C237.601 280.012 238.083 279.811 238.586 279.808H256.81C257.314 279.811 257.795 280.012 258.151 280.368C258.507 280.724 258.708 281.206 258.711 281.71Z" fill="url(#paint32_linear_1113_2799)"/>
<path d="M258.583 290.85C258.583 290.85 258.465 293.217 256.96 294.98H238.424C236.918 293.217 236.801 290.85 236.801 290.85C236.939 291.212 237.184 291.523 237.503 291.743C237.822 291.962 238.199 292.081 238.586 292.082H256.81C257.195 292.078 257.57 291.958 257.886 291.739C258.202 291.519 258.445 291.21 258.583 290.85Z" fill="url(#paint33_linear_1113_2799)"/>
<path d="M122.98 127.99C159.337 135.974 206.124 158.105 206.124 158.105L212.683 149.116C284.49 171.412 324.832 231.051 324.832 231.051L318.54 239.674C318.54 239.674 353.862 277.529 372.535 309.762C372.958 309.248 373.356 308.714 373.725 308.159L380.057 298.661C384.181 292.474 387.184 285.596 388.599 278.299C390.753 267.056 389.667 255.642 383.727 245.863C373.475 229.042 361.716 213.189 348.595 198.498C323.11 169.858 286.433 138.581 236.171 116.929C235.904 116.811 235.618 116.694 235.37 116.573C217.636 108.706 199.234 102.446 180.383 97.8672C177.447 97.1667 174.44 96.8028 171.422 96.7828C163.333 96.7186 155.376 99.1013 148.035 103.103C141.514 106.663 135.881 111.621 131.25 117.436L124.144 126.371C123.729 126.891 123.34 127.431 122.98 127.99Z" fill="url(#paint34_linear_1113_2799)"/>
<path d="M312.505 245.836C310.25 248.958 309.054 252.721 309.092 256.573C309.13 260.425 310.4 264.163 312.716 267.24C320.871 278.098 334.634 295.752 345.283 309.303C352.245 318.174 365.493 318.182 372.54 309.762C353.854 277.54 318.546 239.682 318.546 239.682C316.293 241.202 314.235 243.427 312.505 245.836Z" fill="white"/>
<path d="M122.98 127.99C117.107 137.264 121.143 149.893 131.709 153.823C147.856 159.846 168.845 167.582 181.664 172.048C185.298 173.321 189.244 173.394 192.922 172.257C196.6 171.12 199.818 168.833 202.101 165.731C203.868 163.345 205.366 160.725 206.121 158.105C206.124 158.105 159.337 135.974 122.98 127.99Z" fill="white"/>
<path d="M348.691 198.589L348.475 198.431L348.705 198.57L348.691 198.589Z" fill="url(#paint35_linear_1113_2799)"/>
<path d="M352.167 160.933L339.687 162.194L339.172 159.713C336.812 148.448 330.657 140.197 320.884 135.186C316.485 132.921 311.709 131.478 306.792 130.928L304.344 130.763L304.232 128.308L303.824 118.294L306.851 118.475C307.865 118.537 317.035 119.215 326.567 124.101C334.042 127.939 347.247 137.406 351.491 157.682L352.167 160.933Z" fill="url(#paint36_linear_1113_2799)"/>
<path d="M379.181 158.201L366.822 159.464L365.904 154.995C361.632 134.569 350.803 120.118 332.819 110.817C319.472 103.912 307.014 102.993 306.888 102.985L303.103 102.694L302.991 100.178L302.553 90.2198L307.091 90.3987C307.241 90.3987 322.253 91.4031 338.281 99.6196C347.623 104.401 355.581 110.708 361.963 118.358C369.932 127.907 375.388 139.521 378.188 152.88L379.181 158.201Z" fill="url(#paint37_linear_1113_2799)"/>
<path d="M410.4 155.041L398.169 156.28L397.731 154.178C391.02 122.145 373.066 97.8299 345.806 83.8517C325.168 73.2739 304.401 71.8929 304.192 71.8796L301.728 71.73L301.195 59.5629H304.054C304.27 59.5629 326.813 60.1318 351.47 72.7717C365.124 79.7702 376.776 88.9857 386.103 100.164C397.277 113.555 405.464 131.535 409.786 152.156L410.4 155.041Z" fill="url(#paint38_linear_1113_2799)"/>
<defs>
<linearGradient id="paint0_linear_1113_2799" x1="66.9439" y1="212.877" x2="59.679" y2="333.409" gradientUnits="userSpaceOnUse">
<stop stop-color="#FFD571"/>
<stop offset="0.25" stop-color="#FFBD60"/>
<stop offset="0.78" stop-color="#FF8035"/>
<stop offset="1" stop-color="#FF6421"/>
</linearGradient>
<linearGradient id="paint1_linear_1113_2799" x1="17.362" y1="324.547" x2="110.651" y2="233.407" gradientUnits="userSpaceOnUse">
<stop stop-color="white"/>
<stop offset="1" stop-color="white"/>
</linearGradient>
<linearGradient id="paint2_linear_1113_2799" x1="6750.45" y1="-14478.7" x2="7790.61" y2="-15494.8" gradientUnits="userSpaceOnUse">
<stop stop-color="#F7F7F7"/>
<stop offset="1" stop-color="white"/>
</linearGradient>
<linearGradient id="paint3_linear_1113_2799" x1="33.3707" y1="287.696" x2="57.7526" y2="263.874" gradientUnits="userSpaceOnUse">
<stop stop-color="#B7B4B1"/>
<stop offset="0.55" stop-color="#959390"/>
<stop offset="1" stop-color="#7D7B79"/>
</linearGradient>
<linearGradient id="paint4_linear_1113_2799" x1="25558" y1="3178.18" x2="25598.8" y2="2185.68" gradientUnits="userSpaceOnUse">
<stop stop-color="#B7B4B1"/>
<stop offset="0.55" stop-color="#959390"/>
<stop offset="1" stop-color="#7D7B79"/>
</linearGradient>
<linearGradient id="paint5_linear_1113_2799" x1="25558" y1="3252.45" x2="25598.8" y2="2259.94" gradientUnits="userSpaceOnUse">
<stop stop-color="#B7B4B1"/>
<stop offset="0.55" stop-color="#959390"/>
<stop offset="1" stop-color="#7D7B79"/>
</linearGradient>
<linearGradient id="paint6_linear_1113_2799" x1="25558" y1="3326.76" x2="25598.8" y2="2334.23" gradientUnits="userSpaceOnUse">
<stop stop-color="#B7B4B1"/>
<stop offset="0.55" stop-color="#959390"/>
<stop offset="1" stop-color="#7D7B79"/>
</linearGradient>
<linearGradient id="paint7_linear_1113_2799" x1="25558" y1="3400.98" x2="25598.8" y2="2408.46" gradientUnits="userSpaceOnUse">
<stop stop-color="#B7B4B1"/>
<stop offset="0.55" stop-color="#959390"/>
<stop offset="1" stop-color="#7D7B79"/>
</linearGradient>
<linearGradient id="paint8_linear_1113_2799" x1="25558" y1="3475.19" x2="25598.8" y2="2482.69" gradientUnits="userSpaceOnUse">
<stop stop-color="#B7B4B1"/>
<stop offset="0.55" stop-color="#959390"/>
<stop offset="1" stop-color="#7D7B79"/>
</linearGradient>
<linearGradient id="paint9_linear_1113_2799" x1="5941.71" y1="54332.6" x2="19203.9" y2="69494.8" gradientUnits="userSpaceOnUse">
<stop stop-color="#FF8035"/>
<stop offset="1" stop-color="#FF6421"/>
</linearGradient>
<linearGradient id="paint10_linear_1113_2799" x1="30593" y1="56390.7" x2="16123.1" y2="66298.4" gradientUnits="userSpaceOnUse">
<stop stop-color="#FF8035"/>
<stop offset="0.25" stop-color="#FFBD60"/>
<stop offset="0.78" stop-color="#FF8035"/>
<stop offset="1" stop-color="#FF6421"/>
</linearGradient>
<linearGradient id="paint11_linear_1113_2799" x1="167.111" y1="396.246" x2="321.8" y2="187.227" gradientUnits="userSpaceOnUse">
<stop stop-color="#17C295"/>
<stop offset="1" stop-color="#015B43"/>
</linearGradient>
<linearGradient id="paint12_linear_1113_2799" x1="142.213" y1="329.863" x2="353.16" y2="329.863" gradientUnits="userSpaceOnUse">
<stop stop-color="#F5F5F5"/>
<stop offset="0.41" stop-color="#DDDDDD"/>
<stop offset="1" stop-color="#B3B3B3"/>
</linearGradient>
<linearGradient id="paint13_linear_1113_2799" x1="83560.9" y1="21065.1" x2="113993" y2="21065.1" gradientUnits="userSpaceOnUse">
<stop stop-color="#F7F7F7"/>
<stop offset="1" stop-color="white"/>
</linearGradient>
<linearGradient id="paint14_linear_1113_2799" x1="236.672" y1="225.324" x2="258.698" y2="225.324" gradientUnits="userSpaceOnUse">
<stop stop-color="white"/>
<stop offset="0.37" stop-color="#F2F2FF"/>
<stop offset="1" stop-color="#D2D2FF"/>
</linearGradient>
<linearGradient id="paint15_linear_1113_2799" x1="236.787" y1="232.296" x2="258.583" y2="232.296" gradientUnits="userSpaceOnUse">
<stop stop-color="#808080"/>
<stop offset="0.64" stop-color="#52524D"/>
<stop offset="1" stop-color="#3C3C35"/>
</linearGradient>
<linearGradient id="paint16_linear_1113_2799" x1="20722.5" y1="7835.92" x2="22539.8" y2="7835.92" gradientUnits="userSpaceOnUse">
<stop stop-color="white"/>
<stop offset="0.37" stop-color="#F2F2FF"/>
<stop offset="1" stop-color="#D2D2FF"/>
</linearGradient>
<linearGradient id="paint17_linear_1113_2799" x1="20515.6" y1="2900.7" x2="22294.8" y2="2900.7" gradientUnits="userSpaceOnUse">
<stop stop-color="#808080"/>
<stop offset="0.64" stop-color="#52524D"/>
<stop offset="1" stop-color="#3C3C35"/>
</linearGradient>
<linearGradient id="paint18_linear_1113_2799" x1="20722.5" y1="8784.66" x2="22539.8" y2="8784.66" gradientUnits="userSpaceOnUse">
<stop stop-color="white"/>
<stop offset="0.37" stop-color="#F2F2FF"/>
<stop offset="1" stop-color="#D2D2FF"/>
</linearGradient>
<linearGradient id="paint19_linear_1113_2799" x1="20515.6" y1="3233.29" x2="22294.8" y2="3233.29" gradientUnits="userSpaceOnUse">
<stop stop-color="#808080"/>
<stop offset="0.64" stop-color="#52524D"/>
<stop offset="1" stop-color="#3C3C35"/>
</linearGradient>
<linearGradient id="paint20_linear_1113_2799" x1="20722.5" y1="9733.39" x2="22539.8" y2="9733.39" gradientUnits="userSpaceOnUse">
<stop stop-color="white"/>
<stop offset="0.37" stop-color="#F2F2FF"/>
<stop offset="1" stop-color="#D2D2FF"/>
</linearGradient>
<linearGradient id="paint21_linear_1113_2799" x1="20515.6" y1="3565.9" x2="22294.8" y2="3565.9" gradientUnits="userSpaceOnUse">
<stop stop-color="#808080"/>
<stop offset="0.64" stop-color="#52524D"/>
<stop offset="1" stop-color="#3C3C35"/>
</linearGradient>
<linearGradient id="paint22_linear_1113_2799" x1="26260.7" y1="7835.92" x2="28078" y2="7835.92" gradientUnits="userSpaceOnUse">
<stop stop-color="white"/>
<stop offset="0.37" stop-color="#F2F2FF"/>
<stop offset="1" stop-color="#D2D2FF"/>
</linearGradient>
<linearGradient id="paint23_linear_1113_2799" x1="25996.2" y1="2900.7" x2="27775.4" y2="2900.7" gradientUnits="userSpaceOnUse">
<stop stop-color="#808080"/>
<stop offset="0.64" stop-color="#52524D"/>
<stop offset="1" stop-color="#3C3C35"/>
</linearGradient>
<linearGradient id="paint24_linear_1113_2799" x1="26260.7" y1="8784.66" x2="28078" y2="8784.66" gradientUnits="userSpaceOnUse">
<stop stop-color="white"/>
<stop offset="0.37" stop-color="#F2F2FF"/>
<stop offset="1" stop-color="#D2D2FF"/>
</linearGradient>
<linearGradient id="paint25_linear_1113_2799" x1="25996.2" y1="3233.29" x2="27775.4" y2="3233.29" gradientUnits="userSpaceOnUse">
<stop stop-color="#808080"/>
<stop offset="0.64" stop-color="#52524D"/>
<stop offset="1" stop-color="#3C3C35"/>
</linearGradient>
<linearGradient id="paint26_linear_1113_2799" x1="26260.7" y1="9733.39" x2="28078" y2="9733.39" gradientUnits="userSpaceOnUse">
<stop stop-color="white"/>
<stop offset="0.37" stop-color="#F2F2FF"/>
<stop offset="1" stop-color="#D2D2FF"/>
</linearGradient>
<linearGradient id="paint27_linear_1113_2799" x1="25996.2" y1="3565.9" x2="27775.4" y2="3565.9" gradientUnits="userSpaceOnUse">
<stop stop-color="#808080"/>
<stop offset="0.64" stop-color="#52524D"/>
<stop offset="1" stop-color="#3C3C35"/>
</linearGradient>
<linearGradient id="paint28_linear_1113_2799" x1="23416.9" y1="8784.66" x2="25234.2" y2="8784.66" gradientUnits="userSpaceOnUse">
<stop stop-color="white"/>
<stop offset="0.37" stop-color="#F2F2FF"/>
<stop offset="1" stop-color="#D2D2FF"/>
</linearGradient>
<linearGradient id="paint29_linear_1113_2799" x1="23170.8" y1="3233.29" x2="24949.3" y2="3233.29" gradientUnits="userSpaceOnUse">
<stop stop-color="#808080"/>
<stop offset="0.64" stop-color="#52524D"/>
<stop offset="1" stop-color="#3C3C35"/>
</linearGradient>
<linearGradient id="paint30_linear_1113_2799" x1="23416.9" y1="9733.39" x2="25234.2" y2="9733.39" gradientUnits="userSpaceOnUse">
<stop stop-color="white"/>
<stop offset="0.37" stop-color="#F2F2FF"/>
<stop offset="1" stop-color="#D2D2FF"/>
</linearGradient>
<linearGradient id="paint31_linear_1113_2799" x1="23170.8" y1="3565.9" x2="24949.3" y2="3565.9" gradientUnits="userSpaceOnUse">
<stop stop-color="#808080"/>
<stop offset="0.64" stop-color="#52524D"/>
<stop offset="1" stop-color="#3C3C35"/>
</linearGradient>
<linearGradient id="paint32_linear_1113_2799" x1="23416.9" y1="10682" x2="25234.2" y2="10682" gradientUnits="userSpaceOnUse">
<stop stop-color="white"/>
<stop offset="0.37" stop-color="#F2F2FF"/>
<stop offset="1" stop-color="#D2D2FF"/>
</linearGradient>
<linearGradient id="paint33_linear_1113_2799" x1="23170.8" y1="3898.52" x2="24949.3" y2="3898.52" gradientUnits="userSpaceOnUse">
<stop stop-color="#808080"/>
<stop offset="0.64" stop-color="#52524D"/>
<stop offset="1" stop-color="#3C3C35"/>
</linearGradient>
<linearGradient id="paint34_linear_1113_2799" x1="562264" y1="218545" x2="174877" y2="-55854.1" gradientUnits="userSpaceOnUse">
<stop stop-color="#006F50"/>
<stop offset="1" stop-color="#015B43"/>
</linearGradient>
<linearGradient id="paint35_linear_1113_2799" x1="23.735" y1="15.9076" x2="23.5489" y2="15.7722" gradientUnits="userSpaceOnUse">
<stop stop-color="#F5F5F5"/>
<stop offset="0.41" stop-color="#DDDDDD"/>
<stop offset="1" stop-color="#B3B3B3"/>
</linearGradient>
<linearGradient id="paint36_linear_1113_2799" x1="327.995" y1="118.294" x2="327.995" y2="162.194" gradientUnits="userSpaceOnUse">
<stop stop-color="#E08433"/>
<stop offset="1" stop-color="#EE502F"/>
</linearGradient>
<linearGradient id="paint37_linear_1113_2799" x1="340.867" y1="90.2198" x2="340.867" y2="159.464" gradientUnits="userSpaceOnUse">
<stop stop-color="#E08433"/>
<stop offset="1" stop-color="#EE502F"/>
</linearGradient>
<linearGradient id="paint38_linear_1113_2799" x1="355.797" y1="59.5629" x2="355.797" y2="156.28" gradientUnits="userSpaceOnUse">
<stop stop-color="#E08433"/>
<stop offset="1" stop-color="#EE502F"/>
</linearGradient>
</defs>
</svg>
