<svg width="190" height="274" viewBox="0 0 190 274" fill="none" xmlns="http://www.w3.org/2000/svg">
<g clip-path="url(#clip0)">
<path d="M129.934 84.9242H61.0293L35.5439 87.8867C32.4146 87.8867 29.4136 86.6382 27.2009 84.416C24.9882 82.1937 23.7451 79.1796 23.7451 76.0368L15.8792 52.3371C15.8792 49.1943 17.1223 46.1802 19.335 43.958C21.5477 41.7357 24.5488 40.4872 27.678 40.4872L48.5029 40.8822L126.985 12.8375C130.114 12.8375 133.115 14.086 135.328 16.3083C137.54 18.5305 138.783 21.5446 138.783 24.6874L141.733 73.0744C141.733 76.2171 140.49 79.2312 138.277 81.4535C136.065 83.6758 133.063 84.9242 129.934 84.9242Z" fill="#015123"/>
<path d="M126.985 25.6746L109.286 82.8799L37.7364 151.382C33.2413 155.687 30.6323 161.609 30.483 167.846C30.3336 174.082 32.6561 180.123 36.94 184.641L135.834 216.26L150.582 228.11L189.449 95.2531C190.398 90.3713 190.107 85.3281 188.604 80.5889L173.197 36.537L126.985 25.6746Z" fill="#E08433"/>
<path d="M69.4636 70.1117L78.8043 84.9241L7.25438 153.436C2.75986 157.74 0.151126 163.66 0.00177758 169.895C-0.147571 176.13 2.1747 182.169 6.45797 186.685L34.5588 216.309H135.832L158.967 97.2875C159.914 92.4022 159.624 87.3562 158.122 82.6133L131.899 0L69.4636 70.1117Z" fill="#015123"/>
<path d="M129.934 91.8363C128.601 91.8366 127.296 91.4478 126.178 90.717C125.06 89.9863 124.178 88.9452 123.638 87.7202C123.099 86.4953 122.925 85.1393 123.139 83.8172C123.352 82.495 123.944 81.2636 124.841 80.2728L149.914 52.6231C150.514 51.9238 151.248 51.3524 152.072 50.9426C152.895 50.5328 153.793 50.293 154.711 50.2372C155.628 50.1815 156.548 50.3109 157.415 50.618C158.282 50.925 159.079 51.4034 159.759 52.0249C160.439 52.6465 160.988 53.3985 161.374 54.2366C161.759 55.0748 161.974 55.982 162.005 56.9049C162.036 57.8277 161.882 58.7474 161.553 59.6097C161.224 60.472 160.727 61.2593 160.09 61.9253L135.027 89.575C134.382 90.2874 133.596 90.8566 132.719 91.246C131.842 91.6355 130.893 91.8365 129.934 91.8363Z" fill="white"/>
<path d="M135.244 110.599C133.596 110.605 132.001 110.018 130.748 108.944C129.495 107.87 128.667 106.38 128.415 104.745C128.163 103.11 128.503 101.438 129.373 100.034C130.244 98.6289 131.587 97.5845 133.159 97.09L163.876 87.2941C165.604 86.7775 167.465 86.9628 169.059 87.8102C170.653 88.6576 171.852 90.0994 172.398 91.8255C172.944 93.5516 172.794 95.4241 171.98 97.0402C171.166 98.6562 169.753 99.8868 168.044 100.467L137.328 110.263C136.656 110.485 135.952 110.598 135.244 110.599Z" fill="white"/>
<path d="M166.314 133.034H165.999L134.536 131.612C132.71 131.53 130.992 130.722 129.76 129.368C128.527 128.013 127.881 126.222 127.963 124.389C128.045 122.556 128.849 120.83 130.198 119.592C131.547 118.354 133.33 117.705 135.155 117.787L166.619 119.209C168.444 119.249 170.179 120.015 171.442 121.339C172.705 122.663 173.393 124.437 173.354 126.27C173.315 128.103 172.552 129.846 171.234 131.114C169.915 132.383 168.149 133.074 166.324 133.034H166.314Z" fill="white"/>
<path d="M155.892 168.179C154.997 168.179 154.112 168.001 153.286 167.656L123.052 155.204C122.196 154.874 121.414 154.375 120.752 153.738C120.09 153.1 119.562 152.336 119.199 151.491C118.835 150.645 118.643 149.735 118.635 148.814C118.627 147.893 118.801 146.98 119.149 146.128C119.497 145.276 120.011 144.502 120.661 143.852C121.311 143.202 122.083 142.689 122.933 142.343C123.783 141.998 124.693 141.826 125.61 141.838C126.527 141.851 127.432 142.047 128.273 142.416L158.527 154.868C160.004 155.474 161.226 156.578 161.983 157.989C162.74 159.401 162.985 161.032 162.676 162.605C162.367 164.178 161.523 165.594 160.289 166.611C159.055 167.628 157.508 168.182 155.911 168.179H155.892Z" fill="white"/>
<path d="M154.515 216.26H27.678C21.1617 216.26 15.8792 221.566 15.8792 228.11V261.685C15.8792 268.229 21.1617 273.535 27.678 273.535H154.515C161.031 273.535 166.314 268.229 166.314 261.685V228.11C166.314 221.566 161.031 216.26 154.515 216.26Z" fill="#E08433"/>
<path d="M78.8061 56.2868C77.488 56.2907 76.2064 55.851 75.1661 55.038C74.1257 54.225 73.3864 53.0855 73.0662 51.8013C72.746 50.517 72.8632 49.1621 73.3993 47.9526C73.9353 46.7431 74.8592 45.7487 76.0236 45.1282L91.7553 36.7246C93.1374 35.9861 94.755 35.8292 96.2523 36.2885C97.7496 36.7477 99.0038 37.7855 99.7392 39.1736C100.475 40.5617 100.631 42.1863 100.173 43.69C99.7162 45.1938 98.6829 46.4535 97.3008 47.192L81.569 55.5955C80.7172 56.0468 79.7692 56.284 78.8061 56.2868Z" fill="white"/>
</g>
<defs>
<clipPath id="clip0">
<rect width="190" height="273.534" fill="white"/>
</clipPath>
</defs>
</svg>
