<svg width="91" height="120" viewBox="0 0 91 120" fill="none" xmlns="http://www.w3.org/2000/svg">
<path d="M60 90C59.0111 90 58.0444 90.2932 57.2221 90.8426C56.3999 91.3921 55.759 92.173 55.3806 93.0866C55.0022 94.0002 54.9031 95.0056 55.0961 95.9755C55.289 96.9454 55.7652 97.8363 56.4645 98.5355C57.1637 99.2348 58.0546 99.711 59.0245 99.9039C59.9945 100.097 60.9998 99.9978 61.9134 99.6194C62.827 99.241 63.6079 98.6001 64.1573 97.7779C64.7068 96.9556 65 95.9889 65 95C65 93.6739 64.4732 92.4021 63.5355 91.4645C62.5979 90.5268 61.3261 90 60 90ZM90 5H30C28.6739 5 27.4021 5.52678 26.4645 6.46447C25.5268 7.40215 25 8.67392 25 10V55C25 58.9782 26.5804 62.7936 29.3934 65.6066C32.2064 68.4196 36.0218 70 40 70H45V81.85C42.4542 84.7367 40.7954 88.2967 40.2226 92.1028C39.6499 95.9089 40.1876 99.7994 41.7712 103.308C43.3548 106.816 45.9171 109.792 49.1505 111.88C52.3839 113.968 56.1511 115.079 60 115.079C63.8489 115.079 67.6161 113.968 70.8495 111.88C74.0829 109.792 76.6452 106.816 78.2288 103.308C79.8124 99.7994 80.3501 95.9089 79.7774 92.1028C79.2046 88.2967 77.5458 84.7367 75 81.85V70H80C83.9782 70 87.7936 68.4196 90.6066 65.6066C93.4196 62.7936 95 58.9782 95 55V10C95 8.67392 94.4732 7.40215 93.5355 6.46447C92.5979 5.52678 91.3261 5 90 5ZM60 105C57.988 104.985 56.0275 104.363 54.3745 103.216C52.7215 102.069 51.453 100.45 50.7347 98.5703C50.0164 96.6909 49.8818 94.6385 50.3484 92.6813C50.8149 90.7241 51.8611 88.9532 53.35 87.6C53.868 87.1325 54.2824 86.5618 54.5665 85.9246C54.8507 85.2874 54.9984 84.5977 55 83.9V70H65V83.9C65.0016 84.5977 65.1493 85.2874 65.4335 85.9246C65.7176 86.5618 66.132 87.1325 66.65 87.6C68.1389 88.9532 69.1851 90.7241 69.6516 92.6813C70.1182 94.6385 69.9836 96.6909 69.2653 98.5703C68.547 100.45 67.2785 102.069 65.6255 103.216C63.9725 104.363 62.012 104.985 60 105ZM85 55C85 56.3261 84.4732 57.5979 83.5355 58.5355C82.5979 59.4732 81.3261 60 80 60H40C38.6739 60 37.4021 59.4732 36.4645 58.5355C35.5268 57.5979 35 56.3261 35 55V50H85V55ZM85 40H35V15H85V40Z" fill="#A0BDB7" fill-opacity="0.4"/>
</svg>
