<svg width="118" height="115" viewBox="0 0 118 115" fill="none" xmlns="http://www.w3.org/2000/svg">
<g clip-path="url(#clip0)">
<path d="M97.4067 0H33.4579C22.2782 0 13.2153 9.04473 13.2153 20.202V58.5776C13.2153 69.7348 22.2782 78.7795 33.4579 78.7795H97.4067C108.586 78.7795 117.649 69.7348 117.649 58.5776V20.202C117.649 9.04473 108.586 0 97.4067 0Z" fill="#E08433"/>
<path d="M84.1914 8.14966H20.2426C9.06292 8.14966 0 17.1944 0 28.3516V66.7272C0 77.8845 9.06292 86.9292 20.2426 86.9292H84.1914C95.3711 86.9292 104.434 77.8845 104.434 66.7272V28.3516C104.434 17.1944 95.3711 8.14966 84.1914 8.14966Z" fill="#015123"/>
<path d="M71.4523 110.472L32.8907 115C30.0653 114.993 27.3578 113.87 25.36 111.876C23.3622 109.882 22.2367 107.18 22.2295 104.36C22.2367 101.541 23.3622 98.8385 25.36 96.8447C27.3578 94.8509 30.0653 93.7276 32.8907 93.7205H71.4523C77.3182 93.7205 82.1135 93.9785 82.1135 99.8327C82.1063 102.652 80.9807 105.354 78.9829 107.348C76.9851 109.342 74.2776 110.465 71.4523 110.472Z" fill="#E08433"/>
<path d="M38.5616 66.3468C37.8369 66.3465 37.1342 66.0989 36.57 65.6451L17.1213 50.0069C16.7422 49.702 16.4385 49.3141 16.2335 48.8734C16.0286 48.4327 15.9279 47.9508 15.9393 47.4651C15.9507 46.9793 16.0739 46.5027 16.2993 46.072C16.5247 45.6413 16.8463 45.2681 17.2393 44.9813L36.6879 30.7874C37.3687 30.3118 38.2091 30.1215 39.0289 30.2572C39.8486 30.393 40.5824 30.844 41.0728 31.5135C41.5631 32.183 41.771 33.0177 41.6519 33.8384C41.5327 34.6591 41.0959 35.4005 40.4352 35.9035L24.3301 47.6435L40.5532 60.6919C41.0647 61.1033 41.4357 61.663 41.6151 62.2937C41.7946 62.9243 41.7737 63.5951 41.5552 64.2134C41.3368 64.8317 40.9315 65.3671 40.3954 65.746C39.8592 66.1249 39.2185 66.3284 38.5616 66.3287V66.3468Z" fill="white"/>
<path d="M59.8841 66.3469C59.224 66.3469 58.5802 66.1416 58.0424 65.7595C57.5046 65.3774 57.0995 64.8375 56.8834 64.215C56.6674 63.5924 56.651 62.9182 56.8368 62.2859C57.0225 61.6537 57.4011 61.095 57.9198 60.6874L72.9316 48.8977L57.8018 35.7678C57.1981 35.208 56.836 34.4359 56.7921 33.6146C56.7482 32.7934 57.026 31.9873 57.5667 31.3666C58.1073 30.7459 58.8685 30.3593 59.6895 30.2884C60.5105 30.2175 61.327 30.4679 61.9664 30.9866L79.9951 46.6339C80.3477 46.9398 80.6283 47.3197 80.8169 47.7463C81.0055 48.1729 81.0974 48.6358 81.0861 49.1019C81.0749 49.5681 80.9607 50.026 80.7517 50.4431C80.5427 50.8601 80.2441 51.226 79.8772 51.5146L61.8485 65.6496C61.291 66.0961 60.5989 66.3417 59.8841 66.3469Z" fill="white"/>
<path d="M48.66 70.6299C47.8178 70.6299 47.0101 70.296 46.4145 69.7017C45.819 69.1073 45.4844 68.3012 45.4844 67.4606V29.3023C45.4844 28.4618 45.819 27.6557 46.4145 27.0613C47.0101 26.467 47.8178 26.1331 48.66 26.1331C49.5023 26.1331 50.31 26.467 50.9056 27.0613C51.5011 27.6557 51.8357 28.4618 51.8357 29.3023V67.4606C51.8357 68.3012 51.5011 69.1073 50.9056 69.7017C50.31 70.296 49.5023 70.6299 48.66 70.6299Z" fill="white"/>
</g>
<defs>
<clipPath id="clip0">
<rect width="117.654" height="115" fill="white"/>
</clipPath>
</defs>
</svg>
