<svg xmlns="http://www.w3.org/2000/svg" width="66.696" height="50" viewBox="0 0 66.696 50"><defs><style>.a{fill:#7c878e;}</style></defs><path class="a" d="M269.97,153.079v.7l-1.27,15.947,1.27-.52c5.349-.81,9.038-5.4,9.038-16.127,0-9.428-2.959-13.507-4.519-12.257-3.969-1.48-5.639,5.169-4.569,10.988A10.785,10.785,0,0,1,269.97,153.079Z" transform="translate(-241.146 -134.152)"/><path class="a" d="M12.036,104.924h-9.9V85.138h9.9a9.914,9.914,0,0,1,9.9,9.9,18.851,18.851,0,0,1,4.519-12.257A18.914,18.914,0,0,0,12.036,76.1H-6.9v37.862H12.026a18.855,18.855,0,0,0,9.9-2.809V95.026A9.906,9.906,0,0,1,12.036,104.924Z" transform="translate(6.9 -76.099)"/><path class="a" d="M340.657,76.1A18.86,18.86,0,0,0,326.4,82.774a18.851,18.851,0,0,1,4.519,12.257,9.921,9.921,0,0,1,10.208-9.9,10.053,10.053,0,0,1,9.608,10.1v18.726h9.038V95.331A19.225,19.225,0,0,0,340.657,76.1Z" transform="translate(-293.077 -76.095)"/><path class="a" d="M281.4,281.527v2.809h9.038V265.4A18.971,18.971,0,0,1,281.4,281.527Z" transform="translate(-252.576 -246.473)"/><path class="a" d="M3.958,504.51a2.522,2.522,0,0,0-2.469,2.679,2.554,2.554,0,0,0,2.549,2.679,2.6,2.6,0,0,0,2.1-.96l.05-.05-.57-.52-.05.05a2,2,0,0,1-1.53.68,1.625,1.625,0,0,1-1.66-1.51H6.347v-.31A2.438,2.438,0,0,0,3.958,504.51Zm-1.56,2.28a1.617,1.617,0,0,1,1.53-1.53,1.572,1.572,0,0,1,1.51,1.53Zm47.37-2.28a2.642,2.642,0,0,0-2.679,2.679v.03a2.664,2.664,0,0,0,5.329-.03v-.04A2.62,2.62,0,0,0,49.768,504.51Zm1.76,2.669a1.753,1.753,0,0,1-1.77,1.84,1.809,1.809,0,0,1-1.77-1.87v-.03a1.747,1.747,0,0,1,1.74-1.84,1.848,1.848,0,0,1,1.8,1.9ZM9.7,504.51a2.216,2.216,0,0,0-1.84.96V502.56h-.88v7.168h.88v-.81a2.272,2.272,0,0,0,1.84.91,2.5,2.5,0,0,0,2.439-2.679v-.03A2.453,2.453,0,0,0,9.7,504.51Zm1.53,2.669a1.692,1.692,0,0,1-1.69,1.84,1.777,1.777,0,0,1-1.74-1.84v-.03a1.791,1.791,0,0,1,1.74-1.84,1.718,1.718,0,0,1,1.69,1.87Zm42.641-1.51v-1.06h-.88v5.119h.88v-2.05c0-1.35.75-2.21,1.9-2.21h.13v-.94h-.08A2.111,2.111,0,0,0,53.867,505.669ZM-.121,509.728h.88V504.79h-.88v4.939Zm59.058-6.449a2.432,2.432,0,0,1,.7.13l.08.03v-.78l-.05-.03a2.13,2.13,0,0,0-.83-.13,1.441,1.441,0,0,0-1.12.42,1.828,1.828,0,0,0-.44,1.32v.36H56.6v.78h.68v4.339h.88v-4.339h1.56v-.78h-1.58v-.34C58.156,503.62,58.386,503.28,58.936,503.28Zm-63.417-.44H-6.9v6.879h2.419a3.436,3.436,0,0,0,3.659-3.449v-.02A3.417,3.417,0,0,0-4.481,502.84Zm2.729,3.459a2.538,2.538,0,0,1-2.729,2.569H-5.99V503.68h1.51A2.56,2.56,0,0,1-1.751,506.3Zm20.146,3.429h.88V502.56h-.88Zm5.739-4.319a2.272,2.272,0,0,0-1.84-.91,2.5,2.5,0,0,0-2.439,2.679v.03a2.506,2.506,0,0,0,2.439,2.649,2.215,2.215,0,0,0,1.84-.96v.86h.88V502.59h-.88Zm.05,1.77a1.791,1.791,0,0,1-1.74,1.84,1.708,1.708,0,0,1-1.69-1.84v-.03a1.692,1.692,0,0,1,1.69-1.84,1.772,1.772,0,0,1,1.74,1.87Zm21.505-1.77a2.272,2.272,0,0,0-1.84-.91,2.5,2.5,0,0,0-2.439,2.679v.03a2.506,2.506,0,0,0,2.439,2.649,2.215,2.215,0,0,0,1.84-.96v.86h.88V502.59h-.88Zm.03,1.77a1.791,1.791,0,0,1-1.74,1.84,1.708,1.708,0,0,1-1.69-1.84v-.03a1.692,1.692,0,0,1,1.69-1.84,1.778,1.778,0,0,1,1.74,1.87Zm-12.727.94-4.159-5.269h-.81v6.879h.88v-5.4l4.229,5.379.03.03h.7V502.86h-.88v5.259ZM15.285,504.51a2.642,2.642,0,0,0-2.679,2.679v.03a2.664,2.664,0,0,0,5.329-.03v-.04A2.6,2.6,0,0,0,15.285,504.51Zm1.76,2.669a1.753,1.753,0,0,1-1.77,1.84,1.809,1.809,0,0,1-1.77-1.87v-.03a1.747,1.747,0,0,1,1.74-1.84,1.829,1.829,0,0,1,1.8,1.9Zm18.026,2.549h.88V504.61h-.88Zm6.489-5.119H40.55l-1.43,1.87-1.43-1.87h-1.01l1.92,2.519-2,2.6h1.01l1.51-2,1.51,2h1.04l-2.03-2.619ZM.318,502.92a.55.55,0,1,0,0,1.1.536.536,0,0,0,.55-.55A.548.548,0,0,0,.318,502.92Zm35.243,0a.55.55,0,1,0,.55.55A.536.536,0,0,0,35.561,502.92Z" transform="translate(6.9 -459.868)"/></svg>