<svg width="91" height="120" viewBox="0 0 91 120" fill="none" xmlns="http://www.w3.org/2000/svg">
<path d="M105.348 84.1501L94.998 73.5501C92.7717 71.4338 89.9634 70.0317 86.9341 69.5238C83.9047 69.0159 80.7927 69.4256 77.998 70.7001L73.498 66.2001C78.8008 59.1147 81.2225 50.2835 80.2757 41.4842C79.3289 32.685 75.0839 24.5712 68.3951 18.7761C61.7064 12.9809 53.0707 9.93486 44.2263 10.251C35.382 10.5671 26.9857 14.222 20.7278 20.4799C14.47 26.7378 10.8151 35.134 10.4989 43.9784C10.1828 52.8227 13.2289 61.4585 19.024 68.1472C24.8191 74.8359 32.933 79.081 41.7322 80.0278C50.5314 80.9746 59.3626 78.5528 66.448 73.2501L70.898 77.7001C69.4734 80.4982 68.9629 83.6729 69.4383 86.7766C69.9138 89.8803 71.3512 92.7566 73.548 95.0001L84.148 105.6C86.9605 108.409 90.773 109.987 94.748 109.987C98.723 109.987 102.535 108.409 105.348 105.6C106.777 104.203 107.912 102.535 108.687 100.693C109.462 98.8513 109.861 96.8732 109.861 94.8751C109.861 92.8769 109.462 90.8989 108.687 89.0571C107.912 87.2154 106.777 85.547 105.348 84.1501V84.1501ZM62.948 62.9501C59.4492 66.4401 54.9945 68.8148 50.1467 69.7743C45.2989 70.7338 40.2755 70.2351 35.711 68.341C31.1465 66.447 27.2458 63.2426 24.5016 59.1328C21.7573 55.0229 20.2927 50.1919 20.2927 45.2501C20.2927 40.3082 21.7573 35.4772 24.5016 31.3674C27.2458 27.2575 31.1465 24.0532 35.711 22.1591C40.2755 20.2651 45.2989 19.7663 50.1467 20.7258C54.9945 21.6853 59.4492 24.0601 62.948 27.5501C65.2762 29.8724 67.1233 32.6311 68.3836 35.6684C69.6439 38.7056 70.2927 41.9617 70.2927 45.2501C70.2927 48.5384 69.6439 51.7945 68.3836 54.8318C67.1233 57.869 65.2762 60.6278 62.948 62.9501V62.9501ZM98.298 98.3001C97.8332 98.7687 97.2802 99.1407 96.6709 99.3945C96.0616 99.6484 95.4081 99.7791 94.748 99.7791C94.0879 99.7791 93.4344 99.6484 92.8251 99.3945C92.2158 99.1407 91.6628 98.7687 91.198 98.3001L80.598 87.7001C80.1294 87.2353 79.7574 86.6822 79.5035 86.073C79.2497 85.4637 79.119 84.8101 79.119 84.1501C79.119 83.49 79.2497 82.8365 79.5035 82.2272C79.7574 81.6179 80.1294 81.0649 80.598 80.6001C81.0628 80.1314 81.6158 79.7595 82.2251 79.5056C82.8344 79.2518 83.4879 79.1211 84.148 79.1211C84.8081 79.1211 85.4616 79.2518 86.0709 79.5056C86.6802 79.7595 87.2332 80.1314 87.698 80.6001L98.298 91.2001C98.7666 91.6649 99.1386 92.2179 99.3925 92.8272C99.6463 93.4365 99.777 94.09 99.777 94.7501C99.777 95.4101 99.6463 96.0636 99.3925 96.6729C99.1386 97.2822 98.7666 97.8352 98.298 98.3001V98.3001Z" fill="#A0BDB7" fill-opacity="0.4"/>
</svg>
