<svg xmlns="http://www.w3.org/2000/svg" width="93.711" height="70.252" viewBox="0 0 93.711 70.252"><defs><style>.a{fill:#52247f;}.b{fill:#0065a4;}.c{fill:#c41230;}</style></defs><g transform="translate(-1278.432 -768.874)"><path class="a" d="M270.484,158.133v.983L268.7,181.522l1.784-.73c7.515-1.138,12.7-7.586,12.7-22.659,0-13.247-4.158-18.978-6.349-17.222-5.577-2.079-7.923,7.263-6.42,15.438A15.157,15.157,0,0,1,270.484,158.133Z" transform="translate(1048.447 637.334)"/><path class="b" d="M19.706,116.6H5.8V88.8H19.706a13.93,13.93,0,0,1,13.907,13.907,26.487,26.487,0,0,1,6.349-17.222A26.574,26.574,0,0,0,19.706,76.1H-6.9v53.2H19.692A26.492,26.492,0,0,0,33.6,125.351V102.692A13.918,13.918,0,0,1,19.706,116.6Z" transform="translate(1285.332 692.774)"/><path class="c" d="M346.432,76.1A26.5,26.5,0,0,0,326.4,85.479a26.487,26.487,0,0,1,6.35,17.222,13.94,13.94,0,0,1,14.342-13.907,14.125,14.125,0,0,1,13.5,14.188v26.311h12.7V103.123C373.277,88.345,361.21,75.983,346.432,76.1Z" transform="translate(998.852 692.779)"/><path class="c" d="M281.4,288.059v3.947h12.7V265.4A26.656,26.656,0,0,1,281.4,288.059Z" transform="translate(1037.531 530.067)"/><path class="b" d="M8.356,505.324a3.543,3.543,0,0,0-3.47,3.765,3.589,3.589,0,0,0,3.582,3.765,3.649,3.649,0,0,0,2.95-1.349l.07-.07-.8-.731-.07.07a2.8,2.8,0,0,1-2.149.955,2.284,2.284,0,0,1-2.332-2.121h5.577v-.435C11.713,506.855,10.364,505.324,8.356,505.324Zm-2.191,3.2a2.272,2.272,0,0,1,2.149-2.149,2.209,2.209,0,0,1,2.121,2.149Zm66.557-3.2a3.712,3.712,0,0,0-3.765,3.765v.042a3.744,3.744,0,0,0,7.487-.042v-.056A3.682,3.682,0,0,0,72.721,505.324Zm2.472,3.751a2.463,2.463,0,0,1-2.486,2.585,2.542,2.542,0,0,1-2.486-2.627v-.042a2.455,2.455,0,0,1,2.444-2.585,2.6,2.6,0,0,1,2.529,2.669Zm-58.775-3.751a3.113,3.113,0,0,0-2.585,1.349v-4.088H12.6v10.072h1.236v-1.138a3.193,3.193,0,0,0,2.585,1.278,3.518,3.518,0,0,0,3.428-3.765v-.042A3.446,3.446,0,0,0,16.419,505.324Zm2.149,3.751a2.377,2.377,0,0,1-2.374,2.585,2.5,2.5,0,0,1-2.444-2.585v-.042a2.516,2.516,0,0,1,2.444-2.585,2.413,2.413,0,0,1,2.374,2.627Zm59.913-2.121v-1.489H77.245v7.192h1.236v-2.88c0-1.9,1.054-3.1,2.669-3.1h.183v-1.32H81.22A2.966,2.966,0,0,0,78.481,506.953Zm-75.857,5.7H3.86v-6.94H2.624v6.94ZM85.6,503.6a3.418,3.418,0,0,1,.983.183l.112.042v-1.1l-.07-.042a2.992,2.992,0,0,0-1.166-.183,2.025,2.025,0,0,0-1.573.59,2.568,2.568,0,0,0-.618,1.854v.506h-.955v1.1h.955v6.1h1.236v-6.1H86.7v-1.1h-2.22v-.478C84.507,504.073,84.83,503.6,85.6,503.6Zm-89.1-.618H-6.9v9.665h3.4A4.828,4.828,0,0,0,1.641,507.8v-.028A4.8,4.8,0,0,0-3.5,502.978Zm3.835,4.86a3.567,3.567,0,0,1-3.835,3.61H-5.622v-7.291H-3.5a3.6,3.6,0,0,1,3.835,3.68Zm28.306,4.818h1.236V502.584H28.64Zm8.063-6.069a3.193,3.193,0,0,0-2.585-1.278,3.518,3.518,0,0,0-3.428,3.765v.042a3.522,3.522,0,0,0,3.428,3.723A3.113,3.113,0,0,0,36.7,511.49V512.7H37.94V502.626H36.7Zm.07,2.486a2.516,2.516,0,0,1-2.444,2.585,2.4,2.4,0,0,1-2.374-2.585v-.042a2.377,2.377,0,0,1,2.374-2.585,2.49,2.49,0,0,1,2.444,2.627Zm30.216-2.486a3.193,3.193,0,0,0-2.585-1.278,3.518,3.518,0,0,0-3.428,3.765v.042a3.522,3.522,0,0,0,3.428,3.723,3.113,3.113,0,0,0,2.585-1.349V512.7h1.236V502.626H66.99Zm.042,2.486a2.516,2.516,0,0,1-2.444,2.585,2.4,2.4,0,0,1-2.374-2.585v-.042a2.377,2.377,0,0,1,2.374-2.585,2.5,2.5,0,0,1,2.444,2.627Zm-17.882,1.32-5.844-7.4H42.168v9.665H43.4v-7.586l5.942,7.558.042.042h.983v-9.665H49.136v7.389Zm-24.878-5.071a3.712,3.712,0,0,0-3.765,3.765v.042a3.744,3.744,0,0,0,7.487-.042v-.056A3.647,3.647,0,0,0,24.271,505.324Zm2.472,3.751a2.463,2.463,0,0,1-2.486,2.585,2.542,2.542,0,0,1-2.486-2.627v-.042a2.455,2.455,0,0,1,2.444-2.585,2.569,2.569,0,0,1,2.529,2.669Zm25.328,3.582h1.236v-7.192H52.071Zm9.117-7.192H59.769l-2.009,2.627-2.009-2.627H54.333l2.7,3.54-2.81,3.652H55.64l2.121-2.81,2.121,2.81h1.461l-2.852-3.68ZM3.242,503.09a.773.773,0,1,0,0,1.545.753.753,0,0,0,.773-.773A.77.77,0,0,0,3.242,503.09Zm49.517,0a.773.773,0,1,0,.773.773A.753.753,0,0,0,52.76,503.09Z" transform="translate(1285.332 326.273)"/></g></svg>