<svg width="1440" height="2904" viewBox="0 0 1440 2904" fill="none" xmlns="http://www.w3.org/2000/svg">
<g opacity="0.25">
<g filter="url(#filter0_f)">
<path d="M37.6209 1262.35C-24.9763 1257.16 -42.5818 1197.68 -1.50238 1169.39C133.473 1076.43 115.867 1119.67 125.648 957.531C135.429 795.393 395.599 972.664 317.352 1145.61C239.106 1318.56 575.566 1325.04 516.881 1474.21C458.196 1623.38 303.659 1469.89 213.676 1415.84C123.692 1361.79 239.106 1320.72 170.64 1262.35C102.174 1203.98 115.867 1268.84 37.6209 1262.35Z" fill="#006A4E"/>
</g>
<g filter="url(#filter1_f)">
<path d="M737.319 1741.81C799.916 1747 817.521 1806.48 776.442 1834.77C641.466 1927.73 659.072 1884.49 649.291 2046.63C639.51 2208.77 379.341 2031.5 457.587 1858.55C535.834 1685.6 199.373 1679.12 258.058 1529.95C316.743 1380.78 471.28 1534.27 561.264 1588.32C651.247 1642.37 535.834 1683.44 604.299 1741.81C672.765 1800.18 659.072 1735.33 737.319 1741.81Z" fill="#22006A"/>
</g>
<g filter="url(#filter2_f)">
<path d="M631.798 1632.02C569.201 1626.84 551.595 1567.36 592.675 1539.07C727.65 1446.11 710.044 1489.34 719.825 1327.21C729.606 1165.07 989.776 1342.34 911.529 1515.29C833.283 1688.23 1169.74 1694.72 1111.06 1843.88C1052.37 1993.05 897.836 1839.56 807.853 1785.52C717.869 1731.47 833.283 1690.39 764.817 1632.02C696.351 1573.65 710.044 1638.51 631.798 1632.02Z" fill="#FF006B"/>
</g>
<g filter="url(#filter3_f)">
<path d="M727.862 2228.69C665.265 2223.5 647.659 2164.02 688.739 2135.73C823.714 2042.77 806.109 2086.01 815.89 1923.87C825.67 1761.73 1085.84 1939.01 1007.59 2111.95C929.347 2284.9 1265.81 2291.39 1207.12 2440.55C1148.44 2589.72 993.901 2436.23 903.917 2382.18C813.933 2328.14 929.347 2287.06 860.881 2228.69C792.416 2170.32 806.109 2235.18 727.862 2228.69Z" fill="#FF6B00"/>
</g>
<g filter="url(#filter4_f)">
<path d="M1044.88 2044.94C982.279 2039.75 964.673 1980.27 1005.75 1951.98C1140.73 1859.02 1123.12 1902.25 1132.9 1740.12C1142.68 1577.98 1402.85 1755.25 1324.61 1928.2C1246.36 2101.14 1582.82 2107.63 1524.14 2256.8C1465.45 2405.96 1310.91 2252.47 1220.93 2198.43C1130.95 2144.38 1246.36 2103.31 1177.9 2044.94C1109.43 1986.57 1123.12 2051.42 1044.88 2044.94Z" fill="#FFE600"/>
</g>
<g filter="url(#filter5_f)">
<path d="M939.205 1400.71C876.608 1395.52 859.002 1336.04 900.082 1307.75C1035.06 1214.79 1017.45 1258.03 1027.23 1095.89C1037.01 933.751 1297.18 1111.02 1218.94 1283.97C1140.69 1456.92 1477.15 1463.4 1418.47 1612.57C1359.78 1761.73 1205.24 1608.24 1115.26 1554.2C1025.28 1500.15 1140.69 1459.08 1072.22 1400.71C1003.76 1342.34 1017.45 1407.19 939.205 1400.71Z" fill="#61FF00"/>
</g>
<g filter="url(#filter6_f)">
<path d="M-82.6838 1632.02C-145.281 1626.84 -162.887 1567.36 -121.807 1539.07C13.1682 1446.11 -4.43724 1489.34 5.34353 1327.21C15.1243 1165.07 275.294 1342.34 197.048 1515.29C118.801 1688.23 455.261 1694.72 396.576 1843.88C337.892 1993.05 183.355 1839.56 93.371 1785.51C3.38747 1731.47 118.801 1690.39 50.3354 1632.02C-18.1304 1573.65 -4.4372 1638.51 -82.6838 1632.02Z" fill="#6A0039"/>
</g>
</g>
<g opacity="0.2">
<g filter="url(#filter7_f)">
<path d="M1243.76 377.148C1248.56 330.223 1303.58 317.026 1329.76 347.82C1415.76 449.001 1375.76 435.803 1525.76 443.135C1675.76 450.467 1511.76 645.498 1351.76 586.842C1191.76 528.186 1185.76 780.406 1047.76 736.414C909.756 692.422 1051.76 576.577 1101.76 509.123C1151.76 441.669 1189.76 528.186 1243.76 476.862C1297.76 425.539 1237.76 435.803 1243.76 377.148Z" fill="#006A4E"/>
</g>
<g filter="url(#filter8_f)">
<path d="M800.188 901.661C795.388 948.585 740.362 961.783 714.188 930.989C628.188 829.807 668.188 843.005 518.188 835.673C368.188 828.341 532.188 633.311 692.188 691.966C852.188 750.622 858.188 498.402 996.188 542.394C1134.19 586.386 992.188 702.231 942.188 769.685C892.188 837.139 854.188 750.622 800.188 801.946C746.188 853.27 806.188 843.005 800.188 901.661Z" fill="#22006A"/>
</g>
<g filter="url(#filter9_f)">
<path d="M901.756 286.965C906.556 240.04 961.582 226.842 987.756 257.637C1073.76 358.818 1033.76 345.62 1183.76 352.952C1333.76 360.284 1169.76 555.315 1009.76 496.659C849.756 438.003 843.756 690.223 705.756 646.231C567.756 602.239 709.756 486.394 759.756 418.94C809.756 351.486 847.756 438.003 901.756 386.679C955.756 335.356 895.756 345.62 901.756 286.965Z" fill="#6A0039"/>
</g>
</g>
<defs>
<filter id="filter0_f" x="-423.696" y="493.615" width="1347.49" height="1444.04" filterUnits="userSpaceOnUse" color-interpolation-filters="sRGB">
<feFlood flood-opacity="0" result="BackgroundImageFix"/>
<feBlend mode="normal" in="SourceGraphic" in2="BackgroundImageFix" result="shape"/>
<feGaussianBlur stdDeviation="200" result="effect1_foregroundBlur"/>
</filter>
<filter id="filter1_f" x="-148.855" y="1066.5" width="1347.49" height="1444.04" filterUnits="userSpaceOnUse" color-interpolation-filters="sRGB">
<feFlood flood-opacity="0" result="BackgroundImageFix"/>
<feBlend mode="normal" in="SourceGraphic" in2="BackgroundImageFix" result="shape"/>
<feGaussianBlur stdDeviation="200" result="effect1_foregroundBlur"/>
</filter>
<filter id="filter2_f" x="170.481" y="863.29" width="1347.49" height="1444.04" filterUnits="userSpaceOnUse" color-interpolation-filters="sRGB">
<feFlood flood-opacity="0" result="BackgroundImageFix"/>
<feBlend mode="normal" in="SourceGraphic" in2="BackgroundImageFix" result="shape"/>
<feGaussianBlur stdDeviation="200" result="effect1_foregroundBlur"/>
</filter>
<filter id="filter3_f" x="266.546" y="1459.96" width="1347.49" height="1444.04" filterUnits="userSpaceOnUse" color-interpolation-filters="sRGB">
<feFlood flood-opacity="0" result="BackgroundImageFix"/>
<feBlend mode="normal" in="SourceGraphic" in2="BackgroundImageFix" result="shape"/>
<feGaussianBlur stdDeviation="200" result="effect1_foregroundBlur"/>
</filter>
<filter id="filter4_f" x="583.56" y="1276.2" width="1347.49" height="1444.04" filterUnits="userSpaceOnUse" color-interpolation-filters="sRGB">
<feFlood flood-opacity="0" result="BackgroundImageFix"/>
<feBlend mode="normal" in="SourceGraphic" in2="BackgroundImageFix" result="shape"/>
<feGaussianBlur stdDeviation="200" result="effect1_foregroundBlur"/>
</filter>
<filter id="filter5_f" x="477.889" y="631.973" width="1347.49" height="1444.04" filterUnits="userSpaceOnUse" color-interpolation-filters="sRGB">
<feFlood flood-opacity="0" result="BackgroundImageFix"/>
<feBlend mode="normal" in="SourceGraphic" in2="BackgroundImageFix" result="shape"/>
<feGaussianBlur stdDeviation="200" result="effect1_foregroundBlur"/>
</filter>
<filter id="filter6_f" x="-544" y="863.29" width="1347.49" height="1444.04" filterUnits="userSpaceOnUse" color-interpolation-filters="sRGB">
<feFlood flood-opacity="0" result="BackgroundImageFix"/>
<feBlend mode="normal" in="SourceGraphic" in2="BackgroundImageFix" result="shape"/>
<feGaussianBlur stdDeviation="200" result="effect1_foregroundBlur"/>
</filter>
<filter id="filter7_f" x="589.058" y="-68.8167" width="1395.83" height="1210.41" filterUnits="userSpaceOnUse" color-interpolation-filters="sRGB">
<feFlood flood-opacity="0" result="BackgroundImageFix"/>
<feBlend mode="normal" in="SourceGraphic" in2="BackgroundImageFix" result="shape"/>
<feGaussianBlur stdDeviation="200" result="effect1_foregroundBlur"/>
</filter>
<filter id="filter8_f" x="59.0576" y="137.212" width="1395.83" height="1210.41" filterUnits="userSpaceOnUse" color-interpolation-filters="sRGB">
<feFlood flood-opacity="0" result="BackgroundImageFix"/>
<feBlend mode="normal" in="SourceGraphic" in2="BackgroundImageFix" result="shape"/>
<feGaussianBlur stdDeviation="200" result="effect1_foregroundBlur"/>
</filter>
<filter id="filter9_f" x="247.058" y="-159" width="1395.83" height="1210.41" filterUnits="userSpaceOnUse" color-interpolation-filters="sRGB">
<feFlood flood-opacity="0" result="BackgroundImageFix"/>
<feBlend mode="normal" in="SourceGraphic" in2="BackgroundImageFix" result="shape"/>
<feGaussianBlur stdDeviation="200" result="effect1_foregroundBlur"/>
</filter>
</defs>
</svg>
