<svg xmlns="http://www.w3.org/2000/svg" width="217.518" height="50.347" viewBox="0 0 217.518 50.347"><defs><style>.a,.b{fill:#ffffff;}.b{stroke:#006a4e;stroke-width:0.3px;}</style></defs><g transform="translate(-26.606 -12.667)"><g transform="translate(90.187 23.811)"><path class="a" d="M329.976,938.5a6.09,6.09,0,0,1,2.492.508,6.172,6.172,0,0,1,1.994,1.4,6.537,6.537,0,0,1,1.306,2.063,6.688,6.688,0,0,1,.478,2.532v7.257a6.678,6.678,0,0,1-.478,2.522,6.33,6.33,0,0,1-1.306,2.063,6.049,6.049,0,0,1-1.994,1.405,6.261,6.261,0,0,1-2.492.508H322.39a3.448,3.448,0,0,0,.4-1,11.47,11.47,0,0,0,.279-1.366,15.432,15.432,0,0,0,.13-2.113V942.926a15.492,15.492,0,0,0-.13-2.123,11.952,11.952,0,0,0-.279-1.365,3.369,3.369,0,0,0-.4-.937ZM325.7,963.36a6.6,6.6,0,0,0-1.475.229,6.042,6.042,0,0,0-1.216.5,2.991,2.991,0,0,1,.788-1.4,4.825,4.825,0,0,1,1.226-.907,5.919,5.919,0,0,1,1.326-.508,4.6,4.6,0,0,1,1.087-.159,4.986,4.986,0,0,1,1.435.1c.429.1.847.219,1.256.349s.837.249,1.286.349a6.266,6.266,0,0,0,1.545.1,3.708,3.708,0,0,0,1.266-.249,9.4,9.4,0,0,0,1.057-.508,3.419,3.419,0,0,1-.817,1.485,4.5,4.5,0,0,1-1.216.907,5.472,5.472,0,0,1-1.266.468,5.382,5.382,0,0,1-2.4,0c-.389-.09-.768-.209-1.156-.339a11.442,11.442,0,0,0-1.216-.349,5.834,5.834,0,0,0-1.525-.07ZM332.378,945a9.875,9.875,0,0,0-.17-1.615,6.05,6.05,0,0,0-.648-1.854,4.615,4.615,0,0,0-1.346-1.505,3.658,3.658,0,0,0-2.193-.618h-1v14.4a3.469,3.469,0,0,1,.728-.359,2.392,2.392,0,0,1,1.186,0,1,1,0,0,1,.777.768,1.815,1.815,0,0,0-1.106.11,1.993,1.993,0,0,0-.857.628,2.3,2.3,0,0,0-.429,1,1.814,1.814,0,0,0,.14,1.126,1.225,1.225,0,0,0,.528.538,1.873,1.873,0,0,0,1,.259h.289a1.844,1.844,0,0,0,1.386-.618,5.323,5.323,0,0,0,1-1.505,9.966,9.966,0,0,0,.568-1.854,9.11,9.11,0,0,0,.179-1.615Z" transform="translate(-322.391 -937.848)"/><path class="a" d="M350.621,964.267H338.36a3.321,3.321,0,0,0,.4-1,9.78,9.78,0,0,0,.239-1.346,14.04,14.04,0,0,0,.13-2.123V942.856a14.042,14.042,0,0,0-.13-2.123,10.285,10.285,0,0,0-.269-1.366,3.371,3.371,0,0,0-.4-.937h11.932l-.329,3.589h-.827c-.13-.478-.249-.9-.369-1.226a1.994,1.994,0,0,0-.548-.837,2.222,2.222,0,0,0-1.047-.479,10.555,10.555,0,0,0-1.924-.14h-2.233v7.875a13.287,13.287,0,0,0,1.994,0,14.93,14.93,0,0,0,1.565-.14,7.938,7.938,0,0,0,1.336-.259,2.349,2.349,0,0,1,0,.468,3.77,3.77,0,0,1-.179,1,1.057,1.057,0,0,1-.8.708,2.263,2.263,0,0,1-1.236,0l-2.721-.768v13.507a1.477,1.477,0,0,0,.09.449,1.447,1.447,0,0,0,.329.528,1.625,1.625,0,0,0,.668.409,2.99,2.99,0,0,0,1.126.169h1.266a2.542,2.542,0,0,0,1.346-.309,2.431,2.431,0,0,0,.817-.837,4.395,4.395,0,0,0,.468-1.156c.11-.419.229-.857.349-1.3h.837Z" transform="translate(-322.442 -937.848)"/><path class="a" d="M356.219,942.6a5.164,5.164,0,0,0,.728,2.661,14.856,14.856,0,0,0,1.794,2.372c.718.778,1.5,1.545,2.333,2.293a27.053,27.053,0,0,1,2.313,2.352,13.253,13.253,0,0,1,1.8,2.672,6.978,6.978,0,0,1,.728,3.18,7.815,7.815,0,0,1-1.695,5.333,6.4,6.4,0,0,1-5.064,1.924,8.613,8.613,0,0,1-2.442-.349,6.1,6.1,0,0,1-2.093-1.057,5.183,5.183,0,0,1-1.445-1.734,5.034,5.034,0,0,1-.548-2.412,5.2,5.2,0,0,1,.419-2.163,4.786,4.786,0,0,1,1-1.525,4.316,4.316,0,0,1,1.356-.907,3.707,3.707,0,0,1,1.366-.309,4.107,4.107,0,0,1,2.831.817,2.512,2.512,0,0,1,.867,1.874,3.492,3.492,0,0,0-1.366-.169,4.115,4.115,0,0,0-1.316.329,3.457,3.457,0,0,0-1.1.748,3.09,3.09,0,0,0-.718,1.087,3.368,3.368,0,0,0-.239,1.655,3.689,3.689,0,0,0,.508,1.535,3.29,3.29,0,0,0,1.126,1.126,3.071,3.071,0,0,0,1.645.439,4.187,4.187,0,0,0,1.764-.349,3.678,3.678,0,0,0,1.236-.887,3.442,3.442,0,0,0,.708-1.226,4.745,4.745,0,0,0,.219-1.356,6.45,6.45,0,0,0-.728-2.99A13.716,13.716,0,0,0,360.4,955a31.489,31.489,0,0,0-2.382-2.372,29.979,29.979,0,0,1-2.372-2.412,13.307,13.307,0,0,1-1.814-2.672,7.227,7.227,0,0,1-.239-5.771,5.982,5.982,0,0,1,1.386-2.063,6.132,6.132,0,0,1,2.133-1.366,7.445,7.445,0,0,1,2.741-.488,6.248,6.248,0,0,1,2.741.528,5.6,5.6,0,0,1,1.794,1.286,4.984,4.984,0,0,1,1.306,3.23,4.8,4.8,0,0,1-.379,1.994,4.146,4.146,0,0,1-2.193,2.213,3.26,3.26,0,0,1-1.236.269,4.533,4.533,0,0,1-1.326-.189,4.714,4.714,0,0,1-1.126-.538,2.571,2.571,0,0,1-.778-.758,1.7,1.7,0,0,1-.289-.937,3.21,3.21,0,0,0,1.266.159,3.7,3.7,0,0,0,1.216-.309,3.52,3.52,0,0,0,1-.688,2.682,2.682,0,0,0,.678-1,2.871,2.871,0,0,0,.2-1.216,3.988,3.988,0,0,0-.329-1.435,3.2,3.2,0,0,0-1-1.2,2.672,2.672,0,0,0-1.724-.508,3.241,3.241,0,0,0-1.525.339,3.718,3.718,0,0,0-1.106.9,3.9,3.9,0,0,0-.688,1.226,4.366,4.366,0,0,0-.13,1.385Z" transform="translate(-322.487 -937.846)"/><path class="a" d="M371.985,959.841a17.764,17.764,0,0,0,.11,2.123,6.561,6.561,0,0,0,.289,1.356,2.482,2.482,0,0,0,.4,1H367.3a3.319,3.319,0,0,0,.4-1,11.241,11.241,0,0,0,.3-1.4,15.684,15.684,0,0,0,.12-2.123V942.856a15.683,15.683,0,0,0-.12-2.123,11.959,11.959,0,0,0-.279-1.366,3.371,3.371,0,0,0-.4-.937h5.443a2.492,2.492,0,0,0-.4.937,6.83,6.83,0,0,0-.289,1.366,17.755,17.755,0,0,0-.11,2.123V959.8Z" transform="translate(-322.534 -937.848)"/><path class="a" d="M387.65,964.266a4.836,4.836,0,0,1-1.665-.2,3.428,3.428,0,0,1-.837-.488,6.346,6.346,0,0,1-1.675.738,6.468,6.468,0,0,1-1.994.279,7.048,7.048,0,0,1-2.522-.439,6.2,6.2,0,0,1-1.994-1.176,5.542,5.542,0,0,1-1.286-1.744,4.855,4.855,0,0,1-.469-2.123V943.652a5.771,5.771,0,0,1,.409-2.143,4.805,4.805,0,0,1,1.236-1.745,6.17,6.17,0,0,1,2.053-1.156,8.582,8.582,0,0,1,2.861-.439,7.426,7.426,0,0,1,2.99.528A5.184,5.184,0,0,1,386.613,940a4.546,4.546,0,0,1,.927,1.665,6.386,6.386,0,0,1,.249,1.625,4.664,4.664,0,0,1-.369,1.994,4.246,4.246,0,0,1-.9,1.336,3.679,3.679,0,0,1-1.206.778,3.393,3.393,0,0,1-1.226.259,3.987,3.987,0,0,1-2.632-.8,2.253,2.253,0,0,1-1-1.744,2.989,2.989,0,0,0,1.216.179,3.378,3.378,0,0,0,1.3-.319,3.19,3.19,0,0,0,1-.648,2.842,2.842,0,0,0,.658-1,3.66,3.66,0,0,0,.2-1.206,3.458,3.458,0,0,0-.269-1.426,2.991,2.991,0,0,0-.927-1.176,2.812,2.812,0,0,0-1.724-.488,2.859,2.859,0,0,0-1.366.289,2.682,2.682,0,0,0-1.306,1.665,3.987,3.987,0,0,0-.12.907v18.86a4.477,4.477,0,0,0,.1.9,2.781,2.781,0,0,0,.389.937,2.362,2.362,0,0,0,.728.748,1.993,1.993,0,0,0,1.176.309,2.093,2.093,0,0,0,1.136-.289,2.273,2.273,0,0,0,.718-.728,2.99,2.99,0,0,0,.339-.937,5.485,5.485,0,0,0,.09-.937v-5.811a17.016,17.016,0,0,0-.14-2.123,9.964,9.964,0,0,0-.259-1.356,2.423,2.423,0,0,0-.4-.937h4.645Z" transform="translate(-322.559 -937.847)"/><path class="a" d="M403.666,938.5a4.906,4.906,0,0,0-.329.648,3.582,3.582,0,0,0-.229.7,3.363,3.363,0,0,0-.09.867v23.555h-1.166l-10.018-21.282v19.049a3.869,3.869,0,0,0,.09.867,5.357,5.357,0,0,0,.2.688,4.492,4.492,0,0,0,.329.658H390a4.492,4.492,0,0,0,.329-.658c.07-.189.14-.419.219-.7a3.877,3.877,0,0,0,.11-.927V942.5a14.454,14.454,0,0,0-.169-1.914,9.14,9.14,0,0,0-.269-1.216,2.59,2.59,0,0,0-.359-.827h3.987l7.974,16.756V940.783a3.787,3.787,0,0,0-.11-.917,5.7,5.7,0,0,0-.219-.718c-.1-.239-.189-.449-.289-.648Z" transform="translate(-322.606 -937.848)"/><path class="a" d="M424.057,938.54l-.329,3.588h-.837l-.319-1.2a1.645,1.645,0,0,0-.548-.837,2.571,2.571,0,0,0-1-.508,8.548,8.548,0,0,0-1.814-.15V950.87h2.542v1.087h-2.542v7.974a18.009,18.009,0,0,0,.11,2.1c.05.289.1.538.14.758s.1.429.15.618a2.622,2.622,0,0,0,.4.947h-5.443a2.245,2.245,0,0,0,.239-.459c.06-.159.11-.319.159-.488s.1-.4.15-.618.09-.469.14-.758a16.054,16.054,0,0,0,.11-2.1v-7.975h-2.5v-1.126h2.5V939.437a8.548,8.548,0,0,0-1.814.15,2.572,2.572,0,0,0-1,.508,1.576,1.576,0,0,0-.508.837c-.05.169-.11.349-.179.548a3.577,3.577,0,0,0-.179.648h-.837l-.329-3.588Z" transform="translate(-322.672 -937.848)"/><path class="a" d="M438.51,960.2a15.438,15.438,0,0,0,.907,2.492,3.339,3.339,0,0,0,1.276,1.356,3.049,3.049,0,0,1-1.216.439,8.439,8.439,0,0,1-1.106.11,4.147,4.147,0,0,1-2.273-.778,3.768,3.768,0,0,1-1.326-2.233l-2.213-10.825a3.1,3.1,0,0,1-1.854-.688v9.769a17.777,17.777,0,0,0,.11,2.123,7.3,7.3,0,0,0,.289,1.356,2.333,2.333,0,0,0,.409,1H426.06a3.322,3.322,0,0,0,.4-1,11.252,11.252,0,0,0,.279-1.356,15.5,15.5,0,0,0,.13-2.123V942.9a15.5,15.5,0,0,0-.13-2.123,11.974,11.974,0,0,0-.279-1.366,3.368,3.368,0,0,0-.4-.937h6.429a9.8,9.8,0,0,1,2.632.329,5.173,5.173,0,0,1,1.994,1,4.586,4.586,0,0,1,1.316,1.824,7.1,7.1,0,0,1,.478,2.761,6.7,6.7,0,0,1-1.276,4.217,5.512,5.512,0,0,1-3.589,1.994,6.921,6.921,0,0,1,.867.508,5.106,5.106,0,0,1,.927.837,6.834,6.834,0,0,1,.837,1.216,6.5,6.5,0,0,1,.6,1.645ZM431.1,949.066a1.316,1.316,0,0,0,.568.558,1.993,1.993,0,0,0,1,.269,1.715,1.715,0,0,0,1.2-.429,3.042,3.042,0,0,0,.738-1.166,6.318,6.318,0,0,0,.369-1.724c.06-.668.09-1.366.09-2.083a7.807,7.807,0,0,0-.309-2.382,4.624,4.624,0,0,0-.817-1.565,3.14,3.14,0,0,0-2.392-1.136h-.877v6.459a1.786,1.786,0,0,1,.658-.4,1.7,1.7,0,0,1,.8-.11,1.794,1.794,0,0,1,.728.239,1.256,1.256,0,0,1,.508.628,1.994,1.994,0,0,0-1.106.11,2.064,2.064,0,0,0-.857.638,2.323,2.323,0,0,0-.439,1,2.113,2.113,0,0,0,.149,1.1Z" transform="translate(-322.722 -937.848)"/><path class="a" d="M446.185,959.842a15.893,15.893,0,0,0,.11,2.123,5.979,5.979,0,0,0,.289,1.356,2.333,2.333,0,0,0,.4,1H441.54a3.99,3.99,0,0,0,.4-1,11.542,11.542,0,0,0,.269-1.356,15.493,15.493,0,0,0,.13-2.123V942.9a15.5,15.5,0,0,0-.13-2.123,12.217,12.217,0,0,0-.269-1.366,4.1,4.1,0,0,0-.4-.937h5.443a2.343,2.343,0,0,0-.4.937,6.2,6.2,0,0,0-.289,1.366,15.887,15.887,0,0,0-.11,2.123Z" transform="translate(-322.771 -937.848)"/><path class="a" d="M458.18,950.332a7.974,7.974,0,0,1,1.854.887,6.677,6.677,0,0,1,1.525,1.376,6.587,6.587,0,0,1,1,1.9,7.356,7.356,0,0,1,.4,2.442,8.473,8.473,0,0,1-.6,3.379,6.081,6.081,0,0,1-3.937,3.519,9.966,9.966,0,0,1-2.871.4H448.83a2.879,2.879,0,0,0,.369-1,11.548,11.548,0,0,0,.269-1.356,14.049,14.049,0,0,0,.13-2.123V942.816a14.042,14.042,0,0,0-.13-2.123,12.225,12.225,0,0,0-.269-1.366,2.9,2.9,0,0,0-.369-.937h6.429a9.8,9.8,0,0,1,2.632.329,5.173,5.173,0,0,1,1.994,1,4.705,4.705,0,0,1,1.326,1.824,7.3,7.3,0,0,1,.468,2.761,7.1,7.1,0,0,1-.907,3.708A5.084,5.084,0,0,1,458.18,950.332Zm-4.715-.439h1.994a1.715,1.715,0,0,0,1.2-.429,3.178,3.178,0,0,0,.748-1.166,6.725,6.725,0,0,0,.359-1.724c.06-.668.09-1.366.09-2.083a7.466,7.466,0,0,0-.329-2.382,4.836,4.836,0,0,0-.837-1.565,3.1,3.1,0,0,0-2.392-1.136h-.867Zm1.994,13.467a2.292,2.292,0,0,0,1.4-.508,4.3,4.3,0,0,0,1.156-1.376,8.153,8.153,0,0,0,.788-1.994,10.418,10.418,0,0,0,.289-2.492,7.108,7.108,0,0,0-.459-2.651,6.4,6.4,0,0,0-1.136-1.934,4.906,4.906,0,0,0-1.545-1.176,3.837,3.837,0,0,0-1.655-.4h-.867v8.563a2.292,2.292,0,0,1,.728-.4,2.6,2.6,0,0,1,1.176,0,1,1,0,0,1,.778.768,1.825,1.825,0,0,0-1.086.11,2.054,2.054,0,0,0-.847.628,1.844,1.844,0,0,0-.439,1,2.153,2.153,0,0,0,.12,1.107,1.316,1.316,0,0,0,.548.558,1.994,1.994,0,0,0,1.1.2Z" transform="translate(-322.794 -937.847)"/><path class="a" d="M476.781,964.267H464.51a3.322,3.322,0,0,0,.4-1,9.778,9.778,0,0,0,.269-1.356,14.042,14.042,0,0,0,.13-2.123V942.846a14.049,14.049,0,0,0-.13-2.123,10.3,10.3,0,0,0-.269-1.366,3.369,3.369,0,0,0-.4-.937h11.9l-.329,3.589h-.827c-.13-.478-.249-.9-.369-1.226a1.994,1.994,0,0,0-.538-.837,2.312,2.312,0,0,0-1.057-.478,10.485,10.485,0,0,0-1.924-.14h-2.213V947.2a13.3,13.3,0,0,0,1.994,0,14.915,14.915,0,0,0,1.565-.14,7.937,7.937,0,0,0,1.336-.259,2.344,2.344,0,0,1,0,.468,3.767,3.767,0,0,1-.179,1,1.057,1.057,0,0,1-.8.708,2.262,2.262,0,0,1-1.236,0l-2.721-.768v13.507a1.476,1.476,0,0,0,.09.449,1.445,1.445,0,0,0,.329.528,1.626,1.626,0,0,0,.668.409,2.993,2.993,0,0,0,1.126.169h1.266a2.542,2.542,0,0,0,1.346-.309,2.432,2.432,0,0,0,.817-.837,4.087,4.087,0,0,0,.469-1.156c.11-.419.229-.857.349-1.3h.837Z" transform="translate(-322.844 -937.848)"/></g><g transform="translate(26.756 12.84)"><path class="b" d="M402.835,229.993v3.086a6.49,6.49,0,0,0-4.185-2.5,4.722,4.722,0,0,0,1.686-2.367l.131-.4-.312-.281a4.753,4.753,0,0,0-4.441-1.074,4.627,4.627,0,0,0-1.424.656,4.741,4.741,0,0,0-3.3-4.872l-.4-.131-.281.312a4.753,4.753,0,0,0-1.074,4.441.819.819,0,0,0,.063.2,10.993,10.993,0,0,0-9.888,0c0-.069.05-.131.063-.2a4.753,4.753,0,0,0-1.074-4.441l-.281-.312-.4.131a4.741,4.741,0,0,0-3.3,4.872,4.629,4.629,0,0,0-1.424-.656,4.772,4.772,0,0,0-4.441,1.074l-.312.281.131.4a4.722,4.722,0,0,0,1.686,2.367,6.5,6.5,0,0,0-4.185,2.5v-3.086H359v31.03l3.435,3.435,3.4-3.4a6.49,6.49,0,0,0,4.222,2.567,4.722,4.722,0,0,0-1.686,2.367l-.131.4.312.281a4.753,4.753,0,0,0,3.2,1.249,4.674,4.674,0,0,0,1.249-.162,4.778,4.778,0,0,0,1.424-.656,4.741,4.741,0,0,0,3.3,4.872l.4.131.281-.319a4.741,4.741,0,0,0,1.074-4.435.819.819,0,0,0-.062-.2,10.993,10.993,0,0,0,9.887,0,.819.819,0,0,1-.062.2,4.741,4.741,0,0,0,1.074,4.435l.281.319.4-.131a4.741,4.741,0,0,0,3.3-4.872,4.627,4.627,0,0,0,1.424.656,4.686,4.686,0,0,0,1.249.162,4.747,4.747,0,0,0,3.2-1.249l.312-.281-.131-.406a4.728,4.728,0,0,0-1.686-2.361,6.49,6.49,0,0,0,4.222-2.567l3.4,3.4,3.435-3.435v-31.03Zm-42.523,5h1.48v22.417a3.4,3.4,0,0,0-1.48.668Zm2.13,27.651-2.1-2.1a2.086,2.086,0,0,1,4.154.062Zm2.13-4.485a3.411,3.411,0,0,0-1.474-.706V234.989h1.474Zm0-24.441h-4.26v-2.386h4.26Zm31.48-5.984a3.448,3.448,0,0,1,2.886.506,3.467,3.467,0,0,1-5.128,1.374,3.448,3.448,0,0,1,2.242-1.911ZM391,223.659a3.467,3.467,0,0,1,1.374,5.122A3.454,3.454,0,0,1,391,223.659ZM375.827,225.9a3.454,3.454,0,0,1,1.874-2.242,3.454,3.454,0,0,1-1.374,5.122,3.46,3.46,0,0,1-.5-2.911Zm-6.052,2.336a3.467,3.467,0,0,1,5.128,1.374,3.467,3.467,0,0,1-5.128-1.374Zm-3.9,12.6a6.471,6.471,0,0,0,5.178,2.6h0a19.223,19.223,0,0,0-2.7,3.292l-.225.356.225.356a19.652,19.652,0,0,0,2.711,3.3h-.031a6.471,6.471,0,0,0-5.178,2.6Zm18.482-1.518a17.838,17.838,0,0,1,3.173.281.993.993,0,0,0,.187.037,17.651,17.651,0,0,1,11.262,7.445,17.651,17.651,0,0,1-14.641,7.77,17.37,17.37,0,0,1-3.236-.3h-.05a17.651,17.651,0,0,1-11.362-7.464,17.651,17.651,0,0,1,14.672-7.77Zm-11.7,27.164a3.448,3.448,0,0,1-2.886-.506,3.467,3.467,0,0,1,5.128-1.374,3.435,3.435,0,0,1-2.236,1.88Zm5.047,4.072a3.467,3.467,0,0,1-1.374-5.122,3.454,3.454,0,0,1,1.374,5.122Zm15.178-2.242A3.454,3.454,0,0,1,391,270.561a3.454,3.454,0,0,1,1.374-5.122,3.454,3.454,0,0,1,.506,2.879Zm6.052-2.336a3.467,3.467,0,0,1-5.128-1.374,3.467,3.467,0,0,1,5.128,1.374Zm-1.28-3.579a5.159,5.159,0,0,1-3.4-1.28l-.656-.575-.368.787a9.781,9.781,0,0,1-17.758,0l-.369-.787-.656.575a5.172,5.172,0,1,1-3.4-9.069,4.994,4.994,0,0,1,1.012.1,5.2,5.2,0,0,1,1.081.35,19.157,19.157,0,0,0,1.755,1.137,6.246,6.246,0,0,0-5,3.579l1.187.55a4.928,4.928,0,0,1,8.657-.537,6.7,6.7,0,0,0-1.437,2l1.187.55a5.378,5.378,0,0,1,9.756,0l1.181-.55a6.708,6.708,0,0,0-1.449-2.018,4.928,4.928,0,0,1,8.645.556l1.187-.55a6.246,6.246,0,0,0-5-3.579,18.014,18.014,0,0,0,1.761-1.137,5.2,5.2,0,0,1,1.081-.35,5,5,0,0,1,1.012-.1,5.178,5.178,0,1,1,0,10.35Zm5.178-9.057a6.471,6.471,0,0,0-5.178-2.6h-.031a19.365,19.365,0,0,0,2.711-3.3l.225-.356-.225-.356a19.225,19.225,0,0,0-2.7-3.292h0a6.471,6.471,0,0,0,5.178-2.6ZM397.651,242.1a5,5,0,0,1-1.012-.1,5.32,5.32,0,0,1-1.056-.337,18.214,18.214,0,0,0-1.768-1.149,6.246,6.246,0,0,0,5-3.579l-1.187-.55a4.928,4.928,0,0,1-8.657.537,6.77,6.77,0,0,0,1.437-2l-1.187-.55a5.378,5.378,0,0,1-9.756,0l-1.181.55a6.708,6.708,0,0,0,1.449,2.017,4.928,4.928,0,0,1-8.645-.556l-1.187.55a6.246,6.246,0,0,0,5,3.573,20.445,20.445,0,0,0-1.768,1.156,5.32,5.32,0,0,1-1.056.337,5,5,0,0,1-1.012.1,5.178,5.178,0,1,1,3.4-9.069l.656.575.369-.793a9.788,9.788,0,0,1,17.758,0l.368.793.656-.575a5.172,5.172,0,1,1,3.4,9.069Zm6.483-7.145h1.474v22.417a3.38,3.38,0,0,0-1.474.668Zm2.136,27.683-2.1-2.1a2.086,2.086,0,0,1,4.147.062Zm2.13-4.485a3.4,3.4,0,0,0-1.48-.706V234.989h1.48Zm0-24.441h-4.26v-2.386h4.26Z" transform="translate(-359 -222.109)"/><path class="b" d="M395.386,264.894a7,7,0,1,0-7-7A7,7,0,0,0,395.386,264.894Zm0-12.492a5.49,5.49,0,1,1-5.484,5.49,5.49,5.49,0,0,1,5.484-5.49Z" transform="translate(-370.033 -232.913)"/><path class="b" d="M397.205,263.69a3.979,3.979,0,1,0-2.82-1.165A3.985,3.985,0,0,0,397.205,263.69Zm0-6.059a2.074,2.074,0,1,1-1.47.605A2.074,2.074,0,0,1,397.205,257.631Z" transform="translate(-371.846 -234.727)"/></g></g></svg>