<svg width="211" height="334" viewBox="0 0 211 334" fill="none" xmlns="http://www.w3.org/2000/svg">
<g clip-path="url(#clip0_2468_6099)">
<path d="M28.1846 265.455C28.4556 265.184 28.9976 264.914 29.2686 264.643C28.4556 262.208 27.1006 260.313 25.2035 258.69C23.5775 257.066 21.4094 255.984 18.9703 255.443C14.0922 254.09 9.21404 255.443 5.41992 258.419C7.04597 263.019 10.8401 266.537 15.7182 267.89C18.4283 268.702 21.4094 268.431 23.8485 267.62C25.4745 267.078 26.8296 266.537 28.1846 265.455Z" fill="#E08433"/>
<path d="M20.0547 95.5207H22.7648C23.5778 89.8382 24.6618 84.4262 26.5589 79.2849C25.4749 80.0967 24.1198 80.9085 23.0358 81.4497C21.4097 86.0498 20.5967 90.65 20.0547 95.5207Z" fill="#006A4E"/>
<path d="M36.0437 284.667C36.5857 282.773 36.5857 280.608 36.3147 278.714C36.0437 276.008 34.6886 273.302 33.0626 271.137C32.5205 271.408 32.2495 271.408 31.7075 271.679C30.3525 272.49 28.9974 273.302 27.6424 274.385C25.7453 276.279 24.3903 278.714 23.5773 281.42C22.2222 286.291 23.5773 291.162 26.5584 294.95C30.8945 293.326 34.1466 289.809 35.7726 285.479C35.7726 285.208 36.0437 284.938 36.0437 284.667Z" fill="#006A4E"/>
<path d="M23.0353 239.207L21.1382 237.313L19.7832 235.96C20.3252 241.372 21.4093 246.513 22.7643 251.384C24.1193 251.925 25.2034 252.737 26.2874 253.549C24.9324 248.949 23.5773 244.078 23.0353 239.207Z" fill="#006A4E"/>
<path d="M18.9703 77.6611C21.4094 77.1199 23.5775 75.767 25.2035 74.1434C27.1006 72.5198 28.4556 70.355 29.2686 68.1903C28.9976 67.9197 28.4556 67.6491 28.1846 67.3785C26.8296 66.5667 25.4745 65.7549 23.8485 65.2137C21.1384 64.4019 18.4283 64.4019 15.4472 64.9431C10.8401 66.5667 7.04597 70.0844 5.41992 74.6846C9.21404 77.6611 14.3632 79.0141 18.9703 77.6611Z" fill="#006A4E"/>
<path d="M85.3666 22.4595C83.1985 23.0007 81.3015 23.5419 79.1334 24.083C78.5914 25.436 78.0494 26.789 77.2363 28.142C81.0304 26.789 84.8246 25.7066 88.8897 24.8948C87.8056 24.3536 86.4506 23.5419 85.3666 22.4595Z" fill="#006A4E"/>
<path d="M27.6435 58.7194C28.7275 59.8018 30.0826 60.8841 31.7086 61.4253C32.2506 61.6959 32.5216 61.9665 33.0636 61.9665C34.9607 59.8018 36.0447 57.0958 36.3157 54.3898C36.5868 52.4957 36.5868 50.3309 36.0447 48.4367C36.0447 48.1661 35.7737 47.8955 35.7737 47.6249C34.4187 43.2954 30.8956 39.7776 26.5595 38.1541C23.3074 41.9424 22.2233 47.0837 23.5784 51.6839C24.3914 54.3898 25.7464 56.8252 27.6435 58.7194Z" fill="#E08433"/>
<path d="M44.4452 38.4247C44.7162 38.4247 45.2582 38.6953 45.5293 38.6953C47.4263 39.2365 49.0524 39.2365 50.9494 39.2365C53.9305 38.9659 56.9116 37.6129 59.3507 35.7187C59.0797 35.1775 58.8087 34.3658 58.5377 33.8246C57.7246 32.4716 56.9116 31.1186 55.5566 30.0362C53.6595 28.4126 51.4914 27.0596 49.0524 26.2479C44.1742 24.8949 39.2961 26.2479 35.502 29.2244C36.857 33.554 40.1091 36.8011 44.4452 38.4247Z" fill="#006A4E"/>
<path d="M64.2298 30.3068C64.5008 30.848 65.0429 31.3892 65.5849 31.9304C68.566 30.848 71.276 28.6832 72.9021 26.2479C73.7151 24.8949 74.5281 23.2713 75.0702 21.6477C75.0702 21.1065 75.3412 20.5654 75.3412 20.0242C75.8832 15.9652 74.7991 11.6357 72.0891 8.11792C67.4819 9.7415 63.9588 13.5298 62.6038 18.4006C62.0618 20.8359 62.0618 23.5419 62.6038 25.7067C62.8748 27.6009 63.4168 28.9538 64.2298 30.3068Z" fill="#E08433"/>
<path d="M182.39 237.584L182.119 237.313L172.904 228.113C172.091 228.925 171.007 229.466 169.923 230.007C170.194 230.819 170.736 231.901 171.007 232.713L172.091 235.96L173.175 238.937L171.007 241.101L168.297 243.537C167.755 243.807 167.484 244.349 166.942 244.619C163.419 276.279 136.86 299.821 104.881 299.821C72.9024 299.821 46.3436 276.008 42.8205 244.619C42.2785 244.349 42.0075 243.807 41.4655 243.537L38.7554 241.101L36.5873 238.937L37.6714 235.96L38.7554 232.713C39.0264 231.901 39.2974 230.819 39.8394 230.007C38.7554 229.466 37.9424 228.654 36.8583 228.113L27.6441 237.313L27.373 237.584C32.7932 276.008 65.5852 304.421 104.881 304.421C144.178 304.692 176.97 276.008 182.39 237.584Z" fill="#E08433"/>
<path d="M91.8727 311.727C90.5177 312.539 89.1626 313.35 87.8076 314.433C87.5366 314.703 86.9946 315.245 86.7235 315.515C84.0135 319.033 82.9294 323.363 83.4714 327.692C88.3496 328.504 93.2277 326.88 96.7508 323.633C98.6479 321.739 99.7319 319.574 100.545 317.409C101.087 315.786 101.358 314.162 101.087 312.539C101.087 311.727 101.087 310.915 100.816 310.374C98.1059 309.833 94.8538 310.374 91.8727 311.727Z" fill="#E08433"/>
<path d="M89.1612 307.939C85.096 307.127 81.3019 306.044 77.5078 304.691C78.3208 306.044 78.8629 307.397 79.4049 308.75C81.3019 309.292 83.47 309.833 85.6381 310.374C86.4511 309.562 87.8061 308.75 89.1612 307.939Z" fill="#006A4E"/>
<path d="M88.0769 18.4006C89.161 19.4829 90.516 20.5653 92.1421 21.1065C95.1231 22.4595 98.3752 23.0007 101.627 22.4595C101.627 21.6477 101.898 20.8359 101.898 20.2947C101.898 18.6712 101.627 17.0476 101.356 15.424C100.543 12.9886 99.4593 10.8239 97.5622 9.20028C94.0391 5.68253 89.161 4.05895 84.2828 5.14134C83.4698 9.47088 84.5538 13.8004 87.5349 17.3182C87.2639 17.5888 87.5349 17.8594 88.0769 18.4006Z" fill="#006A4E"/>
<path d="M75.0697 311.186C74.5277 309.562 73.9856 307.939 72.9016 306.586C71.0046 303.88 68.5655 301.986 65.5844 300.903C65.0424 301.445 64.7714 301.986 64.2294 302.527C63.4163 303.88 62.8743 305.503 62.3323 306.856C61.7903 309.292 61.7903 311.727 62.3323 314.163C63.6873 319.033 67.2104 322.822 71.8176 324.445C74.5277 321.198 75.8827 316.598 75.0697 312.268C75.3407 312.268 75.0697 311.727 75.0697 311.186Z" fill="#006A4E"/>
<path d="M45.5288 294.138C45.2578 294.138 44.7158 294.409 44.4447 294.409C40.1086 296.032 36.8565 299.279 35.2305 303.609C39.0246 306.856 44.1737 307.939 48.7809 306.586C51.22 306.044 53.388 304.691 55.2851 302.797C56.3691 301.715 57.4531 300.362 58.2662 299.009C58.5372 298.468 58.8082 297.656 59.0792 297.115C56.6401 295.221 53.93 293.868 50.6779 293.597C49.0519 293.597 47.4258 293.868 45.5288 294.138Z" fill="#E08433"/>
<path d="M27.6426 95.5207H37.6699L36.8569 92.8148L39.0249 90.65L41.735 88.2146C42.277 87.6734 42.819 87.4028 43.09 87.1322C47.1552 56.0137 73.172 32.7424 104.88 32.7424C136.588 32.7424 162.876 56.0137 166.67 87.1322C167.212 87.4028 167.754 87.944 168.025 88.2146L170.735 90.65L172.903 92.8148L172.09 95.5207H182.117C176.697 57.0961 143.905 28.4128 104.609 28.4128C65.5837 28.4128 32.7917 57.0961 27.6426 95.5207Z" fill="#E08433"/>
<path d="M117.89 21.1066C119.245 20.2948 120.6 19.483 121.955 18.4007C122.226 18.1301 122.768 17.5889 123.039 17.3183C125.749 13.8005 126.833 9.47098 126.291 5.14144C121.413 4.32965 116.535 5.95323 113.011 9.20039C111.114 11.0946 110.03 13.2593 109.217 15.4241C108.675 17.0477 108.404 18.6713 108.404 20.2948C108.404 21.1066 108.404 21.9184 108.675 22.4596C111.927 23.0008 115.18 22.4596 117.89 21.1066Z" fill="#E08433"/>
<path d="M63.1451 67.9195L56.3699 64.1311C53.6598 68.19 51.7628 72.5196 50.1367 77.3903L58.809 79.0139C59.893 74.955 61.2481 71.1666 63.1451 67.9195Z" fill="#E08433"/>
<path d="M48.5117 84.1555C49.8668 83.6143 51.4928 83.0731 52.8479 82.8025L48.7827 81.9907C48.7827 82.5319 48.7827 83.3437 48.5117 84.1555Z" fill="#006A4E"/>
<path d="M120.869 25.1656C124.934 25.9774 128.728 27.0598 132.522 28.4127C131.709 27.0598 131.167 25.7068 130.625 24.3538C128.728 23.8126 126.56 23.2714 124.392 22.7302C123.579 23.542 122.224 24.3538 120.869 25.1656Z" fill="#006A4E"/>
<path d="M173.986 48.4367C173.444 50.3309 173.444 52.4957 173.715 54.3898C173.986 57.0958 175.341 59.8018 176.967 61.9665C177.509 61.6959 177.78 61.6959 178.322 61.4253C179.677 60.6136 181.032 59.8018 182.387 58.7194C184.284 56.8252 185.911 54.3898 186.453 51.6839C187.808 46.8131 186.453 41.9424 183.471 38.1541C179.135 39.7776 175.883 43.2954 174.257 47.6249C174.257 47.6249 173.986 47.8955 173.986 48.4367Z" fill="#006A4E"/>
<path d="M73.444 55.2019L69.1079 50.0605C65.5848 53.0371 62.0616 56.2843 59.3516 60.0726L65.8558 63.861C68.0238 60.6138 70.4629 57.9078 73.444 55.2019Z" fill="#006A4E"/>
<path d="M134.962 21.9183C135.504 23.5419 136.046 25.1655 137.13 26.5185C139.027 29.2244 141.467 31.1186 144.448 32.201C144.99 31.6598 145.261 31.1186 145.803 30.5774C146.616 29.2244 147.158 27.6009 147.7 26.2479C148.242 23.8125 148.242 21.3771 147.7 18.9418C146.345 13.8004 142.551 9.7415 137.943 8.11792C135.233 11.3651 133.878 15.9652 134.691 20.2948C134.691 20.8359 134.962 21.3771 134.962 21.9183Z" fill="#006A4E"/>
<path d="M164.502 38.6953C164.773 38.6953 165.315 38.4247 165.586 38.4247C169.922 36.8012 173.174 33.554 174.8 29.2245C171.006 25.9773 165.857 24.8949 161.249 26.2479C158.81 26.7891 156.642 28.1421 154.745 30.0363C153.661 31.1186 152.577 32.4716 151.764 33.8246C151.493 34.3658 151.222 35.1776 150.951 35.7188C153.39 37.6129 156.1 38.9659 159.352 39.2365C160.978 39.5071 162.605 39.2365 164.502 38.6953Z" fill="#E08433"/>
<path d="M50.1362 44.1073C49.8651 44.1073 49.5941 44.1073 49.3231 44.1073C48.2391 44.1073 46.8841 43.8367 45.8 43.8367C44.174 45.4602 42.5479 47.0838 40.9219 48.978C41.1929 50.331 41.1929 51.9546 41.1929 53.3075C43.903 49.7898 46.8841 46.8132 50.1362 44.1073Z" fill="#006A4E"/>
<path d="M160.438 44.1071C160.167 44.1071 159.896 44.1071 159.625 44.1071C162.877 46.813 165.858 50.0602 168.568 53.3074C168.568 51.9544 168.568 50.3308 168.839 48.9778C167.213 47.3542 165.587 45.4601 163.961 44.1071C162.877 43.8365 161.793 44.1071 160.438 44.1071Z" fill="#006A4E"/>
<path d="M159.624 77.1198C157.998 72.5197 156.101 67.9195 153.39 63.8606L146.615 67.6489C148.512 70.8961 149.867 74.6844 150.951 78.4728L159.624 77.1198Z" fill="#006A4E"/>
<path d="M125.205 41.1306L123.037 46.8131C126.56 48.1661 129.812 50.0603 133.064 52.2251L137.13 47.3543C133.335 44.919 129.27 42.7542 125.205 41.1306Z" fill="#006A4E"/>
<path d="M140.924 50.3311L136.588 55.4724C139.569 57.9078 142.008 60.8843 144.176 64.1315L150.68 60.3431C147.97 56.5548 144.718 53.037 140.924 50.3311Z" fill="#E08433"/>
<path d="M160.98 81.72L157.186 82.5318C158.812 82.8024 160.167 83.3435 161.522 83.8847C161.251 83.3435 161.251 82.5318 160.98 81.72Z" fill="#E08433"/>
<path d="M102.712 37.613C98.1044 37.8836 93.7682 38.4248 89.7031 39.7778L91.6002 45.1897C95.1233 44.1073 98.9174 43.5662 102.712 43.2956V37.613Z" fill="#006A4E"/>
<path d="M86.9928 46.8131L84.8248 41.1306C80.4886 42.7542 76.4235 44.6484 72.9004 47.3543L76.9655 52.2251C80.2176 50.0603 83.4697 48.1661 86.9928 46.8131Z" fill="#E08433"/>
<path d="M107.32 37.613V43.2956C111.114 43.5662 114.909 44.1073 118.432 45.1897L120.329 39.7778C116.264 38.6954 111.927 37.8836 107.32 37.613Z" fill="#E08433"/>
<path d="M50.1362 288.997C46.8841 286.291 43.903 283.044 41.1929 279.797C41.1929 281.15 41.1929 282.773 40.9219 284.126C42.5479 285.75 44.174 287.644 45.8 289.268C47.4261 288.997 48.7811 288.997 50.1362 288.997Z" fill="#006A4E"/>
<path d="M150.409 103.638C154.203 102.556 157.184 100.121 158.539 96.603C155.558 94.4382 151.493 93.6264 147.97 94.7088C144.176 95.7912 141.195 98.2265 139.84 101.744C142.821 103.909 146.615 104.721 150.409 103.638Z" fill="#E08433"/>
<path d="M137.129 166.146C137.129 176.7 131.98 185.9 124.121 191.853C137.943 187.523 150.409 178.594 158.81 166.146C150.409 153.699 138.214 144.769 124.121 140.44C131.98 146.393 137.129 155.593 137.129 166.146Z" fill="#E08433"/>
<path d="M51.2207 166.146C59.622 178.594 71.8173 187.523 85.9098 191.853C78.0505 185.9 72.9014 176.7 72.9014 166.146C72.9014 155.593 78.0505 146.393 85.9098 140.44C71.8173 144.769 59.622 153.699 51.2207 166.146Z" fill="#E08433"/>
<path d="M77.7793 166.146C77.7793 181.3 89.9747 193.476 105.151 193.476C120.328 193.476 132.523 181.3 132.523 166.146C132.523 150.993 120.328 138.816 105.151 138.816C89.9747 138.816 77.7793 150.993 77.7793 166.146ZM104.88 148.287C114.636 148.287 122.767 156.134 122.767 166.146C122.767 175.888 114.907 184.006 104.88 184.006C95.1238 184.006 86.9936 176.158 86.9936 166.146C87.2646 156.134 95.1238 148.287 104.88 148.287Z" fill="#F9F9F4"/>
<path d="M82.3862 90.3792C83.4702 86.5908 82.6572 82.8025 80.4891 79.8259C76.966 81.4495 74.5269 84.4261 73.4429 87.9438C72.3589 91.7322 73.1719 95.5205 75.34 98.4971C78.8631 97.1441 81.5732 94.1675 82.3862 90.3792Z" fill="#E08433"/>
<path d="M134.419 98.7676C136.587 95.791 137.4 91.7321 136.316 88.2143C135.232 84.426 132.793 81.4494 129.27 80.0964C127.102 83.073 126.289 87.1319 127.373 90.6497C128.457 94.1674 131.167 97.144 134.419 98.7676Z" fill="#E08433"/>
<path d="M56.1 179.406C52.5769 175.888 49.0537 171.829 46.3437 167.229L45.5306 165.876L46.3437 164.523C49.3248 160.193 52.5768 156.134 56.371 152.346C48.5117 152.346 41.7365 148.558 37.4004 142.875V188.876C41.4655 183.194 48.2407 179.406 56.1 179.406Z" fill="#006A4E"/>
<path d="M187.267 81.4497C185.912 80.9085 184.828 80.0967 183.744 79.2849C185.37 84.4262 186.725 89.8382 187.538 95.5207H190.248C189.435 90.65 188.622 86.0498 187.267 81.4497Z" fill="#006A4E"/>
<path d="M169.922 107.427C168.025 105.803 165.586 104.721 163.418 103.909C164.773 102.015 165.857 99.85 166.67 97.6853L167.754 94.4381L165.044 92.0028C161.25 88.485 156.372 86.5908 151.223 86.5908C149.326 86.5908 147.7 86.8614 145.803 87.4026C145.261 87.6732 144.719 87.6732 144.176 87.9438C144.176 87.4026 143.905 86.8614 143.905 86.3202C142.008 79.5553 137.13 74.1434 130.355 71.9786L127.103 70.8962L124.664 73.6022C121.141 77.6611 119.244 82.5319 119.244 87.6732C114.637 86.0496 109.758 85.2378 104.88 85.2378C100.002 85.2378 95.124 86.0496 90.5169 87.6732C90.5169 82.5319 88.6198 77.3906 85.0967 73.6022L82.6576 70.8962L79.4055 71.9786C72.6303 74.1434 67.7522 79.5553 65.8551 86.3202C65.5841 86.8614 65.5841 87.4026 65.5841 87.9438C65.0421 87.6732 64.5001 87.6732 63.958 87.4026C62.061 86.8614 60.4349 86.5908 58.5379 86.5908C53.3887 86.5908 48.5106 88.485 44.7164 92.0028L42.0064 94.4381L43.0904 97.6853C43.9034 99.85 44.9875 102.015 46.3425 103.909C43.9034 104.721 41.7354 106.074 39.8383 107.427V100.391H8.94336V218.371L24.3908 234.066L36.5862 221.889C39.2963 224.866 42.8194 227.03 46.6135 228.383C45.2585 230.277 44.1744 232.442 43.3614 234.607L42.2774 237.854L44.9875 240.29C48.7816 243.807 53.9307 245.701 58.8089 245.701C60.4349 245.701 62.332 245.431 63.958 244.89C64.5001 244.619 65.0421 244.619 65.5841 244.349C65.5841 244.89 65.8551 245.431 65.8551 245.972C67.7522 252.737 72.6303 258.149 79.4055 260.314L82.6576 261.396L85.0967 258.69C88.6198 254.631 90.5169 249.76 90.5169 244.619C95.124 246.243 100.002 247.054 104.88 247.054C109.758 247.054 114.637 246.243 119.244 244.619C119.244 249.76 121.141 254.902 124.664 258.69L127.103 261.396L130.355 260.314C137.13 258.149 142.008 252.737 143.905 245.972C144.176 245.431 144.176 244.89 144.176 244.349C144.719 244.619 145.261 244.619 145.803 244.89C147.429 245.431 149.326 245.701 150.952 245.701C156.101 245.701 160.979 243.807 164.773 240.29L167.483 237.854L166.399 234.607C165.586 232.442 164.502 230.277 163.147 228.383C166.941 227.03 170.193 224.866 173.174 221.889L185.37 234.066L201.088 218.371V100.391H169.922V107.427ZM172.903 114.733V103.368H198.107V217.289L185.37 230.007L172.903 217.559C169.38 222.43 163.689 225.948 157.456 227.03C160.437 229.195 162.605 232.172 163.689 235.689L164.231 237.042L163.147 238.125C159.895 241.101 155.559 242.725 151.494 242.725C149.868 242.725 148.513 242.454 146.887 242.184C144.99 241.643 143.363 240.831 141.737 239.748C141.737 241.643 141.737 243.537 141.195 245.431C139.569 251.113 135.233 255.714 129.542 257.608L128.187 258.149L127.103 257.067C123.038 252.737 121.683 246.513 123.038 240.831C123.038 240.56 123.309 240.29 123.309 240.019C117.889 242.725 111.655 244.349 105.151 244.349C98.6471 244.349 92.4139 242.725 86.9937 240.019C86.9937 240.29 87.2648 240.56 87.2648 240.831C88.8908 246.513 87.2648 252.737 83.1996 257.067L82.1156 258.149L80.7606 257.608C75.0694 255.714 70.7332 251.113 69.1072 245.431C68.5652 243.537 68.5652 241.643 68.5652 239.748C66.9391 240.831 65.3131 241.643 63.416 242.184C61.79 242.454 60.4349 242.725 58.8089 242.725C54.4728 242.725 50.4076 241.101 47.1555 238.125L46.0715 237.042L46.6135 235.689C47.6975 232.172 49.8656 229.195 52.8467 227.03C46.6135 225.948 40.9223 222.701 37.3992 217.559L24.3908 229.736L11.6534 217.018V215.936V103.368H36.8572V114.733C40.3803 109.862 46.0715 106.615 52.3047 105.533C49.3236 103.368 47.1555 100.391 46.0715 96.8735L45.5295 95.5205L46.6135 94.4381C50.9496 90.3792 57.1828 89.0262 62.874 90.3792C64.7711 90.9204 66.3971 91.7322 68.0232 92.8145C68.0232 90.9204 68.0232 89.0262 68.5652 87.132C70.1912 81.4495 74.5274 76.8494 80.2185 74.9552L81.5736 74.414L82.6576 75.4964C86.7227 79.8259 88.0778 86.0496 86.7227 91.7322C86.7227 92.0028 86.4517 92.2734 86.4517 92.5439C91.8719 89.838 98.1051 88.2144 104.609 88.2144C111.113 88.2144 117.347 89.838 122.767 92.5439C122.767 92.2734 122.496 92.0028 122.496 91.7322C120.87 86.0496 122.496 79.8259 126.561 75.4964L127.645 74.414L129 74.9552C134.691 76.8494 139.027 81.4495 140.653 87.132C141.195 89.0262 141.195 90.9204 141.195 92.8145C142.821 91.7322 144.447 90.9204 146.345 90.3792C152.036 88.7556 158.269 90.3792 162.605 94.4381L163.689 95.5205L163.147 96.8735C162.063 100.391 159.895 103.368 156.914 105.533C163.689 106.344 169.38 109.862 172.903 114.733Z" fill="#006A4E"/>
<path d="M141.468 114.462L139.028 116.627L137.673 113.65C131.711 100.932 118.974 92.8145 105.152 92.8145C91.331 92.8145 78.3226 100.932 72.6315 113.65L71.2764 116.627L68.8373 114.462C65.3142 111.486 60.9781 109.862 56.371 109.862C45.8016 109.862 37.4004 118.251 37.4004 128.804C37.4004 139.357 45.8016 147.746 56.371 147.746C57.726 147.746 58.81 147.746 60.1651 147.475C61.5201 147.204 62.8752 146.663 63.9592 146.122C66.1273 144.498 68.2953 143.145 70.4634 141.792C62.6042 140.981 55.5579 135.839 52.0348 128.804L56.371 126.91C59.3521 133.404 65.8563 137.463 72.9025 137.463C79.1357 137.463 84.8268 134.216 88.3499 129.074C86.1819 126.91 84.2848 124.474 82.9298 121.768L87.2659 119.874C90.518 126.91 97.5642 131.239 105.152 131.239C112.741 131.239 119.787 126.639 123.039 119.874L127.375 121.768C126.02 124.474 124.394 126.91 122.226 129.074C125.478 134.216 131.44 137.733 137.673 137.733C144.72 137.733 151.224 133.674 154.205 127.18L158.541 129.074C155.018 136.38 147.972 141.251 140.113 142.334C142.281 143.687 144.449 145.04 146.617 146.663C147.972 147.204 149.056 147.746 150.411 148.016C151.495 148.287 152.85 148.287 154.205 148.287C164.774 148.287 173.176 139.898 173.176 129.345C173.176 118.792 164.774 110.403 154.205 110.403C149.327 109.862 144.991 111.486 141.468 114.462Z" fill="#F9F9F4"/>
<path d="M194.312 65.2138C191.602 64.402 188.621 64.6726 186.182 65.4844C184.556 66.0256 183.201 66.5668 181.846 67.6492C181.575 67.9197 181.033 68.1903 180.762 68.4609C181.575 70.8963 182.93 72.7905 184.827 74.4141C186.453 76.0376 188.621 77.12 191.06 77.6612C195.938 79.0142 200.816 77.6612 204.61 74.6847C202.984 70.0845 199.19 66.5668 194.312 65.2138Z" fill="#E08433"/>
<path d="M59.6224 228.383C55.8283 229.466 52.8472 231.901 51.4922 235.419C54.4733 237.583 58.5384 238.395 62.0615 237.313C65.8556 236.23 68.8367 233.795 70.1918 230.277C67.2107 228.113 63.4166 227.571 59.6224 228.383Z" fill="#E08433"/>
<path d="M127.644 241.643C126.56 245.431 127.373 249.219 129.541 252.196C133.064 250.572 135.503 247.596 136.587 244.078C137.671 240.29 136.858 236.501 134.69 233.525C131.167 234.878 128.457 237.854 127.644 241.643Z" fill="#E08433"/>
<path d="M75.6115 233.254C73.4434 236.231 72.6304 240.29 73.7144 243.807C74.7984 247.596 77.2375 250.572 80.7606 251.925C82.9287 248.949 83.7417 244.89 82.6577 241.372C81.5736 237.854 78.8636 234.878 75.6115 233.254Z" fill="#E08433"/>
<path d="M150.409 228.383C146.615 227.301 142.821 228.113 139.84 230.277C141.466 233.795 144.447 236.23 147.97 237.313C151.764 238.395 155.558 237.583 158.539 235.419C156.913 231.901 153.932 229.465 150.409 228.383Z" fill="#E08433"/>
<path d="M153.932 184.276C152.577 184.276 151.493 184.276 150.138 184.547C148.783 184.817 147.428 185.359 146.073 185.9C143.905 187.523 141.737 188.876 139.569 189.959C147.428 190.771 154.475 195.641 157.998 203.218L153.661 205.112C150.68 198.618 144.176 194.559 137.13 194.559C130.897 194.559 125.206 197.806 121.683 202.947C123.851 205.112 125.748 207.547 127.103 210.253L122.767 212.148C119.514 205.112 112.468 200.783 104.88 200.783C97.2918 200.783 90.2456 205.383 86.9935 212.148L82.6573 210.253C84.0124 207.547 85.6384 205.112 87.8065 202.947C84.5544 197.806 78.5922 194.288 72.359 194.288C65.3128 194.288 58.8086 198.347 55.8275 204.842L51.4914 202.947C55.0145 195.641 62.0607 190.771 69.9199 189.688C67.7519 188.335 65.5838 186.982 63.4158 185.629C62.0607 185.088 60.7057 184.547 59.3506 184.276C58.2666 184.006 56.9116 184.006 55.5565 184.006C44.9872 184.006 36.5859 192.394 36.5859 202.947C36.5859 213.501 44.9872 221.889 55.5565 221.889C60.1637 221.889 64.4998 220.266 68.0229 217.289L70.462 215.124L71.817 218.101C77.7792 230.819 90.5166 238.937 104.338 238.937C118.159 238.937 131.168 230.819 136.859 218.101L138.214 215.124L140.653 217.289C144.176 220.266 148.512 221.889 153.119 221.889C163.689 221.889 172.09 213.501 172.09 202.947C172.903 192.665 164.502 184.276 153.932 184.276Z" fill="#F9F9F4"/>
<path d="M153.931 152.616C157.454 156.134 160.977 160.193 163.687 164.793L164.5 166.146L163.687 167.499C160.706 172.099 157.454 175.887 153.66 179.676C161.519 179.676 168.295 183.464 172.631 189.147V143.145C168.566 148.828 161.79 152.616 153.931 152.616Z" fill="#006A4E"/>
<path d="M59.6224 103.638C63.4166 104.721 67.2107 103.909 70.1918 101.744C68.5657 98.2265 65.5846 95.7912 62.0615 94.7088C58.2674 93.6264 54.4733 94.4382 51.4922 96.603C53.1182 100.121 56.0993 102.556 59.6224 103.638Z" fill="#E08433"/>
<path d="M182.387 274.385C181.303 273.302 179.948 272.22 178.322 271.679C177.78 271.408 177.509 271.137 176.967 271.137C175.07 273.302 173.986 276.008 173.715 278.714C173.444 280.608 173.444 282.773 173.986 284.667C173.986 284.938 174.257 285.208 174.257 285.479C175.612 289.809 179.135 293.326 183.471 294.95C186.724 291.162 187.808 286.02 186.453 281.42C185.639 278.714 184.284 276.279 182.387 274.385Z" fill="#E08433"/>
<path d="M121.954 314.704C120.87 313.621 119.515 312.539 117.889 311.998C114.908 310.645 111.656 310.103 108.404 310.645C108.404 311.456 108.133 312.268 108.133 312.809C108.133 314.433 108.404 316.057 108.675 317.68C109.488 320.116 110.572 322.28 112.469 323.904C115.992 327.422 120.87 329.045 125.748 327.963C126.561 323.633 125.206 319.304 122.496 315.786C122.767 315.515 122.496 314.974 121.954 314.704Z" fill="#006A4E"/>
<path d="M165.587 294.679C165.316 294.679 164.774 294.409 164.503 294.409C162.606 293.868 160.98 293.868 159.083 293.868C156.102 294.138 153.121 295.491 150.682 297.385C150.953 297.927 151.224 298.738 151.495 299.28C152.308 300.633 153.121 301.986 154.476 303.068C156.373 304.692 158.541 306.045 160.98 306.856C165.858 308.209 170.736 306.856 174.53 303.88C173.175 299.28 169.923 296.032 165.587 294.679Z" fill="#006A4E"/>
<path d="M145.803 302.527C145.532 301.986 144.99 301.445 144.448 300.903C141.467 301.986 138.756 304.15 137.13 306.586C136.317 307.939 135.504 309.562 134.962 311.186C134.962 311.727 134.691 312.268 134.691 312.81C133.878 317.139 135.233 321.469 137.943 324.986C142.551 323.363 146.074 319.574 147.429 314.704C147.971 312.268 147.971 309.562 147.429 307.398C147.158 305.503 146.616 303.88 145.803 302.527Z" fill="#E08433"/>
<path d="M124.664 310.645C126.832 310.104 128.729 309.562 130.897 309.021C131.439 307.668 131.981 306.315 132.794 304.962C129 306.315 125.206 307.398 121.141 308.209C122.225 308.751 123.58 309.562 124.664 310.645Z" fill="#006A4E"/>
<path d="M183.201 121.498H177.781V128.804V203.218V206.465C179.407 205.112 181.304 204.3 183.201 204.03V121.498Z" fill="#E08433"/>
<path d="M159.895 288.997C161.25 288.997 162.876 288.997 164.231 289.268C165.857 287.644 167.483 286.02 169.109 284.126C168.838 282.773 168.838 281.15 168.838 279.797C166.128 283.044 163.147 286.291 159.895 288.997Z" fill="#006A4E"/>
<path d="M150.68 272.761L144.176 268.973C142.008 272.22 139.298 274.926 136.588 277.632L140.924 282.773C144.718 279.797 147.97 276.549 150.68 272.761Z" fill="#E08433"/>
<path d="M161.521 247.866C159.353 248.949 156.914 249.49 154.475 249.76L160.979 250.843C161.25 250.031 161.521 248.949 161.521 247.866Z" fill="#E08433"/>
<path d="M146.887 265.184L153.662 268.973C156.372 264.914 158.269 260.584 159.895 255.713L151.223 254.36C150.139 258.149 148.784 261.666 146.887 265.184Z" fill="#006A4E"/>
<path d="M123.037 286.02L125.205 291.703C129.541 290.079 133.606 288.185 137.13 285.479L133.064 280.608C129.812 282.773 126.56 284.667 123.037 286.02Z" fill="#006A4E"/>
<path d="M107.318 295.22C111.925 294.95 116.262 294.409 120.327 293.056L118.43 287.644C114.907 288.726 111.112 289.267 107.318 289.538V295.22Z" fill="#E08433"/>
<path d="M102.712 295.22V289.538C98.9174 289.267 95.1233 288.726 91.6002 287.644L89.7031 293.056C93.7682 294.409 98.1044 294.95 102.712 295.22Z" fill="#006A4E"/>
<path d="M65.5823 269.243L59.0781 273.032C61.7882 276.82 65.3113 280.067 68.8344 283.044L73.1706 277.902C70.4605 275.197 68.0214 272.22 65.5823 269.243Z" fill="#006A4E"/>
<path d="M49.0518 251.113L55.556 250.031C53.1169 249.76 50.6778 248.949 48.5098 248.137C48.5098 248.949 48.7808 250.031 49.0518 251.113Z" fill="#006A4E"/>
<path d="M50.4062 255.713C52.0323 260.313 53.9294 264.914 56.6394 268.973L63.4146 265.184C61.5176 261.937 60.1625 258.149 59.0785 254.36L50.4062 255.713Z" fill="#E08433"/>
<path d="M86.9928 286.02C83.4697 284.667 80.2176 282.773 76.9655 280.608L72.9004 285.479C76.6945 287.914 80.7596 290.079 84.8248 291.703L86.9928 286.02Z" fill="#E08433"/>
<path d="M32.2497 107.968H16.5312V116.627H32.2497V107.968Z" fill="#F9F9F4"/>
<path d="M188.08 204.03C189.977 204.571 191.874 205.383 193.5 206.736V121.498H188.08V204.03Z" fill="#E08433"/>
<path d="M193.5 107.968H177.781V116.627H193.5V107.968Z" fill="#F9F9F4"/>
<path d="M26.8301 204.03C28.7271 204.571 30.6242 205.383 32.2502 206.736V203.488V128.804V121.498H26.8301V204.03Z" fill="#E08433"/>
<path d="M185.369 208.359C181.304 208.359 178.323 211.336 177.781 215.124L185.64 222.971L193.229 215.395C192.687 211.606 189.435 208.359 185.369 208.359Z" fill="#F9F9F4"/>
<path d="M21.9514 121.498H16.5312V206.194C18.1573 204.841 20.0544 204.03 21.9514 203.759V121.498Z" fill="#E08433"/>
<path d="M190.248 236.231L188.893 237.584L186.996 239.207C186.183 244.078 185.099 248.949 183.473 253.549C184.557 252.737 185.912 251.925 186.996 251.384C188.622 246.513 189.706 241.372 190.248 236.231Z" fill="#006A4E"/>
<path d="M191.06 255.443C188.621 255.984 186.453 257.337 184.827 258.961C182.93 260.584 181.575 262.749 180.762 264.914C181.033 265.185 181.575 265.455 181.846 265.726C183.201 266.538 184.556 267.349 186.182 267.891C188.892 268.702 191.602 268.702 194.583 268.161C199.461 266.808 203.255 263.29 204.881 258.69C200.816 255.173 195.667 254.09 191.06 255.443Z" fill="#006A4E"/>
<path d="M24.391 208.359C20.3258 208.359 17.3448 211.336 16.8027 215.124L24.391 222.971L31.9792 215.395C31.7082 211.606 28.4561 208.359 24.391 208.359Z" fill="#F9F9F4"/>
<path d="M104.881 183.735C114.637 183.735 122.767 175.888 122.767 165.875C122.767 156.134 114.908 148.016 104.881 148.016C95.1244 148.016 86.9941 155.863 86.9941 165.875C87.2651 175.888 95.1244 183.735 104.881 183.735Z" fill="#072119"/>
<path d="M172.905 103.368V114.733C169.382 109.862 163.69 106.615 157.457 105.533C160.438 103.368 162.606 100.391 163.69 96.8736L164.232 95.5206L163.148 94.4382C158.812 90.3792 152.579 89.0263 146.888 90.3792C144.991 90.9204 143.365 91.7322 141.739 92.8146C141.739 90.9204 141.739 89.0263 141.197 87.1321C139.571 81.4496 135.235 76.8494 129.543 74.9553L128.188 74.4141L127.104 75.4964C123.039 79.826 121.684 86.0497 123.039 91.7322C123.039 92.0028 123.31 92.2734 123.31 92.544C117.89 89.8381 111.657 88.2145 105.153 88.2145C98.6484 88.2145 92.4152 89.8381 86.9951 92.544C86.9951 92.2734 87.2661 92.0028 87.2661 91.7322C88.8921 86.0497 87.2661 79.826 83.201 75.4964L82.1169 74.4141L80.7619 74.9553C75.0707 76.8494 70.7346 81.4496 69.1085 87.1321C68.5665 89.0263 68.5665 90.9204 68.5665 92.8146C66.9405 91.7322 65.3144 90.9204 63.4173 90.3792C57.7262 88.7557 51.493 90.3792 47.1569 94.4382L46.0728 95.5206L46.6148 96.8736C47.6989 100.391 49.8669 103.368 52.848 105.533C46.6148 106.615 41.1947 109.862 37.4006 114.733V103.368H11.9258V216.207V217.289L24.3922 229.736L36.8585 217.289C40.3816 222.16 46.0728 225.677 52.306 226.76C49.3249 228.925 47.1569 231.901 46.0728 235.419L45.5308 236.772L46.6148 237.854C49.8669 240.831 54.2031 242.454 58.2682 242.454C59.8942 242.454 61.2493 242.184 62.8753 241.913C64.7724 241.372 66.3984 240.56 68.0245 239.478C68.0245 241.372 68.0245 243.266 68.5665 245.16C70.1926 250.843 74.5287 255.443 80.2199 257.337L81.5749 257.878L82.6589 256.796C86.7241 252.466 88.0791 246.243 86.7241 240.56C86.7241 240.29 86.453 240.019 86.453 239.748C91.8732 242.454 98.1064 244.078 104.611 244.078C111.115 244.078 117.348 242.454 122.768 239.748C122.768 240.019 122.497 240.29 122.497 240.56C120.871 246.243 122.497 252.466 126.562 256.796L127.646 257.878L129.001 257.337C134.692 255.443 139.029 250.843 140.655 245.16C141.197 243.266 141.197 241.372 141.197 239.478C142.823 240.56 144.449 241.372 146.346 241.913C147.972 242.184 149.327 242.454 150.953 242.454C155.289 242.454 159.354 240.831 162.606 237.854L163.69 236.772V235.419C162.606 231.901 160.438 228.925 157.457 226.76C163.69 225.677 169.382 222.43 172.905 217.289L185.371 229.736L198.108 217.018V103.368H172.905ZM16.5329 121.498H21.9531V203.759C20.056 204.03 18.159 205.112 16.5329 206.194V121.498ZM24.3922 222.971L16.5329 215.124C17.0749 211.336 20.327 208.359 24.3922 208.359C28.4573 208.359 31.7094 211.336 31.9804 215.395L24.3922 222.971ZM32.2514 128.804V203.218V206.465C30.6253 205.112 28.7283 204.3 26.8312 203.759V121.498H32.2514V128.804ZM32.2514 116.898H16.5329V108.239H32.2514V116.898ZM147.972 94.9794C151.766 93.897 155.56 94.7088 158.541 96.8736C156.915 100.391 153.934 102.827 150.411 103.909C146.617 104.991 142.823 104.18 139.842 102.015C141.468 98.4971 144.449 95.7912 147.972 94.9794ZM129.543 79.826C133.066 81.4496 135.506 84.4261 136.59 87.9439C137.674 91.7322 136.861 95.5206 134.693 98.4971C131.169 96.8736 128.73 93.897 127.646 90.3792C126.562 86.8615 127.375 83.0731 129.543 79.826ZM73.7157 88.2145C74.7997 84.4261 77.2388 81.4496 80.7619 80.0966C82.9299 83.0731 83.743 87.1321 82.6589 90.6498C81.5749 94.4382 79.1358 97.4147 75.6127 98.7677C73.4446 95.7912 72.6316 91.7322 73.7157 88.2145ZM51.493 96.8736C54.4741 94.7088 58.5392 93.897 62.0623 94.9794C65.8564 96.0618 68.8375 98.4971 70.1926 102.015C67.2115 104.18 63.1463 104.991 59.6232 103.909C56.1001 102.556 53.119 100.121 51.493 96.8736ZM37.1295 143.146C41.4657 148.828 48.2409 152.616 56.1001 152.616C52.306 156.134 49.0539 160.193 46.0728 164.793L45.2598 166.146L46.0728 167.499C49.0539 172.099 52.306 175.888 56.1001 179.676C48.2409 179.676 41.4657 183.464 37.1295 189.147V143.146ZM132.253 166.146C132.253 181.3 120.058 193.476 104.882 193.476C89.7051 193.476 77.5098 181.3 77.5098 166.146C77.5098 150.993 89.7051 138.816 104.882 138.816C120.058 138.816 132.253 150.993 132.253 166.146ZM124.123 140.44C137.945 144.769 150.411 153.699 158.812 166.146C150.411 178.594 138.216 187.523 124.123 191.853C131.982 185.9 137.132 176.699 137.132 166.146C137.132 155.593 131.982 146.393 124.123 140.44ZM117.619 198.618C117.619 198.618 117.89 198.618 117.619 198.618C117.89 198.618 117.619 198.618 117.619 198.618ZM92.1442 198.347C92.1442 198.347 91.8732 198.347 92.1442 198.347C91.8732 198.347 92.1442 198.347 92.1442 198.347ZM72.9026 166.146C72.9026 176.699 78.0518 185.9 85.911 191.853C72.0896 187.523 59.6232 178.594 51.222 166.146C59.6232 153.699 71.8186 144.769 85.911 140.44C78.0518 146.393 72.9026 155.593 72.9026 166.146ZM62.0623 237.313C58.2682 238.125 54.4741 237.584 51.493 235.419C53.119 231.901 56.1001 229.466 59.6232 228.383C63.4173 227.301 67.2115 228.113 70.1926 230.278C68.5665 233.795 65.5854 236.231 62.0623 237.313ZM80.4909 252.196C76.9678 250.572 74.5287 247.596 73.4447 244.078C72.3606 240.29 73.1736 236.501 75.3417 233.525C78.8648 235.148 81.3039 238.125 82.3879 241.643C83.472 245.16 82.6589 249.219 80.4909 252.196ZM136.319 244.078C135.235 247.866 132.795 250.843 129.272 252.196C127.104 249.219 126.291 245.16 127.375 241.643C128.459 237.854 130.898 234.878 134.421 233.525C136.59 236.501 137.403 240.29 136.319 244.078ZM158.541 235.419C155.56 237.584 151.495 238.395 147.972 237.313C144.178 236.231 141.197 233.795 139.842 230.278C142.823 228.113 146.888 227.301 150.411 228.383C153.934 229.466 156.915 231.901 158.541 235.419ZM153.934 222.16C149.327 222.16 144.991 220.536 141.468 217.56L139.029 215.395L137.674 218.371C131.711 231.089 118.974 239.207 105.153 239.207C91.3312 239.207 78.3228 231.089 72.6316 218.371L71.2766 215.395L68.8375 217.56C65.3144 220.536 60.9783 222.16 56.3711 222.16C45.8018 222.16 37.4006 213.771 37.4006 203.218C37.4006 192.665 45.8018 184.276 56.3711 184.276C57.7262 184.276 58.8102 184.276 60.1652 184.547C61.5203 184.817 62.8753 185.359 64.2304 185.9C66.3984 187.523 68.5665 188.876 70.7346 189.959C62.8753 190.77 55.8291 195.641 52.306 203.218L56.6421 205.112C59.6232 198.618 66.1274 194.559 73.1736 194.559C79.4068 194.559 85.369 197.806 88.6211 203.218C86.453 205.383 84.556 207.818 83.472 210.524L87.8081 212.418C91.0602 205.383 98.1064 201.053 105.695 201.053C113.283 201.053 120.329 205.653 123.581 212.418L127.917 210.524C126.562 207.818 124.665 205.112 122.497 203.218C125.749 198.077 131.711 194.829 137.945 194.829C144.991 194.829 151.495 198.888 154.476 205.383L158.812 203.488C155.289 196.182 148.243 191.312 140.384 190.229C142.552 188.876 144.72 187.523 146.888 186.17C148.243 185.629 149.598 185.088 150.953 184.817C152.037 184.547 153.392 184.547 154.747 184.547C165.316 184.547 173.718 192.935 173.718 203.488C172.905 213.771 164.503 222.16 153.934 222.16ZM172.905 188.876C168.569 183.194 161.793 179.405 153.934 179.405C157.728 175.888 160.98 171.829 163.961 167.229L164.774 165.876L163.961 164.523C160.98 160.193 157.728 156.134 153.934 152.346C161.793 152.346 168.569 148.557 172.905 142.875V188.876ZM153.934 147.746C152.579 147.746 151.495 147.746 150.14 147.475C148.785 147.204 147.43 146.663 146.346 146.122C144.178 144.499 142.01 143.146 139.842 141.793C147.701 140.981 154.747 136.11 158.27 128.533L153.934 126.639C150.953 133.133 144.449 137.192 137.403 137.192C131.169 137.192 125.207 133.945 121.955 128.533C124.123 126.369 126.02 123.933 127.104 121.227L122.768 119.333C119.516 126.369 112.47 130.698 104.882 130.698C97.2934 130.698 90.2472 126.098 86.9951 119.333L82.6589 121.227C84.014 123.933 85.911 126.639 88.0791 128.533C84.827 133.675 78.8648 136.922 72.6316 136.922C65.5854 136.922 59.0812 132.863 56.1001 126.369L51.764 128.263C55.2871 135.569 62.0623 140.44 70.1926 141.251C68.0245 142.604 65.8564 143.957 63.6884 145.581C62.3333 146.122 61.2493 146.663 59.8942 146.934C58.8102 147.204 57.4552 147.204 56.1001 147.204C45.5308 147.204 37.1295 138.816 37.1295 128.263C37.1295 117.709 45.5308 109.321 56.1001 109.321C60.7073 109.321 65.0434 110.945 68.5665 113.921L71.0056 116.086L72.3606 113.109C78.3228 100.391 91.0602 92.2734 104.882 92.2734C118.703 92.2734 131.711 100.391 137.403 113.109L138.758 116.086L141.197 113.921C144.72 110.945 149.056 109.321 153.663 109.321C164.232 109.321 172.634 117.709 172.634 128.263C172.905 139.357 164.503 147.746 153.934 147.746ZM177.783 203.218V128.804V121.498H183.203V203.759C181.306 204.03 179.409 205.112 177.783 206.194V203.218ZM185.642 222.971L177.783 215.124C178.325 211.336 181.577 208.359 185.371 208.359C189.436 208.359 192.688 211.336 192.959 215.395L185.642 222.971ZM193.501 206.465C191.875 205.112 189.978 204.3 188.081 203.759V121.498H193.501V206.465ZM193.501 116.898H177.783V108.239H193.501V116.898Z" fill="#072119"/>
<path d="M208.947 77.1217L210.031 76.0393L209.76 74.6863C207.863 67.6508 202.443 62.2388 195.668 60.6153C192.958 59.8035 190.248 59.8035 187.538 60.0741C189.164 57.9093 190.519 55.4739 191.332 52.768C193.229 46.0031 191.061 38.4264 186.183 33.5556L185.099 32.4733L183.744 32.7439C180.491 33.5556 177.781 35.1792 175.342 37.344C177.51 34.9086 179.136 32.2027 179.949 28.9555L180.22 27.6025L179.136 26.5201C174.258 21.92 166.67 19.7552 159.895 21.6494C157.185 22.4612 154.746 23.5436 152.578 25.4378C153.12 22.7318 152.849 20.0258 152.036 17.3199C150.139 10.555 144.718 5.14303 137.943 3.24886L136.588 2.70766L135.504 3.79005C133.065 5.95482 131.439 8.93138 130.626 11.9079C131.168 8.93138 131.168 5.68422 130.355 2.43707L130.084 1.08409L128.729 0.813489C121.954 -1.08069 114.365 0.813489 109.487 5.95482C107.59 7.84899 105.964 10.2844 105.151 12.7197C104.067 10.2844 102.712 7.84899 100.815 5.95482C95.6659 0.813489 88.3487 -1.08069 81.5735 0.813489L80.2184 1.08409L79.9474 2.43707C78.5924 5.41363 78.5924 8.66078 79.4054 11.9079C78.3214 8.93138 76.6953 6.22541 74.5273 3.79005L73.4432 2.70766L72.0882 2.97826C65.042 4.87243 59.6218 10.2844 57.9958 17.3199C57.1827 20.0258 57.1827 22.7318 57.4537 25.4378C55.2857 23.8142 52.8466 22.4612 50.1365 21.6494C43.3613 19.7552 35.7731 21.92 30.8949 26.7907L29.8109 27.8731L30.0819 29.2261C30.8949 32.4733 32.521 35.1792 34.6891 37.6146C32.25 35.4498 29.5399 33.8262 26.2878 33.0145L24.9328 32.7439L23.8487 33.8262C18.9706 38.697 17.0735 46.0031 18.9706 52.768C19.7836 55.4739 20.8676 57.9093 22.7647 60.0741C20.0546 59.5329 17.3445 59.8035 14.6344 60.6153C7.85924 62.5094 2.43907 67.9214 0.542016 74.6863L0 76.0393L1.08403 77.1217C4.87815 80.91 10.0273 83.0748 15.1765 83.0748C15.9895 83.0748 16.8025 83.0748 17.6155 82.8042C16.5315 86.8631 15.7185 91.1927 15.1765 95.5222H8.94327H4.06512V100.393V218.373V220.267L5.42016 221.891L14.9055 231.362V236.232V236.503C15.4475 241.103 16.2605 245.703 17.3445 250.033C11.3823 249.492 5.42016 251.656 1.08403 255.986L0 256.798L0.271008 258.151C2.16807 265.186 7.58823 270.598 14.3634 272.222C15.9895 272.763 17.8865 272.763 19.5126 272.763C20.5966 272.763 21.4097 272.763 22.4937 272.492C20.8676 274.657 19.5126 277.092 18.6996 279.798C16.8025 286.563 18.9706 294.14 23.8487 299.011L24.9328 300.093L26.2878 299.822C29.5399 299.011 32.25 297.387 34.6891 295.222C32.521 297.658 30.8949 300.364 30.0819 303.611L29.8109 304.964L30.8949 306.046C34.6891 309.834 39.8382 311.999 44.9874 311.999C46.6134 311.999 48.5105 311.729 50.1365 311.458C52.8466 310.646 55.2857 309.564 57.4537 307.67C56.9117 310.376 57.1827 313.082 57.9958 315.788C59.8928 322.552 65.313 327.964 72.0882 329.859L73.4432 330.129L74.5273 329.047C76.9663 326.882 78.5924 323.905 79.4054 320.929C78.8634 323.905 78.8634 327.153 79.6764 330.4L79.9474 331.753L81.3025 332.023C82.9285 332.565 84.8256 332.835 86.4516 332.835C91.6008 332.835 96.7499 330.67 100.544 327.153C102.441 325.258 104.067 322.823 104.88 320.388C105.964 322.823 107.319 325.258 109.216 327.153C113.01 330.941 118.16 332.835 123.309 332.835C124.935 332.835 126.832 332.565 128.458 332.023L129.813 331.753L130.084 330.4C130.897 327.153 130.897 323.905 130.355 320.929C131.439 323.905 133.065 326.611 135.233 329.047L136.317 330.129L137.672 329.859C144.718 327.964 150.139 322.552 151.765 315.788C152.578 313.082 152.578 310.376 152.307 307.67C154.475 309.293 156.914 310.646 159.624 311.458C161.25 311.999 163.147 311.999 164.773 311.999C169.922 311.999 175.071 309.834 178.865 306.046L179.949 304.964L179.678 303.611C178.865 300.364 177.239 297.658 175.071 295.222C177.51 297.387 180.22 299.011 183.473 299.822L184.828 300.093L185.912 299.011C191.061 293.869 192.958 286.563 191.061 279.798C190.248 277.092 189.164 274.657 187.267 272.492C188.351 272.763 189.164 272.763 190.248 272.763C191.874 272.763 193.771 272.492 195.397 272.222C202.172 270.327 207.592 264.915 209.489 258.151L209.76 256.798L208.676 255.715C204.34 251.386 198.107 249.221 192.145 250.033C193.229 245.433 194.042 240.832 194.584 235.962V231.091L204.069 221.62L205.424 220.267V218.373V100.393V95.5222H200.546H194.313C193.771 91.1927 192.958 86.8631 191.874 82.8042C192.687 82.8042 193.5 83.0748 194.042 83.0748C200.004 83.0748 205.153 80.91 208.947 77.1217ZM183.473 38.1558C186.725 41.9441 187.809 47.0855 186.454 51.6856C185.641 54.3916 184.286 56.8269 182.389 58.7211C181.305 59.8035 179.949 60.8859 178.323 61.4271C177.781 61.6977 177.51 61.9683 176.968 61.9683C175.071 59.8035 173.987 57.0975 173.716 54.3916C173.445 52.4974 173.445 50.3326 173.987 48.4384C173.987 48.1678 174.258 47.8972 174.258 47.6267C175.884 43.0265 179.136 39.5088 183.473 38.1558ZM170.735 43.5677C170.193 43.0265 169.651 42.4853 169.38 41.9441C171.006 41.1323 172.632 40.05 173.987 38.697C172.632 40.3205 171.548 41.6735 170.735 43.5677ZM151.765 33.8262C152.578 32.4733 153.391 31.1203 154.746 30.0379C156.643 28.4143 158.811 27.0613 161.25 26.2495C166.128 24.8966 171.006 26.2495 174.8 29.2261C173.174 33.5556 169.922 36.8028 165.586 38.4264C165.315 38.4264 164.773 38.697 164.502 38.697C162.605 39.2382 160.979 39.2382 159.082 39.2382C156.101 38.9676 153.12 37.6146 150.681 35.7204C150.952 35.1792 151.223 34.3674 151.765 33.8262ZM169.109 48.709C168.838 50.062 168.838 51.6856 168.838 53.0386C166.128 49.7914 163.147 46.8149 159.895 43.8383C160.166 43.8383 160.437 43.8383 160.708 43.8383C161.792 43.8383 163.147 43.5677 164.231 43.5677C165.857 45.1913 167.483 47.0855 169.109 48.709ZM137.943 8.11959C142.55 9.74317 146.073 13.5315 147.428 18.4022C147.971 20.8376 147.971 23.5436 147.428 25.7083C147.157 27.3319 146.344 28.6849 145.531 30.0379C145.26 30.5791 144.718 31.1203 144.176 31.6615C141.195 30.5791 138.485 28.4143 136.859 25.9789C136.046 24.626 135.233 23.0024 134.691 21.3788C134.691 20.8376 134.42 20.2964 134.42 19.7552C134.149 15.9669 135.233 11.6373 137.943 8.11959ZM130.626 24.0848C131.168 25.4378 131.71 26.7907 132.523 28.1437C128.729 26.7907 124.935 25.7083 120.87 24.8966C122.225 24.0848 123.309 23.273 124.664 22.1906C126.832 23.0024 128.729 23.5436 130.626 24.0848ZM130.355 13.8021C130.084 15.4257 129.813 17.0493 129.813 18.9434C129.271 18.6728 128.729 18.6728 128.187 18.4022C129 16.7787 129.813 15.4257 130.355 13.8021ZM109.216 15.4257C110.029 12.9903 111.113 10.8256 113.01 9.20197C116.534 5.68422 121.412 4.06064 126.29 5.14303C127.103 9.47257 125.748 13.8021 123.038 17.3199C122.767 17.5905 122.496 18.1317 121.954 18.4022C120.87 19.4846 119.515 20.567 117.889 21.1082C114.907 22.4612 111.655 23.0024 108.403 22.4612C108.403 21.6494 108.403 21.1082 108.403 20.2964C108.403 18.6728 108.674 17.0493 109.216 15.4257ZM105.151 28.4143C144.447 28.4143 177.239 57.0975 182.66 95.5222H172.632L173.445 92.8162L171.277 90.6515L168.567 88.2161C168.025 87.6749 167.483 87.4043 167.212 87.1337C163.147 56.0151 136.859 32.7439 105.422 32.7439C73.7142 32.7439 47.4264 56.0151 43.6323 87.1337C43.0903 87.4043 42.5483 87.9455 42.2773 88.2161L39.5672 90.6515L37.3991 92.8162L38.2122 95.5222H28.1849C32.792 57.0975 65.584 28.4143 105.151 28.4143ZM50.4075 77.1217C52.0336 72.5215 53.9306 67.9214 56.6407 63.8624L63.4159 67.6508C61.5189 70.8979 60.1638 74.6863 59.0798 78.4746L50.4075 77.1217ZM52.8466 82.5336C51.2206 82.8042 49.8655 83.3454 48.5105 83.8866C48.7815 83.0748 48.7815 82.5336 49.0525 81.7218L52.8466 82.5336ZM59.3508 60.0741C62.0609 56.2857 65.584 53.0386 69.1071 50.062L73.4432 55.2033C70.4621 57.6387 68.0231 60.6153 65.855 63.8624L59.3508 60.0741ZM72.9012 47.3561C76.6953 44.9207 80.7605 42.7559 84.8256 41.1323L86.9936 46.8149C83.4705 48.1678 80.2184 50.062 76.9663 52.2268L72.9012 47.3561ZM105.151 48.1678C124.935 48.1678 141.466 61.1565 146.615 79.557C143.634 73.8745 138.485 69.2744 131.981 67.3802L128.729 66.2978L125.748 65.2154L123.58 67.6508L121.141 70.3567C118.16 73.6039 116.263 77.3923 115.178 81.7218C111.926 80.91 108.403 80.6394 104.88 80.6394C101.357 80.6394 98.105 80.91 94.5819 81.7218C93.4978 77.6628 91.6008 73.6039 88.6197 70.3567L86.1806 67.6508L84.0126 65.2154L81.0315 66.2978L77.7794 67.3802C71.2752 69.545 66.126 73.8745 63.1449 79.557C68.5651 61.1565 85.3676 48.1678 105.151 48.1678ZM89.4327 39.7794C93.4978 38.697 98.105 37.8852 102.441 37.6146V43.2971C98.647 43.5677 94.8529 44.1089 91.3298 45.1913L89.4327 39.7794ZM107.319 43.5677V37.8852C111.926 38.1558 116.263 38.697 120.328 40.05L118.431 45.4619C114.907 44.3795 111.113 43.5677 107.319 43.5677ZM123.038 46.8149L125.206 41.1323C129.542 42.7559 133.607 44.6501 137.13 47.3561L133.065 52.2268C129.813 50.062 126.561 48.4384 123.038 46.8149ZM144.447 63.8624C142.279 60.6153 139.569 57.9093 136.859 55.2033L141.195 50.062C144.718 53.0386 148.242 56.2857 150.952 60.0741L144.447 63.8624ZM153.662 64.133C156.372 68.192 158.269 72.5215 159.895 77.3922L151.223 79.0158C150.139 75.2275 148.784 71.7097 146.886 68.192L153.662 64.133ZM160.979 81.7218C161.25 82.5336 161.25 83.0748 161.521 83.8866C160.166 83.3454 158.54 82.8042 157.185 82.5336L160.979 81.7218ZM39.2962 43.5677C38.4832 41.9441 37.3991 40.3205 36.0441 38.9676C37.3991 40.3205 39.0252 41.1323 40.6512 42.2147C40.1092 42.4853 39.8382 43.0265 39.2962 43.5677ZM40.9222 48.709C42.5483 47.0855 44.1743 45.1913 45.8004 43.5677C46.8844 43.8383 48.2395 43.8383 49.3235 43.8383C49.5945 43.8383 49.8655 43.8383 50.1365 43.8383C46.8844 46.5443 43.9033 49.7914 41.1932 53.0386C41.4643 51.6856 41.1933 50.062 40.9222 48.709ZM83.7415 5.14303C88.6197 4.33124 93.4978 5.95482 97.0209 9.20197C98.918 11.0961 100.002 13.2609 100.815 15.4257C101.357 17.0493 101.628 18.6728 101.357 20.2964C101.357 21.1082 101.357 21.92 101.086 22.4612C97.834 23.0024 94.5819 22.4612 91.6008 21.1082C90.2457 20.2964 88.8907 19.4846 87.5357 18.4022C87.2646 18.1317 86.7226 17.5905 86.4516 17.3199C84.2836 13.8021 83.1995 9.20197 83.7415 5.14303ZM81.8445 18.4022C81.3025 18.6728 80.7605 18.6728 80.2184 18.9434C80.2184 17.3199 80.2184 15.4257 79.6764 13.8021C80.2184 15.4257 81.0315 16.7787 81.8445 18.4022ZM79.4054 24.0848C81.3025 23.5436 83.4705 23.0024 85.6386 22.4612C86.7226 23.5436 88.0777 24.3554 89.4327 25.1672C85.3676 25.9789 81.5735 27.0613 77.7794 28.4143C78.3214 26.7907 78.8634 25.4378 79.4054 24.0848ZM62.6029 18.4022C63.9579 13.5315 67.481 9.74317 72.0882 8.11959C74.7983 11.3667 76.1533 15.9669 75.3403 20.2964C75.3403 20.8376 75.0693 21.3788 75.0693 21.92C74.5273 23.5436 73.9852 25.1672 72.9012 26.5201C71.0042 29.2261 68.5651 31.1203 65.584 32.2027C65.042 31.6615 64.771 31.1203 64.229 30.5791C63.4159 29.2261 62.8739 27.6025 62.3319 26.2495C61.7899 23.5436 61.7899 20.8376 62.6029 18.4022ZM49.0525 26.2495C51.4916 26.7907 53.6596 28.1437 55.5567 30.0379C56.6407 31.1203 57.7248 32.4733 58.5378 33.8262C58.8088 34.3674 59.0798 35.1792 59.3508 35.7204C56.9117 37.6146 54.2016 38.9676 50.9495 39.2382C49.0525 39.5088 47.4264 39.2382 45.5294 38.697C45.2584 38.697 44.7164 38.4264 44.4453 38.4264C40.1092 36.8028 36.8571 33.5556 35.2311 29.2261C39.0252 26.2495 44.1743 24.8966 49.0525 26.2495ZM26.5588 38.1558C30.8949 39.7794 34.147 43.2971 35.7731 47.6267C35.7731 47.8972 36.0441 48.1678 36.0441 48.4384C36.5861 50.3326 36.5861 52.4974 36.3151 54.3916C36.0441 57.0975 34.6891 59.8035 33.063 61.9683C32.521 61.6977 32.25 61.6977 31.708 61.4271C30.3529 60.6153 28.9979 59.8035 27.6428 58.7211C25.7458 56.8269 24.3907 54.3916 23.5777 51.6856C22.2227 46.8149 23.3067 41.6735 26.5588 38.1558ZM5.42016 74.6863C7.04621 70.0861 10.8403 66.5684 15.7185 65.2154C18.4286 64.4036 21.4096 64.6742 24.1197 65.486C25.7458 66.0272 27.1008 66.5684 28.4559 67.6508C28.7269 67.9214 29.2689 68.192 29.5399 68.4626C28.7269 70.8979 27.3718 72.7921 25.4748 74.4157C23.8487 76.0393 21.6807 77.1216 19.2416 77.9334C14.3634 79.0158 9.21428 77.6628 5.42016 74.6863ZM26.5588 79.2864C24.9328 84.4277 23.5777 89.8397 22.7647 95.5222H20.0546C20.5966 90.6515 21.6807 86.0513 22.7647 81.4512C24.1197 80.91 25.2038 80.0982 26.5588 79.2864ZM15.7185 267.892C10.8403 266.539 7.04621 263.021 5.42016 258.421C9.21428 255.174 14.0924 254.092 18.9706 255.445C21.4097 255.986 23.3067 257.339 25.2038 258.692C27.1008 260.315 28.4559 262.48 29.2689 264.645C28.9979 264.915 28.4559 265.186 28.1849 265.457C26.8298 266.268 25.4748 267.08 23.8487 267.621C21.4097 268.433 18.4286 268.433 15.7185 267.892ZM19.7836 236.232L21.1386 237.585L23.0357 239.479C23.8487 244.35 24.9328 249.221 26.5588 253.821C25.4748 253.009 24.1197 252.197 23.0357 251.656C21.4097 246.515 20.3256 241.374 19.7836 236.232ZM26.5588 294.952C23.3067 291.163 22.2227 286.022 23.5777 281.422C24.3907 278.716 25.7458 276.281 27.6428 274.386C28.7269 273.304 30.0819 272.222 31.708 271.68C32.25 271.41 32.521 271.139 33.063 271.139C34.9601 273.304 36.0441 276.01 36.3151 278.716C36.5861 280.61 36.5861 282.775 36.0441 284.669C36.0441 284.94 35.7731 285.21 35.7731 285.481C34.147 289.81 30.8949 293.328 26.5588 294.952ZM39.2962 289.54C39.8382 290.081 40.3802 290.622 40.6512 291.163C39.0252 291.975 37.3991 293.058 36.0441 294.41C37.3991 292.787 38.4832 291.163 39.2962 289.54ZM58.2668 299.011C57.4537 300.364 56.6407 301.717 55.2857 302.799C53.3886 304.423 51.2206 305.776 48.7815 306.587C43.9033 307.94 39.0252 306.587 35.2311 303.611C36.8571 299.281 40.1092 296.034 44.4453 294.41C44.7164 294.41 45.2584 294.14 45.5294 294.14C47.4264 293.599 49.0525 293.599 50.9495 293.599C53.9306 293.869 56.9117 295.222 59.3508 297.116C59.0798 297.928 58.8088 298.469 58.2668 299.011ZM40.9222 284.398C41.1933 283.045 41.1932 281.422 41.1932 280.069C43.9033 283.316 46.8844 286.293 50.1365 289.269C48.7815 289.269 47.1554 289.269 45.8004 289.54C44.1743 287.646 42.5483 286.022 40.9222 284.398ZM72.0882 324.717C67.481 323.094 63.9579 319.305 62.6029 314.435C62.0609 311.999 62.0609 309.293 62.6029 307.129C62.8739 305.505 63.6869 304.152 64.5 302.799C64.771 302.258 65.313 301.717 65.855 301.175C68.8361 302.258 71.5462 304.423 73.1722 306.858C73.9852 308.211 74.7983 309.834 75.3403 311.458C75.3403 311.999 75.6113 312.54 75.6113 313.082C75.8823 316.87 74.7983 321.47 72.0882 324.717ZM79.4054 309.023C78.8634 307.67 78.3214 306.317 77.5084 304.964C81.3025 306.317 85.0966 307.399 89.1617 308.211C87.8067 309.023 86.7226 309.834 85.3676 310.917C83.4705 310.105 81.3025 309.564 79.4054 309.023ZM79.6764 319.305C79.9474 317.682 80.2184 316.058 80.2184 314.164C80.7605 314.435 81.3025 314.435 81.8445 314.705C81.0315 316.058 80.2184 317.682 79.6764 319.305ZM100.815 317.411C100.002 319.847 98.918 322.011 97.0209 323.635C93.4978 327.153 88.6197 328.776 83.7415 327.694C82.9285 323.364 84.0126 319.035 86.9936 315.517C87.2646 315.246 87.5357 314.705 88.0777 314.435C89.1617 313.352 90.5167 312.27 92.1428 311.729C95.1239 310.376 98.376 309.834 101.628 310.376C101.628 311.187 101.899 311.999 101.899 312.54C101.628 314.435 101.357 316.058 100.815 317.411ZM104.88 304.693C65.584 304.693 32.792 276.01 27.3718 237.856L27.6428 237.585L36.8571 228.385C37.6701 229.197 38.7542 229.738 39.8382 230.279C39.5672 231.091 39.0252 232.173 38.7542 232.985L37.6701 236.232L36.5861 239.209L38.7542 241.374L41.4643 243.809C42.0063 244.08 42.2773 244.621 42.8193 244.891C46.3424 276.551 72.9012 300.093 104.88 300.093C136.859 300.093 163.418 276.281 166.941 244.891C167.483 244.621 167.754 244.08 168.296 243.809L171.006 241.374L173.174 239.209L172.09 236.232L171.006 232.985C170.735 232.173 170.464 231.091 169.922 230.279C171.006 229.738 171.819 228.926 172.903 228.385L182.118 237.585L182.389 237.856C176.968 276.01 144.176 304.693 104.88 304.693ZM159.624 255.715C157.998 260.315 156.101 264.915 153.391 268.974L146.886 265.186C148.784 261.939 150.139 258.151 151.223 254.362L159.624 255.715ZM154.475 250.033C156.914 249.762 159.353 248.95 161.521 248.139C161.25 249.221 161.25 250.303 160.979 251.386L154.475 250.033ZM136.588 277.634C139.569 275.198 142.008 272.222 144.176 268.974L150.681 272.763C147.97 276.551 144.447 279.798 140.924 282.775L136.588 277.634ZM137.13 285.751C133.336 288.187 129.271 290.352 125.206 291.975L123.038 286.293C126.561 284.94 129.813 283.045 133.065 280.881L137.13 285.751ZM104.88 284.94C84.5546 284.94 67.21 270.869 62.8739 251.656C65.855 257.88 71.2752 262.751 78.0504 264.915L81.3025 265.998L84.2836 267.08L86.4516 264.915L88.8907 262.21C91.8718 258.962 93.7688 255.174 94.8529 250.844C98.105 251.656 101.628 251.927 105.151 251.927C108.674 251.927 111.926 251.656 115.45 250.844C116.534 254.903 118.431 258.962 121.412 262.21L123.851 264.915L126.019 267.351L129 266.268L132.252 265.186C139.027 263.021 144.447 258.151 147.428 251.927C142.55 270.869 125.477 284.94 104.88 284.94ZM120.599 293.328C116.534 294.41 111.926 295.222 107.59 295.493V289.54C111.384 289.269 115.178 288.728 118.702 287.646L120.599 293.328ZM102.712 289.54V295.222C98.105 294.952 93.7688 294.41 89.7037 293.058L91.6008 287.646C95.1239 288.728 98.647 289.269 102.712 289.54ZM76.9663 280.61C79.9474 282.775 83.4705 284.669 86.9936 286.022L84.8256 291.705C80.4894 290.081 76.4243 288.187 72.9012 285.481L76.9663 280.61ZM69.1071 282.775C65.584 279.798 62.0609 276.551 59.3508 272.763L65.855 268.974C68.0231 272.222 70.7331 274.928 73.4432 277.634L69.1071 282.775ZM63.1449 265.186L56.3697 268.974C53.6596 264.915 51.7626 260.586 50.1365 255.715L58.8088 254.092C59.8928 258.151 61.2479 261.668 63.1449 265.186ZM49.0525 251.115C48.7815 250.033 48.5105 248.95 48.5105 247.868C50.6785 248.95 53.1176 249.492 55.5567 249.762L49.0525 251.115ZM170.735 289.54C171.548 291.163 172.632 292.787 173.987 294.14C172.632 292.787 171.006 291.975 169.38 290.893C169.922 290.622 170.193 290.081 170.735 289.54ZM169.109 284.398C167.483 286.022 165.857 287.916 164.231 289.54C162.876 289.269 161.25 289.269 159.895 289.269C163.147 286.563 166.128 283.316 168.838 280.069C168.567 281.422 168.838 282.775 169.109 284.398ZM126.29 327.964C121.412 328.776 116.534 327.153 113.01 323.905C111.113 322.011 110.029 319.847 109.216 317.682C108.674 316.058 108.403 314.435 108.674 312.811C108.674 311.999 108.674 311.187 108.945 310.646C112.197 310.105 115.45 310.646 118.431 311.999C119.786 312.811 121.141 313.623 122.496 314.705C122.767 314.976 123.309 315.517 123.58 315.788C125.748 319.305 126.832 323.635 126.29 327.964ZM128.187 314.705C128.729 314.435 129.271 314.435 129.813 314.164C129.813 315.788 129.813 317.682 130.355 319.305C129.813 317.682 129 316.058 128.187 314.705ZM130.626 309.023C128.729 309.564 126.561 310.105 124.393 310.646C123.309 309.564 121.954 308.752 120.599 307.94C124.664 307.129 128.458 306.046 132.252 304.693C131.71 306.046 131.168 307.399 130.626 309.023ZM147.428 314.435C146.073 319.305 142.55 323.094 137.943 324.717C135.233 321.47 133.878 316.87 134.691 312.54C134.691 311.999 134.962 311.458 134.962 310.917C135.504 309.293 136.046 307.67 137.13 306.317C139.027 303.611 141.466 301.717 144.447 300.634C144.989 301.175 145.26 301.717 145.802 302.258C146.615 303.611 147.157 305.234 147.699 306.587C148.242 309.564 148.242 311.999 147.428 314.435ZM160.979 306.587C158.54 306.046 156.372 304.693 154.475 302.799C153.391 301.717 152.307 300.364 151.494 299.011C151.223 298.469 150.952 297.658 150.681 297.116C153.12 295.222 155.83 293.869 159.082 293.599C160.979 293.328 162.605 293.599 164.502 294.14C164.773 294.14 165.315 294.41 165.586 294.41C169.922 296.034 173.174 299.281 174.8 303.611C171.006 306.858 165.857 307.94 160.979 306.587ZM183.473 294.952C179.136 293.328 175.884 289.81 174.258 285.481C174.258 285.21 173.987 284.94 173.987 284.669C173.445 282.775 173.445 280.61 173.716 278.716C173.987 276.01 175.342 273.304 176.968 271.139C177.51 271.41 177.781 271.41 178.323 271.68C179.678 272.492 181.034 273.304 182.389 274.386C184.286 276.281 185.912 278.716 186.454 281.422C187.809 286.022 186.725 291.163 183.473 294.952ZM204.611 258.421C202.985 263.021 199.191 266.539 194.313 267.892C191.603 268.704 188.622 268.433 185.912 267.621C184.286 267.08 182.931 266.539 181.576 265.457C181.305 265.186 180.762 264.915 180.491 264.645C181.305 262.21 182.66 260.315 184.557 258.692C186.183 257.068 188.351 255.986 190.79 255.174C195.668 254.092 200.817 255.174 204.611 258.421ZM183.473 253.55C185.099 248.95 186.183 244.08 186.996 239.209L188.893 237.315L190.248 235.962C189.706 241.374 188.622 246.515 187.267 251.386C185.912 252.197 184.557 252.739 183.473 253.55ZM201.088 100.393V218.373L185.37 234.068L173.174 221.891C170.464 224.867 166.941 227.032 163.147 228.385C164.502 230.279 165.586 232.444 166.399 234.609L167.483 237.856L164.773 240.291C160.979 243.809 155.83 245.703 150.952 245.703C149.326 245.703 147.428 245.433 145.802 244.891C145.26 244.621 144.718 244.621 144.176 244.35C144.176 244.891 143.905 245.433 143.905 245.974C142.008 252.739 137.13 258.151 130.355 260.315L127.103 261.398L124.664 258.692C121.141 254.633 119.244 249.762 119.244 244.621C114.636 246.244 109.758 247.056 104.88 247.056C100.002 247.056 95.1239 246.244 90.5168 244.621C90.5168 249.762 88.6197 254.903 85.0966 258.692L82.6575 261.398L79.4054 260.315C72.6302 258.151 67.7521 252.739 65.855 245.974C65.584 245.433 65.584 244.891 65.584 244.35C65.042 244.621 64.5 244.621 63.9579 244.891C62.3319 245.433 60.4348 245.703 58.8088 245.703C53.6596 245.703 48.7815 243.809 44.9874 240.291L42.2773 237.856L43.3613 234.609C44.1743 232.444 45.2584 230.279 46.6134 228.385C42.8193 227.032 39.5672 224.867 36.5861 221.891L24.3907 234.068L8.67226 218.373V100.393H39.8382V107.428C41.7353 105.805 44.1743 104.722 46.3424 103.911C44.9874 102.017 43.9033 99.8517 43.0903 97.687L42.0063 94.4398L44.7164 92.0044C48.5105 88.4867 53.3886 86.5925 58.5378 86.5925C60.4348 86.5925 62.0609 86.8631 63.9579 87.4043C64.5 87.6749 65.042 87.6749 65.584 87.9455C65.584 87.4043 65.855 86.8631 65.855 86.3219C67.7521 79.557 72.6302 74.1451 79.4054 71.9803L82.6575 70.8979L85.0966 73.6039C88.6197 77.6628 90.5168 82.5336 90.5168 87.6749C95.1239 86.0513 100.002 85.2395 104.88 85.2395C109.758 85.2395 114.636 86.0513 119.244 87.6749C119.244 82.5336 121.141 77.3923 124.664 73.6039L127.103 70.8979L130.355 71.9803C137.13 74.1451 142.008 79.557 143.905 86.3219C144.176 86.8631 144.176 87.4043 144.176 87.9455C144.718 87.6749 145.26 87.6749 145.802 87.4043C147.699 86.8631 149.326 86.5925 151.223 86.5925C156.372 86.5925 161.25 88.4867 165.044 92.0044L167.754 94.4398L166.67 97.687C165.857 99.8517 164.773 102.017 163.418 103.911C165.857 104.722 168.025 106.075 169.922 107.428V100.393H201.088ZM183.473 79.2864C184.557 80.0982 185.912 80.91 186.996 81.4512C188.351 86.0513 189.164 90.6515 189.977 95.5222H187.267C186.725 89.8397 185.37 84.4277 183.473 79.2864ZM191.061 77.6628C188.622 77.1217 186.454 75.7687 184.828 74.1451C182.931 72.5215 181.576 70.3567 180.762 68.192C181.033 67.9214 181.576 67.6508 181.847 67.3802C183.202 66.5684 184.557 65.7566 186.183 65.2154C188.893 64.4036 191.603 64.4036 194.313 64.9448C199.191 66.2978 202.985 69.8156 204.611 74.4157C200.817 77.6628 195.939 79.0158 191.061 77.6628Z" fill="#072119"/>
<path d="M131.711 264.643L128.459 265.726L125.477 266.808L123.309 264.373L120.87 261.667C117.889 258.42 115.992 254.631 114.908 250.302C111.927 251.384 108.404 251.655 104.881 251.655C101.358 251.655 98.1056 251.384 94.5825 250.572C93.4985 254.631 91.6014 258.69 88.6203 261.937L86.1812 264.643L84.0132 266.808L81.0321 265.726L77.78 264.643C71.0048 262.479 65.5846 257.608 62.6035 251.384C66.9396 270.867 84.0132 284.667 104.61 284.667C124.935 284.667 142.009 270.596 146.616 251.384C143.906 257.878 138.486 262.479 131.711 264.643Z" fill="#F9F9F4"/>
<path d="M105.15 48.1663C85.3662 48.1663 68.8347 61.1549 63.6855 79.5554C66.6666 73.8729 71.8158 69.5434 78.32 67.3786L81.5721 66.2962L84.5532 65.2138L86.7213 67.6492L89.1603 70.3552C92.1414 73.6023 94.0385 77.3907 95.1225 81.7202C98.3746 80.9084 101.898 80.6378 105.421 80.6378C108.944 80.6378 112.196 80.9084 115.719 81.7202C116.803 77.6613 118.7 73.6023 121.681 70.3552L124.12 67.6492L126.288 65.4844L129.27 66.5668L132.522 67.6492C139.026 69.814 144.175 74.1435 147.156 79.826C141.465 61.4255 124.662 48.1663 105.15 48.1663Z" fill="#F9F9F4"/>
</g>
<defs>
<clipPath id="clip0_2468_6099">
<rect width="210.031" height="333.104" fill="white"/>
</clipPath>
</defs>
</svg>
