<svg width="175" height="34" viewBox="0 0 175 34" fill="none" xmlns="http://www.w3.org/2000/svg">
<path d="M28.294 5.19163V7.21059C27.6492 6.34532 26.6818 5.72727 25.5936 5.56246C26.1176 5.19163 26.4803 4.65598 26.6818 3.99673L26.7624 3.74951L26.5609 3.54349C25.7951 2.80183 24.7069 2.55461 23.6993 2.84303C23.3768 2.92544 23.0544 3.09025 22.7723 3.29627C22.8126 2.96664 22.7723 2.59581 22.6916 2.26619C22.4095 1.2361 21.6437 0.412034 20.6764 0.0824068L20.3943 0L20.1927 0.206017C19.5076 0.988881 19.2657 2.10137 19.5076 3.13146C19.5076 3.17266 19.5479 3.21386 19.5479 3.25507C18.5806 2.76063 17.4923 2.4722 16.3638 2.4722C15.2352 2.4722 14.147 2.76063 13.1797 3.25507C13.1797 3.21386 13.22 3.17266 13.22 3.13146C13.5021 2.10137 13.22 0.988881 12.5348 0.206017L12.3333 0L12.0915 0.0824068C11.0838 0.412034 10.318 1.2361 10.0762 2.26619C9.99561 2.59581 9.95531 2.96664 9.99561 3.29627C9.67317 3.09025 9.39104 2.96664 9.02829 2.88424C8.02067 2.59581 6.93244 2.88424 6.16665 3.58469L5.96512 3.79071L6.04573 4.03793C6.24726 4.65598 6.65031 5.23283 7.13396 5.60366C6.04573 5.76847 5.07841 6.38652 4.43354 7.25179V5.23283H0V25.7109L2.21677 27.9771L4.39323 25.7521C5.03811 26.6586 6.00543 27.2766 7.13396 27.4415C6.61 27.8123 6.24726 28.3479 6.04573 29.0072L5.96512 29.2544L6.16665 29.4604C6.73092 29.9961 7.49671 30.2845 8.2222 30.2845C8.50433 30.2845 8.74616 30.2433 9.02829 30.1609C9.35073 30.0785 9.67317 29.9137 9.95531 29.7076C9.915 30.0373 9.95531 30.4081 10.0359 30.7377C10.3181 31.7678 11.0838 32.5919 12.0512 32.9215L12.293 33.0039L12.4945 32.7979C13.22 32.015 13.4618 30.9025 13.1797 29.8724C13.1797 29.8312 13.1394 29.79 13.1394 29.7488C14.1067 30.2433 15.1949 30.5317 16.3235 30.5317C17.452 30.5317 18.5402 30.2433 19.5076 29.7488C19.5076 29.79 19.4673 29.8312 19.4673 29.8724C19.1851 30.9025 19.4673 32.015 20.1524 32.7979L20.354 33.0039L20.5958 32.9215C21.6034 32.5919 22.3692 31.7678 22.611 30.7377C22.6916 30.4081 22.732 30.0373 22.6916 29.7076C22.9738 29.9137 23.2962 30.0373 23.6187 30.1609C23.9008 30.2433 24.1426 30.2845 24.4248 30.2845C25.1905 30.2845 25.916 29.9961 26.4803 29.4604L26.6818 29.2544L26.6012 29.0072C26.3997 28.3891 25.9966 27.8123 25.513 27.4415C26.6415 27.2766 27.6088 26.6586 28.2537 25.7521L30.4302 27.9771L32.647 25.7109V5.19163H28.294ZM0.846403 8.4879H1.81372V23.2799C1.45098 23.3623 1.12854 23.4859 0.846403 23.7331V8.4879ZM2.21677 26.741L0.846403 25.3401C0.927013 24.6396 1.49128 24.104 2.17646 24.104C2.86165 24.104 3.46622 24.6808 3.50653 25.3813L2.21677 26.741ZM3.58714 23.7744C3.305 23.5271 2.98256 23.3623 2.61982 23.3211V8.4879H3.58714V23.7744ZM3.58714 7.66383H0.846403V6.0981H3.58714V7.66383ZM23.9008 3.7083C24.5457 3.54349 25.2309 3.6671 25.7548 4.03793C25.4727 4.65598 24.9487 5.10922 24.3038 5.27403C23.659 5.43885 22.9738 5.31524 22.4498 4.94441C22.732 4.32635 23.2962 3.87312 23.9008 3.7083ZM20.6764 1.03008C21.281 1.31851 21.7243 1.85415 21.8856 2.51341C22.0468 3.17266 21.9259 3.87312 21.5631 4.40876C20.9585 4.12034 20.5152 3.58469 20.354 2.92544C20.1524 2.26619 20.2734 1.56573 20.6764 1.03008ZM10.8823 2.4722C11.0435 1.81295 11.4869 1.2773 12.0915 0.988881C12.4542 1.52453 12.5751 2.22498 12.4139 2.88424C12.2527 3.54349 11.8093 4.07913 11.2048 4.36756C10.8017 3.83191 10.6808 3.13146 10.8823 2.4722ZM6.97275 4.03793C7.49671 3.6671 8.18189 3.54349 8.82677 3.7083C9.47165 3.87312 9.99561 4.32635 10.2777 4.94441C9.75378 5.31524 9.0686 5.43885 8.42372 5.27403C7.77884 5.10922 7.25488 4.65598 6.97275 4.03793ZM4.43354 12.361C5.19933 13.3911 6.40848 14.0916 7.77884 14.0916C7.13397 14.7508 6.52939 15.4513 6.04573 16.2753L5.92482 16.4814L6.08604 16.7286C6.61 17.5114 7.17427 18.2531 7.81915 18.9124C7.81915 18.9124 7.81915 18.9124 7.77884 18.9124C6.40848 18.9124 5.19933 19.5716 4.43354 20.6429V12.361ZM16.3638 11.3721C17.049 11.3721 17.7341 11.4545 18.4193 11.5781C18.4596 11.5781 18.4999 11.5781 18.5402 11.6194C21.4825 12.1962 24.1023 13.9267 25.8354 16.5226C23.6993 19.7364 20.1927 21.6318 16.4041 21.6318C15.6786 21.6318 14.9934 21.5494 14.3082 21.4258C14.3082 21.4258 14.3082 21.4258 14.2679 21.4258C11.3257 20.8489 8.66555 19.1184 6.93244 16.5226C9.0686 13.2675 12.5751 11.3721 16.3638 11.3721ZM8.82677 29.2956C8.18189 29.4604 7.49671 29.3368 6.97275 28.966C7.25488 28.3479 7.77884 27.8947 8.42372 27.7299C9.0686 27.5651 9.75378 27.6887 10.2777 28.0595C9.99561 28.6363 9.47165 29.1308 8.82677 29.2956ZM12.0915 31.9738C11.4869 31.6854 11.0435 31.1498 10.8823 30.4905C10.7211 29.8312 10.842 29.1308 11.2048 28.5951C11.8093 28.8836 12.2527 29.4192 12.4139 30.0785C12.5751 30.7377 12.4542 31.4382 12.0915 31.9738ZM21.8856 30.4905C21.7243 31.1498 21.281 31.6854 20.6764 31.9738C20.3137 31.4382 20.1927 30.7377 20.354 30.0785C20.5152 29.4192 20.9585 28.8836 21.5631 28.5951C21.9259 29.1308 22.0468 29.8312 21.8856 30.4905ZM25.7951 28.966C25.2712 29.3368 24.586 29.4604 23.9411 29.2956C23.2962 29.1308 22.7723 28.6776 22.4901 28.0595C23.0141 27.6887 23.6993 27.5651 24.3441 27.7299C24.989 27.8947 25.513 28.3479 25.7951 28.966ZM24.9487 26.5762C24.1426 26.5762 23.3768 26.2878 22.7723 25.7109L22.3692 25.3401L22.1274 25.8757C21.0795 28.1419 18.8627 29.6252 16.4041 29.6252C13.9455 29.6252 11.6884 28.1419 10.6808 25.8757L10.439 25.3401L10.0359 25.7109C9.43134 26.2466 8.66555 26.5762 7.85945 26.5762C6.00543 26.5762 4.51415 25.0517 4.51415 23.1563C4.51415 21.2609 6.00543 19.7364 7.85945 19.7364C8.06098 19.7364 8.30281 19.7776 8.50433 19.8188C8.74616 19.86 8.98799 19.9424 9.18951 20.066C9.55226 20.3545 9.915 20.6017 10.3181 20.8077C8.90738 20.9725 7.69823 21.8378 7.09366 23.1563L7.85945 23.5271C8.38342 22.3734 9.51195 21.6318 10.7614 21.6318C11.8496 21.6318 12.8976 22.2086 13.4618 23.1563C13.0991 23.5271 12.7766 23.9804 12.5348 24.4748L13.3006 24.8456C13.8649 23.6095 15.1143 22.7855 16.4444 22.7855C17.7745 22.7855 19.0239 23.6095 19.5882 24.8456L20.354 24.4748C20.1121 23.9804 19.7897 23.5271 19.427 23.1563C19.9912 22.2086 21.0391 21.6318 22.1274 21.6318C23.3768 21.6318 24.5054 22.3734 25.0293 23.5271L25.7951 23.1563C25.1906 21.8378 23.9814 20.9313 22.5707 20.8077C22.9738 20.5605 23.3365 20.3133 23.6993 20.066C23.9411 19.9836 24.1426 19.9012 24.3845 19.8188C24.5054 19.7776 24.7472 19.7776 24.9487 19.7776C26.8027 19.7776 28.294 21.3021 28.294 23.1975C28.294 25.0517 26.8027 26.5762 24.9487 26.5762ZM28.294 20.6017C27.5282 19.5716 26.3191 18.8711 24.9487 18.8711C24.9487 18.8711 24.9487 18.8711 24.9084 18.8711C25.5533 18.2119 26.1579 17.5114 26.6415 16.6874L26.8027 16.4401L26.6415 16.1929C26.1176 15.4101 25.5533 14.6684 24.9084 14.0091C26.2788 14.0091 27.4879 13.3499 28.2537 12.2786V20.6017H28.294ZM24.9487 13.2263C24.7472 13.2263 24.5054 13.1851 24.3038 13.1439C24.062 13.1027 23.8605 13.0203 23.6187 12.9379C23.2559 12.6494 22.8529 12.4022 22.4901 12.1962C23.9008 12.0314 25.1099 11.1661 25.7145 9.84761L24.9487 9.47678C24.4248 10.6305 23.2962 11.3721 22.0468 11.3721C20.9585 11.3721 19.9106 10.7953 19.3463 9.84761C19.7091 9.47678 20.0315 9.02354 20.2734 8.5291L19.5076 8.11707C18.9433 9.35317 17.6938 10.1772 16.3638 10.1772C15.0337 10.1772 13.7843 9.35317 13.22 8.11707L12.4542 8.4879C12.696 8.98234 13.0185 9.43557 13.3812 9.8064C12.817 10.7541 11.769 11.3309 10.6808 11.3309C9.43134 11.3309 8.30281 10.5893 7.77884 9.43557L7.01305 9.8064C7.61762 11.1249 8.82677 11.9902 10.2374 12.155C9.83439 12.4022 9.47165 12.6494 9.1089 12.8967C8.90738 12.9791 8.66555 13.0615 8.42372 13.1027C8.2222 13.1439 7.98037 13.1851 7.77884 13.1851C5.92482 13.1851 4.43354 11.6606 4.43354 9.7652C4.43354 7.86985 5.92482 6.34532 7.77884 6.34532C8.58494 6.34532 9.35073 6.63374 9.95531 7.21059L10.3584 7.58142L10.6002 7.04578C11.6481 4.77959 13.8649 3.29627 16.3235 3.29627C18.7821 3.29627 21.0392 4.77959 22.0468 7.04578L22.2886 7.58142L22.6916 7.21059C23.2962 6.67495 24.062 6.34532 24.8681 6.34532C26.7221 6.34532 28.2134 7.86985 28.2134 9.7652C28.294 11.7018 26.8027 13.2263 24.9487 13.2263ZM29.1404 8.4879H30.1077V23.2799C29.745 23.3623 29.4226 23.4859 29.1404 23.7331V8.4879ZM30.5108 26.741L29.1404 25.3401C29.221 24.6396 29.7853 24.104 30.4705 24.104C31.1557 24.104 31.7602 24.6808 31.8006 25.3813L30.5108 26.741ZM31.8812 23.7744C31.599 23.5271 31.2766 23.3623 30.9138 23.3211V8.4879H31.8812V23.7744ZM31.8812 7.66383H29.1404V6.0981H31.8812V7.66383Z" fill="white"/>
<path d="M16.3638 21.096C18.8627 21.096 20.8779 19.0359 20.8779 16.4812C20.8779 13.9266 18.8627 11.8665 16.3638 11.8665C13.8649 11.8665 11.8496 13.9266 11.8496 16.4812C11.8496 19.0359 13.8649 21.096 16.3638 21.096ZM16.3638 12.8553C18.2984 12.8553 19.9106 14.4623 19.9106 16.4812C19.9106 18.5002 18.3387 20.1071 16.3638 20.1071C14.4291 20.1071 12.8169 18.5002 12.8169 16.4812C12.8169 14.4623 14.4291 12.8553 16.3638 12.8553Z" fill="white"/>
<path d="M16.3647 19.1183C17.7753 19.1183 18.9442 17.9234 18.9442 16.4813C18.9442 15.0391 17.7753 13.8442 16.3647 13.8442C14.954 13.8442 13.7852 15.0391 13.7852 16.4813C13.7852 17.9234 14.954 19.1183 16.3647 19.1183ZM16.3647 15.1215C17.0902 15.1215 17.6947 15.7396 17.6947 16.4813C17.6947 17.2229 17.0902 17.841 16.3647 17.841C15.6392 17.841 15.0346 17.2229 15.0346 16.4813C15.0346 15.7396 15.6392 15.1215 16.3647 15.1215Z" fill="white"/>
<path d="M53.0257 5.31714C53.7735 5.31714 54.4382 5.48702 55.1029 5.74184C55.7676 5.99667 56.2662 6.42137 56.7647 6.93102C57.2632 7.44067 57.5956 8.03525 57.8448 8.71478C58.0941 9.39431 58.2603 10.0738 58.2603 10.8383V17.039C58.2603 17.8035 58.0941 18.483 57.8448 19.1625C57.5956 19.8421 57.1801 20.4367 56.7647 20.9463C56.2662 21.4559 55.7676 21.8806 55.1029 22.1355C54.4382 22.3903 53.7735 22.5602 53.0257 22.5602H46.7109C46.794 22.3903 46.9602 22.1355 47.0433 21.7957C47.1264 21.5409 47.2095 21.1162 47.2926 20.6065C47.3756 20.0969 47.3756 19.5023 47.3756 18.8228V9.13949C47.3756 8.45996 47.3756 7.78043 47.2926 7.35573C47.2095 6.93102 47.1264 6.50631 47.0433 6.16655C46.9602 5.82679 46.794 5.48702 46.7109 5.31714H53.0257ZM49.4529 26.5524C49.0374 26.5524 48.622 26.6374 48.2065 26.7223C47.7911 26.8072 47.4587 26.9771 47.2095 27.147C47.2926 26.6374 47.5418 26.2976 47.8742 25.9578C48.2065 25.6181 48.5389 25.3632 48.8712 25.1934C49.2036 25.0235 49.619 24.8536 49.9514 24.7687C50.2838 24.6837 50.6161 24.5988 50.8654 24.5988C51.2808 24.5988 51.6963 24.5988 52.0286 24.6837C52.361 24.7686 52.6933 24.8536 53.1088 24.9385C53.4411 25.0235 53.7735 25.1084 54.1889 25.1934C54.5213 25.2783 55.0198 25.2783 55.4353 25.2783C55.8507 25.2783 56.1831 25.1934 56.5154 25.0235C56.8478 24.9385 57.097 24.7686 57.4294 24.5988C57.2632 25.1084 57.097 25.5331 56.7647 25.8729C56.4323 26.2126 56.1 26.4675 55.7676 26.6374C55.4353 26.8072 55.0198 26.9771 54.6875 27.0621C54.3551 27.147 54.0228 27.147 53.8566 27.147C53.4411 27.147 53.0257 27.147 52.6933 27.0621C52.361 26.9771 52.0286 26.8922 51.6963 26.8072C51.3639 26.7223 51.0316 26.6374 50.6992 26.5524C50.3668 26.5524 49.9514 26.4675 49.4529 26.5524ZM55.0198 10.8383C55.0198 10.4985 54.9367 9.9889 54.8536 9.47925C54.7706 8.96961 54.6044 8.37502 54.272 7.86537C53.9397 7.35573 53.6073 6.93102 53.1919 6.59126C52.6933 6.25149 52.1117 6.08161 51.3639 6.08161H50.533V18.3981C50.7823 18.2282 50.9485 18.1432 51.1146 18.0583C51.447 17.9734 51.7794 17.9734 52.1117 18.0583C52.4441 18.1432 52.6933 18.3981 52.7764 18.7378C52.4441 18.6529 52.1117 18.7378 51.8624 18.8228C51.5301 18.9077 51.3639 19.1625 51.1146 19.3324C50.9485 19.5872 50.7823 19.8421 50.7823 20.1818C50.6992 20.5216 50.7823 20.7764 50.8654 21.1162C50.9485 21.2861 51.0316 21.4559 51.2808 21.5409C51.5301 21.7108 51.7794 21.7957 52.1117 21.7957H52.361C52.7764 21.7957 53.1919 21.6258 53.5242 21.2861C53.8566 20.9463 54.1058 20.5216 54.3551 20.0119C54.6044 19.5023 54.6875 18.9927 54.8536 18.3981C54.9367 17.8884 55.0198 17.3788 55.0198 17.039V10.8383Z" fill="white"/>
<path d="M70.2258 27.3169H60.0059C60.0889 27.147 60.2551 26.8922 60.3382 26.5524C60.4213 26.2976 60.5044 25.8729 60.5875 25.3633C60.6706 24.8536 60.6706 24.259 60.6706 23.5795V9.13951C60.6706 8.45998 60.6706 7.78045 60.5875 7.35575C60.5044 6.8461 60.4213 6.50634 60.3382 6.16657C60.2551 5.82681 60.0889 5.57198 60.0059 5.4021H69.8934L69.6442 8.37504H68.9795C68.8964 7.95033 68.8133 7.61057 68.6471 7.35575C68.564 7.10092 68.3978 6.8461 68.2317 6.67622C68.0655 6.50633 67.7331 6.33645 67.3177 6.25151C66.9022 6.16657 66.4037 6.16657 65.739 6.16657H63.911V12.8769C64.4927 12.8769 65.0743 12.8769 65.5728 12.8769C66.0713 12.8769 66.4868 12.792 66.9022 12.792C67.3177 12.707 67.7331 12.6221 67.9824 12.5372C67.9824 12.6221 67.9824 12.792 67.9824 12.9619C67.9824 13.2167 67.8993 13.4715 67.8162 13.8113C67.7331 14.151 67.4839 14.3209 67.1515 14.4059C66.8191 14.4908 66.4868 14.4908 66.1544 14.4059L63.911 13.7263V25.1934C63.911 25.2783 63.911 25.4482 63.9941 25.6181C64.0772 25.788 64.1603 25.9579 64.2434 26.0428C64.4096 26.2127 64.5757 26.2976 64.825 26.3826C65.0743 26.4675 65.4066 26.5524 65.739 26.5524H66.8191C67.3177 26.5524 67.65 26.4675 67.8993 26.2976C68.1486 26.1277 68.3978 25.8729 68.564 25.6181C68.7302 25.3633 68.8964 25.0235 68.9795 24.5988C69.0625 24.259 69.1456 23.8343 69.2287 23.4946H69.9765L70.2258 27.3169Z" fill="white"/>
<path d="M74.8781 8.79983C74.8781 9.64924 75.0443 10.4137 75.4597 11.0932C75.8751 11.7728 76.3737 12.4523 76.9553 13.1318C77.5369 13.8114 78.2016 14.4059 78.8663 15.0855C79.5311 15.765 80.1958 16.3596 80.7774 17.1241C81.359 17.8036 81.8575 18.5681 82.273 19.4175C82.6884 20.2669 82.8546 21.1163 82.8546 22.1356C82.8546 24.0892 82.3561 25.6182 81.4421 26.7224C80.5281 27.8266 79.1156 28.3363 77.2046 28.3363C76.5399 28.3363 75.7921 28.2513 75.1273 28.0815C74.4626 27.9116 73.881 27.5718 73.3825 27.1471C72.8839 26.7224 72.4685 26.2128 72.1361 25.7031C71.8038 25.1085 71.7207 24.429 71.7207 23.6645C71.7207 22.985 71.8038 22.3904 72.0531 21.7958C72.3023 21.2862 72.5516 20.8615 72.8839 20.5217C73.2163 20.1819 73.6317 19.9271 74.0472 19.7572C74.4626 19.5874 74.8781 19.5024 75.2104 19.5024C76.2906 19.5024 77.1215 19.7572 77.5369 20.1819C78.0355 20.6066 78.2847 21.2012 78.2847 21.7958C77.9524 21.7109 77.5369 21.6259 77.1215 21.6259C76.706 21.6259 76.3737 21.7109 76.0413 21.8808C75.709 22.0506 75.3766 22.2205 75.1273 22.4753C74.8781 22.7302 74.6288 23.0699 74.5457 23.4097C74.3795 23.8344 74.2965 24.3441 74.3795 24.8537C74.4626 25.3633 74.5457 25.7881 74.795 26.1278C75.0443 26.5525 75.3766 26.8073 75.709 27.0622C76.1244 27.317 76.5399 27.4019 77.1215 27.4019C77.7031 27.4019 78.2016 27.317 78.6171 27.1471C79.0325 26.9772 79.3649 26.7224 79.6141 26.3826C79.8634 26.0429 80.1127 25.7031 80.1958 25.3633C80.2789 24.9386 80.3619 24.5989 80.3619 24.1742C80.3619 23.2398 80.1958 22.3904 79.7803 21.6259C79.3649 20.8615 78.8663 20.097 78.2847 19.4175C77.7031 18.7379 77.0384 18.0584 76.2906 17.3789C75.5428 16.6994 74.8781 16.0198 74.2965 15.3403C73.7148 14.6608 73.2163 13.8963 72.8009 13.0469C72.3854 12.1975 72.2192 11.3481 72.2192 10.3288C72.2192 9.5643 72.3854 8.79983 72.6347 8.1203C72.8839 7.44077 73.2994 6.84619 73.7979 6.33654C74.2965 5.82689 74.8781 5.48713 75.5428 5.14736C76.2075 4.8076 77.0384 4.72266 77.7862 4.72266C78.7002 4.72266 79.448 4.89254 80.0296 5.14736C80.6112 5.48713 81.1097 5.82689 81.5252 6.2516C81.9406 6.6763 82.1899 7.18595 82.3561 7.61066C82.5223 8.1203 82.6053 8.54501 82.6053 8.96971C82.6053 9.64924 82.5223 10.2438 82.273 10.6685C82.0237 11.1782 81.7745 11.5179 81.4421 11.8577C81.1097 12.1975 80.7774 12.3674 80.445 12.5372C80.1127 12.7071 79.6972 12.7921 79.448 12.7921C79.0325 12.7921 78.7002 12.7071 78.3678 12.6222C78.0355 12.5372 77.7031 12.3674 77.4538 12.1975C77.2046 12.0276 76.9553 11.7728 76.7891 11.5179C76.6229 11.2631 76.5399 11.0083 76.5399 10.7535C76.8722 10.8384 77.2046 10.9234 77.62 10.9234C77.9524 10.9234 78.2847 10.8384 78.6171 10.6685C78.9494 10.4987 79.1987 10.3288 79.448 10.0739C79.6972 9.81912 79.8634 9.5643 80.0296 9.22454C80.1127 8.96971 80.1958 8.62995 80.1958 8.20525C80.1958 7.78054 80.1127 7.35583 79.9465 7.01607C79.7803 6.59136 79.5311 6.2516 79.1987 5.99677C78.8663 5.74195 78.3678 5.57207 77.7862 5.57207C77.2877 5.57207 76.8722 5.65701 76.5399 5.82689C76.2075 5.99678 75.8751 6.2516 75.6259 6.59136C75.3766 6.93113 75.2104 7.27089 75.0443 7.61066C74.8781 8.03536 74.8781 8.37513 74.8781 8.79983Z" fill="white"/>
<path d="M87.9228 23.4945C87.9228 24.259 87.9228 24.8536 88.0058 25.2783C88.0889 25.788 88.172 26.1277 88.2551 26.4675C88.3382 26.8072 88.4213 27.0621 88.5875 27.2319H84.0176C84.1007 27.0621 84.2668 26.8072 84.3499 26.4675C84.433 26.2127 84.5161 25.788 84.5992 25.2783C84.6823 24.7687 84.6823 24.1741 84.6823 23.4945V9.13951C84.6823 8.45998 84.6823 7.78045 84.5992 7.35575C84.5161 6.93104 84.433 6.50633 84.3499 6.16657C84.2668 5.82681 84.1007 5.57198 84.0176 5.4021H88.5875C88.4213 5.57198 88.3382 5.82681 88.2551 6.16657C88.172 6.42139 88.0889 6.8461 88.0058 7.35575C87.9228 7.86539 87.9228 8.45998 87.9228 9.13951V23.4945Z" fill="white"/>
<path d="M100.968 27.3171C100.303 27.3171 99.8049 27.2321 99.5556 27.1472C99.3064 27.0622 99.0571 26.8924 98.8909 26.7225C98.4755 26.9773 97.9769 27.2321 97.4784 27.3171C96.9799 27.4869 96.3983 27.5719 95.8166 27.5719C95.0688 27.5719 94.321 27.4869 93.7394 27.2321C93.0747 26.9773 92.5762 26.6375 92.0776 26.2128C91.6622 25.7881 91.2467 25.2785 90.9975 24.7688C90.7482 24.1742 90.582 23.5796 90.582 22.9851V9.73426C90.582 9.05473 90.6651 8.46014 90.9144 7.9505C91.1637 7.35591 91.496 6.84626 91.9115 6.42156C92.3269 5.99685 92.9085 5.65709 93.6563 5.40227C94.321 5.14744 95.1519 5.0625 96.0659 5.0625C97.063 5.0625 97.8939 5.23238 98.5586 5.48721C99.2233 5.82697 99.7218 6.16674 100.137 6.59144C100.47 7.01615 100.802 7.52579 100.885 8.03544C101.051 8.54508 101.134 8.96979 101.134 9.39449C101.134 10.074 101.051 10.5837 100.802 11.0933C100.636 11.518 100.387 11.9427 100.054 12.1975C99.7218 12.5373 99.3895 12.7072 99.0571 12.8771C98.7247 13.047 98.3924 13.1319 98.06 13.1319C97.1461 13.1319 96.3983 12.8771 95.8997 12.4524C95.4012 12.0277 95.0688 11.518 95.0688 10.9234C95.4012 11.0084 95.7335 11.0933 96.0659 11.0933C96.3983 11.0933 96.7306 11.0084 97.063 10.8385C97.3953 10.6686 97.6446 10.4987 97.8939 10.3288C98.1431 10.074 98.3093 9.8192 98.4755 9.47944C98.5586 9.22462 98.6417 8.88485 98.6417 8.46014C98.6417 8.03544 98.5586 7.61073 98.3924 7.27097C98.2262 6.84626 97.9769 6.5065 97.6446 6.25168C97.3122 5.99685 96.8137 5.82697 96.2321 5.82697C95.7335 5.82697 95.4012 5.91191 95.0688 6.0818C94.7365 6.25168 94.5703 6.42156 94.321 6.67638C94.1549 6.9312 93.9887 7.18603 93.9056 7.44085C93.8225 7.69568 93.8225 7.9505 93.8225 8.20532V24.2592C93.8225 24.514 93.8225 24.7688 93.9056 25.0236C93.9887 25.2785 94.0718 25.6182 94.2379 25.7881C94.4041 26.0429 94.5703 26.2128 94.8196 26.3827C95.0688 26.5526 95.4012 26.6375 95.8166 26.6375C96.2321 26.6375 96.4813 26.5526 96.7306 26.3827C96.9799 26.2128 97.1461 26.0429 97.3122 25.7881C97.4784 25.5333 97.5615 25.2785 97.5615 25.0236C97.6446 24.7688 97.6446 24.4291 97.6446 24.2592V19.3326C97.6446 18.6531 97.5615 17.9735 97.5615 17.5488C97.4784 17.0392 97.3953 16.6994 97.3122 16.3597C97.2291 16.0199 97.1461 15.7651 96.9799 15.5952H100.885V27.3171H100.968Z" fill="white"/>
<path d="M114.262 5.31714C114.179 5.48702 114.096 5.6569 114.013 5.91172C113.93 6.08161 113.847 6.25149 113.847 6.50631C113.764 6.76114 113.764 7.01596 113.764 7.27078V27.3169H112.767L104.458 9.22443V25.3632C104.458 25.6181 104.458 25.8729 104.541 26.1277C104.624 26.3825 104.624 26.5524 104.707 26.7223C104.79 26.8922 104.873 27.147 104.956 27.3169H102.962C103.045 27.147 103.128 26.9771 103.211 26.7223C103.295 26.5524 103.295 26.3825 103.378 26.1277C103.461 25.8729 103.461 25.6181 103.461 25.3632V8.71478C103.461 8.03525 103.378 7.5256 103.295 7.1009C103.211 6.67619 103.128 6.33643 103.045 6.08161C102.962 5.74185 102.879 5.57196 102.713 5.40208H106.036L112.684 19.6722V7.27078C112.684 7.01596 112.684 6.76114 112.6 6.50631C112.517 6.25149 112.517 6.08161 112.434 5.91172C112.351 5.74184 112.268 5.48702 112.185 5.31714H114.262Z" fill="white"/>
<path d="M131.213 5.4021L130.964 8.45998H130.299C130.216 8.03527 130.133 7.69551 130.05 7.44069C129.967 7.18586 129.801 6.93104 129.634 6.76116C129.385 6.59127 129.136 6.42139 128.804 6.33645C128.471 6.25151 127.973 6.16657 127.308 6.16657V15.9348H129.385V16.8692H127.308V23.5795C127.308 24.259 127.308 24.8536 127.391 25.3633C127.391 25.6181 127.474 25.788 127.474 26.0428C127.474 26.2976 127.557 26.3826 127.557 26.5524C127.64 26.9771 127.806 27.232 127.89 27.3169H123.32C123.403 27.232 123.486 27.0621 123.486 26.8922C123.486 26.7223 123.569 26.6374 123.652 26.4675C123.652 26.2976 123.735 26.1277 123.735 25.9578C123.735 25.788 123.818 25.5331 123.818 25.2783C123.901 24.7687 123.901 24.1741 123.901 23.4946V16.8692H121.824V15.9348H123.984V6.16657C123.32 6.16657 122.821 6.25151 122.489 6.33645C122.156 6.42139 121.907 6.59127 121.658 6.76116C121.492 6.93104 121.326 7.18586 121.242 7.44069C121.242 7.61057 121.159 7.78045 121.076 7.95033C120.993 8.12022 120.993 8.2901 120.91 8.54492H120.245L119.996 5.48704H131.213V5.4021Z" fill="white"/>
<path d="M143.259 23.8343C143.508 24.7686 143.758 25.4482 144.007 25.9578C144.256 26.4675 144.589 26.8072 145.087 27.147C144.838 27.3169 144.505 27.4868 144.09 27.4868C143.675 27.5717 143.425 27.5717 143.176 27.5717C142.428 27.4868 141.847 27.3169 141.265 26.8922C140.766 26.4675 140.351 25.8729 140.185 25.0235L138.357 15.7649C137.775 15.7649 137.277 15.5101 136.778 15.1703V23.4945C136.778 24.259 136.778 24.8536 136.861 25.2783C136.944 25.7879 137.027 26.1277 137.111 26.4675C137.194 26.8072 137.277 27.062 137.443 27.2319H132.873C132.956 27.062 133.122 26.8072 133.205 26.4675C133.288 26.2126 133.372 25.7879 133.455 25.2783C133.538 24.7686 133.538 24.1741 133.538 23.4945V9.05455C133.538 8.37502 133.538 7.69548 133.455 7.27078C133.372 6.84607 133.288 6.42137 133.205 6.08161C133.122 5.74185 132.956 5.48702 132.873 5.31714H138.191C139.022 5.31714 139.769 5.40208 140.351 5.57196C141.016 5.74184 141.597 6.0816 142.013 6.42137C142.511 6.84607 142.844 7.35572 143.093 7.95031C143.342 8.62984 143.508 9.39431 143.508 10.3287C143.508 11.7727 143.176 12.9618 142.428 13.8962C141.68 14.8305 140.683 15.4251 139.437 15.595C139.686 15.6799 139.936 15.8498 140.185 16.0197C140.434 16.1896 140.683 16.4444 140.933 16.6992C141.182 16.9541 141.431 17.2938 141.597 17.7185C141.847 18.1432 142.013 18.5679 142.096 19.1625L143.259 23.8343ZM137.027 14.3209C137.111 14.4908 137.277 14.6607 137.526 14.8305C137.775 15.0004 138.025 15.0854 138.357 15.0854C138.772 15.0854 139.105 15.0004 139.354 14.7456C139.603 14.4908 139.853 14.151 139.936 13.7263C140.102 13.3016 140.185 12.792 140.268 12.2823C140.351 11.6877 140.351 11.0931 140.351 10.4985C140.351 9.64913 140.268 9.05454 140.102 8.45996C139.936 7.95031 139.686 7.44066 139.437 7.1009C139.188 6.76114 138.855 6.50631 138.523 6.33643C138.191 6.16655 137.858 6.08161 137.443 6.08161H136.695V11.6028C136.861 11.4329 137.027 11.348 137.277 11.263C137.526 11.1781 137.692 11.1781 137.941 11.1781C138.191 11.1781 138.357 11.263 138.523 11.348C138.689 11.4329 138.855 11.6028 138.939 11.8576C138.606 11.7727 138.274 11.8576 138.025 11.9425C137.692 12.0275 137.526 12.2823 137.277 12.4522C137.111 12.707 136.944 12.9618 136.944 13.3016C136.944 13.6414 136.944 13.9811 137.027 14.3209Z" fill="white"/>
<path d="M149.575 23.4945C149.575 24.259 149.575 24.8536 149.658 25.2783C149.741 25.703 149.824 26.1277 149.907 26.4675C149.991 26.8072 150.074 27.0621 150.24 27.2319H145.67C145.753 27.0621 145.919 26.8072 146.002 26.4675C146.085 26.2127 146.168 25.788 146.252 25.2783C146.335 24.7687 146.335 24.1741 146.335 23.4945V9.13951C146.335 8.45998 146.335 7.78045 146.252 7.35575C146.168 6.93104 146.085 6.50633 146.002 6.16657C145.919 5.82681 145.753 5.57198 145.67 5.4021H150.24C150.074 5.57198 149.991 5.82681 149.907 6.16657C149.824 6.42139 149.741 6.8461 149.658 7.35575C149.575 7.86539 149.575 8.45998 149.575 9.13951V23.4945Z" fill="white"/>
<path d="M159.546 15.4252C160.127 15.5951 160.626 15.8499 161.124 16.1896C161.623 16.5294 162.038 16.8692 162.371 17.3788C162.703 17.8035 163.035 18.3981 163.202 18.9927C163.451 19.5873 163.534 20.3518 163.534 21.1162C163.534 22.2205 163.368 23.2397 163.035 24.0042C162.703 24.7687 162.288 25.4482 161.706 25.9579C161.124 26.4675 160.46 26.8073 159.795 27.0621C159.047 27.3169 158.216 27.4019 157.385 27.4019H151.818C151.901 27.232 152.068 26.9772 152.151 26.6374C152.234 26.3826 152.317 25.9579 152.4 25.4482C152.483 24.9386 152.483 24.344 152.483 23.6645V9.22447C152.483 8.54494 152.483 7.86541 152.4 7.44071C152.317 6.93106 152.234 6.5913 152.151 6.25153C152.068 5.91177 151.985 5.65694 151.818 5.48706H157.136C157.967 5.48706 158.715 5.572 159.296 5.74189C159.961 5.91177 160.543 6.25153 160.958 6.5913C161.457 7.016 161.789 7.52565 162.038 8.12023C162.288 8.79976 162.454 9.56423 162.454 10.4986C162.454 11.7727 162.204 12.792 161.706 13.6414C161.207 14.4908 160.543 15.0005 159.546 15.4252ZM155.64 15.0005H157.302C157.718 15.0005 158.05 14.9155 158.299 14.6607C158.549 14.4059 158.798 14.0661 158.881 13.6414C159.047 13.2167 159.13 12.7071 159.213 12.1974C159.296 11.6028 159.296 11.0082 159.296 10.4136C159.296 9.56424 159.213 8.96965 159.047 8.37506C158.881 7.86541 158.632 7.35577 158.382 7.016C158.133 6.67624 157.801 6.42141 157.468 6.25153C157.136 6.08165 156.804 5.99671 156.388 5.99671H155.64V15.0005ZM157.302 26.5525C157.718 26.5525 158.133 26.3826 158.465 26.1277C158.798 25.8729 159.13 25.4482 159.463 24.9386C159.712 24.4289 159.961 23.8343 160.127 23.2397C160.293 22.5602 160.377 21.8807 160.377 21.1162C160.377 20.2668 160.21 19.5023 159.961 18.8228C159.712 18.1433 159.379 17.6336 159.047 17.2089C158.632 16.7842 158.216 16.4445 157.801 16.1896C157.302 15.9348 156.887 15.8499 156.388 15.8499H155.64V23.1548C155.807 22.9849 156.056 22.9 156.222 22.815C156.554 22.7301 156.887 22.7301 157.219 22.815C157.551 22.9 157.801 23.1548 157.884 23.4946C157.551 23.4096 157.219 23.4946 156.97 23.5795C156.721 23.6645 156.471 23.9193 156.222 24.0892C156.056 24.344 155.89 24.5988 155.89 24.9386C155.807 25.2783 155.89 25.5332 155.973 25.8729C156.056 26.0428 156.222 26.2127 156.388 26.3826C156.721 26.4675 156.97 26.5525 157.302 26.5525Z" fill="white"/>
<path d="M174.999 27.3169H164.779C164.862 27.147 165.029 26.8922 165.112 26.5524C165.195 26.2976 165.278 25.8729 165.361 25.3633C165.444 24.8536 165.444 24.259 165.444 23.5795V9.13951C165.444 8.45998 165.444 7.78045 165.361 7.35575C165.278 6.93104 165.195 6.50634 165.112 6.16657C165.029 5.82681 164.862 5.57198 164.779 5.4021H174.667L174.418 8.45998H173.753C173.67 8.03527 173.587 7.69551 173.421 7.44069C173.337 7.18586 173.171 6.93104 173.005 6.76116C172.839 6.59127 172.507 6.42139 172.091 6.33645C171.676 6.25151 171.177 6.25151 170.512 6.25151H168.684V12.9619C169.266 12.9619 169.848 12.9619 170.346 12.9619C170.845 12.9619 171.26 12.8769 171.676 12.8769C172.091 12.792 172.507 12.707 172.756 12.6221C172.756 12.707 172.756 12.8769 172.756 13.0468C172.756 13.3016 172.673 13.5564 172.59 13.8962C172.507 14.236 172.257 14.4059 171.925 14.4908C171.593 14.5757 171.26 14.5757 170.928 14.4908L168.684 13.8113V25.2783C168.684 25.3633 168.684 25.5331 168.768 25.703C168.851 25.8729 168.934 26.0428 169.017 26.1277C169.183 26.2976 169.349 26.3826 169.598 26.4675C169.848 26.5524 170.18 26.6374 170.512 26.6374H171.593C172.091 26.6374 172.423 26.5524 172.673 26.3826C172.922 26.2127 173.171 25.9579 173.337 25.703C173.504 25.4482 173.67 25.1084 173.753 24.6837C173.836 24.344 173.919 23.9193 174.002 23.5795H174.667L174.999 27.3169Z" fill="white"/>
</svg>
