<svg width="35" height="307" viewBox="0 0 35 307" fill="none" xmlns="http://www.w3.org/2000/svg">
<path d="M1.42844 306.245L1.27802 291.17C1.25998 289.46 1.6042 287.765 2.28802 286.197C2.93939 284.696 3.89454 283.346 5.09333 282.233C7.54929 279.967 10.769 278.711 14.1103 278.714H28.846C30.5241 278.713 32.1872 279.03 33.7468 279.65C34.1705 279.82 34.5911 280.014 34.9957 280.226V287.627C33.958 287.238 32.8902 286.934 31.8029 286.719C30.7421 286.516 29.6661 286.404 28.5863 286.383H14.2215C13.1434 286.408 12.0684 286.508 11.0042 286.682C9.69319 286.907 8.429 287.349 7.26377 287.991C6.07069 288.659 5.03686 289.578 4.23375 290.684C3.36378 291.973 2.93035 293.507 2.99718 295.061V297.006H31.7274C31.4302 296.551 31.1915 296.061 31.017 295.547C30.8305 294.785 30.8305 293.99 31.017 293.228C31.0948 292.846 31.2809 292.495 31.5531 292.216C31.8254 291.938 32.1722 291.743 32.552 291.657C32.4265 292.376 32.4955 293.116 32.752 293.8C33.0085 294.484 33.4431 295.087 34.0108 295.547C34.3124 295.788 34.6441 295.99 34.9975 296.146V304.587C34.3148 304.544 33.6191 304.522 32.929 304.522H9.98004C8.60895 304.522 7.23925 304.61 5.87923 304.784C5.00577 304.952 4.14432 305.178 3.30049 305.459C2.63865 305.619 2.00681 305.885 1.42906 306.245H1.42844Z" fill="#F3F3F3"/>
<path d="M1.31616 274.486V250.771L8.4605 251.406V253.09C7.52233 253.315 6.70512 253.575 6.02912 253.8C5.32987 253.987 4.69985 254.373 4.21528 254.911C3.73071 255.448 3.41235 256.115 3.29872 256.83C3.0836 258.065 2.9833 259.317 2.9991 260.57V265.246H18.7098C18.8222 263.915 18.8222 262.576 18.7098 261.244L18.4476 258.139C18.4212 257.416 18.2934 256.701 18.0682 256.013C18.016 255.829 17.9662 255.652 17.9239 255.483C18.2343 255.444 18.5485 255.444 18.859 255.483C19.5437 255.509 20.2223 255.622 20.8784 255.82C21.234 255.943 21.5519 256.155 21.801 256.437C22.0502 256.719 22.2222 257.061 22.3004 257.429C22.5251 258.236 22.5251 259.09 22.3004 259.897L20.7654 265.321H34.9964V272.915H10.1441C9.98994 272.915 9.83706 272.911 9.68172 272.911C8.42205 272.911 7.16396 273 5.91676 273.177C4.99605 273.292 4.08394 273.468 3.18636 273.703C2.53648 273.895 1.90941 274.158 1.31616 274.486L1.31616 274.486Z" fill="#F3F3F3"/>
<path d="M13.1961 245.236H13.0236H12.9493C11.1948 245.237 9.45577 244.907 7.82375 244.263C6.2749 243.637 4.87381 242.694 3.71005 241.495C2.51668 240.277 1.58775 238.826 0.981496 237.232C0.317098 235.488 -0.0134412 233.634 0.00710023 231.768C-0.0559819 229.892 0.301934 228.026 1.05456 226.306C1.66651 224.906 2.54197 223.636 3.6333 222.565C4.57896 221.7 5.68427 221.026 6.88743 220.583C7.90339 220.192 8.97882 219.977 10.0673 219.947C10.1354 219.947 10.2048 219.947 10.2729 219.947C11.5913 219.946 12.8962 220.213 14.1073 220.734C15.1491 221.178 16.0905 221.827 16.8751 222.643C17.556 223.362 18.101 224.198 18.4838 225.111C18.8403 225.886 19.0312 226.727 19.0443 227.58C19.0606 228.47 18.9214 229.356 18.633 230.198C18.4061 230.998 18.0525 231.755 17.5855 232.443C17.2061 233.068 16.6959 233.604 16.0898 234.014C15.516 234.369 14.8566 234.563 14.1816 234.575C14.477 233.774 14.5921 232.919 14.5187 232.069C14.4617 231.23 14.2591 230.407 13.92 229.637C13.5728 228.892 13.1052 228.21 12.5361 227.617C11.9625 227.034 11.2749 226.576 10.5161 226.271C9.82894 225.994 9.095 225.852 8.35424 225.853C8.2646 225.853 8.17373 225.853 8.08408 225.859C7.08992 225.899 6.11254 226.129 5.20388 226.534C4.27816 226.957 3.46921 227.599 2.84679 228.404C2.12471 229.4 1.76938 230.615 1.84108 231.843C1.81791 232.893 2.04966 233.933 2.51646 234.873C2.95667 235.714 3.55352 236.464 4.27492 237.081C5.01854 237.671 5.85208 238.138 6.74375 238.464C7.62406 238.764 8.54467 238.928 9.47415 238.951H9.58651C11.4156 238.951 13.2112 238.46 14.7857 237.529C16.4815 236.447 18.0611 235.194 19.4993 233.788C21.1034 232.325 22.6267 230.777 24.0625 229.149C25.5398 227.51 27.1138 225.961 28.776 224.51C30.3864 223.103 32.1717 221.908 34.0876 220.957C34.3854 220.809 34.6918 220.669 35 220.542V229.836C34.693 230.096 34.386 230.368 34.0876 230.645C32.474 232.123 30.9384 233.683 29.487 235.321C27.9725 236.985 26.3611 238.559 24.6611 240.034C23.0456 241.487 21.2624 242.743 19.3495 243.774C17.4397 244.733 15.3329 245.233 13.1961 245.236ZM34.9963 241.244C34.8394 240.962 34.6976 240.671 34.5714 240.374C34.181 239.515 33.9648 238.587 33.9353 237.644C33.7882 235.99 34.159 234.332 34.9963 232.898V241.244Z" fill="#F3F3F3"/>
<path d="M1.27869 217.032V206.183C1.83948 206.574 2.47693 206.842 3.14889 206.968C4.03385 207.269 4.94967 207.47 5.87928 207.567C7.15864 207.718 8.4457 207.793 9.73388 207.794C9.85668 207.794 9.98255 207.794 10.1066 207.794H34.9963V215.462H10.2558C10.0894 215.462 9.92115 215.459 9.75476 215.459C8.45958 215.459 7.16553 215.535 5.87928 215.687C4.96035 215.828 4.04908 216.016 3.14889 216.248C2.49272 216.423 1.86351 216.687 1.27869 217.032H1.27869Z" fill="#F3F3F3"/>
<path d="M34.9957 201.133H11.5365C10.0808 201.135 8.63976 200.843 7.30002 200.274C5.9689 199.741 4.77844 198.909 3.82117 197.842C2.77782 196.642 1.98889 195.242 1.50215 193.728C0.871291 191.887 0.567697 189.949 0.605114 188.003C0.543956 185.97 0.900454 183.945 1.65257 182.055C2.24024 180.631 3.13405 179.354 4.27061 178.314C5.23175 177.465 6.36879 176.84 7.60025 176.482C8.64424 176.164 9.72612 175.988 10.8169 175.959H10.8617C12.1316 175.957 13.3887 176.212 14.5579 176.707C15.5652 177.101 16.4722 177.714 17.2134 178.502C17.9036 179.178 18.4396 179.995 18.7846 180.897C19.1122 181.68 19.2898 182.517 19.3084 183.366C19.3999 185.245 18.8308 187.098 17.6997 188.602C17.3035 189.164 16.7841 189.628 16.1813 189.959C15.5786 190.289 14.9082 190.478 14.2215 190.51C14.5161 189.735 14.6433 188.906 14.5948 188.079C14.5417 187.255 14.3522 186.446 14.0342 185.684C13.7271 184.955 13.2967 184.284 12.762 183.701C12.2181 183.144 11.5699 182.7 10.8544 182.392C10.1144 182.144 9.33879 182.017 8.55807 182.017H8.423C8.353 182.017 8.28239 182.014 8.21363 182.014C7.30956 182.013 6.41434 182.192 5.58024 182.541C4.65879 182.954 3.85988 183.598 3.26122 184.411C2.57289 185.409 2.2312 186.605 2.28866 187.815C2.25191 188.758 2.44449 189.695 2.84985 190.546C3.20366 191.209 3.70229 191.784 4.30868 192.227C4.86129 192.664 5.4979 192.982 6.17888 193.162C6.76744 193.302 7.36938 193.377 7.97417 193.387H34.9957V201.13V201.133ZM25.2947 186.021V176.781L34.9957 176.662V184.45H34.1226C32.7094 184.474 31.2984 184.573 29.8959 184.749C28.9732 184.832 28.0595 184.994 27.1649 185.235C26.4934 185.362 25.8564 185.63 25.2959 186.021H25.2947Z" fill="#F3F3F3"/>
<path d="M1.42851 172.292V164.325L34.795 148.353H5.79027C5.17734 148.353 4.56675 148.428 3.97226 148.577C3.58479 148.604 3.20771 148.714 2.86708 148.901C2.767 148.947 2.67306 148.991 2.58526 149.024H2.58035C2.20889 149.172 1.64832 149.397 1.27625 149.583V144.61C1.68392 144.887 2.12342 145.113 2.58526 145.285C3.02454 145.496 3.48996 145.647 3.96919 145.734C4.46772 145.86 4.98003 145.924 5.49433 145.924C5.55941 145.924 5.62511 145.924 5.68958 145.921H34.9963V156.616L10.2558 168.178H34.9963V170.683H9.2464C7.99251 170.698 6.74169 170.811 5.50538 171.02C4.68442 171.142 3.87224 171.317 3.074 171.544C2.48061 171.678 1.92092 171.932 1.42913 172.291L1.42851 172.292Z" fill="#F3F3F3"/>
<path d="M1.50345 131.259L1.35364 104.064L8.49798 104.7V106.383C7.92758 106.525 7.41184 106.666 6.91267 106.802C6.62962 106.878 6.36315 106.951 6.10405 107.019C5.45725 107.203 4.88278 107.582 4.45856 108.104C3.9778 108.695 3.63298 109.385 3.44856 110.124C3.20887 111.356 3.10836 112.61 3.14893 113.864H25.9671V108.702H28.2112V113.752H34.9964V121.42H28.3236V126.433H26.0795V121.42H3.29874C3.25817 122.674 3.35868 123.929 3.59837 125.161C3.76547 125.906 4.11195 126.599 4.60776 127.181C5.02874 127.691 5.60812 128.046 6.25386 128.189L7.37622 128.563C7.78989 128.72 8.21499 128.845 8.64779 128.937V130.583L1.50406 131.259H1.50345Z" fill="#F3F3F3"/>
<path d="M1.42779 100.174V87.3415C1.41359 85.5759 1.62739 83.8157 2.06388 82.1048C2.4614 80.6184 3.16188 79.2302 4.12134 78.0273C5.14578 76.8736 6.42703 75.9768 7.86175 75.4093C9.4769 74.7851 11.1937 74.4656 12.9253 74.4668C13.0702 74.4668 13.2163 74.4668 13.3606 74.4736C13.5657 74.4638 13.7738 74.4595 13.9795 74.4595C16.7791 74.4593 19.5075 75.3414 21.7771 76.9805C23.9612 78.7869 25.3781 81.3551 25.7416 84.166C26.0458 83.5619 26.3828 82.9748 26.751 82.4075C27.2501 81.7423 27.814 81.1284 28.4346 80.5748C30.0584 79.1609 32.0147 78.1827 34.1201 77.732L34.995 77.5294V85.3129L25.7416 87.1942C25.688 88.5561 25.2032 89.8659 24.3571 90.9346H34.9962V98.5658H10.2563C10.101 98.5658 9.94377 98.5615 9.78843 98.5615C8.53081 98.5618 7.27476 98.6507 6.02961 98.8273C5.10872 98.9412 4.19638 99.1159 3.2986 99.3505C2.64032 99.5382 2.01087 99.8152 1.42779 100.174ZM12.6975 82.5131C11.2266 82.5133 9.76278 82.7164 8.34741 83.1167C7.21423 83.4553 6.15921 84.0148 5.2431 84.7628C4.49162 85.3708 3.90123 86.1544 3.52393 87.0443C3.16406 87.8185 2.97277 88.6602 2.96275 89.5138V91.2722H15.8675C15.5044 90.8983 15.2241 90.4521 15.0448 89.9626C14.8529 89.4497 14.7886 88.8979 14.8575 88.3546C14.8869 87.8507 15.0411 87.3621 15.3063 86.9326C15.6072 86.4648 16.0546 86.1099 16.5785 85.9232C16.4271 86.6644 16.5053 87.4342 16.8026 88.1299C17.0734 88.7919 17.5119 89.3721 18.0748 89.8134C18.6243 90.2622 19.2822 90.5587 19.9824 90.673C20.0586 90.6773 20.1359 90.6791 20.2121 90.6791C20.9586 90.6791 21.6921 90.4835 22.3395 90.1118L22.2272 90.2991C22.7071 90.0485 23.0986 89.6568 23.3489 89.1767C23.7142 88.5404 23.8955 87.8151 23.8727 87.0818C23.8936 86.6515 23.8284 86.2213 23.6808 85.8165C23.5332 85.4117 23.3061 85.0405 23.0131 84.7247C22.3712 84.0474 21.5758 83.5344 20.694 83.229C19.5864 82.8301 18.4277 82.5907 17.2527 82.518C16.565 82.4794 15.8663 82.4566 15.1768 82.4566C14.4873 82.4566 13.7886 82.4763 13.1003 82.518C12.9664 82.515 12.832 82.5131 12.6981 82.5131H12.6975Z" fill="#F3F3F3"/>
<path d="M1.42847 69.3891V58.5786C1.98953 58.9698 2.62715 59.2377 3.29928 59.3645C4.18431 59.665 5.10011 59.8658 6.02968 59.9631C7.31355 60.1137 8.60511 60.1894 9.89779 60.1897C10.0185 60.1897 10.1391 60.1897 10.2594 60.1897H34.9963V67.8203H10.2564C10.1356 67.8203 10.0151 67.8203 9.89472 67.8203C8.60204 67.8207 7.31048 67.8963 6.02661 68.0469C5.24112 68.0714 4.4642 68.2177 3.72355 68.4804C3.57189 68.527 3.42945 68.5712 3.29376 68.6081C2.63954 68.7826 2.01205 69.0451 1.42847 69.3884L1.42847 69.3891Z" fill="#F3F3F3"/>
<path d="M1.39031 54.8361V42.0456C1.37618 40.2799 1.58997 38.5198 2.02639 36.8089C2.42387 35.3226 3.12435 33.9346 4.08386 32.732C5.0973 31.5656 6.38203 30.6663 7.82488 30.1134C9.43889 29.4897 11.1544 29.1704 12.8847 29.1715C13.0302 29.1715 13.1776 29.1715 13.3231 29.1783C13.4987 29.1715 13.6768 29.1684 13.8518 29.1684C16.285 29.1699 18.6779 29.7911 20.8045 30.9736C22.6972 32.1959 24.131 34.0115 24.8814 36.1359C25.2952 34.8151 25.8867 33.5568 26.6399 32.3955C27.3996 31.2478 28.3334 30.2253 29.4077 29.3649C30.5336 28.4788 31.7975 27.7838 33.1487 27.3074C33.7533 27.1054 34.3704 26.9432 34.9962 26.8218V34.5414C34.2529 34.6904 33.5225 34.8975 32.8116 35.1609C31.4361 35.6858 30.1686 36.4585 29.0719 37.4407C28.0743 38.2823 27.2703 39.3295 26.7148 40.5106C26.2185 41.5382 25.9506 42.6612 25.9295 43.8022V45.56H34.9962V53.3429H10.2188C10.096 53.3429 9.96953 53.3429 9.84612 53.3429C8.55814 53.3433 7.27128 53.4189 5.99213 53.5695C5.20727 53.5931 4.4308 53.7381 3.6903 53.9992C3.53803 54.0465 3.39436 54.0907 3.26051 54.1276C2.60441 54.266 1.9736 54.5048 1.39031 54.8355V54.8361ZM12.765 36.8746C11.3062 36.8742 9.85543 37.0909 8.46035 37.5174C7.32453 37.8677 6.26942 38.4397 5.35604 39.2003C4.61366 39.802 4.0245 40.5711 3.63688 41.4445C3.27586 42.2306 3.08404 43.0839 3.07385 43.9489V45.7068L23.9844 45.5569V41.4801C24.0058 41.044 23.9409 40.608 23.7934 40.1971C23.6459 39.7861 23.4187 39.4084 23.1248 39.0855C22.48 38.4203 21.6846 37.92 20.8058 37.6267C19.6952 37.2316 18.5387 36.9801 17.3644 36.8783H13.2114C13.0628 36.877 12.913 36.8746 12.765 36.8746Z" fill="#F3F3F3"/>
<path d="M1.31616 23.7152V0L8.4605 0.636089V2.46884C7.52233 2.69417 6.70512 2.9545 6.02912 3.17922C5.32987 3.3664 4.69985 3.7522 4.21528 4.28995C3.73071 4.8277 3.41235 5.49435 3.29872 6.20924C3.0836 7.44412 2.9833 8.69627 2.9991 9.94964V14.4784H18.7098C18.8222 13.1466 18.8222 11.8077 18.7098 10.4758L18.4464 7.36845C18.4199 6.64565 18.2921 5.93014 18.0669 5.24283C18.0147 5.05863 17.965 4.8818 17.9226 4.71296C18.2331 4.67372 18.5473 4.67372 18.8577 4.71296C19.5424 4.73878 20.2211 4.85185 20.8771 5.04942C21.2328 5.17213 21.5506 5.38476 21.7998 5.66663C22.049 5.94851 22.221 6.29005 22.2991 6.65806C22.5238 7.46567 22.5238 8.31929 22.2991 9.1269L20.7642 14.5502H34.9964V22.144H10.1441C9.99055 22.144 9.83706 22.1403 9.68233 22.1403C8.42246 22.1405 7.16416 22.2294 5.91676 22.4062C4.99606 22.5203 4.08393 22.6952 3.18636 22.9299C2.53632 23.1228 1.90923 23.3859 1.31616 23.7146L1.31616 23.7152Z" fill="#F3F3F3"/>
</svg>
