<svg xmlns="http://www.w3.org/2000/svg" width="57" height="498.781" viewBox="0 0 57 498.781"><defs><style>.a{fill:#f7e8e5;}</style></defs><g transform="translate(1219.999 -4949.219)"><path class="a" d="M.245,526v0L0,501.448a19.741,19.741,0,0,1,1.645-8.1,19.3,19.3,0,0,1,4.569-6.457A21.629,21.629,0,0,1,20.9,481.16h24a21.575,21.575,0,0,1,7.982,1.524c.69.277,1.375.593,2.034.938v12.055a33.03,33.03,0,0,0-5.2-1.479,31.215,31.215,0,0,0-5.239-.548H21.081a38.011,38.011,0,0,0-5.24.487,19.457,19.457,0,0,0-6.092,2.132,15.382,15.382,0,0,0-4.935,4.387A11.832,11.832,0,0,0,2.8,507.784v3.168H49.593a10.511,10.511,0,0,1-1.157-2.376,7.94,7.94,0,0,1,0-3.777,3.3,3.3,0,0,1,2.5-2.559,6.676,6.676,0,0,0,2.376,6.336,7.266,7.266,0,0,0,1.607.975V523.3c-1.112-.07-2.245-.106-3.369-.106H14.173a52.759,52.759,0,0,0-6.679.426,33.029,33.029,0,0,0-4.2,1.1A10.366,10.366,0,0,0,.246,526Z" transform="translate(-1217.917 4922)"/><path class="a" d="M0,474.276V435.65l11.636,1.035v2.742c-1.528.367-2.859.791-3.96,1.157a6.1,6.1,0,0,0-4.447,4.935,33.069,33.069,0,0,0-.488,6.092v7.616H28.329a38.758,38.758,0,0,0,0-6.519l-.427-5.057a12.592,12.592,0,0,0-.618-3.462c-.085-.3-.166-.588-.235-.863a6.07,6.07,0,0,1,1.523,0,13.081,13.081,0,0,1,3.289.548,3.552,3.552,0,0,1,2.316,2.62,7.5,7.5,0,0,1,0,4.021l-2.5,8.833H54.855v12.368H14.378c-.251,0-.5-.006-.753-.006a43.753,43.753,0,0,0-6.132.433A34.366,34.366,0,0,0,3.046,473,15.261,15.261,0,0,0,0,474.275Z" transform="translate(-1217.855 4922)"/><path class="a" d="M21.494,426.635l-.281,0h-.121a22.686,22.686,0,0,1-8.348-1.584,19.558,19.558,0,0,1-6.7-4.508A20.164,20.164,0,0,1,1.6,413.6,24.254,24.254,0,0,1,.013,404.7a20.467,20.467,0,0,1,1.706-8.895,19.428,19.428,0,0,1,4.2-6.093,16.073,16.073,0,0,1,5.3-3.228,15.564,15.564,0,0,1,5.179-1.036c.111,0,.224,0,.335,0a15.754,15.754,0,0,1,6.245,1.282,13.683,13.683,0,0,1,4.508,3.108,13.349,13.349,0,0,1,2.62,4.02,9.991,9.991,0,0,1,.913,4.021,12.461,12.461,0,0,1-.67,4.265,12.648,12.648,0,0,1-1.706,3.655,8.261,8.261,0,0,1-2.436,2.559,6.1,6.1,0,0,1-3.108.914,9.44,9.44,0,0,0,.549-4.082,11.807,11.807,0,0,0-.975-3.96,12.185,12.185,0,0,0-2.254-3.29,9.683,9.683,0,0,0-3.29-2.193,9.408,9.408,0,0,0-3.521-.681c-.146,0-.294,0-.44.01a12.8,12.8,0,0,0-4.691,1.1,10.222,10.222,0,0,0-3.839,3.046A8.68,8.68,0,0,0,3,404.823a10.576,10.576,0,0,0,1.1,4.935,12.137,12.137,0,0,0,2.864,3.595,14.456,14.456,0,0,0,4.021,2.254,14.976,14.976,0,0,0,4.447.792h.183a16.644,16.644,0,0,0,8.468-2.316,47.571,47.571,0,0,0,7.677-6.093,97.372,97.372,0,0,0,7.432-7.555,90.184,90.184,0,0,1,7.677-7.555,40.517,40.517,0,0,1,8.651-5.787c.485-.242.984-.47,1.486-.677v15.137c-.5.425-1,.868-1.486,1.318a102.682,102.682,0,0,0-7.493,7.616,93.13,93.13,0,0,1-7.86,7.676,44.516,44.516,0,0,1-8.651,6.092A22.4,22.4,0,0,1,21.494,426.635ZM57,420.134l0,0a14.889,14.889,0,0,1-.692-1.417,11.623,11.623,0,0,1-1.036-4.447A13.033,13.033,0,0,1,57,406.541v13.593Z" transform="translate(-1220 4922)"/><path class="a" d="M0,380.7V363.03a7.867,7.867,0,0,0,3.046,1.279,20.41,20.41,0,0,0,4.447.975,53.893,53.893,0,0,0,6.278.369c.2,0,.405,0,.607,0H54.916v12.49H14.621c-.271,0-.545-.006-.816-.006a53.917,53.917,0,0,0-6.312.372,45.349,45.349,0,0,0-4.447.914A12.155,12.155,0,0,0,0,380.7Z" transform="translate(-1217.916 4922)"/><path class="a" d="M56.022,354.805H17.814a17.577,17.577,0,0,1-6.9-1.4,15.185,15.185,0,0,1-5.666-3.96,19.143,19.143,0,0,1-3.777-6.7A27.162,27.162,0,0,1,.01,333.42a24.23,24.23,0,0,1,1.706-9.687,17.1,17.1,0,0,1,4.264-6.093,14.161,14.161,0,0,1,5.423-2.985,19.858,19.858,0,0,1,5.239-.852h.073a15.385,15.385,0,0,1,6.02,1.219,11.89,11.89,0,0,1,4.325,2.924,10.914,10.914,0,0,1,2.559,3.9,11.042,11.042,0,0,1,.853,4.021,13.129,13.129,0,0,1-2.62,8.529,7.353,7.353,0,0,1-5.665,3.107,9.567,9.567,0,0,0,.608-3.96,12.153,12.153,0,0,0-.913-3.9,11.226,11.226,0,0,0-2.072-3.229,9.677,9.677,0,0,0-3.107-2.132,11.723,11.723,0,0,0-3.74-.611l-.22,0c-.114,0-.229-.005-.341-.005a11.086,11.086,0,0,0-4.289.858,9.528,9.528,0,0,0-3.777,3.046,9.009,9.009,0,0,0-1.584,5.544,9.488,9.488,0,0,0,.914,4.448A8.145,8.145,0,0,0,6.042,340.3a8.357,8.357,0,0,0,3.046,1.523,13.645,13.645,0,0,0,2.924.366h44.01V354.8Zm-15.8-24.614V315.143l15.8-.194v12.684H54.6a64.057,64.057,0,0,0-6.884.487,26.059,26.059,0,0,0-4.448.792,7.876,7.876,0,0,0-3.044,1.279Z" transform="translate(-1219.023 4922)"/><path class="a" d="M.244,307.832V294.856l54.344-26.014H7.348a12.168,12.168,0,0,0-2.961.366,4.37,4.37,0,0,0-1.8.527c-.163.075-.316.146-.459.2l-.008,0c-.605.242-1.518.608-2.124.911v-8.1a10.007,10.007,0,0,0,2.132,1.1,8.913,8.913,0,0,0,2.254.731,10.112,10.112,0,0,0,2.484.31c.106,0,.213,0,.318-.005H54.916V282.3L14.621,301.131H54.916v4.081H12.977a39.177,39.177,0,0,0-6.093.549,31.13,31.13,0,0,0-3.96.852,7.289,7.289,0,0,0-2.679,1.217Z" transform="translate(-1217.916 4922)"/><path class="a" d="M.244,241,0,196.708l11.636,1.036v2.741c-.929.232-1.769.461-2.582.682-.461.125-.895.243-1.317.354a5.339,5.339,0,0,0-2.68,1.767,8.459,8.459,0,0,0-1.645,3.29,27.274,27.274,0,0,0-.488,6.092H40.088v-8.408h3.655v8.225H54.794v12.489H43.926v8.164H40.271v-8.164H3.168a27.274,27.274,0,0,0,.488,6.092,7.646,7.646,0,0,0,1.644,3.29A4.832,4.832,0,0,0,7.981,236l1.828.609a14.08,14.08,0,0,0,2.071.609V239.9L.245,241Z" transform="translate(-1217.794 4922)"/><path class="a" d="M0,190.372v-20.9a33.416,33.416,0,0,1,1.036-8.529,18.184,18.184,0,0,1,3.351-6.641,16.035,16.035,0,0,1,6.092-4.264,22.831,22.831,0,0,1,8.247-1.535c.236,0,.474,0,.709.011.334-.016.673-.023,1.008-.023a21.689,21.689,0,0,1,12.7,4.106A18.22,18.22,0,0,1,39.6,164.3a30.221,30.221,0,0,1,1.644-2.864,20.426,20.426,0,0,1,2.742-2.985,20.7,20.7,0,0,1,9.26-4.63l1.425-.33v12.677L39.6,169.232a10.478,10.478,0,0,1-2.255,6.092H54.673v12.429H14.379c-.253,0-.509-.007-.762-.007a43.656,43.656,0,0,0-6.122.433,34.2,34.2,0,0,0-4.448.852A12.207,12.207,0,0,0,0,190.372Zm18.355-28.764a26.046,26.046,0,0,0-7.085.983,14.608,14.608,0,0,0-5.056,2.681,9.6,9.6,0,0,0-2.8,3.716A9.814,9.814,0,0,0,2.5,173.01v2.864H23.518a6.049,6.049,0,0,1-1.34-2.133,5.5,5.5,0,0,1-.305-2.619,4.958,4.958,0,0,1,.731-2.316,4.1,4.1,0,0,1,2.072-1.644,6.059,6.059,0,0,0,.365,3.594,6.715,6.715,0,0,0,2.072,2.742,6.591,6.591,0,0,0,3.107,1.4c.124.007.25.01.374.01a6.961,6.961,0,0,0,3.465-.924l-.183.305a4.311,4.311,0,0,0,1.827-1.828,6.451,6.451,0,0,0,.853-3.412,5.267,5.267,0,0,0-1.4-3.839,9.477,9.477,0,0,0-3.777-2.436,20.226,20.226,0,0,0-5.605-1.158c-1.12-.063-2.258-.1-3.381-.1s-2.261.032-3.382.1C18.793,161.611,18.574,161.608,18.356,161.608Z" transform="translate(-1217.673 4922)"/><path class="a" d="M0,140.233V122.626a7.883,7.883,0,0,0,3.047,1.28,20.462,20.462,0,0,0,4.447.975,54.214,54.214,0,0,0,6.3.369q.295,0,.589,0H54.672v12.428H14.378q-.295,0-.589,0a54.216,54.216,0,0,0-6.3.369,12.377,12.377,0,0,0-3.751.706c-.247.076-.479.148-.7.208A12.184,12.184,0,0,0,0,140.232Z" transform="translate(-1217.672 4922)"/><path class="a" d="M0,116.532V95.7a33.425,33.425,0,0,1,1.036-8.529,18.176,18.176,0,0,1,3.351-6.64,15.347,15.347,0,0,1,6.093-4.265,22.826,22.826,0,0,1,8.241-1.534c.237,0,.477,0,.714.011.286-.011.576-.016.861-.016a23.333,23.333,0,0,1,11.324,2.94,16.585,16.585,0,0,1,6.64,8.408,24.846,24.846,0,0,1,2.864-6.092,21.593,21.593,0,0,1,4.508-4.936,21.306,21.306,0,0,1,6.093-3.351,23.776,23.776,0,0,1,3.009-.791V83.478a23.574,23.574,0,0,0-3.558,1.009A19.609,19.609,0,0,0,45.085,88.2a14.763,14.763,0,0,0-3.839,5,12.876,12.876,0,0,0-1.279,5.361v2.863H54.734V114.1H14.379c-.2,0-.406,0-.607,0a53.86,53.86,0,0,0-6.277.369,12.391,12.391,0,0,0-3.749.7c-.248.077-.482.149-.7.209A10.62,10.62,0,0,0,0,116.531ZM18.526,87.278a23.961,23.961,0,0,0-7.011,1.047,14.646,14.646,0,0,0-5.056,2.741,9.845,9.845,0,0,0-2.8,3.655A10.058,10.058,0,0,0,2.742,98.8v2.863l34.057-.244v-6.64a5.4,5.4,0,0,0-1.4-3.9,9.408,9.408,0,0,0-3.777-2.376,22.535,22.535,0,0,0-5.605-1.219H19.253C19.011,87.282,18.767,87.278,18.526,87.278Z" transform="translate(-1217.734 4922)"/><path class="a" d="M0,65.844V27.219l11.636,1.036V31.24c-1.528.367-2.859.791-3.96,1.157a6.1,6.1,0,0,0-4.447,4.935,33.069,33.069,0,0,0-.488,6.092V50.8H28.329a38.758,38.758,0,0,0,0-6.519L27.9,39.22a12.6,12.6,0,0,0-.618-3.462c-.085-.3-.166-.588-.235-.863a6.073,6.073,0,0,1,1.523,0,13.121,13.121,0,0,1,3.289.548,3.552,3.552,0,0,1,2.316,2.62,7.5,7.5,0,0,1,0,4.021l-2.5,8.833H54.855V63.285H14.378c-.25,0-.5-.006-.752-.006a43.75,43.75,0,0,0-6.133.433,34.208,34.208,0,0,0-4.447.853A15.209,15.209,0,0,0,0,65.843Z" transform="translate(-1217.855 4922)"/></g></svg>