<svg xmlns="http://www.w3.org/2000/svg" width="87.545" height="490" viewBox="0 0 87.545 490"><defs><style>.a{opacity:0.097;}.b{fill:#006a4e;}</style></defs><g class="a" transform="translate(3744.96 6020.244) rotate(90)"><path class="b" d="M36.851,42.461a19.464,19.464,0,0,1,7.941,1.612,19.046,19.046,0,0,1,6.329,4.478,21.255,21.255,0,0,1,5.612,14.568V86.225a21.255,21.255,0,0,1-1.493,8.06,21.852,21.852,0,0,1-4.12,6.567,19.822,19.822,0,0,1-6.329,4.418,19.523,19.523,0,0,1-7.941,1.672H12.969a10.628,10.628,0,0,0,1.254-3.045,31.047,31.047,0,0,0,.9-4.3,52.84,52.84,0,0,0,.418-6.747v-36.3a51.4,51.4,0,0,0-.418-6.747,32.182,32.182,0,0,0-1.075-4.12A10.15,10.15,0,0,0,12.79,42.7ZM23.238,121.57a20,20,0,0,0-4.657.776A17.909,17.909,0,0,0,14.7,123.9a9.254,9.254,0,0,1,2.508-4.418,14.747,14.747,0,0,1,3.881-2.926,21.912,21.912,0,0,1,4.239-1.612,14.448,14.448,0,0,1,3.463-.537,18.449,18.449,0,0,1,4.6.358,32.606,32.606,0,0,1,3.941,1.134,41.781,41.781,0,0,0,4.12,1.075,20.717,20.717,0,0,0,4.9.358,13.2,13.2,0,0,0,4.06-.836,34.459,34.459,0,0,0,3.343-1.612A11.225,11.225,0,0,1,51.18,119.6a15.762,15.762,0,0,1-3.881,2.926,21.136,21.136,0,0,1-4.06,1.493,15.524,15.524,0,0,1-3.224.478,16.536,16.536,0,0,1-4.418-.358l-3.642-.836a25.8,25.8,0,0,0-3.821-1.134,19.94,19.94,0,0,0-4.9-.6ZM44.493,63.119a37.2,37.2,0,0,0-.478-5.135,19.106,19.106,0,0,0-2.09-5.97,15.165,15.165,0,0,0-4.3-4.836,11.523,11.523,0,0,0-6.985-1.97h-3.1V91.061a10.33,10.33,0,0,1,2.329-1.134,7.763,7.763,0,0,1,3.7,0,3.224,3.224,0,0,1,2.508,2.448A6.543,6.543,0,0,0,29.866,94.7a7.1,7.1,0,0,0-1.433,3.1,5.971,5.971,0,0,0,.478,3.582,3.7,3.7,0,0,0,1.672,1.672,5.553,5.553,0,0,0,3.164.836H34.7a5.971,5.971,0,0,0,4.358-1.97,16.9,16.9,0,0,0,3.1-4.776,32.3,32.3,0,0,0,1.791-5.97,30.63,30.63,0,0,0,.537-5.135Z" transform="translate(-6033.034 3616.997)"/><path class="b" d="M60.327,124.445H21.28a15.7,15.7,0,0,0,1.254-3.045,32.3,32.3,0,0,0,.836-4.3,43.107,43.107,0,0,0,.418-6.806V56.56a42.752,42.752,0,0,0-.418-6.747,33.5,33.5,0,0,0-.836-4.359A14.926,14.926,0,0,0,21.28,42.47H59.133l-1.015,11.4H55.431c-.358-1.493-.776-2.806-1.134-3.881a5.97,5.97,0,0,0-4.836-4.358,32.362,32.362,0,0,0-5.971-.478H36.027V70.233a37.971,37.971,0,0,0,6.388,0l4.956-.418a16.659,16.659,0,0,0,4.239-.836,5.971,5.971,0,0,1,0,1.493,12.836,12.836,0,0,1-.537,3.224,3.463,3.463,0,0,1-2.567,2.269,7.344,7.344,0,0,1-3.941,0l-8.657-2.448V116.5a4.716,4.716,0,0,0,.3,1.433,4,4,0,0,0,1.075,1.672,4.836,4.836,0,0,0,2.09,1.314,10.271,10.271,0,0,0,3.582.537h4.06a8.359,8.359,0,0,0,4.3-.955,7.4,7.4,0,0,0,2.567-2.687,13.732,13.732,0,0,0,1.493-3.7c.358-1.314.716-2.687,1.134-4.06h2.627Z" transform="translate(-5990.834 3617.047)"/><path class="b" d="M40.128,57.235A16.3,16.3,0,0,0,42.4,65.714a46.51,46.51,0,0,0,5.971,7.523,95.105,95.105,0,0,0,7.4,7.284,87.883,87.883,0,0,1,7.4,7.523,39.7,39.7,0,0,1,5.672,8.478,22.091,22.091,0,0,1,2.329,10.15A24.778,24.778,0,0,1,65.8,123.628a20.419,20.419,0,0,1-16.12,5.971,28.061,28.061,0,0,1-7.762-1.134,20.121,20.121,0,0,1-6.687-3.343,16.6,16.6,0,0,1-4.6-5.553,16.3,16.3,0,0,1-1.731-7.7A16.6,16.6,0,0,1,30.217,105a16.061,16.061,0,0,1,3.284-4.836A14.509,14.509,0,0,1,37.859,97.3a11.464,11.464,0,0,1,4.358-1.015,12.837,12.837,0,0,1,8.956,2.627,7.941,7.941,0,0,1,2.806,5.971,10.688,10.688,0,0,0-4.359-.537,13.852,13.852,0,0,0-4.179,1.015,10.866,10.866,0,0,0-3.463,2.388,10.389,10.389,0,0,0-2.329,3.463,10.568,10.568,0,0,0-.776,5.254,13.135,13.135,0,0,0,1.612,4.9,10.269,10.269,0,0,0,3.582,3.582,9.732,9.732,0,0,0,5.254,1.373,13.255,13.255,0,0,0,5.612-1.075,11.463,11.463,0,0,0,3.941-2.806,11.344,11.344,0,0,0,2.269-3.941,13.972,13.972,0,0,0,.657-4.3,20.538,20.538,0,0,0-2.448-9.433,41.8,41.8,0,0,0-5.97-8.239,100.363,100.363,0,0,0-7.463-7.344,90.931,90.931,0,0,1-7.523-7.7A43.584,43.584,0,0,1,32.426,73,21.852,21.852,0,0,1,30.1,62.907a22.33,22.33,0,0,1,1.552-8.3,19.284,19.284,0,0,1,4.418-6.568,19.882,19.882,0,0,1,6.806-4.358,23.882,23.882,0,0,1,8.717-1.552A19.941,19.941,0,0,1,60.309,43.8a19.106,19.106,0,0,1,5.971,4.12,15.822,15.822,0,0,1,3.164,5.194,15.284,15.284,0,0,1,1.015,5.075A15.523,15.523,0,0,1,69.2,64.639a13.493,13.493,0,0,1-3.045,4.418,13.135,13.135,0,0,1-3.941,2.567,9.852,9.852,0,0,1-3.941.9,12.24,12.24,0,0,1-4.179-.657,12.418,12.418,0,0,1-3.582-1.672A8.06,8.06,0,0,1,48.009,67.8a5.971,5.971,0,0,1-.9-3.045,9.194,9.194,0,0,0,4,.537,11.584,11.584,0,0,0,3.881-.955,11.942,11.942,0,0,0,3.224-2.209,9.553,9.553,0,0,0,2.149-3.224,9.254,9.254,0,0,0,.657-3.881,12.6,12.6,0,0,0-1.075-4.6,9.971,9.971,0,0,0-2.985-3.761,8.478,8.478,0,0,0-5.493-1.612,10.329,10.329,0,0,0-4.836,1.075,11.941,11.941,0,0,0-3.523,2.806A14.21,14.21,0,0,0,40.9,52.877a14.688,14.688,0,0,0-.776,4.358Z" transform="translate(-5952.963 3615.297)"/><path class="b" d="M51.507,110.345a53.135,53.135,0,0,0,.358,6.985,19.406,19.406,0,0,0,.955,4.3,8.061,8.061,0,0,0,1.254,3.045H36.759a12.658,12.658,0,0,0,1.254-3.045,43.407,43.407,0,0,0,.776-4.3,53.136,53.136,0,0,0,.358-6.806h0V56.789a52.772,52.772,0,0,0-.358-6.986c-.3-1.791-.6-3.284-.9-4.358A11.941,11.941,0,0,0,36.64,42.46H53.954A7.761,7.761,0,0,0,52.7,45.445a20,20,0,0,0-.955,4.358,52.788,52.788,0,0,0-.358,6.747v53.735Z" transform="translate(-5914.488 3616.997)"/><path class="b" d="M80.3,125.4a15.465,15.465,0,0,1-5.314-.657,11.284,11.284,0,0,1-2.627-1.552,20.24,20.24,0,0,1-5.314,2.328,20.959,20.959,0,0,1-6.269.9,22.688,22.688,0,0,1-8-1.373,20.36,20.36,0,0,1-6.269-3.761,16.9,16.9,0,0,1-4.06-5.553,15.344,15.344,0,0,1-1.552-6.747v-49.2a17.314,17.314,0,0,1,1.373-6.806,14.808,14.808,0,0,1,3.881-5.553,18.867,18.867,0,0,1,6.568-3.7,26.688,26.688,0,0,1,9.135-1.433A23.882,23.882,0,0,1,71.34,43.96a16.658,16.658,0,0,1,5.971,4.179,13.792,13.792,0,0,1,2.926,5.314,19.462,19.462,0,0,1,.836,5.135,15.165,15.165,0,0,1-1.194,5.97A11.583,11.583,0,0,1,77.012,68.8,10.628,10.628,0,0,1,73.191,71.3a10.866,10.866,0,0,1-3.941.836,12.837,12.837,0,0,1-8.359-2.567,7.165,7.165,0,0,1-3.045-5.553,9.434,9.434,0,0,0,3.881.6,11.94,11.94,0,0,0,3.821-.9,11.044,11.044,0,0,0,3.164-2.03,9.553,9.553,0,0,0,2.09-3.045,11.524,11.524,0,0,0,.6-3.881,10.926,10.926,0,0,0-.836-4.538,9.314,9.314,0,0,0-2.985-3.7,8.777,8.777,0,0,0-5.433-1.552,9.254,9.254,0,0,0-4.358.9A7.94,7.94,0,0,0,55.1,48.2a8.239,8.239,0,0,0-1.493,2.985,13.374,13.374,0,0,0-.358,2.866v60.242a13.131,13.131,0,0,0,0,2.926A9.374,9.374,0,0,0,54.5,120.2a7.643,7.643,0,0,0,2.269,2.329,6.508,6.508,0,0,0,3.761,1.015,6.746,6.746,0,0,0,3.642-.955,6.867,6.867,0,0,0,2.269-2.269,9.434,9.434,0,0,0,1.075-2.985,18.748,18.748,0,0,0,0-3.045V95.784a62.441,62.441,0,0,0-.478-6.747,25.374,25.374,0,0,0-.776-4.358,7.762,7.762,0,0,0-1.254-2.985H79.758Z" transform="translate(-5893.362 3616.094)"/><path class="b" d="M92.782,42.46a9.8,9.8,0,0,0-1.075,2.09,8.717,8.717,0,0,0-.716,2.209,9.909,9.909,0,0,0-.3,2.746v74.99H86.811L55.168,56.789V117.33a9.912,9.912,0,0,0,0,2.746,14.513,14.513,0,0,0,.6,2.209,11.466,11.466,0,0,0,1.075,2.09H49.078a11.285,11.285,0,0,0,1.015-2.09,20.855,20.855,0,0,0,.716-2.269,11.224,11.224,0,0,0,.358-2.926V55.177a38.272,38.272,0,0,0-.537-5.97,30.384,30.384,0,0,0-.836-3.881A7.165,7.165,0,0,0,48.6,42.7H61.317L86.811,95.956V49.744a11.941,11.941,0,0,0-.358-2.985,6.018,6.018,0,0,0-.716-2.209c-.239-.6-.6-1.493-.9-2.09Z" transform="translate(-5855.04 3616.997)"/><path class="b" d="M102.976,42.48l-1.015,11.4H99.274c-.358-1.433-.716-2.687-1.015-3.821a5.254,5.254,0,0,0-1.732-2.627A8.24,8.24,0,0,0,93.3,45.823a26.688,26.688,0,0,0-5.971-.478v36.42h8.239v3.582h-8.06v25.076a53.751,53.751,0,0,0,.358,6.806,4.4,4.4,0,0,0,.418,2.388,5,5,0,0,1,.478,1.97,9.612,9.612,0,0,0,1.254,3.045H72.705a7.1,7.1,0,0,0,.776-1.433,11.938,11.938,0,0,0,.478-1.552,15.88,15.88,0,0,0,.478-1.97,4.723,4.723,0,0,1,.478-2.388,53.731,53.731,0,0,0,.358-6.687V85.527h-8V81.945h8V45.585a26.687,26.687,0,0,0-5.97.478,7.463,7.463,0,0,0-3.224,1.612A4.717,4.717,0,0,0,64.466,50.3l-.6,1.791a13.787,13.787,0,0,0-.6,2.03H60.645l-1.075-11.4Z" transform="translate(-5800.514 3617.097)"/><path class="b" d="M107.524,111.162a53.742,53.742,0,0,0,2.866,8.12,10.806,10.806,0,0,0,4.06,4.3,9.375,9.375,0,0,1-3.881,1.373,23.222,23.222,0,0,1-3.522.358,13.613,13.613,0,0,1-7.224-2.209,11.941,11.941,0,0,1-4.179-7.165L88.6,81.309a10.329,10.329,0,0,1-5.97-2.209v31.047a53.144,53.144,0,0,0,.418,6.985,23.881,23.881,0,0,0,.9,4.3,9.135,9.135,0,0,0,1.314,3.045H67.88a12.478,12.478,0,0,0,1.314-3.045,32.309,32.309,0,0,0,.836-4.3,43.108,43.108,0,0,0,.418-6.806V56.591a42.747,42.747,0,0,0-.418-6.747,33.482,33.482,0,0,0-.836-4.358A11.94,11.94,0,0,0,67.88,42.5H88.359a32.72,32.72,0,0,1,8.359,1.015,17.912,17.912,0,0,1,6.508,3.284A15.643,15.643,0,0,1,107.4,52.77a22.45,22.45,0,0,1,1.493,8.777,21.255,21.255,0,0,1-4,13.434,17.912,17.912,0,0,1-11.463,6.329,29.482,29.482,0,0,1,2.806,1.612,19.943,19.943,0,0,1,2.925,2.687,20.24,20.24,0,0,1,4.538,9.075ZM83.642,75.7a4.239,4.239,0,0,0,1.791,1.791,6.329,6.329,0,0,0,3.343.836,5.134,5.134,0,0,0,3.761-1.373,9.254,9.254,0,0,0,2.388-3.7,19.822,19.822,0,0,0,1.134-5.493,58.863,58.863,0,0,0,0-6.627,25.493,25.493,0,0,0-.955-7.583,14.39,14.39,0,0,0-2.627-4.956,9.374,9.374,0,0,0-3.642-2.746,9.672,9.672,0,0,0-3.941-.9H82.09v20.6a5.97,5.97,0,0,1,2.09-1.313,5.373,5.373,0,0,1,2.567-.3,4.836,4.836,0,0,1,2.269.716,4,4,0,0,1,1.612,2.03,5.971,5.971,0,0,0-3.523.358,6.567,6.567,0,0,0-2.687,2.03,6.449,6.449,0,0,0-1.373,3.045,6.806,6.806,0,0,0,.9,3.761Z" transform="translate(-5759.209 3617.195)"/><path class="b" d="M90.857,110.146a53.137,53.137,0,0,0,.358,6.985,19.407,19.407,0,0,0,.955,4.3,8.06,8.06,0,0,0,1.254,3.045H76.11a12.659,12.659,0,0,0,1.254-3.045,43.414,43.414,0,0,0,.9-4.3,53.13,53.13,0,0,0,.358-6.806h0V56.59a52.762,52.762,0,0,0-.358-6.747,15.022,15.022,0,0,0-.9-4.358A11.943,11.943,0,0,0,76.11,42.5H93.365a7.761,7.761,0,0,0-1.254,2.985,20,20,0,0,0-.955,4.358A52.781,52.781,0,0,0,90.8,56.59v53.735Z" transform="translate(-5718.302 3617.196)"/><path class="b" d="M109.853,79.986a24.36,24.36,0,0,1,5.971,2.806,21.194,21.194,0,0,1,4.836,4.418,20.9,20.9,0,0,1,3.284,5.971,23.224,23.224,0,0,1,1.194,7.881,26.21,26.21,0,0,1-1.911,10.747,18.807,18.807,0,0,1-12.777,11.344,29.853,29.853,0,0,1-9.075,1.314H80a10.869,10.869,0,0,0,1.134-3.045,43.417,43.417,0,0,0,.9-4.3,53.142,53.142,0,0,0,.358-6.806V56.581a52.776,52.776,0,0,0-.358-6.747,15.022,15.022,0,0,0-.9-4.358A10.392,10.392,0,0,0,80,42.491h20.419a32.72,32.72,0,0,1,8.359,1.015,17.913,17.913,0,0,1,6.508,3.284,14.987,14.987,0,0,1,4.179,5.971,22.449,22.449,0,0,1,1.493,8.777,22.806,22.806,0,0,1-2.866,11.941A16.18,16.18,0,0,1,109.853,79.986ZM94.807,78.553h6.508a5.254,5.254,0,0,0,3.821-1.373,9.194,9.194,0,0,0,2.328-3.7,22.1,22.1,0,0,0,1.194-5.493q0-3.134,0-6.627a23.523,23.523,0,0,0-1.015-7.583,14.446,14.446,0,0,0-2.687-4.956,9.613,9.613,0,0,0-3.582-2.746,9.912,9.912,0,0,0-4-.9H94.568Zm6.508,42.868a7.224,7.224,0,0,0,4.418-1.612,13.434,13.434,0,0,0,3.7-4.358A26.389,26.389,0,0,0,111.942,109a33.673,33.673,0,0,0,.9-7.941,23.046,23.046,0,0,0-1.433-8.418,19.284,19.284,0,0,0-3.642-5.97,14.568,14.568,0,0,0-4.9-3.761,12.538,12.538,0,0,0-5.254-1.254H94.807v27.226a7.462,7.462,0,0,1,2.329-1.254,8,8,0,0,1,3.761,0,3.344,3.344,0,0,1,2.508,2.448,5.97,5.97,0,0,0-3.463,0,6.747,6.747,0,0,0-2.746,2.03,6.448,6.448,0,0,0-1.373,3.045,6.626,6.626,0,0,0,.418,3.523,3.7,3.7,0,0,0,1.731,1.791,6.448,6.448,0,0,0,3.164.955Z" transform="translate(-5698.966 3617.146)"/><path class="b" d="M127.367,124.445H88.32a15.7,15.7,0,0,0,1.254-3.045,32.3,32.3,0,0,0,.836-4.3,43.109,43.109,0,0,0,.418-6.806V56.56a42.749,42.749,0,0,0-.418-6.747,33.5,33.5,0,0,0-.836-4.359A14.926,14.926,0,0,0,88.32,42.47h37.853l-1.015,11.4h-2.926c-.358-1.493-.776-2.806-1.134-3.881a5.97,5.97,0,0,0-4.836-4.358,32.362,32.362,0,0,0-5.971-.478h-7.224V70.233a37.971,37.971,0,0,0,6.388,0l4.956-.418a16.659,16.659,0,0,0,4.239-.836,5.97,5.97,0,0,1,0,1.493,12.837,12.837,0,0,1-.537,3.224,3.463,3.463,0,0,1-2.567,2.269,7.344,7.344,0,0,1-3.941,0l-8.657-2.448V116.5a4.717,4.717,0,0,0,0,1.433,4,4,0,0,0,1.075,1.672,4.836,4.836,0,0,0,2.09,1.314,10.269,10.269,0,0,0,3.582.537h4.06a8.358,8.358,0,0,0,4.3-.955,7.4,7.4,0,0,0,2.567-2.687,11.94,11.94,0,0,0,1.493-3.7c.358-1.314.717-2.687,1.134-4.06h2.627Z" transform="translate(-5657.611 3617.047)"/></g></svg>