<svg xmlns="http://www.w3.org/2000/svg" width="89.332" height="500" viewBox="0 0 89.332 500"><defs><style>.a{opacity:0.097;}.b{fill:#e14b2c;}</style></defs><g class="a" transform="translate(-3657.415 -5520.244) rotate(-90)"><path class="b" d="M37.342,42.461a19.861,19.861,0,0,1,8.1,1.645A19.435,19.435,0,0,1,51.9,48.675,21.689,21.689,0,0,1,57.63,63.54V87.118a21.689,21.689,0,0,1-1.523,8.225,22.3,22.3,0,0,1-4.2,6.7,20.226,20.226,0,0,1-6.458,4.508,19.922,19.922,0,0,1-8.1,1.706H12.973a10.845,10.845,0,0,0,1.279-3.107,31.681,31.681,0,0,0,.914-4.387,53.918,53.918,0,0,0,.426-6.884V56.839a52.453,52.453,0,0,0-.426-6.884,32.839,32.839,0,0,0-1.1-4.2A10.357,10.357,0,0,0,12.79,42.7ZM23.452,123.185a20.409,20.409,0,0,0-4.752.792,18.275,18.275,0,0,0-3.96,1.584,9.443,9.443,0,0,1,2.559-4.508,15.048,15.048,0,0,1,3.96-2.985,22.359,22.359,0,0,1,4.326-1.645,14.743,14.743,0,0,1,3.534-.548,18.826,18.826,0,0,1,4.691.366A33.272,33.272,0,0,1,37.83,117.4a42.633,42.633,0,0,0,4.2,1.1,21.139,21.139,0,0,0,5,.366,13.465,13.465,0,0,0,4.143-.853,35.161,35.161,0,0,0,3.412-1.645,11.454,11.454,0,0,1-2.62,4.813A16.083,16.083,0,0,1,48,124.159a21.567,21.567,0,0,1-4.143,1.523,15.841,15.841,0,0,1-3.29.487,16.874,16.874,0,0,1-4.508-.366l-3.716-.853a26.324,26.324,0,0,0-3.9-1.158,20.347,20.347,0,0,0-5-.609ZM45.14,63.54a37.956,37.956,0,0,0-.487-5.239,19.5,19.5,0,0,0-2.132-6.092,15.475,15.475,0,0,0-4.386-4.935,11.758,11.758,0,0,0-7.128-2.011H27.838V92.052a10.541,10.541,0,0,1,2.376-1.158,7.921,7.921,0,0,1,3.777,0,3.29,3.29,0,0,1,2.559,2.5,6.677,6.677,0,0,0-6.336,2.376,7.25,7.25,0,0,0-1.462,3.168,6.092,6.092,0,0,0,.487,3.655,3.777,3.777,0,0,0,1.706,1.706,5.666,5.666,0,0,0,3.229.853h.975a6.093,6.093,0,0,0,4.447-2.01,17.242,17.242,0,0,0,3.168-4.874,32.96,32.96,0,0,0,1.828-6.092,31.256,31.256,0,0,0,.548-5.239Z" transform="translate(-6033.034 3617.039)"/><path class="b" d="M61.124,126.118H21.28a16.022,16.022,0,0,0,1.279-3.107,32.962,32.962,0,0,0,.853-4.387,43.987,43.987,0,0,0,.426-6.945V56.848a43.625,43.625,0,0,0-.426-6.884,34.181,34.181,0,0,0-.853-4.447A15.231,15.231,0,0,0,21.28,42.47H59.906L58.87,54.106H56.128c-.366-1.523-.792-2.863-1.158-3.96A6.092,6.092,0,0,0,50.036,45.7a33.022,33.022,0,0,0-6.092-.487H36.328V70.8a38.746,38.746,0,0,0,6.519,0l5.057-.426a17,17,0,0,0,4.326-.853,6.093,6.093,0,0,1,0,1.523,13.1,13.1,0,0,1-.548,3.29,3.534,3.534,0,0,1-2.62,2.315,7.494,7.494,0,0,1-4.021,0l-8.834-2.5v43.865a4.813,4.813,0,0,0,.3,1.462,4.082,4.082,0,0,0,1.1,1.706,4.935,4.935,0,0,0,2.132,1.34,10.481,10.481,0,0,0,3.655.548h4.143a8.529,8.529,0,0,0,4.387-.975,7.555,7.555,0,0,0,2.62-2.742,14.012,14.012,0,0,0,1.523-3.777c.366-1.34.731-2.742,1.158-4.143h2.681Z" transform="translate(-5989.8 3617.09)"/><path class="b" d="M40.357,57.544A16.633,16.633,0,0,0,42.673,66.2a47.46,47.46,0,0,0,6.092,7.676A97.046,97.046,0,0,0,56.319,81.3a89.677,89.677,0,0,1,7.555,7.676,40.512,40.512,0,0,1,5.788,8.651,22.542,22.542,0,0,1,2.376,10.357,25.283,25.283,0,0,1-5.483,17.3,20.836,20.836,0,0,1-16.449,6.092,28.634,28.634,0,0,1-7.92-1.158,20.531,20.531,0,0,1-6.823-3.412,16.937,16.937,0,0,1-4.691-5.666,16.632,16.632,0,0,1-1.767-7.859,16.936,16.936,0,0,1,1.34-7.006,16.389,16.389,0,0,1,3.351-4.935,14.8,14.8,0,0,1,4.447-2.924,11.7,11.7,0,0,1,4.447-1.036,13.1,13.1,0,0,1,9.139,2.681,8.1,8.1,0,0,1,2.863,6.092,10.906,10.906,0,0,0-4.447-.548,14.135,14.135,0,0,0-4.265,1.036,11.088,11.088,0,0,0-3.534,2.437,10.6,10.6,0,0,0-2.376,3.534,10.783,10.783,0,0,0-.792,5.361,13.4,13.4,0,0,0,1.645,5,10.479,10.479,0,0,0,3.655,3.655,9.931,9.931,0,0,0,5.361,1.4,13.525,13.525,0,0,0,5.727-1.1,11.7,11.7,0,0,0,4.021-2.863,11.575,11.575,0,0,0,2.315-4.021,14.257,14.257,0,0,0,.67-4.387,20.957,20.957,0,0,0-2.5-9.626,42.648,42.648,0,0,0-6.092-8.407,102.412,102.412,0,0,0-7.615-7.494,92.786,92.786,0,0,1-7.676-7.859A44.474,44.474,0,0,1,32.5,73.628a22.3,22.3,0,0,1-2.376-10.3,22.785,22.785,0,0,1,1.584-8.468,19.678,19.678,0,0,1,4.508-6.7,20.288,20.288,0,0,1,6.945-4.447,24.369,24.369,0,0,1,8.895-1.584,20.348,20.348,0,0,1,8.895,1.706,19.5,19.5,0,0,1,6.092,4.2,16.145,16.145,0,0,1,3.229,5.3,15.6,15.6,0,0,1,1.036,5.179,15.84,15.84,0,0,1-1.279,6.58,13.768,13.768,0,0,1-3.107,4.508,13.4,13.4,0,0,1-4.021,2.62,10.053,10.053,0,0,1-4.021.914,12.49,12.49,0,0,1-4.265-.67,12.672,12.672,0,0,1-3.655-1.706A8.224,8.224,0,0,1,48.4,68.328a6.092,6.092,0,0,1-.914-3.107,9.382,9.382,0,0,0,4.082.548,11.82,11.82,0,0,0,3.96-.975,12.185,12.185,0,0,0,3.29-2.254,9.748,9.748,0,0,0,2.193-3.29,9.443,9.443,0,0,0,.67-3.96,12.855,12.855,0,0,0-1.1-4.691,10.175,10.175,0,0,0-3.046-3.838,8.651,8.651,0,0,0-5.6-1.645A10.54,10.54,0,0,0,47,46.212,12.185,12.185,0,0,0,43.4,49.076,14.5,14.5,0,0,0,41.15,53.1a14.988,14.988,0,0,0-.792,4.447Z" transform="translate(-5951 3615.297)"/><path class="b" d="M51.81,111.73a54.219,54.219,0,0,0,.366,7.128,19.8,19.8,0,0,0,.975,4.387,8.225,8.225,0,0,0,1.279,3.107H36.762a12.917,12.917,0,0,0,1.279-3.107,44.292,44.292,0,0,0,.792-4.387,54.22,54.22,0,0,0,.366-6.945h0V57.082a53.849,53.849,0,0,0-.366-7.128c-.3-1.828-.609-3.351-.914-4.447A12.185,12.185,0,0,0,36.64,42.46H54.308a7.92,7.92,0,0,0-1.279,3.046,20.41,20.41,0,0,0-.975,4.447,53.865,53.865,0,0,0-.366,6.884v54.831Z" transform="translate(-5911.582 3617.039)"/><path class="b" d="M81.1,127.094a15.78,15.78,0,0,1-5.422-.67A11.514,11.514,0,0,1,73,124.84a20.653,20.653,0,0,1-5.422,2.376,21.386,21.386,0,0,1-6.4.914,23.151,23.151,0,0,1-8.164-1.4,20.776,20.776,0,0,1-6.4-3.838,17.242,17.242,0,0,1-4.143-5.666,15.657,15.657,0,0,1-1.584-6.884v-50.2a17.667,17.667,0,0,1,1.4-6.945,15.11,15.11,0,0,1,3.96-5.666,19.252,19.252,0,0,1,6.7-3.777,27.233,27.233,0,0,1,9.321-1.462,24.369,24.369,0,0,1,9.687,1.706,17,17,0,0,1,6.092,4.265,14.073,14.073,0,0,1,2.985,5.422,19.859,19.859,0,0,1,.853,5.239,15.474,15.474,0,0,1-1.218,6.092,11.819,11.819,0,0,1-2.924,4.326,10.845,10.845,0,0,1-3.9,2.559,11.088,11.088,0,0,1-4.021.853,13.1,13.1,0,0,1-8.529-2.62,7.311,7.311,0,0,1-3.107-5.666,9.626,9.626,0,0,0,3.96.609,12.184,12.184,0,0,0,3.9-.914,11.27,11.27,0,0,0,3.229-2.071,9.747,9.747,0,0,0,2.132-3.107,11.76,11.76,0,0,0,.609-3.96,11.149,11.149,0,0,0-.853-4.63,9.5,9.5,0,0,0-3.046-3.777,8.956,8.956,0,0,0-5.544-1.584,9.443,9.443,0,0,0-4.447.914A8.1,8.1,0,0,0,55.39,48.32a8.408,8.408,0,0,0-1.523,3.046A13.647,13.647,0,0,0,53.5,54.29v61.472a13.4,13.4,0,0,0,0,2.985,9.565,9.565,0,0,0,1.279,3.046A7.8,7.8,0,0,0,57.1,124.17a6.641,6.641,0,0,0,3.838,1.036,6.884,6.884,0,0,0,3.716-.975,7.007,7.007,0,0,0,2.315-2.315,9.626,9.626,0,0,0,1.1-3.046,19.13,19.13,0,0,0,0-3.107V96.876a63.716,63.716,0,0,0-.487-6.884,25.892,25.892,0,0,0-.792-4.447A7.92,7.92,0,0,0,65.5,82.5H80.551Z" transform="translate(-5889.938 3616.114)"/><path class="b" d="M93.683,42.46a9.995,9.995,0,0,0-1.1,2.132,8.9,8.9,0,0,0-.731,2.254,10.111,10.111,0,0,0-.3,2.8v76.52h-3.96L55.3,57.082v61.777a10.115,10.115,0,0,0,0,2.8,14.809,14.809,0,0,0,.609,2.254,11.7,11.7,0,0,0,1.1,2.132h-7.92a11.515,11.515,0,0,0,1.036-2.132,21.281,21.281,0,0,0,.731-2.315,11.453,11.453,0,0,0,.366-2.985V55.437a39.053,39.053,0,0,0-.548-6.092,31,31,0,0,0-.853-3.96A7.312,7.312,0,0,0,48.6,42.7H61.577L87.591,97.048V49.893a12.185,12.185,0,0,0-.366-3.046,6.141,6.141,0,0,0-.731-2.254c-.244-.609-.609-1.523-.914-2.132Z" transform="translate(-5850.677 3617.039)"/><path class="b" d="M103.861,42.48l-1.036,11.636h-2.742c-.366-1.462-.731-2.742-1.036-3.9a5.361,5.361,0,0,0-1.767-2.681,8.408,8.408,0,0,0-3.29-1.645A27.232,27.232,0,0,0,87.9,45.4V82.568h8.407v3.655H88.082v25.588a54.848,54.848,0,0,0,.366,6.945,4.491,4.491,0,0,0,.426,2.437,5.107,5.107,0,0,1,.487,2.011,9.808,9.808,0,0,0,1.279,3.107H72.973a7.25,7.25,0,0,0,.792-1.462,12.184,12.184,0,0,0,.487-1.584,16.2,16.2,0,0,0,.487-2.01,4.819,4.819,0,0,1,.487-2.437,54.828,54.828,0,0,0,.366-6.823V86.406H67.429V82.75h8.164v-37.1a27.232,27.232,0,0,0-6.092.487,7.615,7.615,0,0,0-3.29,1.645,4.813,4.813,0,0,0-1.645,2.681l-.609,1.828a14.069,14.069,0,0,0-.609,2.071H60.667l-1.1-11.636Z" transform="translate(-5794.813 3617.141)"/><path class="b" d="M108.333,112.563a54.838,54.838,0,0,0,2.924,8.286,11.027,11.027,0,0,0,4.143,4.386,9.566,9.566,0,0,1-3.96,1.4,23.7,23.7,0,0,1-3.594.366,13.891,13.891,0,0,1-7.372-2.254,12.185,12.185,0,0,1-4.265-7.311L89.021,82.1a10.54,10.54,0,0,1-6.092-2.254v31.68a54.229,54.229,0,0,0,.426,7.128,24.369,24.369,0,0,0,.914,4.387,9.322,9.322,0,0,0,1.34,3.107H67.88a12.733,12.733,0,0,0,1.34-3.107,32.97,32.97,0,0,0,.853-4.387,43.99,43.99,0,0,0,.426-6.945V56.879a43.62,43.62,0,0,0-.426-6.884,34.166,34.166,0,0,0-.853-4.447A12.184,12.184,0,0,0,67.88,42.5h20.9a33.388,33.388,0,0,1,8.529,1.036,18.277,18.277,0,0,1,6.641,3.351,15.962,15.962,0,0,1,4.265,6.092,22.909,22.909,0,0,1,1.523,8.956,21.689,21.689,0,0,1-4.082,13.708,18.277,18.277,0,0,1-11.7,6.458,30.085,30.085,0,0,1,2.863,1.645A20.351,20.351,0,0,1,99.8,86.488a20.653,20.653,0,0,1,4.63,9.26ZM83.964,76.374A4.325,4.325,0,0,0,85.792,78.2a6.458,6.458,0,0,0,3.412.853,5.239,5.239,0,0,0,3.838-1.4,9.443,9.443,0,0,0,2.437-3.777,20.227,20.227,0,0,0,1.158-5.6,60.064,60.064,0,0,0,0-6.763,26.013,26.013,0,0,0-.975-7.737,14.684,14.684,0,0,0-2.681-5.057,9.565,9.565,0,0,0-3.716-2.8A9.87,9.87,0,0,0,85.243,45H82.38V66.017a6.092,6.092,0,0,1,2.132-1.34,5.483,5.483,0,0,1,2.62-.3,4.934,4.934,0,0,1,2.315.731,4.082,4.082,0,0,1,1.645,2.071,6.093,6.093,0,0,0-3.594.366,6.7,6.7,0,0,0-2.742,2.071,6.58,6.58,0,0,0-1.4,3.107,6.945,6.945,0,0,0,.914,3.838Z" transform="translate(-5752.497 3617.242)"/><path class="b" d="M91.158,111.526a54.221,54.221,0,0,0,.365,7.128,19.8,19.8,0,0,0,.975,4.387,8.225,8.225,0,0,0,1.279,3.107H76.11a12.917,12.917,0,0,0,1.279-3.107,44.3,44.3,0,0,0,.914-4.387,54.213,54.213,0,0,0,.366-6.945h0V56.878a53.837,53.837,0,0,0-.366-6.884,15.329,15.329,0,0,0-.914-4.447A12.187,12.187,0,0,0,76.11,42.5H93.717a7.919,7.919,0,0,0-1.279,3.046,20.406,20.406,0,0,0-.975,4.447,53.857,53.857,0,0,0-.366,6.884v54.831Z" transform="translate(-5710.586 3617.243)"/><path class="b" d="M110.462,80.751a24.857,24.857,0,0,1,6.092,2.863,21.626,21.626,0,0,1,4.935,4.508,21.322,21.322,0,0,1,3.351,6.092,23.7,23.7,0,0,1,1.219,8.042,26.745,26.745,0,0,1-1.95,10.966A19.191,19.191,0,0,1,111.071,124.8a30.462,30.462,0,0,1-9.26,1.34H80a11.091,11.091,0,0,0,1.158-3.107,44.3,44.3,0,0,0,.914-4.386,54.225,54.225,0,0,0,.366-6.945V56.869a53.851,53.851,0,0,0-.366-6.884,15.328,15.328,0,0,0-.914-4.447A10.6,10.6,0,0,0,80,42.491h20.836a33.387,33.387,0,0,1,8.529,1.036,18.278,18.278,0,0,1,6.641,3.351,15.292,15.292,0,0,1,4.265,6.092,22.907,22.907,0,0,1,1.523,8.956,23.272,23.272,0,0,1-2.924,12.185A16.51,16.51,0,0,1,110.462,80.751ZM95.109,79.289h6.641a5.361,5.361,0,0,0,3.9-1.4,9.382,9.382,0,0,0,2.376-3.777,22.548,22.548,0,0,0,1.218-5.6q0-3.2,0-6.763a24,24,0,0,0-1.036-7.737,14.741,14.741,0,0,0-2.741-5.057,9.809,9.809,0,0,0-3.655-2.8,10.114,10.114,0,0,0-4.082-.914H94.865Zm6.641,43.743a7.372,7.372,0,0,0,4.508-1.645,13.708,13.708,0,0,0,3.777-4.447,26.927,26.927,0,0,0,2.559-6.58,34.36,34.36,0,0,0,.914-8.1,23.517,23.517,0,0,0-1.462-8.59,19.678,19.678,0,0,0-3.716-6.092,14.865,14.865,0,0,0-5-3.838,12.794,12.794,0,0,0-5.361-1.279H95.109v27.781a7.614,7.614,0,0,1,2.376-1.279,8.163,8.163,0,0,1,3.838,0,3.412,3.412,0,0,1,2.559,2.5,6.092,6.092,0,0,0-3.534,0,6.885,6.885,0,0,0-2.8,2.071,6.58,6.58,0,0,0-1.4,3.107,6.761,6.761,0,0,0,.426,3.594,3.777,3.777,0,0,0,1.767,1.828,6.58,6.58,0,0,0,3.229.975Z" transform="translate(-5690.776 3617.191)"/><path class="b" d="M128.164,126.118H88.32a16.021,16.021,0,0,0,1.279-3.107,32.96,32.96,0,0,0,.853-4.387,43.987,43.987,0,0,0,.426-6.945V56.848a43.621,43.621,0,0,0-.426-6.884,34.188,34.188,0,0,0-.853-4.447A15.23,15.23,0,0,0,88.32,42.47h38.626L125.91,54.106h-2.985c-.366-1.523-.792-2.863-1.158-3.96a6.092,6.092,0,0,0-4.935-4.447,33.022,33.022,0,0,0-6.092-.487h-7.372V70.8a38.746,38.746,0,0,0,6.519,0l5.057-.426a17,17,0,0,0,4.326-.853,6.092,6.092,0,0,1,0,1.523,13.1,13.1,0,0,1-.548,3.29,3.534,3.534,0,0,1-2.62,2.315,7.494,7.494,0,0,1-4.021,0l-8.834-2.5v43.865a4.813,4.813,0,0,0,0,1.462,4.081,4.081,0,0,0,1.1,1.706,4.935,4.935,0,0,0,2.132,1.34,10.479,10.479,0,0,0,3.655.548h4.143a8.529,8.529,0,0,0,4.386-.975,7.554,7.554,0,0,0,2.62-2.742,12.184,12.184,0,0,0,1.523-3.777c.366-1.34.731-2.742,1.158-4.143h2.681Z" transform="translate(-5648.408 3617.09)"/></g></svg>