<svg xmlns="http://www.w3.org/2000/svg" width="180" height="60" viewBox="0 0 180 60"><defs><style>.a,.c{fill:none;}.b{fill:#006a4e;font-size:18px;font-family:'Poppins', sans-serif;font-weight:500;}.c{stroke:#006a4e;stroke-linecap:round;stroke-linejoin:round;stroke-miterlimit:10;stroke-width:2px;}.d,.e{stroke:none;}.e{fill:#006a4e;}</style></defs><g class="a"><path class="d" d="M6,0H174a6,6,0,0,1,6,6V54a6,6,0,0,1-6,6H6a6,6,0,0,1-6-6V6A6,6,0,0,1,6,0Z"/><path class="e" d="M 6 2 C 3.794387817382812 2 2 3.794380187988281 2 6 L 2 54 C 2 56.20561981201172 3.794387817382812 58 6 58 L 174 58 C 176.2056121826172 58 178 56.20561981201172 178 54 L 178 6 C 178 3.794380187988281 176.2056121826172 2 174 2 L 6 2 M 6 0 L 174 0 C 177.313720703125 0 180 2.686286926269531 180 6 L 180 54 C 180 57.31371307373047 177.313720703125 60 174 60 L 6 60 C 2.686279296875 60 0 57.31371307373047 0 54 L 0 6 C 0 2.686286926269531 2.686279296875 0 6 0 Z"/></g><g transform="translate(-869 -2485)"><text class="b" transform="translate(947 2522)"><tspan x="-34.965" y="0">View All</tspan></text><g transform="translate(999 2510)"><path class="c" d="M0,0H13" transform="translate(4 5.769)"/><path class="c" d="M0,0,5.769,5.769,0,11.538" transform="translate(12.821)"/></g></g></svg>