<svg xmlns="http://www.w3.org/2000/svg" xmlns:xlink="http://www.w3.org/1999/xlink" width="84" height="84" viewBox="0 0 84 84"><defs><style>.a{fill:url(#a);}.b{fill:#fff;}</style><linearGradient id="a" x1="0.885" y1="0.085" x2="0.282" y2="0.77" gradientUnits="objectBoundingBox"><stop offset="0" stop-color="#c06c84"/><stop offset="1" stop-color="#395d7d"/></linearGradient></defs><g transform="translate(-1707 -886)"><circle class="a" cx="42" cy="42" r="42" transform="translate(1707 886)"/><path class="b" d="M171.868,340.908l-1.146-.143a3.5,3.5,0,0,0-2.149.445,2.474,2.474,0,0,0-.5,1.839v.133h3a.5.5,0,0,1,.5.488v1.013a.485.485,0,0,1-.145.365.5.5,0,0,1-.368.143h-3v5.164a.5.5,0,0,1-.5.5H165.7a.485.485,0,0,1-.5-.47V343.05a4.3,4.3,0,0,1,1.053-3.283,5.5,5.5,0,0,1,3.7-.968,12.387,12.387,0,0,1,1.9.1,1.417,1.417,0,0,1,.681.25.47.47,0,0,1,.14.335v.913a.5.5,0,0,1-.5.515Z" transform="translate(1549.736 574.954)"/><path class="b" d="M193.471,358.68a2.477,2.477,0,0,1-1.1-2.159,2.432,2.432,0,0,1,1.1-2.142,4.925,4.925,0,0,1,2.835-.751h2.752a1.816,1.816,0,0,0-.405-1.354,2.092,2.092,0,0,0-1.424-.38,1.763,1.763,0,0,0-1.429.5,1.251,1.251,0,0,1-1,.5h-1.236a.5.5,0,0,1-.515-.485v-.015q0-2.384,4.524-2.385a5.189,5.189,0,0,1,3.17.886,3.2,3.2,0,0,1,1.2,2.735v5.134a.485.485,0,0,1-.47.5h-1.631a.5.5,0,0,1-.5-.5v-.25a5.037,5.037,0,0,1-3.055.933A4.867,4.867,0,0,1,193.471,358.68Zm2.117-2.88a.906.906,0,0,0-.335.731.918.918,0,0,0,.348.738,1.5,1.5,0,0,0,.988.29,4.551,4.551,0,0,0,2.465-.751v-1.3h-2.547A1.384,1.384,0,0,0,195.588,355.8Z" transform="translate(1529.364 566.545)"/><path class="b" d="M242.29,352.272l-1.279-.048a2.844,2.844,0,0,0-2.142,1.229v5.3a.485.485,0,0,1-.145.365.5.5,0,0,1-.36.143H236.5a.5.5,0,0,1-.5-.5V350.68a.5.5,0,0,1,.5-.515h1.859a.5.5,0,0,1,.5.515v.523a7.052,7.052,0,0,1,1.644-.911,5.951,5.951,0,0,1,2.052-.3.5.5,0,0,1,.515.508v1.251a.492.492,0,0,1-.515.505Z" transform="translate(1496.652 566.56)"/><path class="b" d="M268,358.75V350.68a.5.5,0,0,1,.145-.37.478.478,0,0,1,.36-.145h1.859a.485.485,0,0,1,.365.145.5.5,0,0,1,.14.37v.523a5.446,5.446,0,0,1,1.176-.893,2.891,2.891,0,0,1,1.384-.318,3.253,3.253,0,0,1,2.93,1.594,4.447,4.447,0,0,1,3.168-1.6,3.409,3.409,0,0,1,2.565.978,4.21,4.21,0,0,1,.941,3.018v8.635a.48.48,0,0,1-.5.5H280.68a.5.5,0,0,1-.513-.5V354q0-2-1.446-1.984-.878,0-1.817,1.271a5.22,5.22,0,0,1,.05.713v4.754a.485.485,0,0,1-.145.365.5.5,0,0,1-.36.143H274.6a.5.5,0,0,1-.515-.5V354q0-2-1.444-1.984a2.3,2.3,0,0,0-1.769,1.189v5.55a.486.486,0,0,1-.145.365.5.5,0,0,1-.36.143H268.5a.485.485,0,0,1-.5-.47Z" transform="translate(1472.659 566.56)"/><path class="b" d="M346.977,358.321l1-.088h.268a.443.443,0,0,1,.323.123.418.418,0,0,1,.128.318v.776a.4.4,0,0,1-.128.285.546.546,0,0,1-.323.155,10.32,10.32,0,0,1-1.924.145q-3.115,0-3.113-3.253v-5.655a.433.433,0,0,1,.418-.448h1.644a.435.435,0,0,1,.443.428v1.271h2.019a.438.438,0,0,1,.315.125.421.421,0,0,1,.125.318v.861a.42.42,0,0,1-.125.318.437.437,0,0,1-.315.125h-2.019v2.655a1.686,1.686,0,0,0,.345,1.141A1.171,1.171,0,0,0,346.977,358.321Z" transform="translate(1416.268 566.043)"/><path class="b" d="M367.991,362.391a4.736,4.736,0,0,1,0-6.143,5.614,5.614,0,0,1,6.506,0,4.744,4.744,0,0,1,0,6.143,5.6,5.6,0,0,1-6.506,0Zm1.832-4.952a3.094,3.094,0,0,0-.45,1.874,3.13,3.13,0,0,0,.45,1.882,1.982,1.982,0,0,0,2.832,0,3.131,3.131,0,0,0,.453-1.882,3.076,3.076,0,0,0-.453-1.874,2,2,0,0,0-2.832,0Z" transform="translate(1398.534 562.646)"/><path class="b" d="M263.74,406.4V396.03a.776.776,0,0,1,.225-.558.731.731,0,0,1,.55-.233h6.353q5.039,0,5.039,4.644t-5.039,4.642H266.88V406.4a.786.786,0,0,1-.783.783H264.53a.79.79,0,0,1-.791-.783Zm3.14-4.231h3.04a3.909,3.909,0,0,0,2.124-.47,2.008,2.008,0,0,0,.723-1.814,2.037,2.037,0,0,0-.723-1.817,3.886,3.886,0,0,0-2.124-.47h-3.04Z" transform="translate(1475.852 532.633)"/><path class="b" d="M316.569,406.675V395.755a.5.5,0,0,1,.5-.515h1.864a.5.5,0,0,1,.5.515v10.919a.5.5,0,0,1-.5.5h-1.857a.5.5,0,0,1-.5-.5Z" transform="translate(1436.241 532.632)"/><path class="b" d="M333.487,414.508a2.48,2.48,0,0,1-1.1-2.164,2.442,2.442,0,0,1,1.1-2.149,4.958,4.958,0,0,1,2.845-.751h2.752a1.821,1.821,0,0,0-.408-1.359,2.11,2.11,0,0,0-1.429-.383,1.77,1.77,0,0,0-1.431.5,1.251,1.251,0,0,1-1,.5h-1.251a.5.5,0,0,1-.518-.5q0-2.39,4.539-2.392a5.228,5.228,0,0,1,3.183.888,3.192,3.192,0,0,1,1.2,2.752v5.154a.5.5,0,0,1-.5.5H339.86a.488.488,0,0,1-.508-.508v-.25a5.059,5.059,0,0,1-3.038.936A4.886,4.886,0,0,1,333.487,414.508Zm2.124-2.9a.961.961,0,0,0-.12,1.354,1.089,1.089,0,0,0,.12.12,1.5,1.5,0,0,0,1,.293,4.577,4.577,0,0,0,2.472-.751v-1.3h-2.545A1.394,1.394,0,0,0,335.611,411.613Z" transform="translate(1424.386 524.707)"/><path class="b" d="M379.468,405.376l1.141-.1h.308a.489.489,0,0,1,.515.508v.891a.443.443,0,0,1-.145.328.633.633,0,0,1-.37.18,11.942,11.942,0,0,1-2.214.168q-3.583,0-3.583-3.753v-7.842a.5.5,0,0,1,.5-.515h1.867a.5.5,0,0,1,.5.515v2.782h2.325a.5.5,0,0,1,.36.143.478.478,0,0,1,.148.365v1a.5.5,0,0,1-.5.5h-2.325v3.065a1.947,1.947,0,0,0,.4,1.311A1.331,1.331,0,0,0,379.468,405.376Z" transform="translate(1392.342 532.632)"/><path class="b" d="M402.984,414.1a5.41,5.41,0,0,1,.008-7.006,5.883,5.883,0,0,1,7.154-.032,4.451,4.451,0,0,1,1.284,3.428v.473a.5.5,0,0,1-.483.518H404.64a2.246,2.246,0,0,0,.588,1.5,2.269,2.269,0,0,0,1.611.465,1.874,1.874,0,0,0,1.516-.5,1.278,1.278,0,0,1,1-.5h1.251a.5.5,0,0,1,.515.485v.033q0,2.392-4.556,2.382A5.128,5.128,0,0,1,402.984,414.1Zm1.641-4.391H408.5q-.083-1.964-1.927-1.964T404.625,409.713Z" transform="translate(1372.412 524.662)"/></g></svg>