<svg xmlns="http://www.w3.org/2000/svg" width="50" height="50" viewBox="0 0 50 50"><defs><style>.a{fill:#7c878e;}.b{fill:#fff;}</style></defs><circle class="a" cx="25" cy="25" r="25"/><path class="b" d="M169.17,340.053l-.682-.085a2.084,2.084,0,0,0-1.279.265,1.473,1.473,0,0,0-.3,1.095v.079H168.7a.3.3,0,0,1,.3.29v.6a.289.289,0,0,1-.086.217.3.3,0,0,1-.219.085H166.9v3.074a.3.3,0,0,1-.3.3H165.5a.289.289,0,0,1-.3-.28v-4.367a2.559,2.559,0,0,1,.627-1.954,3.276,3.276,0,0,1,2.2-.576,7.377,7.377,0,0,1,1.132.06.843.843,0,0,1,.405.149.28.28,0,0,1,.083.2v.544a.3.3,0,0,1-.3.307Z" transform="translate(-160.478 -322.279)"/><path class="b" d="M193.026,355.171a1.475,1.475,0,0,1-.654-1.285,1.448,1.448,0,0,1,.654-1.275,2.932,2.932,0,0,1,1.688-.447h1.638a1.081,1.081,0,0,0-.241-.806,1.245,1.245,0,0,0-.848-.226,1.049,1.049,0,0,0-.851.3.745.745,0,0,1-.6.3h-.736a.3.3,0,0,1-.307-.289v-.009q0-1.419,2.693-1.419a3.089,3.089,0,0,1,1.887.527,1.9,1.9,0,0,1,.712,1.628v3.056a.289.289,0,0,1-.28.3h-.971a.3.3,0,0,1-.3-.3v-.149a3,3,0,0,1-1.819.556A2.9,2.9,0,0,1,193.026,355.171Zm1.26-1.714a.539.539,0,0,0-.2.435.547.547,0,0,0,.207.439.894.894,0,0,0,.588.173,2.709,2.709,0,0,0,1.467-.447v-.772h-1.516A.824.824,0,0,0,194.286,353.457Z" transform="translate(-183.602 -331.823)"/><path class="b" d="M239.744,351.348l-.761-.028a1.693,1.693,0,0,0-1.275.731V355.2a.289.289,0,0,1-.086.217.3.3,0,0,1-.214.085H236.3a.3.3,0,0,1-.3-.3V350.4a.3.3,0,0,1,.3-.307H237.4a.3.3,0,0,1,.3.307v.311a4.2,4.2,0,0,1,.979-.542,3.542,3.542,0,0,1,1.221-.179.3.3,0,0,1,.307.3v.745a.293.293,0,0,1-.307.3Z" transform="translate(-220.731 -331.806)"/><path class="b" d="M268,355.2v-4.8a.3.3,0,0,1,.086-.22.284.284,0,0,1,.214-.086h1.107a.289.289,0,0,1,.217.086.3.3,0,0,1,.083.22v.311a3.242,3.242,0,0,1,.7-.532,1.721,1.721,0,0,1,.824-.189,1.936,1.936,0,0,1,1.744.949,2.647,2.647,0,0,1,1.886-.95,2.029,2.029,0,0,1,1.527.582,2.506,2.506,0,0,1,.56,1.8v5.14a.286.286,0,0,1-.3.3h-1.1a.3.3,0,0,1-.305-.3v-5.134q0-1.192-.861-1.181-.523,0-1.081.757a3.106,3.106,0,0,1,.03.424v2.83a.289.289,0,0,1-.086.217.3.3,0,0,1-.215.085h-1.1a.3.3,0,0,1-.307-.3v-2.835q0-1.192-.859-1.181a1.367,1.367,0,0,0-1.053.708v3.3a.289.289,0,0,1-.086.217.3.3,0,0,1-.215.085H268.3a.289.289,0,0,1-.3-.28Z" transform="translate(-247.965 -331.806)"/><path class="b" d="M345.452,355.229l.6-.052h.159a.264.264,0,0,1,.192.073.249.249,0,0,1,.076.189v.462a.237.237,0,0,1-.076.17.325.325,0,0,1-.192.092,6.144,6.144,0,0,1-1.145.086q-1.854,0-1.853-1.936v-3.366a.258.258,0,0,1,.249-.267h.979a.259.259,0,0,1,.264.255v.757h1.2a.261.261,0,0,1,.188.074.25.25,0,0,1,.074.189v.512a.25.25,0,0,1-.074.189.261.261,0,0,1-.188.074h-1.2v1.58a1,1,0,0,0,.206.679A.7.7,0,0,0,345.452,355.229Z" transform="translate(-311.972 -332.393)"/><path class="b" d="M367.533,359.485a2.819,2.819,0,0,1,0-3.657,3.342,3.342,0,0,1,3.873,0,2.824,2.824,0,0,1,0,3.657,3.335,3.335,0,0,1-3.873,0Zm1.09-2.948a1.842,1.842,0,0,0-.268,1.116,1.863,1.863,0,0,0,.268,1.12,1.18,1.18,0,0,0,1.686,0,1.863,1.863,0,0,0,.27-1.12,1.831,1.831,0,0,0-.27-1.116,1.19,1.19,0,0,0-1.686,0Z" transform="translate(-332.101 -336.249)"/><path class="b" d="M263.74,401.883V395.71a.462.462,0,0,1,.134-.332.435.435,0,0,1,.328-.139h3.782q3,0,3,2.765t-3,2.763h-2.374v1.116a.468.468,0,0,1-.466.466h-.932a.47.47,0,0,1-.471-.466Zm1.869-2.519h1.81a2.327,2.327,0,0,0,1.265-.28,1.2,1.2,0,0,0,.43-1.08,1.213,1.213,0,0,0-.43-1.081,2.313,2.313,0,0,0-1.265-.28h-1.81Z" transform="translate(-244.34 -370.315)"/><path class="b" d="M316.569,402.047v-6.5a.3.3,0,0,1,.3-.307h1.11a.3.3,0,0,1,.3.307v6.5a.3.3,0,0,1-.3.3h-1.105a.3.3,0,0,1-.3-.3Z" transform="translate(-289.301 -370.316)"/><path class="b" d="M333.039,410.988a1.476,1.476,0,0,1-.657-1.288,1.454,1.454,0,0,1,.657-1.28,2.951,2.951,0,0,1,1.694-.447h1.638a1.084,1.084,0,0,0-.243-.809,1.256,1.256,0,0,0-.85-.228,1.054,1.054,0,0,0-.852.3.745.745,0,0,1-.6.3h-.745a.3.3,0,0,1-.308-.3q0-1.423,2.7-1.424a3.112,3.112,0,0,1,1.895.529,1.9,1.9,0,0,1,.713,1.638v3.068a.3.3,0,0,1-.3.3h-.956a.291.291,0,0,1-.3-.3v-.149a3.012,3.012,0,0,1-1.808.557A2.909,2.909,0,0,1,333.039,410.988Zm1.265-1.723a.572.572,0,0,0-.072.806.648.648,0,0,0,.072.072.894.894,0,0,0,.6.174,2.724,2.724,0,0,0,1.472-.447V409.1h-1.515A.83.83,0,0,0,334.3,409.264Z" transform="translate(-302.757 -379.312)"/><path class="b" d="M377.708,401.274l.679-.06h.183a.291.291,0,0,1,.307.3v.53a.264.264,0,0,1-.086.2.377.377,0,0,1-.22.107,7.11,7.11,0,0,1-1.318.1q-2.133,0-2.133-2.234v-4.668a.3.3,0,0,1,.3-.307h1.111a.3.3,0,0,1,.3.307V397.2h1.384a.3.3,0,0,1,.215.085.284.284,0,0,1,.088.217v.6a.3.3,0,0,1-.3.3h-1.384v1.825a1.159,1.159,0,0,0,.238.781A.792.792,0,0,0,377.708,401.274Z" transform="translate(-339.129 -370.316)"/><path class="b" d="M402.464,410.772a3.22,3.22,0,0,1,0-4.171,3.5,3.5,0,0,1,4.259-.019,2.65,2.65,0,0,1,.764,2.041v.282a.3.3,0,0,1-.287.308H403.45a1.337,1.337,0,0,0,.35.894,1.351,1.351,0,0,0,.959.277,1.116,1.116,0,0,0,.9-.3.761.761,0,0,1,.6-.3H407a.3.3,0,0,1,.307.289v.019q0,1.424-2.712,1.418A3.053,3.053,0,0,1,402.464,410.772Zm.977-2.614h2.3q-.049-1.169-1.147-1.169T403.441,408.158Z" transform="translate(-361.751 -379.363)"/></svg>