<svg width="30" height="29" viewBox="0 0 30 29" fill="none" xmlns="http://www.w3.org/2000/svg">
<path fill-rule="evenodd" clip-rule="evenodd" d="M15.252 28.3705L15.2649 28.3706H15.2605L15.252 28.3705ZM15.354 28.3706H15.3496L15.3625 28.3705L15.354 28.3706ZM15.2078 28.3703L15.2218 28.3704H15.2138L15.2078 28.3703ZM15.4007 28.3704H15.3927L15.4067 28.3703L15.4007 28.3704ZM15.1652 28.37L15.1746 28.3701L15.1671 28.37H15.1652ZM15.4474 28.37L15.4399 28.3701L15.4493 28.37H15.4474ZM15.4941 28.3695L15.4908 28.3696L15.5034 28.3694L15.4941 28.3695ZM15.1111 28.3694L15.1237 28.3696L15.1204 28.3695L15.1111 28.3694ZM15.5407 28.3688L15.533 28.3689L15.5486 28.3687L15.5407 28.3688ZM15.0659 28.3687L15.0815 28.3689L15.0738 28.3688L15.0659 28.3687ZM15.5872 28.3681L15.5769 28.3682L15.5913 28.3679L15.5872 28.3681ZM15.0232 28.3679L15.0376 28.3682L15.0273 28.3681L15.0232 28.3679ZM14.9703 28.3669L14.983 28.3672L14.9807 28.3671L14.9703 28.3669ZM15.6338 28.3671L15.6315 28.3672L15.6442 28.3669L15.6338 28.3671ZM14.9239 28.3657L14.9413 28.3662L14.9342 28.366L14.9239 28.3657ZM15.6803 28.366L15.6732 28.3662L15.6907 28.3657L15.6803 28.366ZM15.7267 28.3648L15.7154 28.3651L15.7332 28.3646L15.7267 28.3648ZM14.8813 28.3646L14.8991 28.3651L14.8878 28.3648L14.8813 28.3646ZM14.8406 28.3634L14.8533 28.3638L14.8413 28.3634L14.8304 28.3631L14.8406 28.3634ZM15.7732 28.3634L15.7612 28.3638L15.7739 28.3634L15.7841 28.3631L15.7732 28.3634ZM15.8196 28.3619L15.8132 28.3621L15.8327 28.3615L15.8196 28.3619ZM14.7818 28.3615L14.8013 28.3621L14.7949 28.3619L14.7818 28.3615ZM14.7395 28.3599L14.7599 28.3606L14.7486 28.3602L14.7395 28.3599ZM15.8659 28.3602L15.8546 28.3606L15.875 28.3599L15.8659 28.3602ZM14.6979 28.3582L14.7179 28.3591L14.7023 28.3585L14.6979 28.3582ZM15.9122 28.3585L15.8966 28.3591L15.9166 28.3582L15.9122 28.3585ZM14.6398 28.3558L14.6612 28.3567L14.656 28.3565L14.6398 28.3558ZM15.9585 28.3565L15.9533 28.3567L15.9747 28.3558L15.9585 28.3565ZM14.598 28.3539L14.6203 28.3549L14.6098 28.3544L14.598 28.3539ZM16.0047 28.3544L15.9942 28.3549L16.0165 28.3539L16.0047 28.3544ZM14.5569 28.3518L14.5793 28.3529L14.5636 28.3522L14.5569 28.3518ZM16.0509 28.3522L16.0352 28.3529L16.0576 28.3518L16.0509 28.3522ZM16.0972 28.3498L16.0767 28.3509L16.0948 28.3499L16.1162 28.3488L16.0972 28.3498ZM14.5197 28.3499L14.5378 28.3509L14.5173 28.3498L14.4983 28.3488L14.5197 28.3499ZM16.1433 28.3473L16.1342 28.3478L16.1572 28.3465L16.1433 28.3473ZM14.4574 28.3465L14.4803 28.3478L14.4712 28.3473L14.4574 28.3465ZM14.4166 28.3441L14.4394 28.3454L14.4252 28.3447L14.4166 28.3441ZM16.1893 28.3447L16.1751 28.3454L16.1979 28.3441L16.1893 28.3447ZM14.3776 28.3417L14.3983 28.343L14.3791 28.3418L14.3597 28.3406L14.3776 28.3417ZM16.2354 28.3418L16.2162 28.343L16.2369 28.3417L16.2548 28.3406L16.2354 28.3418ZM16.2814 28.3389L16.2745 28.3394L16.2964 28.3379L16.2814 28.3389ZM14.3181 28.3379L14.34 28.3394L14.3331 28.3389L14.3181 28.3379ZM14.2774 28.3351L14.2988 28.3366L14.2871 28.3359L14.2774 28.3351ZM16.3274 28.3359L16.3157 28.3366L16.3371 28.3351L16.3274 28.3359ZM14.2368 28.3323L14.2565 28.3337L14.2412 28.3326L14.2368 28.3323ZM16.3733 28.3326L16.358 28.3337L16.3777 28.3323L16.3733 28.3326ZM14.1821 28.3283L14.1994 28.3295L14.1952 28.3293L14.1821 28.3283ZM16.4193 28.3293L16.4151 28.3295L16.4324 28.3283L16.4193 28.3293ZM16.4651 28.3258L16.4568 28.3264L16.4744 28.325L16.4651 28.3258ZM14.1401 28.325L14.1577 28.3264L14.1494 28.3258L14.1401 28.325ZM14.0991 28.3217L14.1141 28.323L14.1036 28.3221L14.0991 28.3217ZM16.511 28.3221L16.5004 28.323L16.5154 28.3217L16.511 28.3221ZM14.0541 28.318L14.0585 28.3184L14.0578 28.3184L14.0541 28.318ZM16.5567 28.3184L16.556 28.3184L16.5604 28.318L16.5567 28.3184ZM16.6025 28.3144L16.5984 28.3148L16.6086 28.3139L16.6025 28.3144ZM14.0059 28.3139L14.0161 28.3148L14.012 28.3144L14.0059 28.3139ZM13.9635 28.3101L13.9711 28.3108L13.9664 28.3104L13.9635 28.3101ZM16.6481 28.3104L16.6434 28.3108L16.651 28.3101L16.6481 28.3104ZM13.0476 28.1982C6.13778 27.1328 0.845703 21.2605 0.845703 14.1853C0.845703 6.35625 7.32572 0 15.3073 0C23.2888 0 29.7688 6.35625 29.7688 14.1853C29.7688 21.2605 24.4767 27.1328 17.5669 28.1982V18.2858H20.9365L21.5777 14.1853H17.5669V11.5244C17.5669 10.4026 18.1271 9.30912 19.9236 9.30912H21.7472V5.8182C21.7472 5.8182 20.0922 5.54114 18.51 5.54114C15.2066 5.54114 13.0476 7.50493 13.0476 11.0601V14.1853H9.37576V18.2858H13.0476V28.1982Z" fill="#1D2926"/>
</svg>
