<svg width="1600" height="1246" viewBox="0 0 1600 1246" fill="none" xmlns="http://www.w3.org/2000/svg">
<g opacity="0.15">
<g filter="url(#filter0_f)">
<path d="M962.116 973.058C956.513 1033.85 892.288 1050.95 861.738 1011.05C761.361 879.971 808.048 897.069 632.971 887.57C457.894 878.072 649.312 625.408 836.06 701.397C1022.81 777.386 1029.81 450.634 1190.88 507.625C1351.95 564.617 1186.21 714.695 1127.86 802.083C1069.5 889.47 1025.14 777.386 962.116 843.877C899.088 910.367 969.119 897.069 962.116 973.058Z" fill="#006A4E"/>
</g>
<g filter="url(#filter1_f)">
<path d="M1479.84 293.547C1485.44 232.756 1549.67 215.659 1580.22 255.553C1680.59 386.634 1633.91 369.536 1808.98 379.035C1984.06 388.534 1792.64 641.197 1605.89 565.208C1419.15 489.219 1412.14 815.972 1251.07 758.98C1090 701.988 1255.74 551.91 1314.1 464.522C1372.46 377.135 1416.81 489.219 1479.84 422.729C1542.87 356.238 1472.84 369.536 1479.84 293.547Z" fill="#22006A"/>
</g>
<g filter="url(#filter2_f)">
<path d="M1361.29 1089.89C1355.69 1150.68 1291.46 1167.78 1260.91 1127.89C1160.54 996.804 1207.22 1013.9 1032.15 1004.4C857.07 994.904 1048.49 742.241 1235.24 818.23C1421.98 894.219 1428.99 567.466 1590.06 624.458C1751.13 681.45 1585.39 831.528 1527.03 918.916C1468.67 1006.3 1424.32 894.219 1361.29 960.709C1298.26 1027.2 1368.29 1013.9 1361.29 1089.89Z" fill="#6A0039"/>
</g>
</g>
<path d="M441.567 715.314C-98.8192 495.073 -46.8102 919.067 46.7427 1158.59V1713.86H1754.48V957.951C1740.21 877.072 1653.63 741.444 1421.49 845.964C1131.32 976.615 1117.05 990.614 441.567 715.314Z" fill="#006248" fill-opacity="0.8"/>
<path fill-rule="evenodd" clip-rule="evenodd" d="M575.251 898.644C550.349 966.079 485.446 1014.16 409.304 1014.16C311.644 1014.16 232.476 935.064 232.476 837.49C232.476 739.915 311.644 660.816 409.304 660.816C471.769 660.816 526.669 693.177 558.126 742.034C572.168 732.716 589.02 727.287 607.141 727.287C656.131 727.287 695.846 766.967 695.846 815.916C695.846 864.864 656.131 904.544 607.141 904.544C595.9 904.544 585.148 902.455 575.251 898.644Z" fill="#A1C3F8"/>
<path fill-rule="evenodd" clip-rule="evenodd" d="M867.848 733.053C863.204 742.093 853.78 748.278 842.911 748.278C834.567 748.278 827.075 744.633 821.943 738.85C821.16 738.915 820.368 738.949 819.567 738.949C804.097 738.949 791.555 726.418 791.555 710.961C791.555 695.504 804.097 682.973 819.567 682.973C825.297 682.973 830.625 684.692 835.062 687.641C839.179 672.195 853.274 660.816 870.03 660.816C890.013 660.816 906.212 677.001 906.212 696.967C906.212 716.933 890.013 733.118 870.03 733.118C869.297 733.118 868.57 733.096 867.848 733.053Z" fill="#A1C3F8"/>
<path d="M603.639 830.912C375.806 737.619 82.2989 841.797 -35.9753 905.547V1581.92H1705.46V905.547C1703.9 860.455 1645.7 890.62 1425.33 830.912C1149.88 756.278 888.431 947.529 603.639 830.912Z" fill="#006A4E"/>
<path d="M362.199 779.452C-178.187 559.212 -126.178 983.206 -32.6255 1222.73V1778H1675.11V1022.09C1660.84 941.211 1574.26 805.583 1342.13 910.103C1051.95 1040.75 1037.68 1054.75 362.199 779.452Z" fill="url(#paint0_linear)"/>
<defs>
<filter id="filter0_f" x="163.955" y="100.912" width="1495.44" height="1331.69" filterUnits="userSpaceOnUse" color-interpolation-filters="sRGB">
<feFlood flood-opacity="0" result="BackgroundImageFix"/>
<feBlend mode="normal" in="SourceGraphic" in2="BackgroundImageFix" result="shape"/>
<feGaussianBlur stdDeviation="200" result="effect1_foregroundBlur"/>
</filter>
<filter id="filter1_f" x="782.56" y="-166" width="1495.44" height="1331.69" filterUnits="userSpaceOnUse" color-interpolation-filters="sRGB">
<feFlood flood-opacity="0" result="BackgroundImageFix"/>
<feBlend mode="normal" in="SourceGraphic" in2="BackgroundImageFix" result="shape"/>
<feGaussianBlur stdDeviation="200" result="effect1_foregroundBlur"/>
</filter>
<filter id="filter2_f" x="563.131" y="217.744" width="1495.44" height="1331.69" filterUnits="userSpaceOnUse" color-interpolation-filters="sRGB">
<feFlood flood-opacity="0" result="BackgroundImageFix"/>
<feBlend mode="normal" in="SourceGraphic" in2="BackgroundImageFix" result="shape"/>
<feGaussianBlur stdDeviation="200" result="effect1_foregroundBlur"/>
</filter>
<linearGradient id="paint0_linear" x1="791.555" y1="717.958" x2="791.555" y2="1778" gradientUnits="userSpaceOnUse">
<stop stop-color="#006A4E"/>
<stop offset="1" stop-color="#003F2E"/>
</linearGradient>
</defs>
</svg>
