<svg xmlns="http://www.w3.org/2000/svg" width="110.687" height="360" viewBox="0 0 110.687 360"><defs><style>.a{fill:#006a4e;opacity:1;}</style></defs><path class="a" d="M8668.515,3147a16.825,16.825,0,0,1-16.721-17.224,18.109,18.109,0,0,1,.241-2.528,17.073,17.073,0,0,1,14.755,4.546l1.2,1.385a17.007,17.007,0,0,1,3.524,13.55A16.812,16.812,0,0,1,8668.515,3147Zm16.34-3.915h0a17.172,17.172,0,0,1-3.522-15.176,16.421,16.421,0,0,1,2.32-5,16.853,16.853,0,0,1,8.188-6.444,21.063,21.063,0,0,1,1.387,1.958,16.519,16.519,0,0,1,2.137,4.938,17.213,17.213,0,0,1,0,8.281,16.914,16.914,0,0,1-10.51,11.441Zm-15.054-15.838h0a21.741,21.741,0,0,0-4.153-3.011,90.389,90.389,0,0,0,13.067-3.433,20.479,20.479,0,0,0-2.078,4.576c-2.465.758-4.7,1.369-6.834,1.868Zm44.759-3.729a16.674,16.674,0,0,1-11.637-4.7,17.348,17.348,0,0,1-3.193-4.274,14.833,14.833,0,0,1-.933-2.108,16.834,16.834,0,0,1,9.184-3.854,15.989,15.989,0,0,1,6.022.481l1.233.392a16.882,16.882,0,0,1,10.118,10.117,16.7,16.7,0,0,1-10.795,3.95Zm-66.56-2.675h0v-5.034a69.008,69.008,0,0,0,36.212-10.335,69.161,69.161,0,0,0,32.44-51.426l1.5-1.233,3.013-2.59,2.559-2.32-1.054-3.281-1.174-3.673a26.14,26.14,0,0,0-1.175-3.011,34.318,34.318,0,0,0,3.253-2.2l10.116,10.085.3.332v.152a86.649,86.649,0,0,1-18.526,42.369A87.114,87.114,0,0,1,8678.8,3115.2,86.563,86.563,0,0,1,8648,3120.844Zm2.62-10.639h0v-6.233a53.165,53.165,0,0,0,12.314-2.047l2.258,6.021a64.648,64.648,0,0,1-14.572,2.26Zm84.49-.242h0a16.955,16.955,0,0,1-10.179-10.479,2.3,2.3,0,0,0-.139-.339,1.548,1.548,0,0,1-.19-.624,17.518,17.518,0,0,1-.361-6.745,16.886,16.886,0,0,1,3.763-8.432l1.475.633a17.157,17.157,0,0,1,4.4,3.012,16.5,16.5,0,0,1,4.608,7.919,16.791,16.791,0,0,1-3.372,15.054Zm-64.857-3.553h0l-2.261-6.262a52.859,52.859,0,0,0,10.992-6.022l4.638,5.479a64.355,64.355,0,0,1-13.368,6.806Zm43.508-2.89h0a21.548,21.548,0,0,0-4.01-.376c-.267,0-.539,0-.807.015a95.317,95.317,0,0,0,9.906-10.119,22.363,22.363,0,0,0,.3,4.91c-1.708,1.916-3.521,3.79-5.393,5.571Zm-65.654-4.886H8648v-36.908a53.976,53.976,0,0,0,11.293-1.2,28.481,28.481,0,0,0,6.563,12.527l2.619,3.011,2.288,2.438,3.281-1.054,3.705-1.174a28.076,28.076,0,0,0,16.921-14.695,47.762,47.762,0,0,1-46.564,37.06Zm39.761-2.281h0l-4.7-5.69a50.937,50.937,0,0,0,8.459-9.515l7.167,4.126a64.181,64.181,0,0,1-10.929,11.08Zm14-15.386h0l-7.437-4.305a51.466,51.466,0,0,0,4.817-12.045l9.516,1.657a64.75,64.75,0,0,1-6.9,14.694Zm41.054-.778a16.439,16.439,0,0,1-4.83-.727,16.725,16.725,0,0,1-4.788-2.32,10.612,10.612,0,0,1-1.174-.873,17.191,17.191,0,0,1,4.516-6.714,17.417,17.417,0,0,1,6.926-3.794,8.729,8.729,0,1,1,3.553,13.881A16.432,16.432,0,0,1,8742.922,3080.189Zm-70.382-7.682h0l-2.588-3.011a22.545,22.545,0,0,1-6.022-15.748,48.6,48.6,0,0,1-15.93,2.679v-3.311a44.929,44.929,0,0,0,20.176-4.789c-.03.089-.07.18-.11.268l0,.006a1.384,1.384,0,0,0-.16.539,19.394,19.394,0,0,0,4.4,18.067l1.143,1.263,1.658-.512a19.476,19.476,0,0,0,12.854-13.52,19.9,19.9,0,0,0,.6-6.382,18.213,18.213,0,0,0,5.811,2.68,19.3,19.3,0,0,0,5.06.691,19.509,19.509,0,0,0,13.064-5.058l1.266-1.175-.511-1.626a19.445,19.445,0,0,0-6.895-9.664,26.36,26.36,0,0,0,17.223-10.419l13.879,13.88,14.034-14.031V2896.6h-28.064v12.615a26.37,26.37,0,0,0-17.224-10.267,19.444,19.444,0,0,0,6.9-9.666l.512-1.657-1.265-1.145a19.452,19.452,0,0,0-18.066-4.4,19.659,19.659,0,0,0-5.811,2.681,20.11,20.11,0,0,0-.6-6.384,19.423,19.423,0,0,0-12.827-13.4l-1.656-.543-1.145,1.295a19.39,19.39,0,0,0-4.4,18.066,5.829,5.829,0,0,0,.271.783A44.943,44.943,0,0,0,8648,2879.8v-3.43a48.074,48.074,0,0,1,15.6,2.708,22.635,22.635,0,0,1,6.021-15.778l2.591-2.861,3.705,1.175a22.785,22.785,0,0,1,15.053,15.838c.03.1.061.2.09.3l.018.058a5.467,5.467,0,0,1,.314,1.571l1.9-.6a23.369,23.369,0,0,1,6-.783h.019a22.812,22.812,0,0,1,15.3,6.022l3.011,2.59-1.2,3.7a22.07,22.07,0,0,1-3.613,6.9,29.09,29.09,0,0,1,7.287,4v-7.919h34.987v131.4l-17.372,17.374-13.671-13.669a28.936,28.936,0,0,1-10.989,7.285,22.693,22.693,0,0,1,3.612,6.926l1.2,3.675-3.01,2.619a23,23,0,0,1-15.416,6.021,22.346,22.346,0,0,1-5.814-.781,15.662,15.662,0,0,1-1.9-.6l0,.018a19.751,19.751,0,0,1-.419,1.94,22.763,22.763,0,0,1-15.054,15.808l-3.705,1.2Zm62.69-8.493v0a92.047,92.047,0,0,0,3.884-15.926l2.107-2.108,1.417-1.385a97.665,97.665,0,0,1-3.343,17.133,24.458,24.458,0,0,0-4.064,2.286Zm-60.1-1.836h0a14.161,14.161,0,0,1-2.078-11.773,6.582,6.582,0,1,1,2.08,11.773Zm35.078-1.055h0l-7.2-1.263a28.537,28.537,0,0,0,7.891-2.228l-.018.1c-.2,1.121-.411,2.281-.676,3.394Zm-62.178-13.336H8648v-42.235h.046a21.951,21.951,0,0,1,19.919,12.726l4.848-2.26a27.554,27.554,0,0,0-6.022-8.249,20.116,20.116,0,0,1,17.045-9.443c.426,0,.859.014,1.287.041a20.1,20.1,0,0,1,16.987,11.661l4.849-2.228a25.6,25.6,0,0,0-20.387-14.6,75.255,75.255,0,0,0,7.168-4.666,21.678,21.678,0,0,1,4.425-1.417,21.117,21.117,0,0,1,4.126-.42h.059a21.077,21.077,0,1,1-13.879,37.035l-2.681-2.348-1.506,3.251a39.953,39.953,0,0,1-36.252,23.157Zm51.417-1.643a7.72,7.72,0,1,1-4.773-10.809,14.151,14.151,0,0,1,12.854,8.233A13.89,13.89,0,0,1,8699.448,3046.145Zm38.009-16.335h0l-8.578-8.582a8.49,8.49,0,0,1,8.447-7.666h.124a8.493,8.493,0,0,1,8.352,7.907l-8.342,8.34Zm8.705-18.186h0v0a13.755,13.755,0,0,0-6.02-3.01v-91.6h6.021Zm-17.374-.332v-94.277h6.021v91.568a13.674,13.674,0,0,0-6.019,2.709ZM8648,2996.777h0v-10.6h.011a19.752,19.752,0,1,0-.011-39.5v-10.6h.011a30.351,30.351,0,1,1-.007,60.7Zm21.351-1.838h0a35.568,35.568,0,0,0,0-57,72.273,72.273,0,0,1,38.451,28.484,72.259,72.259,0,0,1-38.446,28.513Zm53.892-2.948v0a26.406,26.406,0,0,0-21.075-10.6,80.6,80.6,0,0,0,11.05-13.518l.933-1.447-.933-1.444a78.283,78.283,0,0,0-11.021-13.46h-.029a26.4,26.4,0,0,0,21.076-10.6v51.068Zm-21.021-45.8h0a21.168,21.168,0,0,1-4.025-.388,21.759,21.759,0,0,1-4.306-1.384,70.724,70.724,0,0,0-7.349-4.7,25.629,25.629,0,0,0,20.447-14.6l-4.849-2.258a20.122,20.122,0,0,1-17.019,11.655c-.414.025-.835.039-1.252.039a20.114,20.114,0,0,1-17.079-9.5,27.209,27.209,0,0,0,5.842-8.16l-4.817-2.258A21.955,21.955,0,0,1,8648,2927.363v-42.278a39.936,39.936,0,0,1,36.225,23.2l1.5,3.223,2.682-2.348h.029a21.077,21.077,0,1,1,13.787,37.031Zm43.937-34.5h-17.4v-9.755h17.4v9.755Zm-51.649-14.137a13.835,13.835,0,0,1-8.061-2.574,14.151,14.151,0,0,1,12.854-8.235,14.07,14.07,0,0,1,8.223,2.634,14.151,14.151,0,0,1-9.334,7.679A13.973,13.973,0,0,1,8694.513,2897.548Zm-13.781-5.735h0a14.185,14.185,0,1,1,2.4-5.788,14.238,14.238,0,0,1-2.4,5.788Zm61.726-3.854h-3.011a92.656,92.656,0,0,0-4.064-17.916,22.257,22.257,0,0,0,4.064,2.258,95.035,95.035,0,0,1,3.011,15.657Zm-8.13-.03h-11.289l.962-3.011-2.56-2.318-3.012-2.589c-.521-.491-1.092-.934-1.6-1.325a69.21,69.21,0,0,0-68.713-60.606H8648v-4.9h.257a86.672,86.672,0,0,1,44.663,12.345,87.1,87.1,0,0,1,31.486,32.633,86.575,86.575,0,0,1,9.921,29.767Zm-23.454-12.736h0a25.647,25.647,0,0,0-4.937-1.656l4.275-.784c.2.825.423,1.645.662,2.438Zm-51.552-2.862h0a53.935,53.935,0,0,0-11.321-1.2v-35.951h.162a47.585,47.585,0,0,1,45.907,35.017,28.117,28.117,0,0,0-16.29-13.669l-3.7-1.205-3.282-1.053-2.289,2.56-2.619,3.011a28.264,28.264,0,0,0-6.565,12.495Zm39.956-3.071h0a54.224,54.224,0,0,0-4.817-11.982l7.408-4.306a63.442,63.442,0,0,1,6.9,14.633l-9.485,1.656Zm48.592-.6a16.838,16.838,0,0,1-4.236-.542,17.449,17.449,0,0,1-6.9-3.765,17.151,17.151,0,0,1-4.546-6.744,10.813,10.813,0,0,1,1.174-.873,16.943,16.943,0,0,1,4.818-2.35,16.681,16.681,0,0,1,9.033-.149,8.143,8.143,0,1,1,.654,14.423Zm-56.3-15.928h0a54.226,54.226,0,0,0-8.491-9.515l4.788-5.661a62.805,62.805,0,0,1,10.839,11.05l-7.133,4.126Zm36.432-2.018h0a16.9,16.9,0,0,1-3.763-8.43,17.488,17.488,0,0,1,.362-6.746,2.94,2.94,0,0,1,.146-.38l0-.005a1.586,1.586,0,0,0,.18-.608,16.987,16.987,0,0,1,10.179-10.448,16.793,16.793,0,0,1,3.373,15.056,16.52,16.52,0,0,1-4.608,7.737,17.006,17.006,0,0,1-4.4,3.161,12.879,12.879,0,0,1-1.475.663Zm-9.213-9.937,0,0a92.393,92.393,0,0,0-9.844-10.055h.752a22.694,22.694,0,0,0,4-.421c1.736,1.625,3.5,3.447,5.391,5.571a22.4,22.4,0,0,0-.3,4.905Zm-39.777-.9h0a51.622,51.622,0,0,0-11.021-6.022l2.29-6.292a64.311,64.311,0,0,1,13.37,6.8l-4.637,5.51Zm-16.047-7.8h0a53.792,53.792,0,0,0-12.315-2.046v-6.354a64.269,64.269,0,0,1,14.541,2.38l-2.226,6.02Zm46.82-6.691a16.142,16.142,0,0,1-1.625-.083,16.835,16.835,0,0,1-9.185-3.854,14.512,14.512,0,0,1,.935-2.108,17.312,17.312,0,0,1,3.011-4.276,16.741,16.741,0,0,1,22.522-.752,16.9,16.9,0,0,1-10.209,10.117l-1.233.39A15.905,15.905,0,0,1,8709.787,2825.382Zm-17.946-7.852h0a16.838,16.838,0,0,1-8.188-6.444,16.4,16.4,0,0,1-2.32-5.117,8.791,8.791,0,1,1,13.972-3.613,17.266,17.266,0,0,1-2.076,13.218,21.921,21.921,0,0,1-1.387,1.956Zm-13.187-4.426h0a91.045,91.045,0,0,0-12.978-3.492,22.837,22.837,0,0,0,4.1-3.011c2.223.526,4.511,1.154,6.8,1.866a20.317,20.317,0,0,0,2.078,4.636Zm-23.748-6.128a17.2,17.2,0,0,1-2.932-.254,18.254,18.254,0,0,1-.238-2.53,17.355,17.355,0,0,1,.783-5.149A16.65,16.65,0,0,1,8668.5,2787a6.969,6.969,0,1,1-.57,13.729,15.262,15.262,0,0,1-1.145,1.323,16.792,16.792,0,0,1-4.366,3.163A17.024,17.024,0,0,1,8654.905,2806.976Z" transform="translate(-8648 -2787)"/></svg>