<svg xmlns="http://www.w3.org/2000/svg" width="192.327" height="50" viewBox="0 0 192.327 50"><defs><style>.a{fill:#7c878e;}</style></defs><path class="a" d="M35.351,297.689a5.343,5.343,0,0,0-.513.385l-.032.032-.1.1c-.032.032-.064.064-.1.064a12062.518,12062.518,0,0,1-.257.128.243.243,0,0,1-.128.064c-.032.032-.1.032-.128.064s-.1.032-.128.064-.1.032-.128.064-.1.032-.128.064-.1.032-.128.064-.1.032-.128.064-.1.032-.128.064a590.816,590.816,0,0,0-.257.064c-.032,0-.1.032-.128.032s-.1.032-.128.032-.1.032-.128.032-.1.032-.128.032-.1.032-.128.032a13.989,13.989,0,0,1-1.668.16h-.417a10.192,10.192,0,0,1-6.96-2.726,9.07,9.07,0,0,1-2.887-6.608V279.534a9.017,9.017,0,0,1,2.887-6.608,10.046,10.046,0,0,1,6.96-2.726h.545a10.691,10.691,0,0,1,1.475.1l.128.032a.193.193,0,0,1,.128.032c.032,0,.1.032.128.032s.1.032.128.032.1.032.128.032a1.389,1.389,0,0,0,.16.032.193.193,0,0,0,.128.032c.064.032.1.032.16.064s.1.032.16.064c.032.032.1.032.128.064s.1.032.128.064.1.032.128.064.1.032.128.064.1.032.128.064.1.032.128.064l.032.032.064.032.064.032.064.032.064.032.064.032.032.032.032.032.032.032.032.032.032.032.032.032.032.032.032.032.032.032.032.032.032.032.032.032a.4.4,0,0,0,.1.064c.032.032.032.032.064.032s.064.032.1.032h.192c.032,0,.064-.032.1-.032s.064-.032.1-.032c.032-.032.064-.032.064-.064.032-.032.032-.064.064-.064a.118.118,0,0,0,.032-.1c0-.032.032-.064.032-.1v-.1c0-.353,0-.8.385-.93a2.848,2.848,0,0,1,.738-.032h3.5c.353,0,.9-.1,1.059.353A6.259,6.259,0,0,1,41.67,272v22.229c0,1.989.064,3.977-.128,5.934-.609,5.485-3.368,10.136-9.142,11.162a12.241,12.241,0,0,1-9.719-2.855c-.321-.289-1.026-.738-.994-1.187a.806.806,0,0,1,.192-.449s2.245-2.374,2.406-2.6a.952.952,0,0,1,.642-.417c.353,0,.706.321,1.379.706a10.192,10.192,0,0,0,3.528,1.411,5.559,5.559,0,0,0,2.406-.225c2.951-.962,3.753-4.651,3.913-7.57v-.257a.031.031,0,0,0-.032-.032c0-.032,0-.032-.032-.032a.031.031,0,0,0-.032-.032l-.032-.032-.032-.032-.032-.032-.032-.032-.032-.032a762.833,762.833,0,0,1-.064-.064h-.321c-.032,0-.032,0-.032.032a.172.172,0,0,1-.128.1m.642-7.634V279.6a3.738,3.738,0,0,0-1.508-3.047,4.74,4.74,0,0,0-3.24-1.187H30.7a4.6,4.6,0,0,0-3.3,1.411,4.238,4.238,0,0,0-1.508,3.176v9.687a4.181,4.181,0,0,0,1.508,3.176,4.6,4.6,0,0,0,3.3,1.411h.545a4.9,4.9,0,0,0,3.24-1.187,3.847,3.847,0,0,0,1.508-2.983" transform="translate(-20.5 -261.475)"/><path class="a" d="M165.842,299.363v-3.849a.664.664,0,0,0-.16-.481.7.7,0,0,0-.449-.16H154.711a.8.8,0,0,1-.545-.128.459.459,0,0,1-.16-.353.927.927,0,0,1,.128-.449l11.547-21.78a1.564,1.564,0,0,0,.1-.225.626.626,0,0,0,.032-.225c0-.321-.257-.513-.706-.513H146.179c-.449,0-.642.192-.642.642v3.817c0,.449.192.642.642.642h9.879a.758.758,0,0,1,.513.128.432.432,0,0,1,.16.385.626.626,0,0,1-.032.225,1.564,1.564,0,0,1-.1.225l-11.676,21.78a1.562,1.562,0,0,0-.1.225.626.626,0,0,0-.032.225c0,.321.257.513.706.513H165.2a.567.567,0,0,0,.642-.642" transform="translate(-104.93 -262.155)"/><path class="a" d="M108.4,248.325a.84.84,0,0,0,.192.481.784.784,0,0,0,.577.192h3.977a.784.784,0,0,0,.577-.192.67.67,0,0,0,.192-.481V243.77a.68.68,0,0,0-.77-.77h-.321a.856.856,0,0,0-.674.289l-3.336,3.721-.16.192a.85.85,0,0,0-.257.609v.513" transform="translate(-80.205 -243)"/><path class="a" d="M113.885,271.774a.816.816,0,0,0-.16-.513.622.622,0,0,0-.513-.16h-4.138a.631.631,0,0,0-.513.192.788.788,0,0,0-.16.481v27.457a.816.816,0,0,0,.16.513.622.622,0,0,0,.513.16h4.138a.631.631,0,0,0,.513-.192.788.788,0,0,0,.16-.481Z" transform="translate(-80.205 -262.087)"/><path class="a" d="M364.366,338.291a.313.313,0,0,0-.128-.289.426.426,0,0,0-.257-.1.364.364,0,0,0-.257.1.313.313,0,0,0-.128.289v2.662H361.19v-2.662a.313.313,0,0,0-.128-.289.426.426,0,0,0-.257-.1.364.364,0,0,0-.257.1.313.313,0,0,0-.128.289v6.319a.313.313,0,0,0,.128.289.427.427,0,0,0,.257.1.364.364,0,0,0,.257-.1.313.313,0,0,0,.128-.289v-2.887H363.6v2.887a.313.313,0,0,0,.128.289.426.426,0,0,0,.257.1.364.364,0,0,0,.257-.1.313.313,0,0,0,.128-.289Zm-6.576,5.1a.876.876,0,0,1-.866.866h-.1a.9.9,0,0,1-.609-.225.751.751,0,0,1-.257-.577v-1.86a.8.8,0,0,1,.257-.577,1.013,1.013,0,0,1,.609-.225h.1a.821.821,0,0,1,.609.257.876.876,0,0,1,.257.609Zm.77-1.732a1.529,1.529,0,0,0-.128-.642,1.466,1.466,0,0,0-.353-.513,1.833,1.833,0,0,0-.513-.353,1.436,1.436,0,0,0-.642-.128h-.064a1.453,1.453,0,0,0-.513.1.818.818,0,0,0-.385.257v-2.053a.313.313,0,0,0-.128-.289.426.426,0,0,0-.257-.1.364.364,0,0,0-.257.1.313.313,0,0,0-.128.289v6.351c0,.128.032.225.128.257a.426.426,0,0,0,.257.1.754.754,0,0,0,.257-.064.325.325,0,0,0,.128-.225,1.4,1.4,0,0,0,.321.192,1.382,1.382,0,0,0,.545.1h.1a1.436,1.436,0,0,0,.642-.128,1.465,1.465,0,0,0,.513-.353,1.832,1.832,0,0,0,.353-.513,1.436,1.436,0,0,0,.128-.642Zm-5.228,0a1.782,1.782,0,0,0-.128-.738,1.466,1.466,0,0,0-.353-.513,1.627,1.627,0,0,0-.513-.289,2.013,2.013,0,0,0-.609-.1h-.1a1.655,1.655,0,0,0-1.251.577,2.243,2.243,0,0,0-.545-.417,1.748,1.748,0,0,0-.706-.16h-.1a1.172,1.172,0,0,0-.481.1,1.109,1.109,0,0,0-.385.225.517.517,0,0,0-.128-.225.305.305,0,0,0-.225-.064.518.518,0,0,0-.289.1.313.313,0,0,0-.128.289v4.234a.313.313,0,0,0,.128.289.427.427,0,0,0,.257.1.364.364,0,0,0,.257-.1.313.313,0,0,0,.128-.289v-3.047a.8.8,0,0,1,.257-.577,1.013,1.013,0,0,1,.609-.225h.1a.821.821,0,0,1,.609.257.9.9,0,0,1,.257.642v2.951a.313.313,0,0,0,.128.289.427.427,0,0,0,.257.1.364.364,0,0,0,.257-.1.313.313,0,0,0,.128-.289v-2.951a.821.821,0,0,1,.257-.609.876.876,0,0,1,.609-.257h.1a.8.8,0,0,1,.609.225.784.784,0,0,1,.225.642v2.983a.313.313,0,0,0,.128.289.427.427,0,0,0,.257.1.364.364,0,0,0,.257-.1.313.313,0,0,0,.128-.289Zm-7.794-.128a.292.292,0,0,0-.128-.257.4.4,0,0,0-.257-.128h-1.443a.313.313,0,0,0-.289.128.427.427,0,0,0-.1.257.364.364,0,0,0,.1.257.313.313,0,0,0,.289.128h1.059V343.1a1.024,1.024,0,0,1-.1.449.91.91,0,0,1-.257.353,1.424,1.424,0,0,1-.353.257,1.024,1.024,0,0,1-.449.1h-.1a1.025,1.025,0,0,1-.449-.1.91.91,0,0,1-.353-.257,1.424,1.424,0,0,1-.257-.353,1.024,1.024,0,0,1-.1-.449V339.83a1.132,1.132,0,0,1,.1-.449.91.91,0,0,1,.257-.353,1.425,1.425,0,0,1,.353-.257,1.025,1.025,0,0,1,.449-.1h.1a1.041,1.041,0,0,1,.77.289,1.386,1.386,0,0,1,.385.706.483.483,0,0,0,.128.257.346.346,0,0,0,.257.064.364.364,0,0,0,.257-.1.313.313,0,0,0,.128-.289v-.064a1.537,1.537,0,0,0-.225-.642,1.631,1.631,0,0,0-.417-.513,1.745,1.745,0,0,0-.577-.353,1.726,1.726,0,0,0-.706-.128h-.1a1.9,1.9,0,0,0-.738.16,1.594,1.594,0,0,0-.609.417,2.056,2.056,0,0,0-.417.609,1.9,1.9,0,0,0-.16.738V343.1a1.9,1.9,0,0,0,.16.738,1.594,1.594,0,0,0,.417.609,2.056,2.056,0,0,0,.609.417,1.9,1.9,0,0,0,.738.16h.1a1.462,1.462,0,0,0,.738-.16,1.594,1.594,0,0,0,.609-.417,2.055,2.055,0,0,0,.417-.609,1.9,1.9,0,0,0,.16-.738Zm-7.987-1.187a7.558,7.558,0,0,0-.321-1.219,5.034,5.034,0,0,0-.481-1.026,3.074,3.074,0,0,0-.609-.77.331.331,0,0,0-.257-.128.427.427,0,0,0-.257.1.331.331,0,0,0-.128.257.427.427,0,0,0,.1.257,3.736,3.736,0,0,1,.513.642,4.692,4.692,0,0,1,.417.9,4.9,4.9,0,0,1,.289,1.091,7.768,7.768,0,0,1,0,2.438,6.053,6.053,0,0,1-.289,1.091,5.827,5.827,0,0,1-.417.9,2.651,2.651,0,0,1-.513.642.364.364,0,0,0-.1.257.292.292,0,0,0,.128.257.392.392,0,0,0,.289.128.331.331,0,0,0,.257-.128,3.8,3.8,0,0,0,.609-.77,5.037,5.037,0,0,0,.481-1.026,6.767,6.767,0,0,0,.321-1.219,6.389,6.389,0,0,0,.128-1.347c-.064-.449-.1-.866-.16-1.315m-3.5,3.977a.313.313,0,0,0-.289-.128h-2.534l2.855-5.517a.756.756,0,0,0,.064-.257.438.438,0,0,0-.449-.449h-2.887a.313.313,0,0,0-.289.128.427.427,0,0,0-.1.257.364.364,0,0,0,.1.257.313.313,0,0,0,.289.128h2.406l-2.855,5.485a.6.6,0,0,0-.064.257.482.482,0,0,0,.128.353.4.4,0,0,0,.321.16H333.8a.313.313,0,0,0,.289-.128.427.427,0,0,0,.1-.257.6.6,0,0,0-.128-.289m-5.581-6.03a.313.313,0,0,0-.128-.289.426.426,0,0,0-.257-.1.364.364,0,0,0-.257.1.313.313,0,0,0-.128.289v6.319a.313.313,0,0,0,.128.289.426.426,0,0,0,.257.1.364.364,0,0,0,.257-.1.313.313,0,0,0,.128-.289Zm-2.823,3.24a.292.292,0,0,0-.128-.257.4.4,0,0,0-.257-.128h-1.443a.313.313,0,0,0-.289.128.426.426,0,0,0-.1.257.364.364,0,0,0,.1.257.313.313,0,0,0,.289.128h1.059V343.1a1.024,1.024,0,0,1-.1.449.91.91,0,0,1-.257.353,1.425,1.425,0,0,1-.353.257,1.024,1.024,0,0,1-.449.1h-.1a1.024,1.024,0,0,1-.449-.1.91.91,0,0,1-.353-.257,1.424,1.424,0,0,1-.257-.353,1.024,1.024,0,0,1-.1-.449V339.83a1.132,1.132,0,0,1,.1-.449.91.91,0,0,1,.257-.353,1.423,1.423,0,0,1,.353-.257,1.024,1.024,0,0,1,.449-.1h.1a1.04,1.04,0,0,1,.77.289,1.147,1.147,0,0,1,.353.706.483.483,0,0,0,.128.257.346.346,0,0,0,.257.064.364.364,0,0,0,.257-.1.313.313,0,0,0,.128-.289v-.064a1.538,1.538,0,0,0-.225-.642,1.631,1.631,0,0,0-.417-.513,1.746,1.746,0,0,0-.577-.353,1.726,1.726,0,0,0-.706-.128h-.1a1.9,1.9,0,0,0-.738.16,1.594,1.594,0,0,0-.609.417,2.056,2.056,0,0,0-.417.609,1.9,1.9,0,0,0-.16.738V343.1a1.9,1.9,0,0,0,.16.738,1.594,1.594,0,0,0,.417.609,2.056,2.056,0,0,0,.609.417,1.9,1.9,0,0,0,.738.16h.1a1.462,1.462,0,0,0,.738-.16,1.594,1.594,0,0,0,.609-.417,2.054,2.054,0,0,0,.417-.609,1.9,1.9,0,0,0,.16-.738V341.53Zm-5.742,3.336a3.323,3.323,0,0,1-.417-.9,4.9,4.9,0,0,1-.289-1.091,7.766,7.766,0,0,1,0-2.438,6.052,6.052,0,0,1,.289-1.091,5.828,5.828,0,0,1,.417-.9,3.706,3.706,0,0,1,.481-.642.364.364,0,0,0,.1-.257.292.292,0,0,0-.128-.257.512.512,0,0,0-.257-.1.292.292,0,0,0-.257.128,3.453,3.453,0,0,0-.577.77,5.033,5.033,0,0,0-.481,1.026,7.18,7.18,0,0,0-.321,1.187,5.9,5.9,0,0,0-.128,1.315,6.391,6.391,0,0,0,.128,1.347,11.182,11.182,0,0,0,.321,1.219,5.033,5.033,0,0,0,.481,1.026,4.954,4.954,0,0,0,.609.77.331.331,0,0,0,.257.128.454.454,0,0,0,.385-.385.331.331,0,0,0-.128-.257,2.522,2.522,0,0,1-.481-.609m-5.709-.481a.4.4,0,0,0-.257-.128.675.675,0,0,1-.417-.16.476.476,0,0,1-.192-.417v-2.855h.545a.313.313,0,0,0,.289-.128.426.426,0,0,0,.1-.257.364.364,0,0,0-.1-.257.313.313,0,0,0-.289-.128h-.545v-1.764A.313.313,0,0,0,313.2,338a.427.427,0,0,0-.257-.1.364.364,0,0,0-.257.1.313.313,0,0,0-.128.289v1.764h-.353a.313.313,0,0,0-.289.128.427.427,0,0,0-.1.257.364.364,0,0,0,.1.257.313.313,0,0,0,.289.128h.353v2.855a1.33,1.33,0,0,0,.1.513,1.417,1.417,0,0,0,.706.706,1.33,1.33,0,0,0,.513.1.313.313,0,0,0,.289-.128.364.364,0,0,0,.1-.257.213.213,0,0,0-.064-.225m-3.977-3.977a.313.313,0,0,0-.128-.289.426.426,0,0,0-.257-.1.364.364,0,0,0-.257.1.313.313,0,0,0-.128.289v4.234a.313.313,0,0,0,.128.289.427.427,0,0,0,.257.1.364.364,0,0,0,.257-.1.313.313,0,0,0,.128-.289Zm0-2.117a.313.313,0,0,0-.128-.289.427.427,0,0,0-.257-.1.364.364,0,0,0-.257.1.313.313,0,0,0-.128.289v.225a.313.313,0,0,0,.128.289.426.426,0,0,0,.257.1.364.364,0,0,0,.257-.1.313.313,0,0,0,.128-.289Zm-3.24,3.881h-1.828v-.513a.821.821,0,0,1,.257-.609.876.876,0,0,1,.609-.257h.1a.8.8,0,0,1,.577.257.9.9,0,0,1,.257.642v.481Zm.738-.513a1.436,1.436,0,0,0-.128-.642,1.465,1.465,0,0,0-.353-.513,1.833,1.833,0,0,0-.513-.353,1.436,1.436,0,0,0-.642-.128h-.1a1.529,1.529,0,0,0-.642.128,1.466,1.466,0,0,0-.513.353,1.834,1.834,0,0,0-.353.513,1.436,1.436,0,0,0-.128.642v1.732a1.436,1.436,0,0,0,.128.642,1.71,1.71,0,0,0,.866.866,1.436,1.436,0,0,0,.642.128h.1a1.642,1.642,0,0,0,.9-.257,1.76,1.76,0,0,0,.577-.706.24.24,0,0,0,.032-.16.313.313,0,0,0-.128-.289.448.448,0,0,0-.289-.1.455.455,0,0,0-.192.064.3.3,0,0,0-.128.192,1,1,0,0,1-.289.353.788.788,0,0,1-.481.16h-.1a.876.876,0,0,1-.609-.257.821.821,0,0,1-.257-.609v-.513h2.213a.392.392,0,0,0,.289-.128.364.364,0,0,0,.1-.257Zm-5.774,1.732a.876.876,0,0,1-.866.866h-.1a.9.9,0,0,1-.609-.225.751.751,0,0,1-.257-.577v-1.86a.8.8,0,0,1,.257-.577,1.013,1.013,0,0,1,.609-.225h.1a.821.821,0,0,1,.609.257.876.876,0,0,1,.257.609Zm.77-1.732a1.529,1.529,0,0,0-.128-.642,1.466,1.466,0,0,0-.353-.513,1.833,1.833,0,0,0-.513-.353,1.436,1.436,0,0,0-.642-.128h-.064a1.453,1.453,0,0,0-.513.1.818.818,0,0,0-.385.257v-2.053a.313.313,0,0,0-.128-.289.426.426,0,0,0-.257-.1.364.364,0,0,0-.257.1.313.313,0,0,0-.128.289v6.351c0,.128.032.225.128.257a.426.426,0,0,0,.257.1.754.754,0,0,0,.257-.064.325.325,0,0,0,.128-.225,1.4,1.4,0,0,0,.321.192,1.382,1.382,0,0,0,.545.1h.1a1.529,1.529,0,0,0,.642-.128,1.465,1.465,0,0,0,.513-.353,1.832,1.832,0,0,0,.353-.513,1.436,1.436,0,0,0,.128-.642v-1.732Zm-5-1.123a1.42,1.42,0,0,0-.481-.385,1.258,1.258,0,0,0-.577-.128.9.9,0,0,0-.321.032,2.049,2.049,0,0,0-.225.064.149.149,0,0,1-.289-.064.407.407,0,0,0-.192-.032.364.364,0,0,0-.257.1.313.313,0,0,0-.128.289v4.2a.313.313,0,0,0,.128.289.427.427,0,0,0,.257.1.364.364,0,0,0,.257-.1.313.313,0,0,0,.128-.289v-3.143a.706.706,0,0,1,.032-.257.291.291,0,0,1,.1-.225.471.471,0,0,1,.192-.16,1.153,1.153,0,0,1,.353-.064.64.64,0,0,1,.289.064c.064.064.128.1.16.128a.412.412,0,0,0,.321.128.331.331,0,0,0,.353-.353.5.5,0,0,0-.1-.192m-5.357,2.855a.821.821,0,0,1-.257.609.876.876,0,0,1-.609.257h-.1a.925.925,0,0,1-.609-.192.6.6,0,0,1-.225-.513v-.1a.517.517,0,0,1,.192-.417,1.469,1.469,0,0,1,.449-.225,3.726,3.726,0,0,1,.577-.128,3.41,3.41,0,0,0,.609-.128v.834Zm1.251.994a.333.333,0,0,0-.257-.128.312.312,0,0,1-.257-.321v-2.342a1.3,1.3,0,0,0-.128-.609,1.8,1.8,0,0,0-.321-.481,1.4,1.4,0,0,0-.513-.321,1.436,1.436,0,0,0-.642-.128h-.064c-.128,0-.289.032-.417.032a2.226,2.226,0,0,0-.417.16,1.509,1.509,0,0,0-.385.289,1.345,1.345,0,0,0-.289.449c-.032.032-.032.1-.032.192a.292.292,0,0,0,.128.257.427.427,0,0,0,.257.1c.064,0,.128-.032.192-.032.064-.032.1-.1.16-.16a1.284,1.284,0,0,1,.321-.385.773.773,0,0,1,.481-.128h.064a.9.9,0,0,1,.577.192.753.753,0,0,1,.257.642v.1a.118.118,0,0,1-.032.1c-.032.064-.128.1-.289.128s-.321.064-.513.1a5.212,5.212,0,0,0-.609.128,2.41,2.41,0,0,0-.577.225,1.83,1.83,0,0,0-.449.417,1.009,1.009,0,0,0-.16.642v.128a1.221,1.221,0,0,0,.128.609,1.306,1.306,0,0,0,.385.449,1.627,1.627,0,0,0,.513.289,1.868,1.868,0,0,0,.609.1h.1a1.619,1.619,0,0,0,1.091-.385,1.934,1.934,0,0,0,.257.257.591.591,0,0,0,.417.128h.064a.313.313,0,0,0,.289-.128.364.364,0,0,0,.1-.257.239.239,0,0,0-.032-.289m-5.421-2.726a1.544,1.544,0,0,0-.128-.706,1.466,1.466,0,0,0-.353-.513,1.627,1.627,0,0,0-.513-.289,2.013,2.013,0,0,0-.609-.1h-.1a1.172,1.172,0,0,0-.481.1,1.109,1.109,0,0,0-.385.225.517.517,0,0,0-.128-.225.346.346,0,0,0-.257-.064.517.517,0,0,0-.289.1.313.313,0,0,0-.128.289v4.234a.313.313,0,0,0,.128.289.427.427,0,0,0,.257.1.364.364,0,0,0,.257-.1.313.313,0,0,0,.128-.289v-2.983a.821.821,0,0,1,.257-.609.876.876,0,0,1,.609-.257h.1a.821.821,0,0,1,.609.257.876.876,0,0,1,.257.609v2.983a.313.313,0,0,0,.128.289.427.427,0,0,0,.257.1.364.364,0,0,0,.257-.1.407.407,0,0,0,.128-.289v-3.047Zm-5.774.513h-1.828v-.513a.821.821,0,0,1,.257-.609.876.876,0,0,1,.609-.257h.1a.8.8,0,0,1,.577.257.9.9,0,0,1,.257.642v.481Zm.738-.513a1.436,1.436,0,0,0-.128-.642,1.466,1.466,0,0,0-.353-.513,1.833,1.833,0,0,0-.513-.353,1.436,1.436,0,0,0-.642-.128h-.1a1.436,1.436,0,0,0-.642.128,1.466,1.466,0,0,0-.513.353,1.834,1.834,0,0,0-.353.513,1.436,1.436,0,0,0-.128.642v1.732a1.436,1.436,0,0,0,.128.642,1.71,1.71,0,0,0,.866.866,1.436,1.436,0,0,0,.642.128h.1a1.641,1.641,0,0,0,.9-.257,1.759,1.759,0,0,0,.577-.706.24.24,0,0,0,.032-.16.313.313,0,0,0-.128-.289.426.426,0,0,0-.257-.1.455.455,0,0,0-.192.064.294.294,0,0,0-.128.192,1,1,0,0,1-.289.353.788.788,0,0,1-.481.16h-.1a.876.876,0,0,1-.609-.257.821.821,0,0,1-.257-.609v-.513H282.8a.392.392,0,0,0,.289-.128.364.364,0,0,0,.1-.257v-.866Zm-5.036,0a1.783,1.783,0,0,0-.128-.738,2.068,2.068,0,0,0-.353-.513,1.626,1.626,0,0,0-.513-.289,1.867,1.867,0,0,0-.609-.1h-.1a1.655,1.655,0,0,0-1.251.577,2.242,2.242,0,0,0-.545-.417,1.748,1.748,0,0,0-.706-.16h-.1a1.172,1.172,0,0,0-.481.1,1.109,1.109,0,0,0-.385.225.517.517,0,0,0-.128-.225.305.305,0,0,0-.225-.064.517.517,0,0,0-.289.1.313.313,0,0,0-.128.289v4.234a.313.313,0,0,0,.128.289.427.427,0,0,0,.257.1.364.364,0,0,0,.257-.1.313.313,0,0,0,.128-.289v-3.047a.8.8,0,0,1,.257-.577,1.013,1.013,0,0,1,.609-.225h.1a.821.821,0,0,1,.609.257.9.9,0,0,1,.257.642v2.951a.313.313,0,0,0,.128.289.427.427,0,0,0,.257.1.364.364,0,0,0,.257-.1.313.313,0,0,0,.128-.289v-2.951a.821.821,0,0,1,.257-.609.876.876,0,0,1,.609-.257h.1a.8.8,0,0,1,.609.225.784.784,0,0,1,.225.642v2.983a.313.313,0,0,0,.128.289.427.427,0,0,0,.257.1.364.364,0,0,0,.257-.1.313.313,0,0,0,.128-.289v-3.047Zm-7.73,0a1.783,1.783,0,0,0-.128-.738,1.465,1.465,0,0,0-.353-.513,1.626,1.626,0,0,0-.513-.289,1.867,1.867,0,0,0-.609-.1h-.1a1.655,1.655,0,0,0-1.251.577,2.243,2.243,0,0,0-.545-.417,1.748,1.748,0,0,0-.706-.16h-.1a1.172,1.172,0,0,0-.481.1,1.109,1.109,0,0,0-.385.225.517.517,0,0,0-.128-.225.305.305,0,0,0-.225-.064.517.517,0,0,0-.289.1.313.313,0,0,0-.128.289v4.234a.313.313,0,0,0,.128.289.426.426,0,0,0,.257.1.364.364,0,0,0,.257-.1.313.313,0,0,0,.128-.289v-3.047a.8.8,0,0,1,.257-.577,1.013,1.013,0,0,1,.609-.225h.1a.821.821,0,0,1,.609.257.9.9,0,0,1,.257.642v2.951a.313.313,0,0,0,.128.289.427.427,0,0,0,.257.1.364.364,0,0,0,.257-.1.313.313,0,0,0,.128-.289v-2.951a.821.821,0,0,1,.257-.609.876.876,0,0,1,.609-.257h.1a.8.8,0,0,1,.609.225.784.784,0,0,1,.225.642v2.983a.313.313,0,0,0,.128.289.427.427,0,0,0,.257.1.364.364,0,0,0,.257-.1.313.313,0,0,0,.128-.289v-3.047Zm-8.853,1.732a.821.821,0,0,1-.257.609.876.876,0,0,1-.609.257h-.1a.925.925,0,0,1-.609-.192.6.6,0,0,1-.225-.513v-.1a.517.517,0,0,1,.192-.417,1.469,1.469,0,0,1,.449-.225,3.726,3.726,0,0,1,.577-.128,3.409,3.409,0,0,0,.609-.128v.834Zm1.283.994a.333.333,0,0,0-.257-.128.312.312,0,0,1-.257-.321v-2.342a1.3,1.3,0,0,0-.128-.609,1.8,1.8,0,0,0-.321-.481,1.4,1.4,0,0,0-.513-.321,1.436,1.436,0,0,0-.642-.128h-.064c-.128,0-.289.032-.417.032a2.227,2.227,0,0,0-.417.16,1.509,1.509,0,0,0-.385.289,1.345,1.345,0,0,0-.289.449c-.032.032-.032.1-.032.192a.292.292,0,0,0,.128.257.427.427,0,0,0,.257.1c.064,0,.128-.032.192-.032.064-.032.1-.1.16-.16a1.284,1.284,0,0,1,.321-.385.773.773,0,0,1,.481-.128h.064a.9.9,0,0,1,.577.192.753.753,0,0,1,.257.642v.1a.118.118,0,0,1-.032.1c-.032.064-.128.1-.289.128s-.321.064-.513.1a5.212,5.212,0,0,0-.609.128,2.411,2.411,0,0,0-.577.225,1.831,1.831,0,0,0-.449.417,1.009,1.009,0,0,0-.16.642v.128a1.221,1.221,0,0,0,.128.609,1.306,1.306,0,0,0,.385.449,1.627,1.627,0,0,0,.513.289,1.868,1.868,0,0,0,.609.1h.1a1.619,1.619,0,0,0,1.091-.385,1.936,1.936,0,0,0,.257.257.591.591,0,0,0,.417.128h.064a.313.313,0,0,0,.289-.128.364.364,0,0,0,.1-.257.429.429,0,0,0-.032-.289m-5.325-.834a1.368,1.368,0,0,0-.192-.77,1.609,1.609,0,0,0-.481-.449,2.178,2.178,0,0,0-.642-.225c-.225-.064-.449-.1-.642-.16a3.734,3.734,0,0,1-.481-.192.457.457,0,0,1-.192-.385v-.032a.489.489,0,0,1,.225-.385,1.18,1.18,0,0,1,.642-.16h.032a1.278,1.278,0,0,1,.545.1,3.5,3.5,0,0,1,.353.192.816.816,0,0,0,.225.064.331.331,0,0,0,.353-.353.313.313,0,0,0-.128-.289c-.032-.032-.1-.064-.16-.128a.6.6,0,0,0-.289-.128,2.676,2.676,0,0,0-.385-.128,2.476,2.476,0,0,0-.481-.064h-.032a3.572,3.572,0,0,0-.545.064,1.634,1.634,0,0,0-.545.225,1.571,1.571,0,0,0-.417.385.915.915,0,0,0-.16.609,1.258,1.258,0,0,0,.192.738,1.42,1.42,0,0,0,.481.385,1.882,1.882,0,0,0,.642.192,3.752,3.752,0,0,1,.642.16,1.156,1.156,0,0,1,.481.257.563.563,0,0,1,.192.481v.032a.6.6,0,0,1-.257.449,1.157,1.157,0,0,1-.706.225h-.064a1.035,1.035,0,0,1-.577-.192,2.159,2.159,0,0,1-.481-.449.32.32,0,0,0-.16-.128.407.407,0,0,0-.192-.032.518.518,0,0,0-.289.1.313.313,0,0,0-.128.289,1.261,1.261,0,0,0,.064.192,2.034,2.034,0,0,0,.738.738,1.512,1.512,0,0,0,.481.192,2.808,2.808,0,0,0,.513.064h.064a2.223,2.223,0,0,0,.642-.1,3.149,3.149,0,0,0,.577-.257,1.875,1.875,0,0,0,.417-.449,1.228,1.228,0,0,0,.16-.609v-.064Zm-5.2-3.143a.313.313,0,0,0-.128-.289.426.426,0,0,0-.257-.1.364.364,0,0,0-.257.1.313.313,0,0,0-.128.289v2.983a.876.876,0,0,1-.866.866h-.1a.876.876,0,0,1-.609-.257.821.821,0,0,1-.257-.609v-2.983a.313.313,0,0,0-.128-.289.426.426,0,0,0-.257-.1.364.364,0,0,0-.257.1.313.313,0,0,0-.128.289v2.983a1.783,1.783,0,0,0,.128.738,1.833,1.833,0,0,0,.353.513,1.627,1.627,0,0,0,.513.289,2.014,2.014,0,0,0,.609.1h.1a2.183,2.183,0,0,0,.481-.064,1.11,1.11,0,0,0,.385-.225.517.517,0,0,0,.128.225.6.6,0,0,0,.257.064.364.364,0,0,0,.257-.1.313.313,0,0,0,.128-.289v-4.234Zm-4.94,3.913a.313.313,0,0,0-.289-.128H244.53l2.855-5.517a.755.755,0,0,0,.064-.257.438.438,0,0,0-.449-.449h-2.887a.313.313,0,0,0-.289.128.426.426,0,0,0-.1.257.364.364,0,0,0,.1.257.313.313,0,0,0,.289.128h2.406l-2.855,5.485a.6.6,0,0,0-.064.257.482.482,0,0,0,.128.353.4.4,0,0,0,.321.16H247.1a.313.313,0,0,0,.289-.128.427.427,0,0,0,.1-.257.6.6,0,0,0-.128-.289" transform="translate(-172.039 -306.984)"/><path class="a" d="M318.084,309.266h-1.828v-.513a.821.821,0,0,1,.257-.609.876.876,0,0,1,.609-.257h.1a.8.8,0,0,1,.577.257.876.876,0,0,1,.257.609v.513Zm.77-.513a1.436,1.436,0,0,0-.128-.642,1.466,1.466,0,0,0-.353-.513,1.835,1.835,0,0,0-.513-.353,1.436,1.436,0,0,0-.642-.128h-.1a1.436,1.436,0,0,0-.642.128,1.466,1.466,0,0,0-.513.353,1.833,1.833,0,0,0-.353.513,1.436,1.436,0,0,0-.128.642v1.732a1.436,1.436,0,0,0,.128.642,1.71,1.71,0,0,0,.866.866,1.436,1.436,0,0,0,.642.128h.1a1.641,1.641,0,0,0,.9-.257,1.759,1.759,0,0,0,.577-.706.24.24,0,0,0,.032-.16.313.313,0,0,0-.128-.289.448.448,0,0,0-.289-.1.456.456,0,0,0-.192.064.3.3,0,0,0-.128.192,1,1,0,0,1-.289.353.788.788,0,0,1-.481.16h-.1a.876.876,0,0,1-.609-.257.821.821,0,0,1-.257-.609V310h2.213a.392.392,0,0,0,.289-.128.364.364,0,0,0,.1-.257Zm-4.843,2.694a.313.313,0,0,0-.289-.128.548.548,0,0,1-.545-.545v-5.389a.313.313,0,0,0-.128-.289.427.427,0,0,0-.257-.1.364.364,0,0,0-.257.1.313.313,0,0,0-.128.289v5.389a1.33,1.33,0,0,0,.1.513,1.417,1.417,0,0,0,.706.706,1.329,1.329,0,0,0,.513.1.313.313,0,0,0,.289-.128.364.364,0,0,0,.1-.257.512.512,0,0,0-.1-.257m-4.491-.962a.821.821,0,0,1-.257.609.876.876,0,0,1-.609.257h-.1a.925.925,0,0,1-.609-.192.6.6,0,0,1-.225-.513v-.1a.61.61,0,0,1,.16-.417,1.469,1.469,0,0,1,.449-.225,3.73,3.73,0,0,1,.577-.128,3.407,3.407,0,0,0,.609-.128Zm1.283.994a.333.333,0,0,0-.257-.128.312.312,0,0,1-.257-.321v-2.342a1.3,1.3,0,0,0-.128-.609,1.8,1.8,0,0,0-.321-.481,1.4,1.4,0,0,0-.513-.321,1.436,1.436,0,0,0-.642-.128h-.064c-.128,0-.289.032-.417.032a2.23,2.23,0,0,0-.417.16,1.507,1.507,0,0,0-.385.289,1.345,1.345,0,0,0-.289.449c-.032.032-.032.1-.032.192a.292.292,0,0,0,.128.257.427.427,0,0,0,.257.1.407.407,0,0,0,.192-.032c.064-.032.1-.1.16-.16a1.283,1.283,0,0,1,.321-.385.773.773,0,0,1,.481-.128h.064a.9.9,0,0,1,.577.192.753.753,0,0,1,.257.642v.1a.118.118,0,0,1-.032.1c-.032.064-.128.1-.289.128s-.321.064-.513.1a5.213,5.213,0,0,0-.609.128,3.086,3.086,0,0,0-.577.225,1.83,1.83,0,0,0-.449.417,1.009,1.009,0,0,0-.16.642v.128a1.436,1.436,0,0,0,.128.642,1.685,1.685,0,0,0,.353.449,1.626,1.626,0,0,0,.513.289,1.868,1.868,0,0,0,.609.1h.1a1.679,1.679,0,0,0,1.091-.385,1.932,1.932,0,0,0,.257.257.8.8,0,0,0,.417.128h.064a.313.313,0,0,0,.289-.128.833.833,0,0,0,.1-.577m-5.453-2.726a1.544,1.544,0,0,0-.128-.706,1.465,1.465,0,0,0-.353-.513,1.627,1.627,0,0,0-.513-.289,1.868,1.868,0,0,0-.609-.1h-.1a1.172,1.172,0,0,0-.481.1,1.109,1.109,0,0,0-.385.225.517.517,0,0,0-.128-.225.346.346,0,0,0-.257-.064.517.517,0,0,0-.289.1.313.313,0,0,0-.128.289v4.17a.313.313,0,0,0,.128.289.426.426,0,0,0,.257.1.364.364,0,0,0,.257-.1.313.313,0,0,0,.128-.289v-2.983a.821.821,0,0,1,.257-.609.876.876,0,0,1,.609-.257h.1a.876.876,0,0,1,.866.866v2.983a.313.313,0,0,0,.128.289.426.426,0,0,0,.257.1.364.364,0,0,0,.257-.1.407.407,0,0,0,.128-.289v-2.983Zm-5.87,1.732a.876.876,0,0,1-.866.866h-.1a.876.876,0,0,1-.866-.866v-1.732a.876.876,0,0,1,.866-.866h.1a.876.876,0,0,1,.609.257.821.821,0,0,1,.257.609Zm.77-1.732a1.529,1.529,0,0,0-.128-.642,1.465,1.465,0,0,0-.353-.513,1.834,1.834,0,0,0-.513-.353,1.436,1.436,0,0,0-.642-.128h-.1a1.436,1.436,0,0,0-.642.128,1.466,1.466,0,0,0-.513.353,1.832,1.832,0,0,0-.353.513,1.436,1.436,0,0,0-.128.642v1.732a1.436,1.436,0,0,0,.128.642,1.71,1.71,0,0,0,.866.866,1.436,1.436,0,0,0,.642.128h.1a1.529,1.529,0,0,0,.642-.128,1.466,1.466,0,0,0,.513-.353,1.834,1.834,0,0,0,.353-.513,1.436,1.436,0,0,0,.128-.642Zm-5.164-1.251a.313.313,0,0,0-.128-.289.427.427,0,0,0-.257-.1.364.364,0,0,0-.257.1.313.313,0,0,0-.128.289v4.234a.313.313,0,0,0,.128.289.426.426,0,0,0,.257.1.364.364,0,0,0,.257-.1.313.313,0,0,0,.128-.289Zm0-2.117a.313.313,0,0,0-.128-.289.427.427,0,0,0-.257-.1.364.364,0,0,0-.257.1.313.313,0,0,0-.128.289v.225a.313.313,0,0,0,.128.289.427.427,0,0,0,.257.1.364.364,0,0,0,.257-.1.313.313,0,0,0,.128-.289Zm-2.47,6.094a.4.4,0,0,0-.257-.128.676.676,0,0,1-.417-.16.458.458,0,0,1-.16-.417v-2.855h.545a.313.313,0,0,0,.289-.128.427.427,0,0,0,.1-.257.364.364,0,0,0-.1-.257.313.313,0,0,0-.289-.128h-.545v-1.764a.313.313,0,0,0-.128-.289.427.427,0,0,0-.257-.1.364.364,0,0,0-.257.1.313.313,0,0,0-.128.289v1.764h-.385a.313.313,0,0,0-.289.128.426.426,0,0,0-.1.257.364.364,0,0,0,.1.257.313.313,0,0,0,.289.128h.353v2.855a1.33,1.33,0,0,0,.1.513,1.418,1.418,0,0,0,.706.706,1.33,1.33,0,0,0,.513.1.313.313,0,0,0,.289-.128.364.364,0,0,0,.1-.257.6.6,0,0,0-.064-.225m-4.715-.994a.821.821,0,0,1-.257.609.876.876,0,0,1-.609.257h-.1a.925.925,0,0,1-.609-.192.6.6,0,0,1-.225-.513v-.1a.61.61,0,0,1,.16-.417,1.469,1.469,0,0,1,.449-.225,3.73,3.73,0,0,1,.577-.128,3.407,3.407,0,0,0,.609-.128Zm1.283.994a.333.333,0,0,0-.257-.128.312.312,0,0,1-.257-.321v-2.342a1.3,1.3,0,0,0-.128-.609,1.8,1.8,0,0,0-.321-.481,1.4,1.4,0,0,0-.513-.321,1.436,1.436,0,0,0-.642-.128H287c-.128,0-.257.032-.417.032a2.229,2.229,0,0,0-.417.16,1.508,1.508,0,0,0-.385.289,1.345,1.345,0,0,0-.289.449c-.032.032-.032.1-.032.192a.292.292,0,0,0,.128.257.427.427,0,0,0,.257.1.407.407,0,0,0,.192-.032c.064-.032.1-.1.16-.16a1.283,1.283,0,0,1,.321-.385.773.773,0,0,1,.481-.128h.064a.9.9,0,0,1,.577.192.753.753,0,0,1,.257.642v.1a.118.118,0,0,1-.032.1c-.032.064-.128.1-.289.128s-.321.064-.513.1a5.213,5.213,0,0,0-.609.128,3.088,3.088,0,0,0-.577.225,1.831,1.831,0,0,0-.449.417,1.009,1.009,0,0,0-.16.642v.128a1.436,1.436,0,0,0,.128.642,1.686,1.686,0,0,0,.353.449,1.626,1.626,0,0,0,.513.289,1.868,1.868,0,0,0,.609.1h.1a1.619,1.619,0,0,0,1.091-.385,1.934,1.934,0,0,0,.257.257.8.8,0,0,0,.417.128h.064a.313.313,0,0,0,.289-.128.833.833,0,0,0,.1-.577m-5.453-2.726a1.544,1.544,0,0,0-.128-.706,1.465,1.465,0,0,0-.353-.513,1.627,1.627,0,0,0-.513-.289,2.014,2.014,0,0,0-.609-.1h-.1a1.172,1.172,0,0,0-.481.1,1.109,1.109,0,0,0-.385.225.517.517,0,0,0-.128-.225.346.346,0,0,0-.257-.064.517.517,0,0,0-.289.1.313.313,0,0,0-.128.289v4.17a.313.313,0,0,0,.128.289.426.426,0,0,0,.257.1.364.364,0,0,0,.257-.1.313.313,0,0,0,.128-.289v-2.983a.821.821,0,0,1,.257-.609.876.876,0,0,1,.609-.257h.1a.821.821,0,0,1,.609.257.876.876,0,0,1,.257.609v2.983a.313.313,0,0,0,.128.289.426.426,0,0,0,.257.1.364.364,0,0,0,.257-.1.313.313,0,0,0,.128-.289v-2.983Zm-4.747-1.123a1.421,1.421,0,0,0-.481-.385,1.873,1.873,0,0,0-.577-.128.894.894,0,0,0-.321.032,2.037,2.037,0,0,0-.225.064.149.149,0,0,1-.289-.064.407.407,0,0,0-.192-.032.364.364,0,0,0-.257.1.313.313,0,0,0-.128.289v4.2a.313.313,0,0,0,.128.289.426.426,0,0,0,.257.1.364.364,0,0,0,.257-.1.313.313,0,0,0,.128-.289V308.56a.706.706,0,0,1,.032-.257.291.291,0,0,1,.1-.225.472.472,0,0,1,.192-.16,1.154,1.154,0,0,1,.353-.064.641.641,0,0,1,.289.064c.064.064.128.1.16.128a.412.412,0,0,0,.321.128.331.331,0,0,0,.353-.353.5.5,0,0,0-.1-.192m-4.908,1.636h-1.828v-.513a.821.821,0,0,1,.257-.609.876.876,0,0,1,.609-.257h.1a.8.8,0,0,1,.577.257.876.876,0,0,1,.257.609v.513Zm.77-.513a1.436,1.436,0,0,0-.128-.642,1.465,1.465,0,0,0-.353-.513,1.834,1.834,0,0,0-.513-.353,1.436,1.436,0,0,0-.642-.128h-.1a1.529,1.529,0,0,0-.642.128,1.465,1.465,0,0,0-.513.353,1.833,1.833,0,0,0-.353.513,1.436,1.436,0,0,0-.128.642v1.732a1.436,1.436,0,0,0,.128.642,1.71,1.71,0,0,0,.866.866,1.436,1.436,0,0,0,.642.128h.1a1.642,1.642,0,0,0,.9-.257,1.76,1.76,0,0,0,.577-.706.24.24,0,0,0,.032-.16.313.313,0,0,0-.128-.289.448.448,0,0,0-.289-.1.456.456,0,0,0-.192.064.3.3,0,0,0-.128.192,1,1,0,0,1-.289.353.788.788,0,0,1-.481.16h-.1a.876.876,0,0,1-.609-.257.821.821,0,0,1-.257-.609V310h2.213a.392.392,0,0,0,.289-.128.364.364,0,0,0,.1-.257ZM270,311.479a.4.4,0,0,0-.257-.128.676.676,0,0,1-.417-.16.458.458,0,0,1-.16-.417v-2.855h.545a.313.313,0,0,0,.289-.128.427.427,0,0,0,.1-.257.364.364,0,0,0-.1-.257.313.313,0,0,0-.289-.128h-.545v-1.764a.313.313,0,0,0-.128-.289.427.427,0,0,0-.257-.1.364.364,0,0,0-.257.1.313.313,0,0,0-.128.289v1.764h-.353a.313.313,0,0,0-.289.128.427.427,0,0,0-.1.257.364.364,0,0,0,.1.257.313.313,0,0,0,.289.128h.353v2.855a1.33,1.33,0,0,0,.1.513,1.418,1.418,0,0,0,.706.706,1.33,1.33,0,0,0,.513.1.313.313,0,0,0,.289-.128.364.364,0,0,0,.1-.257.347.347,0,0,0-.1-.225m-3.785-2.726a1.544,1.544,0,0,0-.128-.706,1.466,1.466,0,0,0-.353-.513,1.627,1.627,0,0,0-.513-.289,2.014,2.014,0,0,0-.609-.1h-.1a1.172,1.172,0,0,0-.481.1,1.109,1.109,0,0,0-.385.225.517.517,0,0,0-.128-.225.346.346,0,0,0-.257-.064.517.517,0,0,0-.289.1.313.313,0,0,0-.128.289v4.17a.313.313,0,0,0,.128.289.426.426,0,0,0,.257.1.364.364,0,0,0,.257-.1.313.313,0,0,0,.128-.289v-2.983a.821.821,0,0,1,.257-.609.876.876,0,0,1,.609-.257h.1a.876.876,0,0,1,.866.866v2.983a.313.313,0,0,0,.128.289.426.426,0,0,0,.257.1.364.364,0,0,0,.257-.1.313.313,0,0,0,.128-.289v-2.983Zm-5.389-3.368a.313.313,0,0,0-.128-.289.427.427,0,0,0-.257-.1.364.364,0,0,0-.257.1.313.313,0,0,0-.128.289v6.351a.313.313,0,0,0,.128.289.427.427,0,0,0,.257.1.364.364,0,0,0,.257-.1.407.407,0,0,0,.128-.289Zm-5.742,2.245a1.42,1.42,0,0,0-.481-.385,1.873,1.873,0,0,0-.577-.128.894.894,0,0,0-.321.032,2.038,2.038,0,0,0-.225.064.149.149,0,0,1-.289-.064.407.407,0,0,0-.192-.032.364.364,0,0,0-.257.1.313.313,0,0,0-.128.289v4.2a.313.313,0,0,0,.128.289.426.426,0,0,0,.257.1.364.364,0,0,0,.257-.1.313.313,0,0,0,.128-.289V308.56a.706.706,0,0,1,.032-.257.291.291,0,0,1,.1-.225.472.472,0,0,1,.192-.16,1.154,1.154,0,0,1,.353-.064.641.641,0,0,1,.289.064c.064.064.128.1.16.128a.412.412,0,0,0,.321.128.331.331,0,0,0,.353-.353.5.5,0,0,0-.1-.192m-4.33-.128a.313.313,0,0,0-.128-.289.427.427,0,0,0-.257-.1.364.364,0,0,0-.257.1.313.313,0,0,0-.128.289v2.983a.876.876,0,0,1-.866.866h-.1a.876.876,0,0,1-.609-.257.821.821,0,0,1-.257-.609V307.5a.313.313,0,0,0-.128-.289.427.427,0,0,0-.257-.1.364.364,0,0,0-.257.1.313.313,0,0,0-.128.289v2.983a1.783,1.783,0,0,0,.128.738,1.465,1.465,0,0,0,.353.513,1.626,1.626,0,0,0,.513.289,2.014,2.014,0,0,0,.609.1h.1a2.183,2.183,0,0,0,.481-.064,1.109,1.109,0,0,0,.385-.225c.032.1.064.192.128.225a.6.6,0,0,0,.257.064.364.364,0,0,0,.257-.1.313.313,0,0,0,.128-.289V307.5Zm-2.213-2.117a.313.313,0,0,0-.128-.289.427.427,0,0,0-.257-.1.364.364,0,0,0-.257.1.313.313,0,0,0-.128.289v.225a.313.313,0,0,0,.128.289.427.427,0,0,0,.257.1.364.364,0,0,0,.257-.1.313.313,0,0,0,.128-.289Zm1.86,0a.313.313,0,0,0-.128-.289.427.427,0,0,0-.257-.1.364.364,0,0,0-.257.1.407.407,0,0,0-.128.289v.225a.313.313,0,0,0,.128.289.427.427,0,0,0,.257.1.364.364,0,0,0,.257-.1.313.313,0,0,0,.128-.289Zm-4.491-.257a.313.313,0,0,0-.289-.128,1.33,1.33,0,0,0-.513.1,1.417,1.417,0,0,0-.706.706,1.453,1.453,0,0,0-.1.513v.8h-.225a.313.313,0,0,0-.289.128.426.426,0,0,0-.1.257.364.364,0,0,0,.1.257.313.313,0,0,0,.289.128h.225v3.849a.313.313,0,0,0,.128.289.426.426,0,0,0,.257.1.364.364,0,0,0,.257-.1.313.313,0,0,0,.128-.289v-3.817h.481a.313.313,0,0,0,.289-.128.427.427,0,0,0,.1-.257.364.364,0,0,0-.1-.257.313.313,0,0,0-.289-.128h-.481v-.8a.548.548,0,0,1,.545-.545.313.313,0,0,0,.289-.128.426.426,0,0,0,.1-.257.448.448,0,0,0-.1-.289" transform="translate(-172.106 -285.113)"/><path class="a" d="M340.462,277.079a.4.4,0,0,0-.257-.128.676.676,0,0,1-.417-.16.476.476,0,0,1-.192-.417v-2.855h.545a.313.313,0,0,0,.289-.128.426.426,0,0,0,.1-.257.364.364,0,0,0-.1-.257.313.313,0,0,0-.289-.128H339.6v-1.764a.313.313,0,0,0-.128-.289.426.426,0,0,0-.257-.1.364.364,0,0,0-.257.1.313.313,0,0,0-.128.289v1.764h-.353a.313.313,0,0,0-.289.128.427.427,0,0,0-.1.257.364.364,0,0,0,.1.257.313.313,0,0,0,.289.128h.353v2.855a1.33,1.33,0,0,0,.1.513,1.418,1.418,0,0,0,.706.706,1.329,1.329,0,0,0,.513.1.313.313,0,0,0,.289-.128.427.427,0,0,0,.1-.257.213.213,0,0,0-.064-.225m-3.3-6.351a.313.313,0,0,0-.289-.128,1.33,1.33,0,0,0-.513.1,1.22,1.22,0,0,0-.417.289,1.132,1.132,0,0,0-.257.417,1.453,1.453,0,0,0-.1.513v.8h-.225a.313.313,0,0,0-.289.128.427.427,0,0,0-.1.257.364.364,0,0,0,.1.257.313.313,0,0,0,.289.128h.225V277.3a.313.313,0,0,0,.128.289.427.427,0,0,0,.257.1.364.364,0,0,0,.257-.1.313.313,0,0,0,.128-.289v-3.817h.481a.313.313,0,0,0,.289-.128.426.426,0,0,0,.1-.257.364.364,0,0,0-.1-.257.313.313,0,0,0-.289-.128h-.481v-.8a.432.432,0,0,1,.16-.385.531.531,0,0,1,.385-.16.313.313,0,0,0,.289-.128.427.427,0,0,0,.1-.257.96.96,0,0,0-.128-.257m-4.651,5.357a.821.821,0,0,1-.257.609.876.876,0,0,1-.609.257h-.1a.925.925,0,0,1-.609-.192.6.6,0,0,1-.225-.513v-.1a.517.517,0,0,1,.192-.417,1.47,1.47,0,0,1,.449-.225,3.73,3.73,0,0,1,.577-.128,3.407,3.407,0,0,0,.609-.128v.834Zm1.283.994a.333.333,0,0,0-.257-.128.312.312,0,0,1-.257-.321v-2.342a1.3,1.3,0,0,0-.128-.609,1.8,1.8,0,0,0-.321-.481,1.4,1.4,0,0,0-.513-.321,1.436,1.436,0,0,0-.642-.128h-.064a1.829,1.829,0,0,0-.417.032,2.225,2.225,0,0,0-.417.16,1.508,1.508,0,0,0-.385.289,1.345,1.345,0,0,0-.289.449c-.032.032-.032.1-.032.192a.292.292,0,0,0,.128.257.427.427,0,0,0,.257.1.407.407,0,0,0,.192-.032c.064-.032.1-.1.16-.16a1.283,1.283,0,0,1,.321-.385.773.773,0,0,1,.481-.128h.064a.9.9,0,0,1,.577.192.753.753,0,0,1,.257.642v.1a.118.118,0,0,1-.032.1c-.032.064-.128.1-.289.128s-.321.064-.513.1a5.224,5.224,0,0,0-.609.128,3.089,3.089,0,0,0-.577.225,1.83,1.83,0,0,0-.449.417,1.009,1.009,0,0,0-.16.642v.128a1.436,1.436,0,0,0,.128.642,1.306,1.306,0,0,0,.385.449,1.626,1.626,0,0,0,.513.289,1.868,1.868,0,0,0,.609.1h.1a1.619,1.619,0,0,0,1.091-.385,1.937,1.937,0,0,0,.257.257.8.8,0,0,0,.417.128h.064a.313.313,0,0,0,.289-.128.364.364,0,0,0,.1-.257.5.5,0,0,0-.032-.321m-5.421-2.726a1.436,1.436,0,0,0-.128-.642,1.465,1.465,0,0,0-.353-.513,1.833,1.833,0,0,0-.513-.353,1.436,1.436,0,0,0-.642-.128h-.1a1.453,1.453,0,0,0-.513.1,1.108,1.108,0,0,0-.385.225v-2.021a.313.313,0,0,0-.128-.289.427.427,0,0,0-.257-.1.364.364,0,0,0-.257.1.313.313,0,0,0-.128.289v6.319a.313.313,0,0,0,.128.289.427.427,0,0,0,.257.1.364.364,0,0,0,.257-.1.313.313,0,0,0,.128-.289v-3.015a.647.647,0,0,1,.1-.353,1.779,1.779,0,0,1,.192-.257,1.3,1.3,0,0,1,.289-.16,1.153,1.153,0,0,1,.353-.064,1.139,1.139,0,0,1,.321.064,1.3,1.3,0,0,1,.289.16.5.5,0,0,1,.192.257.694.694,0,0,1,.064.385v2.983a.313.313,0,0,0,.128.289.426.426,0,0,0,.257.1.364.364,0,0,0,.257-.1.313.313,0,0,0,.128-.289v-2.983Zm-5.1,1.411a.427.427,0,0,0-.257-.1.364.364,0,0,0-.257.1.407.407,0,0,0-.128.289.876.876,0,0,1-.257.609.821.821,0,0,1-.609.257h-.1a.821.821,0,0,1-.609-.257.876.876,0,0,1-.257-.609v-1.732a.876.876,0,0,1,.866-.866h.1a.876.876,0,0,1,.609.257.9.9,0,0,1,.257.642.407.407,0,0,0,.128.289.39.39,0,0,0,.513,0,.313.313,0,0,0,.128-.289,1.437,1.437,0,0,0-.128-.642,1.466,1.466,0,0,0-.353-.513,1.834,1.834,0,0,0-.513-.353,1.436,1.436,0,0,0-.641-.128h-.1a1.436,1.436,0,0,0-.642.128,1.465,1.465,0,0,0-.513.353,2.909,2.909,0,0,0-.353.513,1.436,1.436,0,0,0-.128.642v1.732a1.436,1.436,0,0,0,.128.642,1.71,1.71,0,0,0,.866.866,1.436,1.436,0,0,0,.642.128h.1a1.529,1.529,0,0,0,.641-.128,1.465,1.465,0,0,0,.513-.353,1.834,1.834,0,0,0,.353-.513,1.437,1.437,0,0,0,.128-.642.372.372,0,0,0-.128-.321m-4.779.481a1.368,1.368,0,0,0-.192-.77,1.609,1.609,0,0,0-.481-.449,2.178,2.178,0,0,0-.642-.225c-.225-.064-.449-.1-.642-.16a3.734,3.734,0,0,1-.481-.192.457.457,0,0,1-.192-.385v-.032a.489.489,0,0,1,.225-.385,1.179,1.179,0,0,1,.641-.16h.032a1.278,1.278,0,0,1,.545.1,3.112,3.112,0,0,0,.353.16.815.815,0,0,0,.225.064.331.331,0,0,0,.353-.353.313.313,0,0,0-.128-.289c-.032-.032-.1-.064-.16-.128a1.156,1.156,0,0,0-.289-.16,2.676,2.676,0,0,0-.385-.128,2.476,2.476,0,0,0-.481-.064h-.032a3.571,3.571,0,0,0-.545.064,1.633,1.633,0,0,0-.545.225,1.569,1.569,0,0,0-.417.385.915.915,0,0,0-.16.609,1.257,1.257,0,0,0,.192.738,1.42,1.42,0,0,0,.481.385,2.129,2.129,0,0,0,.642.192,3.755,3.755,0,0,1,.642.16,1.7,1.7,0,0,1,.481.257.563.563,0,0,1,.192.481v.032a.6.6,0,0,1-.257.449,1.088,1.088,0,0,1-.706.225h-.064a1.035,1.035,0,0,1-.577-.192,2.159,2.159,0,0,1-.481-.449.213.213,0,0,0-.16-.128.407.407,0,0,0-.192-.032.364.364,0,0,0-.257.1.313.313,0,0,0-.128.289,1.266,1.266,0,0,0,.064.192,2.034,2.034,0,0,0,.738.738,1.512,1.512,0,0,0,.481.192,2.807,2.807,0,0,0,.513.064h.064a2.223,2.223,0,0,0,.642-.1,3.152,3.152,0,0,0,.577-.257,1.875,1.875,0,0,0,.417-.449,1.228,1.228,0,0,0,.16-.609h-.064Zm-4.972.8a.313.313,0,0,0-.289-.128.548.548,0,0,1-.545-.545v-5.389a.313.313,0,0,0-.128-.289.426.426,0,0,0-.257-.1.364.364,0,0,0-.257.1.313.313,0,0,0-.128.289v5.389a1.33,1.33,0,0,0,.1.513,1.418,1.418,0,0,0,.706.706,1.329,1.329,0,0,0,.513.1.313.313,0,0,0,.289-.128.427.427,0,0,0,.1-.257,2.208,2.208,0,0,1-.1-.257m-3.175,0a.313.313,0,0,0-.289-.128.548.548,0,0,1-.545-.545v-5.389a.313.313,0,0,0-.128-.289.427.427,0,0,0-.257-.1.364.364,0,0,0-.257.1.313.313,0,0,0-.128.289v5.389a1.33,1.33,0,0,0,.1.513,1.417,1.417,0,0,0,.706.706,1.329,1.329,0,0,0,.513.1.313.313,0,0,0,.289-.128.426.426,0,0,0,.1-.257.512.512,0,0,0-.1-.257m-4.106-2.181h-1.828v-.513a.821.821,0,0,1,.257-.609.876.876,0,0,1,.609-.257h.1a.8.8,0,0,1,.577.257.9.9,0,0,1,.257.642v.481Zm.77-.513a1.436,1.436,0,0,0-.128-.642,1.465,1.465,0,0,0-.353-.513,1.833,1.833,0,0,0-.513-.353,1.436,1.436,0,0,0-.642-.128h-.1a1.436,1.436,0,0,0-.642.128,1.466,1.466,0,0,0-.513.353,1.832,1.832,0,0,0-.353.513,1.436,1.436,0,0,0-.128.642v1.732a1.436,1.436,0,0,0,.128.642,1.71,1.71,0,0,0,.866.866,1.436,1.436,0,0,0,.642.128h.1a1.641,1.641,0,0,0,.9-.257,1.569,1.569,0,0,0,.577-.706.241.241,0,0,0,.032-.16.313.313,0,0,0-.128-.289.448.448,0,0,0-.289-.1.456.456,0,0,0-.192.064.3.3,0,0,0-.128.192,1,1,0,0,1-.289.353.788.788,0,0,1-.481.16h-.1a.876.876,0,0,1-.609-.257.821.821,0,0,1-.257-.609V275.6h2.213a.392.392,0,0,0,.289-.128.364.364,0,0,0,.1-.257Zm-4.908,1.892a1.368,1.368,0,0,0-.192-.77,1.609,1.609,0,0,0-.481-.449,2.177,2.177,0,0,0-.642-.225c-.225-.064-.449-.1-.641-.16a3.732,3.732,0,0,1-.481-.192.457.457,0,0,1-.192-.385v-.032a.489.489,0,0,1,.225-.385,1.179,1.179,0,0,1,.642-.16h.032a1.278,1.278,0,0,1,.545.1,3.117,3.117,0,0,0,.353.16.815.815,0,0,0,.225.064.331.331,0,0,0,.353-.353.313.313,0,0,0-.128-.289c-.032-.032-.1-.064-.16-.128a1.155,1.155,0,0,0-.289-.16,2.674,2.674,0,0,0-.385-.128,2.183,2.183,0,0,0-.481-.064h-.032a3.573,3.573,0,0,0-.545.064,1.634,1.634,0,0,0-.545.225,1.569,1.569,0,0,0-.417.385.914.914,0,0,0-.16.609,1.258,1.258,0,0,0,.192.738,1.421,1.421,0,0,0,.481.385,2.129,2.129,0,0,0,.642.192,3.755,3.755,0,0,1,.642.16,1.7,1.7,0,0,1,.481.257.563.563,0,0,1,.192.481v.032a.6.6,0,0,1-.257.449,1.088,1.088,0,0,1-.706.225H300.3a1.035,1.035,0,0,1-.577-.192,2.158,2.158,0,0,1-.481-.449.213.213,0,0,0-.16-.128.407.407,0,0,0-.192-.032.517.517,0,0,0-.289.1.313.313,0,0,0-.128.289,1.266,1.266,0,0,0,.064.192,2.034,2.034,0,0,0,.738.738,1.512,1.512,0,0,0,.481.192,2.807,2.807,0,0,0,.513.064h.064a2.223,2.223,0,0,0,.642-.1,3.152,3.152,0,0,0,.577-.257,1.875,1.875,0,0,0,.417-.449,1.228,1.228,0,0,0,.16-.609H302.1Zm-5.806-1.379h-1.828v-.513a.821.821,0,0,1,.257-.609.876.876,0,0,1,.609-.257h.1a.8.8,0,0,1,.577.257.9.9,0,0,1,.257.642v.481Zm.77-.513a1.437,1.437,0,0,0-.128-.642,1.466,1.466,0,0,0-.353-.513,1.833,1.833,0,0,0-.513-.353,1.436,1.436,0,0,0-.641-.128h-.1a1.529,1.529,0,0,0-.642.128,1.465,1.465,0,0,0-.513.353,1.834,1.834,0,0,0-.353.513,1.436,1.436,0,0,0-.128.642v1.732a1.436,1.436,0,0,0,.128.642,1.71,1.71,0,0,0,.866.866,1.436,1.436,0,0,0,.642.128h.1a1.641,1.641,0,0,0,.9-.257,1.568,1.568,0,0,0,.577-.706.24.24,0,0,0,.032-.16.313.313,0,0,0-.128-.289.448.448,0,0,0-.289-.1.456.456,0,0,0-.192.064.294.294,0,0,0-.128.192,1,1,0,0,1-.289.353.788.788,0,0,1-.481.16h-.1a.876.876,0,0,1-.609-.257.821.821,0,0,1-.257-.609V275.6h2.213a.392.392,0,0,0,.289-.128.364.364,0,0,0,.1-.257Zm-5.132-.128a.292.292,0,0,0-.128-.257.4.4,0,0,0-.257-.128H290.1a.313.313,0,0,0-.289.128.427.427,0,0,0-.1.257.364.364,0,0,0,.1.257.313.313,0,0,0,.289.128h1.059V275.8a1.025,1.025,0,0,1-.1.449,1.4,1.4,0,0,1-.609.609,1.024,1.024,0,0,1-.449.1h-.1a1.025,1.025,0,0,1-.449-.1,1.4,1.4,0,0,1-.609-.609,1.025,1.025,0,0,1-.1-.449v-3.272a1.132,1.132,0,0,1,.1-.449.91.91,0,0,1,.257-.353,1.424,1.424,0,0,1,.353-.257,1.024,1.024,0,0,1,.449-.1h.1a1.041,1.041,0,0,1,.77.289,1.148,1.148,0,0,1,.353.706.483.483,0,0,0,.128.257.346.346,0,0,0,.257.064.364.364,0,0,0,.257-.1.313.313,0,0,0,.128-.289v-.064a1.537,1.537,0,0,0-.225-.642,1.632,1.632,0,0,0-.417-.513,1.746,1.746,0,0,0-.577-.353,1.726,1.726,0,0,0-.706-.128h-.1a1.9,1.9,0,0,0-.738.16,1.593,1.593,0,0,0-.609.417,2.055,2.055,0,0,0-.417.609,1.9,1.9,0,0,0-.16.738V275.8a2.2,2.2,0,0,0,.16.77,1.88,1.88,0,0,0,.417.609,2.054,2.054,0,0,0,.609.417,1.9,1.9,0,0,0,.738.16h.1a1.9,1.9,0,0,0,.738-.16,1.594,1.594,0,0,0,.609-.417,2.054,2.054,0,0,0,.417-.609,1.938,1.938,0,0,0,.16-.77v-1.572Zm-9.687.642h-1.828v-.513a.821.821,0,0,1,.257-.609.876.876,0,0,1,.609-.257h.1a.8.8,0,0,1,.577.257.9.9,0,0,1,.257.642v.481Zm.77-.513a1.436,1.436,0,0,0-.128-.642,1.465,1.465,0,0,0-.353-.513,1.833,1.833,0,0,0-.513-.353,1.436,1.436,0,0,0-.642-.128h-.1a1.529,1.529,0,0,0-.642.128,1.466,1.466,0,0,0-.513.353,1.833,1.833,0,0,0-.353.513,1.436,1.436,0,0,0-.128.642v1.732a1.436,1.436,0,0,0,.128.642,1.71,1.71,0,0,0,.866.866,1.436,1.436,0,0,0,.642.128h.1a1.641,1.641,0,0,0,.9-.257,1.568,1.568,0,0,0,.577-.706.24.24,0,0,0,.032-.16.313.313,0,0,0-.128-.289.448.448,0,0,0-.289-.1.456.456,0,0,0-.192.064.294.294,0,0,0-.128.192,1,1,0,0,1-.289.353.788.788,0,0,1-.481.16h-.1a.876.876,0,0,1-.609-.257.821.821,0,0,1-.257-.609V275.6h2.213a.392.392,0,0,0,.289-.128.364.364,0,0,0,.1-.257Zm-5,0a1.436,1.436,0,0,0-.128-.642,1.465,1.465,0,0,0-.353-.513,1.834,1.834,0,0,0-.513-.353,1.436,1.436,0,0,0-.642-.128h-.1a1.453,1.453,0,0,0-.513.1,1.109,1.109,0,0,0-.385.225v-2.021a.313.313,0,0,0-.128-.289.427.427,0,0,0-.257-.1.364.364,0,0,0-.257.1.313.313,0,0,0-.128.289v6.319a.313.313,0,0,0,.128.289.427.427,0,0,0,.257.1.364.364,0,0,0,.257-.1.313.313,0,0,0,.128-.289v-3.015a.647.647,0,0,1,.1-.353.865.865,0,0,1,.225-.257,1.3,1.3,0,0,1,.289-.16,1.153,1.153,0,0,1,.353-.064,1.14,1.14,0,0,1,.321.064,1.3,1.3,0,0,1,.289.16.865.865,0,0,1,.225.257.7.7,0,0,1,.064.385v2.983a.313.313,0,0,0,.128.289.427.427,0,0,0,.257.1.364.364,0,0,0,.257-.1.313.313,0,0,0,.128-.289Zm-5.2,1.411a.427.427,0,0,0-.257-.1.364.364,0,0,0-.257.1.406.406,0,0,0-.128.289.876.876,0,0,1-.257.609.821.821,0,0,1-.609.257h-.1a.821.821,0,0,1-.609-.257.876.876,0,0,1-.257-.609v-1.732a.876.876,0,0,1,.866-.866h.1a.876.876,0,0,1,.609.257.9.9,0,0,1,.257.642.407.407,0,0,0,.128.289.39.39,0,0,0,.513,0,.313.313,0,0,0,.128-.289,1.436,1.436,0,0,0-.128-.642,1.465,1.465,0,0,0-.353-.513,1.834,1.834,0,0,0-.513-.353,1.436,1.436,0,0,0-.642-.128h-.1a1.529,1.529,0,0,0-.642.128,1.466,1.466,0,0,0-.513.353,2.907,2.907,0,0,0-.353.513,1.436,1.436,0,0,0-.128.642v1.732a1.436,1.436,0,0,0,.128.642,1.71,1.71,0,0,0,.866.866,1.436,1.436,0,0,0,.642.128h.1a1.436,1.436,0,0,0,.642-.128,1.466,1.466,0,0,0,.513-.353,1.833,1.833,0,0,0,.353-.513,1.436,1.436,0,0,0,.128-.642.372.372,0,0,0-.128-.321m-4.779.481a1.368,1.368,0,0,0-.192-.77,1.609,1.609,0,0,0-.481-.449,2.178,2.178,0,0,0-.642-.225c-.225-.064-.449-.1-.642-.16a3.735,3.735,0,0,1-.481-.192.457.457,0,0,1-.192-.385v-.032a.489.489,0,0,1,.225-.385,1.179,1.179,0,0,1,.642-.16h.032a1.278,1.278,0,0,1,.545.1,3.122,3.122,0,0,0,.353.16.815.815,0,0,0,.225.064.331.331,0,0,0,.353-.353.313.313,0,0,0-.128-.289,1.9,1.9,0,0,0-.192-.128,1.155,1.155,0,0,0-.289-.16,2.676,2.676,0,0,0-.385-.128,2.476,2.476,0,0,0-.481-.064h-.032a2.807,2.807,0,0,0-.513.064,1.633,1.633,0,0,0-.545.225,1.569,1.569,0,0,0-.417.385.914.914,0,0,0-.16.609,1.258,1.258,0,0,0,.192.738,1.421,1.421,0,0,0,.481.385,2.129,2.129,0,0,0,.642.192,3.754,3.754,0,0,1,.642.16,1.7,1.7,0,0,1,.481.257.563.563,0,0,1,.192.481v.032a.6.6,0,0,1-.257.449,1.157,1.157,0,0,1-.706.225h-.064a1.035,1.035,0,0,1-.577-.192,2.158,2.158,0,0,1-.481-.449.213.213,0,0,0-.16-.128.407.407,0,0,0-.192-.032.517.517,0,0,0-.289.1.313.313,0,0,0-.128.289,1.262,1.262,0,0,0,.064.192,2.034,2.034,0,0,0,.738.738,1.512,1.512,0,0,0,.481.192,2.807,2.807,0,0,0,.513.064h.064a2.223,2.223,0,0,0,.642-.1,3.151,3.151,0,0,0,.577-.257,1.875,1.875,0,0,0,.417-.449,1.228,1.228,0,0,0,.16-.609h-.032Zm-4.972.834a.4.4,0,0,0-.257-.128.676.676,0,0,1-.417-.16.458.458,0,0,1-.16-.417v-2.855h.545a.313.313,0,0,0,.289-.128.427.427,0,0,0,.1-.257.364.364,0,0,0-.1-.257.313.313,0,0,0-.289-.128h-.545v-1.764a.313.313,0,0,0-.128-.289.426.426,0,0,0-.257-.1.364.364,0,0,0-.257.1.313.313,0,0,0-.128.289v1.764h-.353a.313.313,0,0,0-.289.128.427.427,0,0,0-.1.257.364.364,0,0,0,.1.257.313.313,0,0,0,.289.128h.353v2.855a1.33,1.33,0,0,0,.1.513,1.418,1.418,0,0,0,.706.706,1.329,1.329,0,0,0,.513.1.313.313,0,0,0,.289-.128.427.427,0,0,0,.1-.257c-.032-.064-.032-.16-.1-.225m-3.913-3.977a.313.313,0,0,0-.128-.289.427.427,0,0,0-.257-.1.364.364,0,0,0-.257.1.313.313,0,0,0-.128.289v2.983a.876.876,0,0,1-.866.866h-.1a.876.876,0,0,1-.866-.866V273.1a.313.313,0,0,0-.128-.289.427.427,0,0,0-.257-.1.364.364,0,0,0-.257.1.313.313,0,0,0-.128.289v2.983a1.783,1.783,0,0,0,.128.738,1.833,1.833,0,0,0,.353.513,1.178,1.178,0,0,0,.513.289,2.013,2.013,0,0,0,.609.1h.1a2.183,2.183,0,0,0,.481-.064,1.109,1.109,0,0,0,.385-.225c.032.1.064.192.128.225a.6.6,0,0,0,.257.064.364.364,0,0,0,.257-.1.407.407,0,0,0,.128-.289V273.1Zm-5.742,1.764h-1.828v-.513a.821.821,0,0,1,.257-.609.876.876,0,0,1,.609-.257h.1a.8.8,0,0,1,.577.257.9.9,0,0,1,.257.642v.481Zm.77-.513a1.436,1.436,0,0,0-.128-.642,1.465,1.465,0,0,0-.353-.513,1.833,1.833,0,0,0-.513-.353,1.436,1.436,0,0,0-.642-.128h-.1a1.529,1.529,0,0,0-.642.128,1.465,1.465,0,0,0-.513.353,1.833,1.833,0,0,0-.353.513,1.436,1.436,0,0,0-.128.642v1.732a1.436,1.436,0,0,0,.128.642,1.71,1.71,0,0,0,.866.866,1.436,1.436,0,0,0,.642.128h.1a1.641,1.641,0,0,0,.9-.257,1.568,1.568,0,0,0,.577-.706.24.24,0,0,0,.032-.16.313.313,0,0,0-.128-.289.448.448,0,0,0-.289-.1.456.456,0,0,0-.192.064.294.294,0,0,0-.128.192,1,1,0,0,1-.289.353.788.788,0,0,1-.481.16h-.1a.876.876,0,0,1-.609-.257.821.821,0,0,1-.257-.609V275.6h2.213a.292.292,0,0,0,.257-.128.364.364,0,0,0,.1-.257v-.866Zm-5.9,1.379a1.025,1.025,0,0,1-.1.449.91.91,0,0,1-.257.353,1.425,1.425,0,0,1-.353.257,1.024,1.024,0,0,1-.449.1H245.87v-5.453h1.251a1.025,1.025,0,0,1,.449.1.91.91,0,0,1,.353.257,1.424,1.424,0,0,1,.257.353,1.024,1.024,0,0,1,.1.449Zm.77-3.143a1.9,1.9,0,0,0-.16-.738,1.594,1.594,0,0,0-.417-.609,2.055,2.055,0,0,0-.609-.417,1.9,1.9,0,0,0-.738-.16h-1.636a.292.292,0,0,0-.257.128c-.064.1-.128.16-.128.257v6.223a.292.292,0,0,0,.128.257.4.4,0,0,0,.257.128h1.636a1.9,1.9,0,0,0,.738-.16,1.593,1.593,0,0,0,.609-.417,2.055,2.055,0,0,0,.417-.609,1.9,1.9,0,0,0,.16-.738Z" transform="translate(-173.058 -261.747)"/></svg>