<svg xmlns="http://www.w3.org/2000/svg" width="262.377" height="68.211" viewBox="0 0 262.377 68.211"><defs><style>.a{fill:#d20a10;}</style></defs><g transform="translate(-1571 -944.878)"><path class="a" d="M40.76,307.7a7.285,7.285,0,0,0-.7.525l-.044.044-.131.131c-.044.044-.088.088-.131.088a1603.369,1603.369,0,0,0-.35.175.332.332,0,0,1-.175.088c-.044.044-.131.044-.175.087s-.131.044-.175.088-.131.044-.175.088-.131.044-.175.087-.131.044-.175.088-.131.044-.175.088-.131.044-.175.087a1099.561,1099.561,0,0,0-.35.088c-.044,0-.131.044-.175.044s-.131.044-.175.044-.131.044-.175.044-.131.044-.175.044-.131.044-.175.044a19.078,19.078,0,0,1-2.275.219h-.569a13.9,13.9,0,0,1-9.5-3.719,12.374,12.374,0,0,1-3.938-9.014V282.934a12.3,12.3,0,0,1,3.938-9.014,13.7,13.7,0,0,1,9.5-3.719h.744a14.583,14.583,0,0,1,2.013.131l.175.044a.263.263,0,0,1,.175.044c.044,0,.131.044.175.044s.131.044.175.044.131.044.175.044a1.9,1.9,0,0,0,.219.044.263.263,0,0,0,.175.044c.088.044.131.044.219.088s.131.044.219.087c.044.044.131.044.175.088s.131.044.175.088.131.044.175.087.131.044.175.088.131.044.175.088.131.044.175.087l.044.044.088.044.088.044.088.044.088.044.088.044.044.044.044.044.044.044.044.044.044.044.044.044.044.044.044.044.044.044.044.044.044.044.044.044a.541.541,0,0,0,.131.088c.044.044.044.044.088.044s.088.044.131.044h.263c.044,0,.088-.044.131-.044s.088-.044.131-.044c.044-.044.088-.044.088-.088.044-.044.044-.087.088-.087a.161.161,0,0,0,.044-.131c0-.044.044-.088.044-.131v-.131c0-.481,0-1.094.525-1.269a3.885,3.885,0,0,1,1.006-.044h4.77c.481,0,1.225-.131,1.444.481a8.539,8.539,0,0,1,.044,1.838v30.325c0,2.713.088,5.426-.175,8.1-.831,7.483-4.595,13.828-12.471,15.228A16.7,16.7,0,0,1,23.476,322.4c-.438-.394-1.4-1.006-1.357-1.619a1.1,1.1,0,0,1,.263-.613s3.063-3.238,3.282-3.544a1.3,1.3,0,0,1,.875-.569c.481,0,.963.438,1.882.963a13.9,13.9,0,0,0,4.813,1.925,7.583,7.583,0,0,0,3.282-.306c4.026-1.313,5.12-6.345,5.339-10.327v-.35a.043.043,0,0,0-.044-.044c0-.044,0-.044-.044-.044a.043.043,0,0,0-.044-.044l-.044-.044-.044-.044-.044-.044-.044-.044-.044-.044a141.925,141.925,0,0,1-.088-.087h-.438c-.044,0-.044,0-.044.044a.235.235,0,0,1-.175.131m.875-10.415V283.021a5.1,5.1,0,0,0-2.057-4.157,6.466,6.466,0,0,0-4.42-1.619h-.744a6.281,6.281,0,0,0-4.507,1.925,5.781,5.781,0,0,0-2.057,4.332v13.215a5.7,5.7,0,0,0,2.057,4.332,6.281,6.281,0,0,0,4.507,1.925h.744a6.682,6.682,0,0,0,4.42-1.619,5.248,5.248,0,0,0,2.057-4.07" transform="translate(1550.5 686.58)"/><path class="a" d="M173.506,309.62v-5.251a.906.906,0,0,0-.219-.656.949.949,0,0,0-.613-.219H158.321a1.094,1.094,0,0,1-.744-.175.627.627,0,0,1-.219-.481,1.265,1.265,0,0,1,.175-.613l15.753-29.712a2.135,2.135,0,0,0,.131-.306.855.855,0,0,0,.044-.306c0-.438-.35-.7-.963-.7H146.682c-.613,0-.875.263-.875.875v5.207c0,.613.263.875.875.875h13.478a1.034,1.034,0,0,1,.7.175.589.589,0,0,1,.219.525.854.854,0,0,1-.044.306,2.132,2.132,0,0,1-.131.306l-15.928,29.712a2.133,2.133,0,0,0-.131.306.854.854,0,0,0-.044.306c0,.438.35.7.963.7H172.63a.774.774,0,0,0,.875-.875" transform="translate(1480.592 686.018)"/><path class="a" d="M108.4,250.264a1.146,1.146,0,0,0,.263.656,1.07,1.07,0,0,0,.788.263h5.426a1.07,1.07,0,0,0,.788-.263.914.914,0,0,0,.263-.656V244.05a.928.928,0,0,0-1.05-1.05h-.438a1.167,1.167,0,0,0-.919.394l-4.551,5.076-.219.263a1.159,1.159,0,0,0-.35.831v.7" transform="translate(1501.064 701.878)"/><path class="a" d="M115.883,272.019a1.113,1.113,0,0,0-.219-.7.849.849,0,0,0-.7-.219h-5.645a.861.861,0,0,0-.7.263,1.075,1.075,0,0,0-.219.656v37.457a1.114,1.114,0,0,0,.219.7.849.849,0,0,0,.7.219h5.645a.861.861,0,0,0,.7-.263,1.075,1.075,0,0,0,.219-.656Z" transform="translate(1501.064 686.074)"/><path class="a" d="M408.351,338.688a.427.427,0,0,0-.175-.394.582.582,0,0,0-.35-.131.5.5,0,0,0-.35.131.427.427,0,0,0-.175.394v3.632h-3.282v-3.632a.427.427,0,0,0-.175-.394.582.582,0,0,0-.35-.131.5.5,0,0,0-.35.131.427.427,0,0,0-.175.394v8.62a.426.426,0,0,0,.175.394.582.582,0,0,0,.35.131.5.5,0,0,0,.35-.131.427.427,0,0,0,.175-.394V343.37H407.3v3.938a.426.426,0,0,0,.175.394.582.582,0,0,0,.35.131.5.5,0,0,0,.35-.131.426.426,0,0,0,.175-.394Zm-8.97,6.958a1.2,1.2,0,0,1-1.181,1.181h-.131a1.228,1.228,0,0,1-.831-.306,1.025,1.025,0,0,1-.35-.788v-2.538a1.1,1.1,0,0,1,.35-.788,1.382,1.382,0,0,1,.831-.306h.131a1.12,1.12,0,0,1,.831.35,1.2,1.2,0,0,1,.35.831Zm1.05-2.363a2.085,2.085,0,0,0-.175-.875,2,2,0,0,0-.481-.7,2.5,2.5,0,0,0-.7-.481,1.958,1.958,0,0,0-.875-.175h-.088a1.982,1.982,0,0,0-.7.131,1.116,1.116,0,0,0-.525.35v-2.8a.426.426,0,0,0-.175-.394.582.582,0,0,0-.35-.131.5.5,0,0,0-.35.131.426.426,0,0,0-.175.394V347.4c0,.175.044.306.175.35a.582.582,0,0,0,.35.131,1.029,1.029,0,0,0,.35-.087.443.443,0,0,0,.175-.306,1.913,1.913,0,0,0,.438.263,1.885,1.885,0,0,0,.744.131h.131a1.959,1.959,0,0,0,.875-.175,2,2,0,0,0,.7-.481,2.5,2.5,0,0,0,.481-.7,1.959,1.959,0,0,0,.175-.875Zm-7.133,0a2.432,2.432,0,0,0-.175-1.006,2,2,0,0,0-.481-.7,2.221,2.221,0,0,0-.7-.394,2.746,2.746,0,0,0-.831-.131h-.131a2.257,2.257,0,0,0-1.707.788,3.061,3.061,0,0,0-.744-.569,2.385,2.385,0,0,0-.963-.219h-.131a1.6,1.6,0,0,0-.656.131,1.513,1.513,0,0,0-.525.306.7.7,0,0,0-.175-.306.416.416,0,0,0-.306-.088.706.706,0,0,0-.394.131.427.427,0,0,0-.175.394V347.4a.426.426,0,0,0,.175.394.582.582,0,0,0,.35.131.5.5,0,0,0,.35-.131.427.427,0,0,0,.175-.394v-4.157a1.1,1.1,0,0,1,.35-.788,1.381,1.381,0,0,1,.831-.306h.131a1.121,1.121,0,0,1,.831.35,1.222,1.222,0,0,1,.35.875V347.4a.427.427,0,0,0,.175.394.582.582,0,0,0,.35.131.5.5,0,0,0,.35-.131.427.427,0,0,0,.175-.394V343.37a1.12,1.12,0,0,1,.35-.831,1.2,1.2,0,0,1,.831-.35h.131a1.089,1.089,0,0,1,.831.306,1.069,1.069,0,0,1,.306.875v4.07a.427.427,0,0,0,.175.394.582.582,0,0,0,.35.131.5.5,0,0,0,.35-.131.427.427,0,0,0,.175-.394Zm-10.633-.175a.4.4,0,0,0-.175-.35.54.54,0,0,0-.35-.175h-1.969a.427.427,0,0,0-.394.175.582.582,0,0,0-.131.35.5.5,0,0,0,.131.35.427.427,0,0,0,.394.175h1.444v1.619a1.4,1.4,0,0,1-.131.613,1.242,1.242,0,0,1-.35.481,1.942,1.942,0,0,1-.481.35,1.4,1.4,0,0,1-.613.131h-.131a1.4,1.4,0,0,1-.613-.131,1.241,1.241,0,0,1-.481-.35,1.943,1.943,0,0,1-.35-.481,1.4,1.4,0,0,1-.131-.613v-4.463a1.545,1.545,0,0,1,.131-.613,1.242,1.242,0,0,1,.35-.481,1.943,1.943,0,0,1,.481-.35,1.4,1.4,0,0,1,.613-.131h.131a1.42,1.42,0,0,1,1.05.394,1.891,1.891,0,0,1,.525.963.659.659,0,0,0,.175.35.471.471,0,0,0,.35.088.5.5,0,0,0,.35-.131.427.427,0,0,0,.175-.394v-.087a2.1,2.1,0,0,0-.306-.875,2.225,2.225,0,0,0-.569-.7,2.381,2.381,0,0,0-.788-.481,2.355,2.355,0,0,0-.963-.175h-.131a2.6,2.6,0,0,0-1.006.219,2.174,2.174,0,0,0-.831.569,2.8,2.8,0,0,0-.569.831,2.6,2.6,0,0,0-.219,1.006v4.463a2.6,2.6,0,0,0,.219,1.006,2.174,2.174,0,0,0,.569.831,2.805,2.805,0,0,0,.831.569,2.6,2.6,0,0,0,1.006.219h.131a2,2,0,0,0,1.007-.219,2.175,2.175,0,0,0,.831-.569,2.8,2.8,0,0,0,.569-.831,2.6,2.6,0,0,0,.219-1.006Zm-10.9-1.619a10.311,10.311,0,0,0-.438-1.663,6.869,6.869,0,0,0-.656-1.4,4.194,4.194,0,0,0-.831-1.05.452.452,0,0,0-.35-.175.582.582,0,0,0-.35.131.452.452,0,0,0-.175.35.582.582,0,0,0,.131.35,5.1,5.1,0,0,1,.7.875,6.4,6.4,0,0,1,.569,1.225,6.684,6.684,0,0,1,.394,1.488,10.6,10.6,0,0,1,0,3.326,8.257,8.257,0,0,1-.394,1.488,7.95,7.95,0,0,1-.569,1.225,3.616,3.616,0,0,1-.7.875.5.5,0,0,0-.131.35.4.4,0,0,0,.175.35.535.535,0,0,0,.394.175.452.452,0,0,0,.35-.175,5.179,5.179,0,0,0,.831-1.05,6.87,6.87,0,0,0,.656-1.4,9.231,9.231,0,0,0,.438-1.663,8.715,8.715,0,0,0,.175-1.838c-.087-.613-.131-1.181-.219-1.794M367,346.914a.426.426,0,0,0-.394-.175h-3.457l3.895-7.526a1.031,1.031,0,0,0,.087-.35.6.6,0,0,0-.613-.613H362.58a.427.427,0,0,0-.394.175.582.582,0,0,0-.131.35.5.5,0,0,0,.131.35.427.427,0,0,0,.394.175h3.282l-3.895,7.483a.824.824,0,0,0-.087.35.658.658,0,0,0,.175.481.538.538,0,0,0,.438.219h4.157a.427.427,0,0,0,.394-.175.582.582,0,0,0,.131-.35.824.824,0,0,0-.175-.394m-7.614-8.227a.427.427,0,0,0-.175-.394.582.582,0,0,0-.35-.131.5.5,0,0,0-.35.131.427.427,0,0,0-.175.394v8.62a.426.426,0,0,0,.175.394.582.582,0,0,0,.35.131.5.5,0,0,0,.35-.131.427.427,0,0,0,.175-.394Zm-3.851,4.42a.4.4,0,0,0-.175-.35.54.54,0,0,0-.35-.175H353.04a.427.427,0,0,0-.394.175.582.582,0,0,0-.131.35.5.5,0,0,0,.131.35.427.427,0,0,0,.394.175h1.444v1.619a1.4,1.4,0,0,1-.131.613,1.241,1.241,0,0,1-.35.481,1.943,1.943,0,0,1-.481.35,1.4,1.4,0,0,1-.613.131h-.131a1.4,1.4,0,0,1-.613-.131,1.241,1.241,0,0,1-.481-.35,1.942,1.942,0,0,1-.35-.481,1.4,1.4,0,0,1-.131-.613v-4.463a1.545,1.545,0,0,1,.131-.613,1.242,1.242,0,0,1,.35-.481,1.942,1.942,0,0,1,.481-.35,1.4,1.4,0,0,1,.613-.131h.131a1.419,1.419,0,0,1,1.05.394,1.565,1.565,0,0,1,.481.963.659.659,0,0,0,.175.35.472.472,0,0,0,.35.088.5.5,0,0,0,.35-.131.427.427,0,0,0,.175-.394v-.087a2.1,2.1,0,0,0-.306-.875,2.225,2.225,0,0,0-.569-.7,2.381,2.381,0,0,0-.788-.481,2.355,2.355,0,0,0-.963-.175h-.131a2.6,2.6,0,0,0-1.006.219,2.174,2.174,0,0,0-.831.569,2.8,2.8,0,0,0-.569.831,2.6,2.6,0,0,0-.219,1.006v4.463a2.6,2.6,0,0,0,.219,1.006,2.175,2.175,0,0,0,.569.831,2.8,2.8,0,0,0,.831.569,2.6,2.6,0,0,0,1.006.219h.131a2,2,0,0,0,1.006-.219,2.174,2.174,0,0,0,.831-.569,2.8,2.8,0,0,0,.569-.831,2.6,2.6,0,0,0,.219-1.006v-2.144Zm-7.833,4.551a4.534,4.534,0,0,1-.569-1.225,6.681,6.681,0,0,1-.394-1.488,10.6,10.6,0,0,1,0-3.326,8.258,8.258,0,0,1,.394-1.488,7.952,7.952,0,0,1,.569-1.225,5.055,5.055,0,0,1,.656-.875.5.5,0,0,0,.131-.35.4.4,0,0,0-.175-.35.7.7,0,0,0-.35-.131.4.4,0,0,0-.35.175,4.711,4.711,0,0,0-.788,1.05,6.865,6.865,0,0,0-.656,1.4,9.794,9.794,0,0,0-.438,1.619,8.055,8.055,0,0,0-.175,1.794,8.719,8.719,0,0,0,.175,1.838,15.253,15.253,0,0,0,.438,1.663,6.866,6.866,0,0,0,.656,1.4,6.76,6.76,0,0,0,.831,1.05.452.452,0,0,0,.35.175.619.619,0,0,0,.525-.525.452.452,0,0,0-.175-.35,3.44,3.44,0,0,1-.656-.831M339.913,347a.54.54,0,0,0-.35-.175.921.921,0,0,1-.569-.219.65.65,0,0,1-.263-.569v-3.895h.744a.427.427,0,0,0,.394-.175.582.582,0,0,0,.131-.35.5.5,0,0,0-.131-.35.426.426,0,0,0-.394-.175h-.744v-2.407a.427.427,0,0,0-.175-.394.582.582,0,0,0-.35-.131.5.5,0,0,0-.35.131.427.427,0,0,0-.175.394v2.407H337.2a.427.427,0,0,0-.394.175.582.582,0,0,0-.131.35.5.5,0,0,0,.131.35.427.427,0,0,0,.394.175h.481v3.895a1.814,1.814,0,0,0,.131.7,1.933,1.933,0,0,0,.963.963,1.814,1.814,0,0,0,.7.131.427.427,0,0,0,.394-.175.5.5,0,0,0,.131-.35.29.29,0,0,0-.088-.306m-5.426-5.426a.427.427,0,0,0-.175-.394.582.582,0,0,0-.35-.131.5.5,0,0,0-.35.131.427.427,0,0,0-.175.394v5.776a.427.427,0,0,0,.175.394.582.582,0,0,0,.35.131.5.5,0,0,0,.35-.131.427.427,0,0,0,.175-.394Zm0-2.888a.427.427,0,0,0-.175-.394.582.582,0,0,0-.35-.131.5.5,0,0,0-.35.131.427.427,0,0,0-.175.394v.306a.427.427,0,0,0,.175.394.582.582,0,0,0,.35.131.5.5,0,0,0,.35-.131.427.427,0,0,0,.175-.394Zm-4.42,5.295h-2.494v-.7a1.12,1.12,0,0,1,.35-.831,1.2,1.2,0,0,1,.831-.35h.131a1.1,1.1,0,0,1,.788.35,1.222,1.222,0,0,1,.35.875v.656Zm1.006-.7a1.959,1.959,0,0,0-.175-.875,2,2,0,0,0-.481-.7,2.5,2.5,0,0,0-.7-.481,1.959,1.959,0,0,0-.875-.175h-.131a2.085,2.085,0,0,0-.875.175,2,2,0,0,0-.7.481,2.5,2.5,0,0,0-.481.7,1.959,1.959,0,0,0-.175.875v2.363a1.959,1.959,0,0,0,.175.875,2.333,2.333,0,0,0,1.181,1.181,1.959,1.959,0,0,0,.875.175h.131a2.239,2.239,0,0,0,1.225-.35,2.4,2.4,0,0,0,.788-.963.328.328,0,0,0,.044-.219.427.427,0,0,0-.175-.394.611.611,0,0,0-.394-.131.621.621,0,0,0-.263.088.4.4,0,0,0-.175.263,1.368,1.368,0,0,1-.394.481,1.075,1.075,0,0,1-.656.219h-.131a1.2,1.2,0,0,1-.831-.35,1.12,1.12,0,0,1-.35-.831v-.7h3.019a.535.535,0,0,0,.394-.175.5.5,0,0,0,.131-.35Zm-7.877,2.363a1.2,1.2,0,0,1-1.182,1.181h-.131a1.227,1.227,0,0,1-.831-.306,1.025,1.025,0,0,1-.35-.788v-2.538a1.1,1.1,0,0,1,.35-.788,1.381,1.381,0,0,1,.831-.306h.131a1.12,1.12,0,0,1,.831.35,1.2,1.2,0,0,1,.35.831Zm1.05-2.363a2.086,2.086,0,0,0-.175-.875,2,2,0,0,0-.481-.7,2.5,2.5,0,0,0-.7-.481,1.959,1.959,0,0,0-.875-.175h-.088a1.981,1.981,0,0,0-.7.131,1.116,1.116,0,0,0-.525.35v-2.8a.426.426,0,0,0-.175-.394.582.582,0,0,0-.35-.131.5.5,0,0,0-.35.131.426.426,0,0,0-.175.394V347.4c0,.175.044.306.175.35a.582.582,0,0,0,.35.131,1.029,1.029,0,0,0,.35-.087.443.443,0,0,0,.175-.306,1.915,1.915,0,0,0,.438.263,1.885,1.885,0,0,0,.744.131h.131a2.086,2.086,0,0,0,.875-.175,2,2,0,0,0,.7-.481,2.5,2.5,0,0,0,.481-.7,1.959,1.959,0,0,0,.175-.875v-2.363Zm-6.826-1.532a1.937,1.937,0,0,0-.656-.525,1.716,1.716,0,0,0-.788-.175,1.221,1.221,0,0,0-.438.044,2.793,2.793,0,0,0-.306.088.2.2,0,0,1-.394-.088.556.556,0,0,0-.263-.044.5.5,0,0,0-.35.131.427.427,0,0,0-.175.394v5.732a.426.426,0,0,0,.175.394.582.582,0,0,0,.35.131.5.5,0,0,0,.35-.131.426.426,0,0,0,.175-.394V343.02a.962.962,0,0,1,.044-.35.4.4,0,0,1,.131-.306.643.643,0,0,1,.263-.219,1.573,1.573,0,0,1,.481-.087.874.874,0,0,1,.394.087c.088.088.175.131.219.175a.562.562,0,0,0,.438.175.452.452,0,0,0,.481-.481.676.676,0,0,0-.131-.263m-7.308,3.895a1.12,1.12,0,0,1-.35.831,1.2,1.2,0,0,1-.831.35H308.8a1.262,1.262,0,0,1-.831-.263.816.816,0,0,1-.306-.7v-.131a.706.706,0,0,1,.263-.569,2,2,0,0,1,.613-.306,5.08,5.08,0,0,1,.788-.175,4.651,4.651,0,0,0,.831-.175v1.138ZM311.82,347a.455.455,0,0,0-.35-.175.426.426,0,0,1-.35-.438v-3.194a1.775,1.775,0,0,0-.175-.831,2.452,2.452,0,0,0-.438-.656,1.906,1.906,0,0,0-.7-.438,1.959,1.959,0,0,0-.875-.175h-.088c-.175,0-.394.044-.569.044a3.039,3.039,0,0,0-.569.219,2.058,2.058,0,0,0-.525.394,1.834,1.834,0,0,0-.394.613c-.044.044-.044.131-.044.263a.4.4,0,0,0,.175.35.582.582,0,0,0,.35.131c.088,0,.175-.044.263-.044.088-.044.131-.131.219-.219a1.752,1.752,0,0,1,.438-.525,1.055,1.055,0,0,1,.656-.175h.088a1.222,1.222,0,0,1,.788.263,1.027,1.027,0,0,1,.35.875v.131a.161.161,0,0,1-.044.131c-.044.088-.175.131-.394.175s-.438.087-.7.131a7.115,7.115,0,0,0-.831.175,3.289,3.289,0,0,0-.788.306,2.5,2.5,0,0,0-.613.569,1.377,1.377,0,0,0-.219.875v.175a1.666,1.666,0,0,0,.175.831,1.782,1.782,0,0,0,.525.613,2.219,2.219,0,0,0,.7.394,2.548,2.548,0,0,0,.831.131h.131a2.208,2.208,0,0,0,1.488-.525,2.639,2.639,0,0,0,.35.35.807.807,0,0,0,.569.175h.088a.427.427,0,0,0,.394-.175.5.5,0,0,0,.131-.35.326.326,0,0,0-.044-.394m-7.4-3.719a2.106,2.106,0,0,0-.175-.963,2,2,0,0,0-.481-.7,2.22,2.22,0,0,0-.7-.394,2.747,2.747,0,0,0-.831-.131h-.131a1.6,1.6,0,0,0-.656.131,1.513,1.513,0,0,0-.525.306.706.706,0,0,0-.175-.306.471.471,0,0,0-.35-.088.706.706,0,0,0-.394.131.427.427,0,0,0-.175.394v5.776a.427.427,0,0,0,.175.394.582.582,0,0,0,.35.131.5.5,0,0,0,.35-.131.427.427,0,0,0,.175-.394v-4.07a1.12,1.12,0,0,1,.35-.831,1.2,1.2,0,0,1,.831-.35h.131a1.12,1.12,0,0,1,.831.35,1.2,1.2,0,0,1,.35.831v4.07a.427.427,0,0,0,.175.394.582.582,0,0,0,.35.131.5.5,0,0,0,.35-.131.555.555,0,0,0,.175-.394v-4.157Zm-7.877.7h-2.494v-.7a1.12,1.12,0,0,1,.35-.831,1.2,1.2,0,0,1,.831-.35h.131a1.1,1.1,0,0,1,.788.35,1.222,1.222,0,0,1,.35.875v.656Zm1.006-.7a1.96,1.96,0,0,0-.175-.875,2,2,0,0,0-.481-.7,2.5,2.5,0,0,0-.7-.481,1.958,1.958,0,0,0-.875-.175h-.131a1.959,1.959,0,0,0-.875.175,2,2,0,0,0-.7.481,2.5,2.5,0,0,0-.481.7,1.959,1.959,0,0,0-.175.875v2.363a1.959,1.959,0,0,0,.175.875,2.333,2.333,0,0,0,1.181,1.181,1.959,1.959,0,0,0,.875.175h.131a2.239,2.239,0,0,0,1.225-.35,2.4,2.4,0,0,0,.788-.963.328.328,0,0,0,.044-.219.427.427,0,0,0-.175-.394.582.582,0,0,0-.35-.131.621.621,0,0,0-.263.088.4.4,0,0,0-.175.263,1.368,1.368,0,0,1-.394.481,1.075,1.075,0,0,1-.656.219h-.131a1.2,1.2,0,0,1-.831-.35,1.12,1.12,0,0,1-.35-.831v-.7h3.019a.535.535,0,0,0,.394-.175.5.5,0,0,0,.131-.35v-1.181Zm-6.87,0a2.432,2.432,0,0,0-.175-1.006,2.822,2.822,0,0,0-.481-.7,2.219,2.219,0,0,0-.7-.394,2.547,2.547,0,0,0-.831-.131h-.131a2.257,2.257,0,0,0-1.707.788,3.058,3.058,0,0,0-.744-.569,2.384,2.384,0,0,0-.963-.219h-.131a1.6,1.6,0,0,0-.656.131,1.512,1.512,0,0,0-.525.306.706.706,0,0,0-.175-.306.417.417,0,0,0-.306-.088.706.706,0,0,0-.394.131.426.426,0,0,0-.175.394V347.4a.426.426,0,0,0,.175.394.582.582,0,0,0,.35.131.5.5,0,0,0,.35-.131.426.426,0,0,0,.175-.394v-4.157a1.1,1.1,0,0,1,.35-.788,1.381,1.381,0,0,1,.831-.306h.131a1.121,1.121,0,0,1,.831.35,1.222,1.222,0,0,1,.35.875V347.4a.427.427,0,0,0,.175.394.582.582,0,0,0,.35.131.5.5,0,0,0,.35-.131.427.427,0,0,0,.175-.394V343.37a1.12,1.12,0,0,1,.35-.831,1.2,1.2,0,0,1,.831-.35h.131a1.089,1.089,0,0,1,.831.306,1.069,1.069,0,0,1,.306.875v4.07a.427.427,0,0,0,.175.394.582.582,0,0,0,.35.131.5.5,0,0,0,.35-.131.427.427,0,0,0,.175-.394v-4.157Zm-10.546,0a2.432,2.432,0,0,0-.175-1.006,2,2,0,0,0-.481-.7,2.219,2.219,0,0,0-.7-.394,2.547,2.547,0,0,0-.831-.131h-.131a2.257,2.257,0,0,0-1.707.788,3.06,3.06,0,0,0-.744-.569,2.385,2.385,0,0,0-.963-.219h-.131a1.6,1.6,0,0,0-.656.131,1.513,1.513,0,0,0-.525.306.705.705,0,0,0-.175-.306.416.416,0,0,0-.306-.088.706.706,0,0,0-.394.131.426.426,0,0,0-.175.394V347.4a.426.426,0,0,0,.175.394.582.582,0,0,0,.35.131.5.5,0,0,0,.35-.131.427.427,0,0,0,.175-.394v-4.157a1.1,1.1,0,0,1,.35-.788,1.381,1.381,0,0,1,.831-.306h.131a1.12,1.12,0,0,1,.831.35,1.222,1.222,0,0,1,.35.875V347.4a.427.427,0,0,0,.175.394.582.582,0,0,0,.35.131.5.5,0,0,0,.35-.131.427.427,0,0,0,.175-.394V343.37a1.12,1.12,0,0,1,.35-.831,1.2,1.2,0,0,1,.831-.35h.131a1.089,1.089,0,0,1,.831.306,1.069,1.069,0,0,1,.306.875v4.07a.427.427,0,0,0,.175.394.582.582,0,0,0,.35.131.5.5,0,0,0,.35-.131.427.427,0,0,0,.175-.394v-4.157Zm-12.077,2.363a1.12,1.12,0,0,1-.35.831,1.2,1.2,0,0,1-.831.35h-.131a1.262,1.262,0,0,1-.831-.263.816.816,0,0,1-.306-.7v-.131a.706.706,0,0,1,.263-.569,2,2,0,0,1,.613-.306,5.08,5.08,0,0,1,.788-.175,4.65,4.65,0,0,0,.831-.175v1.138Zm1.75,1.357a.455.455,0,0,0-.35-.175.426.426,0,0,1-.35-.438v-3.194a1.775,1.775,0,0,0-.175-.831,2.451,2.451,0,0,0-.438-.656,1.905,1.905,0,0,0-.7-.438,1.959,1.959,0,0,0-.875-.175h-.088c-.175,0-.394.044-.569.044a3.04,3.04,0,0,0-.569.219,2.057,2.057,0,0,0-.525.394,1.835,1.835,0,0,0-.394.613c-.044.044-.044.131-.044.263a.4.4,0,0,0,.175.35.582.582,0,0,0,.35.131c.088,0,.175-.044.263-.044.088-.044.131-.131.219-.219a1.752,1.752,0,0,1,.438-.525,1.055,1.055,0,0,1,.656-.175h.088a1.222,1.222,0,0,1,.788.263,1.027,1.027,0,0,1,.35.875v.131a.161.161,0,0,1-.044.131c-.044.088-.175.131-.394.175s-.438.087-.7.131a7.113,7.113,0,0,0-.831.175,3.289,3.289,0,0,0-.788.306,2.5,2.5,0,0,0-.613.569,1.377,1.377,0,0,0-.219.875v.175a1.666,1.666,0,0,0,.175.831,1.781,1.781,0,0,0,.525.613,2.219,2.219,0,0,0,.7.394,2.548,2.548,0,0,0,.831.131h.131a2.208,2.208,0,0,0,1.488-.525,2.64,2.64,0,0,0,.35.35.807.807,0,0,0,.569.175h.088a.427.427,0,0,0,.394-.175.5.5,0,0,0,.131-.35.585.585,0,0,0-.044-.394m-7.264-1.138a1.866,1.866,0,0,0-.263-1.05,2.195,2.195,0,0,0-.656-.613,2.971,2.971,0,0,0-.875-.306c-.306-.088-.613-.131-.875-.219a5.093,5.093,0,0,1-.656-.263.624.624,0,0,1-.263-.525v-.044a.667.667,0,0,1,.306-.525,1.609,1.609,0,0,1,.875-.219h.044a1.743,1.743,0,0,1,.744.131,4.774,4.774,0,0,1,.481.263,1.114,1.114,0,0,0,.306.087.452.452,0,0,0,.481-.481.426.426,0,0,0-.175-.394c-.044-.044-.131-.088-.219-.175a.824.824,0,0,0-.394-.175,3.655,3.655,0,0,0-.525-.175,3.378,3.378,0,0,0-.656-.088h-.044a4.872,4.872,0,0,0-.744.088,2.229,2.229,0,0,0-.744.306,2.143,2.143,0,0,0-.569.525,1.248,1.248,0,0,0-.219.831,1.715,1.715,0,0,0,.263,1.006,1.937,1.937,0,0,0,.656.525,2.567,2.567,0,0,0,.875.263,5.117,5.117,0,0,1,.875.219,1.578,1.578,0,0,1,.656.35.768.768,0,0,1,.263.656v.044a.82.82,0,0,1-.35.613,1.578,1.578,0,0,1-.963.306H260.1a1.412,1.412,0,0,1-.788-.263,2.945,2.945,0,0,1-.656-.613.437.437,0,0,0-.219-.175.555.555,0,0,0-.263-.044.706.706,0,0,0-.394.131.427.427,0,0,0-.175.394,1.719,1.719,0,0,0,.087.263,2.775,2.775,0,0,0,1.006,1.006,2.062,2.062,0,0,0,.656.263,3.83,3.83,0,0,0,.7.088h.088a3.032,3.032,0,0,0,.875-.131,4.294,4.294,0,0,0,.788-.35,2.558,2.558,0,0,0,.569-.613,1.676,1.676,0,0,0,.219-.831v-.088Zm-7.089-4.288a.426.426,0,0,0-.175-.394.582.582,0,0,0-.35-.131.5.5,0,0,0-.35.131.427.427,0,0,0-.175.394v4.07a1.2,1.2,0,0,1-1.181,1.181H253.1a1.2,1.2,0,0,1-.831-.35,1.12,1.12,0,0,1-.35-.831v-4.07a.426.426,0,0,0-.175-.394.582.582,0,0,0-.35-.131.5.5,0,0,0-.35.131.427.427,0,0,0-.175.394v4.07a2.432,2.432,0,0,0,.175,1.006,2.5,2.5,0,0,0,.481.7,2.219,2.219,0,0,0,.7.394,2.747,2.747,0,0,0,.831.131h.131a2.977,2.977,0,0,0,.656-.088,1.514,1.514,0,0,0,.525-.306.706.706,0,0,0,.175.306.824.824,0,0,0,.35.088.5.5,0,0,0,.35-.131.427.427,0,0,0,.175-.394v-5.776Zm-6.739,5.339a.427.427,0,0,0-.394-.175h-3.457l3.895-7.526a1.03,1.03,0,0,0,.088-.35.6.6,0,0,0-.613-.613H244.3a.426.426,0,0,0-.394.175.582.582,0,0,0-.131.35.5.5,0,0,0,.131.35.426.426,0,0,0,.394.175h3.282l-3.895,7.483a.824.824,0,0,0-.088.35.658.658,0,0,0,.175.481.538.538,0,0,0,.438.219h4.157a.427.427,0,0,0,.394-.175.582.582,0,0,0,.131-.35.825.825,0,0,0-.175-.394" transform="translate(1425.026 648.899)"/><path class="a" d="M345.176,310.82h-2.494v-.7a1.12,1.12,0,0,1,.35-.831,1.2,1.2,0,0,1,.831-.35h.131a1.1,1.1,0,0,1,.788.35,1.2,1.2,0,0,1,.35.831v.7Zm1.05-.7a1.959,1.959,0,0,0-.175-.875,2,2,0,0,0-.481-.7,2.5,2.5,0,0,0-.7-.481,1.959,1.959,0,0,0-.875-.175h-.131a1.959,1.959,0,0,0-.875.175,2,2,0,0,0-.7.481,2.5,2.5,0,0,0-.481.7,1.959,1.959,0,0,0-.175.875v2.363a1.959,1.959,0,0,0,.175.875,2.333,2.333,0,0,0,1.181,1.182,1.96,1.96,0,0,0,.875.175h.131a2.239,2.239,0,0,0,1.225-.35,2.4,2.4,0,0,0,.788-.963.328.328,0,0,0,.044-.219.426.426,0,0,0-.175-.394.611.611,0,0,0-.394-.131.622.622,0,0,0-.263.088.4.4,0,0,0-.175.263,1.368,1.368,0,0,1-.394.481,1.075,1.075,0,0,1-.656.219h-.131a1.2,1.2,0,0,1-.831-.35,1.121,1.121,0,0,1-.35-.831v-.7H345.7a.535.535,0,0,0,.394-.175.5.5,0,0,0,.131-.35Zm-6.608,3.676a.427.427,0,0,0-.394-.175.747.747,0,0,1-.744-.744v-7.351a.427.427,0,0,0-.175-.394.582.582,0,0,0-.35-.131.5.5,0,0,0-.35.131.427.427,0,0,0-.175.394v7.351a1.814,1.814,0,0,0,.131.7,1.933,1.933,0,0,0,.963.963,1.814,1.814,0,0,0,.7.131.427.427,0,0,0,.394-.175.5.5,0,0,0,.131-.35.7.7,0,0,0-.131-.35m-6.126-1.313a1.121,1.121,0,0,1-.35.831,1.2,1.2,0,0,1-.831.35h-.131a1.262,1.262,0,0,1-.831-.263.816.816,0,0,1-.306-.7v-.131a.832.832,0,0,1,.219-.569,2,2,0,0,1,.613-.306,5.089,5.089,0,0,1,.788-.175,4.653,4.653,0,0,0,.831-.175Zm1.75,1.357a.455.455,0,0,0-.35-.175.426.426,0,0,1-.35-.438v-3.194a1.776,1.776,0,0,0-.175-.831,2.454,2.454,0,0,0-.438-.656,1.906,1.906,0,0,0-.7-.438,1.959,1.959,0,0,0-.875-.175h-.088c-.175,0-.394.044-.569.044a3.043,3.043,0,0,0-.569.219,2.057,2.057,0,0,0-.525.394,1.835,1.835,0,0,0-.394.613c-.044.044-.044.131-.044.263a.4.4,0,0,0,.175.35.582.582,0,0,0,.35.131.556.556,0,0,0,.263-.044c.088-.044.131-.131.219-.219a1.751,1.751,0,0,1,.438-.525,1.055,1.055,0,0,1,.656-.175h.088a1.222,1.222,0,0,1,.788.263,1.027,1.027,0,0,1,.35.875v.131a.161.161,0,0,1-.044.131c-.044.088-.175.131-.394.175s-.438.088-.7.131a7.112,7.112,0,0,0-.831.175,4.215,4.215,0,0,0-.788.306,2.5,2.5,0,0,0-.613.569,1.377,1.377,0,0,0-.219.875v.175a1.959,1.959,0,0,0,.175.875,2.3,2.3,0,0,0,.481.613,2.219,2.219,0,0,0,.7.394,2.549,2.549,0,0,0,.831.131h.131a2.29,2.29,0,0,0,1.488-.525,2.636,2.636,0,0,0,.35.35,1.094,1.094,0,0,0,.569.175h.087a.426.426,0,0,0,.394-.175,1.137,1.137,0,0,0,.131-.788M327.8,310.12a2.106,2.106,0,0,0-.175-.963,2,2,0,0,0-.481-.7,2.219,2.219,0,0,0-.7-.394,2.547,2.547,0,0,0-.831-.131h-.131a1.6,1.6,0,0,0-.656.131,1.512,1.512,0,0,0-.525.306.706.706,0,0,0-.175-.306.472.472,0,0,0-.35-.088.706.706,0,0,0-.394.131.426.426,0,0,0-.175.394v5.689a.427.427,0,0,0,.175.394.582.582,0,0,0,.35.131.5.5,0,0,0,.35-.131.427.427,0,0,0,.175-.394v-4.07a1.12,1.12,0,0,1,.35-.831,1.2,1.2,0,0,1,.831-.35h.131a1.2,1.2,0,0,1,1.181,1.181v4.07a.427.427,0,0,0,.175.394.582.582,0,0,0,.35.131.5.5,0,0,0,.35-.131.555.555,0,0,0,.175-.394v-4.07Zm-8.008,2.363a1.2,1.2,0,0,1-1.182,1.181h-.131a1.2,1.2,0,0,1-1.181-1.181V310.12a1.2,1.2,0,0,1,1.181-1.181h.131a1.2,1.2,0,0,1,.831.35,1.121,1.121,0,0,1,.35.831Zm1.05-2.363a2.086,2.086,0,0,0-.175-.875,2,2,0,0,0-.481-.7,2.5,2.5,0,0,0-.7-.481,1.959,1.959,0,0,0-.875-.175h-.131a1.959,1.959,0,0,0-.875.175,2,2,0,0,0-.7.481,2.5,2.5,0,0,0-.481.7,1.959,1.959,0,0,0-.175.875v2.363a1.959,1.959,0,0,0,.175.875,2.333,2.333,0,0,0,1.181,1.182,1.96,1.96,0,0,0,.875.175h.131a2.087,2.087,0,0,0,.875-.175,2,2,0,0,0,.7-.481,2.5,2.5,0,0,0,.481-.7,1.959,1.959,0,0,0,.175-.875Zm-7.045-1.707a.427.427,0,0,0-.175-.394.582.582,0,0,0-.35-.131.5.5,0,0,0-.35.131.426.426,0,0,0-.175.394v5.776a.427.427,0,0,0,.175.394.582.582,0,0,0,.35.131.5.5,0,0,0,.35-.131.427.427,0,0,0,.175-.394Zm0-2.888a.427.427,0,0,0-.175-.394.582.582,0,0,0-.35-.131.5.5,0,0,0-.35.131.427.427,0,0,0-.175.394v.306a.427.427,0,0,0,.175.394.582.582,0,0,0,.35.131.5.5,0,0,0,.35-.131.427.427,0,0,0,.175-.394Zm-3.369,8.314a.54.54,0,0,0-.35-.175.922.922,0,0,1-.569-.219.625.625,0,0,1-.219-.569v-3.895h.744a.426.426,0,0,0,.394-.175.582.582,0,0,0,.131-.35.5.5,0,0,0-.131-.35.427.427,0,0,0-.394-.175h-.744v-2.407a.426.426,0,0,0-.175-.394.582.582,0,0,0-.35-.131.5.5,0,0,0-.35.131.426.426,0,0,0-.175.394v2.407h-.525a.427.427,0,0,0-.394.175.582.582,0,0,0-.131.35.5.5,0,0,0,.131.35.427.427,0,0,0,.394.175h.481v3.895a1.815,1.815,0,0,0,.131.7,1.934,1.934,0,0,0,.963.963,1.815,1.815,0,0,0,.7.131.427.427,0,0,0,.394-.175.5.5,0,0,0,.131-.35.811.811,0,0,0-.087-.306M304,312.483a1.12,1.12,0,0,1-.35.831,1.2,1.2,0,0,1-.831.35h-.131a1.262,1.262,0,0,1-.831-.263.816.816,0,0,1-.306-.7v-.131a.832.832,0,0,1,.219-.569,2,2,0,0,1,.613-.306,5.088,5.088,0,0,1,.788-.175,4.651,4.651,0,0,0,.831-.175Zm1.75,1.357a.455.455,0,0,0-.35-.175.426.426,0,0,1-.35-.438v-3.194a1.776,1.776,0,0,0-.175-.831,2.454,2.454,0,0,0-.438-.656,1.907,1.907,0,0,0-.7-.438,1.959,1.959,0,0,0-.875-.175h-.088c-.175,0-.35.044-.569.044a3.041,3.041,0,0,0-.569.219,2.058,2.058,0,0,0-.525.394,1.836,1.836,0,0,0-.394.613c-.044.044-.044.131-.044.263a.4.4,0,0,0,.175.35.582.582,0,0,0,.35.131.556.556,0,0,0,.263-.044c.088-.044.131-.131.219-.219a1.749,1.749,0,0,1,.438-.525,1.055,1.055,0,0,1,.656-.175h.088a1.222,1.222,0,0,1,.788.263,1.027,1.027,0,0,1,.35.875v.131a.161.161,0,0,1-.044.131c-.044.088-.175.131-.394.175s-.438.088-.7.131a7.109,7.109,0,0,0-.831.175,4.217,4.217,0,0,0-.788.306,2.5,2.5,0,0,0-.613.569,1.376,1.376,0,0,0-.219.875v.175a1.959,1.959,0,0,0,.175.875,2.3,2.3,0,0,0,.481.613,2.22,2.22,0,0,0,.7.394,2.549,2.549,0,0,0,.831.131h.131a2.208,2.208,0,0,0,1.488-.525,2.632,2.632,0,0,0,.35.35,1.094,1.094,0,0,0,.569.175h.088a.427.427,0,0,0,.394-.175,1.137,1.137,0,0,0,.131-.788m-7.439-3.719a2.106,2.106,0,0,0-.175-.963,2,2,0,0,0-.481-.7,2.219,2.219,0,0,0-.7-.394,2.748,2.748,0,0,0-.831-.131h-.131a1.6,1.6,0,0,0-.656.131,1.511,1.511,0,0,0-.525.306.705.705,0,0,0-.175-.306.471.471,0,0,0-.35-.088.706.706,0,0,0-.394.131.426.426,0,0,0-.175.394v5.689a.427.427,0,0,0,.175.394.582.582,0,0,0,.35.131.5.5,0,0,0,.35-.131.427.427,0,0,0,.175-.394v-4.07a1.121,1.121,0,0,1,.35-.831,1.2,1.2,0,0,1,.831-.35h.131a1.121,1.121,0,0,1,.831.35,1.2,1.2,0,0,1,.35.831v4.07a.427.427,0,0,0,.175.394.582.582,0,0,0,.35.131.5.5,0,0,0,.35-.131.427.427,0,0,0,.175-.394v-4.07Zm-6.476-1.532a1.939,1.939,0,0,0-.656-.525,2.556,2.556,0,0,0-.788-.175,1.22,1.22,0,0,0-.438.044,2.772,2.772,0,0,0-.306.088.2.2,0,0,1-.394-.088.555.555,0,0,0-.263-.044.5.5,0,0,0-.35.131.426.426,0,0,0-.175.394v5.732a.426.426,0,0,0,.175.394.582.582,0,0,0,.35.131.5.5,0,0,0,.35-.131.427.427,0,0,0,.175-.394v-4.288a.963.963,0,0,1,.044-.35.4.4,0,0,1,.131-.306.644.644,0,0,1,.263-.219,1.575,1.575,0,0,1,.481-.087.875.875,0,0,1,.394.087c.088.088.175.131.219.175a.562.562,0,0,0,.438.175.452.452,0,0,0,.481-.481.677.677,0,0,0-.131-.263m-6.7,2.232h-2.494v-.7a1.12,1.12,0,0,1,.35-.831,1.2,1.2,0,0,1,.831-.35h.131a1.1,1.1,0,0,1,.788.35,1.2,1.2,0,0,1,.35.831v.7Zm1.05-.7a1.959,1.959,0,0,0-.175-.875,2,2,0,0,0-.481-.7,2.5,2.5,0,0,0-.7-.481,1.959,1.959,0,0,0-.875-.175h-.131a2.085,2.085,0,0,0-.875.175,2,2,0,0,0-.7.481,2.5,2.5,0,0,0-.481.7,1.959,1.959,0,0,0-.175.875v2.363a1.959,1.959,0,0,0,.175.875,2.333,2.333,0,0,0,1.182,1.182,1.96,1.96,0,0,0,.875.175h.131a2.239,2.239,0,0,0,1.225-.35,2.4,2.4,0,0,0,.788-.963.328.328,0,0,0,.044-.219.427.427,0,0,0-.175-.394.611.611,0,0,0-.394-.131.622.622,0,0,0-.263.088.4.4,0,0,0-.175.263,1.369,1.369,0,0,1-.394.481,1.075,1.075,0,0,1-.656.219h-.131a1.2,1.2,0,0,1-.831-.35,1.121,1.121,0,0,1-.35-.831v-.7h3.019a.535.535,0,0,0,.394-.175.5.5,0,0,0,.131-.35Zm-6.608,3.719a.54.54,0,0,0-.35-.175.922.922,0,0,1-.569-.219.625.625,0,0,1-.219-.569v-3.895h.744a.427.427,0,0,0,.394-.175.582.582,0,0,0,.131-.35.5.5,0,0,0-.131-.35.427.427,0,0,0-.394-.175h-.744v-2.407a.426.426,0,0,0-.175-.394.582.582,0,0,0-.35-.131.5.5,0,0,0-.35.131.427.427,0,0,0-.175.394v2.407h-.481a.427.427,0,0,0-.394.175.582.582,0,0,0-.131.35.5.5,0,0,0,.131.35.426.426,0,0,0,.394.175h.481v3.895a1.815,1.815,0,0,0,.131.7,1.934,1.934,0,0,0,.963.963,1.815,1.815,0,0,0,.7.131.427.427,0,0,0,.394-.175.5.5,0,0,0,.131-.35.473.473,0,0,0-.131-.306m-5.164-3.719a2.106,2.106,0,0,0-.175-.963,2,2,0,0,0-.481-.7,2.22,2.22,0,0,0-.7-.394,2.748,2.748,0,0,0-.831-.131H272.1a1.6,1.6,0,0,0-.656.131,1.511,1.511,0,0,0-.525.306.706.706,0,0,0-.175-.306.472.472,0,0,0-.35-.088.706.706,0,0,0-.394.131.427.427,0,0,0-.175.394v5.689a.427.427,0,0,0,.175.394.582.582,0,0,0,.35.131.5.5,0,0,0,.35-.131.427.427,0,0,0,.175-.394v-4.07a1.121,1.121,0,0,1,.35-.831,1.2,1.2,0,0,1,.831-.35h.131a1.2,1.2,0,0,1,1.181,1.181v4.07a.427.427,0,0,0,.175.394.582.582,0,0,0,.35.131.5.5,0,0,0,.35-.131.427.427,0,0,0,.175-.394v-4.07Zm-7.351-4.595a.427.427,0,0,0-.175-.394.582.582,0,0,0-.35-.131.5.5,0,0,0-.35.131.427.427,0,0,0-.175.394v8.664a.427.427,0,0,0,.175.394.582.582,0,0,0,.35.131.5.5,0,0,0,.35-.131.555.555,0,0,0,.175-.394Zm-7.833,3.063a1.937,1.937,0,0,0-.656-.525,2.555,2.555,0,0,0-.788-.175,1.219,1.219,0,0,0-.438.044,2.774,2.774,0,0,0-.306.088.2.2,0,0,1-.394-.088.555.555,0,0,0-.263-.044.5.5,0,0,0-.35.131.427.427,0,0,0-.175.394v5.732a.427.427,0,0,0,.175.394.582.582,0,0,0,.35.131.5.5,0,0,0,.35-.131.427.427,0,0,0,.175-.394v-4.288a.963.963,0,0,1,.044-.35.4.4,0,0,1,.131-.306.644.644,0,0,1,.263-.219,1.575,1.575,0,0,1,.481-.087.875.875,0,0,1,.394.087c.088.088.175.131.219.175a.562.562,0,0,0,.438.175.452.452,0,0,0,.481-.481.677.677,0,0,0-.131-.263m-5.907-.175a.427.427,0,0,0-.175-.394.582.582,0,0,0-.35-.131.5.5,0,0,0-.35.131.427.427,0,0,0-.175.394v4.07a1.2,1.2,0,0,1-1.182,1.181h-.131a1.2,1.2,0,0,1-.831-.35,1.12,1.12,0,0,1-.35-.831v-4.07a.426.426,0,0,0-.175-.394.582.582,0,0,0-.35-.131.5.5,0,0,0-.35.131.426.426,0,0,0-.175.394v4.07a2.432,2.432,0,0,0,.175,1.006,2,2,0,0,0,.481.7,2.219,2.219,0,0,0,.7.394,2.748,2.748,0,0,0,.831.131h.131a2.977,2.977,0,0,0,.656-.088,1.513,1.513,0,0,0,.525-.306c.044.131.088.263.175.306a.824.824,0,0,0,.35.088.5.5,0,0,0,.35-.131.427.427,0,0,0,.175-.394v-5.776Zm-3.019-2.888a.427.427,0,0,0-.175-.394.582.582,0,0,0-.35-.131.5.5,0,0,0-.35.131.427.427,0,0,0-.175.394v.306a.427.427,0,0,0,.175.394.582.582,0,0,0,.35.131.5.5,0,0,0,.35-.131.427.427,0,0,0,.175-.394Zm2.538,0a.427.427,0,0,0-.175-.394.582.582,0,0,0-.35-.131.5.5,0,0,0-.35.131.555.555,0,0,0-.175.394v.306a.427.427,0,0,0,.175.394.582.582,0,0,0,.35.131.5.5,0,0,0,.35-.131.427.427,0,0,0,.175-.394Zm-6.126-.35a.427.427,0,0,0-.394-.175,1.814,1.814,0,0,0-.7.131,1.934,1.934,0,0,0-.963.963,1.983,1.983,0,0,0-.131.7v1.094h-.306a.427.427,0,0,0-.394.175.581.581,0,0,0-.131.35.5.5,0,0,0,.131.35.426.426,0,0,0,.394.175h.306v5.251a.427.427,0,0,0,.175.394.582.582,0,0,0,.35.131.5.5,0,0,0,.35-.131.427.427,0,0,0,.175-.394v-5.207h.656a.426.426,0,0,0,.394-.175.582.582,0,0,0,.131-.35.5.5,0,0,0-.131-.35.426.426,0,0,0-.394-.175h-.656v-1.094a.747.747,0,0,1,.744-.744.426.426,0,0,0,.394-.175.582.582,0,0,0,.131-.35.611.611,0,0,0-.131-.394" transform="translate(1424.97 667.008)"/><path class="a" d="M375.194,279.439a.54.54,0,0,0-.35-.175.922.922,0,0,1-.569-.219.65.65,0,0,1-.263-.569v-3.895h.744a.427.427,0,0,0,.394-.175.582.582,0,0,0,.131-.35.5.5,0,0,0-.131-.35.427.427,0,0,0-.394-.175h-.744v-2.407a.426.426,0,0,0-.175-.394.581.581,0,0,0-.35-.131.5.5,0,0,0-.35.131.426.426,0,0,0-.175.394v2.407h-.481a.427.427,0,0,0-.394.175.582.582,0,0,0-.131.35.5.5,0,0,0,.131.35.427.427,0,0,0,.394.175h.481v3.895a1.814,1.814,0,0,0,.131.7,1.934,1.934,0,0,0,.963.963,1.813,1.813,0,0,0,.7.131.427.427,0,0,0,.394-.175.582.582,0,0,0,.131-.35.29.29,0,0,0-.088-.306m-4.507-8.664a.427.427,0,0,0-.394-.175,1.814,1.814,0,0,0-.7.131,1.665,1.665,0,0,0-.569.394,1.544,1.544,0,0,0-.35.569,1.982,1.982,0,0,0-.131.7v1.094h-.306a.427.427,0,0,0-.394.175.582.582,0,0,0-.131.35.5.5,0,0,0,.131.35.427.427,0,0,0,.394.175h.306v5.207a.426.426,0,0,0,.175.394.582.582,0,0,0,.35.131.5.5,0,0,0,.35-.131.427.427,0,0,0,.175-.394v-5.207h.656a.427.427,0,0,0,.394-.175.582.582,0,0,0,.131-.35.5.5,0,0,0-.131-.35.427.427,0,0,0-.394-.175h-.656v-1.094a.589.589,0,0,1,.219-.525.725.725,0,0,1,.525-.219.427.427,0,0,0,.394-.175.582.582,0,0,0,.131-.35,1.309,1.309,0,0,0-.175-.35m-6.345,7.308a1.121,1.121,0,0,1-.35.831,1.2,1.2,0,0,1-.831.35h-.131A1.262,1.262,0,0,1,362.2,279a.816.816,0,0,1-.306-.7v-.131a.706.706,0,0,1,.263-.569,2,2,0,0,1,.613-.306,5.088,5.088,0,0,1,.788-.175,4.65,4.65,0,0,0,.831-.175v1.138Zm1.75,1.356a.455.455,0,0,0-.35-.175.426.426,0,0,1-.35-.438v-3.194a1.775,1.775,0,0,0-.175-.831,2.451,2.451,0,0,0-.438-.656,1.906,1.906,0,0,0-.7-.438,1.959,1.959,0,0,0-.875-.175h-.088a2.5,2.5,0,0,0-.569.044,3.036,3.036,0,0,0-.569.219,2.056,2.056,0,0,0-.525.394,1.835,1.835,0,0,0-.394.613c-.044.044-.044.131-.044.263a.4.4,0,0,0,.175.35.582.582,0,0,0,.35.131.555.555,0,0,0,.263-.044c.088-.044.131-.131.219-.219a1.75,1.75,0,0,1,.438-.525,1.054,1.054,0,0,1,.656-.175h.088a1.222,1.222,0,0,1,.788.263,1.027,1.027,0,0,1,.35.875v.131a.161.161,0,0,1-.044.131c-.044.088-.175.131-.394.175s-.438.088-.7.131a7.128,7.128,0,0,0-.831.175,4.215,4.215,0,0,0-.788.306,2.5,2.5,0,0,0-.613.569,1.377,1.377,0,0,0-.219.875v.175a1.96,1.96,0,0,0,.175.875,1.781,1.781,0,0,0,.525.613,2.218,2.218,0,0,0,.7.394,2.548,2.548,0,0,0,.831.131h.131a2.208,2.208,0,0,0,1.488-.525,2.642,2.642,0,0,0,.35.35,1.094,1.094,0,0,0,.569.175h.088a.427.427,0,0,0,.394-.175.5.5,0,0,0,.131-.35.68.68,0,0,0-.044-.438m-7.4-3.719a1.959,1.959,0,0,0-.175-.875,2,2,0,0,0-.481-.7,2.5,2.5,0,0,0-.7-.481,1.96,1.96,0,0,0-.875-.175h-.131a1.983,1.983,0,0,0-.7.131,1.512,1.512,0,0,0-.525.306v-2.757a.427.427,0,0,0-.175-.394.582.582,0,0,0-.35-.131.5.5,0,0,0-.35.131.427.427,0,0,0-.175.394v8.62a.427.427,0,0,0,.175.394.582.582,0,0,0,.35.131.5.5,0,0,0,.35-.131.427.427,0,0,0,.175-.394v-4.113a.882.882,0,0,1,.131-.481,2.428,2.428,0,0,1,.263-.35,1.776,1.776,0,0,1,.394-.219,1.573,1.573,0,0,1,.481-.088,1.555,1.555,0,0,1,.438.088,1.774,1.774,0,0,1,.394.219.68.68,0,0,1,.263.35.947.947,0,0,1,.088.525v4.07a.427.427,0,0,0,.175.394.582.582,0,0,0,.35.131.5.5,0,0,0,.35-.131.427.427,0,0,0,.175-.394v-4.07Zm-6.958,1.925a.582.582,0,0,0-.35-.131.5.5,0,0,0-.35.131.555.555,0,0,0-.175.394,1.2,1.2,0,0,1-.35.831,1.12,1.12,0,0,1-.831.35h-.131a1.12,1.12,0,0,1-.831-.35,1.2,1.2,0,0,1-.35-.831v-2.363a1.2,1.2,0,0,1,1.181-1.181h.131a1.2,1.2,0,0,1,.831.35,1.222,1.222,0,0,1,.35.875.555.555,0,0,0,.175.394.533.533,0,0,0,.7,0,.427.427,0,0,0,.175-.394,1.96,1.96,0,0,0-.175-.875,2,2,0,0,0-.481-.7,2.5,2.5,0,0,0-.7-.481,1.959,1.959,0,0,0-.875-.175h-.131a1.959,1.959,0,0,0-.875.175,2,2,0,0,0-.7.481,3.968,3.968,0,0,0-.481.7,1.959,1.959,0,0,0-.175.875v2.363a1.959,1.959,0,0,0,.175.875,2.333,2.333,0,0,0,1.181,1.182,1.959,1.959,0,0,0,.875.175h.131a2.086,2.086,0,0,0,.875-.175,2,2,0,0,0,.7-.481,2.5,2.5,0,0,0,.481-.7,1.96,1.96,0,0,0,.175-.875.507.507,0,0,0-.175-.438m-6.52.656a1.866,1.866,0,0,0-.263-1.05,2.2,2.2,0,0,0-.656-.613,2.972,2.972,0,0,0-.875-.306c-.306-.088-.613-.131-.875-.219a5.093,5.093,0,0,1-.656-.263.624.624,0,0,1-.263-.525v-.044a.667.667,0,0,1,.306-.525,1.609,1.609,0,0,1,.875-.219h.044a1.743,1.743,0,0,1,.744.131,4.247,4.247,0,0,0,.481.219,1.112,1.112,0,0,0,.306.088.452.452,0,0,0,.481-.481.427.427,0,0,0-.175-.394c-.044-.044-.131-.087-.219-.175a1.576,1.576,0,0,0-.394-.219,3.648,3.648,0,0,0-.525-.175,3.377,3.377,0,0,0-.656-.088h-.044a4.872,4.872,0,0,0-.744.088,2.228,2.228,0,0,0-.744.306,2.141,2.141,0,0,0-.569.525,1.248,1.248,0,0,0-.219.831,1.715,1.715,0,0,0,.263,1.006,1.938,1.938,0,0,0,.656.525,2.9,2.9,0,0,0,.875.263,5.121,5.121,0,0,1,.875.219,2.32,2.32,0,0,1,.656.35.768.768,0,0,1,.263.656v.044a.82.82,0,0,1-.35.613,1.485,1.485,0,0,1-.963.306h-.087a1.412,1.412,0,0,1-.788-.263,2.947,2.947,0,0,1-.656-.613.291.291,0,0,0-.219-.175.555.555,0,0,0-.263-.044.5.5,0,0,0-.35.131.427.427,0,0,0-.175.394,1.729,1.729,0,0,0,.088.263,2.774,2.774,0,0,0,1.006,1.006,2.063,2.063,0,0,0,.656.263,3.832,3.832,0,0,0,.7.087h.087a3.033,3.033,0,0,0,.875-.131,4.3,4.3,0,0,0,.788-.35,2.557,2.557,0,0,0,.569-.613,1.676,1.676,0,0,0,.219-.831h-.088Zm-6.783,1.094a.427.427,0,0,0-.394-.175.747.747,0,0,1-.744-.744v-7.351a.427.427,0,0,0-.175-.394.582.582,0,0,0-.35-.131.5.5,0,0,0-.35.131.427.427,0,0,0-.175.394v7.351a1.815,1.815,0,0,0,.131.7,1.934,1.934,0,0,0,.963.963,1.813,1.813,0,0,0,.7.131.427.427,0,0,0,.394-.175.582.582,0,0,0,.131-.35,3.013,3.013,0,0,1-.131-.35m-4.332,0a.427.427,0,0,0-.394-.175.747.747,0,0,1-.744-.744v-7.351a.427.427,0,0,0-.175-.394.582.582,0,0,0-.35-.131.5.5,0,0,0-.35.131.427.427,0,0,0-.175.394v7.351a1.814,1.814,0,0,0,.131.7,1.933,1.933,0,0,0,.963.963,1.813,1.813,0,0,0,.7.131.427.427,0,0,0,.394-.175.582.582,0,0,0,.131-.35.7.7,0,0,0-.131-.35m-5.6-2.976H326.01v-.7a1.12,1.12,0,0,1,.35-.831,1.2,1.2,0,0,1,.831-.35h.131a1.1,1.1,0,0,1,.788.35,1.222,1.222,0,0,1,.35.875v.656Zm1.05-.7a1.959,1.959,0,0,0-.175-.875,2,2,0,0,0-.481-.7,2.5,2.5,0,0,0-.7-.481,1.959,1.959,0,0,0-.875-.175h-.131a1.96,1.96,0,0,0-.875.175,2,2,0,0,0-.7.481,2.5,2.5,0,0,0-.481.7,1.959,1.959,0,0,0-.175.875v2.363a1.959,1.959,0,0,0,.175.875,2.333,2.333,0,0,0,1.181,1.181,1.959,1.959,0,0,0,.875.175h.131a2.239,2.239,0,0,0,1.225-.35,2.14,2.14,0,0,0,.788-.963.328.328,0,0,0,.044-.219.426.426,0,0,0-.175-.394.611.611,0,0,0-.394-.131.622.622,0,0,0-.263.088.4.4,0,0,0-.175.263,1.368,1.368,0,0,1-.394.481,1.075,1.075,0,0,1-.656.219h-.131a1.2,1.2,0,0,1-.831-.35,1.12,1.12,0,0,1-.35-.831v-.7h3.019a.534.534,0,0,0,.394-.175.5.5,0,0,0,.131-.35Zm-6.7,2.582a1.867,1.867,0,0,0-.263-1.05,2.2,2.2,0,0,0-.656-.613,2.971,2.971,0,0,0-.875-.306c-.306-.088-.613-.131-.875-.219a5.091,5.091,0,0,1-.656-.263.624.624,0,0,1-.263-.525v-.044a.667.667,0,0,1,.306-.525,1.609,1.609,0,0,1,.875-.219h.044a1.744,1.744,0,0,1,.744.131,4.252,4.252,0,0,0,.481.219,1.112,1.112,0,0,0,.306.088.452.452,0,0,0,.481-.481.427.427,0,0,0-.175-.394c-.044-.044-.131-.087-.219-.175a1.575,1.575,0,0,0-.394-.219,3.645,3.645,0,0,0-.525-.175,2.977,2.977,0,0,0-.656-.088H320.5a4.873,4.873,0,0,0-.744.088,2.228,2.228,0,0,0-.744.306,2.142,2.142,0,0,0-.569.525,1.248,1.248,0,0,0-.219.831,1.716,1.716,0,0,0,.263,1.006,1.938,1.938,0,0,0,.656.525,2.9,2.9,0,0,0,.875.263,5.121,5.121,0,0,1,.875.219,2.319,2.319,0,0,1,.656.35.768.768,0,0,1,.263.656v.044a.82.82,0,0,1-.35.613,1.485,1.485,0,0,1-.963.306h-.088a1.412,1.412,0,0,1-.788-.263,2.944,2.944,0,0,1-.656-.613.291.291,0,0,0-.219-.175.555.555,0,0,0-.263-.044.706.706,0,0,0-.394.131.427.427,0,0,0-.175.394,1.726,1.726,0,0,0,.088.263,2.774,2.774,0,0,0,1.006,1.006,2.063,2.063,0,0,0,.656.263,3.832,3.832,0,0,0,.7.087h.088a3.033,3.033,0,0,0,.875-.131,4.3,4.3,0,0,0,.788-.35,2.557,2.557,0,0,0,.569-.613,1.676,1.676,0,0,0,.219-.831h-.044Zm-7.92-1.882h-2.494v-.7a1.12,1.12,0,0,1,.35-.831,1.2,1.2,0,0,1,.831-.35h.131a1.1,1.1,0,0,1,.788.35,1.222,1.222,0,0,1,.35.875v.656Zm1.05-.7a1.96,1.96,0,0,0-.175-.875,2,2,0,0,0-.481-.7,2.5,2.5,0,0,0-.7-.481,1.959,1.959,0,0,0-.875-.175h-.131a2.086,2.086,0,0,0-.875.175,2,2,0,0,0-.7.481,2.5,2.5,0,0,0-.481.7,1.959,1.959,0,0,0-.175.875v2.363a1.959,1.959,0,0,0,.175.875,2.333,2.333,0,0,0,1.182,1.181,1.958,1.958,0,0,0,.875.175h.131a2.239,2.239,0,0,0,1.225-.35,2.139,2.139,0,0,0,.788-.963.328.328,0,0,0,.044-.219.427.427,0,0,0-.175-.394.611.611,0,0,0-.394-.131.622.622,0,0,0-.263.088.4.4,0,0,0-.175.263,1.369,1.369,0,0,1-.394.481,1.075,1.075,0,0,1-.656.219h-.131a1.2,1.2,0,0,1-.831-.35,1.12,1.12,0,0,1-.35-.831v-.7h3.019a.534.534,0,0,0,.394-.175.5.5,0,0,0,.131-.35Zm-7-.175a.4.4,0,0,0-.175-.35.54.54,0,0,0-.35-.175h-1.969a.427.427,0,0,0-.394.175.582.582,0,0,0-.131.35.5.5,0,0,0,.131.35.427.427,0,0,0,.394.175h1.444v1.619a1.4,1.4,0,0,1-.131.613,1.908,1.908,0,0,1-.831.831,1.4,1.4,0,0,1-.613.131h-.131a1.4,1.4,0,0,1-.613-.131,1.908,1.908,0,0,1-.831-.831,1.4,1.4,0,0,1-.131-.613v-4.463a1.545,1.545,0,0,1,.131-.613,1.241,1.241,0,0,1,.35-.481,1.943,1.943,0,0,1,.481-.35,1.4,1.4,0,0,1,.613-.131h.131a1.42,1.42,0,0,1,1.05.394,1.565,1.565,0,0,1,.481.963.658.658,0,0,0,.175.35.471.471,0,0,0,.35.088.5.5,0,0,0,.35-.131.427.427,0,0,0,.175-.394v-.088a2.1,2.1,0,0,0-.306-.875,2.226,2.226,0,0,0-.569-.7,2.382,2.382,0,0,0-.788-.481,2.355,2.355,0,0,0-.963-.175h-.131a2.6,2.6,0,0,0-1.006.219,2.174,2.174,0,0,0-.831.569,2.8,2.8,0,0,0-.569.831,2.6,2.6,0,0,0-.219,1.006v4.463a3.007,3.007,0,0,0,.219,1.05,2.564,2.564,0,0,0,.569.831,2.8,2.8,0,0,0,.831.569,2.6,2.6,0,0,0,1.006.219h.131a2.6,2.6,0,0,0,1.006-.219,2.174,2.174,0,0,0,.831-.569,2.8,2.8,0,0,0,.569-.831,2.644,2.644,0,0,0,.219-1.05v-2.144Zm-13.215.875h-2.494v-.7a1.12,1.12,0,0,1,.35-.831,1.2,1.2,0,0,1,.831-.35h.131a1.1,1.1,0,0,1,.788.35,1.222,1.222,0,0,1,.35.875v.656Zm1.05-.7a1.959,1.959,0,0,0-.175-.875,2,2,0,0,0-.481-.7,2.5,2.5,0,0,0-.7-.481,1.959,1.959,0,0,0-.875-.175h-.131a2.086,2.086,0,0,0-.875.175,2,2,0,0,0-.7.481,2.5,2.5,0,0,0-.481.7,1.959,1.959,0,0,0-.175.875v2.363a1.959,1.959,0,0,0,.175.875,2.333,2.333,0,0,0,1.181,1.181,1.958,1.958,0,0,0,.875.175h.131a2.239,2.239,0,0,0,1.225-.35A2.139,2.139,0,0,0,296.6,279a.327.327,0,0,0,.044-.219.427.427,0,0,0-.175-.394.611.611,0,0,0-.394-.131.622.622,0,0,0-.263.088.4.4,0,0,0-.175.263,1.368,1.368,0,0,1-.394.481,1.075,1.075,0,0,1-.656.219h-.131a1.2,1.2,0,0,1-.831-.35,1.12,1.12,0,0,1-.35-.831v-.7H296.3a.534.534,0,0,0,.394-.175.5.5,0,0,0,.131-.35Zm-6.826,0a1.959,1.959,0,0,0-.175-.875,2,2,0,0,0-.481-.7,2.5,2.5,0,0,0-.7-.481,1.96,1.96,0,0,0-.875-.175h-.131a1.983,1.983,0,0,0-.7.131,1.513,1.513,0,0,0-.525.306v-2.757a.426.426,0,0,0-.175-.394.582.582,0,0,0-.35-.131.5.5,0,0,0-.35.131.427.427,0,0,0-.175.394v8.62a.427.427,0,0,0,.175.394.582.582,0,0,0,.35.131.5.5,0,0,0,.35-.131.427.427,0,0,0,.175-.394v-4.113a.882.882,0,0,1,.131-.481,1.18,1.18,0,0,1,.306-.35,1.774,1.774,0,0,1,.394-.219,1.573,1.573,0,0,1,.481-.088,1.555,1.555,0,0,1,.438.088,1.775,1.775,0,0,1,.394.219,1.181,1.181,0,0,1,.306.35.948.948,0,0,1,.087.525v4.07a.427.427,0,0,0,.175.394.582.582,0,0,0,.35.131.5.5,0,0,0,.35-.131.427.427,0,0,0,.175-.394Zm-7.089,1.925a.582.582,0,0,0-.35-.131.5.5,0,0,0-.35.131.554.554,0,0,0-.175.394,1.2,1.2,0,0,1-.35.831,1.12,1.12,0,0,1-.831.35h-.131a1.12,1.12,0,0,1-.831-.35,1.2,1.2,0,0,1-.35-.831v-2.363a1.2,1.2,0,0,1,1.181-1.181h.131a1.2,1.2,0,0,1,.831.35,1.222,1.222,0,0,1,.35.875.555.555,0,0,0,.175.394.532.532,0,0,0,.7,0,.427.427,0,0,0,.175-.394,1.959,1.959,0,0,0-.175-.875,2,2,0,0,0-.481-.7,2.5,2.5,0,0,0-.7-.481,1.96,1.96,0,0,0-.875-.175h-.131a2.086,2.086,0,0,0-.875.175,2,2,0,0,0-.7.481,3.967,3.967,0,0,0-.481.7,1.959,1.959,0,0,0-.175.875v2.363a1.959,1.959,0,0,0,.175.875,2.333,2.333,0,0,0,1.182,1.182,1.959,1.959,0,0,0,.875.175h.131a1.96,1.96,0,0,0,.875-.175,2,2,0,0,0,.7-.481,2.5,2.5,0,0,0,.481-.7,1.958,1.958,0,0,0,.175-.875.507.507,0,0,0-.175-.438m-6.52.656a1.867,1.867,0,0,0-.263-1.05,2.2,2.2,0,0,0-.656-.613,2.972,2.972,0,0,0-.875-.306c-.306-.088-.613-.131-.875-.219a5.1,5.1,0,0,1-.656-.263.624.624,0,0,1-.263-.525v-.044a.667.667,0,0,1,.306-.525,1.609,1.609,0,0,1,.875-.219h.044a1.743,1.743,0,0,1,.744.131,4.266,4.266,0,0,0,.481.219,1.112,1.112,0,0,0,.306.088.452.452,0,0,0,.481-.481.427.427,0,0,0-.175-.394,2.6,2.6,0,0,0-.263-.175,1.575,1.575,0,0,0-.394-.219,3.648,3.648,0,0,0-.525-.175,3.377,3.377,0,0,0-.656-.088h-.044a3.829,3.829,0,0,0-.7.088,2.228,2.228,0,0,0-.744.306,2.141,2.141,0,0,0-.569.525,1.247,1.247,0,0,0-.219.831,1.716,1.716,0,0,0,.263,1.006,1.938,1.938,0,0,0,.656.525,2.9,2.9,0,0,0,.875.263,5.12,5.12,0,0,1,.875.219,2.319,2.319,0,0,1,.656.35.768.768,0,0,1,.263.656v.044a.82.82,0,0,1-.35.613,1.578,1.578,0,0,1-.963.306h-.088a1.412,1.412,0,0,1-.788-.263,2.944,2.944,0,0,1-.656-.613.291.291,0,0,0-.219-.175.555.555,0,0,0-.263-.044.706.706,0,0,0-.394.131.427.427,0,0,0-.175.394,1.722,1.722,0,0,0,.088.263,2.774,2.774,0,0,0,1.006,1.006,2.063,2.063,0,0,0,.656.263,3.832,3.832,0,0,0,.7.087h.088a3.032,3.032,0,0,0,.875-.131,4.3,4.3,0,0,0,.788-.35,2.558,2.558,0,0,0,.569-.613,1.676,1.676,0,0,0,.219-.831h-.044Zm-6.783,1.138a.54.54,0,0,0-.35-.175.922.922,0,0,1-.569-.219.625.625,0,0,1-.219-.569v-3.895h.744a.427.427,0,0,0,.394-.175.582.582,0,0,0,.131-.35.5.5,0,0,0-.131-.35.427.427,0,0,0-.394-.175h-.744v-2.407a.426.426,0,0,0-.175-.394.582.582,0,0,0-.35-.131.5.5,0,0,0-.35.131.427.427,0,0,0-.175.394v2.407h-.481a.427.427,0,0,0-.394.175.582.582,0,0,0-.131.35.5.5,0,0,0,.131.35.427.427,0,0,0,.394.175h.481v3.895a1.814,1.814,0,0,0,.131.7,1.934,1.934,0,0,0,.963.963,1.813,1.813,0,0,0,.7.131.427.427,0,0,0,.394-.175.582.582,0,0,0,.131-.35c-.044-.088-.044-.219-.131-.306m-5.339-5.426a.427.427,0,0,0-.175-.394.582.582,0,0,0-.35-.131.5.5,0,0,0-.35.131.427.427,0,0,0-.175.394v4.07a1.2,1.2,0,0,1-1.181,1.181H261.9a1.2,1.2,0,0,1-1.181-1.181v-4.07a.427.427,0,0,0-.175-.394.582.582,0,0,0-.35-.131.5.5,0,0,0-.35.131.427.427,0,0,0-.175.394v4.07a2.432,2.432,0,0,0,.175,1.006,2.5,2.5,0,0,0,.481.7,1.608,1.608,0,0,0,.7.394,2.747,2.747,0,0,0,.831.131h.131a2.977,2.977,0,0,0,.656-.087,1.512,1.512,0,0,0,.525-.306c.044.131.088.263.175.306a.825.825,0,0,0,.35.087.5.5,0,0,0,.35-.131.555.555,0,0,0,.175-.394v-5.776Zm-7.833,2.407h-2.494v-.7a1.12,1.12,0,0,1,.35-.831,1.2,1.2,0,0,1,.831-.35h.131a1.1,1.1,0,0,1,.788.35,1.222,1.222,0,0,1,.35.875v.656Zm1.05-.7a1.959,1.959,0,0,0-.175-.875,2,2,0,0,0-.481-.7,2.5,2.5,0,0,0-.7-.481,1.959,1.959,0,0,0-.875-.175h-.131a2.086,2.086,0,0,0-.875.175,2,2,0,0,0-.7.481,2.5,2.5,0,0,0-.481.7,1.959,1.959,0,0,0-.175.875v2.363a1.959,1.959,0,0,0,.175.875,2.333,2.333,0,0,0,1.181,1.181,1.959,1.959,0,0,0,.875.175h.131a2.239,2.239,0,0,0,1.225-.35,2.14,2.14,0,0,0,.788-.963.328.328,0,0,0,.044-.219.426.426,0,0,0-.175-.394.611.611,0,0,0-.394-.131.622.622,0,0,0-.263.088.4.4,0,0,0-.175.263,1.368,1.368,0,0,1-.394.481,1.075,1.075,0,0,1-.656.219h-.131a1.2,1.2,0,0,1-.831-.35,1.12,1.12,0,0,1-.35-.831v-.7h3.019a.4.4,0,0,0,.35-.175.5.5,0,0,0,.131-.35V275.72Zm-8.052,1.882a1.4,1.4,0,0,1-.131.613,1.241,1.241,0,0,1-.35.481,1.944,1.944,0,0,1-.481.35,1.4,1.4,0,0,1-.613.131H246.15v-7.439h1.707a1.4,1.4,0,0,1,.613.131,1.242,1.242,0,0,1,.481.35,1.942,1.942,0,0,1,.35.481,1.4,1.4,0,0,1,.131.613Zm1.05-4.288a2.6,2.6,0,0,0-.219-1.006,2.174,2.174,0,0,0-.569-.831,2.8,2.8,0,0,0-.831-.569,2.6,2.6,0,0,0-1.006-.219h-2.232a.4.4,0,0,0-.35.175c-.088.131-.175.219-.175.35V279.7a.4.4,0,0,0,.175.35.54.54,0,0,0,.35.175h2.232a2.6,2.6,0,0,0,1.006-.219,2.174,2.174,0,0,0,.831-.569,2.8,2.8,0,0,0,.569-.831,2.6,2.6,0,0,0,.219-1.006Z" transform="translate(1424.182 686.355)"/></g></svg>