<svg width="132" height="99" viewBox="0 0 132 99" fill="none" xmlns="http://www.w3.org/2000/svg">
<path d="M91.0156 11.2051V15.3851C89.6477 13.5937 87.5959 12.3141 85.2876 11.9729C86.399 11.2051 87.1684 10.0961 87.5959 8.73124L87.7668 8.2194L87.3394 7.79287C85.715 6.25736 83.4067 5.74552 81.2694 6.34267C80.5855 6.51328 79.9016 6.8545 79.3031 7.28103C79.3886 6.59858 79.3031 5.83083 79.1321 5.14838C78.5337 3.01573 76.9093 1.3096 74.8575 0.627155L74.2591 0.456543L73.8316 0.883074C72.3782 2.50389 71.8653 4.80716 72.3782 6.93981C72.3782 7.02511 72.4637 7.11042 72.4637 7.19573C70.4119 6.17205 68.1036 5.57491 65.7098 5.57491C63.3161 5.57491 61.0078 6.17205 58.956 7.19573C58.956 7.11042 59.0415 7.02511 59.0415 6.93981C59.6399 4.80716 59.0415 2.50389 57.5881 0.883074L57.1606 0.456543L56.6477 0.627155C54.5104 1.3096 52.886 3.01573 52.3731 5.14838C52.2021 5.83083 52.1166 6.59858 52.2021 7.28103C51.5181 6.8545 50.9197 6.59858 50.1503 6.42797C48.013 5.83083 45.7047 6.42797 44.0803 7.87818L43.6529 8.30471L43.8238 8.81654C44.2513 10.0961 45.1062 11.2904 46.1321 12.0582C43.8238 12.3994 41.772 13.679 40.4041 15.4704V11.2904H31V53.6876L35.7021 58.3794L40.3187 53.7729C41.6865 55.6496 43.7383 56.9292 46.1321 57.2704C45.0207 58.0382 44.2513 59.1472 43.8238 60.5121L43.6529 61.0239L44.0803 61.4504C45.2772 62.5594 46.9016 63.1565 48.4404 63.1565C49.0389 63.1565 49.5518 63.0712 50.1503 62.9006C50.8342 62.73 51.5181 62.3888 52.1166 61.9623C52.0311 62.6447 52.1166 63.4125 52.2876 64.0949C52.886 66.2276 54.5104 67.9337 56.5622 68.6161L57.0751 68.7867L57.5026 68.3602C59.0415 66.7394 59.5544 64.4361 58.956 62.3035C58.956 62.2182 58.8705 62.1329 58.8705 62.0476C60.9223 63.0712 63.2306 63.6684 65.6244 63.6684C68.0181 63.6684 70.3264 63.0712 72.3782 62.0476C72.3782 62.1329 72.2928 62.2182 72.2928 62.3035C71.6943 64.4361 72.2927 66.7394 73.7461 68.3602L74.1736 68.7867L74.6865 68.6161C76.8238 67.9337 78.4482 66.2276 78.9611 64.0949C79.1321 63.4125 79.2176 62.6447 79.1321 61.9623C79.7306 62.3888 80.4145 62.6447 81.0984 62.9006C81.6969 63.0712 82.2098 63.1565 82.8083 63.1565C84.4326 63.1565 85.9715 62.5594 87.1684 61.4504L87.5959 61.0239L87.4249 60.5121C86.9974 59.2325 86.1425 58.0382 85.1166 57.2704C87.5104 56.9292 89.5622 55.6496 90.9301 53.7729L95.5466 58.3794L100.249 53.6876V11.2051H91.0156ZM32.7953 18.0296H34.8472V48.6545C34.0777 48.8251 33.3938 49.081 32.7953 49.5929V18.0296ZM35.7021 55.8202L32.7953 52.9198C32.9663 51.4696 34.1632 50.3606 35.6166 50.3606C37.07 50.3606 38.3523 51.5549 38.4378 53.0051L35.7021 55.8202ZM38.6088 49.6782C38.0104 49.1663 37.3264 48.8251 36.557 48.7398V18.0296H38.6088V49.6782ZM38.6088 16.3235H32.7953V13.0818H38.6088V16.3235ZM81.6969 8.13409C83.0648 7.79287 84.5181 8.04879 85.6295 8.81654C85.0311 10.0961 83.9197 11.0345 82.5518 11.3757C81.1839 11.717 79.7306 11.461 78.6192 10.6933C79.2176 9.41369 80.4145 8.47532 81.6969 8.13409ZM74.8575 2.5892C76.1399 3.18634 77.0803 4.29532 77.4223 5.66022C77.7643 7.02511 77.5078 8.47532 76.7383 9.5843C75.456 8.98715 74.5155 7.87818 74.1736 6.51328C73.7461 5.14838 74.0026 3.69818 74.8575 2.5892ZM54.0829 5.57491C54.4249 4.21001 55.3653 3.10103 56.6477 2.50389C57.4171 3.61287 57.6736 5.06307 57.3316 6.42797C56.9896 7.79287 56.0492 8.90185 54.7668 9.49899C53.9119 8.39001 53.6554 6.93981 54.0829 5.57491ZM45.7902 8.81654C46.9016 8.04879 48.3549 7.79287 49.7228 8.13409C51.0907 8.47532 52.2021 9.41369 52.8005 10.6933C51.6891 11.461 50.2358 11.717 48.8679 11.3757C47.5 11.0345 46.3886 10.0961 45.7902 8.81654ZM40.4041 26.0484C42.0285 28.181 44.5933 29.6312 47.5 29.6312C46.1321 30.9961 44.8497 32.4463 43.8238 34.1525L43.5674 34.579L43.9093 35.0908C45.0207 36.7116 46.2176 38.2472 47.5855 39.6121C47.5855 39.6121 47.5855 39.6121 47.5 39.6121C44.5933 39.6121 42.0285 40.9769 40.4041 43.1949V26.0484V26.0484ZM65.7098 24.001C67.1632 24.001 68.6166 24.1716 70.07 24.4276C70.1554 24.4276 70.2409 24.4276 70.3264 24.5129C76.5674 25.7072 82.1244 29.29 85.8005 34.6643C81.2694 41.3182 73.8316 45.2423 65.7953 45.2423C64.2565 45.2423 62.8031 45.0716 61.3497 44.8157C61.3497 44.8157 61.3497 44.8157 61.2643 44.8157C55.0233 43.6214 49.3808 40.0386 45.7047 34.6643C50.2358 27.9251 57.6736 24.001 65.7098 24.001ZM49.7228 61.1092C48.3549 61.4504 46.9016 61.1945 45.7902 60.4267C46.3886 59.1472 47.5 58.2088 48.8679 57.8676C50.2358 57.5263 51.6891 57.7823 52.8005 58.55C52.2021 59.7443 51.0907 60.768 49.7228 61.1092ZM56.6477 66.6541C55.3653 66.0569 54.4249 64.948 54.0829 63.5831C53.7409 62.2182 53.9974 60.768 54.7668 59.659C56.0492 60.2561 56.9896 61.3651 57.3316 62.73C57.6736 64.0949 57.4171 65.5451 56.6477 66.6541ZM77.4223 63.5831C77.0803 64.948 76.1399 66.0569 74.8575 66.6541C74.0881 65.5451 73.8316 64.0949 74.1736 62.73C74.5155 61.3651 75.456 60.2561 76.7383 59.659C77.5078 60.768 77.7643 62.2182 77.4223 63.5831ZM85.715 60.4267C84.6036 61.1945 83.1503 61.4504 81.7824 61.1092C80.4145 60.768 79.3031 59.8296 78.7047 58.55C79.8161 57.7823 81.2694 57.5263 82.6373 57.8676C84.0052 58.2088 85.1166 59.1472 85.715 60.4267ZM83.9197 55.479C82.2099 55.479 80.5855 54.8818 79.3031 53.6876L78.4482 52.9198L77.9352 54.0288C75.7124 58.7206 71.0104 61.7916 65.7953 61.7916C60.5803 61.7916 55.7927 58.7206 53.6554 54.0288L53.1425 52.9198L52.2876 53.6876C51.0052 54.7965 49.3808 55.479 47.671 55.479C43.7383 55.479 40.5751 52.3227 40.5751 48.3986C40.5751 44.4745 43.7383 41.3182 47.671 41.3182C48.0984 41.3182 48.6114 41.4035 49.0389 41.4888C49.5518 41.5741 50.0648 41.7447 50.4922 42.0006C51.2617 42.5978 52.0311 43.1096 52.886 43.5361C49.8938 43.8774 47.329 45.6688 46.0466 48.3986L47.671 49.1663C48.7824 46.7778 51.1762 45.2423 53.8264 45.2423C56.1347 45.2423 58.3575 46.4365 59.5544 48.3986C58.785 49.1663 58.101 50.1047 57.5881 51.1284L59.2124 51.8961C60.4093 49.3369 63.0596 47.6308 65.8808 47.6308C68.7021 47.6308 71.3523 49.3369 72.5492 51.8961L74.1736 51.1284C73.6606 50.1047 72.9767 49.1663 72.2073 48.3986C73.4042 46.4365 75.6269 45.2423 77.9352 45.2423C80.5855 45.2423 82.9793 46.7778 84.0907 49.1663L85.715 48.3986C84.4326 45.6688 81.8679 43.7921 78.8757 43.5361C79.7306 43.0243 80.5 42.5125 81.2694 42.0006C81.7824 41.83 82.2098 41.6594 82.7228 41.4888C82.9793 41.4035 83.4922 41.4035 83.9197 41.4035C87.8523 41.4035 91.0156 44.5598 91.0156 48.4839C91.0156 52.3227 87.8523 55.479 83.9197 55.479ZM91.0156 43.1096C89.3912 40.9769 86.8264 39.5267 83.9197 39.5267C83.9197 39.5267 83.9197 39.5267 83.8342 39.5267C85.2021 38.1618 86.4845 36.7116 87.5104 35.0055L87.8523 34.4937L87.5104 33.9818C86.399 32.361 85.2021 30.8255 83.8342 29.4606C86.7409 29.4606 89.3057 28.0957 90.9301 25.8778V43.1096H91.0156ZM83.9197 27.8398C83.4922 27.8398 82.9793 27.7545 82.5518 27.6692C82.0389 27.5839 81.6114 27.4133 81.0984 27.2427C80.329 26.6455 79.4741 26.1337 78.7047 25.7072C81.6969 25.3659 84.2617 23.5745 85.544 20.8447L83.9197 20.077C82.8083 22.4655 80.4145 24.001 77.7643 24.001C75.456 24.001 73.2332 22.8067 72.0363 20.8447C72.8057 20.077 73.4896 19.1386 74.0026 18.1149L72.3782 17.2618C71.1814 19.821 68.5311 21.5272 65.7098 21.5272C62.8886 21.5272 60.2383 19.821 59.0415 17.2618L57.4171 18.0296C57.9301 19.0533 58.614 19.9916 59.3834 20.7594C58.1865 22.7214 55.9637 23.9157 53.6554 23.9157C51.0052 23.9157 48.6114 22.3802 47.5 19.9916L45.8757 20.7594C47.158 23.4892 49.7228 25.2806 52.715 25.6218C51.8601 26.1337 51.0907 26.6455 50.3212 27.1574C49.8938 27.328 49.3808 27.4986 48.8679 27.5839C48.4404 27.6692 47.9275 27.7545 47.5 27.7545C43.5674 27.7545 40.4041 24.5982 40.4041 20.6741C40.4041 16.75 43.5674 13.5937 47.5 13.5937C49.2098 13.5937 50.8342 14.1908 52.1166 15.3851L52.9715 16.1529L53.4845 15.0439C55.7073 10.3521 60.4093 7.28103 65.6244 7.28103C70.8394 7.28103 75.627 10.3521 77.7643 15.0439L78.2772 16.1529L79.1321 15.3851C80.4145 14.2761 82.0389 13.5937 83.7487 13.5937C87.6814 13.5937 90.8446 16.75 90.8446 20.6741C91.0155 24.6835 87.8523 27.8398 83.9197 27.8398ZM92.8109 18.0296H94.8627V48.6545C94.0933 48.8251 93.4093 49.081 92.8109 49.5929V18.0296ZM95.7176 55.8202L92.8109 52.9198C92.9819 51.4696 94.1788 50.3606 95.6321 50.3606C97.0855 50.3606 98.3679 51.5549 98.4534 53.0051L95.7176 55.8202ZM98.6244 49.6782C98.0259 49.1663 97.342 48.8251 96.5725 48.7398V18.0296H98.6244V49.6782ZM98.6244 16.3235H92.8109V13.0818H98.6244V16.3235Z" fill="white"/>
<path d="M65.7104 44.1335C71.0109 44.1335 75.2855 39.8682 75.2855 34.5792C75.2855 29.2902 71.0109 25.0249 65.7104 25.0249C60.4099 25.0249 56.1353 29.2902 56.1353 34.5792C56.1353 39.8682 60.4099 44.1335 65.7104 44.1335ZM65.7104 27.0723C69.814 27.0723 73.2337 30.3992 73.2337 34.5792C73.2337 38.7592 69.8995 42.0861 65.7104 42.0861C61.6068 42.0861 58.1871 38.7592 58.1871 34.5792C58.1871 30.3992 61.6068 27.0723 65.7104 27.0723Z" fill="white"/>
<path d="M65.7108 40.0388C68.703 40.0388 71.1823 37.5649 71.1823 34.5792C71.1823 31.5935 68.703 29.1196 65.7108 29.1196C62.7185 29.1196 60.2393 31.5935 60.2393 34.5792C60.2393 37.5649 62.7185 40.0388 65.7108 40.0388ZM65.7108 31.7641C67.2496 31.7641 68.532 33.0437 68.532 34.5792C68.532 36.1147 67.2496 37.3943 65.7108 37.3943C64.1719 37.3943 62.8895 36.1147 62.8895 34.5792C62.8895 33.0437 64.1719 31.7641 65.7108 31.7641Z" fill="white"/>
<path d="M6.49741 75.8672C7.26684 75.8672 7.95078 76.0378 8.63472 76.2937C9.31865 76.5496 9.83161 76.9762 10.3446 77.488C10.8575 77.9998 11.1995 78.597 11.456 79.2794C11.7124 79.9619 11.8834 80.6443 11.8834 81.4121V87.6394C11.8834 88.4072 11.7124 89.0896 11.456 89.7721C11.1995 90.4545 10.772 91.0517 10.3446 91.5635C9.83161 92.0754 9.31865 92.5019 8.63472 92.7578C7.95078 93.0137 7.26684 93.1843 6.49741 93.1843H0C0.0854922 93.0137 0.256477 92.7578 0.341969 92.4166C0.427461 92.1607 0.512953 91.7341 0.598446 91.2223C0.683938 90.7105 0.683938 90.1133 0.683938 89.4309V79.706C0.683938 79.0235 0.683938 78.3411 0.598446 77.9145C0.512953 77.488 0.427461 77.0615 0.341969 76.7202C0.256477 76.379 0.0854922 76.0378 0 75.8672H6.49741ZM2.82124 97.1937C2.39378 97.1937 1.96632 97.279 1.53886 97.3643C1.1114 97.4496 0.76943 97.6203 0.512953 97.7909C0.598446 97.279 0.854922 96.9378 1.19689 96.5966C1.53886 96.2554 1.88083 95.9994 2.2228 95.8288C2.56477 95.6582 2.99223 95.4876 3.3342 95.4023C3.67617 95.317 4.01814 95.2317 4.27461 95.2317C4.70207 95.2317 5.12953 95.2317 5.4715 95.317C5.81347 95.4023 6.15544 95.4876 6.5829 95.5729C6.92487 95.6582 7.26684 95.7435 7.6943 95.8288C8.03627 95.9141 8.54922 95.9141 8.97668 95.9141C9.40415 95.9141 9.74611 95.8288 10.0881 95.6582C10.4301 95.5729 10.6865 95.4023 11.0285 95.2317C10.8575 95.7435 10.6865 96.17 10.3446 96.5113C10.0026 96.8525 9.66062 97.1084 9.31865 97.279C8.97668 97.4496 8.54922 97.6203 8.20725 97.7056C7.86529 97.7909 7.52332 97.7909 7.35233 97.7909C6.92487 97.7909 6.49741 97.7909 6.15544 97.7056C5.81347 97.6203 5.4715 97.5349 5.12953 97.4496C4.78757 97.3643 4.4456 97.279 4.10363 97.1937C3.76166 97.1937 3.3342 97.1084 2.82124 97.1937ZM8.54922 81.4121C8.54922 81.0709 8.46373 80.559 8.37824 80.0472C8.29275 79.5354 8.12176 78.9382 7.77979 78.4264C7.43782 77.9145 7.09586 77.488 6.66839 77.1468C6.15544 76.8056 5.557 76.6349 4.78757 76.6349H3.93264V89.0043C4.18912 88.8337 4.3601 88.7484 4.53109 88.6631C4.87306 88.5778 5.21503 88.5778 5.557 88.6631C5.89896 88.7484 6.15544 89.0043 6.24093 89.3456C5.89896 89.2603 5.557 89.3456 5.30052 89.4309C4.95855 89.5162 4.78757 89.7721 4.53109 89.9427C4.3601 90.1986 4.18912 90.4545 4.18912 90.7958C4.10363 91.137 4.18912 91.3929 4.27461 91.7341C4.3601 91.9047 4.4456 92.0754 4.70207 92.1607C4.95855 92.3313 5.21503 92.4166 5.557 92.4166H5.81347C6.24093 92.4166 6.66839 92.246 7.01036 91.9047C7.35233 91.5635 7.60881 91.137 7.86529 90.6251C8.12176 90.1133 8.20725 89.6015 8.37824 89.0043C8.46373 88.4925 8.54922 87.9807 8.54922 87.6394V81.4121V81.4121Z" fill="white"/>
<path d="M24.1941 97.9616H13.6786C13.7641 97.791 13.9351 97.5351 14.0206 97.1939C14.106 96.9379 14.1915 96.5114 14.277 95.9996C14.3625 95.4877 14.3625 94.8906 14.3625 94.2082V79.7061C14.3625 79.0237 14.3625 78.3412 14.277 77.9147C14.1915 77.4028 14.106 77.0616 14.0206 76.7204C13.9351 76.3792 13.7641 76.1232 13.6786 75.9526H23.8522L23.5957 78.9384H22.9117C22.8263 78.5118 22.7408 78.1706 22.5698 77.9147C22.4843 77.6588 22.3133 77.4028 22.1423 77.2322C21.9713 77.0616 21.6294 76.891 21.2019 76.8057C20.7744 76.7204 20.2615 76.7204 19.5776 76.7204H17.6967V83.4596C18.2952 83.4596 18.8936 83.4596 19.4066 83.4596C19.9195 83.4596 20.347 83.3743 20.7744 83.3743C21.2019 83.289 21.6294 83.2037 21.8858 83.1184C21.8858 83.2037 21.8858 83.3743 21.8858 83.5449C21.8858 83.8008 21.8004 84.0567 21.7149 84.3979C21.6294 84.7392 21.3729 84.9098 21.0309 84.9951C20.689 85.0804 20.347 85.0804 20.005 84.9951L17.6967 84.3126V95.829C17.6967 95.9143 17.6967 96.0849 17.7822 96.2555C17.8677 96.4261 17.9532 96.5967 18.0387 96.682C18.2097 96.8526 18.3807 96.9379 18.6371 97.0233C18.8936 97.1086 19.2356 97.1939 19.5776 97.1939H20.689C21.2019 97.1939 21.5439 97.1086 21.8004 96.9379C22.0568 96.7673 22.3133 96.5114 22.4843 96.2555C22.6553 95.9996 22.8263 95.6584 22.9117 95.2318C22.9972 94.8906 23.0827 94.4641 23.1682 94.1228H23.9377L24.1941 97.9616Z" fill="white"/>
<path d="M28.9817 79.3647C28.9817 80.2178 29.1527 80.9855 29.5802 81.668C30.0076 82.3504 30.5206 83.0329 31.119 83.7153C31.7175 84.3978 32.4014 84.9949 33.0854 85.6774C33.7693 86.3598 34.4532 86.957 35.0517 87.7247C35.6501 88.4072 36.1631 89.1749 36.5905 90.028C37.018 90.881 37.189 91.7341 37.189 92.7578C37.189 94.7198 36.676 96.2553 35.7356 97.3643C34.7952 98.4733 33.3418 98.9851 31.3755 98.9851C30.6916 98.9851 29.9222 98.8998 29.2382 98.7292C28.5543 98.5586 27.9558 98.2174 27.4429 97.7908C26.9299 97.3643 26.5025 96.8525 26.1605 96.3406C25.8185 95.7435 25.733 95.061 25.733 94.2933C25.733 93.6108 25.8185 93.0137 26.075 92.4166C26.3315 91.9047 26.588 91.4782 26.9299 91.137C27.2719 90.7957 27.6994 90.5398 28.1268 90.3692C28.5543 90.1986 28.9817 90.1133 29.3237 90.1133C30.4351 90.1133 31.29 90.3692 31.7175 90.7957C32.2304 91.2223 32.4869 91.8194 32.4869 92.4166C32.1449 92.3312 31.7175 92.2459 31.29 92.2459C30.8626 92.2459 30.5206 92.3312 30.1786 92.5019C29.8367 92.6725 29.4947 92.8431 29.2382 93.099C28.9817 93.3549 28.7253 93.6961 28.6398 94.0374C28.4688 94.4639 28.3833 94.9757 28.4688 95.4876C28.5543 95.9994 28.6398 96.4259 28.8962 96.7672C29.1527 97.1937 29.4947 97.4496 29.8367 97.7055C30.2641 97.9615 30.6916 98.0468 31.29 98.0468C31.8885 98.0468 32.4014 97.9615 32.8289 97.7908C33.2563 97.6202 33.5983 97.3643 33.8548 97.0231C34.1113 96.6819 34.3677 96.3406 34.4532 95.9994C34.5387 95.5729 34.6242 95.2317 34.6242 94.8051C34.6242 93.8668 34.4532 93.0137 34.0258 92.2459C33.5983 91.4782 33.0854 90.7104 32.4869 90.028C31.8885 89.3455 31.2045 88.6631 30.4351 87.9806C29.6657 87.2982 28.9817 86.6157 28.3833 85.9333C27.7848 85.2508 27.2719 84.4831 26.8444 83.63C26.417 82.777 26.246 81.9239 26.246 80.9002C26.246 80.1325 26.417 79.3647 26.6734 78.6823C26.9299 77.9998 27.3574 77.4027 27.8703 76.8908C28.3833 76.379 28.9817 76.0378 29.6657 75.6966C30.3496 75.3553 31.2045 75.27 31.974 75.27C32.9144 75.27 33.6838 75.4406 34.2823 75.6966C34.8807 76.0378 35.3937 76.379 35.8211 76.8055C36.2486 77.2321 36.5051 77.7439 36.676 78.1704C36.847 78.6823 36.9325 79.1088 36.9325 79.5353C36.9325 80.2178 36.847 80.8149 36.5905 81.2414C36.3341 81.7533 36.0776 82.0945 35.7356 82.4357C35.3937 82.777 35.0517 82.9476 34.7097 83.1182C34.3677 83.2888 33.9403 83.3741 33.6838 83.3741C33.2563 83.3741 32.9144 83.2888 32.5724 83.2035C32.2304 83.1182 31.8885 82.9476 31.632 82.777C31.3755 82.6063 31.119 82.3504 30.9481 82.0945C30.7771 81.8386 30.6916 81.5827 30.6916 81.3268C31.0336 81.4121 31.3755 81.4974 31.803 81.4974C32.145 81.4974 32.4869 81.4121 32.8289 81.2414C33.1709 81.0708 33.4273 80.9002 33.6838 80.6443C33.9403 80.3884 34.1113 80.1325 34.2823 79.7912C34.3677 79.5353 34.4532 79.1941 34.4532 78.7676C34.4532 78.341 34.3677 77.9145 34.1968 77.5733C34.0258 77.1468 33.7693 76.8055 33.4273 76.5496C33.0854 76.2937 32.5724 76.1231 31.974 76.1231C31.461 76.1231 31.0336 76.2084 30.6916 76.379C30.3496 76.5496 30.0076 76.8055 29.7512 77.1468C29.4947 77.488 29.3237 77.8292 29.1527 78.1704C28.9817 78.597 28.9817 78.9382 28.9817 79.3647Z" fill="white"/>
<path d="M42.404 94.1228C42.404 94.8906 42.404 95.4877 42.4895 95.9143C42.575 96.4261 42.6605 96.7673 42.746 97.1086C42.8315 97.4498 42.917 97.7057 43.0879 97.8763H38.3859C38.4714 97.7057 38.6423 97.4498 38.7278 97.1086C38.8133 96.8526 38.8988 96.4261 38.9843 95.9143C39.0698 95.4024 39.0698 94.8053 39.0698 94.1228V79.7061C39.0698 79.0237 39.0698 78.3412 38.9843 77.9147C38.8988 77.4881 38.8133 77.0616 38.7278 76.7204C38.6423 76.3792 38.4714 76.1232 38.3859 75.9526H43.0879C42.917 76.1232 42.8315 76.3792 42.746 76.7204C42.6605 76.9763 42.575 77.4028 42.4895 77.9147C42.404 78.4265 42.404 79.0237 42.404 79.7061V94.1228Z" fill="white"/>
<path d="M55.8268 97.961C55.1429 97.961 54.6299 97.8757 54.3734 97.7904C54.1169 97.7051 53.8605 97.5345 53.6895 97.3639C53.262 97.6198 52.7491 97.8757 52.2361 97.961C51.7232 98.1317 51.1247 98.217 50.5263 98.217C49.7568 98.217 48.9874 98.1316 48.389 97.8757C47.705 97.6198 47.1921 97.2786 46.6791 96.8521C46.2517 96.4255 45.8242 95.9137 45.5677 95.4019C45.3112 94.8047 45.1403 94.2076 45.1403 93.6104V80.3027C45.1403 79.6202 45.2258 79.0231 45.4822 78.5112C45.7387 77.9141 46.0807 77.4023 46.5081 76.9757C46.9356 76.5492 47.534 76.208 48.3035 75.9521C48.9874 75.6961 49.8423 75.6108 50.7827 75.6108C51.8087 75.6108 52.6636 75.7815 53.3475 76.0374C54.0315 76.3786 54.5444 76.7198 54.9719 77.1464C55.3138 77.5729 55.6558 78.0847 55.7413 78.5966C55.9123 79.1084 55.9978 79.5349 55.9978 79.9614C55.9978 80.6439 55.9123 81.1557 55.6558 81.6676C55.4848 82.0941 55.2283 82.5206 54.8864 82.7766C54.5444 83.1178 54.2024 83.2884 53.8605 83.459C53.5185 83.6296 53.1765 83.7149 52.8346 83.7149C51.8941 83.7149 51.1247 83.459 50.6118 83.0325C50.0988 82.6059 49.7568 82.0941 49.7568 81.497C50.0988 81.5823 50.4408 81.6676 50.7827 81.6676C51.1247 81.6676 51.4667 81.5823 51.8087 81.4117C52.1506 81.241 52.4071 81.0704 52.6636 80.8998C52.9201 80.6439 53.091 80.388 53.262 80.0468C53.3475 79.7908 53.433 79.4496 53.433 79.0231C53.433 78.5966 53.3475 78.17 53.1765 77.8288C53.0055 77.4023 52.7491 77.061 52.4071 76.8051C52.0651 76.5492 51.5522 76.3786 50.9537 76.3786C50.4408 76.3786 50.0988 76.4639 49.7568 76.6345C49.4149 76.8051 49.2439 76.9757 48.9874 77.2317C48.8164 77.4876 48.6454 77.7435 48.5599 77.9994C48.4745 78.2553 48.4745 78.5113 48.4745 78.7672V94.89C48.4745 95.1459 48.4745 95.4019 48.5599 95.6578C48.6454 95.9137 48.7309 96.2549 48.9019 96.4255C49.0729 96.6814 49.2439 96.8521 49.5004 97.0227C49.7568 97.1933 50.0988 97.2786 50.5263 97.2786C50.9537 97.2786 51.2102 97.1933 51.4667 97.0227C51.7232 96.8521 51.8941 96.6814 52.0651 96.4255C52.2361 96.1696 52.3216 95.9137 52.3216 95.6578C52.4071 95.4019 52.4071 95.0606 52.4071 94.89V89.9423C52.4071 89.2598 52.3216 88.5774 52.3216 88.1508C52.2361 87.639 52.1506 87.2978 52.0651 86.9566C51.9796 86.6153 51.8941 86.3594 51.7232 86.1888H55.7413V97.961H55.8268Z" fill="white"/>
<path d="M69.5054 75.8672C69.4199 76.0378 69.3344 76.2084 69.2489 76.4643C69.1634 76.6349 69.0779 76.8056 69.0779 77.0615C68.9924 77.3174 68.9924 77.5733 68.9924 77.8292V97.9615H67.9665L59.4173 79.7913V95.9994C59.4173 96.2554 59.4173 96.5113 59.5028 96.7672C59.5883 97.0231 59.5883 97.1937 59.6738 97.3643C59.7593 97.5349 59.8447 97.7909 59.9302 97.9615H57.8784C57.9639 97.7909 58.0494 97.6203 58.1349 97.3643C58.2204 97.1937 58.2204 97.0231 58.3059 96.7672C58.3914 96.5113 58.3914 96.2554 58.3914 95.9994V79.2794C58.3914 78.597 58.3059 78.0851 58.2204 77.6586C58.1349 77.2321 58.0494 76.8909 57.9639 76.6349C57.8784 76.2937 57.7929 76.1231 57.6219 75.9525H61.0416L67.881 90.2839V77.8292C67.881 77.5733 67.881 77.3174 67.7955 77.0615C67.71 76.8056 67.71 76.6349 67.6245 76.4643C67.539 76.2937 67.4536 76.0378 67.3681 75.8672H69.5054V75.8672Z" fill="white"/>
<path d="M86.9456 75.9526L86.6892 79.0237H86.0052C85.9197 78.5971 85.8342 78.2559 85.7487 78C85.6633 77.7441 85.4923 77.4881 85.3213 77.3175C85.0648 77.1469 84.8083 76.9763 84.4664 76.891C84.1244 76.8057 83.6114 76.7204 82.9275 76.7204V86.5306H85.0648V87.469H82.9275V94.2082C82.9275 94.8906 82.9275 95.4877 83.013 95.9996C83.013 96.2555 83.0985 96.4261 83.0985 96.682C83.0985 96.938 83.184 97.0233 83.184 97.1939C83.2695 97.6204 83.4404 97.8763 83.5259 97.9616H78.8239C78.9094 97.8763 78.9949 97.7057 78.9949 97.5351C78.9949 97.3645 79.0803 97.2792 79.1658 97.1086C79.1658 96.938 79.2513 96.7673 79.2513 96.5967C79.2513 96.4261 79.3368 96.1702 79.3368 95.9143C79.4223 95.4024 79.4223 94.8053 79.4223 94.1228V87.469H77.285V86.5306H79.5078V76.7204C78.8239 76.7204 78.3109 76.8057 77.9689 76.891C77.627 76.9763 77.3705 77.1469 77.114 77.3175C76.943 77.4881 76.7721 77.7441 76.6866 78C76.6866 78.1706 76.6011 78.3412 76.5156 78.5118C76.4301 78.6824 76.4301 78.853 76.3446 79.109H75.6607L75.4042 76.0379H86.9456V75.9526Z" fill="white"/>
<path d="M99.342 94.4639C99.5985 95.4023 99.855 96.0847 100.111 96.5966C100.368 97.1084 100.71 97.4496 101.223 97.7909C100.966 97.9615 100.624 98.1321 100.197 98.1321C99.7695 98.2174 99.513 98.2174 99.2565 98.2174C98.4871 98.1321 97.8887 97.9615 97.2902 97.5349C96.7773 97.1084 96.3498 96.5113 96.1788 95.6582L94.298 86.3598C93.6996 86.3598 93.1866 86.1039 92.6737 85.7627V94.1227C92.6737 94.8905 92.6737 95.4876 92.7591 95.9141C92.8446 96.426 92.9301 96.7672 93.0156 97.1084C93.1011 97.4496 93.1866 97.7056 93.3576 97.8762H88.6555C88.741 97.7056 88.912 97.4496 88.9975 97.1084C89.083 96.8525 89.1685 96.426 89.254 95.9141C89.3395 95.4023 89.3395 94.8052 89.3395 94.1227V79.6207C89.3395 78.9382 89.3395 78.2558 89.254 77.8292C89.1685 77.4027 89.083 76.9762 88.9975 76.6349C88.912 76.2937 88.741 76.0378 88.6555 75.8672H94.127C94.9819 75.8672 95.7514 75.9525 96.3498 76.1231C97.0337 76.2937 97.6322 76.6349 98.0597 76.9762C98.5726 77.4027 98.9146 77.9145 99.1711 78.5117C99.4275 79.1941 99.5985 79.9619 99.5985 80.9003C99.5985 82.3505 99.2565 83.5447 98.4871 84.4831C97.7177 85.4215 96.6918 86.0186 95.4094 86.1892C95.6659 86.2745 95.9224 86.4451 96.1788 86.6158C96.4353 86.7864 96.6918 87.0423 96.9483 87.2982C97.2047 87.5541 97.4612 87.8954 97.6322 88.3219C97.8887 88.7484 98.0597 89.1749 98.1452 89.7721L99.342 94.4639ZM92.9301 84.9096C93.0156 85.0802 93.1866 85.2509 93.4431 85.4215C93.6996 85.5921 93.956 85.6774 94.298 85.6774C94.7255 85.6774 95.0674 85.5921 95.3239 85.3362C95.5804 85.0802 95.8369 84.739 95.9224 84.3125C96.0933 83.886 96.1788 83.3741 96.2643 82.8623C96.3498 82.2651 96.3498 81.668 96.3498 81.0709C96.3498 80.2178 96.2643 79.6207 96.0933 79.0235C95.9224 78.5117 95.6659 77.9998 95.4094 77.6586C95.1529 77.3174 94.811 77.0615 94.469 76.8909C94.127 76.7202 93.785 76.6349 93.3576 76.6349H92.5882V82.1798C92.7591 82.0092 92.9301 81.9239 93.1866 81.8386C93.4431 81.7533 93.6141 81.7533 93.8705 81.7533C94.127 81.7533 94.298 81.8386 94.469 81.9239C94.64 82.0092 94.811 82.1798 94.8964 82.4358C94.5545 82.3505 94.2125 82.4358 93.956 82.5211C93.6141 82.6064 93.4431 82.8623 93.1866 83.0329C93.0156 83.2888 92.8446 83.5447 92.8446 83.886C92.8446 84.2272 92.8446 84.5684 92.9301 84.9096Z" fill="white"/>
<path d="M105.84 94.1228C105.84 94.8906 105.84 95.4877 105.925 95.9143C106.011 96.3408 106.096 96.7673 106.182 97.1086C106.267 97.4498 106.352 97.7057 106.523 97.8763H101.821C101.907 97.7057 102.078 97.4498 102.163 97.1086C102.249 96.8526 102.334 96.4261 102.42 95.9143C102.505 95.4024 102.505 94.8053 102.505 94.1228V79.7061C102.505 79.0237 102.505 78.3412 102.42 77.9147C102.334 77.4881 102.249 77.0616 102.163 76.7204C102.078 76.3792 101.907 76.1232 101.821 75.9526H106.523C106.352 76.1232 106.267 76.3792 106.182 76.7204C106.096 76.9763 106.011 77.4028 105.925 77.9147C105.84 78.4265 105.84 79.0237 105.84 79.7061V94.1228Z" fill="white"/>
<path d="M116.098 86.0184C116.697 86.189 117.21 86.4449 117.723 86.7862C118.236 87.1274 118.663 87.4686 119.005 87.9805C119.347 88.407 119.689 89.0041 119.86 89.6013C120.117 90.1984 120.202 90.9662 120.202 91.7339C120.202 92.8429 120.031 93.8666 119.689 94.6343C119.347 95.4021 118.92 96.0845 118.321 96.5964C117.723 97.1082 117.039 97.4494 116.355 97.7053C115.586 97.9613 114.731 98.0466 113.876 98.0466H108.148C108.233 97.876 108.404 97.62 108.49 97.2788C108.575 97.0229 108.661 96.5964 108.746 96.0845C108.832 95.5727 108.832 94.9756 108.832 94.2931V79.7911C108.832 79.1086 108.832 78.4262 108.746 77.9996C108.661 77.4878 108.575 77.1466 108.49 76.8054C108.404 76.4641 108.319 76.2082 108.148 76.0376H113.619C114.474 76.0376 115.244 76.1229 115.842 76.2935C116.526 76.4641 117.124 76.8054 117.552 77.1466C118.065 77.5731 118.407 78.0849 118.663 78.6821C118.92 79.3645 119.091 80.1323 119.091 81.0707C119.091 82.3502 118.834 83.3739 118.321 84.227C117.808 85.08 117.124 85.5919 116.098 86.0184ZM112.08 85.5919H113.79C114.218 85.5919 114.56 85.5066 114.816 85.2507C115.073 84.9947 115.329 84.6535 115.415 84.227C115.586 83.8005 115.671 83.2886 115.757 82.7768C115.842 82.1796 115.842 81.5825 115.842 80.9854C115.842 80.1323 115.757 79.5351 115.586 78.938C115.415 78.4262 115.158 77.9143 114.902 77.5731C114.645 77.2319 114.303 76.976 113.961 76.8054C113.619 76.6347 113.277 76.5494 112.85 76.5494H112.08V85.5919V85.5919ZM113.79 97.1935C114.218 97.1935 114.645 97.0229 114.987 96.767C115.329 96.5111 115.671 96.0845 116.013 95.5727C116.269 95.0609 116.526 94.4637 116.697 93.8666C116.868 93.1841 116.953 92.5017 116.953 91.7339C116.953 90.8809 116.782 90.1131 116.526 89.4307C116.269 88.7482 115.927 88.2364 115.586 87.8098C115.158 87.3833 114.731 87.0421 114.303 86.7862C113.79 86.5302 113.363 86.4449 112.85 86.4449H112.08V93.7813C112.251 93.6107 112.508 93.5253 112.679 93.44C113.021 93.3547 113.363 93.3547 113.705 93.44C114.047 93.5253 114.303 93.7813 114.389 94.1225C114.047 94.0372 113.705 94.1225 113.448 94.2078C113.192 94.2931 112.935 94.549 112.679 94.7196C112.508 94.9756 112.337 95.2315 112.337 95.5727C112.251 95.9139 112.337 96.1698 112.422 96.5111C112.508 96.6817 112.679 96.8523 112.85 97.0229C113.192 97.1082 113.448 97.1935 113.79 97.1935Z" fill="white"/>
<path d="M131.999 97.9616H121.484C121.569 97.791 121.74 97.5351 121.826 97.1939C121.911 96.9379 121.997 96.5114 122.082 95.9996C122.168 95.4877 122.168 94.8906 122.168 94.2082V79.7061C122.168 79.0237 122.168 78.3412 122.082 77.9147C121.997 77.4881 121.911 77.0616 121.826 76.7204C121.74 76.3792 121.569 76.1232 121.484 75.9526H131.657L131.401 79.0237H130.717C130.632 78.5971 130.546 78.2559 130.375 78C130.29 77.7441 130.119 77.4881 129.948 77.3175C129.777 77.1469 129.435 76.9763 129.007 76.891C128.58 76.8057 128.067 76.8057 127.383 76.8057H125.502V83.5449C126.1 83.5449 126.699 83.5449 127.212 83.5449C127.725 83.5449 128.152 83.4596 128.58 83.4596C129.007 83.3743 129.435 83.289 129.691 83.2037C129.691 83.289 129.691 83.4596 129.691 83.6302C129.691 83.8861 129.606 84.142 129.52 84.4833C129.435 84.8245 129.178 84.9951 128.836 85.0804C128.494 85.1657 128.152 85.1657 127.81 85.0804L125.502 84.3979V95.9143C125.502 95.9996 125.502 96.1702 125.588 96.3408C125.673 96.5114 125.758 96.682 125.844 96.7673C126.015 96.9379 126.186 97.0233 126.442 97.1086C126.699 97.1939 127.041 97.2792 127.383 97.2792H128.494C129.007 97.2792 129.349 97.1939 129.606 97.0233C129.862 96.8526 130.119 96.5967 130.29 96.3408C130.461 96.0849 130.632 95.7437 130.717 95.3171C130.803 94.9759 130.888 94.5494 130.974 94.2082H131.657L131.999 97.9616Z" fill="white"/>
</svg>
