<svg width="642" height="650" viewBox="0 0 642 650" fill="none" xmlns="http://www.w3.org/2000/svg">
<path d="M556.4 102.093V141.796C543.719 124.78 524.696 112.626 503.296 109.385C513.6 102.093 520.733 91.5596 524.696 78.5954L526.281 73.7338L522.319 69.6825C507.259 55.0978 485.859 50.2362 466.044 55.908C459.704 57.5286 453.363 60.7696 447.815 64.8209C448.607 58.3388 447.815 51.0465 446.23 44.5644C440.681 24.3078 425.622 8.10262 406.6 1.62052L401.052 0L397.089 4.05131C383.615 19.4463 378.859 41.3233 383.615 61.5799C383.615 62.3901 384.407 63.2004 384.407 64.0107C365.385 54.2875 343.985 48.6157 321.793 48.6157C299.6 48.6157 278.2 54.2875 259.178 64.0107C259.178 63.2004 259.97 62.3901 259.97 61.5799C265.519 41.3233 259.97 19.4463 246.496 4.05131L242.533 0L237.778 1.62052C217.963 8.10262 202.904 24.3078 198.148 44.5644C196.563 51.0465 195.77 58.3388 196.563 64.8209C190.222 60.7696 184.674 58.3388 177.541 56.7183C157.726 51.0465 136.326 56.7183 121.267 70.4928L117.304 74.5441L118.889 79.4056C122.852 91.5596 130.778 102.903 140.289 110.196C118.889 113.437 99.8667 125.591 87.1852 142.606V102.903H0V505.603L43.5926 550.168L86.3926 506.413C99.0741 524.239 118.096 536.393 140.289 539.634C129.985 546.927 122.852 557.46 118.889 570.424L117.304 575.286L121.267 579.337C132.363 589.87 147.422 595.542 161.689 595.542C167.237 595.542 171.993 594.732 177.541 593.111C183.881 591.491 190.222 588.25 195.77 584.199C194.978 590.681 195.77 597.973 197.356 604.455C202.904 624.712 217.963 640.917 236.985 647.399L241.741 649.019L245.704 644.968C259.97 629.573 264.726 607.696 259.178 587.44C259.178 586.629 258.385 585.819 258.385 585.009C277.407 594.732 298.807 600.404 321 600.404C343.193 600.404 364.593 594.732 383.615 585.009C383.615 585.819 382.822 586.629 382.822 587.44C377.274 607.696 382.822 629.573 396.296 644.968L400.259 649.019L405.015 647.399C424.83 640.917 439.889 624.712 444.644 604.455C446.23 597.973 447.022 590.681 446.23 584.199C451.778 588.25 458.118 590.681 464.459 593.111C470.007 594.732 474.763 595.542 480.311 595.542C495.37 595.542 509.637 589.87 520.733 579.337L524.696 575.286L523.111 570.424C519.148 558.27 511.222 546.927 501.711 539.634C523.904 536.393 542.926 524.239 555.607 506.413L598.407 550.168L642 505.603V102.093H556.4ZM16.6445 166.914H35.6667V457.798C28.5333 459.418 22.1926 461.849 16.6445 466.711V166.914ZM43.5926 525.86L16.6445 498.311C18.2296 484.536 29.3259 474.003 42.8 474.003C56.2741 474.003 68.163 485.347 68.9556 499.121L43.5926 525.86ZM70.5407 467.521C64.9926 462.659 58.6519 459.418 51.5185 458.608V166.914H70.5407V467.521ZM70.5407 150.709H16.6445V119.919H70.5407V150.709ZM470.007 72.9235C482.689 69.6825 496.163 72.1133 506.467 79.4056C500.919 91.5596 490.615 100.472 477.933 103.713C465.252 106.955 451.778 104.524 441.474 97.2314C447.022 85.0775 458.119 76.1646 470.007 72.9235ZM406.6 20.2565C418.489 25.9284 427.207 36.4618 430.378 49.426C433.548 62.3901 431.17 76.1646 424.037 86.698C412.148 81.0262 403.43 70.4928 400.259 57.5286C396.296 44.5644 398.674 30.7899 406.6 20.2565ZM214 48.6157C217.17 35.6515 225.889 25.1181 237.778 19.4463C244.911 29.9797 247.289 43.7541 244.119 56.7183C240.948 69.6825 232.23 80.2159 220.341 85.8877C212.415 75.3543 210.037 61.5799 214 48.6157ZM137.119 79.4056C147.422 72.1133 160.896 69.6825 173.578 72.9235C186.259 76.1646 196.563 85.0775 202.111 97.2314C191.807 104.524 178.333 106.955 165.652 103.713C152.97 100.472 142.667 91.5596 137.119 79.4056ZM87.1852 243.078C102.244 263.335 126.022 277.109 152.97 277.109C140.289 290.074 128.4 303.848 118.889 320.053L116.511 324.105L119.681 328.966C129.985 344.361 141.081 358.946 153.763 371.91C153.763 371.91 153.763 371.91 152.97 371.91C126.022 371.91 102.244 384.874 87.1852 405.941V243.078ZM321.793 223.632C335.267 223.632 348.741 225.253 362.215 227.684C363.007 227.684 363.8 227.684 364.593 228.494C422.452 239.837 473.97 273.868 508.052 324.915C466.044 388.115 397.089 425.387 322.585 425.387C308.319 425.387 294.844 423.767 281.37 421.336C281.37 421.336 281.37 421.336 280.578 421.336C222.719 409.992 170.407 375.961 136.326 324.915C178.333 260.904 247.289 223.632 321.793 223.632ZM173.578 576.096C160.896 579.337 147.422 576.906 137.119 569.614C142.667 557.46 152.97 548.547 165.652 545.306C178.333 542.065 191.807 544.496 202.111 551.788C196.563 563.132 186.259 572.855 173.578 576.096ZM237.778 628.763C225.889 623.091 217.17 612.558 214 599.594C210.83 586.629 213.207 572.855 220.341 562.322C232.23 567.993 240.948 578.527 244.119 591.491C247.289 604.455 244.911 618.23 237.778 628.763ZM430.378 599.594C427.207 612.558 418.489 623.091 406.6 628.763C399.467 618.23 397.089 604.455 400.259 591.491C403.43 578.527 412.148 567.993 424.037 562.322C431.17 572.855 433.548 586.629 430.378 599.594ZM507.259 569.614C496.956 576.906 483.481 579.337 470.8 576.096C458.119 572.855 447.815 563.942 442.267 551.788C452.57 544.496 466.044 542.065 478.726 545.306C491.407 548.547 501.711 557.46 507.259 569.614ZM490.615 522.619C474.763 522.619 459.704 516.947 447.815 505.603L439.889 498.311L435.133 508.844C414.526 553.409 370.933 582.578 322.585 582.578C274.237 582.578 229.852 553.409 210.037 508.844L205.281 498.311L197.356 505.603C185.467 516.137 170.407 522.619 154.556 522.619C118.096 522.619 88.7704 492.639 88.7704 455.367C88.7704 418.095 118.096 388.115 154.556 388.115C158.519 388.115 163.274 388.926 167.237 389.736C171.993 390.546 176.748 392.167 180.711 394.597C187.844 400.269 194.978 405.131 202.904 409.182C175.163 412.423 151.385 429.439 139.496 455.367L154.556 462.659C164.859 439.972 187.052 425.387 211.622 425.387C233.022 425.387 253.63 436.731 264.726 455.367C257.593 462.659 251.252 471.572 246.496 481.295L261.556 488.588C272.652 464.28 297.222 448.075 323.378 448.075C349.533 448.075 374.104 464.28 385.2 488.588L400.259 481.295C395.504 471.572 389.163 462.659 382.03 455.367C393.126 436.731 413.733 425.387 435.133 425.387C459.704 425.387 481.896 439.972 492.2 462.659L507.259 455.367C495.37 429.439 471.593 411.613 443.852 409.182C451.778 404.32 458.911 399.459 466.044 394.597C470.8 392.977 474.763 391.356 479.518 389.736C481.896 388.926 486.652 388.926 490.615 388.926C527.074 388.926 556.4 418.905 556.4 456.177C556.4 492.639 527.074 522.619 490.615 522.619ZM556.4 405.131C541.341 384.874 517.563 371.1 490.615 371.1C490.615 371.1 490.615 371.1 489.822 371.1C502.504 358.136 514.393 344.361 523.904 328.156L527.074 323.294L523.904 318.433C513.6 303.038 502.504 288.453 489.822 275.489C516.77 275.489 540.548 262.525 555.607 241.458V405.131H556.4ZM490.615 260.094C486.652 260.094 481.896 259.284 477.933 258.473C473.178 257.663 469.215 256.043 464.459 254.422C457.326 248.75 449.4 243.889 442.267 239.837C470.007 236.596 493.785 219.581 505.674 193.652L490.615 186.36C480.311 209.047 458.119 223.632 433.548 223.632C412.148 223.632 391.541 212.289 380.444 193.652C387.578 186.36 393.919 177.447 398.674 167.724L383.615 159.622C372.519 183.929 347.948 200.135 321.793 200.135C295.637 200.135 271.067 183.929 259.97 159.622L244.911 166.914C249.667 176.637 256.007 185.55 263.141 192.842C252.044 211.478 231.437 222.822 210.037 222.822C185.467 222.822 163.274 208.237 152.97 185.55L137.911 192.842C149.8 218.771 173.578 235.786 201.319 239.027C193.393 243.889 186.259 248.75 179.126 253.612C175.163 255.232 170.407 256.853 165.652 257.663C161.689 258.473 156.933 259.284 152.97 259.284C116.511 259.284 87.1852 229.304 87.1852 192.032C87.1852 154.76 116.511 124.78 152.97 124.78C168.822 124.78 183.881 130.452 195.77 141.796L203.696 149.088L208.452 138.555C229.059 93.9903 272.652 64.8209 321 64.8209C369.348 64.8209 413.733 93.9903 433.548 138.555L438.304 149.088L446.23 141.796C458.119 131.262 473.178 124.78 489.03 124.78C525.489 124.78 554.815 154.76 554.815 192.032C556.4 230.114 527.074 260.094 490.615 260.094ZM573.044 166.914H592.067V457.798C584.933 459.418 578.593 461.849 573.044 466.711V166.914ZM599.993 525.86L573.044 498.311C574.63 484.536 585.726 474.003 599.2 474.003C612.674 474.003 624.563 485.347 625.356 499.121L599.993 525.86ZM626.941 467.521C621.393 462.659 615.052 459.418 607.919 458.608V166.914H626.941V467.521ZM626.941 150.709H573.044V119.919H626.941V150.709Z" fill="#F9F9F9"/>
<path d="M321.791 414.854C370.931 414.854 410.561 374.34 410.561 324.104C410.561 273.868 370.931 233.355 321.791 233.355C272.65 233.355 233.02 273.868 233.02 324.104C233.02 374.34 272.65 414.854 321.791 414.854ZM321.791 252.801C359.835 252.801 391.539 284.401 391.539 324.104C391.539 363.807 360.628 395.407 321.791 395.407C283.746 395.407 252.043 363.807 252.043 324.104C252.043 284.401 283.746 252.801 321.791 252.801Z" fill="#F9F9F9"/>
<path d="M321.793 375.962C349.534 375.962 372.519 352.464 372.519 324.105C372.519 295.746 349.534 272.248 321.793 272.248C294.052 272.248 271.067 295.746 271.067 324.105C271.067 352.464 294.052 375.962 321.793 375.962ZM321.793 297.366C336.06 297.366 347.949 309.52 347.949 324.105C347.949 338.69 336.06 350.844 321.793 350.844C307.526 350.844 295.638 338.69 295.638 324.105C295.638 309.52 307.526 297.366 321.793 297.366Z" fill="#F9F9F9"/>
</svg>
