<svg width="64" height="64" viewBox="0 0 64 64" fill="none" xmlns="http://www.w3.org/2000/svg">
<path d="M46.6132 17.4668L39.0398 9.89342C38.7919 9.64348 38.497 9.44509 38.172 9.30971C37.8471 9.17433 37.4985 9.10463 37.1465 9.10463C36.7945 9.10463 36.4459 9.17433 36.121 9.30971C35.796 9.44509 35.5011 9.64348 35.2532 9.89342C34.7565 10.3931 34.4777 11.0689 34.4777 11.7734C34.4777 12.4779 34.7565 13.1538 35.2532 13.6534L40.9065 19.3068L19.3065 40.9067L13.6532 35.2534C13.1535 34.7568 12.4777 34.478 11.7732 34.478C11.0687 34.478 10.3928 34.7568 9.89318 35.2534C9.64323 35.5013 9.44485 35.7963 9.30947 36.1212C9.17408 36.4462 9.10438 36.7947 9.10438 37.1468C9.10438 37.4988 9.17408 37.8473 9.30947 38.1723C9.44485 38.4972 9.64323 38.7922 9.89318 39.0401L17.3865 46.5334L24.8798 54.0268C25.1268 54.2787 25.4213 54.4792 25.7463 54.6165C26.0713 54.7538 26.4204 54.8253 26.7732 54.8267C27.3028 54.8298 27.8214 54.6751 28.2628 54.3823C28.7042 54.0895 29.0484 53.6719 29.2515 53.1827C29.4546 52.6935 29.5074 52.1549 29.4033 51.6356C29.2991 51.1163 29.0426 50.6397 28.6665 50.2668L23.0932 44.6934L44.6932 23.0934L50.3465 28.7468C50.5951 28.9936 50.89 29.1891 51.2142 29.3221C51.5384 29.455 51.8856 29.5228 52.2359 29.5216C52.5863 29.5203 52.933 29.4501 53.2563 29.3149C53.5795 29.1796 53.873 28.9821 54.1198 28.7334C54.3667 28.4848 54.5622 28.19 54.6952 27.8658C54.8281 27.5416 54.8959 27.1944 54.8947 26.844C54.8934 26.4936 54.8232 26.1469 54.688 25.8237C54.5527 25.5004 54.3551 25.207 54.1065 24.9601L46.6132 17.4668ZM9.89318 46.5601C9.39103 46.0579 8.70998 45.7758 7.99984 45.7758C7.28971 45.7758 6.60865 46.0579 6.10651 46.5601C5.60437 47.0622 5.32227 47.7433 5.32227 48.4534C5.32227 49.1636 5.60437 49.8446 6.10651 50.3467L13.6532 57.8934C13.9024 58.1406 14.1979 58.3361 14.5228 58.4688C14.8477 58.6015 15.1956 58.6688 15.5465 58.6667C15.8975 58.6688 16.2454 58.6015 16.5703 58.4688C16.8952 58.3361 17.1907 58.1406 17.4398 57.8934C17.6898 57.6455 17.8882 57.3506 18.0236 57.0256C18.1589 56.7007 18.2286 56.3521 18.2286 56.0001C18.2286 55.6481 18.1589 55.2995 18.0236 54.9745C17.8882 54.6496 17.6898 54.3547 17.4398 54.1068L9.89318 46.5601ZM57.8932 13.6534L50.3465 6.10675C50.0979 5.85812 49.8027 5.66089 49.4778 5.52633C49.153 5.39177 48.8048 5.32251 48.4532 5.32251C48.1016 5.32251 47.7534 5.39177 47.4285 5.52633C47.1037 5.66089 46.8085 5.85812 46.5598 6.10675C46.3112 6.35539 46.114 6.65056 45.9794 6.97542C45.8449 7.30028 45.7756 7.64846 45.7756 8.00009C45.7756 8.35171 45.8449 8.69989 45.9794 9.02475C46.114 9.34961 46.3112 9.64478 46.5598 9.89342L54.1065 17.4401C54.3544 17.69 54.6493 17.8884 54.9743 18.0238C55.2993 18.1592 55.6478 18.2289 55.9998 18.2289C56.3519 18.2289 56.7004 18.1592 57.0254 18.0238C57.3503 17.8884 57.6453 17.69 57.8932 17.4401C58.1431 17.1922 58.3415 16.8972 58.4769 16.5723C58.6123 16.2473 58.682 15.8988 58.682 15.5468C58.682 15.1947 58.6123 14.8462 58.4769 14.5212C58.3415 14.1963 58.1431 13.9013 57.8932 13.6534Z" fill="#006A4E"/>
</svg>
