<svg width="64" height="64" viewBox="0 0 64 64" fill="none" xmlns="http://www.w3.org/2000/svg">
<path d="M37.3333 21.3333H39.9999C40.7072 21.3333 41.3854 21.0523 41.8855 20.5522C42.3856 20.0521 42.6666 19.3738 42.6666 18.6666C42.6666 17.9593 42.3856 17.2811 41.8855 16.781C41.3854 16.2809 40.7072 15.9999 39.9999 15.9999H37.3333C36.626 15.9999 35.9477 16.2809 35.4476 16.781C34.9475 17.2811 34.6666 17.9593 34.6666 18.6666C34.6666 19.3738 34.9475 20.0521 35.4476 20.5522C35.9477 21.0523 36.626 21.3333 37.3333 21.3333ZM37.3333 31.9999H39.9999C40.7072 31.9999 41.3854 31.719 41.8855 31.2189C42.3856 30.7188 42.6666 30.0405 42.6666 29.3333C42.6666 28.626 42.3856 27.9477 41.8855 27.4476C41.3854 26.9475 40.7072 26.6666 39.9999 26.6666H37.3333C36.626 26.6666 35.9477 26.9475 35.4476 27.4476C34.9475 27.9477 34.6666 28.626 34.6666 29.3333C34.6666 30.0405 34.9475 30.7188 35.4476 31.2189C35.9477 31.719 36.626 31.9999 37.3333 31.9999ZM23.9999 21.3333H26.6666C27.3738 21.3333 28.0521 21.0523 28.5522 20.5522C29.0523 20.0521 29.3333 19.3738 29.3333 18.6666C29.3333 17.9593 29.0523 17.2811 28.5522 16.781C28.0521 16.2809 27.3738 15.9999 26.6666 15.9999H23.9999C23.2927 15.9999 22.6144 16.2809 22.1143 16.781C21.6142 17.2811 21.3333 17.9593 21.3333 18.6666C21.3333 19.3738 21.6142 20.0521 22.1143 20.5522C22.6144 21.0523 23.2927 21.3333 23.9999 21.3333ZM23.9999 31.9999H26.6666C27.3738 31.9999 28.0521 31.719 28.5522 31.2189C29.0523 30.7188 29.3333 30.0405 29.3333 29.3333C29.3333 28.626 29.0523 27.9477 28.5522 27.4476C28.0521 26.9475 27.3738 26.6666 26.6666 26.6666H23.9999C23.2927 26.6666 22.6144 26.9475 22.1143 27.4476C21.6142 27.9477 21.3333 28.626 21.3333 29.3333C21.3333 30.0405 21.6142 30.7188 22.1143 31.2189C22.6144 31.719 23.2927 31.9999 23.9999 31.9999ZM55.9999 53.3333H53.3333V7.99992C53.3333 7.29267 53.0523 6.6144 52.5522 6.1143C52.0521 5.6142 51.3738 5.33325 50.6666 5.33325H13.3333C12.626 5.33325 11.9477 5.6142 11.4476 6.1143C10.9475 6.6144 10.6666 7.29267 10.6666 7.99992V53.3333H7.99992C7.29267 53.3333 6.6144 53.6142 6.1143 54.1143C5.6142 54.6144 5.33325 55.2927 5.33325 55.9999C5.33325 56.7072 5.6142 57.3854 6.1143 57.8855C6.6144 58.3856 7.29267 58.6666 7.99992 58.6666H55.9999C56.7072 58.6666 57.3854 58.3856 57.8855 57.8855C58.3856 57.3854 58.6666 56.7072 58.6666 55.9999C58.6666 55.2927 58.3856 54.6144 57.8855 54.1143C57.3854 53.6142 56.7072 53.3333 55.9999 53.3333ZM34.6666 53.3333H29.3333V42.6666H34.6666V53.3333ZM47.9999 53.3333H39.9999V39.9999C39.9999 39.2927 39.719 38.6144 39.2189 38.1143C38.7188 37.6142 38.0405 37.3333 37.3333 37.3333H26.6666C25.9593 37.3333 25.2811 37.6142 24.781 38.1143C24.2809 38.6144 23.9999 39.2927 23.9999 39.9999V53.3333H15.9999V10.6666H47.9999V53.3333Z" fill="#006A4E"/>
</svg>
