<svg width="64" height="64" viewBox="0 0 64 64" fill="none" xmlns="http://www.w3.org/2000/svg">
<path d="M9.65342 46.0799C9.9151 46.7377 10.4273 47.2645 11.0775 47.5446C11.7276 47.8246 12.4623 47.8349 13.1201 47.5733C13.7778 47.3116 14.3047 46.7993 14.5847 46.1492C14.8648 45.4991 14.8751 44.7643 14.6134 44.1066L11.6267 36.5866L29.3334 32.6666V45.3333C29.3334 46.0405 29.6144 46.7188 30.1145 47.2189C30.6146 47.719 31.2928 47.9999 32.0001 47.9999C32.7073 47.9999 33.3856 47.719 33.8857 47.2189C34.3858 46.7188 34.6668 46.0405 34.6668 45.3333V32.6666L52.3734 36.5866L49.3867 44.1066C49.2569 44.4322 49.1924 44.7803 49.1972 45.1309C49.202 45.4814 49.2758 45.8276 49.4145 46.1496C49.5532 46.4716 49.7541 46.7631 50.0056 47.0074C50.257 47.2516 50.5542 47.4439 50.8801 47.5733C51.1942 47.6974 51.529 47.7607 51.8668 47.7599C52.4008 47.7604 52.9228 47.6006 53.3649 47.301C53.8071 47.0015 54.1491 46.5761 54.3467 46.0799L58.4801 35.6533C58.622 35.2926 58.6835 34.9054 58.6605 34.5185C58.6375 34.1317 58.5304 33.7545 58.3467 33.4133C58.1686 33.0732 57.9191 32.7757 57.6153 32.541C57.3116 32.3063 56.9607 32.1399 56.5867 32.0533L48.0001 30.1599V18.6666C48.0001 17.9593 47.7191 17.2811 47.219 16.781C46.7189 16.2809 46.0407 15.9999 45.3334 15.9999H40.0001V7.99992C40.0001 7.29267 39.7191 6.6144 39.219 6.1143C38.7189 5.6142 38.0407 5.33325 37.3334 5.33325H26.6668C25.9595 5.33325 25.2812 5.6142 24.7811 6.1143C24.281 6.6144 24.0001 7.29267 24.0001 7.99992V15.9999H18.6667C17.9595 15.9999 17.2812 16.2809 16.7811 16.781C16.281 17.2811 16.0001 17.9593 16.0001 18.6666V30.1599L7.41342 31.9999C7.03945 32.0866 6.68861 32.2529 6.38485 32.4877C6.0811 32.7224 5.8316 33.0199 5.65342 33.3599C5.46976 33.7012 5.36269 34.0784 5.33967 34.4652C5.31664 34.8521 5.37821 35.2393 5.52008 35.5999L9.65342 46.0799ZM29.3334 10.6666H34.6668V15.9999H29.3334V10.6666ZM21.3334 21.3333H42.6668V28.9599L32.5868 26.6666H32.3201H32.0001H31.6801H31.4134L21.3334 28.9599V21.3333ZM55.2267 51.4133C54.2911 51.7 53.3952 52.1031 52.5601 52.6133C51.7106 53.11 50.7442 53.3719 49.7601 53.3719C48.776 53.3719 47.8096 53.11 46.9601 52.6133C45.1128 51.5711 43.0277 51.0236 40.9068 51.0236C38.7858 51.0236 36.7007 51.5711 34.8534 52.6133C33.9923 53.1043 33.0181 53.3625 32.0268 53.3625C31.0354 53.3625 30.0612 53.1043 29.2001 52.6133C27.3511 51.5761 25.2667 51.0314 23.1468 51.0314C21.0268 51.0314 18.9424 51.5761 17.0934 52.6133C16.2439 53.11 15.2775 53.3719 14.2934 53.3719C13.3093 53.3719 12.3429 53.11 11.4934 52.6133C10.6583 52.1031 9.7624 51.7 8.82675 51.4133C8.47193 51.2871 8.09441 51.2375 7.71905 51.2678C7.34369 51.2981 6.979 51.4075 6.64898 51.5889C6.31896 51.7703 6.0311 52.0195 5.80435 52.3202C5.5776 52.6208 5.4171 52.9661 5.33342 53.3333C5.13434 54.0087 5.21046 54.7354 5.54518 55.3549C5.8799 55.9743 6.44605 56.4363 7.12008 56.6399C7.65705 56.7854 8.16934 57.0101 8.64008 57.3066C10.258 58.2559 12.0976 58.7618 13.9734 58.7733C15.9217 58.7736 17.8354 58.2584 19.5201 57.2799C20.5654 56.7033 21.7397 56.4009 22.9334 56.4009C24.1272 56.4009 25.3015 56.7033 26.3468 57.2799C28.0196 58.2364 29.9131 58.7396 31.8401 58.7396C33.767 58.7396 35.6606 58.2364 37.3334 57.2799C38.3787 56.7033 39.553 56.4009 40.7467 56.4009C41.9405 56.4009 43.1148 56.7033 44.1601 57.2799C45.8129 58.2664 47.7019 58.7873 49.6268 58.7873C51.5516 58.7873 53.4406 58.2664 55.0934 57.2799C55.5642 56.9834 56.0764 56.7587 56.6134 56.6133C56.9683 56.5415 57.3048 56.3982 57.6025 56.1921C57.9002 55.986 58.1528 55.7214 58.345 55.4145C58.5371 55.1076 58.6647 54.7648 58.72 54.407C58.7753 54.0492 58.7572 53.6838 58.6667 53.3333C58.582 52.9724 58.4229 52.6331 58.1997 52.3371C57.9765 52.0412 57.694 51.795 57.3703 51.6143C57.0466 51.4337 56.6888 51.3225 56.3197 51.2878C55.9507 51.2532 55.5784 51.2959 55.2267 51.4133Z" fill="#006A4E"/>
</svg>
