<svg width="1164" height="316" viewBox="0 0 1164 316" fill="none" xmlns="http://www.w3.org/2000/svg">
<path d="M608.016 108.336H613.536V111H604.656V94.248H608.016V108.336ZM621.576 111.216C620.296 111.216 619.144 110.936 618.12 110.376C617.096 109.8 616.288 108.992 615.696 107.952C615.12 106.912 614.832 105.712 614.832 104.352C614.832 102.992 615.128 101.792 615.72 100.752C616.328 99.712 617.152 98.912 618.192 98.352C619.232 97.776 620.392 97.488 621.672 97.488C622.952 97.488 624.112 97.776 625.152 98.352C626.192 98.912 627.008 99.712 627.6 100.752C628.208 101.792 628.512 102.992 628.512 104.352C628.512 105.712 628.2 106.912 627.576 107.952C626.968 108.992 626.136 109.8 625.08 110.376C624.04 110.936 622.872 111.216 621.576 111.216ZM621.576 108.288C622.184 108.288 622.752 108.144 623.28 107.856C623.824 107.552 624.256 107.104 624.576 106.512C624.896 105.92 625.056 105.2 625.056 104.352C625.056 103.088 624.72 102.12 624.048 101.448C623.392 100.76 622.584 100.416 621.624 100.416C620.664 100.416 619.856 100.76 619.2 101.448C618.56 102.12 618.24 103.088 618.24 104.352C618.24 105.616 618.552 106.592 619.176 107.28C619.816 107.952 620.616 108.288 621.576 108.288ZM636.184 97.488C637.176 97.488 638.048 97.688 638.8 98.088C639.552 98.472 640.144 98.976 640.576 99.6V97.704H643.96V111.096C643.96 112.328 643.712 113.424 643.216 114.384C642.72 115.36 641.976 116.128 640.984 116.688C639.992 117.264 638.792 117.552 637.384 117.552C635.496 117.552 633.944 117.112 632.728 116.232C631.528 115.352 630.848 114.152 630.688 112.632H634.024C634.2 113.24 634.576 113.72 635.152 114.072C635.744 114.44 636.456 114.624 637.288 114.624C638.264 114.624 639.056 114.328 639.664 113.736C640.272 113.16 640.576 112.28 640.576 111.096V109.032C640.144 109.656 639.544 110.176 638.776 110.592C638.024 111.008 637.16 111.216 636.184 111.216C635.064 111.216 634.04 110.928 633.112 110.352C632.184 109.776 631.448 108.968 630.904 107.928C630.376 106.872 630.112 105.664 630.112 104.304C630.112 102.96 630.376 101.768 630.904 100.728C631.448 99.688 632.176 98.888 633.088 98.328C634.016 97.768 635.048 97.488 636.184 97.488ZM640.576 104.352C640.576 103.536 640.416 102.84 640.096 102.264C639.776 101.672 639.344 101.224 638.8 100.92C638.256 100.6 637.672 100.44 637.048 100.44C636.424 100.44 635.848 100.592 635.32 100.896C634.792 101.2 634.36 101.648 634.024 102.24C633.704 102.816 633.544 103.504 633.544 104.304C633.544 105.104 633.704 105.808 634.024 106.416C634.36 107.008 634.792 107.464 635.32 107.784C635.864 108.104 636.44 108.264 637.048 108.264C637.672 108.264 638.256 108.112 638.8 107.808C639.344 107.488 639.776 107.04 640.096 106.464C640.416 105.872 640.576 105.168 640.576 104.352ZM648.946 96.12C648.354 96.12 647.858 95.936 647.458 95.568C647.074 95.184 646.882 94.712 646.882 94.152C646.882 93.592 647.074 93.128 647.458 92.76C647.858 92.376 648.354 92.184 648.946 92.184C649.538 92.184 650.026 92.376 650.41 92.76C650.81 93.128 651.01 93.592 651.01 94.152C651.01 94.712 650.81 95.184 650.41 95.568C650.026 95.936 649.538 96.12 648.946 96.12ZM650.602 97.704V111H647.242V97.704H650.602ZM659.01 111.216C657.922 111.216 656.946 111.024 656.082 110.64C655.218 110.24 654.53 109.704 654.018 109.032C653.522 108.36 653.25 107.616 653.202 106.8H656.586C656.65 107.312 656.898 107.736 657.33 108.072C657.778 108.408 658.33 108.576 658.986 108.576C659.626 108.576 660.122 108.448 660.474 108.192C660.842 107.936 661.026 107.608 661.026 107.208C661.026 106.776 660.802 106.456 660.354 106.248C659.922 106.024 659.226 105.784 658.266 105.528C657.274 105.288 656.458 105.04 655.818 104.784C655.194 104.528 654.65 104.136 654.186 103.608C653.738 103.08 653.514 102.368 653.514 101.472C653.514 100.736 653.722 100.064 654.138 99.456C654.57 98.848 655.178 98.368 655.962 98.016C656.762 97.664 657.698 97.488 658.77 97.488C660.354 97.488 661.618 97.888 662.562 98.688C663.506 99.472 664.026 100.536 664.122 101.88H660.906C660.858 101.352 660.634 100.936 660.234 100.632C659.85 100.312 659.33 100.152 658.674 100.152C658.066 100.152 657.594 100.264 657.258 100.488C656.938 100.712 656.778 101.024 656.778 101.424C656.778 101.872 657.002 102.216 657.45 102.456C657.898 102.68 658.594 102.912 659.538 103.152C660.498 103.392 661.29 103.64 661.914 103.896C662.538 104.152 663.074 104.552 663.522 105.096C663.986 105.624 664.226 106.328 664.242 107.208C664.242 107.976 664.026 108.664 663.594 109.272C663.178 109.88 662.57 110.36 661.77 110.712C660.986 111.048 660.066 111.216 659.01 111.216ZM670.912 100.464V106.896C670.912 107.344 671.016 107.672 671.224 107.88C671.448 108.072 671.816 108.168 672.328 108.168H673.888V111H671.776C668.944 111 667.528 109.624 667.528 106.872V100.464H665.944V97.704H667.528V94.416H670.912V97.704H673.888V100.464H670.912ZM678.008 96.12C677.416 96.12 676.92 95.936 676.52 95.568C676.136 95.184 675.944 94.712 675.944 94.152C675.944 93.592 676.136 93.128 676.52 92.76C676.92 92.376 677.416 92.184 678.008 92.184C678.6 92.184 679.088 92.376 679.472 92.76C679.872 93.128 680.072 93.592 680.072 94.152C680.072 94.712 679.872 95.184 679.472 95.568C679.088 95.936 678.6 96.12 678.008 96.12ZM679.664 97.704V111H676.304V97.704H679.664ZM682.12 104.352C682.12 102.976 682.4 101.776 682.96 100.752C683.52 99.712 684.296 98.912 685.288 98.352C686.28 97.776 687.416 97.488 688.696 97.488C690.344 97.488 691.704 97.904 692.776 98.736C693.864 99.552 694.592 100.704 694.96 102.192H691.336C691.144 101.616 690.816 101.168 690.352 100.848C689.904 100.512 689.344 100.344 688.672 100.344C687.712 100.344 686.952 100.696 686.392 101.4C685.832 102.088 685.552 103.072 685.552 104.352C685.552 105.616 685.832 106.6 686.392 107.304C686.952 107.992 687.712 108.336 688.672 108.336C690.032 108.336 690.92 107.728 691.336 106.512H694.96C694.592 107.952 693.864 109.096 692.776 109.944C691.688 110.792 690.328 111.216 688.696 111.216C687.416 111.216 686.28 110.936 685.288 110.376C684.296 109.8 683.52 109 682.96 107.976C682.4 106.936 682.12 105.728 682.12 104.352ZM702.51 111.216C701.422 111.216 700.446 111.024 699.582 110.64C698.718 110.24 698.03 109.704 697.518 109.032C697.022 108.36 696.75 107.616 696.702 106.8H700.086C700.15 107.312 700.398 107.736 700.83 108.072C701.278 108.408 701.83 108.576 702.486 108.576C703.126 108.576 703.622 108.448 703.974 108.192C704.342 107.936 704.526 107.608 704.526 107.208C704.526 106.776 704.302 106.456 703.854 106.248C703.422 106.024 702.726 105.784 701.766 105.528C700.774 105.288 699.958 105.04 699.318 104.784C698.694 104.528 698.15 104.136 697.686 103.608C697.238 103.08 697.014 102.368 697.014 101.472C697.014 100.736 697.222 100.064 697.638 99.456C698.07 98.848 698.678 98.368 699.462 98.016C700.262 97.664 701.198 97.488 702.27 97.488C703.854 97.488 705.118 97.888 706.062 98.688C707.006 99.472 707.526 100.536 707.622 101.88H704.406C704.358 101.352 704.134 100.936 703.734 100.632C703.35 100.312 702.83 100.152 702.174 100.152C701.566 100.152 701.094 100.264 700.758 100.488C700.438 100.712 700.278 101.024 700.278 101.424C700.278 101.872 700.502 102.216 700.95 102.456C701.398 102.68 702.094 102.912 703.038 103.152C703.998 103.392 704.79 103.64 705.414 103.896C706.038 104.152 706.574 104.552 707.022 105.096C707.486 105.624 707.726 106.328 707.742 107.208C707.742 107.976 707.526 108.664 707.094 109.272C706.678 109.88 706.07 110.36 705.27 110.712C704.486 111.048 703.566 111.216 702.51 111.216Z" fill="black"/>
<path d="M598.296 301L594.6 294.472H593.016V301H589.656V284.248H595.944C597.24 284.248 598.344 284.48 599.256 284.944C600.168 285.392 600.848 286.008 601.296 286.792C601.76 287.56 601.992 288.424 601.992 289.384C601.992 290.488 601.672 291.488 601.032 292.384C600.392 293.264 599.44 293.872 598.176 294.208L602.184 301H598.296ZM593.016 291.952H595.824C596.736 291.952 597.416 291.736 597.864 291.304C598.312 290.856 598.536 290.24 598.536 289.456C598.536 288.688 598.312 288.096 597.864 287.68C597.416 287.248 596.736 287.032 595.824 287.032H593.016V291.952ZM617.391 294.064C617.391 294.544 617.359 294.976 617.295 295.36H607.575C607.655 296.32 607.991 297.072 608.583 297.616C609.175 298.16 609.903 298.432 610.767 298.432C612.015 298.432 612.903 297.896 613.431 296.824H617.055C616.671 298.104 615.935 299.16 614.847 299.992C613.759 300.808 612.423 301.216 610.839 301.216C609.559 301.216 608.407 300.936 607.383 300.376C606.375 299.8 605.583 298.992 605.007 297.952C604.447 296.912 604.167 295.712 604.167 294.352C604.167 292.976 604.447 291.768 605.007 290.728C605.567 289.688 606.351 288.888 607.359 288.328C608.367 287.768 609.527 287.488 610.839 287.488C612.103 287.488 613.231 287.76 614.223 288.304C615.231 288.848 616.007 289.624 616.551 290.632C617.111 291.624 617.391 292.768 617.391 294.064ZM613.911 293.104C613.895 292.24 613.583 291.552 612.975 291.04C612.367 290.512 611.623 290.248 610.743 290.248C609.911 290.248 609.207 290.504 608.631 291.016C608.071 291.512 607.727 292.208 607.599 293.104H613.911ZM618.979 294.304C618.979 292.96 619.243 291.768 619.771 290.728C620.316 289.688 621.044 288.888 621.956 288.328C622.884 287.768 623.916 287.488 625.052 287.488C626.044 287.488 626.908 287.688 627.644 288.088C628.396 288.488 628.996 288.992 629.444 289.6V287.704H632.828V301H629.444V299.056C629.012 299.68 628.412 300.2 627.644 300.616C626.892 301.016 626.02 301.216 625.028 301.216C623.908 301.216 622.884 300.928 621.956 300.352C621.044 299.776 620.316 298.968 619.771 297.928C619.243 296.872 618.979 295.664 618.979 294.304ZM629.444 294.352C629.444 293.536 629.284 292.84 628.964 292.264C628.644 291.672 628.212 291.224 627.668 290.92C627.124 290.6 626.54 290.44 625.916 290.44C625.292 290.44 624.716 290.592 624.188 290.896C623.66 291.2 623.228 291.648 622.892 292.24C622.572 292.816 622.412 293.504 622.412 294.304C622.412 295.104 622.572 295.808 622.892 296.416C623.228 297.008 623.66 297.464 624.188 297.784C624.732 298.104 625.308 298.264 625.916 298.264C626.54 298.264 627.124 298.112 627.668 297.808C628.212 297.488 628.644 297.04 628.964 296.464C629.284 295.872 629.444 295.168 629.444 294.352ZM639.469 283.24V301H636.109V283.24H639.469ZM651.868 286.96V291.16H657.508V293.824H651.868V298.264H658.228V301H648.508V284.224H658.228V286.96H651.868ZM666.369 301.216C665.281 301.216 664.305 301.024 663.441 300.64C662.577 300.24 661.889 299.704 661.377 299.032C660.881 298.36 660.609 297.616 660.561 296.8H663.945C664.009 297.312 664.257 297.736 664.689 298.072C665.137 298.408 665.689 298.576 666.345 298.576C666.985 298.576 667.481 298.448 667.833 298.192C668.201 297.936 668.385 297.608 668.385 297.208C668.385 296.776 668.161 296.456 667.713 296.248C667.281 296.024 666.585 295.784 665.625 295.528C664.633 295.288 663.817 295.04 663.177 294.784C662.553 294.528 662.009 294.136 661.545 293.608C661.097 293.08 660.873 292.368 660.873 291.472C660.873 290.736 661.081 290.064 661.497 289.456C661.929 288.848 662.537 288.368 663.321 288.016C664.121 287.664 665.057 287.488 666.129 287.488C667.713 287.488 668.977 287.888 669.921 288.688C670.865 289.472 671.385 290.536 671.481 291.88H668.265C668.217 291.352 667.993 290.936 667.593 290.632C667.209 290.312 666.689 290.152 666.033 290.152C665.425 290.152 664.953 290.264 664.617 290.488C664.297 290.712 664.137 291.024 664.137 291.424C664.137 291.872 664.361 292.216 664.809 292.456C665.257 292.68 665.953 292.912 666.897 293.152C667.857 293.392 668.649 293.64 669.273 293.896C669.897 294.152 670.433 294.552 670.881 295.096C671.345 295.624 671.585 296.328 671.601 297.208C671.601 297.976 671.385 298.664 670.953 299.272C670.537 299.88 669.929 300.36 669.129 300.712C668.345 301.048 667.425 301.216 666.369 301.216ZM678.271 290.464V296.896C678.271 297.344 678.375 297.672 678.583 297.88C678.807 298.072 679.175 298.168 679.687 298.168H681.247V301H679.135C676.303 301 674.887 299.624 674.887 296.872V290.464H673.303V287.704H674.887V284.416H678.271V287.704H681.247V290.464H678.271ZM682.8 294.304C682.8 292.96 683.064 291.768 683.592 290.728C684.136 289.688 684.864 288.888 685.776 288.328C686.704 287.768 687.736 287.488 688.872 287.488C689.864 287.488 690.728 287.688 691.464 288.088C692.216 288.488 692.816 288.992 693.264 289.6V287.704H696.648V301H693.264V299.056C692.832 299.68 692.232 300.2 691.464 300.616C690.712 301.016 689.84 301.216 688.848 301.216C687.728 301.216 686.704 300.928 685.776 300.352C684.864 299.776 684.136 298.968 683.592 297.928C683.064 296.872 682.8 295.664 682.8 294.304ZM693.264 294.352C693.264 293.536 693.104 292.84 692.784 292.264C692.464 291.672 692.032 291.224 691.488 290.92C690.944 290.6 690.36 290.44 689.736 290.44C689.112 290.44 688.536 290.592 688.008 290.896C687.48 291.2 687.048 291.648 686.712 292.24C686.392 292.816 686.232 293.504 686.232 294.304C686.232 295.104 686.392 295.808 686.712 296.416C687.048 297.008 687.48 297.464 688.008 297.784C688.552 298.104 689.128 298.264 689.736 298.264C690.36 298.264 690.944 298.112 691.488 297.808C692.032 297.488 692.464 297.04 692.784 296.464C693.104 295.872 693.264 295.168 693.264 294.352ZM703.841 290.464V296.896C703.841 297.344 703.945 297.672 704.153 297.88C704.377 298.072 704.745 298.168 705.257 298.168H706.817V301H704.705C701.873 301 700.457 299.624 700.457 296.872V290.464H698.873V287.704H700.457V284.416H703.841V287.704H706.817V290.464H703.841ZM721.594 294.064C721.594 294.544 721.562 294.976 721.498 295.36H711.778C711.858 296.32 712.194 297.072 712.786 297.616C713.378 298.16 714.106 298.432 714.97 298.432C716.218 298.432 717.106 297.896 717.634 296.824H721.258C720.874 298.104 720.138 299.16 719.05 299.992C717.962 300.808 716.626 301.216 715.042 301.216C713.762 301.216 712.61 300.936 711.586 300.376C710.578 299.8 709.786 298.992 709.21 297.952C708.65 296.912 708.37 295.712 708.37 294.352C708.37 292.976 708.65 291.768 709.21 290.728C709.77 289.688 710.554 288.888 711.562 288.328C712.57 287.768 713.73 287.488 715.042 287.488C716.306 287.488 717.434 287.76 718.426 288.304C719.434 288.848 720.21 289.624 720.754 290.632C721.314 291.624 721.594 292.768 721.594 294.064ZM718.114 293.104C718.098 292.24 717.786 291.552 717.178 291.04C716.57 290.512 715.826 290.248 714.946 290.248C714.114 290.248 713.41 290.504 712.834 291.016C712.274 291.512 711.93 292.208 711.802 293.104H718.114Z" fill="black"/>
<path d="M626.667 33.3334V46.6667C626.667 47.374 626.948 48.0523 627.448 48.5524C627.948 49.0525 628.626 49.3334 629.333 49.3334H632C632 51.4551 632.843 53.49 634.343 54.9903C635.844 56.4906 637.878 57.3334 640 57.3334C642.122 57.3334 644.157 56.4906 645.657 54.9903C647.157 53.49 648 51.4551 648 49.3334H664C664 51.4551 664.843 53.49 666.343 54.9903C667.844 56.4906 669.878 57.3334 672 57.3334C674.122 57.3334 676.157 56.4906 677.657 54.9903C679.157 53.49 680 51.4551 680 49.3334H682.667C683.374 49.3334 684.052 49.0525 684.552 48.5524C685.052 48.0523 685.333 47.374 685.333 46.6667V14.6667C685.333 12.545 684.491 10.5102 682.99 9.00989C681.49 7.5096 679.455 6.66675 677.333 6.66675H653.333C651.212 6.66675 649.177 7.5096 647.677 9.00989C646.176 10.5102 645.333 12.545 645.333 14.6667V20.0001H640C638.758 20.0001 637.533 20.2892 636.422 20.8447C635.312 21.4001 634.345 22.2065 633.6 23.2001L627.2 31.7334C627.122 31.8493 627.059 31.9748 627.013 32.1067L626.853 32.4001C626.736 32.6975 626.672 33.0136 626.667 33.3334V33.3334ZM669.333 49.3334C669.333 48.806 669.49 48.2904 669.783 47.8519C670.076 47.4134 670.492 47.0716 670.98 46.8697C671.467 46.6679 672.003 46.6151 672.52 46.718C673.038 46.8209 673.513 47.0749 673.886 47.4478C674.259 47.8207 674.513 48.2959 674.616 48.8132C674.718 49.3305 674.666 49.8666 674.464 50.3539C674.262 50.8412 673.92 51.2576 673.482 51.5507C673.043 51.8437 672.527 52.0001 672 52.0001C671.293 52.0001 670.615 51.7191 670.114 51.219C669.614 50.7189 669.333 50.0407 669.333 49.3334ZM650.667 14.6667C650.667 13.9595 650.948 13.2812 651.448 12.7811C651.948 12.281 652.626 12.0001 653.333 12.0001H677.333C678.041 12.0001 678.719 12.281 679.219 12.7811C679.719 13.2812 680 13.9595 680 14.6667V44.0001H677.92C677.17 43.1751 676.256 42.516 675.237 42.065C674.217 41.6139 673.115 41.3809 672 41.3809C670.885 41.3809 669.783 41.6139 668.763 42.065C667.744 42.516 666.83 43.1751 666.08 44.0001H650.667V14.6667ZM645.333 30.6667H634.667L637.867 26.4001C638.115 26.0689 638.437 25.8001 638.808 25.6149C639.178 25.4298 639.586 25.3334 640 25.3334H645.333V30.6667ZM637.333 49.3334C637.333 48.806 637.49 48.2904 637.783 47.8519C638.076 47.4134 638.492 47.0716 638.98 46.8697C639.467 46.6679 640.003 46.6151 640.52 46.718C641.038 46.8209 641.513 47.0749 641.886 47.4478C642.259 47.8207 642.513 48.2959 642.616 48.8132C642.718 49.3305 642.666 49.8666 642.464 50.3539C642.262 50.8412 641.92 51.2576 641.482 51.5507C641.043 51.8437 640.527 52.0001 640 52.0001C639.293 52.0001 638.615 51.7191 638.114 51.219C637.614 50.7189 637.333 50.0407 637.333 49.3334ZM632 36.0001H645.333V43.4134C643.76 42.0069 641.694 41.2793 639.586 41.3892C637.478 41.4991 635.499 42.4375 634.08 44.0001H632V36.0001Z" fill="#006A4E"/>
<path d="M661.333 211.333H664C664.707 211.333 665.385 211.052 665.886 210.552C666.386 210.052 666.667 209.374 666.667 208.667C666.667 207.959 666.386 207.281 665.886 206.781C665.385 206.281 664.707 206 664 206H661.333C660.626 206 659.948 206.281 659.448 206.781C658.948 207.281 658.667 207.959 658.667 208.667C658.667 209.374 658.948 210.052 659.448 210.552C659.948 211.052 660.626 211.333 661.333 211.333V211.333ZM661.333 222H664C664.707 222 665.385 221.719 665.886 221.219C666.386 220.719 666.667 220.04 666.667 219.333C666.667 218.626 666.386 217.948 665.886 217.448C665.385 216.948 664.707 216.667 664 216.667H661.333C660.626 216.667 659.948 216.948 659.448 217.448C658.948 217.948 658.667 218.626 658.667 219.333C658.667 220.04 658.948 220.719 659.448 221.219C659.948 221.719 660.626 222 661.333 222V222ZM648 211.333H650.667C651.374 211.333 652.052 211.052 652.552 210.552C653.052 210.052 653.333 209.374 653.333 208.667C653.333 207.959 653.052 207.281 652.552 206.781C652.052 206.281 651.374 206 650.667 206H648C647.293 206 646.614 206.281 646.114 206.781C645.614 207.281 645.333 207.959 645.333 208.667C645.333 209.374 645.614 210.052 646.114 210.552C646.614 211.052 647.293 211.333 648 211.333V211.333ZM648 222H650.667C651.374 222 652.052 221.719 652.552 221.219C653.052 220.719 653.333 220.04 653.333 219.333C653.333 218.626 653.052 217.948 652.552 217.448C652.052 216.948 651.374 216.667 650.667 216.667H648C647.293 216.667 646.614 216.948 646.114 217.448C645.614 217.948 645.333 218.626 645.333 219.333C645.333 220.04 645.614 220.719 646.114 221.219C646.614 221.719 647.293 222 648 222V222ZM680 243.333H677.333V198C677.333 197.293 677.052 196.614 676.552 196.114C676.052 195.614 675.374 195.333 674.667 195.333H637.333C636.626 195.333 635.948 195.614 635.448 196.114C634.948 196.614 634.667 197.293 634.667 198V243.333H632C631.293 243.333 630.614 243.614 630.114 244.114C629.614 244.614 629.333 245.293 629.333 246C629.333 246.707 629.614 247.385 630.114 247.886C630.614 248.386 631.293 248.667 632 248.667H680C680.707 248.667 681.385 248.386 681.886 247.886C682.386 247.385 682.667 246.707 682.667 246C682.667 245.293 682.386 244.614 681.886 244.114C681.385 243.614 680.707 243.333 680 243.333ZM658.667 243.333H653.333V232.667H658.667V243.333ZM672 243.333H664V230C664 229.293 663.719 228.614 663.219 228.114C662.719 227.614 662.04 227.333 661.333 227.333H650.667C649.959 227.333 649.281 227.614 648.781 228.114C648.281 228.614 648 229.293 648 230V243.333H640V200.667H672V243.333Z" fill="#006A4E"/>
<path d="M32.16 102.408C33.104 102.584 33.88 103.056 34.488 103.824C35.096 104.592 35.4 105.472 35.4 106.464C35.4 107.36 35.176 108.152 34.728 108.84C34.296 109.512 33.664 110.04 32.832 110.424C32 110.808 31.016 111 29.88 111H22.656V94.248H29.568C30.704 94.248 31.68 94.432 32.496 94.8C33.328 95.168 33.952 95.68 34.368 96.336C34.8 96.992 35.016 97.736 35.016 98.568C35.016 99.544 34.752 100.36 34.224 101.016C33.712 101.672 33.024 102.136 32.16 102.408ZM26.016 101.16H29.088C29.888 101.16 30.504 100.984 30.936 100.632C31.368 100.264 31.584 99.744 31.584 99.072C31.584 98.4 31.368 97.88 30.936 97.512C30.504 97.144 29.888 96.96 29.088 96.96H26.016V101.16ZM29.4 108.264C30.216 108.264 30.848 108.072 31.296 107.688C31.76 107.304 31.992 106.76 31.992 106.056C31.992 105.336 31.752 104.776 31.272 104.376C30.792 103.96 30.144 103.752 29.328 103.752H26.016V108.264H29.4ZM37.2139 104.304C37.2139 102.96 37.4779 101.768 38.0059 100.728C38.5499 99.688 39.2779 98.888 40.1899 98.328C41.1179 97.768 42.1499 97.488 43.2859 97.488C44.2779 97.488 45.1419 97.688 45.8779 98.088C46.6299 98.488 47.2299 98.992 47.6779 99.6V97.704H51.0619V111H47.6779V109.056C47.2459 109.68 46.6459 110.2 45.8779 110.616C45.1259 111.016 44.2539 111.216 43.2619 111.216C42.1419 111.216 41.1179 110.928 40.1899 110.352C39.2779 109.776 38.5499 108.968 38.0059 107.928C37.4779 106.872 37.2139 105.664 37.2139 104.304ZM47.6779 104.352C47.6779 103.536 47.5179 102.84 47.1979 102.264C46.8779 101.672 46.4459 101.224 45.9019 100.92C45.3579 100.6 44.7739 100.44 44.1499 100.44C43.5259 100.44 42.9499 100.592 42.4219 100.896C41.8939 101.2 41.4619 101.648 41.1259 102.24C40.8059 102.816 40.6459 103.504 40.6459 104.304C40.6459 105.104 40.8059 105.808 41.1259 106.416C41.4619 107.008 41.8939 107.464 42.4219 107.784C42.9659 108.104 43.5419 108.264 44.1499 108.264C44.7739 108.264 45.3579 108.112 45.9019 107.808C46.4459 107.488 46.8779 107.04 47.1979 106.464C47.5179 105.872 47.6779 105.168 47.6779 104.352ZM61.7115 97.512C63.2955 97.512 64.5755 98.016 65.5515 99.024C66.5275 100.016 67.0155 101.408 67.0155 103.2V111H63.6555V103.656C63.6555 102.6 63.3915 101.792 62.8635 101.232C62.3355 100.656 61.6155 100.368 60.7035 100.368C59.7755 100.368 59.0395 100.656 58.4955 101.232C57.9675 101.792 57.7035 102.6 57.7035 103.656V111H54.3435V97.704H57.7035V99.36C58.1515 98.784 58.7195 98.336 59.4075 98.016C60.1115 97.68 60.8795 97.512 61.7115 97.512ZM78.0827 111L73.5707 105.336V111H70.2107V93.24H73.5707V103.344L78.0347 97.704H82.4027L76.5467 104.376L82.4507 111H78.0827ZM85.9303 96.12C85.3383 96.12 84.8423 95.936 84.4423 95.568C84.0583 95.184 83.8663 94.712 83.8663 94.152C83.8663 93.592 84.0583 93.128 84.4423 92.76C84.8423 92.376 85.3383 92.184 85.9303 92.184C86.5223 92.184 87.0103 92.376 87.3943 92.76C87.7943 93.128 87.9943 93.592 87.9943 94.152C87.9943 94.712 87.7943 95.184 87.3943 95.568C87.0103 95.936 86.5223 96.12 85.9303 96.12ZM87.5863 97.704V111H84.2263V97.704H87.5863ZM98.274 97.512C99.858 97.512 101.138 98.016 102.114 99.024C103.09 100.016 103.578 101.408 103.578 103.2V111H100.218V103.656C100.218 102.6 99.954 101.792 99.426 101.232C98.898 100.656 98.178 100.368 97.266 100.368C96.338 100.368 95.602 100.656 95.058 101.232C94.53 101.792 94.266 102.6 94.266 103.656V111H90.906V97.704H94.266V99.36C94.714 98.784 95.282 98.336 95.97 98.016C96.674 97.68 97.442 97.512 98.274 97.512ZM111.981 97.488C112.973 97.488 113.845 97.688 114.597 98.088C115.349 98.472 115.941 98.976 116.373 99.6V97.704H119.757V111.096C119.757 112.328 119.509 113.424 119.013 114.384C118.517 115.36 117.773 116.128 116.781 116.688C115.789 117.264 114.589 117.552 113.181 117.552C111.293 117.552 109.741 117.112 108.525 116.232C107.325 115.352 106.645 114.152 106.485 112.632H109.821C109.997 113.24 110.373 113.72 110.949 114.072C111.541 114.44 112.253 114.624 113.085 114.624C114.061 114.624 114.853 114.328 115.461 113.736C116.069 113.16 116.373 112.28 116.373 111.096V109.032C115.941 109.656 115.341 110.176 114.573 110.592C113.821 111.008 112.957 111.216 111.981 111.216C110.861 111.216 109.837 110.928 108.909 110.352C107.981 109.776 107.245 108.968 106.701 107.928C106.173 106.872 105.909 105.664 105.909 104.304C105.909 102.96 106.173 101.768 106.701 100.728C107.245 99.688 107.973 98.888 108.885 98.328C109.813 97.768 110.845 97.488 111.981 97.488ZM116.373 104.352C116.373 103.536 116.213 102.84 115.893 102.264C115.573 101.672 115.141 101.224 114.597 100.92C114.053 100.6 113.469 100.44 112.845 100.44C112.221 100.44 111.645 100.592 111.117 100.896C110.589 101.2 110.157 101.648 109.821 102.24C109.501 102.816 109.341 103.504 109.341 104.304C109.341 105.104 109.501 105.808 109.821 106.416C110.157 107.008 110.589 107.464 111.117 107.784C111.661 108.104 112.237 108.264 112.845 108.264C113.469 108.264 114.053 108.112 114.597 107.808C115.141 107.488 115.573 107.04 115.893 106.464C116.213 105.872 116.373 105.168 116.373 104.352Z" fill="black"/>
<path d="M13.056 284.248V286.96H8.592V301H5.232V286.96H0.768V284.248H13.056ZM27.8676 294.064C27.8676 294.544 27.8356 294.976 27.7716 295.36H18.0516C18.1316 296.32 18.4676 297.072 19.0596 297.616C19.6516 298.16 20.3796 298.432 21.2436 298.432C22.4916 298.432 23.3796 297.896 23.9076 296.824H27.5316C27.1476 298.104 26.4116 299.16 25.3236 299.992C24.2356 300.808 22.8996 301.216 21.3156 301.216C20.0356 301.216 18.8836 300.936 17.8596 300.376C16.8516 299.8 16.0596 298.992 15.4836 297.952C14.9236 296.912 14.6436 295.712 14.6436 294.352C14.6436 292.976 14.9236 291.768 15.4836 290.728C16.0436 289.688 16.8276 288.888 17.8356 288.328C18.8436 287.768 20.0036 287.488 21.3156 287.488C22.5796 287.488 23.7076 287.76 24.6996 288.304C25.7076 288.848 26.4836 289.624 27.0276 290.632C27.5876 291.624 27.8676 292.768 27.8676 294.064ZM24.3876 293.104C24.3716 292.24 24.0596 291.552 23.4516 291.04C22.8436 290.512 22.0996 290.248 21.2196 290.248C20.3876 290.248 19.6836 290.504 19.1076 291.016C18.5476 291.512 18.2036 292.208 18.0756 293.104H24.3876ZM29.4561 294.352C29.4561 292.976 29.7361 291.776 30.2961 290.752C30.8561 289.712 31.6321 288.912 32.6241 288.352C33.6161 287.776 34.7521 287.488 36.0321 287.488C37.6801 287.488 39.0401 287.904 40.1121 288.736C41.2001 289.552 41.9281 290.704 42.2961 292.192H38.6721C38.4801 291.616 38.1521 291.168 37.6881 290.848C37.2401 290.512 36.6801 290.344 36.0081 290.344C35.0481 290.344 34.2881 290.696 33.7281 291.4C33.1681 292.088 32.8881 293.072 32.8881 294.352C32.8881 295.616 33.1681 296.6 33.7281 297.304C34.2881 297.992 35.0481 298.336 36.0081 298.336C37.3681 298.336 38.2561 297.728 38.6721 296.512H42.2961C41.9281 297.952 41.2001 299.096 40.1121 299.944C39.0241 300.792 37.6641 301.216 36.0321 301.216C34.7521 301.216 33.6161 300.936 32.6241 300.376C31.6321 299.8 30.8561 299 30.2961 297.976C29.7361 296.936 29.4561 295.728 29.4561 294.352ZM52.2456 287.512C53.2536 287.512 54.1496 287.736 54.9336 288.184C55.7176 288.616 56.3256 289.264 56.7576 290.128C57.2056 290.976 57.4296 292 57.4296 293.2V301H54.0696V293.656C54.0696 292.6 53.8056 291.792 53.2776 291.232C52.7496 290.656 52.0296 290.368 51.1176 290.368C50.1896 290.368 49.4536 290.656 48.9096 291.232C48.3816 291.792 48.1176 292.6 48.1176 293.656V301H44.7576V283.24H48.1176V289.36C48.5496 288.784 49.1256 288.336 49.8456 288.016C50.5656 287.68 51.3656 287.512 52.2456 287.512ZM67.9928 287.512C69.5768 287.512 70.8568 288.016 71.8328 289.024C72.8088 290.016 73.2968 291.408 73.2968 293.2V301H69.9368V293.656C69.9368 292.6 69.6728 291.792 69.1448 291.232C68.6168 290.656 67.8968 290.368 66.9848 290.368C66.0568 290.368 65.3208 290.656 64.7768 291.232C64.2488 291.792 63.9848 292.6 63.9848 293.656V301H60.6248V287.704H63.9848V289.36C64.4328 288.784 65.0008 288.336 65.6888 288.016C66.3928 287.68 67.1608 287.512 67.9928 287.512ZM82.3959 301.216C81.1159 301.216 79.9639 300.936 78.9399 300.376C77.9159 299.8 77.1079 298.992 76.5159 297.952C75.9399 296.912 75.6519 295.712 75.6519 294.352C75.6519 292.992 75.9479 291.792 76.5399 290.752C77.1479 289.712 77.9719 288.912 79.0119 288.352C80.0519 287.776 81.2119 287.488 82.4919 287.488C83.7719 287.488 84.9319 287.776 85.9719 288.352C87.0119 288.912 87.8279 289.712 88.4199 290.752C89.0279 291.792 89.3319 292.992 89.3319 294.352C89.3319 295.712 89.0199 296.912 88.3959 297.952C87.7879 298.992 86.9559 299.8 85.8999 300.376C84.8599 300.936 83.6919 301.216 82.3959 301.216ZM82.3959 298.288C83.0039 298.288 83.5719 298.144 84.0999 297.856C84.6439 297.552 85.0759 297.104 85.3959 296.512C85.7159 295.92 85.8759 295.2 85.8759 294.352C85.8759 293.088 85.5399 292.12 84.8679 291.448C84.2119 290.76 83.4039 290.416 82.4439 290.416C81.4839 290.416 80.6759 290.76 80.0199 291.448C79.3799 292.12 79.0599 293.088 79.0599 294.352C79.0599 295.616 79.3719 296.592 79.9959 297.28C80.6359 297.952 81.4359 298.288 82.3959 298.288ZM95.1566 283.24V301H91.7966V283.24H95.1566ZM104.38 301.216C103.1 301.216 101.948 300.936 100.924 300.376C99.9003 299.8 99.0923 298.992 98.5003 297.952C97.9243 296.912 97.6363 295.712 97.6363 294.352C97.6363 292.992 97.9323 291.792 98.5243 290.752C99.1323 289.712 99.9563 288.912 100.996 288.352C102.036 287.776 103.196 287.488 104.476 287.488C105.756 287.488 106.916 287.776 107.956 288.352C108.996 288.912 109.812 289.712 110.404 290.752C111.012 291.792 111.316 292.992 111.316 294.352C111.316 295.712 111.004 296.912 110.38 297.952C109.772 298.992 108.94 299.8 107.884 300.376C106.844 300.936 105.676 301.216 104.38 301.216ZM104.38 298.288C104.988 298.288 105.556 298.144 106.084 297.856C106.628 297.552 107.06 297.104 107.38 296.512C107.7 295.92 107.86 295.2 107.86 294.352C107.86 293.088 107.524 292.12 106.852 291.448C106.196 290.76 105.388 290.416 104.428 290.416C103.468 290.416 102.66 290.76 102.004 291.448C101.364 292.12 101.044 293.088 101.044 294.352C101.044 295.616 101.356 296.592 101.98 297.28C102.62 297.952 103.42 298.288 104.38 298.288ZM118.989 287.488C119.981 287.488 120.853 287.688 121.605 288.088C122.357 288.472 122.949 288.976 123.381 289.6V287.704H126.765V301.096C126.765 302.328 126.517 303.424 126.021 304.384C125.525 305.36 124.781 306.128 123.789 306.688C122.797 307.264 121.597 307.552 120.189 307.552C118.301 307.552 116.749 307.112 115.533 306.232C114.333 305.352 113.653 304.152 113.493 302.632H116.829C117.005 303.24 117.381 303.72 117.957 304.072C118.549 304.44 119.261 304.624 120.093 304.624C121.069 304.624 121.861 304.328 122.469 303.736C123.077 303.16 123.381 302.28 123.381 301.096V299.032C122.949 299.656 122.349 300.176 121.581 300.592C120.829 301.008 119.965 301.216 118.989 301.216C117.869 301.216 116.845 300.928 115.917 300.352C114.989 299.776 114.253 298.968 113.709 297.928C113.181 296.872 112.917 295.664 112.917 294.304C112.917 292.96 113.181 291.768 113.709 290.728C114.253 289.688 114.981 288.888 115.893 288.328C116.821 287.768 117.853 287.488 118.989 287.488ZM123.381 294.352C123.381 293.536 123.221 292.84 122.901 292.264C122.581 291.672 122.149 291.224 121.605 290.92C121.061 290.6 120.477 290.44 119.853 290.44C119.229 290.44 118.653 290.592 118.125 290.896C117.597 291.2 117.165 291.648 116.829 292.24C116.509 292.816 116.349 293.504 116.349 294.304C116.349 295.104 116.509 295.808 116.829 296.416C117.165 297.008 117.597 297.464 118.125 297.784C118.669 298.104 119.245 298.264 119.853 298.264C120.477 298.264 121.061 298.112 121.605 297.808C122.149 297.488 122.581 297.04 122.901 296.464C123.221 295.872 123.381 295.168 123.381 294.352ZM142.767 287.704L134.535 307.288H130.959L133.839 300.664L128.511 287.704H132.279L135.711 296.992L139.191 287.704H142.767Z" fill="black"/>
<path d="M98.6667 45.3334H45.3334C44.6262 45.3334 43.9479 45.6144 43.4478 46.1145C42.9477 46.6146 42.6667 47.2928 42.6667 48.0001C42.6667 48.7073 42.9477 49.3856 43.4478 49.8857C43.9479 50.3858 44.6262 50.6667 45.3334 50.6667H98.6667C99.374 50.6667 100.052 50.3858 100.552 49.8857C101.052 49.3856 101.333 48.7073 101.333 48.0001C101.333 47.2928 101.052 46.6146 100.552 46.1145C100.052 45.6144 99.374 45.3334 98.6667 45.3334ZM98.6667 56.0001H45.3334C44.6262 56.0001 43.9479 56.281 43.4478 56.7811C42.9477 57.2812 42.6667 57.9595 42.6667 58.6667C42.6667 59.374 42.9477 60.0523 43.4478 60.5524C43.9479 61.0525 44.6262 61.3334 45.3334 61.3334H98.6667C99.374 61.3334 100.052 61.0525 100.552 60.5524C101.052 60.0523 101.333 59.374 101.333 58.6667C101.333 57.9595 101.052 57.2812 100.552 56.7811C100.052 56.281 99.374 56.0001 98.6667 56.0001ZM56.0001 18.6667C55.4727 18.6667 54.9571 18.8231 54.5186 19.1162C54.08 19.4092 53.7382 19.8257 53.5364 20.3129C53.3346 20.8002 53.2818 21.3364 53.3847 21.8537C53.4875 22.3709 53.7415 22.8461 54.1145 23.219C54.4874 23.592 54.9626 23.8459 55.4798 23.9488C55.9971 24.0517 56.5333 23.9989 57.0206 23.7971C57.5078 23.5953 57.9243 23.2535 58.2173 22.8149C58.5103 22.3764 58.6667 21.8608 58.6667 21.3334C58.6667 20.6262 58.3858 19.9479 57.8857 19.4478C57.3856 18.9477 56.7073 18.6667 56.0001 18.6667ZM93.3334 2.66675H50.6667C48.545 2.66675 46.5102 3.5096 45.0099 5.00989C43.5096 6.51018 42.6667 8.54502 42.6667 10.6667V32.0001C42.6667 34.1218 43.5096 36.1566 45.0099 37.6569C46.5102 39.1572 48.545 40.0001 50.6667 40.0001H93.3334C95.4551 40.0001 97.49 39.1572 98.9903 37.6569C100.491 36.1566 101.333 34.1218 101.333 32.0001V10.6667C101.333 8.54502 100.491 6.51018 98.9903 5.00989C97.49 3.5096 95.4551 2.66675 93.3334 2.66675V2.66675ZM96.0001 32.0001C96.0001 32.7073 95.7191 33.3856 95.219 33.8857C94.7189 34.3858 94.0407 34.6667 93.3334 34.6667H50.6667C49.9595 34.6667 49.2812 34.3858 48.7811 33.8857C48.281 33.3856 48.0001 32.7073 48.0001 32.0001V10.6667C48.0001 9.9595 48.281 9.28123 48.7811 8.78113C49.2812 8.28103 49.9595 8.00008 50.6667 8.00008H93.3334C94.0407 8.00008 94.7189 8.28103 95.219 8.78113C95.7191 9.28123 96.0001 9.9595 96.0001 10.6667V32.0001ZM72.0001 13.3334C70.4178 13.3334 68.8711 13.8026 67.5555 14.6817C66.2399 15.5607 65.2145 16.8101 64.609 18.2719C64.0035 19.7338 63.8451 21.3423 64.1538 22.8941C64.4625 24.446 65.2244 25.8714 66.3432 26.9903C67.462 28.1091 68.8875 28.871 70.4394 29.1797C71.9912 29.4884 73.5997 29.33 75.0615 28.7245C76.5234 28.1189 77.7728 27.0936 78.6518 25.778C79.5309 24.4624 80.0001 22.9157 80.0001 21.3334C80.0001 19.2117 79.1572 17.1769 77.6569 15.6766C76.1566 14.1763 74.1218 13.3334 72.0001 13.3334ZM72.0001 24.0001C71.4727 24.0001 70.9571 23.8437 70.5186 23.5507C70.08 23.2576 69.7382 22.8412 69.5364 22.3539C69.3346 21.8666 69.2818 21.3305 69.3847 20.8132C69.4875 20.2959 69.7415 19.8207 70.1145 19.4478C70.4874 19.0749 70.9626 18.8209 71.4798 18.718C71.9971 18.6151 72.5333 18.6679 73.0206 18.8697C73.5078 19.0716 73.9243 19.4134 74.2173 19.8519C74.5103 20.2904 74.6667 20.806 74.6667 21.3334C74.6667 22.0407 74.3858 22.7189 73.8857 23.219C73.3856 23.7191 72.7073 24.0001 72.0001 24.0001ZM88.0001 18.6667C87.4727 18.6667 86.9571 18.8231 86.5186 19.1162C86.08 19.4092 85.7382 19.8257 85.5364 20.3129C85.3346 20.8002 85.2818 21.3364 85.3847 21.8537C85.4875 22.3709 85.7415 22.8461 86.1145 23.219C86.4874 23.592 86.9626 23.8459 87.4798 23.9488C87.9971 24.0517 88.5333 23.9989 89.0206 23.7971C89.5078 23.5953 89.9243 23.2535 90.2173 22.8149C90.5104 22.3764 90.6667 21.8608 90.6667 21.3334C90.6667 20.6262 90.3858 19.9479 89.8857 19.4478C89.3856 18.9477 88.7073 18.6667 88.0001 18.6667Z" fill="#006A4E"/>
<path d="M72.0001 219.333C71.4727 219.333 70.9571 219.49 70.5186 219.783C70.08 220.076 69.7382 220.492 69.5364 220.979C69.3346 221.467 69.2818 222.003 69.3847 222.52C69.4876 223.037 69.7415 223.513 70.1145 223.886C70.4874 224.258 70.9626 224.512 71.4798 224.615C71.9971 224.718 72.5333 224.665 73.0206 224.464C73.5078 224.262 73.9243 223.92 74.2173 223.481C74.5104 223.043 74.6668 222.527 74.6668 222C74.6668 221.293 74.3858 220.614 73.8857 220.114C73.3856 219.614 72.7073 219.333 72.0001 219.333ZM92.3201 222L92.6134 221.627C96.2134 216.667 97.0668 212.107 95.0934 208.667C93.1201 205.227 88.6934 203.707 82.6668 204.32H82.1868C79.7601 198.8 76.1601 195.333 72.0001 195.333C67.8401 195.333 64.2401 198.8 61.8401 204.4L61.3334 204.32C55.3068 203.707 50.8801 205.227 48.9068 208.667C46.9334 212.107 47.7868 216.667 51.3868 221.627L51.6801 222L51.3868 222.373C47.7868 227.333 46.9334 231.893 48.9068 235.333C50.6668 238.267 54.0534 239.813 58.6668 239.813C59.4934 239.813 60.3468 239.813 61.3334 239.68H61.8134C64.2401 245.2 67.8401 248.667 72.0001 248.667C76.1601 248.667 79.7601 245.2 82.1601 239.6H82.6401C83.5468 239.6 84.4001 239.733 85.3068 239.733C90.0268 239.733 93.4934 238.187 95.1734 235.253C97.1468 231.813 96.2934 227.253 92.6934 222.293L92.3201 222ZM53.5201 211.333C54.1868 210.16 56.1868 209.52 58.8534 209.52H60.1601C59.7422 211.16 59.4305 212.826 59.2268 214.507C57.8682 215.534 56.5767 216.648 55.3601 217.84C53.3334 215.173 52.7468 212.667 53.5201 211.333ZM53.5201 232.667C52.7468 231.333 53.5201 228.827 55.3068 226.08C56.5233 227.272 57.8149 228.386 59.1734 229.413C59.3772 231.103 59.6889 232.777 60.1068 234.427C56.8001 234.64 54.2934 234 53.5201 232.667ZM72.0001 200.667C73.4934 200.667 75.2801 202.427 76.8001 205.547C75.1709 206.019 73.5685 206.58 72.0001 207.227C70.4316 206.58 68.8293 206.019 67.2001 205.547C68.7201 202.427 70.5068 200.667 72.0001 200.667ZM72.0001 243.333C70.5068 243.333 68.7201 241.573 67.2001 238.453C68.8293 237.98 70.4316 237.42 72.0001 236.773C73.5685 237.42 75.1709 237.98 76.8001 238.453C75.2801 241.573 73.4934 243.333 72.0001 243.333ZM79.8134 226.507C78.5868 227.36 77.3334 228.16 76.0001 228.933C74.6668 229.707 73.3334 230.4 72.0001 231.013C70.6668 230.391 69.3334 229.698 68.0001 228.933C66.6668 228.16 65.3334 227.36 64.1868 226.507C64.0001 225.067 64.0001 223.573 64.0001 222C64.0001 220.427 64.0001 218.933 64.1868 217.493C65.4134 216.64 66.6668 215.84 68.0001 215.067C69.3334 214.293 70.6668 213.6 72.0001 212.987C73.3334 213.609 74.6668 214.302 76.0001 215.067C77.3334 215.84 78.6668 216.64 79.8134 217.493C79.8134 218.933 80.0001 220.427 80.0001 222C80.0001 223.573 80.0001 225.067 79.8134 226.507V226.507ZM90.4801 232.667C89.7068 234 87.2001 234.667 83.8934 234.427C84.3113 232.777 84.623 231.103 84.8268 229.413C86.1853 228.386 87.4768 227.272 88.6934 226.08C90.6668 228.827 91.2534 231.333 90.4801 232.667ZM88.6934 217.92C87.4768 216.728 86.1853 215.614 84.8268 214.587C84.6231 212.906 84.3113 211.24 83.8934 209.6H85.2001C87.8668 209.6 89.8134 210.24 90.5334 211.413C91.2534 212.587 90.6668 215.173 88.6934 217.92V217.92Z" fill="#006A4E"/>
<path d="M322.016 96.96V101.16H327.656V103.824H322.016V108.264H328.376V111H318.656V94.224H328.376V96.96H322.016ZM330.565 104.304C330.565 102.96 330.829 101.768 331.357 100.728C331.901 99.688 332.637 98.888 333.565 98.328C334.493 97.768 335.525 97.488 336.661 97.488C337.525 97.488 338.349 97.68 339.133 98.064C339.917 98.432 340.541 98.928 341.005 99.552V93.24H344.413V111H341.005V109.032C340.589 109.688 340.005 110.216 339.253 110.616C338.501 111.016 337.629 111.216 336.637 111.216C335.517 111.216 334.493 110.928 333.565 110.352C332.637 109.776 331.901 108.968 331.357 107.928C330.829 106.872 330.565 105.664 330.565 104.304ZM341.029 104.352C341.029 103.536 340.869 102.84 340.549 102.264C340.229 101.672 339.797 101.224 339.253 100.92C338.709 100.6 338.125 100.44 337.501 100.44C336.877 100.44 336.301 100.592 335.773 100.896C335.245 101.2 334.813 101.648 334.477 102.24C334.157 102.816 333.997 103.504 333.997 104.304C333.997 105.104 334.157 105.808 334.477 106.416C334.813 107.008 335.245 107.464 335.773 107.784C336.317 108.104 336.893 108.264 337.501 108.264C338.125 108.264 338.709 108.112 339.253 107.808C339.797 107.488 340.229 107.04 340.549 106.464C340.869 105.872 341.029 105.168 341.029 104.352ZM360.247 97.704V111H356.863V109.32C356.431 109.896 355.863 110.352 355.159 110.688C354.471 111.008 353.719 111.168 352.903 111.168C351.863 111.168 350.943 110.952 350.143 110.52C349.343 110.072 348.711 109.424 348.247 108.576C347.799 107.712 347.575 106.688 347.575 105.504V97.704H350.935V105.024C350.935 106.08 351.199 106.896 351.727 107.472C352.255 108.032 352.975 108.312 353.887 108.312C354.815 108.312 355.543 108.032 356.071 107.472C356.599 106.896 356.863 106.08 356.863 105.024V97.704H360.247ZM362.698 104.352C362.698 102.976 362.978 101.776 363.538 100.752C364.098 99.712 364.874 98.912 365.866 98.352C366.858 97.776 367.994 97.488 369.274 97.488C370.922 97.488 372.282 97.904 373.354 98.736C374.442 99.552 375.17 100.704 375.538 102.192H371.914C371.722 101.616 371.394 101.168 370.93 100.848C370.482 100.512 369.922 100.344 369.25 100.344C368.29 100.344 367.53 100.696 366.97 101.4C366.41 102.088 366.13 103.072 366.13 104.352C366.13 105.616 366.41 106.6 366.97 107.304C367.53 107.992 368.29 108.336 369.25 108.336C370.61 108.336 371.498 107.728 371.914 106.512H375.538C375.17 107.952 374.442 109.096 373.354 109.944C372.266 110.792 370.906 111.216 369.274 111.216C367.994 111.216 366.858 110.936 365.866 110.376C364.874 109.8 364.098 109 363.538 107.976C362.978 106.936 362.698 105.728 362.698 104.352ZM377.136 104.304C377.136 102.96 377.4 101.768 377.928 100.728C378.472 99.688 379.2 98.888 380.112 98.328C381.04 97.768 382.072 97.488 383.208 97.488C384.2 97.488 385.064 97.688 385.8 98.088C386.552 98.488 387.152 98.992 387.6 99.6V97.704H390.984V111H387.6V109.056C387.168 109.68 386.568 110.2 385.8 110.616C385.048 111.016 384.176 111.216 383.184 111.216C382.064 111.216 381.04 110.928 380.112 110.352C379.2 109.776 378.472 108.968 377.928 107.928C377.4 106.872 377.136 105.664 377.136 104.304ZM387.6 104.352C387.6 103.536 387.44 102.84 387.12 102.264C386.8 101.672 386.368 101.224 385.824 100.92C385.28 100.6 384.696 100.44 384.072 100.44C383.448 100.44 382.872 100.592 382.344 100.896C381.816 101.2 381.384 101.648 381.048 102.24C380.728 102.816 380.568 103.504 380.568 104.304C380.568 105.104 380.728 105.808 381.048 106.416C381.384 107.008 381.816 107.464 382.344 107.784C382.888 108.104 383.464 108.264 384.072 108.264C384.696 108.264 385.28 108.112 385.824 107.808C386.368 107.488 386.8 107.04 387.12 106.464C387.44 105.872 387.6 105.168 387.6 104.352ZM398.177 100.464V106.896C398.177 107.344 398.281 107.672 398.489 107.88C398.713 108.072 399.081 108.168 399.593 108.168H401.153V111H399.041C396.209 111 394.793 109.624 394.793 106.872V100.464H393.209V97.704H394.793V94.416H398.177V97.704H401.153V100.464H398.177ZM405.274 96.12C404.682 96.12 404.186 95.936 403.786 95.568C403.402 95.184 403.21 94.712 403.21 94.152C403.21 93.592 403.402 93.128 403.786 92.76C404.186 92.376 404.682 92.184 405.274 92.184C405.866 92.184 406.354 92.376 406.738 92.76C407.138 93.128 407.338 93.592 407.338 94.152C407.338 94.712 407.138 95.184 406.738 95.568C406.354 95.936 405.866 96.12 405.274 96.12ZM406.93 97.704V111H403.57V97.704H406.93ZM416.154 111.216C414.874 111.216 413.722 110.936 412.698 110.376C411.674 109.8 410.866 108.992 410.274 107.952C409.698 106.912 409.41 105.712 409.41 104.352C409.41 102.992 409.706 101.792 410.298 100.752C410.906 99.712 411.73 98.912 412.77 98.352C413.81 97.776 414.97 97.488 416.25 97.488C417.53 97.488 418.69 97.776 419.73 98.352C420.77 98.912 421.586 99.712 422.178 100.752C422.786 101.792 423.09 102.992 423.09 104.352C423.09 105.712 422.778 106.912 422.154 107.952C421.546 108.992 420.714 109.8 419.658 110.376C418.618 110.936 417.45 111.216 416.154 111.216ZM416.154 108.288C416.762 108.288 417.33 108.144 417.858 107.856C418.402 107.552 418.834 107.104 419.154 106.512C419.474 105.92 419.634 105.2 419.634 104.352C419.634 103.088 419.298 102.12 418.626 101.448C417.97 100.76 417.162 100.416 416.202 100.416C415.242 100.416 414.434 100.76 413.778 101.448C413.138 102.12 412.818 103.088 412.818 104.352C412.818 105.616 413.13 106.592 413.754 107.28C414.394 107.952 415.194 108.288 416.154 108.288ZM432.922 97.512C434.506 97.512 435.786 98.016 436.762 99.024C437.738 100.016 438.226 101.408 438.226 103.2V111H434.866V103.656C434.866 102.6 434.602 101.792 434.074 101.232C433.546 100.656 432.826 100.368 431.914 100.368C430.986 100.368 430.25 100.656 429.706 101.232C429.178 101.792 428.914 102.6 428.914 103.656V111H425.554V97.704H428.914V99.36C429.362 98.784 429.93 98.336 430.618 98.016C431.322 97.68 432.09 97.512 432.922 97.512Z" fill="black"/>
<path d="M321.928 297.808H315.256L314.152 301H310.624L316.648 284.224H320.56L326.584 301H323.032L321.928 297.808ZM321.016 295.12L318.592 288.112L316.168 295.12H321.016ZM334.044 287.488C335.036 287.488 335.908 287.688 336.66 288.088C337.412 288.472 338.004 288.976 338.436 289.6V287.704H341.82V301.096C341.82 302.328 341.572 303.424 341.076 304.384C340.58 305.36 339.836 306.128 338.844 306.688C337.852 307.264 336.652 307.552 335.244 307.552C333.356 307.552 331.804 307.112 330.588 306.232C329.388 305.352 328.708 304.152 328.548 302.632H331.884C332.06 303.24 332.436 303.72 333.012 304.072C333.604 304.44 334.316 304.624 335.148 304.624C336.124 304.624 336.916 304.328 337.524 303.736C338.132 303.16 338.436 302.28 338.436 301.096V299.032C338.004 299.656 337.404 300.176 336.636 300.592C335.884 301.008 335.02 301.216 334.044 301.216C332.924 301.216 331.9 300.928 330.972 300.352C330.044 299.776 329.308 298.968 328.764 297.928C328.236 296.872 327.972 295.664 327.972 294.304C327.972 292.96 328.236 291.768 328.764 290.728C329.308 289.688 330.036 288.888 330.948 288.328C331.876 287.768 332.908 287.488 334.044 287.488ZM338.436 294.352C338.436 293.536 338.276 292.84 337.956 292.264C337.636 291.672 337.204 291.224 336.66 290.92C336.116 290.6 335.532 290.44 334.908 290.44C334.284 290.44 333.708 290.592 333.18 290.896C332.652 291.2 332.22 291.648 331.884 292.24C331.564 292.816 331.404 293.504 331.404 294.304C331.404 295.104 331.564 295.808 331.884 296.416C332.22 297.008 332.652 297.464 333.18 297.784C333.724 298.104 334.3 298.264 334.908 298.264C335.532 298.264 336.116 298.112 336.66 297.808C337.204 297.488 337.636 297.04 337.956 296.464C338.276 295.872 338.436 295.168 338.436 294.352ZM348.461 289.768C348.893 289.064 349.453 288.512 350.141 288.112C350.845 287.712 351.645 287.512 352.541 287.512V291.04H351.653C350.597 291.04 349.797 291.288 349.253 291.784C348.725 292.28 348.461 293.144 348.461 294.376V301H345.101V287.704H348.461V289.768ZM356.508 286.12C355.916 286.12 355.42 285.936 355.02 285.568C354.636 285.184 354.444 284.712 354.444 284.152C354.444 283.592 354.636 283.128 355.02 282.76C355.42 282.376 355.916 282.184 356.508 282.184C357.1 282.184 357.588 282.376 357.972 282.76C358.372 283.128 358.572 283.592 358.572 284.152C358.572 284.712 358.372 285.184 357.972 285.568C357.588 285.936 357.1 286.12 356.508 286.12ZM358.164 287.704V301H354.804V287.704H358.164ZM360.62 294.352C360.62 292.976 360.9 291.776 361.46 290.752C362.02 289.712 362.796 288.912 363.788 288.352C364.78 287.776 365.916 287.488 367.196 287.488C368.844 287.488 370.204 287.904 371.276 288.736C372.364 289.552 373.092 290.704 373.46 292.192H369.836C369.644 291.616 369.316 291.168 368.852 290.848C368.404 290.512 367.844 290.344 367.172 290.344C366.212 290.344 365.452 290.696 364.892 291.4C364.332 292.088 364.052 293.072 364.052 294.352C364.052 295.616 364.332 296.6 364.892 297.304C365.452 297.992 366.212 298.336 367.172 298.336C368.532 298.336 369.42 297.728 369.836 296.512H373.46C373.092 297.952 372.364 299.096 371.276 299.944C370.188 300.792 368.828 301.216 367.196 301.216C365.916 301.216 364.78 300.936 363.788 300.376C362.796 299.8 362.02 299 361.46 297.976C360.9 296.936 360.62 295.728 360.62 294.352ZM388.474 287.704V301H385.09V299.32C384.658 299.896 384.09 300.352 383.386 300.688C382.698 301.008 381.946 301.168 381.13 301.168C380.09 301.168 379.17 300.952 378.37 300.52C377.57 300.072 376.938 299.424 376.474 298.576C376.026 297.712 375.802 296.688 375.802 295.504V287.704H379.162V295.024C379.162 296.08 379.426 296.896 379.954 297.472C380.482 298.032 381.202 298.312 382.114 298.312C383.042 298.312 383.77 298.032 384.298 297.472C384.826 296.896 385.09 296.08 385.09 295.024V287.704H388.474ZM395.149 283.24V301H391.789V283.24H395.149ZM402.381 290.464V296.896C402.381 297.344 402.485 297.672 402.693 297.88C402.917 298.072 403.285 298.168 403.797 298.168H405.357V301H403.245C400.413 301 398.997 299.624 398.997 296.872V290.464H397.413V287.704H398.997V284.416H402.381V287.704H405.357V290.464H402.381ZM420.325 287.704V301H416.941V299.32C416.509 299.896 415.941 300.352 415.237 300.688C414.549 301.008 413.797 301.168 412.981 301.168C411.941 301.168 411.021 300.952 410.221 300.52C409.421 300.072 408.789 299.424 408.325 298.576C407.877 297.712 407.653 296.688 407.653 295.504V287.704H411.013V295.024C411.013 296.08 411.277 296.896 411.805 297.472C412.333 298.032 413.053 298.312 413.965 298.312C414.893 298.312 415.621 298.032 416.149 297.472C416.677 296.896 416.941 296.08 416.941 295.024V287.704H420.325ZM427 289.768C427.432 289.064 427.992 288.512 428.68 288.112C429.384 287.712 430.184 287.512 431.08 287.512V291.04H430.192C429.136 291.04 428.336 291.288 427.792 291.784C427.264 292.28 427 293.144 427 294.376V301H423.64V287.704H427V289.768ZM445.704 294.064C445.704 294.544 445.672 294.976 445.608 295.36H435.888C435.968 296.32 436.304 297.072 436.896 297.616C437.488 298.16 438.216 298.432 439.08 298.432C440.328 298.432 441.216 297.896 441.744 296.824H445.368C444.984 298.104 444.248 299.16 443.16 299.992C442.072 300.808 440.736 301.216 439.152 301.216C437.872 301.216 436.72 300.936 435.696 300.376C434.688 299.8 433.896 298.992 433.32 297.952C432.76 296.912 432.479 295.712 432.479 294.352C432.479 292.976 432.76 291.768 433.32 290.728C433.88 289.688 434.664 288.888 435.672 288.328C436.68 287.768 437.84 287.488 439.152 287.488C440.416 287.488 441.544 287.76 442.536 288.304C443.544 288.848 444.32 289.624 444.864 290.632C445.424 291.624 445.704 292.768 445.704 294.064ZM442.224 293.104C442.208 292.24 441.896 291.552 441.288 291.04C440.68 290.512 439.936 290.248 439.056 290.248C438.224 290.248 437.52 290.504 436.944 291.016C436.384 291.512 436.04 292.208 435.912 293.104H442.224Z" fill="black"/>
<path d="M404.307 27.1734L401.64 25.7067L377.64 12.3734H377.347C377.183 12.3043 377.014 12.2507 376.84 12.2134H376.333H375.853C375.671 12.2507 375.493 12.3043 375.32 12.3734H375.027L351.027 25.7067C350.616 25.9393 350.275 26.2766 350.037 26.6841C349.8 27.0917 349.675 27.555 349.675 28.0267C349.675 28.4984 349.8 28.9617 350.037 29.3693C350.275 29.7769 350.616 30.1141 351.027 30.3467L357.667 34.0267V46.6667C357.667 48.7884 358.51 50.8233 360.01 52.3236C361.51 53.8239 363.545 54.6667 365.667 54.6667H387C389.122 54.6667 391.157 53.8239 392.657 52.3236C394.157 50.8233 395 48.7884 395 46.6667V34.0267L400.333 31.04V38.6667C400.333 39.374 400.614 40.0522 401.114 40.5523C401.614 41.0524 402.293 41.3334 403 41.3334C403.707 41.3334 404.386 41.0524 404.886 40.5523C405.386 40.0522 405.667 39.374 405.667 38.6667V29.4934C405.666 29.0209 405.539 28.557 405.301 28.1494C405.062 27.7417 404.719 27.4049 404.307 27.1734V27.1734ZM389.667 46.6667C389.667 47.374 389.386 48.0522 388.886 48.5523C388.386 49.0524 387.707 49.3334 387 49.3334H365.667C364.959 49.3334 364.281 49.0524 363.781 48.5523C363.281 48.0522 363 47.374 363 46.6667V36.9867L375.027 43.6534L375.427 43.8134H375.667C375.888 43.8413 376.112 43.8413 376.333 43.8134C376.555 43.8413 376.779 43.8413 377 43.8134H377.24C377.382 43.7835 377.517 43.7294 377.64 43.6534L389.667 36.9867V46.6667ZM376.333 38.2934L357.827 28L376.333 17.7067L394.84 28L376.333 38.2934Z" fill="#006A4E"/>
<path d="M391 203.333C388.652 203.331 386.348 203.967 384.333 205.173C382.873 201.821 380.308 199.07 377.066 197.378C373.823 195.687 370.099 195.157 366.514 195.877C362.929 196.598 359.698 198.524 357.361 201.336C355.023 204.149 353.719 207.677 353.667 211.333V222C353.671 225.778 355.011 229.433 357.452 232.318C359.892 235.202 363.275 237.13 367 237.76V246C367 246.707 367.281 247.386 367.781 247.886C368.281 248.386 368.96 248.667 369.667 248.667C370.374 248.667 371.052 248.386 371.552 247.886C372.052 247.386 372.333 246.707 372.333 246V237.76C375.05 237.289 377.602 236.132 379.747 234.4C380.699 235.928 381.95 237.247 383.426 238.279C384.902 239.31 386.571 240.031 388.333 240.4V246C388.333 246.707 388.614 247.386 389.114 247.886C389.615 248.386 390.293 248.667 391 248.667C391.707 248.667 392.386 248.386 392.886 247.886C393.386 247.386 393.667 246.707 393.667 246V240.4C396.678 239.785 399.385 238.149 401.329 235.768C403.273 233.387 404.334 230.407 404.333 227.333V216.667C404.333 213.13 402.929 209.739 400.428 207.239C397.928 204.738 394.536 203.333 391 203.333V203.333ZM377.667 216.667V227.333C377.692 227.843 377.746 228.35 377.827 228.853C376.401 230.552 374.48 231.764 372.333 232.32V224.667C372.333 223.959 372.052 223.281 371.552 222.781C371.052 222.281 370.374 222 369.667 222C368.96 222 368.281 222.281 367.781 222.781C367.281 223.281 367 223.959 367 224.667V232.293C364.716 231.704 362.692 230.374 361.245 228.511C359.797 226.649 359.008 224.359 359 222V211.333C358.993 209.22 359.614 207.153 360.784 205.393C361.954 203.633 363.62 202.26 365.571 201.449C367.523 200.638 369.671 200.424 371.743 200.836C373.816 201.247 375.72 202.265 377.213 203.76C378.657 205.223 379.64 207.077 380.04 209.093C378.499 211.318 377.671 213.96 377.667 216.667V216.667ZM399 227.333C398.995 228.984 398.48 230.593 397.526 231.939C396.571 233.285 395.223 234.303 393.667 234.853V224.667C393.667 223.959 393.386 223.281 392.886 222.781C392.386 222.281 391.707 222 391 222C390.293 222 389.615 222.281 389.114 222.781C388.614 223.281 388.333 223.959 388.333 224.667V234.853C386.777 234.303 385.429 233.285 384.475 231.939C383.52 230.593 383.005 228.984 383 227.333V216.667C383 214.545 383.843 212.51 385.343 211.01C386.844 209.51 388.878 208.667 391 208.667C393.122 208.667 395.157 209.51 396.657 211.01C398.157 212.51 399 214.545 399 216.667V227.333Z" fill="#006A4E"/>
<path d="M899.44 111.168C898.272 111.168 897.216 110.968 896.272 110.568C895.344 110.168 894.608 109.592 894.064 108.84C893.52 108.088 893.24 107.2 893.224 106.176H896.824C896.872 106.864 897.112 107.408 897.544 107.808C897.992 108.208 898.6 108.408 899.368 108.408C900.152 108.408 900.768 108.224 901.216 107.856C901.664 107.472 901.888 106.976 901.888 106.368C901.888 105.872 901.736 105.464 901.432 105.144C901.128 104.824 900.744 104.576 900.28 104.4C899.832 104.208 899.208 104 898.408 103.776C897.32 103.456 896.432 103.144 895.744 102.84C895.072 102.52 894.488 102.048 893.992 101.424C893.512 100.784 893.272 99.936 893.272 98.88C893.272 97.888 893.52 97.024 894.016 96.288C894.512 95.552 895.208 94.992 896.104 94.608C897 94.208 898.024 94.008 899.176 94.008C900.904 94.008 902.304 94.432 903.376 95.28C904.464 96.112 905.064 97.28 905.176 98.784H901.48C901.448 98.208 901.2 97.736 900.736 97.368C900.288 96.984 899.688 96.792 898.936 96.792C898.28 96.792 897.752 96.96 897.352 97.296C896.968 97.632 896.776 98.12 896.776 98.76C896.776 99.208 896.92 99.584 897.208 99.888C897.512 100.176 897.88 100.416 898.312 100.608C898.76 100.784 899.384 100.992 900.184 101.232C901.272 101.552 902.16 101.872 902.848 102.192C903.536 102.512 904.128 102.992 904.624 103.632C905.12 104.272 905.368 105.112 905.368 106.152C905.368 107.048 905.136 107.88 904.672 108.648C904.208 109.416 903.528 110.032 902.632 110.496C901.736 110.944 900.672 111.168 899.44 111.168ZM915.769 97.512C916.777 97.512 917.673 97.736 918.457 98.184C919.241 98.616 919.849 99.264 920.281 100.128C920.729 100.976 920.953 102 920.953 103.2V111H917.593V103.656C917.593 102.6 917.329 101.792 916.801 101.232C916.273 100.656 915.553 100.368 914.641 100.368C913.713 100.368 912.977 100.656 912.433 101.232C911.905 101.792 911.641 102.6 911.641 103.656V111H908.281V93.24H911.641V99.36C912.073 98.784 912.649 98.336 913.369 98.016C914.089 97.68 914.889 97.512 915.769 97.512ZM925.852 96.12C925.26 96.12 924.764 95.936 924.364 95.568C923.98 95.184 923.788 94.712 923.788 94.152C923.788 93.592 923.98 93.128 924.364 92.76C924.764 92.376 925.26 92.184 925.852 92.184C926.444 92.184 926.932 92.376 927.316 92.76C927.716 93.128 927.916 93.592 927.916 94.152C927.916 94.712 927.716 95.184 927.316 95.568C926.932 95.936 926.444 96.12 925.852 96.12ZM927.508 97.704V111H924.148V97.704H927.508ZM934.188 99.624C934.62 99.016 935.212 98.512 935.964 98.112C936.732 97.696 937.604 97.488 938.58 97.488C939.716 97.488 940.74 97.768 941.652 98.328C942.58 98.888 943.308 99.688 943.836 100.728C944.38 101.752 944.652 102.944 944.652 104.304C944.652 105.664 944.38 106.872 943.836 107.928C943.308 108.968 942.58 109.776 941.652 110.352C940.74 110.928 939.716 111.216 938.58 111.216C937.604 111.216 936.74 111.016 935.988 110.616C935.252 110.216 934.652 109.712 934.188 109.104V117.336H930.828V97.704H934.188V99.624ZM941.22 104.304C941.22 103.504 941.052 102.816 940.716 102.24C940.396 101.648 939.964 101.2 939.42 100.896C938.892 100.592 938.316 100.44 937.692 100.44C937.084 100.44 936.508 100.6 935.964 100.92C935.436 101.224 935.004 101.672 934.668 102.264C934.348 102.856 934.188 103.552 934.188 104.352C934.188 105.152 934.348 105.848 934.668 106.44C935.004 107.032 935.436 107.488 935.964 107.808C936.508 108.112 937.084 108.264 937.692 108.264C938.316 108.264 938.892 108.104 939.42 107.784C939.964 107.464 940.396 107.008 940.716 106.416C941.052 105.824 941.22 105.12 941.22 104.304ZM950.454 99.624C950.886 99.016 951.478 98.512 952.23 98.112C952.998 97.696 953.87 97.488 954.846 97.488C955.982 97.488 957.006 97.768 957.918 98.328C958.846 98.888 959.574 99.688 960.102 100.728C960.646 101.752 960.918 102.944 960.918 104.304C960.918 105.664 960.646 106.872 960.102 107.928C959.574 108.968 958.846 109.776 957.918 110.352C957.006 110.928 955.982 111.216 954.846 111.216C953.87 111.216 953.006 111.016 952.254 110.616C951.518 110.216 950.918 109.712 950.454 109.104V117.336H947.094V97.704H950.454V99.624ZM957.486 104.304C957.486 103.504 957.318 102.816 956.982 102.24C956.662 101.648 956.23 101.2 955.686 100.896C955.158 100.592 954.582 100.44 953.958 100.44C953.35 100.44 952.774 100.6 952.23 100.92C951.702 101.224 951.27 101.672 950.934 102.264C950.614 102.856 950.454 103.552 950.454 104.352C950.454 105.152 950.614 105.848 950.934 106.44C951.27 107.032 951.702 107.488 952.23 107.808C952.774 108.112 953.35 108.264 953.958 108.264C954.582 108.264 955.158 108.104 955.686 107.784C956.23 107.464 956.662 107.008 956.982 106.416C957.318 105.824 957.486 105.12 957.486 104.304ZM965.063 96.12C964.471 96.12 963.975 95.936 963.575 95.568C963.191 95.184 962.999 94.712 962.999 94.152C962.999 93.592 963.191 93.128 963.575 92.76C963.975 92.376 964.471 92.184 965.063 92.184C965.655 92.184 966.143 92.376 966.527 92.76C966.927 93.128 967.127 93.592 967.127 94.152C967.127 94.712 966.927 95.184 966.527 95.568C966.143 95.936 965.655 96.12 965.063 96.12ZM966.719 97.704V111H963.359V97.704H966.719ZM977.407 97.512C978.991 97.512 980.271 98.016 981.247 99.024C982.223 100.016 982.711 101.408 982.711 103.2V111H979.351V103.656C979.351 102.6 979.087 101.792 978.559 101.232C978.031 100.656 977.311 100.368 976.399 100.368C975.471 100.368 974.735 100.656 974.191 101.232C973.663 101.792 973.399 102.6 973.399 103.656V111H970.039V97.704H973.399V99.36C973.847 98.784 974.415 98.336 975.103 98.016C975.807 97.68 976.575 97.512 977.407 97.512ZM991.114 97.488C992.106 97.488 992.978 97.688 993.73 98.088C994.482 98.472 995.074 98.976 995.506 99.6V97.704H998.89V111.096C998.89 112.328 998.642 113.424 998.146 114.384C997.65 115.36 996.906 116.128 995.914 116.688C994.922 117.264 993.722 117.552 992.314 117.552C990.426 117.552 988.874 117.112 987.658 116.232C986.458 115.352 985.778 114.152 985.618 112.632H988.954C989.13 113.24 989.506 113.72 990.082 114.072C990.674 114.44 991.386 114.624 992.218 114.624C993.194 114.624 993.986 114.328 994.594 113.736C995.202 113.16 995.506 112.28 995.506 111.096V109.032C995.074 109.656 994.474 110.176 993.706 110.592C992.954 111.008 992.09 111.216 991.114 111.216C989.994 111.216 988.97 110.928 988.042 110.352C987.114 109.776 986.378 108.968 985.834 107.928C985.306 106.872 985.042 105.664 985.042 104.304C985.042 102.96 985.306 101.768 985.834 100.728C986.378 99.688 987.106 98.888 988.018 98.328C988.946 97.768 989.978 97.488 991.114 97.488ZM995.506 104.352C995.506 103.536 995.346 102.84 995.026 102.264C994.706 101.672 994.274 101.224 993.73 100.92C993.186 100.6 992.602 100.44 991.978 100.44C991.354 100.44 990.778 100.592 990.25 100.896C989.722 101.2 989.29 101.648 988.954 102.24C988.634 102.816 988.474 103.504 988.474 104.304C988.474 105.104 988.634 105.808 988.954 106.416C989.29 107.008 989.722 107.464 990.25 107.784C990.794 108.104 991.37 108.264 991.978 108.264C992.602 108.264 993.186 108.112 993.73 107.808C994.274 107.488 994.706 107.04 995.026 106.464C995.346 105.872 995.506 105.168 995.506 104.352ZM1020.78 111L1018.95 109.2C1017.4 110.592 1015.51 111.288 1013.27 111.288C1012.03 111.288 1010.95 111.08 1010 110.664C1009.07 110.232 1008.35 109.632 1007.84 108.864C1007.33 108.08 1007.07 107.176 1007.07 106.152C1007.07 105.048 1007.39 104.056 1008.01 103.176C1008.63 102.296 1009.55 101.584 1010.77 101.04C1010.34 100.512 1010.03 100.008 1009.83 99.528C1009.64 99.032 1009.55 98.504 1009.55 97.944C1009.55 97.176 1009.75 96.488 1010.15 95.88C1010.55 95.256 1011.11 94.768 1011.85 94.416C1012.6 94.064 1013.47 93.888 1014.47 93.888C1015.47 93.888 1016.34 94.08 1017.06 94.464C1017.78 94.848 1018.31 95.36 1018.67 96C1019.02 96.64 1019.17 97.352 1019.12 98.136H1015.86C1015.87 97.608 1015.75 97.208 1015.47 96.936C1015.2 96.648 1014.83 96.504 1014.37 96.504C1013.92 96.504 1013.55 96.64 1013.24 96.912C1012.95 97.168 1012.81 97.504 1012.81 97.92C1012.81 98.32 1012.93 98.72 1013.17 99.12C1013.41 99.504 1013.8 99.984 1014.35 100.56L1018.57 104.736C1018.6 104.704 1018.63 104.672 1018.64 104.64C1018.66 104.608 1018.67 104.576 1018.69 104.544L1020.06 102.264H1023.56L1021.88 105.216C1021.56 105.84 1021.22 106.432 1020.85 106.992L1024.91 111H1020.78ZM1013.36 108.504C1014.67 108.504 1015.83 108.04 1016.84 107.112L1012.71 103.032C1011.16 103.72 1010.39 104.696 1010.39 105.96C1010.39 106.68 1010.66 107.288 1011.2 107.784C1011.75 108.264 1012.47 108.504 1013.36 108.504ZM1050.55 94.248V111H1047.19V100.104L1042.7 111H1040.16L1035.65 100.104V111H1032.29V94.248H1036.1L1041.43 106.704L1046.76 94.248H1050.55ZM1053.01 104.304C1053.01 102.96 1053.27 101.768 1053.8 100.728C1054.35 99.688 1055.07 98.888 1055.99 98.328C1056.91 97.768 1057.95 97.488 1059.08 97.488C1060.07 97.488 1060.94 97.688 1061.67 98.088C1062.43 98.488 1063.03 98.992 1063.47 99.6V97.704H1066.86V111H1063.47V109.056C1063.04 109.68 1062.44 110.2 1061.67 110.616C1060.92 111.016 1060.05 111.216 1059.06 111.216C1057.94 111.216 1056.91 110.928 1055.99 110.352C1055.07 109.776 1054.35 108.968 1053.8 107.928C1053.27 106.872 1053.01 105.664 1053.01 104.304ZM1063.47 104.352C1063.47 103.536 1063.31 102.84 1062.99 102.264C1062.67 101.672 1062.24 101.224 1061.7 100.92C1061.15 100.6 1060.57 100.44 1059.95 100.44C1059.32 100.44 1058.75 100.592 1058.22 100.896C1057.69 101.2 1057.26 101.648 1056.92 102.24C1056.6 102.816 1056.44 103.504 1056.44 104.304C1056.44 105.104 1056.6 105.808 1056.92 106.416C1057.26 107.008 1057.69 107.464 1058.22 107.784C1058.76 108.104 1059.34 108.264 1059.95 108.264C1060.57 108.264 1061.15 108.112 1061.7 107.808C1062.24 107.488 1062.67 107.04 1062.99 106.464C1063.31 105.872 1063.47 105.168 1063.47 104.352ZM1071.84 96.12C1071.25 96.12 1070.76 95.936 1070.36 95.568C1069.97 95.184 1069.78 94.712 1069.78 94.152C1069.78 93.592 1069.97 93.128 1070.36 92.76C1070.76 92.376 1071.25 92.184 1071.84 92.184C1072.44 92.184 1072.92 92.376 1073.31 92.76C1073.71 93.128 1073.91 93.592 1073.91 94.152C1073.91 94.712 1073.71 95.184 1073.31 95.568C1072.92 95.936 1072.44 96.12 1071.84 96.12ZM1073.5 97.704V111H1070.14V97.704H1073.5ZM1080.18 93.24V111H1076.82V93.24H1080.18ZM1085.2 96.12C1084.61 96.12 1084.12 95.936 1083.72 95.568C1083.33 95.184 1083.14 94.712 1083.14 94.152C1083.14 93.592 1083.33 93.128 1083.72 92.76C1084.12 92.376 1084.61 92.184 1085.2 92.184C1085.8 92.184 1086.28 92.376 1086.67 92.76C1087.07 93.128 1087.27 93.592 1087.27 94.152C1087.27 94.712 1087.07 95.184 1086.67 95.568C1086.28 95.936 1085.8 96.12 1085.2 96.12ZM1086.86 97.704V111H1083.5V97.704H1086.86ZM1097.55 97.512C1099.13 97.512 1100.41 98.016 1101.39 99.024C1102.36 100.016 1102.85 101.408 1102.85 103.2V111H1099.49V103.656C1099.49 102.6 1099.23 101.792 1098.7 101.232C1098.17 100.656 1097.45 100.368 1096.54 100.368C1095.61 100.368 1094.88 100.656 1094.33 101.232C1093.8 101.792 1093.54 102.6 1093.54 103.656V111H1090.18V97.704H1093.54V99.36C1093.99 98.784 1094.56 98.336 1095.24 98.016C1095.95 97.68 1096.72 97.512 1097.55 97.512ZM1111.25 97.488C1112.25 97.488 1113.12 97.688 1113.87 98.088C1114.62 98.472 1115.21 98.976 1115.65 99.6V97.704H1119.03V111.096C1119.03 112.328 1118.78 113.424 1118.29 114.384C1117.79 115.36 1117.05 116.128 1116.05 116.688C1115.06 117.264 1113.86 117.552 1112.45 117.552C1110.57 117.552 1109.01 117.112 1107.8 116.232C1106.6 115.352 1105.92 114.152 1105.76 112.632H1109.09C1109.27 113.24 1109.65 113.72 1110.22 114.072C1110.81 114.44 1111.53 114.624 1112.36 114.624C1113.33 114.624 1114.13 114.328 1114.73 113.736C1115.34 113.16 1115.65 112.28 1115.65 111.096V109.032C1115.21 109.656 1114.61 110.176 1113.85 110.592C1113.09 111.008 1112.23 111.216 1111.25 111.216C1110.13 111.216 1109.11 110.928 1108.18 110.352C1107.25 109.776 1106.52 108.968 1105.97 107.928C1105.45 106.872 1105.18 105.664 1105.18 104.304C1105.18 102.96 1105.45 101.768 1105.97 100.728C1106.52 99.688 1107.25 98.888 1108.16 98.328C1109.09 97.768 1110.12 97.488 1111.25 97.488ZM1115.65 104.352C1115.65 103.536 1115.49 102.84 1115.17 102.264C1114.85 101.672 1114.41 101.224 1113.87 100.92C1113.33 100.6 1112.74 100.44 1112.12 100.44C1111.49 100.44 1110.92 100.592 1110.39 100.896C1109.86 101.2 1109.43 101.648 1109.09 102.24C1108.77 102.816 1108.61 103.504 1108.61 104.304C1108.61 105.104 1108.77 105.808 1109.09 106.416C1109.43 107.008 1109.86 107.464 1110.39 107.784C1110.93 108.104 1111.51 108.264 1112.12 108.264C1112.74 108.264 1113.33 108.112 1113.87 107.808C1114.41 107.488 1114.85 107.04 1115.17 106.464C1115.49 105.872 1115.65 105.168 1115.65 104.352Z" fill="black"/>
<path d="M855.512 284.248C857.272 284.248 858.816 284.592 860.144 285.28C861.488 285.968 862.52 286.952 863.24 288.232C863.976 289.496 864.344 290.968 864.344 292.648C864.344 294.328 863.976 295.8 863.24 297.064C862.52 298.312 861.488 299.28 860.144 299.968C858.816 300.656 857.272 301 855.512 301H849.656V284.248H855.512ZM855.392 298.144C857.152 298.144 858.512 297.664 859.472 296.704C860.432 295.744 860.912 294.392 860.912 292.648C860.912 290.904 860.432 289.544 859.472 288.568C858.512 287.576 857.152 287.08 855.392 287.08H853.016V298.144H855.392ZM865.995 294.304C865.995 292.96 866.259 291.768 866.787 290.728C867.331 289.688 868.059 288.888 868.971 288.328C869.899 287.768 870.931 287.488 872.067 287.488C873.059 287.488 873.923 287.688 874.659 288.088C875.411 288.488 876.011 288.992 876.459 289.6V287.704H879.843V301H876.459V299.056C876.027 299.68 875.427 300.2 874.659 300.616C873.907 301.016 873.035 301.216 872.043 301.216C870.923 301.216 869.899 300.928 868.971 300.352C868.059 299.776 867.331 298.968 866.787 297.928C866.259 296.872 865.995 295.664 865.995 294.304ZM876.459 294.352C876.459 293.536 876.299 292.84 875.979 292.264C875.659 291.672 875.227 291.224 874.683 290.92C874.139 290.6 873.555 290.44 872.931 290.44C872.307 290.44 871.731 290.592 871.203 290.896C870.675 291.2 870.243 291.648 869.907 292.24C869.587 292.816 869.427 293.504 869.427 294.304C869.427 295.104 869.587 295.808 869.907 296.416C870.243 297.008 870.675 297.464 871.203 297.784C871.747 298.104 872.323 298.264 872.931 298.264C873.555 298.264 874.139 298.112 874.683 297.808C875.227 297.488 875.659 297.04 875.979 296.464C876.299 295.872 876.459 295.168 876.459 294.352ZM887.037 290.464V296.896C887.037 297.344 887.141 297.672 887.349 297.88C887.573 298.072 887.941 298.168 888.453 298.168H890.013V301H887.901C885.069 301 883.653 299.624 883.653 296.872V290.464H882.069V287.704H883.653V284.416H887.037V287.704H890.013V290.464H887.037ZM891.565 294.304C891.565 292.96 891.829 291.768 892.357 290.728C892.901 289.688 893.629 288.888 894.541 288.328C895.469 287.768 896.501 287.488 897.637 287.488C898.629 287.488 899.493 287.688 900.229 288.088C900.981 288.488 901.581 288.992 902.029 289.6V287.704H905.413V301H902.029V299.056C901.597 299.68 900.997 300.2 900.229 300.616C899.477 301.016 898.605 301.216 897.613 301.216C896.493 301.216 895.469 300.928 894.541 300.352C893.629 299.776 892.901 298.968 892.357 297.928C891.829 296.872 891.565 295.664 891.565 294.304ZM902.029 294.352C902.029 293.536 901.869 292.84 901.549 292.264C901.229 291.672 900.797 291.224 900.253 290.92C899.709 290.6 899.125 290.44 898.501 290.44C897.877 290.44 897.301 290.592 896.773 290.896C896.245 291.2 895.813 291.648 895.477 292.24C895.157 292.816 894.997 293.504 894.997 294.304C894.997 295.104 895.157 295.808 895.477 296.416C895.813 297.008 896.245 297.464 896.773 297.784C897.317 298.104 897.893 298.264 898.501 298.264C899.125 298.264 899.709 298.112 900.253 297.808C900.797 297.488 901.229 297.04 901.549 296.464C901.869 295.872 902.029 295.168 902.029 294.352ZM926.63 289.432C926.63 290.328 926.414 291.168 925.982 291.952C925.566 292.736 924.902 293.368 923.99 293.848C923.094 294.328 921.958 294.568 920.582 294.568H917.774V301H914.414V284.248H920.582C921.878 284.248 922.982 284.472 923.894 284.92C924.806 285.368 925.486 285.984 925.934 286.768C926.398 287.552 926.63 288.44 926.63 289.432ZM920.438 291.856C921.366 291.856 922.054 291.648 922.502 291.232C922.95 290.8 923.174 290.2 923.174 289.432C923.174 287.8 922.262 286.984 920.438 286.984H917.774V291.856H920.438ZM932.375 289.768C932.807 289.064 933.367 288.512 934.055 288.112C934.759 287.712 935.559 287.512 936.455 287.512V291.04H935.567C934.511 291.04 933.711 291.288 933.167 291.784C932.639 292.28 932.375 293.144 932.375 294.376V301H929.015V287.704H932.375V289.768ZM940.423 286.12C939.831 286.12 939.335 285.936 938.935 285.568C938.551 285.184 938.359 284.712 938.359 284.152C938.359 283.592 938.551 283.128 938.935 282.76C939.335 282.376 939.831 282.184 940.423 282.184C941.015 282.184 941.503 282.376 941.887 282.76C942.287 283.128 942.487 283.592 942.487 284.152C942.487 284.712 942.287 285.184 941.887 285.568C941.503 285.936 941.015 286.12 940.423 286.12ZM942.079 287.704V301H938.719V287.704H942.079ZM950.942 297.904L954.302 287.704H957.878L952.958 301H948.878L943.982 287.704H947.582L950.942 297.904ZM958.901 294.304C958.901 292.96 959.165 291.768 959.693 290.728C960.237 289.688 960.965 288.888 961.877 288.328C962.805 287.768 963.837 287.488 964.973 287.488C965.965 287.488 966.829 287.688 967.565 288.088C968.317 288.488 968.917 288.992 969.365 289.6V287.704H972.749V301H969.365V299.056C968.933 299.68 968.333 300.2 967.565 300.616C966.813 301.016 965.941 301.216 964.949 301.216C963.829 301.216 962.805 300.928 961.877 300.352C960.965 299.776 960.237 298.968 959.693 297.928C959.165 296.872 958.901 295.664 958.901 294.304ZM969.365 294.352C969.365 293.536 969.205 292.84 968.885 292.264C968.565 291.672 968.133 291.224 967.589 290.92C967.045 290.6 966.461 290.44 965.837 290.44C965.213 290.44 964.637 290.592 964.109 290.896C963.581 291.2 963.149 291.648 962.813 292.24C962.493 292.816 962.333 293.504 962.333 294.304C962.333 295.104 962.493 295.808 962.813 296.416C963.149 297.008 963.581 297.464 964.109 297.784C964.653 298.104 965.229 298.264 965.837 298.264C966.461 298.264 967.045 298.112 967.589 297.808C968.133 297.488 968.565 297.04 968.885 296.464C969.205 295.872 969.365 295.168 969.365 294.352ZM975.167 294.352C975.167 292.976 975.447 291.776 976.007 290.752C976.567 289.712 977.343 288.912 978.335 288.352C979.327 287.776 980.463 287.488 981.743 287.488C983.391 287.488 984.751 287.904 985.823 288.736C986.911 289.552 987.639 290.704 988.007 292.192H984.383C984.191 291.616 983.863 291.168 983.399 290.848C982.951 290.512 982.391 290.344 981.719 290.344C980.759 290.344 979.999 290.696 979.439 291.4C978.879 292.088 978.599 293.072 978.599 294.352C978.599 295.616 978.879 296.6 979.439 297.304C979.999 297.992 980.759 298.336 981.719 298.336C983.079 298.336 983.967 297.728 984.383 296.512H988.007C987.639 297.952 986.911 299.096 985.823 299.944C984.735 300.792 983.375 301.216 981.743 301.216C980.463 301.216 979.327 300.936 978.335 300.376C977.343 299.8 976.567 299 976.007 297.976C975.447 296.936 975.167 295.728 975.167 294.352ZM1003.19 287.704L994.957 307.288H991.381L994.261 300.664L988.933 287.704H992.701L996.133 296.992L999.613 287.704H1003.19ZM1009.85 294.304C1009.85 292.96 1010.12 291.768 1010.65 290.728C1011.19 289.688 1011.92 288.888 1012.83 288.328C1013.76 287.768 1014.79 287.488 1015.93 287.488C1016.92 287.488 1017.78 287.688 1018.52 288.088C1019.27 288.488 1019.87 288.992 1020.32 289.6V287.704H1023.7V301H1020.32V299.056C1019.89 299.68 1019.29 300.2 1018.52 300.616C1017.77 301.016 1016.89 301.216 1015.9 301.216C1014.78 301.216 1013.76 300.928 1012.83 300.352C1011.92 299.776 1011.19 298.968 1010.65 297.928C1010.12 296.872 1009.85 295.664 1009.85 294.304ZM1020.32 294.352C1020.32 293.536 1020.16 292.84 1019.84 292.264C1019.52 291.672 1019.09 291.224 1018.54 290.92C1018 290.6 1017.41 290.44 1016.79 290.44C1016.17 290.44 1015.59 290.592 1015.06 290.896C1014.53 291.2 1014.1 291.648 1013.77 292.24C1013.45 292.816 1013.29 293.504 1013.29 294.304C1013.29 295.104 1013.45 295.808 1013.77 296.416C1014.1 297.008 1014.53 297.464 1015.06 297.784C1015.61 298.104 1016.18 298.264 1016.79 298.264C1017.41 298.264 1018 298.112 1018.54 297.808C1019.09 297.488 1019.52 297.04 1019.84 296.464C1020.16 295.872 1020.32 295.168 1020.32 294.352ZM1034.35 287.512C1035.94 287.512 1037.22 288.016 1038.19 289.024C1039.17 290.016 1039.66 291.408 1039.66 293.2V301H1036.3V293.656C1036.3 292.6 1036.03 291.792 1035.5 291.232C1034.98 290.656 1034.26 290.368 1033.34 290.368C1032.42 290.368 1031.68 290.656 1031.14 291.232C1030.61 291.792 1030.34 292.6 1030.34 293.656V301H1026.98V287.704H1030.34V289.36C1030.79 288.784 1031.36 288.336 1032.05 288.016C1032.75 287.68 1033.52 287.512 1034.35 287.512ZM1041.99 294.304C1041.99 292.96 1042.25 291.768 1042.78 290.728C1043.32 289.688 1044.06 288.888 1044.99 288.328C1045.92 287.768 1046.95 287.488 1048.08 287.488C1048.95 287.488 1049.77 287.68 1050.56 288.064C1051.34 288.432 1051.96 288.928 1052.43 289.552V283.24H1055.84V301H1052.43V299.032C1052.01 299.688 1051.43 300.216 1050.68 300.616C1049.92 301.016 1049.05 301.216 1048.06 301.216C1046.94 301.216 1045.92 300.928 1044.99 300.352C1044.06 299.776 1043.32 298.968 1042.78 297.928C1042.25 296.872 1041.99 295.664 1041.99 294.304ZM1052.45 294.352C1052.45 293.536 1052.29 292.84 1051.97 292.264C1051.65 291.672 1051.22 291.224 1050.68 290.92C1050.13 290.6 1049.55 290.44 1048.92 290.44C1048.3 290.44 1047.72 290.592 1047.2 290.896C1046.67 291.2 1046.24 291.648 1045.9 292.24C1045.58 292.816 1045.42 293.504 1045.42 294.304C1045.42 295.104 1045.58 295.808 1045.9 296.416C1046.24 297.008 1046.67 297.464 1047.2 297.784C1047.74 298.104 1048.32 298.264 1048.92 298.264C1049.55 298.264 1050.13 298.112 1050.68 297.808C1051.22 297.488 1051.65 297.04 1051.97 296.464C1052.29 295.872 1052.45 295.168 1052.45 294.352ZM1070.62 301.168C1069.45 301.168 1068.4 300.968 1067.45 300.568C1066.52 300.168 1065.79 299.592 1065.24 298.84C1064.7 298.088 1064.42 297.2 1064.4 296.176H1068C1068.05 296.864 1068.29 297.408 1068.72 297.808C1069.17 298.208 1069.78 298.408 1070.55 298.408C1071.33 298.408 1071.95 298.224 1072.4 297.856C1072.84 297.472 1073.07 296.976 1073.07 296.368C1073.07 295.872 1072.92 295.464 1072.61 295.144C1072.31 294.824 1071.92 294.576 1071.46 294.4C1071.01 294.208 1070.39 294 1069.59 293.776C1068.5 293.456 1067.61 293.144 1066.92 292.84C1066.25 292.52 1065.67 292.048 1065.17 291.424C1064.69 290.784 1064.45 289.936 1064.45 288.88C1064.45 287.888 1064.7 287.024 1065.2 286.288C1065.69 285.552 1066.39 284.992 1067.28 284.608C1068.18 284.208 1069.2 284.008 1070.36 284.008C1072.08 284.008 1073.48 284.432 1074.56 285.28C1075.64 286.112 1076.24 287.28 1076.36 288.784H1072.66C1072.63 288.208 1072.38 287.736 1071.92 287.368C1071.47 286.984 1070.87 286.792 1070.12 286.792C1069.46 286.792 1068.93 286.96 1068.53 287.296C1068.15 287.632 1067.96 288.12 1067.96 288.76C1067.96 289.208 1068.1 289.584 1068.39 289.888C1068.69 290.176 1069.06 290.416 1069.49 290.608C1069.94 290.784 1070.56 290.992 1071.36 291.232C1072.45 291.552 1073.34 291.872 1074.03 292.192C1074.72 292.512 1075.31 292.992 1075.8 293.632C1076.3 294.272 1076.55 295.112 1076.55 296.152C1076.55 297.048 1076.32 297.88 1075.85 298.648C1075.39 299.416 1074.71 300.032 1073.81 300.496C1072.92 300.944 1071.85 301.168 1070.62 301.168ZM1091.82 294.064C1091.82 294.544 1091.79 294.976 1091.72 295.36H1082C1082.08 296.32 1082.42 297.072 1083.01 297.616C1083.6 298.16 1084.33 298.432 1085.2 298.432C1086.44 298.432 1087.33 297.896 1087.86 296.824H1091.48C1091.1 298.104 1090.36 299.16 1089.28 299.992C1088.19 300.808 1086.85 301.216 1085.27 301.216C1083.99 301.216 1082.84 300.936 1081.81 300.376C1080.8 299.8 1080.01 298.992 1079.44 297.952C1078.88 296.912 1078.6 295.712 1078.6 294.352C1078.6 292.976 1078.88 291.768 1079.44 290.728C1080 289.688 1080.78 288.888 1081.79 288.328C1082.8 287.768 1083.96 287.488 1085.27 287.488C1086.53 287.488 1087.66 287.76 1088.65 288.304C1089.66 288.848 1090.44 289.624 1090.98 290.632C1091.54 291.624 1091.82 292.768 1091.82 294.064ZM1088.34 293.104C1088.32 292.24 1088.01 291.552 1087.4 291.04C1086.8 290.512 1086.05 290.248 1085.17 290.248C1084.34 290.248 1083.64 290.504 1083.06 291.016C1082.5 291.512 1082.16 292.208 1082.03 293.104H1088.34ZM1093.41 294.352C1093.41 292.976 1093.69 291.776 1094.25 290.752C1094.81 289.712 1095.59 288.912 1096.58 288.352C1097.57 287.776 1098.71 287.488 1099.99 287.488C1101.63 287.488 1102.99 287.904 1104.07 288.736C1105.15 289.552 1105.88 290.704 1106.25 292.192H1102.63C1102.43 291.616 1102.11 291.168 1101.64 290.848C1101.19 290.512 1100.63 290.344 1099.96 290.344C1099 290.344 1098.24 290.696 1097.68 291.4C1097.12 292.088 1096.84 293.072 1096.84 294.352C1096.84 295.616 1097.12 296.6 1097.68 297.304C1098.24 297.992 1099 298.336 1099.96 298.336C1101.32 298.336 1102.21 297.728 1102.63 296.512H1106.25C1105.88 297.952 1105.15 299.096 1104.07 299.944C1102.98 300.792 1101.62 301.216 1099.99 301.216C1098.71 301.216 1097.57 300.936 1096.58 300.376C1095.59 299.8 1094.81 299 1094.25 297.976C1093.69 296.936 1093.41 295.728 1093.41 294.352ZM1121.26 287.704V301H1117.88V299.32C1117.45 299.896 1116.88 300.352 1116.17 300.688C1115.49 301.008 1114.73 301.168 1113.92 301.168C1112.88 301.168 1111.96 300.952 1111.16 300.52C1110.36 300.072 1109.73 299.424 1109.26 298.576C1108.81 297.712 1108.59 296.688 1108.59 295.504V287.704H1111.95V295.024C1111.95 296.08 1112.21 296.896 1112.74 297.472C1113.27 298.032 1113.99 298.312 1114.9 298.312C1115.83 298.312 1116.56 298.032 1117.09 297.472C1117.61 296.896 1117.88 296.08 1117.88 295.024V287.704H1121.26ZM1127.94 289.768C1128.37 289.064 1128.93 288.512 1129.62 288.112C1130.32 287.712 1131.12 287.512 1132.02 287.512V291.04H1131.13C1130.07 291.04 1129.27 291.288 1128.73 291.784C1128.2 292.28 1127.94 293.144 1127.94 294.376V301H1124.58V287.704H1127.94V289.768ZM1135.99 286.12C1135.39 286.12 1134.9 285.936 1134.5 285.568C1134.11 285.184 1133.92 284.712 1133.92 284.152C1133.92 283.592 1134.11 283.128 1134.5 282.76C1134.9 282.376 1135.39 282.184 1135.99 282.184C1136.58 282.184 1137.07 282.376 1137.45 282.76C1137.85 283.128 1138.05 283.592 1138.05 284.152C1138.05 284.712 1137.85 285.184 1137.45 285.568C1137.07 285.936 1136.58 286.12 1135.99 286.12ZM1137.64 287.704V301H1134.28V287.704H1137.64ZM1144.87 290.464V296.896C1144.87 297.344 1144.98 297.672 1145.18 297.88C1145.41 298.072 1145.78 298.168 1146.29 298.168H1147.85V301H1145.74C1142.9 301 1141.49 299.624 1141.49 296.872V290.464H1139.9V287.704H1141.49V284.416H1144.87V287.704H1147.85V290.464H1144.87ZM1162.99 287.704L1154.75 307.288H1151.18L1154.06 300.664L1148.73 287.704H1152.5L1155.93 296.992L1159.41 287.704H1162.99Z" fill="black"/>
<path d="M983.653 46.0799C983.915 46.7377 984.427 47.2645 985.077 47.5446C985.728 47.8246 986.462 47.8349 987.12 47.5733C987.778 47.3116 988.305 46.7993 988.585 46.1492C988.865 45.4991 988.875 44.7643 988.613 44.1066L985.627 36.5866L1003.33 32.6666V45.3333C1003.33 46.0405 1003.61 46.7188 1004.11 47.2189C1004.61 47.719 1005.29 47.9999 1006 47.9999C1006.71 47.9999 1007.39 47.719 1007.89 47.2189C1008.39 46.7188 1008.67 46.0405 1008.67 45.3333V32.6666L1026.37 36.5866L1023.39 44.1066C1023.26 44.4322 1023.19 44.7803 1023.2 45.1309C1023.2 45.4814 1023.28 45.8276 1023.41 46.1496C1023.55 46.4716 1023.75 46.7631 1024.01 47.0074C1024.26 47.2516 1024.55 47.4439 1024.88 47.5733C1025.19 47.6974 1025.53 47.7607 1025.87 47.7599C1026.4 47.7604 1026.92 47.6006 1027.36 47.301C1027.81 47.0015 1028.15 46.5761 1028.35 46.0799L1032.48 35.6533C1032.62 35.2926 1032.68 34.9054 1032.66 34.5185C1032.64 34.1317 1032.53 33.7545 1032.35 33.4133C1032.17 33.0732 1031.92 32.7757 1031.62 32.541C1031.31 32.3063 1030.96 32.1399 1030.59 32.0533L1022 30.1599V18.6666C1022 17.9593 1021.72 17.2811 1021.22 16.781C1020.72 16.2809 1020.04 15.9999 1019.33 15.9999H1014V7.99992C1014 7.29267 1013.72 6.6144 1013.22 6.1143C1012.72 5.6142 1012.04 5.33325 1011.33 5.33325H1000.67C999.96 5.33325 999.281 5.6142 998.781 6.1143C998.281 6.6144 998 7.29267 998 7.99992V15.9999H992.667C991.96 15.9999 991.281 16.2809 990.781 16.781C990.281 17.2811 990 17.9593 990 18.6666V30.1599L981.413 31.9999C981.039 32.0866 980.689 32.2529 980.385 32.4877C980.081 32.7224 979.832 33.0199 979.653 33.3599C979.47 33.7012 979.363 34.0784 979.34 34.4652C979.317 34.8521 979.378 35.2393 979.52 35.5999L983.653 46.0799ZM1003.33 10.6666H1008.67V15.9999H1003.33V10.6666ZM995.333 21.3333H1016.67V28.9599L1006.59 26.6666H1006.32H1006H1005.68H1005.41L995.333 28.9599V21.3333ZM1029.23 51.4133C1028.29 51.7 1027.4 52.1031 1026.56 52.6133C1025.71 53.11 1024.74 53.3719 1023.76 53.3719C1022.78 53.3719 1021.81 53.11 1020.96 52.6133C1019.11 51.5711 1017.03 51.0236 1014.91 51.0236C1012.79 51.0236 1010.7 51.5711 1008.85 52.6133C1007.99 53.1043 1007.02 53.3625 1006.03 53.3625C1005.04 53.3625 1004.06 53.1043 1003.2 52.6133C1001.35 51.5761 999.267 51.0314 997.147 51.0314C995.027 51.0314 992.942 51.5761 991.093 52.6133C990.244 53.11 989.278 53.3719 988.293 53.3719C987.309 53.3719 986.343 53.11 985.493 52.6133C984.658 52.1031 983.762 51.7 982.827 51.4133C982.472 51.2871 982.094 51.2375 981.719 51.2678C981.344 51.2981 980.979 51.4075 980.649 51.5889C980.319 51.7703 980.031 52.0195 979.804 52.3202C979.578 52.6208 979.417 52.9661 979.333 53.3333C979.134 54.0087 979.21 54.7354 979.545 55.3549C979.88 55.9743 980.446 56.4363 981.12 56.6399C981.657 56.7854 982.169 57.0101 982.64 57.3066C984.258 58.2559 986.098 58.7618 987.973 58.7733C989.922 58.7736 991.835 58.2584 993.52 57.2799C994.565 56.7033 995.74 56.4009 996.933 56.4009C998.127 56.4009 999.301 56.7033 1000.35 57.2799C1002.02 58.2364 1003.91 58.7396 1005.84 58.7396C1007.77 58.7396 1009.66 58.2364 1011.33 57.2799C1012.38 56.7033 1013.55 56.4009 1014.75 56.4009C1015.94 56.4009 1017.11 56.7033 1018.16 57.2799C1019.81 58.2664 1021.7 58.7873 1023.63 58.7873C1025.55 58.7873 1027.44 58.2664 1029.09 57.2799C1029.56 56.9834 1030.08 56.7587 1030.61 56.6133C1030.97 56.5415 1031.3 56.3982 1031.6 56.1921C1031.9 55.986 1032.15 55.7214 1032.34 55.4145C1032.54 55.1076 1032.66 54.7648 1032.72 54.407C1032.78 54.0492 1032.76 53.6838 1032.67 53.3333C1032.58 52.9724 1032.42 52.6331 1032.2 52.3371C1031.98 52.0412 1031.69 51.795 1031.37 51.6143C1031.05 51.4337 1030.69 51.3225 1030.32 51.2878C1029.95 51.2532 1029.58 51.2959 1029.23 51.4133Z" fill="#006A4E"/>
<path d="M1006 224.667C1005.19 224.657 1004.39 224.897 1003.72 225.353C1003.05 225.809 1002.53 226.46 1002.24 227.218C1001.95 227.976 1001.9 228.805 1002.1 229.593C1002.29 230.382 1002.72 231.091 1003.33 231.627V235.333C1003.33 236.04 1003.61 236.719 1004.11 237.219C1004.61 237.719 1005.29 238 1006 238C1006.71 238 1007.39 237.719 1007.89 237.219C1008.39 236.719 1008.67 236.04 1008.67 235.333V231.627C1009.28 231.091 1009.71 230.382 1009.9 229.593C1010.1 228.805 1010.05 227.976 1009.76 227.218C1009.47 226.46 1008.95 225.809 1008.28 225.353C1007.61 224.897 1006.81 224.657 1006 224.667V224.667ZM1019.33 214V208.667C1019.33 205.13 1017.93 201.739 1015.43 199.238C1012.93 196.738 1009.54 195.333 1006 195.333C1002.46 195.333 999.072 196.738 996.572 199.238C994.072 201.739 992.667 205.13 992.667 208.667V214C990.545 214 988.51 214.843 987.01 216.343C985.51 217.843 984.667 219.878 984.667 222V240.667C984.667 242.788 985.51 244.823 987.01 246.323C988.51 247.824 990.545 248.667 992.667 248.667H1019.33C1021.46 248.667 1023.49 247.824 1024.99 246.323C1026.49 244.823 1027.33 242.788 1027.33 240.667V222C1027.33 219.878 1026.49 217.843 1024.99 216.343C1023.49 214.843 1021.46 214 1019.33 214ZM998 208.667C998 206.545 998.843 204.51 1000.34 203.01C1001.84 201.509 1003.88 200.667 1006 200.667C1008.12 200.667 1010.16 201.509 1011.66 203.01C1013.16 204.51 1014 206.545 1014 208.667V214H998V208.667ZM1022 240.667C1022 241.374 1021.72 242.052 1021.22 242.552C1020.72 243.052 1020.04 243.333 1019.33 243.333H992.667C991.96 243.333 991.281 243.052 990.781 242.552C990.281 242.052 990 241.374 990 240.667V222C990 221.293 990.281 220.614 990.781 220.114C991.281 219.614 991.96 219.333 992.667 219.333H1019.33C1020.04 219.333 1020.72 219.614 1021.22 220.114C1021.72 220.614 1022 221.293 1022 222V240.667Z" fill="#006A4E"/>
</svg>
