<svg width="64" height="64" viewBox="0 0 64 64" fill="none" xmlns="http://www.w3.org/2000/svg">
<path d="M58.6667 2.66656H40.0001C38.4734 2.6603 36.993 3.19111 35.8182 4.16611C34.6433 5.1411 33.8487 6.49818 33.5734 7.99989L31.1201 21.4666C30.9505 22.4048 30.9892 23.3688 31.2335 24.2904C31.4777 25.2121 31.9215 26.0688 32.5334 26.7999C33.1487 27.5314 33.9159 28.1202 34.7816 28.5254C35.6473 28.9307 36.5909 29.1426 37.5467 29.1466H45.3334L44.6667 30.9066C44.1746 32.2116 44.0036 33.6158 44.1683 35.0008C44.333 36.3857 44.8285 37.7108 45.613 38.8639C46.3975 40.0171 47.4479 40.9646 48.6756 41.6265C49.9033 42.2883 51.2722 42.645 52.6667 42.6666C53.1842 42.6706 53.6917 42.5241 54.1274 42.2447C54.563 41.9653 54.9079 41.5652 55.1201 41.0932L61.0934 27.5999C61.2294 27.3059 61.3108 26.9897 61.3334 26.6666V5.33323C61.3334 4.62598 61.0525 3.9477 60.5524 3.44761C60.0523 2.94751 59.374 2.66656 58.6667 2.66656ZM56.0001 25.9466L51.1201 36.9599C50.6438 36.7007 50.2333 36.3358 49.9201 35.8932C49.6063 35.449 49.4078 34.9337 49.3427 34.3937C49.2775 33.8537 49.3476 33.306 49.5467 32.7999L50.5601 30.1332C50.8267 29.4416 50.9175 28.6947 50.8244 27.9593C50.7313 27.224 50.4572 26.5233 50.0267 25.9199C49.6028 25.3188 49.039 24.83 48.3839 24.4955C47.7288 24.161 47.0022 23.9909 46.2667 23.9999H37.4934C37.3163 24.0004 37.1411 23.9625 36.98 23.8889C36.8189 23.8152 36.6756 23.7075 36.5601 23.5732C36.3531 23.2889 36.2668 22.9342 36.3201 22.5866L38.7734 9.25323C38.7619 9.08795 38.7856 8.92212 38.8428 8.76665C38.9 8.61117 38.9895 8.46958 39.1054 8.35118C39.2213 8.23278 39.3609 8.14026 39.5151 8.07971C39.6693 8.01917 39.8346 7.99196 40.0001 7.99989H56.0001V25.9466ZM26.5067 34.7999H18.8001L19.4667 33.0399C19.9518 31.7273 20.1128 30.317 19.9361 28.9288C19.7594 27.5406 19.2502 26.2156 18.4518 25.0664C17.6533 23.9171 16.5892 22.9776 15.35 22.3277C14.1107 21.6778 12.7328 21.3366 11.3334 21.3332C10.8159 21.3291 10.3084 21.4757 9.87279 21.7551C9.43717 22.0345 9.09224 22.4345 8.88008 22.9066L2.90675 36.3999C2.75394 36.7351 2.67222 37.0982 2.66675 37.4666V58.7999C2.66675 59.5071 2.9477 60.1854 3.4478 60.6855C3.94789 61.1856 4.62617 61.4666 5.33341 61.4666H24.0001C25.5268 61.4728 27.0071 60.942 28.182 59.967C29.3568 58.992 30.1514 57.6349 30.4267 56.1332L32.8801 42.7999C33.0496 41.8617 33.0109 40.8976 32.7667 39.976C32.5225 39.0544 32.0787 38.1977 31.4667 37.4666C30.8885 36.6831 30.1438 36.0375 29.2861 35.5764C28.4284 35.1153 27.4792 34.8501 26.5067 34.7999ZM25.2267 55.0132C25.181 55.3005 25.0301 55.5605 24.8034 55.7428C24.5768 55.9251 24.2905 56.0167 24.0001 55.9999H8.00008V38.0532L12.8801 27.0399C13.3564 27.299 13.7669 27.6639 14.0801 28.1066C14.3939 28.5508 14.5923 29.0661 14.6575 29.6061C14.7227 30.146 14.6525 30.6938 14.4534 31.1999L13.4401 33.8666C13.1735 34.5582 13.0827 35.3051 13.1758 36.0404C13.2688 36.7758 13.5429 37.4765 13.9734 38.0799C14.3914 38.6908 14.9526 39.19 15.6081 39.534C16.2635 39.878 16.9932 40.0563 17.7334 40.0532H26.5067C26.6839 40.0527 26.8591 40.0906 27.0202 40.1643C27.1813 40.2379 27.3245 40.3456 27.4401 40.4799C27.6471 40.7643 27.7334 41.1189 27.6801 41.4666L25.2267 55.0132Z" fill="#006A4E"/>
</svg>
