<svg width="64" height="64" viewBox="0 0 64 64" fill="none" xmlns="http://www.w3.org/2000/svg">
<path d="M48 32.3999V7.99992C48 7.29267 47.7191 6.6144 47.219 6.1143C46.7189 5.6142 46.0406 5.33325 45.3333 5.33325C44.6261 5.33325 43.9478 5.6142 43.4477 6.1143C42.9476 6.6144 42.6667 7.29267 42.6667 7.99992V32.3999C40.3572 33.0705 38.3282 34.4734 36.8853 36.3972C35.4424 38.3211 34.6638 40.6618 34.6667 43.0666C34.6667 48.5333 38.72 58.5333 45.3333 58.5333C51.9467 58.5333 56 48.5333 56 43.0666C56.0029 40.6618 55.2242 38.3211 53.7813 36.3972C52.3384 34.4734 50.3094 33.0705 48 32.3999ZM45.3333 53.3333C43.2 53.3333 40 47.2799 40 43.1999C39.9347 41.7161 40.4587 40.2666 41.4578 39.1676C42.4569 38.0686 43.85 37.4092 45.3333 37.3333C46.8166 37.4092 48.2097 38.0686 49.2088 39.1676C50.2079 40.2666 50.732 41.7161 50.6667 43.1999C50.6667 47.2799 47.4667 53.3333 45.3333 53.3333ZM26.6667 5.33325C25.9594 5.33325 25.2811 5.6142 24.781 6.1143C24.281 6.6144 24 7.29267 24 7.99992V22.5599L21.3333 24.3466V7.99992C21.3333 7.29267 21.0524 6.6144 20.5523 6.1143C20.0522 5.6142 19.3739 5.33325 18.6667 5.33325C17.9594 5.33325 17.2811 5.6142 16.781 6.1143C16.281 6.6144 16 7.29267 16 7.99992V24.3466L13.3333 22.5599V7.99992C13.3333 7.29267 13.0524 6.6144 12.5523 6.1143C12.0522 5.6142 11.3739 5.33325 10.6667 5.33325C9.95942 5.33325 9.28115 5.6142 8.78105 6.1143C8.28095 6.6144 8 7.29267 8 7.99992V23.9999C8.00227 24.4391 8.113 24.871 8.32235 25.2571C8.53169 25.6432 8.83317 25.9717 9.2 26.2133L16 30.7733V55.9999C16 56.7072 16.281 57.3854 16.781 57.8855C17.2811 58.3856 17.9594 58.6666 18.6667 58.6666C19.3739 58.6666 20.0522 58.3856 20.5523 57.8855C21.0524 57.3854 21.3333 56.7072 21.3333 55.9999V30.7733L28.1333 26.2133C28.5002 25.9717 28.8016 25.6432 29.011 25.2571C29.2203 24.871 29.3311 24.4391 29.3333 23.9999V7.99992C29.3333 7.29267 29.0524 6.6144 28.5523 6.1143C28.0522 5.6142 27.3739 5.33325 26.6667 5.33325Z" fill="#006A4E"/>
</svg>
