<svg width="64" height="64" viewBox="0 0 64 64" fill="none" xmlns="http://www.w3.org/2000/svg">
<path d="M44.0001 13.3334C41.6522 13.3315 39.3479 13.9675 37.3334 15.1734C35.8728 11.8208 33.3078 9.06974 30.0655 7.37831C26.8233 5.68687 23.0994 5.15714 19.5141 5.87733C15.9288 6.59751 12.6984 8.52414 10.3608 11.3364C8.02316 14.1486 6.71946 17.6768 6.66675 21.3334V32C6.67058 35.7784 8.0114 39.4334 10.4518 42.318C12.8921 45.2025 16.2746 47.1303 20.0001 47.76V56C20.0001 56.7073 20.281 57.3855 20.7811 57.8856C21.2812 58.3857 21.9595 58.6667 22.6667 58.6667C23.374 58.6667 24.0523 58.3857 24.5524 57.8856C25.0525 57.3855 25.3334 56.7073 25.3334 56V47.76C28.05 47.2886 30.6015 46.1322 32.7467 44.4C33.6988 45.928 34.9504 47.2474 36.4262 48.2786C37.9019 49.3098 39.5712 50.0314 41.3334 50.4V56C41.3334 56.7073 41.6144 57.3855 42.1145 57.8856C42.6146 58.3857 43.2928 58.6667 44.0001 58.6667C44.7073 58.6667 45.3856 58.3857 45.8857 57.8856C46.3858 57.3855 46.6667 56.7073 46.6667 56V50.4C49.6784 49.7853 52.3851 48.1489 54.3289 45.7678C56.2727 43.3867 57.334 40.4071 57.3334 37.3334V26.6667C57.3334 23.1305 55.9287 19.7391 53.4282 17.2386C50.9277 14.7381 47.5363 13.3334 44.0001 13.3334ZM30.6667 26.6667V37.3334C30.6923 37.8426 30.7457 38.35 30.8267 38.8534C29.4006 40.5519 27.4804 41.7637 25.3334 42.32V34.6667C25.3334 33.9594 25.0525 33.2812 24.5524 32.7811C24.0523 32.281 23.374 32 22.6667 32C21.9595 32 21.2812 32.281 20.7811 32.7811C20.281 33.2812 20.0001 33.9594 20.0001 34.6667V42.2934C17.7161 41.7037 15.6921 40.3735 14.2446 38.5111C12.7971 36.6486 12.0077 34.3588 12.0001 32V21.3334C11.9931 19.2202 12.614 17.1526 13.7839 15.3928C14.9538 13.6331 16.6201 12.2604 18.5713 11.4491C20.5225 10.6378 22.6707 10.4243 24.7435 10.8357C26.8162 11.2471 28.72 12.2649 30.2134 13.76C31.657 15.2231 32.6398 17.0774 33.0401 19.0934C31.4986 21.3184 30.6708 23.9599 30.6667 26.6667ZM52.0001 37.3334C51.9954 38.9839 51.4804 40.5926 50.5256 41.9389C49.5708 43.2852 48.2229 44.3032 46.6667 44.8534V34.6667C46.6667 33.9594 46.3858 33.2812 45.8857 32.7811C45.3856 32.281 44.7073 32 44.0001 32C43.2928 32 42.6146 32.281 42.1145 32.7811C41.6144 33.2812 41.3334 33.9594 41.3334 34.6667V44.8534C39.7773 44.3032 38.4294 43.2852 37.4746 41.9389C36.5198 40.5926 36.0047 38.9839 36.0001 37.3334V26.6667C36.0001 24.545 36.8429 22.5101 38.3432 21.0098C39.8435 19.5095 41.8783 18.6667 44.0001 18.6667C46.1218 18.6667 48.1566 19.5095 49.6569 21.0098C51.1572 22.5101 52.0001 24.545 52.0001 26.6667V37.3334Z" fill="#006A4E"/>
</svg>
