<svg width="64" height="64" viewBox="0 0 64 64" fill="none" xmlns="http://www.w3.org/2000/svg">
<path d="M56.0001 29.9733C55.9871 29.9027 55.9871 29.8304 56.0001 29.7599V29.2533C56.0001 28.6399 55.8401 28.0266 55.7335 27.4133C55.7182 27.2714 55.7182 27.1284 55.7335 26.9866C55.6001 26.3199 55.4135 25.6799 55.2268 25.0399C54.0866 21.3592 52.0683 18.011 49.346 15.284C46.6236 12.557 43.2789 10.5331 39.6001 9.38659H39.3868C38.8001 9.19992 38.1868 9.03992 37.5735 8.90659H37.0935C36.6087 8.80943 36.1191 8.73822 35.6268 8.69325H34.9868V7.99992C34.9868 7.29267 34.7058 6.6144 34.2057 6.1143C33.7056 5.6142 33.0274 5.33325 32.3201 5.33325C31.6129 5.33325 30.9346 5.6142 30.4345 6.1143C29.9344 6.6144 29.6535 7.29267 29.6535 7.99992V8.15992C28.756 8.26783 27.8656 8.4281 26.9868 8.63992C26.4266 8.74447 25.8743 8.88702 25.3335 9.06659H24.9868C24.3201 9.27992 23.7068 9.51992 23.0668 9.75992C19.774 11.0637 16.8134 13.0855 14.4008 15.678C11.9881 18.2706 10.1841 21.3687 9.12012 24.7466C9.11091 24.8174 9.11091 24.8891 9.12012 24.9599C8.914 25.5895 8.74482 26.2306 8.61346 26.8799V27.3066C8.47124 27.9466 8.36457 28.6133 8.29346 29.3066C8.29346 29.3066 8.29346 29.4933 8.29346 29.5999C8.29346 29.7066 8.29346 29.7599 8.29346 29.8399C8.29346 29.9199 8.29346 29.8399 8.29346 29.9733C8.29346 30.6399 8.29346 31.3066 8.29346 31.9999C8.29346 32.7072 8.57441 33.3854 9.07451 33.8855C9.5746 34.3856 10.2529 34.6666 10.9601 34.6666H29.6268V50.6666C29.6268 51.3738 29.3458 52.0521 28.8457 52.5522C28.3456 53.0523 27.6674 53.3333 26.9601 53.3333C26.2529 53.3333 25.5746 53.0523 25.0745 52.5522C24.5744 52.0521 24.2935 51.3738 24.2935 50.6666C24.2935 49.9593 24.0125 49.2811 23.5124 48.781C23.0123 48.2809 22.334 47.9999 21.6268 47.9999C20.9195 47.9999 20.2413 48.2809 19.7412 48.781C19.2411 49.2811 18.9601 49.9593 18.9601 50.6666C18.9601 52.7883 19.803 54.8232 21.3033 56.3234C22.8036 57.8237 24.8384 58.6666 26.9601 58.6666C29.0819 58.6666 31.1167 57.8237 32.617 56.3234C34.1173 54.8232 34.9601 52.7883 34.9601 50.6666V34.6666H53.6268C54.334 34.6666 55.0123 34.3856 55.5124 33.8855C56.0125 33.3854 56.2935 32.7072 56.2935 31.9999C56.0001 31.3066 56.0001 30.6399 56.0001 29.9733ZM21.3335 29.3333H13.5468C13.5468 29.3333 13.5468 29.1466 13.5468 29.0399C13.5468 28.9333 13.5468 28.2933 13.7601 27.9466C13.9735 27.5999 13.7601 27.5999 13.7601 27.4399C13.7601 27.2799 13.9735 26.5866 14.1068 26.1599V25.9466C14.9602 23.5282 16.3029 21.3116 18.0509 19.4351C19.7989 17.5586 21.9149 16.0624 24.2668 15.0399C22.4801 19.6019 21.488 24.4363 21.3335 29.3333ZM26.6668 29.3333C27.1735 18.9066 30.5068 13.3333 32.0001 13.3333C33.4935 13.3333 36.7735 18.9066 37.3335 29.3333H26.6668ZM42.6668 29.3333C42.5122 24.4363 41.5201 19.6019 39.7335 15.0399C42.0537 16.0951 44.1332 17.6143 45.8439 19.5038C47.5545 21.3934 48.8601 23.6132 49.6801 26.0266C49.8415 26.4893 49.9751 26.9613 50.0801 27.4399C50.0681 27.573 50.0681 27.7069 50.0801 27.8399C50.0801 28.2133 50.2401 28.6133 50.2935 28.9866C50.3468 29.3599 50.2935 29.1733 50.2935 29.2799L42.6668 29.3333Z" fill="#006A4E"/>
</svg>
