<svg width="64" height="64" viewBox="0 0 64 64" fill="none" xmlns="http://www.w3.org/2000/svg">
<g clip-path="url(#clip0_1941_3622)">
<mask id="path-1-outside-1_1941_3622" maskUnits="userSpaceOnUse" x="4" y="2" width="50" height="64" fill="black">
<rect fill="white" x="4" y="2" width="50" height="64"/>
<path d="M51.9789 5.07954C52.5429 5.07944 53 4.61396 53 4.03977C53 3.46552 52.5428 3 51.9787 3V4.03977C51.9787 3 51.9787 3 51.9787 3L51.9722 3.00001L51.9564 3.00005L51.8975 3.0004C51.8462 3.00079 51.7711 3.00156 51.6734 3.00308C51.4781 3.00613 51.1922 3.01219 50.8254 3.02423C50.092 3.04832 49.0345 3.09637 47.7297 3.19224C45.1214 3.38387 41.5173 3.76711 37.5335 4.53445C29.6138 6.0599 19.9935 9.13937 13.8097 15.4352C7.58795 21.7696 6.67752 28.6106 7.3489 33.851C7.68258 36.4555 8.40441 38.6584 9.04174 40.2101C9.36092 40.9872 9.66045 41.6046 9.88255 42.0317C9.99365 42.2454 10.0855 42.4117 10.1511 42.5269C10.1838 42.5846 10.21 42.6294 10.2287 42.661L10.251 42.6985L10.2578 42.7096L10.2601 42.7133C10.2601 42.7133 10.2613 42.7154 10.5226 42.5494L10.2601 42.7133C10.302 42.7816 10.3519 42.8456 10.4055 42.9003C9.68999 45.0536 9.03389 47.2002 8.44568 49.2363C7.37629 52.938 6.52117 56.3117 5.93338 58.7598C5.63941 59.9842 5.41211 60.9779 5.25812 61.6664C5.18112 62.0106 5.12244 62.2786 5.08291 62.461L5.03808 62.6692L5.02663 62.723L5.0229 62.7407C5.0229 62.7407 5.02258 62.7422 6.02119 62.96L5.0229 62.7407C4.90471 63.3022 5.25569 63.8564 5.80721 63.9767C6.35872 64.097 6.90162 63.7394 7.0198 63.1779L7.02321 63.1617L7.03402 63.111L7.07749 62.9091C7.11609 62.731 7.17376 62.4676 7.24969 62.1281C7.40156 61.4491 7.62639 60.4662 7.91752 59.2536C8.49995 56.8278 9.34696 53.4863 10.4052 49.8231C12.5339 42.4544 15.4773 33.9305 18.7859 28.8778C22.089 23.8334 26.2237 20.4629 29.5412 18.3518C31.1985 17.2973 32.6461 16.5608 33.6744 16.0897C34.1883 15.8542 34.5967 15.6854 34.8734 15.5766C35.0117 15.5222 35.1169 15.4828 35.1859 15.4576L35.2616 15.4304L35.2783 15.4246C35.8129 15.2427 36.1046 14.6532 35.9263 14.1087C35.7479 13.5639 35.1696 13.2695 34.6345 13.451L34.9305 14.3551C34.6344 13.4511 34.6345 13.451 34.6345 13.451L34.6299 13.4526L34.6217 13.4554L34.5942 13.465C34.571 13.4732 34.5382 13.4849 34.4963 13.5002C34.4123 13.5309 34.2915 13.5761 34.1372 13.6368C33.8288 13.7581 33.3861 13.9413 32.8362 14.1933C31.7368 14.697 30.2057 15.4767 28.4587 16.5884C24.9677 18.8097 20.5918 22.371 17.0864 27.7243C14.9477 30.9904 12.9905 35.5485 11.3063 40.2797C11.1872 40.0221 11.0587 39.7305 10.9262 39.4078C10.3401 37.9809 9.67892 35.9597 9.3743 33.582C8.76908 28.858 9.56079 22.7019 15.254 16.9056C20.9851 11.0708 30.0882 8.08496 37.9132 6.57775C41.8018 5.82876 45.3254 5.45383 47.8767 5.26638C49.1516 5.17271 50.1819 5.12599 50.8913 5.10269C51.246 5.09104 51.5203 5.08525 51.7047 5.08238C51.7969 5.08094 51.8667 5.08023 51.9127 5.07988L51.9639 5.07958L51.9789 5.07954Z"/>
<path d="M50.577 8.24478C51.1161 8.41366 51.4187 8.9955 51.2528 9.54435L50.2767 9.23857C51.2528 9.54435 51.2528 9.54435 51.2528 9.54435L51.2512 9.5495L51.2472 9.56279L51.2317 9.61341L51.1716 9.8077C51.1187 9.97742 51.0404 10.226 50.9379 10.5441C50.733 11.1804 50.4313 12.0951 50.0427 13.2136C49.266 15.4497 48.1404 18.5056 46.7457 21.7826C45.352 25.0569 43.6825 28.5687 41.8153 31.7096C39.9567 34.8359 37.8615 37.665 35.5955 39.5106C31.1291 43.1484 26.6372 44.0708 23.2553 44.0708C21.5698 44.0708 20.1628 43.8422 19.1714 43.6115C18.6752 43.496 18.2815 43.3796 18.0072 43.2903C17.87 43.2456 17.7625 43.2076 17.6868 43.1797C17.6489 43.1658 17.619 43.1544 17.5973 43.146L17.5708 43.1356L17.5623 43.1322L17.5592 43.1309C17.5592 43.1309 17.5569 43.13 17.9362 42.1646L17.5592 43.1309C17.0355 42.9177 16.7785 42.3116 16.9879 41.7784C17.1971 41.246 17.7902 40.9866 18.3134 41.1983L18.3244 41.2027L18.3809 41.2239C18.434 41.2435 18.5176 41.2732 18.6298 41.3097C18.8541 41.3828 19.1918 41.4831 19.6265 41.5842C20.4968 41.7867 21.7494 41.9913 23.2553 41.9913C26.2564 41.9913 30.2752 41.1808 34.3195 37.8868C36.3088 36.2665 38.2562 33.6802 40.0678 30.6328C41.8708 27.6001 43.4991 24.1801 44.8715 20.9558C46.2427 17.7342 47.3512 14.7249 48.117 12.5203C48.4997 11.4185 48.7964 10.519 48.9971 9.89611C49.0974 9.58469 49.1737 9.34251 49.2247 9.17884L49.282 8.99341L49.2962 8.94706L49.3004 8.93331C49.4663 8.38445 50.0379 8.07591 50.577 8.24478Z"/>
</mask>
<path d="M51.9789 5.07954C52.5429 5.07944 53 4.61396 53 4.03977C53 3.46552 52.5428 3 51.9787 3V4.03977C51.9787 3 51.9787 3 51.9787 3L51.9722 3.00001L51.9564 3.00005L51.8975 3.0004C51.8462 3.00079 51.7711 3.00156 51.6734 3.00308C51.4781 3.00613 51.1922 3.01219 50.8254 3.02423C50.092 3.04832 49.0345 3.09637 47.7297 3.19224C45.1214 3.38387 41.5173 3.76711 37.5335 4.53445C29.6138 6.0599 19.9935 9.13937 13.8097 15.4352C7.58795 21.7696 6.67752 28.6106 7.3489 33.851C7.68258 36.4555 8.40441 38.6584 9.04174 40.2101C9.36092 40.9872 9.66045 41.6046 9.88255 42.0317C9.99365 42.2454 10.0855 42.4117 10.1511 42.5269C10.1838 42.5846 10.21 42.6294 10.2287 42.661L10.251 42.6985L10.2578 42.7096L10.2601 42.7133C10.2601 42.7133 10.2613 42.7154 10.5226 42.5494L10.2601 42.7133C10.302 42.7816 10.3519 42.8456 10.4055 42.9003C9.68999 45.0536 9.03389 47.2002 8.44568 49.2363C7.37629 52.938 6.52117 56.3117 5.93338 58.7598C5.63941 59.9842 5.41211 60.9779 5.25812 61.6664C5.18112 62.0106 5.12244 62.2786 5.08291 62.461L5.03808 62.6692L5.02663 62.723L5.0229 62.7407C5.0229 62.7407 5.02258 62.7422 6.02119 62.96L5.0229 62.7407C4.90471 63.3022 5.25569 63.8564 5.80721 63.9767C6.35872 64.097 6.90162 63.7394 7.0198 63.1779L7.02321 63.1617L7.03402 63.111L7.07749 62.9091C7.11609 62.731 7.17376 62.4676 7.24969 62.1281C7.40156 61.4491 7.62639 60.4662 7.91752 59.2536C8.49995 56.8278 9.34696 53.4863 10.4052 49.8231C12.5339 42.4544 15.4773 33.9305 18.7859 28.8778C22.089 23.8334 26.2237 20.4629 29.5412 18.3518C31.1985 17.2973 32.6461 16.5608 33.6744 16.0897C34.1883 15.8542 34.5967 15.6854 34.8734 15.5766C35.0117 15.5222 35.1169 15.4828 35.1859 15.4576L35.2616 15.4304L35.2783 15.4246C35.8129 15.2427 36.1046 14.6532 35.9263 14.1087C35.7479 13.5639 35.1696 13.2695 34.6345 13.451L34.9305 14.3551C34.6344 13.4511 34.6345 13.451 34.6345 13.451L34.6299 13.4526L34.6217 13.4554L34.5942 13.465C34.571 13.4732 34.5382 13.4849 34.4963 13.5002C34.4123 13.5309 34.2915 13.5761 34.1372 13.6368C33.8288 13.7581 33.3861 13.9413 32.8362 14.1933C31.7368 14.697 30.2057 15.4767 28.4587 16.5884C24.9677 18.8097 20.5918 22.371 17.0864 27.7243C14.9477 30.9904 12.9905 35.5485 11.3063 40.2797C11.1872 40.0221 11.0587 39.7305 10.9262 39.4078C10.3401 37.9809 9.67892 35.9597 9.3743 33.582C8.76908 28.858 9.56079 22.7019 15.254 16.9056C20.9851 11.0708 30.0882 8.08496 37.9132 6.57775C41.8018 5.82876 45.3254 5.45383 47.8767 5.26638C49.1516 5.17271 50.1819 5.12599 50.8913 5.10269C51.246 5.09104 51.5203 5.08525 51.7047 5.08238C51.7969 5.08094 51.8667 5.08023 51.9127 5.07988L51.9639 5.07958L51.9789 5.07954Z" fill="#006A4E"/>
<path d="M50.577 8.24478C51.1161 8.41366 51.4187 8.9955 51.2528 9.54435L50.2767 9.23857C51.2528 9.54435 51.2528 9.54435 51.2528 9.54435L51.2512 9.5495L51.2472 9.56279L51.2317 9.61341L51.1716 9.8077C51.1187 9.97742 51.0404 10.226 50.9379 10.5441C50.733 11.1804 50.4313 12.0951 50.0427 13.2136C49.266 15.4497 48.1404 18.5056 46.7457 21.7826C45.352 25.0569 43.6825 28.5687 41.8153 31.7096C39.9567 34.8359 37.8615 37.665 35.5955 39.5106C31.1291 43.1484 26.6372 44.0708 23.2553 44.0708C21.5698 44.0708 20.1628 43.8422 19.1714 43.6115C18.6752 43.496 18.2815 43.3796 18.0072 43.2903C17.87 43.2456 17.7625 43.2076 17.6868 43.1797C17.6489 43.1658 17.619 43.1544 17.5973 43.146L17.5708 43.1356L17.5623 43.1322L17.5592 43.1309C17.5592 43.1309 17.5569 43.13 17.9362 42.1646L17.5592 43.1309C17.0355 42.9177 16.7785 42.3116 16.9879 41.7784C17.1971 41.246 17.7902 40.9866 18.3134 41.1983L18.3244 41.2027L18.3809 41.2239C18.434 41.2435 18.5176 41.2732 18.6298 41.3097C18.8541 41.3828 19.1918 41.4831 19.6265 41.5842C20.4968 41.7867 21.7494 41.9913 23.2553 41.9913C26.2564 41.9913 30.2752 41.1808 34.3195 37.8868C36.3088 36.2665 38.2562 33.6802 40.0678 30.6328C41.8708 27.6001 43.4991 24.1801 44.8715 20.9558C46.2427 17.7342 47.3512 14.7249 48.117 12.5203C48.4997 11.4185 48.7964 10.519 48.9971 9.89611C49.0974 9.58469 49.1737 9.34251 49.2247 9.17884L49.282 8.99341L49.2962 8.94706L49.3004 8.93331C49.4663 8.38445 50.0379 8.07591 50.577 8.24478Z" fill="#006A4E"/>
<path d="M6.12777 62.4715C5.85797 62.4126 5.59154 62.5836 5.53268 62.8534C5.47382 63.1232 5.64482 63.3897 5.91462 63.4485L6.12777 62.4715ZM6.91323 63.6664C7.18302 63.7252 7.44945 63.5542 7.50831 63.2845C7.56717 63.0147 7.39617 62.7482 7.12638 62.6894L6.91323 63.6664ZM35.6687 27.6029C35.8224 27.3735 35.761 27.0629 35.5315 26.9093C35.3021 26.7556 34.9915 26.817 34.8379 27.0465L35.6687 27.6029ZM28.7731 33.8511C28.5367 33.9937 28.4606 34.3011 28.6033 34.5375C28.7459 34.774 29.0532 34.85 29.2897 34.7074L28.7731 33.8511ZM5.91462 63.4485L6.91323 63.6664L7.12638 62.6894L6.12777 62.4715L5.91462 63.4485ZM29.2897 34.7074C31.1274 33.5987 33.0642 31.4915 35.6687 27.6029L34.8379 27.0465C32.2486 30.9124 30.4127 32.862 28.7731 33.8511L29.2897 34.7074ZM51.9789 5.07954L51.9787 4.07954L51.9763 4.07954L51.9789 5.07954ZM51.9722 3.00001L51.9709 2.00001L51.9693 2.00001L51.9722 3.00001ZM51.9564 3.00005L51.9536 2.00005L51.9505 2.00007L51.9564 3.00005ZM51.8975 3.0004L51.8916 2.00041L51.8899 2.00043L51.8975 3.0004ZM51.6734 3.00308L51.689 4.00296L51.6734 3.00308ZM50.8254 3.02423L50.8583 4.02369L50.8254 3.02423ZM47.7297 3.19224L47.6564 2.19493V2.19493L47.7297 3.19224ZM37.5335 4.53445L37.3444 3.5525V3.5525L37.5335 4.53445ZM13.8097 15.4352L13.0963 14.7344L13.8097 15.4352ZM7.3489 33.851L6.35701 33.9781L7.3489 33.851ZM9.04174 40.2101L8.11673 40.59H8.11673L9.04174 40.2101ZM9.88255 42.0317L10.7698 41.5704L10.7698 41.5704L9.88255 42.0317ZM10.1511 42.5269L11.0203 42.0326L11.0203 42.0326L10.1511 42.5269ZM10.2287 42.661L9.36807 43.1703L9.36997 43.1735L10.2287 42.661ZM10.251 42.6985L9.3923 43.2109L9.39568 43.2165L10.251 42.6985ZM10.2578 42.7096L9.40244 43.2277L9.40385 43.23L10.2578 42.7096ZM10.2601 42.7133L9.40609 43.2336L9.40741 43.2358L10.2601 42.7133ZM10.5226 42.5494L11.0588 43.3935L9.99296 41.7012L10.5226 42.5494ZM10.4055 42.9003L11.3545 43.2156L11.5471 42.6359L11.1193 42.1999L10.4055 42.9003ZM8.44568 49.2363L9.40639 49.5138L8.44568 49.2363ZM5.93338 58.7598L4.96102 58.5264H4.96102L5.93338 58.7598ZM5.25812 61.6664L6.23401 61.8846H6.23401L5.25812 61.6664ZM5.08291 62.461L4.1056 62.2491L4.10531 62.2505L5.08291 62.461ZM5.03808 62.6692L4.06048 62.4588L4.05999 62.461L5.03808 62.6692ZM5.02663 62.723L4.04854 62.5148L4.04825 62.5162L5.02663 62.723ZM6.02119 62.96L5.80804 63.937L6.23578 61.9833L6.02119 62.96ZM5.80721 63.9767L6.02036 62.9997L5.80721 63.9767ZM7.0198 63.1779L6.04145 62.9709L6.04124 62.9719L7.0198 63.1779ZM7.02321 63.1617L6.04512 62.9536L6.04487 62.9548L7.02321 63.1617ZM7.03402 63.111L6.05642 62.9005L6.05592 62.9028L7.03402 63.111ZM7.07749 62.9091L6.10018 62.6972L6.09989 62.6986L7.07749 62.9091ZM7.24969 62.1281L6.27381 61.9098L6.27381 61.9098L7.24969 62.1281ZM7.91752 59.2536L6.94515 59.0202H6.94515L7.91752 59.2536ZM10.4052 49.8231L9.44452 49.5455L10.4052 49.8231ZM18.7859 28.8778L19.6225 29.4256L18.7859 28.8778ZM29.5412 18.3518L30.0781 19.1955L29.5412 18.3518ZM33.6744 16.0897L34.0909 16.9988L33.6744 16.0897ZM34.8734 15.5766L35.2394 16.5072L35.2394 16.5072L34.8734 15.5766ZM35.1859 15.4576L34.8477 14.5165L34.8429 14.5183L35.1859 15.4576ZM35.2616 15.4304L34.9319 14.4863L34.9235 14.4893L35.2616 15.4304ZM35.2783 15.4246L34.9562 14.4779L34.9486 14.4805L35.2783 15.4246ZM35.9263 14.1087L36.8767 13.7975L36.8767 13.7975L35.9263 14.1087ZM34.6345 13.451L34.3131 12.5041L34.3116 12.5046L34.6345 13.451ZM34.9305 14.3551L33.9801 14.6663L35.8808 14.0439L34.9305 14.3551ZM34.6299 13.4526L34.3071 12.5061L34.3045 12.507L34.6299 13.4526ZM34.6217 13.4554L34.2962 12.5099L34.2921 12.5113L34.6217 13.4554ZM34.5942 13.465L34.2646 12.5209L34.2622 12.5218L34.5942 13.465ZM34.4963 13.5002L34.8393 14.4395L34.8393 14.4395L34.4963 13.5002ZM34.1372 13.6368L33.7712 12.7062H33.7712L34.1372 13.6368ZM32.8362 14.1933L33.2527 15.1024V15.1024L32.8362 14.1933ZM28.4587 16.5884L27.9218 15.7447L28.4587 16.5884ZM17.0864 27.7243L17.923 28.2721L17.0864 27.7243ZM11.3063 40.2798L10.3986 40.6995L11.4268 42.923L12.2484 40.6151L11.3063 40.2798ZM10.9262 39.4078L11.8512 39.0278H11.8512L10.9262 39.4078ZM9.3743 33.582L10.3662 33.455L9.3743 33.582ZM15.254 16.9056L15.9674 17.6064L15.254 16.9056ZM37.9132 6.57775L38.1024 7.5597L37.9132 6.57775ZM47.8767 5.26638L47.8034 4.26907L47.8767 5.26638ZM50.8913 5.10269L50.9241 6.10215L50.8913 5.10269ZM51.7047 5.08238L51.6891 4.0825H51.6891L51.7047 5.08238ZM51.9128 5.07988L51.9068 4.0799L51.9051 4.07991L51.9128 5.07988ZM51.9639 5.07958L51.9613 4.07958L51.958 4.07959L51.9639 5.07958ZM51.2512 9.5495L52.208 9.84023L52.2085 9.83872L51.2512 9.5495ZM51.2472 9.56279L52.2035 9.85521L52.204 9.85352L51.2472 9.56279ZM51.2317 9.61341L52.187 9.90902L52.188 9.90583L51.2317 9.61341ZM51.1716 9.8077L52.1263 10.1052L52.1269 10.1033L51.1716 9.8077ZM50.9379 10.5441L51.8898 10.8508V10.8508L50.9379 10.5441ZM50.0427 13.2136L50.9873 13.5418V13.5417L50.0427 13.2136ZM46.7457 21.7826L47.6658 22.1743L47.6658 22.1743L46.7457 21.7826ZM41.8153 31.7096L40.9557 31.1986L41.8153 31.7096ZM35.5955 39.5106L34.964 38.7353L35.5955 39.5106ZM19.1714 43.6115L19.398 42.6375L19.1714 43.6115ZM18.0072 43.2903L17.6975 44.2411L17.6975 44.2411L18.0072 43.2903ZM17.6868 43.1797L17.3415 44.1182L17.3416 44.1183L17.6868 43.1797ZM17.5973 43.146L17.232 44.0769L17.2357 44.0783L17.5973 43.146ZM17.5708 43.1356L17.1994 44.0641L17.2056 44.0665L17.5708 43.1356ZM17.5623 43.1322L17.1887 44.0598L17.1909 44.0607L17.5623 43.1322ZM17.5592 43.1309L17.1828 44.0574L17.1856 44.0585L17.5592 43.1309ZM17.9362 42.1646L18.8678 42.528L17.0054 41.7989L17.9362 42.1646ZM16.9879 41.7784L17.9187 42.1441L17.9187 42.1441L16.9879 41.7784ZM18.3134 41.1983L17.9382 42.1254L17.9486 42.1294L18.3134 41.1983ZM18.3244 41.2027L17.9596 42.1339L17.972 42.1385L18.3244 41.2027ZM18.3809 41.2239L18.0285 42.1598L18.0357 42.1625L18.3809 41.2239ZM18.6298 41.3097L18.9395 40.3589L18.9395 40.3589L18.6298 41.3097ZM19.6265 41.5842L19.3998 42.5582L19.3999 42.5582L19.6265 41.5842ZM34.3195 37.8868L34.951 38.6621L34.3195 37.8868ZM40.0678 30.6328L40.9274 31.1438V31.1438L40.0678 30.6328ZM44.8715 20.9558L45.7916 21.3474L44.8715 20.9558ZM48.117 12.5203L49.0617 12.8484L48.117 12.5203ZM48.9971 9.89611L49.9489 10.2027L49.9489 10.2027L48.9971 9.89611ZM49.2247 9.17884L50.1794 9.47635L50.18 9.47443L49.2247 9.17884ZM49.282 8.99341L50.2374 9.28901L50.2383 9.2859L49.282 8.99341ZM49.2962 8.94706L50.2525 9.23956L50.253 9.23773L49.2962 8.94706ZM49.3004 8.93331L50.2572 9.22397L50.2576 9.2226L49.3004 8.93331ZM52 4.03977C52 4.04966 51.9982 4.05619 51.9963 4.06084C51.9941 4.06612 51.9909 4.07072 51.9875 4.07426C51.984 4.0778 51.9813 4.0791 51.9807 4.07937C51.9805 4.07948 51.9805 4.07946 51.9806 4.07943C51.9808 4.0794 51.9803 4.07954 51.9787 4.07954L51.9791 6.07954C53.1121 6.07934 54 5.14919 54 4.03977H52ZM51.9787 4C51.9803 4 51.9808 4.00014 51.9806 4.0001C51.9805 4.00008 51.9805 4.00006 51.9807 4.00017C51.9813 4.00043 51.984 4.00174 51.9875 4.00528C51.9909 4.00882 51.9941 4.01342 51.9963 4.0187C51.9982 4.02335 52 4.02988 52 4.03977H54C54 2.93023 53.1119 2 51.9787 2V4ZM52.9787 4.03977V3H50.9787V4.03977H52.9787ZM51.9787 3C52.9787 3 51.9787 3 50.9787 3C50.9787 3 50.9787 3 50.9787 3C50.9787 3 50.9787 3 50.9787 3C50.9787 3 50.9787 3 50.9787 3C50.9787 3 50.9787 3 50.9787 3C50.9787 3 50.9787 3 50.9787 3C50.9787 3 50.9787 3 50.9787 3C50.9787 3 50.9787 3 50.9787 3C50.9787 3 50.9787 3.00001 50.9787 3.00001C50.9787 3.00001 50.9787 3.00001 50.9787 3.00001C50.9787 3.00001 50.9787 3.00001 50.9787 3.00001C50.9787 3.00001 50.9787 3.00001 50.9787 3.00001C50.9787 3.00001 50.9787 3.00002 50.9787 3.00002C50.9787 3.00002 50.9787 3.00002 50.9787 3.00002C50.9787 3.00002 50.9787 3.00002 50.9787 3.00003C50.9787 3.00003 50.9787 3.00003 50.9787 3.00003C50.9787 3.00003 50.9787 3.00004 50.9787 3.00004C50.9787 3.00004 50.9787 3.00004 50.9787 3.00005C50.9787 3.00005 50.9787 3.00005 50.9787 3.00005C50.9787 3.00006 50.9787 3.00006 50.9787 3.00006C50.9787 3.00007 50.9787 3.00007 50.9787 3.00007C50.9787 3.00008 50.9787 3.00008 50.9787 3.00008C50.9787 3.00009 50.9787 3.00009 50.9787 3.00009C50.9787 3.0001 50.9787 3.0001 50.9787 3.00011C50.9787 3.00011 50.9787 3.00012 50.9787 3.00012C50.9787 3.00013 50.9787 3.00013 50.9787 3.00014C50.9787 3.00014 50.9787 3.00015 50.9787 3.00015C50.9787 3.00016 50.9787 3.00016 50.9787 3.00017C50.9787 3.00018 50.9787 3.00018 50.9787 3.00019C50.9787 3.0002 50.9787 3.0002 50.9787 3.00021C50.9787 3.00022 50.9787 3.00022 50.9787 3.00023C50.9787 3.00024 50.9787 3.00025 50.9787 3.00025C50.9787 3.00026 50.9787 3.00027 50.9787 3.00028C50.9787 3.00029 50.9787 3.0003 50.9787 3.0003C50.9787 3.00031 50.9787 3.00032 50.9787 3.00033C50.9787 3.00034 50.9787 3.00035 50.9787 3.00036C50.9787 3.00037 50.9787 3.00038 50.9787 3.00039C50.9787 3.0004 50.9787 3.00041 50.9787 3.00043C50.9787 3.00044 50.9787 3.00045 50.9787 3.00046C50.9787 3.00047 50.9787 3.00048 50.9787 3.0005C50.9787 3.00051 50.9787 3.00052 50.9787 3.00053C50.9787 3.00055 50.9787 3.00056 50.9787 3.00057C50.9787 3.00059 50.9787 3.0006 50.9787 3.00062C50.9787 3.00063 50.9787 3.00064 50.9787 3.00066C50.9787 3.00067 50.9787 3.00069 50.9787 3.00071C50.9787 3.00072 50.9787 3.00074 50.9787 3.00075C50.9787 3.00077 50.9787 3.00079 50.9787 3.0008C50.9787 3.00082 50.9787 3.00084 50.9787 3.00086C50.9787 3.00087 50.9787 3.00089 50.9787 3.00091C50.9787 3.00093 50.9787 3.00095 50.9787 3.00097C50.9787 3.00099 50.9787 3.00101 50.9787 3.00103C50.9787 3.00105 50.9787 3.00107 50.9787 3.00109C50.9787 3.00111 50.9787 3.00113 50.9787 3.00115C50.9787 3.00118 50.9787 3.0012 50.9787 3.00122C50.9787 3.00124 50.9787 3.00127 50.9787 3.00129C50.9787 3.00131 50.9787 3.00134 50.9787 3.00136C50.9787 3.00138 50.9787 3.00141 50.9787 3.00143C50.9787 3.00146 50.9787 3.00149 50.9787 3.00151C50.9787 3.00154 50.9787 3.00156 50.9787 3.00159C50.9787 3.00162 50.9787 3.00165 50.9787 3.00167C50.9787 3.0017 50.9787 3.00173 50.9787 3.00176C50.9787 3.00179 50.9787 3.00182 50.9787 3.00185C50.9787 3.00188 50.9787 3.00191 50.9787 3.00194C50.9787 3.00197 50.9787 3.002 50.9787 3.00203C50.9787 3.00206 50.9787 3.00209 50.9787 3.00213C50.9787 3.00216 50.9787 3.00219 50.9787 3.00223C50.9787 3.00226 50.9787 3.0023 50.9787 3.00233C50.9787 3.00236 50.9787 3.0024 50.9787 3.00244C50.9787 3.00247 50.9787 3.00251 50.9787 3.00254C50.9787 3.00258 50.9787 3.00262 50.9787 3.00266C50.9787 3.0027 50.9787 3.00273 50.9787 3.00277C50.9787 3.00281 50.9787 3.00285 50.9787 3.00289C50.9787 3.00293 50.9787 3.00297 50.9787 3.00301C50.9787 3.00305 50.9787 3.0031 50.9787 3.00314C50.9787 3.00318 50.9787 3.00322 50.9787 3.00327C50.9787 3.00331 50.9787 3.00336 50.9787 3.0034C50.9787 3.00345 50.9787 3.00349 50.9787 3.00354C50.9787 3.00358 50.9787 3.00363 50.9787 3.00368C50.9787 3.00372 50.9787 3.00377 50.9787 3.00382C50.9787 3.00387 50.9787 3.00392 50.9787 3.00397C50.9787 3.00402 50.9787 3.00407 50.9787 3.00412C50.9787 3.00417 50.9787 3.00422 50.9787 3.00427C50.9787 3.00432 50.9787 3.00438 50.9787 3.00443C50.9787 3.00448 50.9787 3.00454 50.9787 3.00459C50.9787 3.00465 50.9787 3.0047 50.9787 3.00476C50.9787 3.00481 50.9787 3.00487 50.9787 3.00493C50.9787 3.00498 50.9787 3.00504 50.9787 3.0051C50.9787 3.00516 50.9787 3.00522 50.9787 3.00528C50.9787 3.00534 50.9787 3.0054 50.9787 3.00546C50.9787 3.00552 50.9787 3.00558 50.9787 3.00565C50.9787 3.00571 50.9787 3.00577 50.9787 3.00584C50.9787 3.0059 50.9787 3.00597 50.9787 3.00603C50.9787 3.0061 50.9787 3.00616 50.9787 3.00623C50.9787 3.0063 50.9787 3.00637 50.9787 3.00643C50.9787 3.0065 50.9787 3.00657 50.9787 3.00664C50.9787 3.00671 50.9787 3.00678 50.9787 3.00685C50.9787 3.00693 50.9787 3.007 50.9787 3.00707C50.9787 3.00714 50.9787 3.00722 50.9787 3.00729C50.9787 3.00737 50.9787 3.00744 50.9787 3.00752C50.9787 3.00759 50.9787 3.00767 50.9787 3.00775C50.9787 3.00782 50.9787 3.0079 50.9787 3.00798C50.9787 3.00806 50.9787 3.00814 50.9787 3.00822C50.9787 3.0083 50.9787 3.00838 50.9787 3.00847C50.9787 3.00855 50.9787 3.00863 50.9787 3.00871C50.9787 3.0088 50.9787 3.00888 50.9787 3.00897C50.9787 3.00905 50.9787 3.00914 50.9787 3.00923C50.9787 3.00931 50.9787 3.0094 50.9787 3.00949C50.9787 3.00958 50.9787 3.00967 50.9787 3.00976C50.9787 3.00985 50.9787 3.00994 50.9787 3.01003C50.9787 3.01012 50.9787 3.01022 50.9787 3.01031C50.9787 3.0104 50.9787 3.0105 50.9787 3.01059C50.9787 3.01069 50.9787 3.01079 50.9787 3.01088C50.9787 3.01098 50.9787 3.01108 50.9787 3.01118C50.9787 3.01128 50.9787 3.01138 50.9787 3.01148C50.9787 3.01158 50.9787 3.01168 50.9787 3.01178C50.9787 3.01188 50.9787 3.01199 50.9787 3.01209C50.9787 3.0122 50.9787 3.0123 50.9787 3.01241C50.9787 3.01251 50.9787 3.01262 50.9787 3.01273C50.9787 3.01284 50.9787 3.01295 50.9787 3.01305C50.9787 3.01316 50.9787 3.01328 50.9787 3.01339C50.9787 3.0135 50.9787 3.01361 50.9787 3.01372C50.9787 3.01384 50.9787 3.01395 50.9787 3.01407C50.9787 3.01418 50.9787 3.0143 50.9787 3.01442C50.9787 3.01453 50.9787 3.01465 50.9787 3.01477C50.9787 3.01489 50.9787 3.01501 50.9787 3.01513C50.9787 3.01525 50.9787 3.01537 50.9787 3.0155C50.9787 3.01562 50.9787 3.01574 50.9787 3.01587C50.9787 3.01599 50.9787 3.01612 50.9787 3.01625C50.9787 3.01637 50.9787 3.0165 50.9787 3.01663C50.9787 3.01676 50.9787 3.01689 50.9787 3.01702C50.9787 3.01715 50.9787 3.01728 50.9787 3.01742C50.9787 3.01755 50.9787 3.01768 50.9787 3.01782C50.9787 3.01795 50.9787 3.01809 50.9787 3.01823C50.9787 3.01836 50.9787 3.0185 50.9787 3.01864C50.9787 3.01878 50.9787 3.01892 50.9787 3.01906C50.9787 3.0192 50.9787 3.01934 50.9787 3.01949C50.9787 3.01963 50.9787 3.01977 50.9787 3.01992C50.9787 3.02007 50.9787 3.02021 50.9787 3.02036C50.9787 3.02051 50.9787 3.02066 50.9787 3.02081C50.9787 3.02095 50.9787 3.02111 50.9787 3.02126C50.9787 3.02141 50.9787 3.02156 50.9787 3.02172C50.9787 3.02187 50.9787 3.02203 50.9787 3.02218C50.9787 3.02234 50.9787 3.0225 50.9787 3.02265C50.9787 3.02281 50.9787 3.02297 50.9787 3.02313C50.9787 3.02329 50.9787 3.02345 50.9787 3.02362C50.9787 3.02378 50.9787 3.02394 50.9787 3.02411C50.9787 3.02427 50.9787 3.02444 50.9787 3.02461C50.9787 3.02478 50.9787 3.02494 50.9787 3.02511C50.9787 3.02528 50.9787 3.02545 50.9787 3.02563C50.9787 3.0258 50.9787 3.02597 50.9787 3.02615C50.9787 3.02632 50.9787 3.0265 50.9787 3.02667C50.9787 3.02685 50.9787 3.02703 50.9787 3.02721C50.9787 3.02738 50.9787 3.02756 50.9787 3.02775C50.9787 3.02793 50.9787 3.02811 50.9787 3.02829C50.9787 3.02848 50.9787 3.02866 50.9787 3.02885C50.9787 3.02903 50.9787 3.02922 50.9787 3.02941C50.9787 3.0296 50.9787 3.02979 50.9787 3.02998C50.9787 3.03017 50.9787 3.03036 50.9787 3.03056C50.9787 3.03075 50.9787 3.03094 50.9787 3.03114C50.9787 3.03134 50.9787 3.03153 50.9787 3.03173C50.9787 3.03193 50.9787 3.03213 50.9787 3.03233C50.9787 3.03253 50.9787 3.03273 50.9787 3.03294C50.9787 3.03314 50.9787 3.03334 50.9787 3.03355C50.9787 3.03376 50.9787 3.03396 50.9787 3.03417C50.9787 3.03438 50.9787 3.03459 50.9787 3.0348C50.9787 3.03501 50.9787 3.03522 50.9787 3.03544C50.9787 3.03565 50.9787 3.03586 50.9787 3.03608C50.9787 3.0363 50.9787 3.03651 50.9787 3.03673C50.9787 3.03695 50.9787 3.03717 50.9787 3.03739C50.9787 3.03761 50.9787 3.03784 50.9787 3.03806C50.9787 3.03828 50.9787 3.03851 50.9787 3.03874C50.9787 3.03896 50.9787 3.03919 50.9787 3.03942C50.9787 3.03965 50.9787 3.03988 50.9787 3.04011C50.9787 3.04034 50.9787 3.04058 50.9787 3.04081C50.9787 3.04105 50.9787 3.04128 50.9787 3.04152C50.9787 3.04176 50.9787 3.04199 50.9787 3.04223C50.9787 3.04247 50.9787 3.04272 50.9787 3.04296C50.9787 3.0432 50.9787 3.04345 50.9787 3.04369C50.9787 3.04394 50.9787 3.04418 50.9787 3.04443C50.9787 3.04468 50.9787 3.04493 50.9787 3.04518C50.9787 3.04543 50.9787 3.04568 50.9787 3.04594C50.9787 3.04619 50.9787 3.04645 50.9787 3.0467C50.9787 3.04696 50.9787 3.04722 50.9787 3.04748C50.9787 3.04774 50.9787 3.048 50.9787 3.04826C50.9787 3.04852 50.9787 3.04879 50.9787 3.04905C50.9787 3.04932 50.9787 3.04958 50.9787 3.04985C50.9787 3.05012 50.9787 3.05039 50.9787 3.05066C50.9787 3.05093 50.9787 3.0512 50.9787 3.05148C50.9787 3.05175 50.9787 3.05202 50.9787 3.0523C50.9787 3.05258 50.9787 3.05286 50.9787 3.05314C50.9787 3.05342 50.9787 3.0537 50.9787 3.05398C50.9787 3.05426 50.9787 3.05455 50.9787 3.05483C50.9787 3.05512 50.9787 3.0554 50.9787 3.05569C50.9787 3.05598 50.9787 3.05627 50.9787 3.05656C50.9787 3.05685 50.9787 3.05715 50.9787 3.05744C50.9787 3.05774 50.9787 3.05803 50.9787 3.05833C50.9787 3.05863 50.9787 3.05893 50.9787 3.05923C50.9787 3.05953 50.9787 3.05983 50.9787 3.06013C50.9787 3.06044 50.9787 3.06074 50.9787 3.06105C50.9787 3.06136 50.9787 3.06167 50.9787 3.06198C50.9787 3.06228 50.9787 3.0626 50.9787 3.06291C50.9787 3.06322 50.9787 3.06354 50.9787 3.06385C50.9787 3.06417 50.9787 3.06449 50.9787 3.06481C50.9787 3.06513 50.9787 3.06545 50.9787 3.06577C50.9787 3.06609 50.9787 3.06641 50.9787 3.06674C50.9787 3.06707 50.9787 3.06739 50.9787 3.06772C50.9787 3.06805 50.9787 3.06838 50.9787 3.06871C50.9787 3.06904 50.9787 3.06938 50.9787 3.06971C50.9787 3.07005 50.9787 3.07039 50.9787 3.07072C50.9787 3.07106 50.9787 3.0714 50.9787 3.07174C50.9787 3.07209 50.9787 3.07243 50.9787 3.07277C50.9787 3.07312 50.9787 3.07347 50.9787 3.07381C50.9787 3.07416 50.9787 3.07451 50.9787 3.07486C50.9787 3.07521 50.9787 3.07557 50.9787 3.07592C50.9787 3.07628 50.9787 3.07663 50.9787 3.07699C50.9787 3.07735 50.9787 3.07771 50.9787 3.07807C50.9787 3.07843 50.9787 3.0788 50.9787 3.07916C50.9787 3.07952 50.9787 3.07989 50.9787 3.08026C50.9787 3.08063 50.9787 3.081 50.9787 3.08137C50.9787 3.08174 50.9787 3.08211 50.9787 3.08249C50.9787 3.08286 50.9787 3.08324 50.9787 3.08362C50.9787 3.084 50.9787 3.08438 50.9787 3.08476C50.9787 3.08514 50.9787 3.08552 50.9787 3.08591C50.9787 3.08629 50.9787 3.08668 50.9787 3.08707C50.9787 3.08746 50.9787 3.08785 50.9787 3.08824C50.9787 3.08863 50.9787 3.08903 50.9787 3.08942C50.9787 3.08982 50.9787 3.09022 50.9787 3.09062C50.9787 3.09102 50.9787 3.09142 50.9787 3.09182C50.9787 3.09222 50.9787 3.09263 50.9787 3.09303C50.9787 3.09344 50.9787 3.09385 50.9787 3.09426C50.9787 3.09467 50.9787 3.09508 50.9787 3.09549C50.9787 3.0959 50.9787 3.09632 50.9787 3.09674C50.9787 3.09715 50.9787 3.09757 50.9787 3.09799C50.9787 3.09841 50.9787 3.09884 50.9787 3.09926C50.9787 3.09968 50.9787 3.10011 50.9787 3.10054C50.9787 3.10097 50.9787 3.1014 50.9787 3.10183C50.9787 3.10226 50.9787 3.10269 50.9787 3.10313C50.9787 3.10356 50.9787 3.104 50.9787 3.10444C50.9787 3.10488 50.9787 3.10532 50.9787 3.10576C50.9787 3.1062 50.9787 3.10665 50.9787 3.10709C50.9787 3.10754 50.9787 3.10799 50.9787 3.10844C50.9787 3.10889 50.9787 3.10934 50.9787 3.10979C50.9787 3.11025 50.9787 3.1107 50.9787 3.11116C50.9787 3.11162 50.9787 3.11208 50.9787 3.11254C50.9787 3.113 50.9787 3.11346 50.9787 3.11393C50.9787 3.11439 50.9787 3.11486 50.9787 3.11533C50.9787 3.1158 50.9787 3.11627 50.9787 3.11674C50.9787 3.11721 50.9787 3.11769 50.9787 3.11816C50.9787 3.11864 50.9787 3.11912 50.9787 3.1196C50.9787 3.12008 50.9787 3.12056 50.9787 3.12105C50.9787 3.12153 50.9787 3.12202 50.9787 3.1225C50.9787 3.12299 50.9787 3.12348 50.9787 3.12397C50.9787 3.12447 50.9787 3.12496 50.9787 3.12546C50.9787 3.12595 50.9787 3.12645 50.9787 3.12695C50.9787 3.12745 50.9787 3.12795 50.9787 3.12845C50.9787 3.12896 50.9787 3.12946 50.9787 3.12997C50.9787 3.13048 50.9787 3.13099 50.9787 3.1315C50.9787 3.13201 50.9787 3.13253 50.9787 3.13304C50.9787 3.13356 50.9787 3.13407 50.9787 3.13459C50.9787 3.13511 50.9787 3.13564 50.9787 3.13616C50.9787 3.13668 50.9787 3.13721 50.9787 3.13774C50.9787 3.13826 50.9787 3.13879 50.9787 3.13933C50.9787 3.13986 50.9787 3.14039 50.9787 3.14093C50.9787 3.14146 50.9787 3.142 50.9787 3.14254C50.9787 3.14308 50.9787 3.14362 50.9787 3.14417C50.9787 3.14471 50.9787 3.14526 50.9787 3.1458C50.9787 3.14635 50.9787 3.1469 50.9787 3.14746C50.9787 3.14801 50.9787 3.14856 50.9787 3.14912C50.9787 3.14967 50.9787 3.15023 50.9787 3.15079C50.9787 3.15135 50.9787 3.15192 50.9787 3.15248C50.9787 3.15305 50.9787 3.15361 50.9787 3.15418C50.9787 3.15475 50.9787 3.15532 50.9787 3.1559C50.9787 3.15647 50.9787 3.15704 50.9787 3.15762C50.9787 3.1582 50.9787 3.15878 50.9787 3.15936C50.9787 3.15994 50.9787 3.16053 50.9787 3.16111C50.9787 3.1617 50.9787 3.16228 50.9787 3.16287C50.9787 3.16347 50.9787 3.16406 50.9787 3.16465C50.9787 3.16525 50.9787 3.16584 50.9787 3.16644C50.9787 3.16704 50.9787 3.16764 50.9787 3.16824C50.9787 3.16885 50.9787 3.16945 50.9787 3.17006C50.9787 3.17067 50.9787 3.17128 50.9787 3.17189C50.9787 3.1725 50.9787 3.17311 50.9787 3.17373C50.9787 3.17435 50.9787 3.17496 50.9787 3.17558C50.9787 3.17621 50.9787 3.17683 50.9787 3.17745C50.9787 3.17808 50.9787 3.1787 50.9787 3.17933C50.9787 3.17996 50.9787 3.18059 50.9787 3.18123C50.9787 3.18186 50.9787 3.1825 50.9787 3.18314C50.9787 3.18377 50.9787 3.18441 50.9787 3.18506C50.9787 3.1857 50.9787 3.18634 50.9787 3.18699C50.9787 3.18764 50.9787 3.18829 50.9787 3.18894C50.9787 3.18959 50.9787 3.19024 50.9787 3.1909C50.9787 3.19156 50.9787 3.19221 50.9787 3.19287C50.9787 3.19354 50.9787 3.1942 50.9787 3.19486C50.9787 3.19553 50.9787 3.1962 50.9787 3.19687C50.9787 3.19753 50.9787 3.19821 50.9787 3.19888C50.9787 3.19956 50.9787 3.20023 50.9787 3.20091C50.9787 3.20159 50.9787 3.20227 50.9787 3.20295C50.9787 3.20364 50.9787 3.20432 50.9787 3.20501C50.9787 3.2057 50.9787 3.20639 50.9787 3.20708C50.9787 3.20777 50.9787 3.20847 50.9787 3.20917C50.9787 3.20986 50.9787 3.21056 50.9787 3.21126C50.9787 3.21197 50.9787 3.21267 50.9787 3.21338C50.9787 3.21408 50.9787 3.21479 50.9787 3.2155C50.9787 3.21622 50.9787 3.21693 50.9787 3.21764C50.9787 3.21836 50.9787 3.21908 50.9787 3.2198C50.9787 3.22052 50.9787 3.22124 50.9787 3.22197C50.9787 3.22269 50.9787 3.22342 50.9787 3.22415C50.9787 3.22488 50.9787 3.22561 50.9787 3.22635C50.9787 3.22708 50.9787 3.22782 50.9787 3.22856C50.9787 3.2293 50.9787 3.23004 50.9787 3.23079C50.9787 3.23153 50.9787 3.23228 50.9787 3.23303C50.9787 3.23378 50.9787 3.23453 50.9787 3.23528C50.9787 3.23604 50.9787 3.23679 50.9787 3.23755C50.9787 3.23831 50.9787 3.23907 50.9787 3.23984C50.9787 3.2406 50.9787 3.24137 50.9787 3.24214C50.9787 3.2429 50.9787 3.24368 50.9787 3.24445C50.9787 3.24522 50.9787 3.246 50.9787 3.24678C50.9787 3.24756 50.9787 3.24834 50.9787 3.24912C50.9787 3.2499 50.9787 3.25069 50.9787 3.25148C50.9787 3.25227 50.9787 3.25306 50.9787 3.25385C50.9787 3.25464 50.9787 3.25544 50.9787 3.25624C50.9787 3.25704 50.9787 3.25784 50.9787 3.25864C50.9787 3.25944 50.9787 3.26025 50.9787 3.26106C50.9787 3.26186 50.9787 3.26268 50.9787 3.26349C50.9787 3.2643 50.9787 3.26512 50.9787 3.26594C50.9787 3.26675 50.9787 3.26758 50.9787 3.2684C50.9787 3.26922 50.9787 3.27005 50.9787 3.27088C50.9787 3.2717 50.9787 3.27254 50.9787 3.27337C50.9787 3.2742 50.9787 3.27504 50.9787 3.27588C50.9787 3.27672 50.9787 3.27756 50.9787 3.2784C50.9787 3.27924 50.9787 3.28009 50.9787 3.28094C50.9787 3.28179 50.9787 3.28264 50.9787 3.28349C50.9787 3.28435 50.9787 3.2852 50.9787 3.28606C50.9787 3.28692 50.9787 3.28778 50.9787 3.28865C50.9787 3.28951 50.9787 3.29038 50.9787 3.29125C50.9787 3.29212 50.9787 3.29299 50.9787 3.29386C50.9787 3.29474 50.9787 3.29561 50.9787 3.29649C50.9787 3.29737 50.9787 3.29826 50.9787 3.29914C50.9787 3.30003 50.9787 3.30091 50.9787 3.3018C50.9787 3.3027 50.9787 3.30359 50.9787 3.30448C50.9787 3.30538 50.9787 3.30628 50.9787 3.30718C50.9787 3.30808 50.9787 3.30898 50.9787 3.30989C50.9787 3.31079 50.9787 3.3117 50.9787 3.31261C50.9787 3.31353 50.9787 3.31444 50.9787 3.31536C50.9787 3.31627 50.9787 3.31719 50.9787 3.31812C50.9787 3.31904 50.9787 3.31996 50.9787 3.32089C50.9787 3.32182 50.9787 3.32275 50.9787 3.32368C50.9787 3.32461 50.9787 3.32555 50.9787 3.32649C50.9787 3.32742 50.9787 3.32837 50.9787 3.32931C50.9787 3.33025 50.9787 3.3312 50.9787 3.33215C50.9787 3.3331 50.9787 3.33405 50.9787 3.335C50.9787 3.33596 50.9787 3.33691 50.9787 3.33787C50.9787 3.33883 50.9787 3.3398 50.9787 3.34076C50.9787 3.34173 50.9787 3.3427 50.9787 3.34367C50.9787 3.34464 50.9787 3.34561 50.9787 3.34659C50.9787 3.34756 50.9787 3.34854 50.9787 3.34952C50.9787 3.35051 50.9787 3.35149 50.9787 3.35248C50.9787 3.35347 50.9787 3.35446 50.9787 3.35545C50.9787 3.35644 50.9787 3.35744 50.9787 3.35844C50.9787 3.35943 50.9787 3.36043 50.9787 3.36144C50.9787 3.36244 50.9787 3.36345 50.9787 3.36446C50.9787 3.36547 50.9787 3.36648 50.9787 3.3675C50.9787 3.36851 50.9787 3.36953 50.9787 3.37055C50.9787 3.37157 50.9787 3.37259 50.9787 3.37362C50.9787 3.37465 50.9787 3.37568 50.9787 3.37671C50.9787 3.37774 50.9787 3.37878 50.9787 3.37981C50.9787 3.38085 50.9787 3.38189 50.9787 3.38294C50.9787 3.38398 50.9787 3.38502 50.9787 3.38607C50.9787 3.38712 50.9787 3.38818 50.9787 3.38923C50.9787 3.39028 50.9787 3.39134 50.9787 3.3924C50.9787 3.39346 50.9787 3.39453 50.9787 3.39559C50.9787 3.39666 50.9787 3.39773 50.9787 3.3988C50.9787 3.39987 50.9787 3.40095 50.9787 3.40203C50.9787 3.4031 50.9787 3.40418 50.9787 3.40527C50.9787 3.40635 50.9787 3.40744 50.9787 3.40853C50.9787 3.40962 50.9787 3.41071 50.9787 3.4118C50.9787 3.4129 50.9787 3.414 50.9787 3.4151C50.9787 3.4162 50.9787 3.4173 50.9787 3.41841C50.9787 3.41952 50.9787 3.42063 50.9787 3.42174C50.9787 3.42285 50.9787 3.42397 50.9787 3.42509C50.9787 3.42621 50.9787 3.42733 50.9787 3.42845C50.9787 3.42958 50.9787 3.4307 50.9787 3.43183C50.9787 3.43296 50.9787 3.4341 50.9787 3.43523C50.9787 3.43637 50.9787 3.43751 50.9787 3.43865C50.9787 3.43979 50.9787 3.44094 50.9787 3.44209C50.9787 3.44324 50.9787 3.44439 50.9787 3.44554C50.9787 3.4467 50.9787 3.44785 50.9787 3.44901C50.9787 3.45017 50.9787 3.45134 50.9787 3.4525C50.9787 3.45367 50.9787 3.45484 50.9787 3.45601C50.9787 3.45718 50.9787 3.45836 50.9787 3.45954C50.9787 3.46072 50.9787 3.4619 50.9787 3.46308C50.9787 3.46427 50.9787 3.46545 50.9787 3.46664C50.9787 3.46783 50.9787 3.46903 50.9787 3.47022C50.9787 3.47142 50.9787 3.47262 50.9787 3.47382C50.9787 3.47503 50.9787 3.47623 50.9787 3.47744C50.9787 3.47865 50.9787 3.47986 50.9787 3.48107C50.9787 3.48229 50.9787 3.48351 50.9787 3.48473C50.9787 3.48595 50.9787 3.48717 50.9787 3.4884C50.9787 3.48963 50.9787 3.49086 50.9787 3.49209C50.9787 3.49332 50.9787 3.49456 50.9787 3.4958C50.9787 3.49704 50.9787 3.49828 50.9787 3.49953C50.9787 3.50077 50.9787 3.50202 50.9787 3.50327C50.9787 3.50453 50.9787 3.50578 50.9787 3.50704C50.9787 3.5083 50.9787 3.50956 50.9787 3.51082C50.9787 3.51209 50.9787 3.51336 50.9787 3.51463C50.9787 3.5159 50.9787 3.51717 50.9787 3.51845C50.9787 3.51972 50.9787 3.52101 50.9787 3.52229C50.9787 3.52357 50.9787 3.52486 50.9787 3.52615C50.9787 3.52744 50.9787 3.52873 50.9787 3.53003C50.9787 3.53132 50.9787 3.53262 50.9787 3.53392C50.9787 3.53523 50.9787 3.53653 50.9787 3.53784C50.9787 3.53915 50.9787 3.54046 50.9787 3.54177C50.9787 3.54309 50.9787 3.54441 50.9787 3.54573C50.9787 3.54705 50.9787 3.54838 50.9787 3.5497C50.9787 3.55103 50.9787 3.55236 50.9787 3.5537C50.9787 3.55503 50.9787 3.55637 50.9787 3.55771C50.9787 3.55905 50.9787 3.56039 50.9787 3.56174C50.9787 3.56309 50.9787 3.56444 50.9787 3.56579C50.9787 3.56714 50.9787 3.5685 50.9787 3.56986C50.9787 3.57122 50.9787 3.57258 50.9787 3.57395C50.9787 3.57532 50.9787 3.57669 50.9787 3.57806C50.9787 3.57943 50.9787 3.58081 50.9787 3.58219C50.9787 3.58357 50.9787 3.58495 50.9787 3.58634C50.9787 3.58772 50.9787 3.58911 50.9787 3.59051C50.9787 3.5919 50.9787 3.5933 50.9787 3.59469C50.9787 3.59609 50.9787 3.5975 50.9787 3.5989C50.9787 3.60031 50.9787 3.60172 50.9787 3.60313C50.9787 3.60454 50.9787 3.60596 50.9787 3.60738C50.9787 3.6088 50.9787 3.61022 50.9787 3.61164C50.9787 3.61307 50.9787 3.6145 50.9787 3.61593C50.9787 3.61736 50.9787 3.6188 50.9787 3.62024C50.9787 3.62168 50.9787 3.62312 50.9787 3.62457C50.9787 3.62601 50.9787 3.62746 50.9787 3.62891C50.9787 3.63037 50.9787 3.63182 50.9787 3.63328C50.9787 3.63474 50.9787 3.6362 50.9787 3.63767C50.9787 3.63913 50.9787 3.6406 50.9787 3.64208C50.9787 3.64355 50.9787 3.64502 50.9787 3.6465C50.9787 3.64798 50.9787 3.64947 50.9787 3.65095C50.9787 3.65244 50.9787 3.65393 50.9787 3.65542C50.9787 3.65691 50.9787 3.65841 50.9787 3.65991C50.9787 3.66141 50.9787 3.66291 50.9787 3.66442C50.9787 3.66593 50.9787 3.66744 50.9787 3.66895C50.9787 3.67046 50.9787 3.67198 50.9787 3.6735C50.9787 3.67502 50.9787 3.67655 50.9787 3.67807C50.9787 3.6796 50.9787 3.68113 50.9787 3.68266C50.9787 3.6842 50.9787 3.68574 50.9787 3.68728C50.9787 3.68882 50.9787 3.69036 50.9787 3.69191C50.9787 3.69346 50.9787 3.69501 50.9787 3.69656C50.9787 3.69812 50.9787 3.69968 50.9787 3.70124C50.9787 3.7028 50.9787 3.70437 50.9787 3.70593C50.9787 3.7075 50.9787 3.70908 50.9787 3.71065C50.9787 3.71223 50.9787 3.71381 50.9787 3.71539C50.9787 3.71697 50.9787 3.71856 50.9787 3.72015C50.9787 3.72174 50.9787 3.72333 50.9787 3.72493C50.9787 3.72652 50.9787 3.72812 50.9787 3.72973C50.9787 3.73133 50.9787 3.73294 50.9787 3.73455C50.9787 3.73616 50.9787 3.73778 50.9787 3.73939C50.9787 3.74101 50.9787 3.74263 50.9787 3.74426C50.9787 3.74588 50.9787 3.74751 50.9787 3.74914C50.9787 3.75078 50.9787 3.75241 50.9787 3.75405C50.9787 3.75569 50.9787 3.75733 50.9787 3.75898C50.9787 3.76063 50.9787 3.76228 50.9787 3.76393C50.9787 3.76558 50.9787 3.76724 50.9787 3.7689C50.9787 3.77056 50.9787 3.77223 50.9787 3.77389C50.9787 3.77556 50.9787 3.77723 50.9787 3.77891C50.9787 3.78058 50.9787 3.78226 50.9787 3.78394C50.9787 3.78563 50.9787 3.78731 50.9787 3.789C50.9787 3.79069 50.9787 3.79238 50.9787 3.79408C50.9787 3.79578 50.9787 3.79748 50.9787 3.79918C50.9787 3.80089 50.9787 3.80259 50.9787 3.8043C50.9787 3.80602 50.9787 3.80773 50.9787 3.80945C50.9787 3.81117 50.9787 3.81289 50.9787 3.81462C50.9787 3.81634 50.9787 3.81807 50.9787 3.8198C50.9787 3.82154 50.9787 3.82327 50.9787 3.82502C50.9787 3.82676 50.9787 3.8285 50.9787 3.83025C50.9787 3.832 50.9787 3.83375 50.9787 3.8355C50.9787 3.83726 50.9787 3.83902 50.9787 3.84078C50.9787 3.84254 50.9787 3.84431 50.9787 3.84608C50.9787 3.84785 50.9787 3.84962 50.9787 3.8514C50.9787 3.85318 50.9787 3.85496 50.9787 3.85674C50.9787 3.85853 50.9787 3.86032 50.9787 3.86211C50.9787 3.8639 50.9787 3.8657 50.9787 3.8675C50.9787 3.8693 50.9787 3.8711 50.9787 3.87291C50.9787 3.87472 50.9787 3.87653 50.9787 3.87834C50.9787 3.88016 50.9787 3.88197 50.9787 3.8838C50.9787 3.88562 50.9787 3.88744 50.9787 3.88927C50.9787 3.8911 50.9787 3.89294 50.9787 3.89478C50.9787 3.89661 50.9787 3.89845 50.9787 3.9003C50.9787 3.90214 50.9787 3.90399 50.9787 3.90584C50.9787 3.9077 50.9787 3.90955 50.9787 3.91141C50.9787 3.91327 50.9787 3.91514 50.9787 3.917C50.9787 3.91887 50.9787 3.92074 50.9787 3.92262C50.9787 3.92449 50.9787 3.92637 50.9787 3.92826C50.9787 3.93014 50.9787 3.93203 50.9787 3.93392C50.9787 3.93581 50.9787 3.9377 50.9787 3.9396C50.9787 3.9415 50.9787 3.9434 50.9787 3.94531C50.9787 3.94721 50.9787 3.94912 50.9787 3.95103C50.9787 3.95295 50.9787 3.95487 50.9787 3.95679C50.9787 3.95871 50.9787 3.96063 50.9787 3.96256C50.9787 3.96449 50.9787 3.96642 50.9787 3.96836C50.9787 3.9703 50.9787 3.97224 50.9787 3.97418C50.9787 3.97613 50.9787 3.97808 50.9787 3.98003C50.9787 3.98198 50.9787 3.98394 50.9787 3.9859C50.9787 3.98786 50.9787 3.98982 50.9787 3.99179C50.9787 3.99376 50.9787 3.99573 50.9787 3.9977C50.9787 3.99968 50.9787 4.00166 50.9787 4.00364C50.9787 4.00563 50.9787 4.00761 50.9787 4.0096C50.9787 4.0116 50.9787 4.01359 50.9787 4.01559C50.9787 4.01759 50.9787 4.01959 50.9787 4.0216C50.9787 4.02361 50.9787 4.02562 50.9787 4.02763C50.9787 4.02965 50.9787 4.03167 50.9787 4.03369C50.9787 4.03571 50.9787 4.03774 50.9787 4.03977H52.9787C52.9787 4.03774 52.9787 4.03571 52.9787 4.03369C52.9787 4.03167 52.9787 4.02965 52.9787 4.02763C52.9787 4.02562 52.9787 4.02361 52.9787 4.0216C52.9787 4.01959 52.9787 4.01759 52.9787 4.01559C52.9787 4.01359 52.9787 4.0116 52.9787 4.0096C52.9787 4.00761 52.9787 4.00563 52.9787 4.00364C52.9787 4.00166 52.9787 3.99968 52.9787 3.9977C52.9787 3.99573 52.9787 3.99376 52.9787 3.99179C52.9787 3.98982 52.9787 3.98786 52.9787 3.9859C52.9787 3.98394 52.9787 3.98198 52.9787 3.98003C52.9787 3.97808 52.9787 3.97613 52.9787 3.97418C52.9787 3.97224 52.9787 3.9703 52.9787 3.96836C52.9787 3.96642 52.9787 3.96449 52.9787 3.96256C52.9787 3.96063 52.9787 3.95871 52.9787 3.95679C52.9787 3.95487 52.9787 3.95295 52.9787 3.95103C52.9787 3.94912 52.9787 3.94721 52.9787 3.94531C52.9787 3.9434 52.9787 3.9415 52.9787 3.9396C52.9787 3.9377 52.9787 3.93581 52.9787 3.93392C52.9787 3.93203 52.9787 3.93014 52.9787 3.92826C52.9787 3.92637 52.9787 3.92449 52.9787 3.92262C52.9787 3.92074 52.9787 3.91887 52.9787 3.917C52.9787 3.91514 52.9787 3.91327 52.9787 3.91141C52.9787 3.90955 52.9787 3.9077 52.9787 3.90584C52.9787 3.90399 52.9787 3.90214 52.9787 3.9003C52.9787 3.89845 52.9787 3.89661 52.9787 3.89478C52.9787 3.89294 52.9787 3.8911 52.9787 3.88927C52.9787 3.88744 52.9787 3.88562 52.9787 3.8838C52.9787 3.88197 52.9787 3.88016 52.9787 3.87834C52.9787 3.87653 52.9787 3.87472 52.9787 3.87291C52.9787 3.8711 52.9787 3.8693 52.9787 3.8675C52.9787 3.8657 52.9787 3.8639 52.9787 3.86211C52.9787 3.86032 52.9787 3.85853 52.9787 3.85674C52.9787 3.85496 52.9787 3.85318 52.9787 3.8514C52.9787 3.84962 52.9787 3.84785 52.9787 3.84608C52.9787 3.84431 52.9787 3.84254 52.9787 3.84078C52.9787 3.83902 52.9787 3.83726 52.9787 3.8355C52.9787 3.83375 52.9787 3.832 52.9787 3.83025C52.9787 3.8285 52.9787 3.82676 52.9787 3.82502C52.9787 3.82327 52.9787 3.82154 52.9787 3.8198C52.9787 3.81807 52.9787 3.81634 52.9787 3.81462C52.9787 3.81289 52.9787 3.81117 52.9787 3.80945C52.9787 3.80773 52.9787 3.80602 52.9787 3.8043C52.9787 3.80259 52.9787 3.80089 52.9787 3.79918C52.9787 3.79748 52.9787 3.79578 52.9787 3.79408C52.9787 3.79238 52.9787 3.79069 52.9787 3.789C52.9787 3.78731 52.9787 3.78563 52.9787 3.78394C52.9787 3.78226 52.9787 3.78058 52.9787 3.77891C52.9787 3.77723 52.9787 3.77556 52.9787 3.77389C52.9787 3.77223 52.9787 3.77056 52.9787 3.7689C52.9787 3.76724 52.9787 3.76558 52.9787 3.76393C52.9787 3.76228 52.9787 3.76063 52.9787 3.75898C52.9787 3.75733 52.9787 3.75569 52.9787 3.75405C52.9787 3.75241 52.9787 3.75078 52.9787 3.74914C52.9787 3.74751 52.9787 3.74588 52.9787 3.74426C52.9787 3.74263 52.9787 3.74101 52.9787 3.73939C52.9787 3.73778 52.9787 3.73616 52.9787 3.73455C52.9787 3.73294 52.9787 3.73133 52.9787 3.72973C52.9787 3.72812 52.9787 3.72652 52.9787 3.72493C52.9787 3.72333 52.9787 3.72174 52.9787 3.72015C52.9787 3.71856 52.9787 3.71697 52.9787 3.71539C52.9787 3.71381 52.9787 3.71223 52.9787 3.71065C52.9787 3.70908 52.9787 3.7075 52.9787 3.70593C52.9787 3.70437 52.9787 3.7028 52.9787 3.70124C52.9787 3.69968 52.9787 3.69812 52.9787 3.69656C52.9787 3.69501 52.9787 3.69346 52.9787 3.69191C52.9787 3.69036 52.9787 3.68882 52.9787 3.68728C52.9787 3.68574 52.9787 3.6842 52.9787 3.68266C52.9787 3.68113 52.9787 3.6796 52.9787 3.67807C52.9787 3.67655 52.9787 3.67502 52.9787 3.6735C52.9787 3.67198 52.9787 3.67046 52.9787 3.66895C52.9787 3.66744 52.9787 3.66593 52.9787 3.66442C52.9787 3.66291 52.9787 3.66141 52.9787 3.65991C52.9787 3.65841 52.9787 3.65691 52.9787 3.65542C52.9787 3.65393 52.9787 3.65244 52.9787 3.65095C52.9787 3.64947 52.9787 3.64798 52.9787 3.6465C52.9787 3.64502 52.9787 3.64355 52.9787 3.64208C52.9787 3.6406 52.9787 3.63913 52.9787 3.63767C52.9787 3.6362 52.9787 3.63474 52.9787 3.63328C52.9787 3.63182 52.9787 3.63037 52.9787 3.62891C52.9787 3.62746 52.9787 3.62601 52.9787 3.62457C52.9787 3.62312 52.9787 3.62168 52.9787 3.62024C52.9787 3.6188 52.9787 3.61736 52.9787 3.61593C52.9787 3.6145 52.9787 3.61307 52.9787 3.61164C52.9787 3.61022 52.9787 3.6088 52.9787 3.60738C52.9787 3.60596 52.9787 3.60454 52.9787 3.60313C52.9787 3.60172 52.9787 3.60031 52.9787 3.5989C52.9787 3.5975 52.9787 3.59609 52.9787 3.59469C52.9787 3.5933 52.9787 3.5919 52.9787 3.59051C52.9787 3.58911 52.9787 3.58772 52.9787 3.58634C52.9787 3.58495 52.9787 3.58357 52.9787 3.58219C52.9787 3.58081 52.9787 3.57943 52.9787 3.57806C52.9787 3.57669 52.9787 3.57532 52.9787 3.57395C52.9787 3.57258 52.9787 3.57122 52.9787 3.56986C52.9787 3.5685 52.9787 3.56714 52.9787 3.56579C52.9787 3.56444 52.9787 3.56309 52.9787 3.56174C52.9787 3.56039 52.9787 3.55905 52.9787 3.55771C52.9787 3.55637 52.9787 3.55503 52.9787 3.5537C52.9787 3.55236 52.9787 3.55103 52.9787 3.5497C52.9787 3.54838 52.9787 3.54705 52.9787 3.54573C52.9787 3.54441 52.9787 3.54309 52.9787 3.54177C52.9787 3.54046 52.9787 3.53915 52.9787 3.53784C52.9787 3.53653 52.9787 3.53523 52.9787 3.53392C52.9787 3.53262 52.9787 3.53132 52.9787 3.53003C52.9787 3.52873 52.9787 3.52744 52.9787 3.52615C52.9787 3.52486 52.9787 3.52357 52.9787 3.52229C52.9787 3.52101 52.9787 3.51972 52.9787 3.51845C52.9787 3.51717 52.9787 3.5159 52.9787 3.51463C52.9787 3.51336 52.9787 3.51209 52.9787 3.51082C52.9787 3.50956 52.9787 3.5083 52.9787 3.50704C52.9787 3.50578 52.9787 3.50453 52.9787 3.50327C52.9787 3.50202 52.9787 3.50077 52.9787 3.49953C52.9787 3.49828 52.9787 3.49704 52.9787 3.4958C52.9787 3.49456 52.9787 3.49332 52.9787 3.49209C52.9787 3.49086 52.9787 3.48963 52.9787 3.4884C52.9787 3.48717 52.9787 3.48595 52.9787 3.48473C52.9787 3.48351 52.9787 3.48229 52.9787 3.48107C52.9787 3.47986 52.9787 3.47865 52.9787 3.47744C52.9787 3.47623 52.9787 3.47503 52.9787 3.47382C52.9787 3.47262 52.9787 3.47142 52.9787 3.47022C52.9787 3.46903 52.9787 3.46783 52.9787 3.46664C52.9787 3.46545 52.9787 3.46427 52.9787 3.46308C52.9787 3.4619 52.9787 3.46072 52.9787 3.45954C52.9787 3.45836 52.9787 3.45718 52.9787 3.45601C52.9787 3.45484 52.9787 3.45367 52.9787 3.4525C52.9787 3.45134 52.9787 3.45017 52.9787 3.44901C52.9787 3.44785 52.9787 3.4467 52.9787 3.44554C52.9787 3.44439 52.9787 3.44324 52.9787 3.44209C52.9787 3.44094 52.9787 3.43979 52.9787 3.43865C52.9787 3.43751 52.9787 3.43637 52.9787 3.43523C52.9787 3.4341 52.9787 3.43296 52.9787 3.43183C52.9787 3.4307 52.9787 3.42958 52.9787 3.42845C52.9787 3.42733 52.9787 3.42621 52.9787 3.42509C52.9787 3.42397 52.9787 3.42285 52.9787 3.42174C52.9787 3.42063 52.9787 3.41952 52.9787 3.41841C52.9787 3.4173 52.9787 3.4162 52.9787 3.4151C52.9787 3.414 52.9787 3.4129 52.9787 3.4118C52.9787 3.41071 52.9787 3.40962 52.9787 3.40853C52.9787 3.40744 52.9787 3.40635 52.9787 3.40527C52.9787 3.40418 52.9787 3.4031 52.9787 3.40203C52.9787 3.40095 52.9787 3.39987 52.9787 3.3988C52.9787 3.39773 52.9787 3.39666 52.9787 3.39559C52.9787 3.39453 52.9787 3.39346 52.9787 3.3924C52.9787 3.39134 52.9787 3.39028 52.9787 3.38923C52.9787 3.38818 52.9787 3.38712 52.9787 3.38607C52.9787 3.38502 52.9787 3.38398 52.9787 3.38294C52.9787 3.38189 52.9787 3.38085 52.9787 3.37981C52.9787 3.37878 52.9787 3.37774 52.9787 3.37671C52.9787 3.37568 52.9787 3.37465 52.9787 3.37362C52.9787 3.37259 52.9787 3.37157 52.9787 3.37055C52.9787 3.36953 52.9787 3.36851 52.9787 3.3675C52.9787 3.36648 52.9787 3.36547 52.9787 3.36446C52.9787 3.36345 52.9787 3.36244 52.9787 3.36144C52.9787 3.36043 52.9787 3.35943 52.9787 3.35844C52.9787 3.35744 52.9787 3.35644 52.9787 3.35545C52.9787 3.35446 52.9787 3.35347 52.9787 3.35248C52.9787 3.35149 52.9787 3.35051 52.9787 3.34952C52.9787 3.34854 52.9787 3.34756 52.9787 3.34659C52.9787 3.34561 52.9787 3.34464 52.9787 3.34367C52.9787 3.3427 52.9787 3.34173 52.9787 3.34076C52.9787 3.3398 52.9787 3.33883 52.9787 3.33787C52.9787 3.33691 52.9787 3.33596 52.9787 3.335C52.9787 3.33405 52.9787 3.3331 52.9787 3.33215C52.9787 3.3312 52.9787 3.33025 52.9787 3.32931C52.9787 3.32837 52.9787 3.32742 52.9787 3.32649C52.9787 3.32555 52.9787 3.32461 52.9787 3.32368C52.9787 3.32275 52.9787 3.32182 52.9787 3.32089C52.9787 3.31996 52.9787 3.31904 52.9787 3.31812C52.9787 3.31719 52.9787 3.31627 52.9787 3.31536C52.9787 3.31444 52.9787 3.31353 52.9787 3.31261C52.9787 3.3117 52.9787 3.31079 52.9787 3.30989C52.9787 3.30898 52.9787 3.30808 52.9787 3.30718C52.9787 3.30628 52.9787 3.30538 52.9787 3.30448C52.9787 3.30359 52.9787 3.3027 52.9787 3.3018C52.9787 3.30091 52.9787 3.30003 52.9787 3.29914C52.9787 3.29826 52.9787 3.29737 52.9787 3.29649C52.9787 3.29561 52.9787 3.29474 52.9787 3.29386C52.9787 3.29299 52.9787 3.29212 52.9787 3.29125C52.9787 3.29038 52.9787 3.28951 52.9787 3.28865C52.9787 3.28778 52.9787 3.28692 52.9787 3.28606C52.9787 3.2852 52.9787 3.28435 52.9787 3.28349C52.9787 3.28264 52.9787 3.28179 52.9787 3.28094C52.9787 3.28009 52.9787 3.27924 52.9787 3.2784C52.9787 3.27756 52.9787 3.27672 52.9787 3.27588C52.9787 3.27504 52.9787 3.2742 52.9787 3.27337C52.9787 3.27254 52.9787 3.2717 52.9787 3.27088C52.9787 3.27005 52.9787 3.26922 52.9787 3.2684C52.9787 3.26758 52.9787 3.26675 52.9787 3.26594C52.9787 3.26512 52.9787 3.2643 52.9787 3.26349C52.9787 3.26268 52.9787 3.26186 52.9787 3.26106C52.9787 3.26025 52.9787 3.25944 52.9787 3.25864C52.9787 3.25784 52.9787 3.25704 52.9787 3.25624C52.9787 3.25544 52.9787 3.25464 52.9787 3.25385C52.9787 3.25306 52.9787 3.25227 52.9787 3.25148C52.9787 3.25069 52.9787 3.2499 52.9787 3.24912C52.9787 3.24834 52.9787 3.24756 52.9787 3.24678C52.9787 3.246 52.9787 3.24522 52.9787 3.24445C52.9787 3.24368 52.9787 3.2429 52.9787 3.24214C52.9787 3.24137 52.9787 3.2406 52.9787 3.23984C52.9787 3.23907 52.9787 3.23831 52.9787 3.23755C52.9787 3.23679 52.9787 3.23604 52.9787 3.23528C52.9787 3.23453 52.9787 3.23378 52.9787 3.23303C52.9787 3.23228 52.9787 3.23153 52.9787 3.23079C52.9787 3.23004 52.9787 3.2293 52.9787 3.22856C52.9787 3.22782 52.9787 3.22708 52.9787 3.22635C52.9787 3.22561 52.9787 3.22488 52.9787 3.22415C52.9787 3.22342 52.9787 3.22269 52.9787 3.22197C52.9787 3.22124 52.9787 3.22052 52.9787 3.2198C52.9787 3.21908 52.9787 3.21836 52.9787 3.21764C52.9787 3.21693 52.9787 3.21622 52.9787 3.2155C52.9787 3.21479 52.9787 3.21408 52.9787 3.21338C52.9787 3.21267 52.9787 3.21197 52.9787 3.21126C52.9787 3.21056 52.9787 3.20986 52.9787 3.20917C52.9787 3.20847 52.9787 3.20777 52.9787 3.20708C52.9787 3.20639 52.9787 3.2057 52.9787 3.20501C52.9787 3.20432 52.9787 3.20364 52.9787 3.20295C52.9787 3.20227 52.9787 3.20159 52.9787 3.20091C52.9787 3.20023 52.9787 3.19956 52.9787 3.19888C52.9787 3.19821 52.9787 3.19753 52.9787 3.19687C52.9787 3.1962 52.9787 3.19553 52.9787 3.19486C52.9787 3.1942 52.9787 3.19354 52.9787 3.19287C52.9787 3.19221 52.9787 3.19156 52.9787 3.1909C52.9787 3.19024 52.9787 3.18959 52.9787 3.18894C52.9787 3.18829 52.9787 3.18764 52.9787 3.18699C52.9787 3.18634 52.9787 3.1857 52.9787 3.18506C52.9787 3.18441 52.9787 3.18377 52.9787 3.18314C52.9787 3.1825 52.9787 3.18186 52.9787 3.18123C52.9787 3.18059 52.9787 3.17996 52.9787 3.17933C52.9787 3.1787 52.9787 3.17808 52.9787 3.17745C52.9787 3.17683 52.9787 3.17621 52.9787 3.17558C52.9787 3.17496 52.9787 3.17435 52.9787 3.17373C52.9787 3.17311 52.9787 3.1725 52.9787 3.17189C52.9787 3.17128 52.9787 3.17067 52.9787 3.17006C52.9787 3.16945 52.9787 3.16885 52.9787 3.16824C52.9787 3.16764 52.9787 3.16704 52.9787 3.16644C52.9787 3.16584 52.9787 3.16525 52.9787 3.16465C52.9787 3.16406 52.9787 3.16347 52.9787 3.16287C52.9787 3.16228 52.9787 3.1617 52.9787 3.16111C52.9787 3.16053 52.9787 3.15994 52.9787 3.15936C52.9787 3.15878 52.9787 3.1582 52.9787 3.15762C52.9787 3.15704 52.9787 3.15647 52.9787 3.1559C52.9787 3.15532 52.9787 3.15475 52.9787 3.15418C52.9787 3.15361 52.9787 3.15305 52.9787 3.15248C52.9787 3.15192 52.9787 3.15135 52.9787 3.15079C52.9787 3.15023 52.9787 3.14967 52.9787 3.14912C52.9787 3.14856 52.9787 3.14801 52.9787 3.14746C52.9787 3.1469 52.9787 3.14635 52.9787 3.1458C52.9787 3.14526 52.9787 3.14471 52.9787 3.14417C52.9787 3.14362 52.9787 3.14308 52.9787 3.14254C52.9787 3.142 52.9787 3.14146 52.9787 3.14093C52.9787 3.14039 52.9787 3.13986 52.9787 3.13933C52.9787 3.13879 52.9787 3.13826 52.9787 3.13774C52.9787 3.13721 52.9787 3.13668 52.9787 3.13616C52.9787 3.13564 52.9787 3.13511 52.9787 3.13459C52.9787 3.13407 52.9787 3.13356 52.9787 3.13304C52.9787 3.13253 52.9787 3.13201 52.9787 3.1315C52.9787 3.13099 52.9787 3.13048 52.9787 3.12997C52.9787 3.12946 52.9787 3.12896 52.9787 3.12845C52.9787 3.12795 52.9787 3.12745 52.9787 3.12695C52.9787 3.12645 52.9787 3.12595 52.9787 3.12546C52.9787 3.12496 52.9787 3.12447 52.9787 3.12397C52.9787 3.12348 52.9787 3.12299 52.9787 3.1225C52.9787 3.12202 52.9787 3.12153 52.9787 3.12105C52.9787 3.12056 52.9787 3.12008 52.9787 3.1196C52.9787 3.11912 52.9787 3.11864 52.9787 3.11816C52.9787 3.11769 52.9787 3.11721 52.9787 3.11674C52.9787 3.11627 52.9787 3.1158 52.9787 3.11533C52.9787 3.11486 52.9787 3.11439 52.9787 3.11393C52.9787 3.11346 52.9787 3.113 52.9787 3.11254C52.9787 3.11208 52.9787 3.11162 52.9787 3.11116C52.9787 3.1107 52.9787 3.11025 52.9787 3.10979C52.9787 3.10934 52.9787 3.10889 52.9787 3.10844C52.9787 3.10799 52.9787 3.10754 52.9787 3.10709C52.9787 3.10665 52.9787 3.1062 52.9787 3.10576C52.9787 3.10532 52.9787 3.10488 52.9787 3.10444C52.9787 3.104 52.9787 3.10356 52.9787 3.10313C52.9787 3.10269 52.9787 3.10226 52.9787 3.10183C52.9787 3.1014 52.9787 3.10097 52.9787 3.10054C52.9787 3.10011 52.9787 3.09968 52.9787 3.09926C52.9787 3.09884 52.9787 3.09841 52.9787 3.09799C52.9787 3.09757 52.9787 3.09715 52.9787 3.09674C52.9787 3.09632 52.9787 3.0959 52.9787 3.09549C52.9787 3.09508 52.9787 3.09467 52.9787 3.09426C52.9787 3.09385 52.9787 3.09344 52.9787 3.09303C52.9787 3.09263 52.9787 3.09222 52.9787 3.09182C52.9787 3.09142 52.9787 3.09102 52.9787 3.09062C52.9787 3.09022 52.9787 3.08982 52.9787 3.08942C52.9787 3.08903 52.9787 3.08863 52.9787 3.08824C52.9787 3.08785 52.9787 3.08746 52.9787 3.08707C52.9787 3.08668 52.9787 3.08629 52.9787 3.08591C52.9787 3.08552 52.9787 3.08514 52.9787 3.08476C52.9787 3.08438 52.9787 3.084 52.9787 3.08362C52.9787 3.08324 52.9787 3.08286 52.9787 3.08249C52.9787 3.08211 52.9787 3.08174 52.9787 3.08137C52.9787 3.081 52.9787 3.08063 52.9787 3.08026C52.9787 3.07989 52.9787 3.07952 52.9787 3.07916C52.9787 3.0788 52.9787 3.07843 52.9787 3.07807C52.9787 3.07771 52.9787 3.07735 52.9787 3.07699C52.9787 3.07663 52.9787 3.07628 52.9787 3.07592C52.9787 3.07557 52.9787 3.07521 52.9787 3.07486C52.9787 3.07451 52.9787 3.07416 52.9787 3.07381C52.9787 3.07347 52.9787 3.07312 52.9787 3.07277C52.9787 3.07243 52.9787 3.07209 52.9787 3.07174C52.9787 3.0714 52.9787 3.07106 52.9787 3.07072C52.9787 3.07039 52.9787 3.07005 52.9787 3.06971C52.9787 3.06938 52.9787 3.06904 52.9787 3.06871C52.9787 3.06838 52.9787 3.06805 52.9787 3.06772C52.9787 3.06739 52.9787 3.06707 52.9787 3.06674C52.9787 3.06641 52.9787 3.06609 52.9787 3.06577C52.9787 3.06545 52.9787 3.06513 52.9787 3.06481C52.9787 3.06449 52.9787 3.06417 52.9787 3.06385C52.9787 3.06354 52.9787 3.06322 52.9787 3.06291C52.9787 3.0626 52.9787 3.06228 52.9787 3.06198C52.9787 3.06167 52.9787 3.06136 52.9787 3.06105C52.9787 3.06074 52.9787 3.06044 52.9787 3.06013C52.9787 3.05983 52.9787 3.05953 52.9787 3.05923C52.9787 3.05893 52.9787 3.05863 52.9787 3.05833C52.9787 3.05803 52.9787 3.05774 52.9787 3.05744C52.9787 3.05715 52.9787 3.05685 52.9787 3.05656C52.9787 3.05627 52.9787 3.05598 52.9787 3.05569C52.9787 3.0554 52.9787 3.05512 52.9787 3.05483C52.9787 3.05455 52.9787 3.05426 52.9787 3.05398C52.9787 3.0537 52.9787 3.05342 52.9787 3.05314C52.9787 3.05286 52.9787 3.05258 52.9787 3.0523C52.9787 3.05202 52.9787 3.05175 52.9787 3.05148C52.9787 3.0512 52.9787 3.05093 52.9787 3.05066C52.9787 3.05039 52.9787 3.05012 52.9787 3.04985C52.9787 3.04958 52.9787 3.04932 52.9787 3.04905C52.9787 3.04879 52.9787 3.04852 52.9787 3.04826C52.9787 3.048 52.9787 3.04774 52.9787 3.04748C52.9787 3.04722 52.9787 3.04696 52.9787 3.0467C52.9787 3.04645 52.9787 3.04619 52.9787 3.04594C52.9787 3.04568 52.9787 3.04543 52.9787 3.04518C52.9787 3.04493 52.9787 3.04468 52.9787 3.04443C52.9787 3.04418 52.9787 3.04394 52.9787 3.04369C52.9787 3.04345 52.9787 3.0432 52.9787 3.04296C52.9787 3.04272 52.9787 3.04247 52.9787 3.04223C52.9787 3.04199 52.9787 3.04176 52.9787 3.04152C52.9787 3.04128 52.9787 3.04105 52.9787 3.04081C52.9787 3.04058 52.9787 3.04034 52.9787 3.04011C52.9787 3.03988 52.9787 3.03965 52.9787 3.03942C52.9787 3.03919 52.9787 3.03896 52.9787 3.03874C52.9787 3.03851 52.9787 3.03828 52.9787 3.03806C52.9787 3.03784 52.9787 3.03761 52.9787 3.03739C52.9787 3.03717 52.9787 3.03695 52.9787 3.03673C52.9787 3.03651 52.9787 3.0363 52.9787 3.03608C52.9787 3.03586 52.9787 3.03565 52.9787 3.03544C52.9787 3.03522 52.9787 3.03501 52.9787 3.0348C52.9787 3.03459 52.9787 3.03438 52.9787 3.03417C52.9787 3.03396 52.9787 3.03376 52.9787 3.03355C52.9787 3.03334 52.9787 3.03314 52.9787 3.03294C52.9787 3.03273 52.9787 3.03253 52.9787 3.03233C52.9787 3.03213 52.9787 3.03193 52.9787 3.03173C52.9787 3.03153 52.9787 3.03134 52.9787 3.03114C52.9787 3.03094 52.9787 3.03075 52.9787 3.03056C52.9787 3.03036 52.9787 3.03017 52.9787 3.02998C52.9787 3.02979 52.9787 3.0296 52.9787 3.02941C52.9787 3.02922 52.9787 3.02903 52.9787 3.02885C52.9787 3.02866 52.9787 3.02848 52.9787 3.02829C52.9787 3.02811 52.9787 3.02793 52.9787 3.02775C52.9787 3.02756 52.9787 3.02738 52.9787 3.02721C52.9787 3.02703 52.9787 3.02685 52.9787 3.02667C52.9787 3.0265 52.9787 3.02632 52.9787 3.02615C52.9787 3.02597 52.9787 3.0258 52.9787 3.02563C52.9787 3.02545 52.9787 3.02528 52.9787 3.02511C52.9787 3.02494 52.9787 3.02478 52.9787 3.02461C52.9787 3.02444 52.9787 3.02427 52.9787 3.02411C52.9787 3.02394 52.9787 3.02378 52.9787 3.02362C52.9787 3.02345 52.9787 3.02329 52.9787 3.02313C52.9787 3.02297 52.9787 3.02281 52.9787 3.02265C52.9787 3.0225 52.9787 3.02234 52.9787 3.02218C52.9787 3.02203 52.9787 3.02187 52.9787 3.02172C52.9787 3.02156 52.9787 3.02141 52.9787 3.02126C52.9787 3.02111 52.9787 3.02095 52.9787 3.02081C52.9787 3.02066 52.9787 3.02051 52.9787 3.02036C52.9787 3.02021 52.9787 3.02007 52.9787 3.01992C52.9787 3.01977 52.9787 3.01963 52.9787 3.01949C52.9787 3.01934 52.9787 3.0192 52.9787 3.01906C52.9787 3.01892 52.9787 3.01878 52.9787 3.01864C52.9787 3.0185 52.9787 3.01836 52.9787 3.01823C52.9787 3.01809 52.9787 3.01795 52.9787 3.01782C52.9787 3.01768 52.9787 3.01755 52.9787 3.01742C52.9787 3.01728 52.9787 3.01715 52.9787 3.01702C52.9787 3.01689 52.9787 3.01676 52.9787 3.01663C52.9787 3.0165 52.9787 3.01637 52.9787 3.01625C52.9787 3.01612 52.9787 3.01599 52.9787 3.01587C52.9787 3.01574 52.9787 3.01562 52.9787 3.0155C52.9787 3.01537 52.9787 3.01525 52.9787 3.01513C52.9787 3.01501 52.9787 3.01489 52.9787 3.01477C52.9787 3.01465 52.9787 3.01453 52.9787 3.01442C52.9787 3.0143 52.9787 3.01418 52.9787 3.01407C52.9787 3.01395 52.9787 3.01384 52.9787 3.01372C52.9787 3.01361 52.9787 3.0135 52.9787 3.01339C52.9787 3.01328 52.9787 3.01316 52.9787 3.01305C52.9787 3.01295 52.9787 3.01284 52.9787 3.01273C52.9787 3.01262 52.9787 3.01251 52.9787 3.01241C52.9787 3.0123 52.9787 3.0122 52.9787 3.01209C52.9787 3.01199 52.9787 3.01188 52.9787 3.01178C52.9787 3.01168 52.9787 3.01158 52.9787 3.01148C52.9787 3.01138 52.9787 3.01128 52.9787 3.01118C52.9787 3.01108 52.9787 3.01098 52.9787 3.01088C52.9787 3.01079 52.9787 3.01069 52.9787 3.01059C52.9787 3.0105 52.9787 3.0104 52.9787 3.01031C52.9787 3.01022 52.9787 3.01012 52.9787 3.01003C52.9787 3.00994 52.9787 3.00985 52.9787 3.00976C52.9787 3.00967 52.9787 3.00958 52.9787 3.00949C52.9787 3.0094 52.9787 3.00931 52.9787 3.00923C52.9787 3.00914 52.9787 3.00905 52.9787 3.00897C52.9787 3.00888 52.9787 3.0088 52.9787 3.00871C52.9787 3.00863 52.9787 3.00855 52.9787 3.00847C52.9787 3.00838 52.9787 3.0083 52.9787 3.00822C52.9787 3.00814 52.9787 3.00806 52.9787 3.00798C52.9787 3.0079 52.9787 3.00782 52.9787 3.00775C52.9787 3.00767 52.9787 3.00759 52.9787 3.00752C52.9787 3.00744 52.9787 3.00737 52.9787 3.00729C52.9787 3.00722 52.9787 3.00714 52.9787 3.00707C52.9787 3.007 52.9787 3.00693 52.9787 3.00685C52.9787 3.00678 52.9787 3.00671 52.9787 3.00664C52.9787 3.00657 52.9787 3.0065 52.9787 3.00643C52.9787 3.00637 52.9787 3.0063 52.9787 3.00623C52.9787 3.00616 52.9787 3.0061 52.9787 3.00603C52.9787 3.00597 52.9787 3.0059 52.9787 3.00584C52.9787 3.00577 52.9787 3.00571 52.9787 3.00565C52.9787 3.00558 52.9787 3.00552 52.9787 3.00546C52.9787 3.0054 52.9787 3.00534 52.9787 3.00528C52.9787 3.00522 52.9787 3.00516 52.9787 3.0051C52.9787 3.00504 52.9787 3.00498 52.9787 3.00493C52.9787 3.00487 52.9787 3.00481 52.9787 3.00476C52.9787 3.0047 52.9787 3.00465 52.9787 3.00459C52.9787 3.00454 52.9787 3.00448 52.9787 3.00443C52.9787 3.00438 52.9787 3.00432 52.9787 3.00427C52.9787 3.00422 52.9787 3.00417 52.9787 3.00412C52.9787 3.00407 52.9787 3.00402 52.9787 3.00397C52.9787 3.00392 52.9787 3.00387 52.9787 3.00382C52.9787 3.00377 52.9787 3.00372 52.9787 3.00368C52.9787 3.00363 52.9787 3.00358 52.9787 3.00354C52.9787 3.00349 52.9787 3.00345 52.9787 3.0034C52.9787 3.00336 52.9787 3.00331 52.9787 3.00327C52.9787 3.00322 52.9787 3.00318 52.9787 3.00314C52.9787 3.0031 52.9787 3.00305 52.9787 3.00301C52.9787 3.00297 52.9787 3.00293 52.9787 3.00289C52.9787 3.00285 52.9787 3.00281 52.9787 3.00277C52.9787 3.00273 52.9787 3.0027 52.9787 3.00266C52.9787 3.00262 52.9787 3.00258 52.9787 3.00254C52.9787 3.00251 52.9787 3.00247 52.9787 3.00244C52.9787 3.0024 52.9787 3.00236 52.9787 3.00233C52.9787 3.0023 52.9787 3.00226 52.9787 3.00223C52.9787 3.00219 52.9787 3.00216 52.9787 3.00213C52.9787 3.00209 52.9787 3.00206 52.9787 3.00203C52.9787 3.002 52.9787 3.00197 52.9787 3.00194C52.9787 3.00191 52.9787 3.00188 52.9787 3.00185C52.9787 3.00182 52.9787 3.00179 52.9787 3.00176C52.9787 3.00173 52.9787 3.0017 52.9787 3.00167C52.9787 3.00165 52.9787 3.00162 52.9787 3.00159C52.9787 3.00156 52.9787 3.00154 52.9787 3.00151C52.9787 3.00149 52.9787 3.00146 52.9787 3.00143C52.9787 3.00141 52.9787 3.00138 52.9787 3.00136C52.9787 3.00134 52.9787 3.00131 52.9787 3.00129C52.9787 3.00127 52.9787 3.00124 52.9787 3.00122C52.9787 3.0012 52.9787 3.00118 52.9787 3.00115C52.9787 3.00113 52.9787 3.00111 52.9787 3.00109C52.9787 3.00107 52.9787 3.00105 52.9787 3.00103C52.9787 3.00101 52.9787 3.00099 52.9787 3.00097C52.9787 3.00095 52.9787 3.00093 52.9787 3.00091C52.9787 3.00089 52.9787 3.00087 52.9787 3.00086C52.9787 3.00084 52.9787 3.00082 52.9787 3.0008C52.9787 3.00079 52.9787 3.00077 52.9787 3.00075C52.9787 3.00074 52.9787 3.00072 52.9787 3.00071C52.9787 3.00069 52.9787 3.00067 52.9787 3.00066C52.9787 3.00064 52.9787 3.00063 52.9787 3.00062C52.9787 3.0006 52.9787 3.00059 52.9787 3.00057C52.9787 3.00056 52.9787 3.00055 52.9787 3.00053C52.9787 3.00052 52.9787 3.00051 52.9787 3.0005C52.9787 3.00048 52.9787 3.00047 52.9787 3.00046C52.9787 3.00045 52.9787 3.00044 52.9787 3.00043C52.9787 3.00041 52.9787 3.0004 52.9787 3.00039C52.9787 3.00038 52.9787 3.00037 52.9787 3.00036C52.9787 3.00035 52.9787 3.00034 52.9787 3.00033C52.9787 3.00032 52.9787 3.00031 52.9787 3.0003C52.9787 3.0003 52.9787 3.00029 52.9787 3.00028C52.9787 3.00027 52.9787 3.00026 52.9787 3.00025C52.9787 3.00025 52.9787 3.00024 52.9787 3.00023C52.9787 3.00022 52.9787 3.00022 52.9787 3.00021C52.9787 3.0002 52.9787 3.0002 52.9787 3.00019C52.9787 3.00018 52.9787 3.00018 52.9787 3.00017C52.9787 3.00016 52.9787 3.00016 52.9787 3.00015C52.9787 3.00015 52.9787 3.00014 52.9787 3.00014C52.9787 3.00013 52.9787 3.00013 52.9787 3.00012C52.9787 3.00012 52.9787 3.00011 52.9787 3.00011C52.9787 3.0001 52.9787 3.0001 52.9787 3.00009C52.9787 3.00009 52.9787 3.00009 52.9787 3.00008C52.9787 3.00008 52.9787 3.00008 52.9787 3.00007C52.9787 3.00007 52.9787 3.00007 52.9787 3.00006C52.9787 3.00006 52.9787 3.00006 52.9787 3.00005C52.9787 3.00005 52.9787 3.00005 52.9787 3.00005C52.9787 3.00004 52.9787 3.00004 52.9787 3.00004C52.9787 3.00004 52.9787 3.00003 52.9787 3.00003C52.9787 3.00003 52.9787 3.00003 52.9787 3.00003C52.9787 3.00002 52.9787 3.00002 52.9787 3.00002C52.9787 3.00002 52.9787 3.00002 52.9787 3.00002C52.9787 3.00002 52.9787 3.00001 52.9787 3.00001C52.9787 3.00001 52.9787 3.00001 52.9787 3.00001C52.9787 3.00001 52.9787 3.00001 52.9787 3.00001C52.9787 3.00001 52.9787 3.00001 52.9787 3.00001C52.9787 3.00001 52.9787 3 52.9787 3C52.9787 3 52.9787 3 52.9787 3C52.9787 3 52.9787 3 52.9787 3C52.9787 3 52.9787 3 52.9787 3C52.9787 3 52.9787 3 52.9787 3C52.9787 3 52.9787 3 52.9787 3C52.9787 3 52.9787 3 52.9787 3C52.9787 3 52.9787 3 52.9787 3C51.9787 3 50.9787 3 51.9787 3ZM51.9735 4.00001L51.98 4L51.9774 2L51.9709 2.00001L51.9735 4.00001ZM51.9593 4.00005L51.975 4L51.9693 2.00001L51.9536 2.00006L51.9593 4.00005ZM51.9034 4.00038L51.9623 4.00004L51.9505 2.00007L51.8916 2.00042L51.9034 4.00038ZM51.689 4.00296C51.784 4.00148 51.8564 4.00074 51.9051 4.00037L51.8899 2.00043C51.836 2.00084 51.7583 2.00164 51.6578 2.00321L51.689 4.00296ZM50.8583 4.02369C51.219 4.01185 51.4991 4.00592 51.689 4.00296L51.6578 2.00321C51.457 2.00634 51.1654 2.01253 50.7926 2.02477L50.8583 4.02369ZM47.8029 4.18955C49.0929 4.09478 50.1368 4.04739 50.8583 4.02369L50.7926 2.02477C50.0472 2.04925 48.9762 2.09796 47.6564 2.19493L47.8029 4.18955ZM37.7227 5.5164C41.6591 4.7582 45.2231 4.3791 47.8029 4.18955L47.6564 2.19493C45.0198 2.38864 41.3756 2.77603 37.3444 3.5525L37.7227 5.5164ZM14.5231 16.1359C20.4859 10.0652 29.8517 7.03246 37.7227 5.5164L37.3444 3.5525C29.376 5.08734 19.5012 8.21357 13.0963 14.7344L14.5231 16.1359ZM8.3408 33.7239C7.70042 28.7255 8.55649 22.2105 14.5231 16.1359L13.0963 14.7344C6.6194 21.3286 5.65463 28.4957 6.35701 33.9781L8.3408 33.7239ZM9.96675 39.8301C9.35384 38.3379 8.66073 36.2212 8.3408 33.7239L6.35701 33.9781C6.70443 36.6899 7.45497 38.9789 8.11673 40.59L9.96675 39.8301ZM10.7698 41.5704C10.5598 41.1665 10.2732 40.5763 9.96675 39.8301L8.11673 40.59C8.44862 41.398 8.76114 42.0427 8.99533 42.4931L10.7698 41.5704ZM11.0203 42.0326C10.9606 41.9277 10.8748 41.7723 10.7698 41.5704L8.99533 42.4931C9.11254 42.7185 9.21044 42.8958 9.28177 43.0213L11.0203 42.0326ZM11.0893 42.1518C11.0735 42.125 11.0502 42.0851 11.0203 42.0326L9.28177 43.0213C9.31744 43.084 9.34651 43.1338 9.36808 43.1703L11.0893 42.1518ZM11.1098 42.186L11.0874 42.1486L9.36997 43.1735L9.39232 43.2109L11.1098 42.186ZM11.1132 42.1916L11.1064 42.1804L9.39568 43.2165L9.40245 43.2277L11.1132 42.1916ZM11.114 42.193L11.1118 42.1893L9.40385 43.23L9.40609 43.2336L11.114 42.193ZM9.98633 41.7053C9.85668 41.7877 9.79644 41.8253 9.77039 41.8412C9.75588 41.8501 9.75844 41.8484 9.76835 41.8427C9.77034 41.8416 9.7913 41.8295 9.81979 41.8155C9.82841 41.8113 9.87263 41.7893 9.93209 41.7686C9.95366 41.7611 10.0375 41.7319 10.1497 41.7194C10.2032 41.7135 10.327 41.7034 10.4794 41.7377C10.5606 41.7559 10.6697 41.7911 10.7847 41.862C10.843 41.8979 10.9027 41.943 10.9597 41.9989C10.988 42.0276 11.0283 42.0731 11.0413 42.089C11.0786 42.1388 11.1127 42.1908 10.2601 42.7133C9.40741 43.2358 9.44155 43.2878 9.47885 43.3376C9.49182 43.3535 9.53215 43.399 9.56037 43.4278C9.61742 43.4836 9.67707 43.5287 9.73541 43.5646C9.85042 43.6355 9.95954 43.6707 10.0407 43.689C10.1931 43.7232 10.3169 43.7132 10.3704 43.7072C10.4827 43.6947 10.5665 43.6655 10.5882 43.658C10.6478 43.6373 10.6923 43.6152 10.7014 43.6107C10.731 43.5961 10.7541 43.5829 10.7603 43.5794C10.7786 43.5689 10.7978 43.5573 10.8163 43.546C10.8562 43.5215 10.9272 43.4771 11.0588 43.3935L9.98633 41.7053ZM10.7897 43.5615L11.0522 43.3976L9.99296 41.7012L9.73043 41.8651L10.7897 43.5615ZM11.1193 42.1999C11.1203 42.201 11.1195 42.2002 11.1175 42.1977C11.1156 42.1952 11.1137 42.1925 11.1123 42.1901L9.40782 43.2365C9.48779 43.3667 9.58371 43.4906 9.69167 43.6006L11.1193 42.1999ZM9.40639 49.5138C9.99167 47.4878 10.6439 45.3541 11.3545 43.2156L9.4565 42.5849C8.73609 44.753 8.0761 46.9125 7.48496 48.9587L9.40639 49.5138ZM6.90575 58.9933C7.491 56.5557 8.34227 53.1973 9.40639 49.5138L7.48496 48.9587C6.41031 52.6787 5.55134 56.0677 4.96102 58.5264L6.90575 58.9933ZM6.23401 61.8846C6.38699 61.2007 6.61312 60.2121 6.90575 58.9933L4.96102 58.5264C4.6657 59.7564 4.43722 60.7551 4.28223 61.4481L6.23401 61.8846ZM6.06022 62.6728C6.09931 62.4924 6.15752 62.2266 6.23401 61.8846L4.28224 61.4481C4.20473 61.7946 4.14558 62.0647 4.10561 62.2491L6.06022 62.6728ZM6.01568 62.8797L6.06052 62.6714L4.10531 62.2505L4.06048 62.4588L6.01568 62.8797ZM6.00471 62.9312L6.01617 62.8774L4.05999 62.461L4.04854 62.5148L6.00471 62.9312ZM6.23435 61.983C5.73525 61.8741 5.48685 61.8195 5.36359 61.7923C5.30164 61.7786 5.27282 61.7721 5.26022 61.7692C5.25329 61.7676 5.25407 61.7678 5.25806 61.7687C5.25879 61.7689 5.26763 61.771 5.27917 61.7741C5.28246 61.775 5.30083 61.7798 5.32393 61.7871C5.33086 61.7893 5.36656 61.8004 5.41043 61.8188C5.42524 61.8251 5.48951 61.8518 5.56402 61.8997C5.59611 61.9204 5.68747 61.9807 5.7784 62.0855C5.84005 62.1643 5.92538 62.31 5.95293 62.3732C6.01938 62.6569 6.00124 62.9477 5.0229 62.7407C4.04455 62.5337 4.02641 62.8245 4.09286 63.1082C4.12041 63.1714 4.20574 63.3171 4.26739 63.3958C4.35832 63.5007 4.44968 63.561 4.48177 63.5816C4.55628 63.6296 4.62056 63.6563 4.63537 63.6625C4.67925 63.681 4.71496 63.6921 4.72192 63.6943C4.74508 63.7016 4.76357 63.7065 4.76711 63.7074C4.77913 63.7106 4.78893 63.7129 4.7916 63.7136C4.79948 63.7155 4.80804 63.7174 4.81668 63.7194C4.83523 63.7236 4.86874 63.7311 4.93154 63.745C5.05778 63.773 5.30852 63.8281 5.80804 63.937L6.23435 61.983ZM4.80831 63.7174L5.8066 63.9367L6.23578 61.9833L5.23749 61.764L4.80831 63.7174ZM6.02036 62.9997C6.01833 62.9992 6.01783 62.9989 6.01695 62.9983C6.01541 62.9972 6.01201 62.9943 6.00842 62.9886C6.00111 62.9771 5.99799 62.9631 6.00146 62.9466L4.04434 62.5347C3.81654 63.617 4.48909 64.7127 5.59405 64.9537L6.02036 62.9997ZM6.04124 62.9719C6.03928 62.9813 6.03642 62.9864 6.0343 62.9895C6.03179 62.9932 6.02879 62.996 6.02587 62.9979C6.02297 62.9998 6.02129 63.0001 6.02152 63.0001C6.02251 62.9999 6.0228 63.0002 6.02036 62.9997L5.59405 64.9537C6.70316 65.1957 7.76907 64.4733 7.99836 63.3838L6.04124 62.9719ZM6.05592 62.9028L6.04512 62.9536L8.00131 63.3699L8.01211 63.3191L6.05592 62.9028ZM6.09989 62.6986L6.05642 62.9005L8.01162 63.3214L8.05509 63.1195L6.09989 62.6986ZM6.27381 61.9098C6.19737 62.2515 6.13922 62.5171 6.10018 62.6972L8.0548 63.1209C8.09295 62.9448 8.15016 62.6836 8.22558 62.3464L6.27381 61.9098ZM6.94515 59.0202C6.65268 60.2383 6.42668 61.2264 6.27381 61.9098L8.22558 62.3464C8.37644 61.6719 8.6001 60.6941 8.88989 59.4871L6.94515 59.0202ZM9.44452 49.5455C8.38098 53.227 7.53012 56.5838 6.94515 59.0202L8.88989 59.4871C9.46977 57.0719 10.3129 53.7456 11.366 50.1006L9.44452 49.5455ZM17.9493 28.33C14.5491 33.5226 11.5721 42.1809 9.44452 49.5455L11.366 50.1006C13.4958 42.7279 16.4056 34.3383 19.6225 29.4256L17.9493 28.33ZM29.0044 17.5082C25.6013 19.6736 21.3497 23.137 17.9493 28.33L19.6225 29.4256C22.8283 24.5298 26.846 21.2521 30.0781 19.1955L29.0044 17.5082ZM33.2579 15.1805C32.1945 15.6677 30.7057 16.4256 29.0044 17.5082L30.0781 19.1955C31.6912 18.169 33.0978 17.4538 34.0909 16.9988L33.2579 15.1805ZM34.5073 14.646C34.2149 14.761 33.7896 14.9369 33.2579 15.1805L34.0909 16.9988C34.587 16.7715 34.9786 16.6098 35.2394 16.5072L34.5073 14.646ZM34.8429 14.5183C34.7665 14.5462 34.6535 14.5885 34.5073 14.646L35.2394 16.5072C35.3698 16.4559 35.4674 16.4194 35.5289 16.397L34.8429 14.5183ZM34.9235 14.4893L34.8477 14.5165L35.5241 16.3987L35.5998 16.3715L34.9235 14.4893ZM34.9486 14.4805L34.9319 14.4863L35.5913 16.3745L35.608 16.3687L34.9486 14.4805ZM34.9759 14.4198C34.9802 14.4329 34.9796 14.4463 34.9728 14.4603C34.9694 14.4672 34.9655 14.4716 34.9629 14.474C34.9608 14.4759 34.959 14.4769 34.9562 14.4779L35.6004 16.3713C36.6625 16.0099 37.2224 14.8536 36.8767 13.7975L34.9759 14.4198ZM34.9558 14.398C34.9586 14.3971 34.9585 14.3975 34.9573 14.3974C34.9568 14.3974 34.958 14.3974 34.9605 14.3986C34.963 14.3999 34.9657 14.4019 34.9681 14.4046C34.97 14.4069 34.9731 14.4111 34.9759 14.4198L36.8767 13.7975C36.5294 12.737 35.3881 12.1393 34.3131 12.5041L34.9558 14.398ZM35.8808 14.0439L35.5848 13.1399L33.6841 13.7622L33.9801 14.6662L35.8808 14.0439ZM34.6345 13.451C34.2826 12.515 33.7385 13.0069 33.6764 13.7376C33.6773 13.7407 33.6792 13.7469 33.6802 13.75C33.6812 13.7532 33.682 13.7557 33.6821 13.7561C33.6827 13.7577 33.6831 13.759 33.6831 13.7592C33.6834 13.76 33.6836 13.7606 33.6836 13.7608C33.6838 13.7612 33.6839 13.7616 33.684 13.7617C33.6841 13.7621 33.6843 13.7627 33.6846 13.7636C33.6852 13.7655 33.6864 13.7691 33.6887 13.7762C33.6933 13.7904 33.7026 13.8187 33.7211 13.8752C33.7581 13.9882 33.8321 14.2142 33.9801 14.6663L35.8808 14.0439C35.7328 13.5919 35.6588 13.3659 35.6218 13.2529C35.6033 13.1964 35.5941 13.1682 35.5895 13.1541C35.5872 13.1471 35.5861 13.1436 35.5855 13.142C35.5854 13.1416 35.5853 13.1413 35.5852 13.1411C35.5852 13.1409 35.5851 13.1408 35.5851 13.1408C35.5851 13.1408 35.5851 13.1409 35.5852 13.1409C35.5852 13.141 35.5852 13.1412 35.5853 13.1414C35.5854 13.1415 35.5856 13.1421 35.5858 13.1429C35.5859 13.1431 35.5863 13.1444 35.5868 13.146C35.5869 13.1464 35.5877 13.1489 35.5887 13.1521C35.5897 13.1552 35.5916 13.1614 35.5925 13.1644C35.5304 13.8952 34.9864 14.3871 34.6345 13.451ZM34.9528 14.399L34.9573 14.3975L34.3116 12.5046L34.3071 12.5061L34.9528 14.399ZM34.9472 14.401L34.9554 14.3981L34.3045 12.507L34.2962 12.5099L34.9472 14.401ZM34.9238 14.4092L34.9513 14.3996L34.2921 12.5113L34.2646 12.5209L34.9238 14.4092ZM34.8393 14.4395C34.8775 14.4256 34.9067 14.4152 34.9262 14.4083L34.2622 12.5218C34.2354 12.5312 34.1989 12.5442 34.1532 12.5609L34.8393 14.4395ZM34.5033 14.5674C34.6496 14.5098 34.7627 14.4675 34.8393 14.4395L34.1532 12.5609C34.0618 12.5943 33.9333 12.6424 33.7712 12.7062L34.5033 14.5674ZM33.2527 15.1024C33.7848 14.8586 34.2106 14.6825 34.5033 14.5674L33.7712 12.7062C33.4469 12.8337 32.9874 13.024 32.4197 13.2842L33.2527 15.1024ZM28.9955 17.4321C30.6985 16.3485 32.1885 15.59 33.2527 15.1024L32.4197 13.2842C31.2851 13.8039 29.713 14.605 27.9218 15.7447L28.9955 17.4321ZM17.923 28.2721C21.331 23.0674 25.5901 19.599 28.9955 17.4321L27.9218 15.7447C24.3454 18.0205 19.8525 21.6745 16.2498 27.1765L17.923 28.2721ZM12.2484 40.6151C13.9247 35.9058 15.8504 31.4373 17.923 28.2721L16.2498 27.1765C14.045 30.5435 12.0562 35.1912 10.3642 39.9444L12.2484 40.6151ZM10.0011 39.7877C10.1395 40.1246 10.2738 40.4295 10.3986 40.6995L12.2139 39.86C12.1005 39.6148 11.978 39.3365 11.8512 39.0278L10.0011 39.7877ZM8.38241 33.7091C8.70077 36.1941 9.39065 38.3014 10.0011 39.7877L11.8512 39.0278C11.2895 37.6604 10.6571 35.7254 10.3662 33.455L8.38241 33.7091ZM14.5406 16.2049C8.59255 22.2606 7.74613 28.7426 8.38241 33.7091L10.3662 33.455C9.79204 28.9734 10.529 23.1432 15.9674 17.6064L14.5406 16.2049ZM37.7241 5.59579C29.8505 7.11237 20.4928 10.1449 14.5406 16.2049L15.9674 17.6064C21.4774 11.9967 30.3259 9.05755 38.1024 7.5597L37.7241 5.59579ZM47.8034 4.26907C45.2237 4.45861 41.66 4.83767 37.7241 5.59579L38.1024 7.5597C41.9435 6.81984 45.427 6.44906 47.95 6.26369L47.8034 4.26907ZM50.8585 4.10323C50.1371 4.12692 49.0933 4.1743 47.8034 4.26907L47.95 6.26369C49.21 6.17112 50.2267 6.12506 50.9241 6.10215L50.8585 4.10323ZM51.6891 4.0825C51.4992 4.08546 51.2192 4.09138 50.8585 4.10323L50.9241 6.10215C51.2727 6.0907 51.5413 6.08505 51.7203 6.08226L51.6891 4.0825ZM51.9051 4.07991C51.8565 4.08028 51.7841 4.08102 51.6891 4.0825L51.7203 6.08226C51.8098 6.08086 51.8769 6.08018 51.9204 6.07985L51.9051 4.07991ZM51.958 4.07959L51.9068 4.0799L51.9186 6.07986L51.9698 6.07956L51.958 4.07959ZM51.9763 4.07954L51.9613 4.07958L51.9666 6.07957L51.9815 6.07954L51.9763 4.07954ZM52.21 9.83365C52.5305 8.77314 51.9514 7.62742 50.876 7.29051L50.2781 9.19906C50.2808 9.19992 50.282 9.2007 50.2834 9.2019C50.2854 9.2036 50.2888 9.20725 50.292 9.21343C50.2985 9.22591 50.3002 9.23974 50.2955 9.25505L52.21 9.83365ZM49.9777 10.1928L50.9538 10.4986L51.5517 8.59008L50.5756 8.2843L49.9777 10.1928ZM51.2528 9.54435C50.8162 10.444 50.3232 9.17564 51.5516 8.59003C51.5516 8.59004 51.5516 8.59005 51.5516 8.59006C51.5517 8.59006 51.5517 8.59007 51.5517 8.59007C51.5517 8.59007 51.5517 8.59007 51.5517 8.59007C51.5517 8.59007 51.5517 8.59007 51.5517 8.59007C51.5517 8.59008 51.5517 8.59007 51.5517 8.59007C51.5517 8.59006 51.5516 8.59004 51.5515 8.59001C51.5512 8.58993 51.5508 8.58978 51.5498 8.58948C51.5479 8.58889 51.5441 8.58769 51.5365 8.5853C51.5212 8.58053 51.4907 8.57097 51.4297 8.55186C51.3077 8.51364 51.0637 8.43719 50.5756 8.2843L49.9777 10.1928C50.4658 10.3457 50.7098 10.4222 50.8318 10.4604C50.8928 10.4795 50.9233 10.4891 50.9386 10.4938C50.9462 10.4962 50.95 10.4974 50.9519 10.498C50.9529 10.4983 50.9534 10.4985 50.9536 10.4986C50.9537 10.4986 50.9538 10.4986 50.9538 10.4986C50.9538 10.4986 50.9539 10.4986 50.9539 10.4986C50.9539 10.4986 50.9539 10.4986 50.9539 10.4986C50.9539 10.4986 50.9539 10.4986 50.9539 10.4987C50.9539 10.4987 50.954 10.4987 50.954 10.4987C52.1823 9.91307 51.6894 8.64471 51.2528 9.54435ZM52.2085 9.83872L52.21 9.83358L50.2955 9.25513L50.294 9.26027L52.2085 9.83872ZM52.204 9.85352L52.208 9.84023L50.2944 9.25876L50.2904 9.27206L52.204 9.85352ZM52.188 9.90583L52.2035 9.85521L50.2909 9.27037L50.2754 9.32099L52.188 9.90583ZM52.1269 10.1033L52.187 9.90902L50.2764 9.3178L50.2163 9.51209L52.1269 10.1033ZM51.8898 10.8508C51.9933 10.5294 52.0725 10.2778 52.1263 10.1052L50.2169 9.51021C50.1649 9.67704 50.0875 9.92259 49.9861 10.2375L51.8898 10.8508ZM50.9873 13.5417C51.3787 12.4152 51.6828 11.4933 51.8898 10.8508L49.9861 10.2375C49.7832 10.8674 49.4839 11.7749 49.0981 12.8855L50.9873 13.5417ZM47.6658 22.1743C49.0718 18.8709 50.2054 15.7927 50.9873 13.5418L49.0981 12.8855C48.3265 15.1066 47.2091 18.1404 45.8255 21.391L47.6658 22.1743ZM42.6748 32.2206C44.5729 29.028 46.2621 25.4723 47.6658 22.1743L45.8255 21.391C44.442 24.6415 42.7922 28.1095 40.9557 31.1986L42.6748 32.2206ZM36.227 40.286C38.6275 38.3308 40.7941 35.3842 42.6748 32.2206L40.9557 31.1986C39.1193 34.2875 37.0954 36.9992 34.964 38.7353L36.227 40.286ZM23.2553 45.0708C26.8279 45.0708 31.5539 44.0922 36.227 40.286L34.964 38.7353C30.7044 42.2046 26.4466 43.0708 23.2553 43.0708V45.0708ZM18.9447 44.5854C19.9963 44.8302 21.4802 45.0708 23.2553 45.0708V43.0708C21.6593 43.0708 20.3292 42.8542 19.398 42.6375L18.9447 44.5854ZM17.6975 44.2411C17.9965 44.3385 18.418 44.4629 18.9447 44.5854L19.398 42.6375C18.9324 42.5291 18.5665 42.4208 18.317 42.3395L17.6975 44.2411ZM17.3416 44.1183C17.4285 44.1502 17.5478 44.1923 17.6975 44.2411L18.317 42.3395C18.1922 42.2988 18.0965 42.2649 18.032 42.2412L17.3416 44.1183ZM17.2357 44.0783C17.2628 44.0888 17.2981 44.1023 17.3415 44.1182L18.0321 42.2412C17.9997 42.2293 17.9753 42.22 17.9589 42.2137L17.2357 44.0783ZM17.2056 44.0665L17.232 44.0769L17.9625 42.2151L17.9361 42.2047L17.2056 44.0665ZM17.1909 44.0607L17.1995 44.0641L17.9422 42.2071L17.9337 42.2037L17.1909 44.0607ZM17.1856 44.0585L17.1887 44.0598L17.9359 42.2046L17.9328 42.2033L17.1856 44.0585ZM17.0054 41.7989C16.8157 42.282 16.7207 42.5254 16.673 42.6486C16.6493 42.7097 16.6363 42.7437 16.6288 42.7635C16.6255 42.7724 16.6213 42.7836 16.6173 42.7949C16.616 42.7985 16.6106 42.8137 16.6046 42.8329C16.6028 42.8387 16.5936 42.8681 16.5847 42.9063C16.5819 42.9187 16.5685 42.9757 16.5625 43.0501C16.5601 43.0797 16.5525 43.1779 16.5738 43.3013C16.5846 43.3637 16.6109 43.4828 16.6844 43.6155C16.7328 43.6941 16.8244 43.8093 16.8628 43.8486C17.0128 43.9684 17.1828 44.0574 17.5592 43.1309C17.9355 42.2045 18.1056 42.2934 18.2556 42.4133C18.294 42.4526 18.3855 42.5678 18.434 42.6464C18.5075 42.7791 18.5338 42.8982 18.5446 42.9606C18.5659 43.084 18.5583 43.1822 18.5559 43.2118C18.5499 43.2861 18.5365 43.3432 18.5337 43.3555C18.5249 43.3937 18.5156 43.423 18.5139 43.4285C18.5081 43.4472 18.503 43.4614 18.5024 43.4632C18.4997 43.4706 18.4983 43.4742 18.5007 43.4679C18.5046 43.4574 18.5148 43.4308 18.5379 43.371C18.5839 43.2524 18.6774 43.0126 18.8669 42.5303L17.0054 41.7989ZM18.4908 43.4944L18.8678 42.528L17.0046 41.8012L16.6276 42.7675L18.4908 43.4944ZM16.0572 41.4128C15.6508 42.4472 16.1431 43.634 17.182 44.0571L17.9364 42.2048C17.9333 42.2035 17.9313 42.2022 17.9291 42.2C17.9264 42.1973 17.9227 42.1924 17.9197 42.1851C17.9134 42.1704 17.9137 42.1567 17.9187 42.1441L16.0572 41.4128ZM18.6885 40.2714C17.6383 39.8464 16.4653 40.3741 16.0572 41.4128L17.9187 42.1441C17.9219 42.1359 17.9251 42.1322 17.9268 42.1304C17.9291 42.1281 17.9315 42.1264 17.9338 42.1255C17.936 42.1245 17.9371 42.1245 17.9366 42.1245C17.9353 42.1246 17.9353 42.1241 17.9382 42.1253L18.6885 40.2714ZM18.6892 40.2716L18.6781 40.2672L17.9486 42.1294L17.9597 42.1338L18.6892 40.2716ZM18.7332 40.2881L18.6768 40.2668L17.972 42.1385L18.0285 42.1598L18.7332 40.2881ZM18.9395 40.3589C18.8398 40.3264 18.768 40.3008 18.726 40.2854L18.0357 42.1625C18.0999 42.1861 18.1954 42.2199 18.32 42.2605L18.9395 40.3589ZM19.8532 40.6102C19.4491 40.5162 19.1391 40.4239 18.9395 40.3589L18.32 42.2605C18.5691 42.3417 18.9346 42.4499 19.3998 42.5582L19.8532 40.6102ZM23.2553 40.9913C21.8389 40.9913 20.6633 40.7988 19.8532 40.6102L19.3999 42.5582C20.3304 42.7747 21.6599 42.9913 23.2553 42.9913V40.9913ZM33.688 37.1114C29.8503 40.2371 26.0656 40.9913 23.2553 40.9913V42.9913C26.4472 42.9913 30.7001 42.1244 34.951 38.6621L33.688 37.1114ZM39.2083 30.1218C37.4187 33.1319 35.5427 35.6007 33.688 37.1114L34.951 38.6621C37.0749 36.9322 39.0936 34.2284 40.9274 31.1438L39.2083 30.1218ZM43.9514 20.5642C42.5891 23.7647 40.9805 27.1408 39.2083 30.1218L40.9274 31.1438C42.7612 28.0593 44.4092 24.5955 45.7916 21.3474L43.9514 20.5642ZM47.1724 12.1921C46.4117 14.3819 45.3113 17.369 43.9514 20.5642L45.7916 21.3474C47.174 18.0995 48.2906 15.0679 49.0617 12.8484L47.1724 12.1921ZM48.0452 9.58949C47.8466 10.2061 47.5523 11.0983 47.1724 12.1921L49.0617 12.8484C49.4471 11.7386 49.7462 10.8319 49.9489 10.2027L48.0452 9.58949ZM48.27 8.88132C48.2198 9.04213 48.1445 9.28128 48.0452 9.5895L49.9489 10.2027C50.0502 9.88811 50.1275 9.64289 50.1794 9.47635L48.27 8.88132ZM48.3267 8.69782L48.2694 8.88324L50.18 9.47443L50.2374 9.28901L48.3267 8.69782ZM48.34 8.65457L48.3258 8.70092L50.2383 9.2859L50.2525 9.23956L48.34 8.65457ZM50.876 7.29051C49.7919 6.95092 48.6656 7.57702 48.3432 8.64401L50.2576 9.2226C50.2603 9.21378 50.2634 9.20923 50.2655 9.20671C50.268 9.20368 50.2709 9.20144 50.2735 9.2C50.2762 9.19856 50.2775 9.1985 50.2771 9.19855C50.2758 9.19868 50.2755 9.19826 50.2781 9.19906L50.876 7.29051ZM6.00127 62.9475L6.005 62.9299L4.04825 62.5162L4.04452 62.5338L6.00127 62.9475ZM6.04487 62.9548L6.04145 62.9709L7.99815 63.3848L8.00156 63.3687L6.04487 62.9548ZM48.3436 8.64264L48.3394 8.6564L50.253 9.23773L50.2572 9.22397L48.3436 8.64264Z" fill="#006A4E" mask="url(#path-1-outside-1_1941_3622)"/>
</g>
<defs>
<clipPath id="clip0_1941_3622">
<rect width="64" height="64" fill="white"/>
</clipPath>
</defs>
</svg>
