<svg width="64" height="64" viewBox="0 0 64 64" fill="none" xmlns="http://www.w3.org/2000/svg">
<path d="M58.3067 17.96L55.64 16.4933L31.64 3.16H31.3467C31.1832 3.09088 31.0135 3.03731 30.84 3H30.3333H29.8533C29.6711 3.03733 29.4927 3.09088 29.32 3.16H29.0267L5.02667 16.4933C4.61627 16.7259 4.27492 17.0632 4.03743 17.4708C3.79993 17.8783 3.6748 18.3416 3.6748 18.8133C3.6748 19.2851 3.79993 19.7483 4.03743 20.1559C4.27492 20.5635 4.61627 20.9008 5.02667 21.1333L11.6667 24.8133V37.4533C11.6667 39.5751 12.5095 41.6099 14.0098 43.1102C15.5101 44.6105 17.5449 45.4533 19.6667 45.4533H41C43.1217 45.4533 45.1566 44.6105 46.6569 43.1102C48.1571 41.6099 49 39.5751 49 37.4533V24.8133L54.3333 21.8267V29.4533C54.3333 30.1606 54.6143 30.8389 55.1144 31.339C55.6145 31.839 56.2928 32.12 57 32.12C57.7072 32.12 58.3855 31.839 58.8856 31.339C59.3857 30.8389 59.6667 30.1606 59.6667 29.4533V20.28C59.6659 19.8075 59.5395 19.3437 59.3005 18.936C59.0616 18.5284 58.7186 18.1915 58.3067 17.96ZM43.6667 37.4533C43.6667 38.1606 43.3857 38.8389 42.8856 39.339C42.3855 39.8391 41.7072 40.12 41 40.12H19.6667C18.9594 40.12 18.2811 39.8391 17.781 39.339C17.281 38.8389 17 38.1606 17 37.4533V27.7733L29.0267 34.44L29.4267 34.6H29.6667C29.888 34.6279 30.112 34.6279 30.3333 34.6C30.5547 34.6279 30.7787 34.6279 31 34.6H31.24C31.3816 34.5702 31.5169 34.516 31.64 34.44L43.6667 27.7733V37.4533ZM30.3333 29.08L11.8267 18.7867L30.3333 8.49333L48.84 18.7867L30.3333 29.08Z" fill="#006A4E"/>
<path fill-rule="evenodd" clip-rule="evenodd" d="M14 52C14 50.8954 14.8954 50 16 50H45C46.1046 50 47 50.8954 47 52C47 53.1046 46.1046 54 45 54H16C14.8954 54 14 53.1046 14 52Z" fill="#006A4E"/>
<path fill-rule="evenodd" clip-rule="evenodd" d="M14 59C14 57.8954 14.8954 57 16 57H45C46.1046 57 47 57.8954 47 59C47 60.1046 46.1046 61 45 61H16C14.8954 61 14 60.1046 14 59Z" fill="#006A4E"/>
</svg>
