<svg width="64" height="64" viewBox="0 0 64 64" fill="none" xmlns="http://www.w3.org/2000/svg">
<path d="M58.6667 42.6666H52.8534C53.1639 41.8115 53.3262 40.9096 53.3334 39.9999V26.6666C53.3334 24.5449 52.4906 22.51 50.9903 21.0097C49.49 19.5094 47.4551 18.6666 45.3334 18.6666H29.3334C27.2117 18.6666 25.1768 19.5094 23.6766 21.0097C22.1763 22.51 21.3334 24.5449 21.3334 26.6666V39.9999C21.3406 40.9096 21.503 41.8115 21.8134 42.6666H18.6667C17.9595 42.6666 17.2812 42.3856 16.7811 41.8855C16.281 41.3854 16.0001 40.7072 16.0001 39.9999V13.3333C16.0001 11.2115 15.1572 9.17669 13.6569 7.6764C12.1566 6.17611 10.1218 5.33325 8.00008 5.33325H5.33341C4.62617 5.33325 3.94789 5.6142 3.4478 6.1143C2.9477 6.6144 2.66675 7.29267 2.66675 7.99992C2.66675 8.70716 2.9477 9.38544 3.4478 9.88554C3.94789 10.3856 4.62617 10.6666 5.33341 10.6666H8.00008C8.70732 10.6666 9.3856 10.9475 9.8857 11.4476C10.3858 11.9477 10.6667 12.626 10.6667 13.3333V39.9999C10.6766 41.7516 11.2611 43.4517 12.3305 44.8391C13.4 46.2265 14.8952 47.2245 16.5867 47.6799C16.0956 48.8814 15.9042 50.1843 16.0291 51.4762C16.1539 52.7682 16.5912 54.0103 17.3032 55.0955C18.0152 56.1808 18.9806 57.0764 20.1161 57.7053C21.2515 58.3341 22.5229 58.6772 23.8206 58.7051C25.1182 58.7329 26.4032 58.4445 27.5645 57.8649C28.7259 57.2853 29.7287 56.4318 30.4866 55.378C31.2445 54.3243 31.7346 53.102 31.9146 51.8166C32.0947 50.5312 31.9593 49.2213 31.5201 47.9999H40.4801C40.0415 49.2083 39.9006 50.5045 40.0692 51.7789C40.2379 53.0532 40.7111 54.2682 41.4489 55.3209C42.1867 56.3735 43.1673 57.2329 44.3077 57.8262C45.4481 58.4195 46.7146 58.7293 48.0001 58.7293C49.2856 58.7293 50.5521 58.4195 51.6925 57.8262C52.8328 57.2329 53.8134 56.3735 54.5512 55.3209C55.289 54.2682 55.7623 53.0532 55.9309 51.7789C56.0996 50.5045 55.9586 49.2083 55.5201 47.9999H58.6667C59.374 47.9999 60.0523 47.719 60.5524 47.2189C61.0525 46.7188 61.3334 46.0405 61.3334 45.3333C61.3334 44.626 61.0525 43.9477 60.5524 43.4476C60.0523 42.9475 59.374 42.6666 58.6667 42.6666ZM24.0001 53.3333C23.4727 53.3333 22.9571 53.1769 22.5186 52.8838C22.08 52.5908 21.7382 52.1743 21.5364 51.6871C21.3346 51.1998 21.2818 50.6636 21.3847 50.1463C21.4875 49.6291 21.7415 49.1539 22.1145 48.781C22.4874 48.408 22.9626 48.1541 23.4798 48.0512C23.9971 47.9483 24.5333 48.0011 25.0206 48.2029C25.5078 48.4047 25.9243 48.7465 26.2173 49.1851C26.5103 49.6236 26.6667 50.1392 26.6667 50.6666C26.6667 51.3738 26.3858 52.0521 25.8857 52.5522C25.3856 53.0523 24.7073 53.3333 24.0001 53.3333ZM29.3334 42.6666C28.6262 42.6666 27.9479 42.3856 27.4478 41.8855C26.9477 41.3854 26.6667 40.7072 26.6667 39.9999V26.6666C26.6667 25.9593 26.9477 25.2811 27.4478 24.781C27.9479 24.2809 28.6262 23.9999 29.3334 23.9999H45.3334C46.0407 23.9999 46.7189 24.2809 47.219 24.781C47.7191 25.2811 48.0001 25.9593 48.0001 26.6666V39.9999C48.0001 40.7072 47.7191 41.3854 47.219 41.8855C46.7189 42.3856 46.0407 42.6666 45.3334 42.6666H29.3334ZM48.0001 53.3333C47.4727 53.3333 46.9571 53.1769 46.5186 52.8838C46.08 52.5908 45.7382 52.1743 45.5364 51.6871C45.3346 51.1998 45.2818 50.6636 45.3847 50.1463C45.4875 49.6291 45.7415 49.1539 46.1145 48.781C46.4874 48.408 46.9626 48.1541 47.4798 48.0512C47.9971 47.9483 48.5333 48.0011 49.0206 48.2029C49.5078 48.4047 49.9243 48.7465 50.2173 49.1851C50.5103 49.6236 50.6667 50.1392 50.6667 50.6666C50.6667 51.3738 50.3858 52.0521 49.8857 52.5522C49.3856 53.0523 48.7073 53.3333 48.0001 53.3333Z" fill="#006A4E"/>
</svg>
