<svg width="64" height="64" viewBox="0 0 64 64" fill="none" xmlns="http://www.w3.org/2000/svg">
<path d="M2.66675 33.3334V46.6667C2.66675 47.374 2.9477 48.0523 3.4478 48.5524C3.94789 49.0525 4.62617 49.3334 5.33341 49.3334H8.00008C8.00008 51.4551 8.84294 53.49 10.3432 54.9903C11.8435 56.4906 13.8783 57.3334 16.0001 57.3334C18.1218 57.3334 20.1566 56.4906 21.6569 54.9903C23.1572 53.49 24.0001 51.4551 24.0001 49.3334H40.0001C40.0001 51.4551 40.8429 53.49 42.3432 54.9903C43.8435 56.4906 45.8783 57.3334 48.0001 57.3334C50.1218 57.3334 52.1566 56.4906 53.6569 54.9903C55.1572 53.49 56.0001 51.4551 56.0001 49.3334H58.6667C59.374 49.3334 60.0523 49.0525 60.5524 48.5524C61.0525 48.0523 61.3334 47.374 61.3334 46.6667V14.6667C61.3334 12.545 60.4906 10.5102 58.9903 9.00989C57.49 7.5096 55.4551 6.66675 53.3334 6.66675H29.3334C27.2117 6.66675 25.1768 7.5096 23.6766 9.00989C22.1763 10.5102 21.3334 12.545 21.3334 14.6667V20.0001H16.0001C14.7581 20.0001 13.5332 20.2892 12.4224 20.8447C11.3115 21.4001 10.3453 22.2065 9.60008 23.2001L3.20008 31.7334C3.12209 31.8493 3.05935 31.9748 3.01341 32.1067L2.85341 32.4001C2.73572 32.6975 2.67249 33.0136 2.66675 33.3334ZM45.3334 49.3334C45.3334 48.806 45.4898 48.2904 45.7828 47.8519C46.0758 47.4134 46.4923 47.0716 46.9796 46.8697C47.4669 46.6679 48.003 46.6151 48.5203 46.718C49.0376 46.8209 49.5128 47.0749 49.8857 47.4478C50.2586 47.8207 50.5126 48.2959 50.6155 48.8132C50.7184 49.3305 50.6656 49.8666 50.4638 50.3539C50.2619 50.8412 49.9201 51.2576 49.4816 51.5507C49.0431 51.8437 48.5275 52.0001 48.0001 52.0001C47.2928 52.0001 46.6146 51.7191 46.1145 51.219C45.6144 50.7189 45.3334 50.0407 45.3334 49.3334ZM26.6667 14.6667C26.6667 13.9595 26.9477 13.2812 27.4478 12.7811C27.9479 12.281 28.6262 12.0001 29.3334 12.0001H53.3334C54.0407 12.0001 54.7189 12.281 55.219 12.7811C55.7191 13.2812 56.0001 13.9595 56.0001 14.6667V44.0001H53.9201C53.1703 43.1751 52.2563 42.516 51.2368 42.065C50.2174 41.6139 49.1149 41.3809 48.0001 41.3809C46.8853 41.3809 45.7828 41.6139 44.7633 42.065C43.7439 42.516 42.8299 43.1751 42.0801 44.0001H26.6667V14.6667ZM21.3334 30.6667H10.6667L13.8667 26.4001C14.1151 26.0689 14.4372 25.8001 14.8075 25.6149C15.1778 25.4298 15.5861 25.3334 16.0001 25.3334H21.3334V30.6667ZM13.3334 49.3334C13.3334 48.806 13.4898 48.2904 13.7828 47.8519C14.0758 47.4134 14.4923 47.0716 14.9796 46.8697C15.4669 46.6679 16.003 46.6151 16.5203 46.718C17.0376 46.8209 17.5128 47.0749 17.8857 47.4478C18.2586 47.8207 18.5126 48.2959 18.6155 48.8132C18.7184 49.3305 18.6656 49.8666 18.4638 50.3539C18.2619 50.8412 17.9201 51.2576 17.4816 51.5507C17.0431 51.8437 16.5275 52.0001 16.0001 52.0001C15.2928 52.0001 14.6146 51.7191 14.1145 51.219C13.6144 50.7189 13.3334 50.0407 13.3334 49.3334ZM8.00008 36.0001H21.3334V43.4134C19.7596 42.0069 17.6938 41.2793 15.5859 41.3892C13.4781 41.4991 11.4991 42.4375 10.0801 44.0001H8.00008V36.0001Z" fill="#006A4E"/>
</svg>
