<svg width="64" height="64" viewBox="0 0 64 64" fill="none" xmlns="http://www.w3.org/2000/svg">
<path d="M32.0001 34.6666C31.1882 34.6571 30.3929 34.8966 29.7213 35.3527C29.0496 35.8089 28.5338 36.4599 28.2433 37.2181C27.9528 37.9762 27.9016 38.8052 28.0965 39.5934C28.2914 40.3816 28.7231 41.0912 29.3334 41.6266V45.3333C29.3334 46.0405 29.6144 46.7188 30.1145 47.2189C30.6146 47.719 31.2928 47.9999 32.0001 47.9999C32.7073 47.9999 33.3856 47.719 33.8857 47.2189C34.3858 46.7188 34.6667 46.0405 34.6667 45.3333V41.6266C35.2771 41.0912 35.7088 40.3816 35.9037 39.5934C36.0986 38.8052 36.0473 37.9762 35.7568 37.2181C35.4664 36.4599 34.9506 35.8089 34.2789 35.3527C33.6072 34.8966 32.812 34.6571 32.0001 34.6666ZM45.3334 23.9999V18.6666C45.3334 15.1304 43.9287 11.739 41.4282 9.23849C38.9277 6.73801 35.5363 5.33325 32.0001 5.33325C28.4639 5.33325 25.0725 6.73801 22.572 9.23849C20.0715 11.739 18.6667 15.1304 18.6667 18.6666V23.9999C16.545 23.9999 14.5102 24.8428 13.0099 26.3431C11.5096 27.8434 10.6667 29.8782 10.6667 31.9999V50.6666C10.6667 52.7883 11.5096 54.8232 13.0099 56.3234C14.5102 57.8237 16.545 58.6666 18.6667 58.6666H45.3334C47.4551 58.6666 49.49 57.8237 50.9903 56.3234C52.4906 54.8232 53.3334 52.7883 53.3334 50.6666V31.9999C53.3334 29.8782 52.4906 27.8434 50.9903 26.3431C49.49 24.8428 47.4551 23.9999 45.3334 23.9999ZM24.0001 18.6666C24.0001 16.5449 24.8429 14.51 26.3432 13.0097C27.8435 11.5094 29.8783 10.6666 32.0001 10.6666C34.1218 10.6666 36.1566 11.5094 37.6569 13.0097C39.1572 14.51 40.0001 16.5449 40.0001 18.6666V23.9999H24.0001V18.6666ZM48.0001 50.6666C48.0001 51.3738 47.7191 52.0521 47.219 52.5522C46.7189 53.0523 46.0407 53.3333 45.3334 53.3333H18.6667C17.9595 53.3333 17.2812 53.0523 16.7811 52.5522C16.281 52.0521 16.0001 51.3738 16.0001 50.6666V31.9999C16.0001 31.2927 16.281 30.6144 16.7811 30.1143C17.2812 29.6142 17.9595 29.3333 18.6667 29.3333H45.3334C46.0407 29.3333 46.7189 29.6142 47.219 30.1143C47.7191 30.6144 48.0001 31.2927 48.0001 31.9999V50.6666Z" fill="#006A4E"/>
</svg>
