<svg width="64" height="64" viewBox="0 0 64 64" fill="none" xmlns="http://www.w3.org/2000/svg">
<path d="M58.6667 45.3334H5.33341C4.62617 45.3334 3.94789 45.6144 3.4478 46.1145C2.9477 46.6146 2.66675 47.2928 2.66675 48.0001C2.66675 48.7073 2.9477 49.3856 3.4478 49.8857C3.94789 50.3858 4.62617 50.6667 5.33341 50.6667H58.6667C59.374 50.6667 60.0523 50.3858 60.5524 49.8857C61.0525 49.3856 61.3334 48.7073 61.3334 48.0001C61.3334 47.2928 61.0525 46.6146 60.5524 46.1145C60.0523 45.6144 59.374 45.3334 58.6667 45.3334ZM58.6667 56.0001H5.33341C4.62617 56.0001 3.94789 56.281 3.4478 56.7811C2.9477 57.2812 2.66675 57.9595 2.66675 58.6667C2.66675 59.374 2.9477 60.0523 3.4478 60.5524C3.94789 61.0525 4.62617 61.3334 5.33341 61.3334H58.6667C59.374 61.3334 60.0523 61.0525 60.5524 60.5524C61.0525 60.0523 61.3334 59.374 61.3334 58.6667C61.3334 57.9595 61.0525 57.2812 60.5524 56.7811C60.0523 56.281 59.374 56.0001 58.6667 56.0001ZM16.0001 18.6667C15.4727 18.6667 14.9571 18.8231 14.5186 19.1162C14.08 19.4092 13.7382 19.8257 13.5364 20.3129C13.3346 20.8002 13.2818 21.3364 13.3847 21.8537C13.4875 22.3709 13.7415 22.8461 14.1145 23.219C14.4874 23.592 14.9626 23.8459 15.4798 23.9488C15.9971 24.0517 16.5333 23.9989 17.0206 23.7971C17.5078 23.5953 17.9243 23.2535 18.2173 22.8149C18.5103 22.3764 18.6667 21.8608 18.6667 21.3334C18.6667 20.6262 18.3858 19.9479 17.8857 19.4478C17.3856 18.9477 16.7073 18.6667 16.0001 18.6667ZM53.3334 2.66675H10.6667C8.54502 2.66675 6.51018 3.5096 5.00989 5.00989C3.5096 6.51018 2.66675 8.54502 2.66675 10.6667V32.0001C2.66675 34.1218 3.5096 36.1566 5.00989 37.6569C6.51018 39.1572 8.54502 40.0001 10.6667 40.0001H53.3334C55.4551 40.0001 57.49 39.1572 58.9903 37.6569C60.4906 36.1566 61.3334 34.1218 61.3334 32.0001V10.6667C61.3334 8.54502 60.4906 6.51018 58.9903 5.00989C57.49 3.5096 55.4551 2.66675 53.3334 2.66675ZM56.0001 32.0001C56.0001 32.7073 55.7191 33.3856 55.219 33.8857C54.7189 34.3858 54.0407 34.6667 53.3334 34.6667H10.6667C9.9595 34.6667 9.28123 34.3858 8.78113 33.8857C8.28103 33.3856 8.00008 32.7073 8.00008 32.0001V10.6667C8.00008 9.9595 8.28103 9.28123 8.78113 8.78113C9.28123 8.28103 9.9595 8.00008 10.6667 8.00008H53.3334C54.0407 8.00008 54.7189 8.28103 55.219 8.78113C55.7191 9.28123 56.0001 9.9595 56.0001 10.6667V32.0001ZM32.0001 13.3334C30.4178 13.3334 28.8711 13.8026 27.5555 14.6817C26.2399 15.5607 25.2145 16.8101 24.609 18.2719C24.0035 19.7338 23.8451 21.3423 24.1538 22.8941C24.4625 24.446 25.2244 25.8714 26.3432 26.9903C27.462 28.1091 28.8875 28.871 30.4394 29.1797C31.9912 29.4884 33.5997 29.33 35.0615 28.7245C36.5234 28.1189 37.7728 27.0936 38.6518 25.778C39.5309 24.4624 40.0001 22.9157 40.0001 21.3334C40.0001 19.2117 39.1572 17.1769 37.6569 15.6766C36.1566 14.1763 34.1218 13.3334 32.0001 13.3334ZM32.0001 24.0001C31.4727 24.0001 30.9571 23.8437 30.5186 23.5507C30.08 23.2576 29.7382 22.8412 29.5364 22.3539C29.3346 21.8666 29.2818 21.3305 29.3847 20.8132C29.4875 20.2959 29.7415 19.8207 30.1145 19.4478C30.4874 19.0749 30.9626 18.8209 31.4798 18.718C31.9971 18.6151 32.5333 18.6679 33.0206 18.8697C33.5078 19.0716 33.9243 19.4134 34.2173 19.8519C34.5103 20.2904 34.6667 20.806 34.6667 21.3334C34.6667 22.0407 34.3858 22.7189 33.8857 23.219C33.3856 23.7191 32.7073 24.0001 32.0001 24.0001ZM48.0001 18.6667C47.4727 18.6667 46.9571 18.8231 46.5186 19.1162C46.08 19.4092 45.7382 19.8257 45.5364 20.3129C45.3346 20.8002 45.2818 21.3364 45.3847 21.8537C45.4875 22.3709 45.7415 22.8461 46.1145 23.219C46.4874 23.592 46.9626 23.8459 47.4798 23.9488C47.9971 24.0517 48.5333 23.9989 49.0206 23.7971C49.5078 23.5953 49.9243 23.2535 50.2173 22.8149C50.5103 22.3764 50.6667 21.8608 50.6667 21.3334C50.6667 20.6262 50.3858 19.9479 49.8857 19.4478C49.3856 18.9477 48.7073 18.6667 48.0001 18.6667Z" fill="#006A4E"/>
</svg>
