<svg width="64" height="64" viewBox="0 0 64 64" fill="none" xmlns="http://www.w3.org/2000/svg">
<path d="M53.3099 5.33862C52.9596 5.33842 52.6128 5.40726 52.2892 5.5412C51.9655 5.67515 51.6715 5.87156 51.4238 6.11923C51.1762 6.36689 50.9798 6.66094 50.8458 6.98456C50.7119 7.30819 50.643 7.65504 50.6432 8.00529V9.70321C48.3942 12.4918 45.5516 14.7437 42.3225 16.2952C39.0934 17.8467 35.559 18.6586 31.9766 18.672H15.9766C13.8555 18.6743 11.8221 19.5179 10.3223 21.0177C8.82248 22.5175 7.97888 24.5509 7.97656 26.672V32.0053C7.97888 34.1263 8.82248 36.1598 10.3223 37.6596C11.8221 39.1594 13.8555 40.003 15.9766 40.0053H17.2667L10.8594 54.9557C10.6853 55.3612 10.6146 55.8036 10.6537 56.2431C10.6927 56.6827 10.8404 57.1057 11.0833 57.4741C11.3262 57.8425 11.6569 58.1448 12.0455 58.3539C12.4341 58.563 12.8686 58.6723 13.3099 58.672H23.9766C24.4986 58.6723 25.0092 58.5191 25.4448 58.2316C25.8805 57.9441 26.2221 57.5349 26.4271 57.0548L33.6904 40.1066C36.9721 40.3476 40.1696 41.2587 43.0854 42.7838C46.0012 44.3088 48.5734 46.4154 50.6432 48.9735V50.672C50.6432 51.3792 50.9242 52.0575 51.4243 52.5576C51.9244 53.0577 52.6027 53.3386 53.3099 53.3386C54.0171 53.3386 54.6954 53.0577 55.1955 52.5576C55.6956 52.0575 55.9766 51.3792 55.9766 50.672V8.00529C55.9768 7.65504 55.9079 7.30819 55.774 6.98456C55.64 6.66093 55.4436 6.36688 55.196 6.11922C54.9483 5.87156 54.6543 5.67514 54.3306 5.5412C54.007 5.40726 53.6601 5.33842 53.3099 5.33862ZM15.9766 34.672C15.2695 34.6715 14.5915 34.3904 14.0915 33.8904C13.5915 33.3904 13.3104 32.7124 13.3099 32.0053V26.672C13.3104 25.9649 13.5915 25.2869 14.0915 24.7869C14.5915 24.2869 15.2695 24.0058 15.9766 24.0053H18.6432V34.672H15.9766ZM22.2188 53.3386H17.3542L23.0677 40.0053H27.9323L22.2188 53.3386ZM50.6432 41.3968C45.3853 37.0651 38.789 34.6887 31.9766 34.6718H23.9766V24.0052H31.9766C38.7891 23.9877 45.3853 21.6109 50.6432 17.2789V41.3968Z" fill="#006A4E"/>
</svg>
