<svg width="64" height="64" viewBox="0 0 64 64" fill="none" xmlns="http://www.w3.org/2000/svg">
<path d="M32.0001 29.3333C31.4727 29.3333 30.9571 29.4897 30.5186 29.7827C30.08 30.0757 29.7382 30.4922 29.5364 30.9794C29.3346 31.4667 29.2818 32.0029 29.3847 32.5202C29.4876 33.0374 29.7415 33.5126 30.1145 33.8855C30.4874 34.2585 30.9626 34.5125 31.4798 34.6153C31.9971 34.7182 32.5333 34.6654 33.0206 34.4636C33.5078 34.2618 33.9243 33.92 34.2173 33.4814C34.5104 33.0429 34.6668 32.5273 34.6668 31.9999C34.6668 31.2927 34.3858 30.6144 33.8857 30.1143C33.3856 29.6142 32.7073 29.3333 32.0001 29.3333ZM52.3201 31.9999L52.6134 31.6266C56.2134 26.6666 57.0668 22.1066 55.0934 18.6666C53.1201 15.2266 48.6934 13.7066 42.6668 14.3199H42.1868C39.7601 8.79992 36.1601 5.33325 32.0001 5.33325C27.8401 5.33325 24.2401 8.79992 21.8401 14.3999L21.3334 14.3199C15.3068 13.7066 10.8801 15.2266 8.90675 18.6666C6.93342 22.1066 7.78675 26.6666 11.3868 31.6266L11.6801 31.9999L11.3868 32.3733C7.78675 37.3333 6.93342 41.8933 8.90675 45.3333C10.6668 48.2666 14.0534 49.8133 18.6668 49.8133C19.4934 49.8133 20.3468 49.8133 21.3334 49.6799H21.8134C24.2401 55.1999 27.8401 58.6666 32.0001 58.6666C36.1601 58.6666 39.7601 55.1999 42.1601 49.5999H42.6401C43.5468 49.5999 44.4001 49.7333 45.3068 49.7333C50.0268 49.7333 53.4934 48.1866 55.1734 45.2533C57.1468 41.8133 56.2934 37.2533 52.6934 32.2933L52.3201 31.9999ZM13.5201 21.3333C14.1868 20.1599 16.1868 19.5199 18.8534 19.5199H20.1601C19.7422 21.1604 19.4305 22.826 19.2268 24.5066C17.8682 25.5342 16.5767 26.6476 15.3601 27.8399C13.3334 25.1733 12.7468 22.6666 13.5201 21.3333ZM13.5201 42.6666C12.7468 41.3333 13.5201 38.8266 15.3068 36.0799C16.5233 37.2722 17.8149 38.3856 19.1734 39.4133C19.3772 41.1026 19.6889 42.7771 20.1068 44.4266C16.8001 44.6399 14.2934 43.9999 13.5201 42.6666ZM32.0001 10.6666C33.4934 10.6666 35.2801 12.4266 36.8001 15.5466C35.1709 16.0194 33.5686 16.5802 32.0001 17.2266C30.4316 16.5802 28.8293 16.0194 27.2001 15.5466C28.7201 12.4266 30.5068 10.6666 32.0001 10.6666ZM32.0001 53.3333C30.5068 53.3333 28.7201 51.5733 27.2001 48.4533C28.8293 47.9804 30.4316 47.4196 32.0001 46.7733C33.5686 47.4196 35.1709 47.9804 36.8001 48.4533C35.2801 51.5733 33.4934 53.3333 32.0001 53.3333ZM39.8134 36.5066C38.5868 37.3599 37.3334 38.1599 36.0001 38.9333C34.6668 39.7066 33.3334 40.3999 32.0001 41.0133C30.6668 40.391 29.3334 39.6977 28.0001 38.9333C26.6668 38.1599 25.3334 37.3599 24.1868 36.5066C24.0001 35.0666 24.0001 33.5733 24.0001 31.9999C24.0001 30.4266 24.0001 28.9333 24.1868 27.4933C25.4134 26.6399 26.6668 25.8399 28.0001 25.0666C29.3334 24.2933 30.6668 23.5999 32.0001 22.9866C33.3334 23.6088 34.6668 24.3021 36.0001 25.0666C37.3334 25.8399 38.6668 26.6399 39.8134 27.4933C39.8134 28.9333 40.0001 30.4266 40.0001 31.9999C40.0001 33.5733 40.0001 35.0666 39.8134 36.5066ZM50.4801 42.6666C49.7068 43.9999 47.2001 44.6666 43.8934 44.4266C44.3113 42.7771 44.623 41.1026 44.8268 39.4133C46.1853 38.3856 47.4768 37.2722 48.6934 36.0799C50.6668 38.8266 51.2534 41.3333 50.4801 42.6666ZM48.6934 27.9199C47.4768 26.7276 46.1853 25.6142 44.8268 24.5866C44.6231 22.906 44.3113 21.2404 43.8934 19.5999H45.2001C47.8668 19.5999 49.8134 20.2399 50.5334 21.4133C51.2534 22.5866 50.6668 25.1733 48.6934 27.9199Z" fill="#006A4E"/>
</svg>
