<svg width="64" height="64" viewBox="0 0 64 64" fill="none" xmlns="http://www.w3.org/2000/svg">
<path d="M19.9998 26.6666H22.6665C23.3737 26.6666 24.052 26.3856 24.5521 25.8855C25.0522 25.3854 25.3332 24.7072 25.3332 23.9999C25.3332 23.2927 25.0522 22.6144 24.5521 22.1143C24.052 21.6142 23.3737 21.3333 22.6665 21.3333H19.9998C19.2926 21.3333 18.6143 21.6142 18.1142 22.1143C17.6141 22.6144 17.3332 23.2927 17.3332 23.9999C17.3332 24.7072 17.6141 25.3854 18.1142 25.8855C18.6143 26.3856 19.2926 26.6666 19.9998 26.6666ZM30.6665 42.6666H19.9998C19.2926 42.6666 18.6143 42.9475 18.1142 43.4476C17.6141 43.9477 17.3332 44.626 17.3332 45.3333C17.3332 46.0405 17.6141 46.7188 18.1142 47.2189C18.6143 47.719 19.2926 47.9999 19.9998 47.9999H30.6665C31.3737 47.9999 32.052 47.719 32.5521 47.2189C33.0522 46.7188 33.3332 46.0405 33.3332 45.3333C33.3332 44.626 33.0522 43.9477 32.5521 43.4476C32.052 42.9475 31.3737 42.6666 30.6665 42.6666ZM30.6665 31.9999H19.9998C19.2926 31.9999 18.6143 32.2809 18.1142 32.781C17.6141 33.2811 17.3332 33.9593 17.3332 34.6666C17.3332 35.3738 17.6141 36.0521 18.1142 36.5522C18.6143 37.0523 19.2926 37.3333 19.9998 37.3333H30.6665C31.3737 37.3333 32.052 37.0523 32.5521 36.5522C33.0522 36.0521 33.3332 35.3738 33.3332 34.6666C33.3332 33.9593 33.0522 33.2811 32.5521 32.781C32.052 32.2809 31.3737 31.9999 30.6665 31.9999ZM49.1198 25.0133C49.324 24.5276 49.3798 23.9924 49.2802 23.4751C49.1805 22.9578 48.9299 22.4816 48.5598 22.1066L32.5598 6.10659C32.3394 5.89916 32.0874 5.72813 31.8132 5.59992C31.7336 5.58861 31.6528 5.58861 31.5732 5.59992L30.8265 5.33325H14.6665C12.5448 5.33325 10.5099 6.17611 9.00965 7.6764C7.50936 9.17669 6.6665 11.2115 6.6665 13.3333V50.6666C6.6665 52.7883 7.50936 54.8232 9.00965 56.3234C10.5099 57.8237 12.5448 58.6666 14.6665 58.6666H30.6665C31.3737 58.6666 32.052 58.3856 32.5521 57.8855C33.0522 57.3854 33.3332 56.7072 33.3332 55.9999C33.3332 55.2927 33.0522 54.6144 32.5521 54.1143C32.052 53.6142 31.3737 53.3333 30.6665 53.3333H14.6665C13.9593 53.3333 13.281 53.0523 12.7809 52.5522C12.2808 52.0521 11.9998 51.3738 11.9998 50.6666V13.3333C11.9998 12.626 12.2808 11.9477 12.7809 11.4476C13.281 10.9475 13.9593 10.6666 14.6665 10.6666H27.9998V18.6666C27.9998 20.7883 28.8427 22.8232 30.343 24.3234C31.8433 25.8237 33.8781 26.6666 35.9998 26.6666H46.6665C47.193 26.664 47.7069 26.5056 48.1435 26.2113C48.5801 25.9171 48.9198 25.5002 49.1198 25.0133ZM35.9998 21.3333C35.2926 21.3333 34.6143 21.0523 34.1142 20.5522C33.6141 20.0521 33.3332 19.3738 33.3332 18.6666V14.4266L40.2398 21.3333H35.9998ZM54.6665 31.9999H41.3332C40.6259 31.9999 39.9476 32.2809 39.4476 32.781C38.9475 33.2811 38.6665 33.9593 38.6665 34.6666V55.9999C38.6678 56.4823 38.7999 56.9554 39.0488 57.3686C39.2977 57.7819 39.654 58.1199 40.0798 58.3466C40.4968 58.5607 40.9629 58.6611 41.4311 58.6377C41.8992 58.6143 42.3529 58.4679 42.7465 58.2133L47.9998 54.7466L53.3332 58.2133C53.7315 58.4436 54.1828 58.567 54.643 58.5714C55.1031 58.5757 55.5566 58.4609 55.9593 58.2381C56.3619 58.0153 56.7001 57.6921 56.9409 57.2999C57.1816 56.9077 57.3168 56.4598 57.3332 55.9999V34.6666C57.3332 33.9593 57.0522 33.2811 56.5521 32.781C56.052 32.2809 55.3737 31.9999 54.6665 31.9999ZM51.9998 50.9866L49.4932 49.3066C49.0522 49.0085 48.5321 48.8492 47.9998 48.8492C47.4676 48.8492 46.9475 49.0085 46.5065 49.3066L43.9998 50.9866V37.3333H51.9998V50.9866Z" fill="#006A4E"/>
</svg>
