<svg width="131" height="126" viewBox="0 0 131 126" fill="none" xmlns="http://www.w3.org/2000/svg">
<rect y="27" width="182" height="71" rx="35.5" fill="url(#paint0_linear_3023_5264)"/>
<g clip-path="url(#clip0_3023_5264)">
<path d="M42.6016 100.411C42.7036 100.309 42.9074 100.206 43.0094 100.104C42.7036 99.1828 42.1939 98.4663 41.4804 97.8522C40.8687 97.238 40.0533 96.8286 39.1358 96.6239C37.301 96.1121 35.4662 96.6239 34.0391 97.7498C34.6507 99.4899 36.0778 100.82 37.9126 101.332C38.932 101.639 40.0533 101.537 40.9707 101.23C41.5823 101.025 42.092 100.82 42.6016 100.411Z" fill="#E08433"/>
<path d="M39.543 36.1315H40.5623C40.8681 33.982 41.2759 31.9349 41.9894 29.9901C41.5817 30.2972 41.072 30.6042 40.6643 30.809C40.0526 32.549 39.7468 34.2891 39.543 36.1315Z" fill="#006A4E"/>
<path d="M45.5589 107.678C45.7628 106.962 45.7628 106.143 45.6609 105.426C45.5589 104.403 45.0493 103.379 44.4376 102.56C44.2338 102.663 44.1318 102.663 43.928 102.765C43.4183 103.072 42.9086 103.379 42.3989 103.789C41.6854 104.505 41.1757 105.426 40.8699 106.45C40.3602 108.292 40.8699 110.135 41.9912 111.568C43.6222 110.954 44.8454 109.623 45.457 107.985C45.457 107.883 45.5589 107.781 45.5589 107.678Z" fill="#006A4E"/>
<path d="M40.6646 90.4825L39.9511 89.7661L39.4414 89.2543C39.6453 91.3014 40.053 93.2462 40.5627 95.0886C41.0724 95.2933 41.4801 95.6003 41.8879 95.9074C41.3782 94.1674 40.8685 92.325 40.6646 90.4825Z" fill="#006A4E"/>
<path d="M39.1358 29.3761C40.0533 29.1714 40.8687 28.6596 41.4804 28.0455C42.1939 27.4314 42.7036 26.6125 43.0094 25.7937C42.9074 25.6913 42.7036 25.589 42.6016 25.4866C42.092 25.1795 41.5823 24.8725 40.9707 24.6678C39.9513 24.3607 38.932 24.3607 37.8107 24.5654C36.0778 25.1795 34.6507 26.5102 34.0391 28.2502C35.4662 29.3761 37.4029 29.8879 39.1358 29.3761Z" fill="#006A4E"/>
<path d="M64.1088 8.49561C63.2934 8.70032 62.5798 8.90503 61.7643 9.10974C61.5605 9.62152 61.3566 10.1333 61.0508 10.6451C62.4779 10.1333 63.905 9.72387 65.434 9.41681C65.0263 9.2121 64.5166 8.90503 64.1088 8.49561Z" fill="#006A4E"/>
<path d="M42.396 22.211C42.8037 22.6205 43.3134 23.0299 43.925 23.2346C44.1289 23.337 44.2308 23.4393 44.4347 23.4393C45.1482 22.6205 45.556 21.5969 45.6579 20.5734C45.7599 19.8569 45.7599 19.038 45.556 18.3215C45.556 18.2192 45.454 18.1168 45.454 18.0145C44.9444 16.3768 43.6192 15.0461 41.9882 14.432C40.765 15.865 40.3573 17.8097 40.8669 19.5498C41.1728 20.5734 41.6824 21.4946 42.396 22.211Z" fill="#E08433"/>
<path d="M48.7154 14.5345C48.8174 14.5345 49.0212 14.6368 49.1232 14.6368C49.8367 14.8415 50.4483 14.8415 51.1619 14.8415C52.2832 14.7392 53.4045 14.2274 54.3219 13.5109C54.22 13.3062 54.118 12.9991 54.0161 12.7944C53.7103 12.2826 53.4045 11.7709 52.8948 11.3614C52.1812 10.7473 51.3658 10.2355 50.4483 9.92846C48.6135 9.41668 46.7787 9.92846 45.3516 11.0544C45.8612 12.6921 47.0845 13.9203 48.7154 14.5345Z" fill="#006A4E"/>
<path d="M56.159 11.464C56.261 11.6687 56.4649 11.8734 56.6687 12.0781C57.79 11.6687 58.8094 10.8498 59.421 9.92864C59.7268 9.41686 60.0326 8.80273 60.2365 8.18859C60.2365 7.98388 60.3384 7.77917 60.3384 7.57446C60.5423 6.03912 60.1345 4.40143 59.1152 3.0708C57.3823 3.68494 56.0571 5.11792 55.5474 6.96032C55.3436 7.88153 55.3436 8.90508 55.5474 9.72393C55.6494 10.4404 55.8532 10.9522 56.159 11.464Z" fill="#E08433"/>
<path d="M100.604 89.8683L100.502 89.766L97.0362 86.2859C96.7304 86.593 96.3227 86.7977 95.9149 87.0024C96.0169 87.3094 96.2208 87.7189 96.3227 88.0259L96.7304 89.2542L97.1382 90.3801L96.3227 91.199L95.3033 92.1202C95.0995 92.2225 94.9975 92.4272 94.7937 92.5296C93.4685 104.505 83.4788 113.41 71.4504 113.41C59.422 113.41 49.4324 104.403 48.1072 92.5296C47.9033 92.4272 47.8014 92.2225 47.5975 92.1202L46.5782 91.199L45.7627 90.3801L46.1704 89.2542L46.5782 88.0259C46.6801 87.7189 46.782 87.3094 46.9859 87.0024C46.5782 86.7977 46.2724 86.4906 45.8646 86.2859L42.3988 89.766L42.2969 89.8683C44.3356 104.403 56.6698 115.15 71.4504 115.15C86.2311 115.253 98.5653 104.403 100.604 89.8683Z" fill="#E08433"/>
<path d="M66.5547 117.914C66.045 118.221 65.5354 118.528 65.0257 118.937C64.9238 119.04 64.7199 119.244 64.6179 119.347C63.5986 120.677 63.1908 122.315 63.3947 123.953C65.2296 124.26 67.0644 123.646 68.3896 122.417C69.1031 121.701 69.5108 120.882 69.8166 120.063C70.0205 119.449 70.1225 118.835 70.0205 118.221C70.0205 117.914 70.0205 117.607 69.9186 117.402C68.8992 117.197 67.676 117.402 66.5547 117.914Z" fill="#E08433"/>
<path d="M65.5356 116.481C64.0065 116.174 62.5794 115.764 61.1523 115.253C61.4581 115.764 61.662 116.276 61.8659 116.788C62.5794 116.993 63.3949 117.197 64.2104 117.402C64.5162 117.095 65.0259 116.788 65.5356 116.481Z" fill="#006A4E"/>
<path d="M65.1309 6.96017C65.5386 7.3696 66.0483 7.77902 66.6599 7.98373C67.7812 8.49551 69.0044 8.70022 70.2276 8.49551C70.2276 8.18844 70.3296 7.88137 70.3296 7.67666C70.3296 7.06253 70.2276 6.44839 70.1257 5.83426C69.8199 4.91306 69.4121 4.09421 68.6986 3.48007C67.3734 2.14945 65.5386 1.53531 63.7038 1.94474C63.398 3.58243 63.8057 5.22012 64.927 6.55075C64.8251 6.6531 64.927 6.75546 65.1309 6.96017Z" fill="#006A4E"/>
<path d="M60.2368 117.709C60.033 117.095 59.8291 116.481 59.4214 115.969C58.7078 114.946 57.7904 114.229 56.6691 113.82C56.4652 114.024 56.3633 114.229 56.1594 114.434C55.8536 114.946 55.6497 115.56 55.4459 116.072C55.242 116.993 55.242 117.914 55.4459 118.835C55.9555 120.678 57.2807 122.111 59.0136 122.725C60.033 121.496 60.5426 119.756 60.2368 118.119C60.3388 118.119 60.2368 117.914 60.2368 117.709Z" fill="#006A4E"/>
<path d="M49.1235 111.261C49.0216 111.261 48.8177 111.363 48.7158 111.363C47.0848 111.977 45.8616 113.205 45.25 114.843C46.6771 116.071 48.6139 116.481 50.3468 115.969C51.2642 115.764 52.0797 115.253 52.7932 114.536C53.201 114.127 53.6087 113.615 53.9145 113.103C54.0165 112.898 54.1184 112.591 54.2203 112.387C53.3029 111.67 52.2836 111.158 51.0603 111.056C50.4487 111.056 49.8371 111.158 49.1235 111.261Z" fill="#E08433"/>
<path d="M42.3984 36.1317H46.1701L45.8642 35.1081L46.6797 34.2893L47.6991 33.3681C47.903 33.1634 48.1068 33.061 48.2088 32.9586C49.7378 21.1877 59.5236 12.3851 71.4501 12.3851C83.3765 12.3851 93.2642 21.1877 94.6913 32.9586C94.8952 33.061 95.0991 33.2657 95.201 33.3681L96.2204 34.2893L97.0359 35.1081L96.7301 36.1317H100.502C98.463 21.5972 86.1288 10.7474 71.3481 10.7474C56.6694 10.7474 44.3352 21.5972 42.3984 36.1317Z" fill="#E08433"/>
<path d="M76.3412 7.98382C76.8509 7.67675 77.3605 7.36969 77.8702 6.96026C77.9722 6.85791 78.176 6.6532 78.278 6.55084C79.2973 5.22022 79.7051 3.58252 79.5012 1.94483C77.6664 1.63776 75.8315 2.2519 74.5063 3.48017C73.7928 4.19666 73.3851 5.0155 73.0792 5.83435C72.8754 6.44848 72.7734 7.06262 72.7734 7.67675C72.7734 7.98382 72.7734 8.29089 72.8754 8.4956C74.0986 8.70031 75.3218 8.4956 76.3412 7.98382Z" fill="#E08433"/>
<path d="M55.7523 25.6913L53.2039 24.2583C52.1845 25.7936 51.471 27.4313 50.8594 29.2737L54.1213 29.8879C54.5291 28.3525 55.0387 26.9196 55.7523 25.6913Z" fill="#E08433"/>
<path d="M50.2461 31.8328C50.7558 31.6281 51.3674 31.4233 51.8771 31.321L50.348 31.0139C50.348 31.2186 50.348 31.5257 50.2461 31.8328Z" fill="#006A4E"/>
<path d="M77.4648 9.5191C78.9939 9.82617 80.421 10.2356 81.8481 10.7474C81.5423 10.2356 81.3384 9.72381 81.1345 9.21204C80.421 9.00732 79.6055 8.80261 78.79 8.5979C78.4842 8.90497 77.9745 9.21204 77.4648 9.5191Z" fill="#006A4E"/>
<path d="M97.4423 18.3215C97.2385 19.038 97.2385 19.8569 97.3404 20.5734C97.4423 21.5969 97.952 22.6205 98.5636 23.4393C98.7675 23.337 98.8694 23.337 99.0733 23.2346C99.583 22.9275 100.093 22.6205 100.602 22.211C101.316 21.4946 101.928 20.5734 102.131 19.5498C102.641 17.7074 102.131 15.865 101.01 14.432C99.3791 15.0461 98.1559 16.3768 97.5443 18.0145C97.5443 18.0145 97.4423 18.1168 97.4423 18.3215Z" fill="#006A4E"/>
<path d="M59.6249 20.8807L57.9939 18.9359C56.6687 20.0618 55.3436 21.2901 54.3242 22.7231L56.7707 24.1561C57.5862 22.9278 58.5036 21.9042 59.6249 20.8807Z" fill="#006A4E"/>
<path d="M82.7643 8.29095C82.9682 8.90508 83.172 9.51922 83.5798 10.031C84.2933 11.0546 85.2107 11.771 86.332 12.1805C86.5359 11.9758 86.6378 11.771 86.8417 11.5663C87.1475 11.0546 87.3514 10.4404 87.5553 9.92864C87.7591 9.00744 87.7591 8.08624 87.5553 7.16503C87.0456 5.22027 85.6185 3.68494 83.8856 3.0708C82.8662 4.29907 82.3566 6.03912 82.6624 7.67681C82.6624 7.88152 82.7643 8.08624 82.7643 8.29095Z" fill="#006A4E"/>
<path d="M93.8741 14.6367C93.9761 14.6367 94.1799 14.5344 94.2819 14.5344C95.9128 13.9203 97.1361 12.692 97.7477 11.0543C96.3206 9.82602 94.3838 9.4166 92.6509 9.92838C91.7335 10.1331 90.918 10.6449 90.2044 11.3614C89.7967 11.7708 89.389 12.2826 89.0831 12.7943C88.9812 12.9991 88.8793 13.3061 88.7773 13.5108C89.6948 14.2273 90.7141 14.7391 91.9373 14.8415C92.549 14.9438 93.1606 14.8415 93.8741 14.6367Z" fill="#E08433"/>
<path d="M50.8564 16.684C50.7545 16.684 50.6526 16.684 50.5506 16.684C50.1429 16.684 49.6332 16.5817 49.2255 16.5817C48.6139 17.1958 48.0022 17.8099 47.3906 18.5264C47.4926 19.0382 47.4926 19.6523 47.4926 20.1641C48.5119 18.8335 49.6332 17.7076 50.8564 16.684Z" fill="#006A4E"/>
<path d="M92.3449 16.684C92.2429 16.684 92.141 16.684 92.0391 16.684C93.2623 17.7076 94.3836 18.9359 95.4029 20.1641C95.4029 19.6524 95.4029 19.0382 95.5049 18.5264C94.8933 17.9123 94.2816 17.1958 93.67 16.684C93.2623 16.5817 92.8545 16.684 92.3449 16.684Z" fill="#006A4E"/>
<path d="M92.0413 29.1714C91.4297 27.4314 90.7162 25.6913 89.6968 24.156L87.1484 25.589C87.862 26.8173 88.3717 28.2502 88.7794 29.6832L92.0413 29.1714Z" fill="#006A4E"/>
<path d="M79.0928 15.558L78.2773 17.7075C79.6025 18.2192 80.8257 18.9357 82.049 19.7546L83.578 17.9122C82.1509 16.991 80.6219 16.1721 79.0928 15.558Z" fill="#006A4E"/>
<path d="M85.006 19.0382L83.375 20.983C84.4963 21.9042 85.4137 23.0301 86.2292 24.2584L88.6757 22.8254C87.6563 21.3924 86.4331 20.0618 85.006 19.0382Z" fill="#E08433"/>
<path d="M92.5482 30.9113L91.1211 31.2183C91.7327 31.3207 92.2424 31.5254 92.7521 31.7301C92.6501 31.5254 92.6501 31.2183 92.5482 30.9113Z" fill="#E08433"/>
<path d="M70.6351 14.2274C68.9022 14.3298 67.2712 14.5345 65.7422 15.0463L66.4557 17.0934C67.7809 16.684 69.208 16.4792 70.6351 16.3769V14.2274Z" fill="#006A4E"/>
<path d="M64.7225 17.7075L63.907 15.558C62.2761 16.1721 60.747 16.8886 59.4219 17.9122L60.9509 19.7546C62.1741 18.9357 63.3974 18.2192 64.7225 17.7075Z" fill="#E08433"/>
<path d="M72.3672 14.2274V16.3769C73.7943 16.4792 75.2214 16.684 76.5465 17.0934L77.2601 15.0463C75.7311 14.6368 74.1001 14.3298 72.3672 14.2274Z" fill="#E08433"/>
<path d="M50.8564 109.316C49.6332 108.292 48.5119 107.064 47.4926 105.836C47.4926 106.348 47.4926 106.962 47.3906 107.473C48.0022 108.088 48.6139 108.804 49.2255 109.418C49.8371 109.316 50.3468 109.316 50.8564 109.316Z" fill="#006A4E"/>
<path d="M88.5731 39.2023C90.0002 38.7929 91.1215 37.8717 91.6312 36.5411C90.5099 35.7222 88.9809 35.4152 87.6557 35.8246C86.2286 36.234 85.1073 37.1552 84.5977 38.4858C85.7189 39.3047 87.146 39.6118 88.5731 39.2023Z" fill="#E08433"/>
<path d="M83.5804 62.8466C83.5804 66.8385 81.6436 70.3186 78.6875 72.5704C83.8862 70.9327 88.5752 67.555 91.7352 62.8466C88.5752 58.1382 83.9881 54.7605 78.6875 53.1228C81.6436 55.3746 83.5804 58.8547 83.5804 62.8466Z" fill="#E08433"/>
<path d="M51.2656 62.8466C54.4256 67.555 59.0127 70.9327 64.3134 72.5704C61.3572 70.3186 59.4205 66.8385 59.4205 62.8466C59.4205 58.8547 61.3572 55.3746 64.3134 53.1228C59.0127 54.7605 54.4256 58.1382 51.2656 62.8466Z" fill="#E08433"/>
<path d="M61.2539 62.8465C61.2539 68.5784 65.841 73.1844 71.5494 73.1844C77.2578 73.1844 81.8449 68.5784 81.8449 62.8465C81.8449 57.1146 77.2578 52.5085 71.5494 52.5085C65.841 52.5085 61.2539 57.1146 61.2539 62.8465ZM71.4475 56.091C75.1171 56.091 78.1752 59.0593 78.1752 62.8465C78.1752 66.5313 75.2191 69.602 71.4475 69.602C67.7778 69.602 64.7197 66.6337 64.7197 62.8465C64.8216 59.0593 67.7778 56.091 71.4475 56.091Z" fill="#F9F9F4"/>
<path d="M62.989 34.1867C63.3967 32.7537 63.0909 31.3207 62.2755 30.1948C60.9503 30.809 60.0329 31.9349 59.6251 33.2655C59.2174 34.6985 59.5232 36.1315 60.3387 37.2574C61.6638 36.7456 62.6832 35.6197 62.989 34.1867Z" fill="#E08433"/>
<path d="M82.5606 37.3598C83.3761 36.2339 83.6819 34.6985 83.2742 33.3679C82.8664 31.9349 81.949 30.809 80.6238 30.2972C79.8084 31.4232 79.5025 32.9585 79.9103 34.2891C80.318 35.6197 81.3374 36.7457 82.5606 37.3598Z" fill="#E08433"/>
<path d="M53.1 67.8619C51.7748 66.5312 50.4496 64.9959 49.4303 63.2559L49.1245 62.7441L49.4303 62.2323C50.5516 60.5946 51.7748 59.0593 53.2019 57.6263C50.2458 57.6263 47.6974 56.1933 46.0664 54.0438V71.4443C47.5954 69.2949 50.1438 67.8619 53.1 67.8619Z" fill="#006A4E"/>
<path d="M102.438 30.809C101.929 30.6042 101.521 30.2972 101.113 29.9901C101.725 31.9349 102.235 33.982 102.54 36.1315H103.56C103.254 34.2891 102.948 32.549 102.438 30.809Z" fill="#006A4E"/>
<path d="M95.913 40.6352C95.1994 40.021 94.282 39.6116 93.4665 39.3045C93.9762 38.5881 94.3839 37.7692 94.6897 36.9504L95.0975 35.7221L94.0781 34.8009C92.651 33.4703 90.8162 32.7538 88.8794 32.7538C88.1659 32.7538 87.5543 32.8561 86.8407 33.0608C86.6368 33.1632 86.433 33.1632 86.2291 33.2656C86.2291 33.0608 86.1272 32.8561 86.1272 32.6514C85.4136 30.0925 83.5788 28.0454 81.0304 27.2266L79.8072 26.8171L78.8897 27.8407C77.5646 29.376 76.851 31.2184 76.851 33.1632C75.1181 32.5491 73.2833 32.242 71.4484 32.242C69.6136 32.242 67.7788 32.5491 66.0459 33.1632C66.0459 31.2184 65.3323 29.2737 64.0072 27.8407L63.0897 26.8171L61.8665 27.2266C59.3181 28.0454 57.4833 30.0925 56.7697 32.6514C56.6678 32.8561 56.6678 33.0608 56.6678 33.2656C56.4639 33.1632 56.2601 33.1632 56.0562 33.0608C55.3426 32.8561 54.731 32.7538 54.0175 32.7538C52.0807 32.7538 50.2459 33.4703 48.8188 34.8009L47.7994 35.7221L48.2072 36.9504C48.513 37.7692 48.9207 38.5881 49.4304 39.3045C48.513 39.6116 47.6975 40.1234 46.9839 40.6352V37.9739H35.3633V82.601L41.1736 88.5377L45.7607 83.9317C46.7801 85.0576 48.1052 85.8764 49.5323 86.3882C49.0226 87.1047 48.6149 87.9235 48.3091 88.7424L47.9013 89.9707L48.9207 90.8919C50.3478 92.2225 52.2846 92.939 54.1194 92.939C54.731 92.939 55.4446 92.8366 56.0562 92.6319C56.2601 92.5296 56.4639 92.5296 56.6678 92.4272C56.6678 92.6319 56.7697 92.8366 56.7697 93.0413C57.4833 95.6002 59.3181 97.6474 61.8665 98.4662L63.0897 98.8756L64.0072 97.8521C65.3323 96.3167 66.0459 94.4743 66.0459 92.5296C67.7788 93.1437 69.6136 93.4508 71.4484 93.4508C73.2833 93.4508 75.1181 93.1437 76.851 92.5296C76.851 94.4743 77.5646 96.4191 78.8897 97.8521L79.8072 98.8756L81.0304 98.4662C83.5788 97.6474 85.4136 95.6002 86.1272 93.0413C86.2291 92.8366 86.2291 92.6319 86.2291 92.4272C86.433 92.5296 86.6368 92.5296 86.8407 92.6319C87.4523 92.8366 88.1659 92.939 88.7775 92.939C90.7143 92.939 92.5491 92.2225 93.9762 90.8919L94.9955 89.9707L94.5878 88.7424C94.282 87.9235 93.8743 87.1047 93.3646 86.3882C94.7917 85.8764 96.0149 85.0576 97.1362 83.9317L101.723 88.5377L107.636 82.601V37.9739H95.913V40.6352ZM97.0343 43.3988V39.0998H106.514V82.1916L101.723 87.0023L97.0343 82.294C95.7091 84.1364 93.5684 85.467 91.2239 85.8764C92.3452 86.6953 93.1607 87.8212 93.5685 89.1518L93.7723 89.6636L93.3646 90.073C92.1414 91.1989 90.5104 91.8131 88.9814 91.8131C88.3697 91.8131 87.8601 91.7107 87.2484 91.6084C86.5349 91.4036 85.9233 91.0966 85.3117 90.6872C85.3117 91.4036 85.3117 92.1201 85.1078 92.8366C84.4962 94.9861 82.8652 96.7262 80.7246 97.4426L80.2149 97.6474L79.8072 97.2379C78.2781 95.6002 77.7684 93.2461 78.2781 91.0966C78.2781 90.9942 78.3801 90.8919 78.3801 90.7895C76.3414 91.8131 73.9968 92.4272 71.5504 92.4272C69.1039 92.4272 66.7594 91.8131 64.7207 90.7895C64.7207 90.8919 64.8226 90.9942 64.8226 91.0966C65.4343 93.2461 64.8226 95.6002 63.2936 97.2379L62.8859 97.6474L62.3762 97.4426C60.2355 96.7262 58.6046 94.9861 57.993 92.8366C57.7891 92.1201 57.7891 91.4036 57.7891 90.6872C57.1775 91.0966 56.5659 91.4036 55.8523 91.6084C55.2407 91.7107 54.731 91.8131 54.1194 91.8131C52.4884 91.8131 50.9594 91.1989 49.7362 90.073L49.3284 89.6636L49.5323 89.1518C49.9401 87.8212 50.7555 86.6953 51.8768 85.8764C49.5323 85.467 47.3917 84.2387 46.0665 82.294L41.1736 86.9L36.3826 82.0893V81.6799V39.0998H45.8626V43.3988C47.1878 41.5564 49.3284 40.3281 51.673 39.9187C50.5517 39.0998 49.7362 37.9739 49.3284 36.6433L49.1246 36.1315L49.5323 35.7221C51.1633 34.1868 53.5078 33.675 55.6484 34.1868C56.362 34.3915 56.9736 34.6985 57.5852 35.108C57.5852 34.3915 57.5852 33.675 57.7891 32.9585C58.4007 30.809 60.0317 29.069 62.1723 28.3525L62.682 28.1478L63.0897 28.5572C64.6188 30.1949 65.1284 32.5491 64.6188 34.6985C64.6188 34.8009 64.5168 34.9032 64.5168 35.0056C66.5555 33.982 68.9001 33.3679 71.3465 33.3679C73.793 33.3679 76.1375 33.982 78.1762 35.0056C78.1762 34.9032 78.0743 34.8009 78.0743 34.6985C77.4626 32.5491 78.0743 30.1949 79.6033 28.5572L80.011 28.1478L80.5207 28.3525C82.6614 29.069 84.2923 30.809 84.9039 32.9585C85.1078 33.675 85.1078 34.3915 85.1078 35.108C85.7194 34.6985 86.331 34.3915 87.0446 34.1868C89.1852 33.5726 91.5297 34.1868 93.1607 35.7221L93.5685 36.1315L93.3646 36.6433C92.9568 37.9739 92.1414 39.0998 91.0201 39.9187C93.5685 40.2257 95.7091 41.5564 97.0343 43.3988Z" fill="#006A4E"/>
<path d="M85.2096 43.2965L84.2922 44.1153L83.7825 42.9894C81.54 38.1787 76.749 35.108 71.5503 35.108C66.3516 35.108 61.4587 38.1787 59.318 42.9894L58.8083 44.1153L57.8909 43.2965C56.5658 42.1706 54.9348 41.5564 53.2019 41.5564C49.2264 41.5564 46.0664 44.7295 46.0664 48.7214C46.0664 52.7132 49.2264 55.8863 53.2019 55.8863C53.7116 55.8863 54.1193 55.8863 54.629 55.7839C55.1387 55.6815 55.6483 55.4768 56.0561 55.2721C56.8716 54.658 57.6871 54.1462 58.5025 53.6344C55.5464 53.3274 52.8961 51.3826 51.5709 48.7214L53.2019 48.0049C54.3232 50.4614 56.7696 51.9967 59.42 51.9967C61.7645 51.9967 63.9051 50.7685 65.2303 48.8237C64.4148 48.0049 63.7012 47.0837 63.1916 46.0601L64.8225 45.3436C66.0458 48.0049 68.6961 49.6426 71.5503 49.6426C74.4045 49.6426 77.0548 47.9025 78.278 45.3436L79.909 46.0601C79.3993 47.0837 78.7877 48.0049 77.9722 48.8237C79.1954 50.7685 81.438 52.0991 83.7825 52.0991C86.4329 52.0991 88.8793 50.5638 90.0006 48.1072L91.6316 48.8237C90.3064 51.5873 87.6561 53.4297 84.7 53.8391C85.5154 54.3509 86.3309 54.8627 87.1464 55.4768C87.6561 55.6815 88.0638 55.8863 88.5735 55.9886C88.9812 56.091 89.4909 56.091 90.0006 56.091C93.9761 56.091 97.1361 52.9179 97.1361 48.9261C97.1361 44.9342 93.9761 41.7612 90.0006 41.7612C88.1658 41.5564 86.5348 42.1706 85.2096 43.2965Z" fill="#F9F9F4"/>
<path d="M105.089 24.6677C104.07 24.3606 102.948 24.463 102.031 24.7701C101.419 24.9748 100.91 25.1795 100.4 25.5889C100.298 25.6913 100.094 25.7936 99.9922 25.896C100.298 26.8172 100.808 27.5337 101.521 28.1478C102.133 28.7619 102.948 29.1714 103.866 29.3761C105.701 29.8878 107.535 29.3761 108.963 28.2502C108.351 26.5101 106.924 25.1795 105.089 24.6677Z" fill="#E08433"/>
<path d="M54.4253 86.3883C52.9982 86.7978 51.8769 87.719 51.3672 89.0496C52.4885 89.8684 54.0175 90.1755 55.3427 89.7661C56.7698 89.3567 57.8911 88.4355 58.4007 87.1048C57.2794 86.286 55.8524 86.0813 54.4253 86.3883Z" fill="#E08433"/>
<path d="M80.0119 91.4038C79.6041 92.8368 79.9099 94.2698 80.7254 95.3957C82.0506 94.7815 82.968 93.6556 83.3757 92.325C83.7835 90.892 83.4777 89.459 82.6622 88.3331C81.337 88.8449 80.3177 89.9708 80.0119 91.4038Z" fill="#E08433"/>
<path d="M60.4402 88.2307C59.6248 89.3566 59.319 90.892 59.7267 92.2226C60.1344 93.6556 61.0519 94.7815 62.377 95.2933C63.1925 94.1673 63.4983 92.632 63.0906 91.3014C62.6828 89.9708 61.6635 88.8448 60.4402 88.2307Z" fill="#E08433"/>
<path d="M88.5731 86.3883C87.146 85.9789 85.7189 86.286 84.5977 87.1048C85.2093 88.4354 86.3306 89.3566 87.6557 89.7661C89.0828 90.1755 90.5099 89.8684 91.6312 89.0496C91.0196 87.7189 89.8983 86.7977 88.5731 86.3883Z" fill="#E08433"/>
<path d="M89.8998 69.7044C89.3901 69.7044 88.9823 69.7044 88.4727 69.8068C87.963 69.9091 87.4533 70.1138 86.9436 70.3185C86.1282 70.9327 85.3127 71.4445 84.4972 71.8539C87.4533 72.1609 90.1036 74.0033 91.4288 76.8693L89.7978 77.5858C88.6765 75.1293 86.2301 73.5939 83.5798 73.5939C81.2353 73.5939 79.0946 74.8222 77.7695 76.767C78.5849 77.5858 79.2985 78.507 79.8082 79.5306L78.1772 80.2471C76.954 77.5858 74.3036 75.9481 71.4495 75.9481C68.5953 75.9481 65.9449 77.6882 64.7217 80.2471L63.0907 79.5306C63.6004 78.507 64.212 77.5858 65.0275 76.767C63.8043 74.8222 61.5617 73.4916 59.2172 73.4916C56.5669 73.4916 54.1204 75.0269 52.9991 77.4834L51.3682 76.767C52.6933 74.0034 55.3436 72.1609 58.2998 71.7515C57.4843 71.2397 56.6688 70.728 55.8533 70.2162C55.3436 70.0115 54.834 69.8068 54.3243 69.7044C53.9166 69.602 53.4069 69.6021 52.8972 69.6021C48.9217 69.6021 45.7617 72.7751 45.7617 76.767C45.7617 80.7588 48.9217 83.9319 52.8972 83.9319C54.6301 83.9319 56.2611 83.3177 57.5862 82.1918L58.5036 81.373L59.0133 82.4989C61.2559 87.3096 66.0469 90.3803 71.2456 90.3803C76.4443 90.3803 81.3372 87.3096 83.4778 82.4989L83.9875 81.373L84.9049 82.1918C86.2301 83.3177 87.8611 83.9319 89.594 83.9319C93.5694 83.9319 96.7294 80.7588 96.7294 76.767C97.0352 72.8774 93.8752 69.7044 89.8998 69.7044Z" fill="#F9F9F4"/>
<path d="M89.8988 57.7286C91.224 59.0592 92.5491 60.5945 93.5685 62.3346L93.8743 62.8464L93.5685 63.3581C92.4472 65.0982 91.224 66.5312 89.7969 67.9641C92.753 67.9641 95.3014 69.3971 96.9324 71.5466V54.1461C95.4033 56.2956 92.8549 57.7286 89.8988 57.7286Z" fill="#006A4E"/>
<path d="M54.4253 39.2023C55.8524 39.6118 57.2794 39.3047 58.4007 38.4858C57.7891 37.1552 56.6678 36.234 55.3427 35.8246C53.9156 35.4152 52.4885 35.7222 51.3672 36.5411C51.9788 37.8717 53.1001 38.7929 54.4253 39.2023Z" fill="#E08433"/>
<path d="M100.602 103.789C100.195 103.379 99.6849 102.97 99.0733 102.765C98.8694 102.663 98.7675 102.56 98.5636 102.56C97.8501 103.379 97.4423 104.403 97.3404 105.426C97.2385 106.143 97.2385 106.962 97.4423 107.678C97.4423 107.781 97.5443 107.883 97.5443 107.985C98.0539 109.623 99.3791 110.954 101.01 111.568C102.233 110.135 102.641 108.19 102.131 106.45C101.826 105.426 101.316 104.505 100.602 103.789Z" fill="#E08433"/>
<path d="M77.8706 119.04C77.4628 118.63 76.9532 118.221 76.3416 118.016C75.2203 117.504 73.997 117.3 72.7738 117.504C72.7738 117.811 72.6719 118.118 72.6719 118.323C72.6719 118.937 72.7738 119.551 72.8757 120.166C73.1815 121.087 73.5893 121.906 74.3028 122.52C75.628 123.85 77.4628 124.465 79.2977 124.055C79.6035 122.417 79.0938 120.78 78.0745 119.449C78.1764 119.347 78.0745 119.142 77.8706 119.04Z" fill="#006A4E"/>
<path d="M94.2822 111.465C94.1803 111.465 93.9764 111.363 93.8745 111.363C93.1609 111.158 92.5493 111.158 91.8358 111.158C90.7145 111.261 89.5932 111.772 88.6758 112.489C88.7777 112.694 88.8797 113.001 88.9816 113.205C89.2874 113.717 89.5932 114.229 90.1029 114.638C90.8164 115.252 91.6319 115.764 92.5493 116.071C94.3842 116.583 96.219 116.071 97.6461 114.945C97.1364 113.205 95.9132 111.977 94.2822 111.465Z" fill="#006A4E"/>
<path d="M86.8417 114.434C86.7398 114.229 86.5359 114.024 86.332 113.82C85.2107 114.229 84.1914 115.048 83.5798 115.969C83.274 116.481 82.9682 117.095 82.7643 117.709C82.7643 117.914 82.6624 118.119 82.6624 118.323C82.3566 119.961 82.8662 121.599 83.8856 122.929C85.6185 122.315 86.9437 120.882 87.4533 119.04C87.6572 118.119 87.6572 117.095 87.4533 116.276C87.3514 115.56 87.1475 114.946 86.8417 114.434Z" fill="#E08433"/>
<path d="M78.8916 117.504C79.7071 117.3 80.4206 117.095 81.2361 116.89C81.44 116.379 81.6438 115.867 81.9496 115.355C80.5225 115.867 79.0954 116.276 77.5664 116.583C77.9741 116.788 78.4838 117.095 78.8916 117.504Z" fill="#006A4E"/>
<path d="M100.91 45.9578H98.8711V48.7214V76.8692V78.0975C99.4827 77.5857 100.196 77.2786 100.91 77.1763V45.9578Z" fill="#E08433"/>
<path d="M92.1406 109.316C92.6503 109.316 93.2619 109.316 93.7716 109.418C94.3832 108.804 94.9948 108.19 95.6064 107.473C95.5045 106.962 95.5045 106.348 95.5045 105.836C94.4851 107.064 93.3639 108.292 92.1406 109.316Z" fill="#006A4E"/>
<path d="M88.6756 103.175L86.2292 101.742C85.4137 102.97 84.3944 103.994 83.375 105.017L85.006 106.962C86.4331 105.836 87.6563 104.608 88.6756 103.175Z" fill="#E08433"/>
<path d="M92.7519 93.7579C91.9364 94.1674 91.019 94.3721 90.1016 94.4744L92.548 94.8838C92.65 94.5768 92.7519 94.1674 92.7519 93.7579Z" fill="#E08433"/>
<path d="M87.25 100.309L89.7984 101.742C90.8177 100.206 91.5313 98.5685 92.1429 96.7261L88.881 96.2144C88.4732 97.6473 87.9635 98.978 87.25 100.309Z" fill="#006A4E"/>
<path d="M78.2773 108.19L79.0928 110.34C80.7238 109.725 82.2528 109.009 83.578 107.985L82.049 106.143C80.8257 106.962 79.6025 107.678 78.2773 108.19Z" fill="#006A4E"/>
<path d="M72.3672 111.67C74.1001 111.568 75.7311 111.363 77.2601 110.851L76.5466 108.804C75.2214 109.214 73.7943 109.418 72.3672 109.521V111.67Z" fill="#E08433"/>
<path d="M70.6351 111.67V109.521C69.208 109.418 67.7809 109.214 66.4557 108.804L65.7422 110.851C67.2712 111.363 68.9022 111.568 70.6351 111.67Z" fill="#006A4E"/>
<path d="M56.6691 101.844L54.2227 103.277C55.242 104.71 56.5672 105.938 57.8923 107.064L59.5233 105.119C58.504 104.096 57.5865 102.97 56.6691 101.844Z" fill="#006A4E"/>
<path d="M50.45 94.9868L52.8964 94.5773C51.979 94.475 51.0616 94.1679 50.2461 93.8608C50.2461 94.1679 50.348 94.5773 50.45 94.9868Z" fill="#006A4E"/>
<path d="M50.9609 96.7261C51.5725 98.4662 52.2861 100.206 53.3055 101.742L55.8538 100.309C55.1403 99.0803 54.6306 97.6473 54.2229 96.2144L50.9609 96.7261Z" fill="#E08433"/>
<path d="M64.7225 108.19C63.3974 107.678 62.1741 106.962 60.9509 106.143L59.4219 107.985C60.849 108.907 62.378 109.725 63.907 110.34L64.7225 108.19Z" fill="#E08433"/>
<path d="M44.131 40.8398H38.2188V44.1152H44.131V40.8398Z" fill="#F9F9F4"/>
<path d="M102.742 77.1763C103.456 77.381 104.169 77.6881 104.781 78.1998V45.9578H102.742V77.1763Z" fill="#E08433"/>
<path d="M104.783 40.8398H98.8711V44.1152H104.783V40.8398Z" fill="#F9F9F4"/>
<path d="M42.0898 77.1763C42.8034 77.381 43.5169 77.6881 44.1286 78.1998V76.9716V48.7214V45.9578H42.0898V77.1763Z" fill="#E08433"/>
<path d="M101.725 78.814C100.196 78.814 99.075 79.9399 98.8711 81.3729L101.827 84.3412L104.681 81.4752C104.478 80.0422 103.254 78.814 101.725 78.814Z" fill="#F9F9F4"/>
<path d="M40.2575 45.9578H38.2188V77.9951C38.8304 77.4833 39.5439 77.1763 40.2575 77.0739V45.9578Z" fill="#E08433"/>
<path d="M103.56 89.3566L103.05 89.8683L102.337 90.4825C102.031 92.3249 101.623 94.1673 101.012 95.9073C101.419 95.6003 101.929 95.2932 102.337 95.0885C102.948 93.2461 103.356 91.3013 103.56 89.3566Z" fill="#006A4E"/>
<path d="M103.866 96.624C102.948 96.8287 102.133 97.3405 101.521 97.9546C100.808 98.5688 100.298 99.3876 99.9922 100.206C100.094 100.309 100.298 100.411 100.4 100.514C100.91 100.821 101.419 101.128 102.031 101.332C103.05 101.639 104.07 101.639 105.191 101.435C107.026 100.923 108.453 99.5923 109.064 97.8523C107.535 96.5216 105.599 96.1122 103.866 96.624Z" fill="#006A4E"/>
<path d="M41.1745 78.814C39.6455 78.814 38.5242 79.9399 38.3203 81.3729L41.1745 84.3412L44.0287 81.4752C43.9268 80.0422 42.7035 78.814 41.1745 78.814Z" fill="#F9F9F4"/>
<path d="M71.4504 69.4995C75.1201 69.4995 78.1781 66.5312 78.1781 62.744C78.1781 59.0592 75.222 55.9885 71.4504 55.9885C67.7807 55.9885 64.7227 58.9568 64.7227 62.744C64.8246 66.5312 67.7807 69.4995 71.4504 69.4995Z" fill="#072119"/>
<path d="M97.034 39.0999V43.3988C95.7089 41.5564 93.5682 40.3282 91.2237 39.9187C92.345 39.0999 93.1605 37.974 93.5682 36.6434L93.7721 36.1316L93.3644 35.7222C91.7334 34.1868 89.3889 33.675 87.2482 34.1868C86.5347 34.3915 85.9231 34.6986 85.3115 35.108C85.3115 34.3915 85.3115 33.675 85.1076 32.9586C84.496 30.8091 82.865 29.069 80.7244 28.3525L80.2147 28.1478L79.807 28.5573C78.2779 30.1949 77.7682 32.5491 78.2779 34.6986C78.2779 34.801 78.3799 34.9033 78.3799 35.0057C76.3411 33.9821 73.9966 33.368 71.5502 33.368C69.1037 33.368 66.7592 33.9821 64.7205 35.0057C64.7205 34.9033 64.8224 34.801 64.8224 34.6986C65.4341 32.5491 64.8224 30.1949 63.2934 28.5573L62.8857 28.1478L62.376 28.3525C60.2353 29.069 58.6044 30.8091 57.9928 32.9586C57.7889 33.675 57.7889 34.3915 57.7889 35.108C57.1773 34.6986 56.5657 34.3915 55.8521 34.1868C53.7115 33.5727 51.367 34.1868 49.736 35.7222L49.3282 36.1316L49.5321 36.6434C49.9399 37.974 50.7553 39.0999 51.8766 39.9187C49.5321 40.3282 47.4934 41.5564 46.0663 43.3988V39.0999H36.4844V81.7823V82.1917L41.1734 86.9001L45.8624 82.1917C47.1876 84.0341 49.3282 85.3647 51.6728 85.7742C50.5515 86.593 49.736 87.7189 49.3282 89.0495L49.1244 89.5613L49.5321 89.9707C50.7553 91.0967 52.3863 91.7108 53.9153 91.7108C54.527 91.7108 55.0366 91.6084 55.6482 91.5061C56.3618 91.3014 56.9734 90.9943 57.585 90.5849C57.585 91.3014 57.585 92.0179 57.7889 92.7343C58.4005 94.8838 60.0315 96.6239 62.1721 97.3404L62.6818 97.5451L63.0895 97.1357C64.6186 95.498 65.1282 93.1438 64.6186 90.9943C64.6186 90.8919 64.5166 90.7896 64.5166 90.6872C66.5553 91.7108 68.8999 92.3249 71.3463 92.3249C73.7928 92.3249 76.1373 91.7108 78.176 90.6872C78.176 90.7896 78.0741 90.8919 78.0741 90.9943C77.4624 93.1438 78.0741 95.498 79.6031 97.1357L80.0108 97.5451L80.5205 97.3404C82.6611 96.6239 84.2921 94.8838 84.9037 92.7343C85.1076 92.0179 85.1076 91.3014 85.1076 90.5849C85.7192 90.9943 86.3308 91.3014 87.0444 91.5061C87.656 91.6084 88.1657 91.7108 88.7773 91.7108C90.4082 91.7108 91.9373 91.0967 93.1605 89.9707L93.5682 89.5613V89.0495C93.1605 87.7189 92.345 86.593 91.2237 85.7742C93.5682 85.3647 95.7089 84.1365 97.034 82.1917L101.723 86.9001L106.514 82.0893V39.0999H97.034ZM38.2173 45.9577H40.256V77.0739C39.5424 77.1763 38.8289 77.5857 38.2173 77.9951V45.9577ZM41.1734 84.3412L38.2173 81.3728C38.4211 79.9399 39.6444 78.814 41.1734 78.814C42.7024 78.814 43.9257 79.9399 44.0276 81.4752L41.1734 84.3412ZM44.1295 48.7213V76.8692V78.0975C43.5179 77.5857 42.8044 77.2786 42.0908 77.0739V45.9577H44.1295V48.7213ZM44.1295 44.2177H38.2173V40.9423H44.1295V44.2177ZM87.656 35.9269C89.0831 35.5174 90.5102 35.8245 91.6315 36.6434C91.0199 37.974 89.8986 38.8952 88.5734 39.3046C87.1463 39.714 85.7192 39.407 84.5979 38.5881C85.2095 37.2575 86.3308 36.2339 87.656 35.9269ZM80.7244 30.1949C82.0495 30.8091 82.967 31.935 83.3747 33.2656C83.7824 34.6986 83.4766 36.1316 82.6611 37.2575C81.336 36.6434 80.4186 35.5174 80.0108 34.1868C79.6031 32.8562 79.9089 31.4232 80.7244 30.1949ZM59.7257 33.368C60.1334 31.935 61.0508 30.8091 62.376 30.2973C63.1915 31.4232 63.4973 32.9586 63.0895 34.2892C62.6818 35.7222 61.7644 36.8481 60.4392 37.3598C59.6237 36.2339 59.3179 34.6986 59.7257 33.368ZM51.367 36.6434C52.4882 35.8245 54.0173 35.5174 55.3424 35.9269C56.7695 36.3363 57.8908 37.2575 58.4005 38.5881C57.2792 39.407 55.7502 39.714 54.425 39.3046C53.0999 38.7928 51.9786 37.8716 51.367 36.6434ZM45.9644 54.1462C47.5953 56.2957 50.1437 57.7287 53.0999 57.7287C51.6728 59.0593 50.4495 60.5946 49.3282 62.3347L49.0224 62.8465L49.3282 63.3582C50.4495 65.0983 51.6728 66.5313 53.0999 67.9642C50.1437 67.9642 47.5953 69.3972 45.9644 71.5467V54.1462ZM81.7437 62.8465C81.7437 68.5784 77.1566 73.1844 71.4482 73.1844C65.7399 73.1844 61.1528 68.5784 61.1528 62.8465C61.1528 57.1145 65.7399 52.5085 71.4482 52.5085C77.1566 52.5085 81.7437 57.1145 81.7437 62.8465ZM78.6857 53.1226C83.8844 54.7603 88.5734 58.1381 91.7334 62.8465C88.5734 67.5548 83.9863 70.9326 78.6857 72.5703C81.6418 70.3184 83.5786 66.8383 83.5786 62.8465C83.5786 58.8546 81.6418 55.3745 78.6857 53.1226ZM76.2392 75.1291C76.2392 75.1291 76.3411 75.1291 76.2392 75.1291C76.3411 75.1291 76.2392 75.1291 76.2392 75.1291ZM66.6573 75.0268C66.6573 75.0268 66.5553 75.0268 66.6573 75.0268C66.5553 75.0268 66.6573 75.0268 66.6573 75.0268ZM59.4199 62.8465C59.4199 66.8383 61.3566 70.3184 64.3128 72.5703C59.1141 70.9326 54.425 67.5548 51.265 62.8465C54.425 58.1381 59.0121 54.7603 64.3128 53.1226C61.3566 55.3745 59.4199 58.8546 59.4199 62.8465ZM55.3424 89.766C53.9153 90.0731 52.4882 89.8684 51.367 89.0495C51.9786 87.7189 53.0999 86.7977 54.425 86.3883C55.8521 85.9789 57.2792 86.2859 58.4005 87.1048C57.7889 88.4354 56.6676 89.3566 55.3424 89.766ZM62.2741 95.3956C60.9489 94.7815 60.0315 93.6555 59.6237 92.3249C59.216 90.8919 59.5218 89.459 60.3373 88.333C61.6624 88.9472 62.5799 90.0731 62.9876 91.4037C63.3953 92.7344 63.0895 94.2697 62.2741 95.3956ZM83.2728 92.3249C82.865 93.7579 81.9476 94.8838 80.6224 95.3956C79.807 94.2697 79.5011 92.7344 79.9089 91.4037C80.3166 89.9707 81.234 88.8448 82.5592 88.333C83.3747 89.459 83.6805 90.8919 83.2728 92.3249ZM91.6315 89.0495C90.5102 89.8684 88.9811 90.1754 87.656 89.766C86.2289 89.3566 85.1076 88.4354 84.5979 87.1048C85.7192 86.2859 87.2482 85.9789 88.5734 86.3883C89.8986 86.7977 91.0199 87.7189 91.6315 89.0495ZM89.8986 84.0341C88.1657 84.0341 86.5347 83.42 85.2095 82.2941L84.2921 81.4752L83.7824 82.6011C81.5399 87.4118 76.7489 90.4825 71.5502 90.4825C66.3515 90.4825 61.4586 87.4118 59.3179 82.6011L58.8082 81.4752L57.8908 82.2941C56.5657 83.42 54.9347 84.0341 53.2018 84.0341C49.2263 84.0341 46.0663 80.8611 46.0663 76.8692C46.0663 72.8773 49.2263 69.7043 53.2018 69.7043C53.7115 69.7043 54.1192 69.7043 54.6289 69.8066C55.1386 69.909 55.6482 70.1137 56.1579 70.3184C56.9734 70.9326 57.7889 71.4443 58.6044 71.8538C55.6482 72.1608 52.9979 74.0032 51.6728 76.8692L53.3037 77.5857C54.425 75.1292 56.8715 73.5938 59.5218 73.5938C61.8663 73.5938 64.1089 74.8221 65.3321 76.8692C64.5166 77.688 63.8031 78.6092 63.3953 79.6328L65.0263 80.3493C66.2495 77.688 68.8999 76.0504 71.7541 76.0504C74.6082 76.0504 77.2586 77.7904 78.4818 80.3493L80.1128 79.6328C79.6031 78.6092 78.8895 77.5857 78.0741 76.8692C79.2973 74.9244 81.5399 73.6962 83.8844 73.6962C86.5347 73.6962 88.9811 75.2315 90.1024 77.688L91.7334 76.9715C90.4082 74.2079 87.7579 72.3655 84.8018 71.9561C85.6173 71.4443 86.4328 70.9326 87.2482 70.4208C87.7579 70.2161 88.2676 70.0114 88.7773 69.909C89.185 69.8066 89.6947 69.8066 90.2044 69.8066C94.1799 69.8066 97.3399 72.9797 97.3399 76.9715C97.034 80.8611 93.8741 84.0341 89.8986 84.0341ZM97.034 71.4443C95.4031 69.2949 92.8547 67.8619 89.8986 67.8619C91.3257 66.5313 92.5489 64.9959 93.6702 63.2559L93.976 62.7441L93.6702 62.2323C92.5489 60.5946 91.3257 59.0593 89.8986 57.6263C92.8547 57.6263 95.4031 56.1933 97.034 54.0438V71.4443ZM89.8986 55.8863C89.3889 55.8863 88.9811 55.8863 88.4715 55.7839C87.9618 55.6815 87.4521 55.4768 87.0444 55.2721C86.2289 54.658 85.4134 54.1462 84.5979 53.6344C87.554 53.3274 90.2044 51.485 91.5295 48.619L89.8986 47.9025C88.7773 50.359 86.3308 51.8944 83.6805 51.8944C81.336 51.8944 79.0934 50.6661 77.8702 48.619C78.6857 47.8001 79.3992 46.8789 79.807 45.8554L78.176 45.1389C76.9528 47.8001 74.3024 49.4378 71.4482 49.4378C68.5941 49.4378 65.9437 47.6978 64.7205 45.1389L63.0895 45.8554C63.5992 46.8789 64.3128 47.9025 65.1282 48.619C63.905 50.5638 61.6624 51.792 59.3179 51.792C56.6676 51.792 54.2211 50.2567 53.0999 47.8001L51.4689 48.5166C52.7941 51.2802 55.3424 53.1226 58.4005 53.4297C57.585 53.9415 56.7695 54.4533 55.9541 55.0674C55.4444 55.2721 55.0366 55.4768 54.527 55.5792C54.1192 55.6815 53.6095 55.6815 53.0999 55.6815C49.1244 55.6815 45.9644 52.5085 45.9644 48.5166C45.9644 44.5248 49.1244 41.3517 53.0999 41.3517C54.8328 41.3517 56.4637 41.9659 57.7889 43.0918L58.7063 43.9106L59.216 42.7847C61.4586 37.974 66.2495 34.9033 71.4482 34.9033C76.647 34.9033 81.5399 37.974 83.6805 42.7847L84.1902 43.9106L85.1076 43.0918C86.4328 41.9659 88.0637 41.3517 89.7966 41.3517C93.7721 41.3517 96.9321 44.5248 96.9321 48.5166C97.034 52.7132 93.8741 55.8863 89.8986 55.8863ZM98.8689 76.8692V48.7213V45.9577H100.908V77.0739C100.194 77.1763 99.4805 77.5857 98.8689 77.9951V76.8692ZM101.825 84.3412L98.8689 81.3728C99.0728 79.9399 100.296 78.814 101.723 78.814C103.252 78.814 104.475 79.9399 104.577 81.4752L101.825 84.3412ZM104.781 78.0975C104.17 77.5857 103.456 77.2786 102.742 77.0739V45.9577H104.781V78.0975ZM104.781 44.2177H98.8689V40.9423H104.781V44.2177Z" fill="#072119"/>
<path d="M110.592 29.1716L111 28.7622L110.898 28.2504C110.185 25.5891 108.146 23.542 105.597 22.9279C104.578 22.6208 103.559 22.6208 102.539 22.7232C103.151 21.9043 103.661 20.9831 103.966 19.9596C104.68 17.4007 103.865 14.5347 102.03 12.6923L101.622 12.2829L101.112 12.3852C99.889 12.6923 98.8697 13.3064 97.9523 14.1253C98.7677 13.2041 99.3794 12.1805 99.6852 10.9523L99.7871 10.4405L99.3793 10.0311C97.5445 8.291 94.6903 7.47216 92.1419 8.18865C91.1226 8.49572 90.2052 8.90514 89.3897 9.62163C89.5935 8.59807 89.4916 7.57451 89.1858 6.55095C88.4723 3.99206 86.4335 1.94494 83.8852 1.22845L83.3755 1.02374L82.9677 1.43316C82.0503 2.25201 81.4387 3.37792 81.1329 4.50384C81.3368 3.37792 81.3368 2.14965 81.031 0.921385L80.929 0.409606L80.4194 0.30725C77.871 -0.409241 75.0168 0.30725 73.1819 2.25201C72.4684 2.9685 71.8568 3.8897 71.551 4.8109C71.1432 3.8897 70.6335 2.9685 69.92 2.25201C67.9832 0.30725 65.231 -0.409241 62.6826 0.30725L62.1729 0.409606L62.071 0.921385C61.5613 2.0473 61.5613 3.27557 61.8671 4.50384C61.4594 3.37792 60.8477 2.35437 60.0323 1.43316L59.6245 1.02374L59.1148 1.1261C56.4645 1.84259 54.4258 3.8897 53.8142 6.55095C53.5084 7.57451 53.5084 8.59807 53.6103 9.62163C52.7948 9.00749 51.8774 8.49572 50.8581 8.18865C48.3097 7.47216 45.4555 8.291 43.6206 10.1334L43.2129 10.5428L43.3148 11.0546C43.6206 12.2829 44.2323 13.3064 45.0477 14.2276C44.1303 13.4088 43.111 12.7947 41.8877 12.4876L41.3781 12.3852L40.9703 12.7947C39.1355 14.6371 38.4219 17.4007 39.1355 19.9596C39.4413 20.9831 39.849 21.9043 40.5626 22.7232C39.5432 22.5185 38.5239 22.6208 37.5045 22.9279C34.9561 23.6444 32.9174 25.6915 32.2039 28.2504L32 28.7622L32.4077 29.1716C33.8348 30.6046 35.7716 31.4234 37.7084 31.4234C38.0142 31.4234 38.32 31.4234 38.6258 31.3211C38.2181 32.8564 37.9123 34.4941 37.7084 36.1318H35.3639H33.529V37.9742V82.6013V83.3178L34.0387 83.932L37.6065 87.5144V89.3568V89.4592C37.8103 91.1992 38.1161 92.9393 38.5239 94.577C36.2813 94.3722 34.0387 95.1911 32.4077 96.8288L32 97.1359L32.1019 97.6476C32.8155 100.309 34.8542 102.356 37.4026 102.97C38.0142 103.175 38.7277 103.175 39.3394 103.175C39.7471 103.175 40.0529 103.175 40.4606 103.072C39.849 103.891 39.3394 104.813 39.0335 105.836C38.32 108.395 39.1355 111.261 40.9703 113.103L41.3781 113.513L41.8877 113.41C43.111 113.103 44.1303 112.489 45.0477 111.67C44.2323 112.592 43.6206 113.615 43.3148 114.843L43.2129 115.355L43.6206 115.765C45.0477 117.198 46.9845 118.016 48.9213 118.016C49.5329 118.016 50.2465 117.914 50.8581 117.812C51.8774 117.505 52.7948 117.095 53.6103 116.379C53.4065 117.402 53.5084 118.426 53.8142 119.449C54.5277 122.008 56.5665 124.055 59.1148 124.772L59.6245 124.874L60.0323 124.465C60.9497 123.646 61.5613 122.52 61.8671 121.394C61.6632 122.52 61.6632 123.748 61.969 124.977L62.071 125.488L62.5806 125.591C63.1923 125.795 63.9058 125.898 64.5174 125.898C66.4542 125.898 68.391 125.079 69.8181 123.748C70.5316 123.032 71.1432 122.111 71.449 121.189C71.8568 122.111 72.3665 123.032 73.08 123.748C74.5071 125.181 76.4439 125.898 78.3806 125.898C78.9923 125.898 79.7058 125.795 80.3174 125.591L80.8271 125.488L80.929 124.977C81.2348 123.748 81.2348 122.52 81.031 121.394C81.4387 122.52 82.0503 123.544 82.8658 124.465L83.2735 124.874L83.7832 124.772C86.4335 124.055 88.4723 122.008 89.0839 119.449C89.3897 118.426 89.3897 117.402 89.2877 116.379C90.1032 116.993 91.0206 117.505 92.04 117.812C92.6516 118.016 93.3652 118.016 93.9768 118.016C95.9135 118.016 97.8503 117.198 99.2774 115.765L99.6852 115.355L99.5832 114.843C99.2774 113.615 98.6658 112.592 97.8503 111.67C98.7677 112.489 99.7871 113.103 101.01 113.41L101.52 113.513L101.928 113.103C103.865 111.159 104.578 108.395 103.865 105.836C103.559 104.813 103.151 103.891 102.437 103.072C102.845 103.175 103.151 103.175 103.559 103.175C104.17 103.175 104.884 103.072 105.495 102.97C108.044 102.254 110.083 100.207 110.796 97.6476L110.898 97.1359L110.49 96.7264C108.859 95.0887 106.515 94.2699 104.272 94.577C104.68 92.8369 104.986 91.0969 105.19 89.2544V87.412L108.757 83.8296L109.267 83.3178V82.6013V37.9742V36.1318H107.432H105.088C104.884 34.4941 104.578 32.8564 104.17 31.3211C104.476 31.3211 104.782 31.4234 104.986 31.4234C107.228 31.4234 109.165 30.6046 110.592 29.1716ZM101.01 14.4324C102.234 15.8653 102.641 17.8101 102.132 19.5501C101.826 20.5737 101.316 21.4949 100.603 22.2114C100.195 22.6208 99.6852 23.0302 99.0735 23.235C98.8697 23.3373 98.7677 23.4397 98.5639 23.4397C97.8503 22.6208 97.4426 21.5973 97.3406 20.5737C97.2387 19.8572 97.2387 19.0384 97.4426 18.3219C97.4426 18.2195 97.5445 18.1172 97.5445 18.0148C98.1561 16.2748 99.3793 14.9441 101.01 14.4324ZM96.2194 16.4795C96.0155 16.2748 95.8116 16.07 95.7097 15.8653C96.3213 15.5583 96.9329 15.1488 97.4426 14.6371C96.9329 15.2512 96.5252 15.763 96.2194 16.4795ZM89.0839 12.7947C89.3897 12.2829 89.6955 11.7711 90.2052 11.3617C90.9187 10.7475 91.7342 10.2358 92.6516 9.9287C94.4865 9.41692 96.3213 9.9287 97.7484 11.0546C97.1368 12.6923 95.9135 13.9206 94.2826 14.5347C94.1806 14.5347 93.9768 14.6371 93.8748 14.6371C93.1613 14.8418 92.5497 14.8418 91.8361 14.8418C90.7148 14.7394 89.5935 14.2276 88.6761 13.5111C88.7781 13.3064 88.88 12.9994 89.0839 12.7947ZM95.6077 18.4242C95.5058 18.936 95.5058 19.5501 95.5058 20.0619C94.4865 18.8337 93.3652 17.7077 92.1419 16.5818C92.2439 16.5818 92.3458 16.5818 92.4477 16.5818C92.8555 16.5818 93.3652 16.4795 93.7729 16.4795C94.3845 17.0936 94.9961 17.8101 95.6077 18.4242ZM83.8852 3.07086C85.6181 3.68499 86.9432 5.11797 87.4529 6.96038C87.6568 7.88158 87.6568 8.90514 87.4529 9.72398C87.351 10.3381 87.0452 10.8499 86.7394 11.3617C86.6374 11.5664 86.4335 11.7711 86.2297 11.9758C85.1084 11.5664 84.089 10.7475 83.4774 9.82634C83.1716 9.31456 82.8658 8.70043 82.6619 8.08629C82.6619 7.88158 82.56 7.67687 82.56 7.47216C82.4581 6.03918 82.8658 4.40148 83.8852 3.07086ZM81.1329 9.10985C81.3368 9.62163 81.5406 10.1334 81.8465 10.6452C80.4194 10.1334 78.9923 9.72398 77.4632 9.41692C77.9729 9.10985 78.3806 8.80278 78.8903 8.39336C79.7058 8.70043 80.4194 8.90514 81.1329 9.10985ZM81.031 5.22033C80.929 5.83446 80.8271 6.4486 80.8271 7.16509C80.6232 7.06273 80.4194 7.06273 80.2155 6.96038C80.5213 6.34624 80.8271 5.83446 81.031 5.22033ZM73.08 5.83446C73.3858 4.91326 73.7935 4.09442 74.5071 3.48028C75.8323 2.14965 77.6671 1.53552 79.5019 1.94494C79.8077 3.58264 79.2981 5.22033 78.2787 6.55095C78.1768 6.65331 78.0748 6.85802 77.871 6.96038C77.4632 7.3698 76.9535 7.77922 76.3419 7.98394C75.2206 8.49572 73.9974 8.70043 72.7742 8.49572C72.7742 8.18865 72.7742 7.98394 72.7742 7.67687C72.7742 7.06273 72.8761 6.4486 73.08 5.83446ZM71.551 10.7475C86.3316 10.7475 98.6658 21.5973 100.705 36.1318H96.9329L97.2387 35.1082L96.4232 34.2894L95.4039 33.3682C95.2 33.1635 94.9961 33.0611 94.8942 32.9588C93.3652 21.1878 83.4774 12.3852 71.6529 12.3852C59.7265 12.3852 49.8387 21.1878 48.4116 32.9588C48.2077 33.0611 48.0039 33.2658 47.9019 33.3682L46.8826 34.2894L46.0671 35.1082L46.3729 36.1318H42.6013C44.3342 21.5973 56.6684 10.7475 71.551 10.7475ZM50.96 29.1716C51.5716 27.4315 52.2852 25.6915 53.3045 24.1562L55.8529 25.5891C55.1394 26.8174 54.6297 28.2504 54.2219 29.6834L50.96 29.1716ZM51.8774 31.2187C51.2658 31.3211 50.7561 31.5258 50.2465 31.7305C50.3484 31.4234 50.3484 31.2187 50.4503 30.9116L51.8774 31.2187ZM54.3239 22.7232C55.3432 21.2902 56.6684 20.0619 57.9935 18.936L59.6245 20.8808C58.5032 21.802 57.5858 22.9279 56.7703 24.1562L54.3239 22.7232ZM59.4206 17.9124C60.8477 16.9912 62.3768 16.1724 63.9058 15.5583L64.7213 17.7077C63.3961 18.2195 62.1729 18.936 60.9497 19.7549L59.4206 17.9124ZM71.551 18.2195C78.9923 18.2195 85.2103 23.1326 87.1471 30.0928C86.0258 27.9433 84.089 26.2033 81.6426 25.4868L80.4194 25.0774L79.2981 24.6679L78.4826 25.5891L77.5652 26.6127C76.4439 27.841 75.7303 29.2739 75.3226 30.9116C74.0994 30.6046 72.7742 30.5022 71.449 30.5022C70.1239 30.5022 68.9006 30.6046 67.5755 30.9116C67.1677 29.3763 66.4542 27.841 65.3329 26.6127L64.4155 25.5891L63.6 24.6679L62.4787 25.0774L61.2555 25.4868C58.809 26.3056 56.8723 27.9433 55.751 30.0928C57.7897 23.1326 64.1097 18.2195 71.551 18.2195ZM65.6387 15.0465C67.1677 14.6371 68.9006 14.33 70.5316 14.2276V16.3771C69.1045 16.4795 67.6774 16.6842 66.3523 17.0936L65.6387 15.0465ZM72.3664 16.4795V14.33C74.0994 14.4324 75.7303 14.6371 77.2594 15.1488L76.5458 17.196C75.2206 16.7865 73.7935 16.4795 72.3664 16.4795ZM78.2787 17.7077L79.0942 15.5583C80.7252 16.1724 82.2542 16.8889 83.5794 17.9124L82.0503 19.7549C80.8271 18.936 79.6039 18.3219 78.2787 17.7077ZM86.3316 24.1562C85.5161 22.9279 84.4968 21.9043 83.4774 20.8808L85.1084 18.936C86.4335 20.0619 87.7587 21.2902 88.7781 22.7232L86.3316 24.1562ZM89.7974 24.2585C90.8168 25.7938 91.5303 27.4315 92.1419 29.2739L88.88 29.8881C88.4723 28.4551 87.9626 27.1245 87.249 25.7938L89.7974 24.2585ZM92.5497 30.9116C92.6516 31.2187 92.6516 31.4234 92.7535 31.7305C92.2439 31.5258 91.6323 31.3211 91.1226 31.2187L92.5497 30.9116ZM46.7806 16.4795C46.4748 15.8653 46.0671 15.2512 45.5574 14.7394C46.0671 15.2512 46.6787 15.5583 47.2903 15.9677C47.0865 16.07 46.9845 16.2748 46.7806 16.4795ZM47.3923 18.4242C48.0039 17.8101 48.6155 17.0936 49.2271 16.4795C49.6348 16.5818 50.1445 16.5818 50.5523 16.5818C50.6542 16.5818 50.7561 16.5818 50.8581 16.5818C49.6348 17.6054 48.5135 18.8337 47.4942 20.0619C47.5961 19.5501 47.4942 18.936 47.3923 18.4242ZM63.4981 1.94494C65.3329 1.63788 67.1677 2.25201 68.4929 3.48028C69.2065 4.19677 69.6142 5.01562 69.92 5.83446C70.1239 6.4486 70.2258 7.06273 70.1239 7.67687C70.1239 7.98394 70.1239 8.291 70.0219 8.49572C68.7987 8.70043 67.5755 8.49572 66.4542 7.98394C65.9445 7.67687 65.4348 7.3698 64.9252 6.96038C64.8232 6.85802 64.6194 6.65331 64.5174 6.55095C63.7019 5.22033 63.2942 3.48028 63.4981 1.94494ZM62.7845 6.96038C62.5806 7.06273 62.3768 7.06273 62.1729 7.16509C62.1729 6.55095 62.1729 5.83446 61.969 5.22033C62.1729 5.83446 62.4787 6.34624 62.7845 6.96038ZM61.8671 9.10985C62.5806 8.90514 63.3961 8.70043 64.2116 8.49572C64.6194 8.90514 65.129 9.21221 65.6387 9.51927C64.1097 9.82634 62.6826 10.2358 61.2555 10.7475C61.4594 10.1334 61.6632 9.62163 61.8671 9.10985ZM55.5471 6.96038C56.0568 5.11797 57.3819 3.68499 59.1148 3.07086C60.1342 4.29913 60.6439 6.03918 60.3381 7.67687C60.3381 7.88158 60.2361 8.08629 60.2361 8.291C60.0323 8.90514 59.8284 9.51927 59.4206 10.0311C58.7071 11.0546 57.7897 11.7711 56.6684 12.1805C56.4645 11.9758 56.3626 11.7711 56.1587 11.5664C55.8529 11.0546 55.649 10.4405 55.4452 9.9287C55.2413 8.90514 55.2413 7.88158 55.5471 6.96038ZM50.4503 9.9287C51.3677 10.1334 52.1832 10.6452 52.8968 11.3617C53.3045 11.7711 53.7123 12.2829 54.0181 12.7947C54.12 12.9994 54.2219 13.3064 54.3239 13.5111C53.4065 14.2276 52.3871 14.7394 51.1639 14.8418C50.4503 14.9441 49.8387 14.8418 49.1252 14.6371C49.0232 14.6371 48.8194 14.5347 48.7174 14.5347C47.0865 13.9206 45.8632 12.6923 45.2516 11.0546C46.6787 9.9287 48.6155 9.41692 50.4503 9.9287ZM41.9897 14.4324C43.6206 15.0465 44.8439 16.3771 45.4555 18.0148C45.4555 18.1172 45.5574 18.2195 45.5574 18.3219C45.7613 19.0384 45.7613 19.8572 45.6594 20.5737C45.5574 21.5973 45.0477 22.6208 44.4361 23.4397C44.2323 23.3373 44.1303 23.3373 43.9265 23.235C43.4168 22.9279 42.9071 22.6208 42.3974 22.2114C41.6839 21.4949 41.1742 20.5737 40.8684 19.5501C40.3587 17.7077 40.7665 15.763 41.9897 14.4324ZM34.0387 28.2504C34.6503 26.5103 36.0774 25.1797 37.9123 24.6679C38.9316 24.3609 40.0529 24.4632 41.0723 24.7703C41.6839 24.975 42.1935 25.1797 42.7032 25.5891C42.8052 25.6915 43.009 25.7938 43.111 25.8962C42.8052 26.8174 42.2955 27.5339 41.5819 28.148C40.9703 28.7622 40.1548 29.1716 39.2374 29.4787C37.4026 29.8881 35.4658 29.3763 34.0387 28.2504ZM41.9897 29.9904C41.3781 31.9352 40.8684 33.9823 40.5626 36.1318H39.5432C39.7471 34.2894 40.1548 32.5493 40.5626 30.8093C41.0723 30.6046 41.48 30.2975 41.9897 29.9904ZM37.9123 101.332C36.0774 100.821 34.6503 99.49 34.0387 97.75C35.4658 96.5217 37.3006 96.1123 39.1355 96.6241C40.0529 96.8288 40.7665 97.3406 41.48 97.8523C42.1935 98.4665 42.7032 99.2853 43.009 100.104C42.9071 100.207 42.7032 100.309 42.6013 100.411C42.0916 100.718 41.5819 101.025 40.9703 101.23C40.0529 101.537 38.9316 101.537 37.9123 101.332ZM39.4413 89.3568L39.951 89.8686L40.6645 90.5851C40.9703 92.4275 41.3781 94.2699 41.9897 96.0099C41.5819 95.7029 41.0723 95.3958 40.6645 95.1911C40.0529 93.2463 39.6452 91.3016 39.4413 89.3568ZM41.9897 111.568C40.7665 110.135 40.3587 108.19 40.8684 106.45C41.1742 105.427 41.6839 104.505 42.3974 103.789C42.8052 103.38 43.3148 102.97 43.9265 102.765C44.1303 102.663 44.2323 102.561 44.4361 102.561C45.1497 103.38 45.5574 104.403 45.6594 105.427C45.7613 106.143 45.7613 106.962 45.5574 107.678C45.5574 107.781 45.4555 107.883 45.4555 107.986C44.8439 109.623 43.6206 110.954 41.9897 111.568ZM46.7806 109.521C46.9845 109.726 47.1884 109.93 47.2903 110.135C46.6787 110.442 46.0671 110.852 45.5574 111.363C46.0671 110.749 46.4748 110.135 46.7806 109.521ZM53.9161 113.103C53.6103 113.615 53.3045 114.127 52.7948 114.536C52.0813 115.15 51.2658 115.662 50.3484 115.969C48.5135 116.481 46.6787 115.969 45.2516 114.843C45.8632 113.206 47.0865 111.977 48.7174 111.363C48.8194 111.363 49.0232 111.261 49.1252 111.261C49.8387 111.056 50.4503 111.056 51.1639 111.056C52.2852 111.159 53.4065 111.67 54.3239 112.387C54.2219 112.694 54.12 112.899 53.9161 113.103ZM47.3923 107.576C47.4942 107.064 47.4942 106.45 47.4942 105.938C48.5135 107.167 49.6348 108.293 50.8581 109.419C50.3484 109.419 49.7368 109.419 49.2271 109.521C48.6155 108.804 48.0039 108.19 47.3923 107.576ZM59.1148 122.827C57.3819 122.213 56.0568 120.78 55.5471 118.938C55.3432 118.016 55.3432 116.993 55.5471 116.174C55.649 115.56 55.9548 115.048 56.2606 114.536C56.3626 114.332 56.5665 114.127 56.7703 113.922C57.8916 114.332 58.911 115.15 59.5226 116.072C59.8284 116.583 60.1342 117.198 60.3381 117.812C60.3381 118.016 60.44 118.221 60.44 118.426C60.5419 119.859 60.1342 121.599 59.1148 122.827ZM61.8671 116.891C61.6632 116.379 61.4594 115.867 61.1535 115.355C62.5806 115.867 64.0077 116.276 65.5368 116.583C65.0271 116.891 64.6194 117.198 64.1097 117.607C63.3961 117.3 62.5806 117.095 61.8671 116.891ZM61.969 120.78C62.071 120.166 62.1729 119.552 62.1729 118.835C62.3768 118.938 62.5806 118.938 62.7845 119.04C62.4787 119.552 62.1729 120.166 61.969 120.78ZM69.92 120.064C69.6142 120.985 69.2065 121.804 68.4929 122.418C67.1677 123.748 65.3329 124.362 63.4981 123.953C63.1923 122.315 63.6 120.678 64.7213 119.347C64.8232 119.245 64.9252 119.04 65.129 118.938C65.5368 118.528 66.0465 118.119 66.6581 117.914C67.7794 117.402 69.0026 117.198 70.2258 117.402C70.2258 117.709 70.3277 118.016 70.3277 118.221C70.2258 118.938 70.1239 119.552 69.92 120.064ZM71.449 115.253C56.6684 115.253 44.3342 104.403 42.2955 89.9709L42.3974 89.8686L45.8632 86.3885C46.169 86.6956 46.5768 86.9003 46.9845 87.105C46.8826 87.412 46.6787 87.8215 46.5768 88.1285L46.169 89.3568L45.7613 90.4827L46.5768 91.3016L47.5961 92.2228C47.8 92.3251 47.9019 92.5298 48.1058 92.6322C49.431 104.608 59.4206 113.513 71.449 113.513C83.4774 113.513 93.4671 104.505 94.7923 92.6322C94.9961 92.5298 95.0981 92.3251 95.3019 92.2228L96.3213 91.3016L97.1368 90.4827L96.729 89.3568L96.3213 88.1285C96.2194 87.8215 96.1174 87.412 95.9135 87.105C96.3213 86.9003 96.6271 86.5932 97.0348 86.3885L100.501 89.8686L100.603 89.9709C98.5639 104.403 86.2297 115.253 71.449 115.253ZM92.04 96.7264C91.4284 98.4665 90.7148 100.207 89.6955 101.742L87.249 100.309C87.9626 99.0806 88.4723 97.6476 88.88 96.2147L92.04 96.7264ZM90.1032 94.577C91.0206 94.4746 91.9381 94.1675 92.7535 93.8605C92.6516 94.2699 92.6516 94.6793 92.5497 95.0887L90.1032 94.577ZM83.3755 105.017C84.4968 104.096 85.4142 102.97 86.2297 101.742L88.6761 103.175C87.6568 104.608 86.3316 105.836 85.0065 106.962L83.3755 105.017ZM83.5794 108.088C82.1523 109.009 80.6232 109.828 79.0942 110.442L78.2787 108.293C79.6039 107.781 80.8271 107.064 82.0503 106.246L83.5794 108.088ZM71.449 107.781C63.8039 107.781 57.28 102.458 55.649 95.1911C56.7703 97.5453 58.809 99.3877 61.3574 100.207L62.5806 100.616L63.7019 101.025L64.5174 100.207L65.4348 99.183C66.5561 97.9547 67.2697 96.5217 67.6774 94.884C68.9006 95.1911 70.2258 95.2934 71.551 95.2934C72.8761 95.2934 74.0994 95.1911 75.4245 94.884C75.8323 96.4194 76.5458 97.9547 77.6671 99.183L78.5845 100.207L79.4 101.128L80.5213 100.718L81.7445 100.309C84.2929 99.49 86.3316 97.6476 87.4529 95.2934C85.6181 102.458 79.1961 107.781 71.449 107.781ZM77.3613 110.954C75.8323 111.363 74.0994 111.67 72.4684 111.773V109.521C73.8955 109.419 75.3226 109.214 76.6477 108.804L77.3613 110.954ZM70.6335 109.521V111.67C68.9006 111.568 67.2697 111.363 65.7406 110.852L66.4542 108.804C67.7794 109.214 69.1045 109.419 70.6335 109.521ZM60.9497 106.143C62.071 106.962 63.3961 107.678 64.7213 108.19L63.9058 110.34C62.2748 109.726 60.7458 109.009 59.4206 107.986L60.9497 106.143ZM57.9935 106.962C56.6684 105.836 55.3432 104.608 54.3239 103.175L56.7703 101.742C57.5858 102.97 58.6052 103.994 59.6245 105.017L57.9935 106.962ZM55.751 100.309L53.2026 101.742C52.1832 100.207 51.4697 98.5688 50.8581 96.7264L54.12 96.1123C54.5277 97.6476 55.0374 98.9783 55.751 100.309ZM50.4503 94.9864C50.3484 94.577 50.2465 94.1675 50.2465 93.7581C51.0619 94.1675 51.9794 94.3722 52.8968 94.4746L50.4503 94.9864ZM96.2194 109.521C96.5252 110.135 96.9329 110.749 97.4426 111.261C96.9329 110.749 96.3213 110.442 95.7097 110.033C95.9135 109.93 96.0155 109.726 96.2194 109.521ZM95.6077 107.576C94.9961 108.19 94.3845 108.907 93.7729 109.521C93.2632 109.419 92.6516 109.419 92.1419 109.419C93.3652 108.395 94.4865 107.167 95.5058 105.938C95.4039 106.45 95.5058 106.962 95.6077 107.576ZM79.5019 124.055C77.6671 124.362 75.8323 123.748 74.5071 122.52C73.7935 121.804 73.3858 120.985 73.08 120.166C72.8761 119.552 72.7742 118.938 72.8761 118.324C72.8761 118.016 72.8761 117.709 72.9781 117.505C74.2013 117.3 75.4245 117.505 76.5458 118.016C77.0555 118.324 77.5652 118.631 78.0748 119.04C78.1768 119.142 78.3806 119.347 78.4826 119.449C79.2981 120.78 79.7058 122.418 79.5019 124.055ZM80.2155 119.04C80.4194 118.938 80.6232 118.938 80.8271 118.835C80.8271 119.449 80.8271 120.166 81.031 120.78C80.8271 120.166 80.5213 119.552 80.2155 119.04ZM81.1329 116.891C80.4194 117.095 79.6039 117.3 78.7884 117.505C78.3806 117.095 77.871 116.788 77.3613 116.481C78.8903 116.174 80.3174 115.765 81.7445 115.253C81.5406 115.765 81.3368 116.276 81.1329 116.891ZM87.4529 118.938C86.9432 120.78 85.6181 122.213 83.8852 122.827C82.8658 121.599 82.3561 119.859 82.6619 118.221C82.6619 118.016 82.7639 117.812 82.7639 117.607C82.9677 116.993 83.1716 116.379 83.5794 115.867C84.2929 114.843 85.2103 114.127 86.3316 113.717C86.5355 113.922 86.6374 114.127 86.8413 114.332C87.1471 114.843 87.351 115.458 87.5548 115.969C87.7587 117.095 87.7587 118.016 87.4529 118.938ZM92.5497 115.969C91.6323 115.765 90.8168 115.253 90.1032 114.536C89.6955 114.127 89.2877 113.615 88.9819 113.103C88.88 112.899 88.7781 112.592 88.6761 112.387C89.5935 111.67 90.6129 111.159 91.8361 111.056C92.5497 110.954 93.1613 111.056 93.8748 111.261C93.9768 111.261 94.1806 111.363 94.2826 111.363C95.9135 111.977 97.1368 113.206 97.7484 114.843C96.3213 116.072 94.3845 116.481 92.5497 115.969ZM101.01 111.568C99.3793 110.954 98.1561 109.623 97.5445 107.986C97.5445 107.883 97.4426 107.781 97.4426 107.678C97.2387 106.962 97.2387 106.143 97.3406 105.427C97.4426 104.403 97.9523 103.38 98.5639 102.561C98.7677 102.663 98.8697 102.663 99.0735 102.765C99.5832 103.072 100.093 103.38 100.603 103.789C101.316 104.505 101.928 105.427 102.132 106.45C102.641 108.19 102.234 110.135 101.01 111.568ZM108.961 97.75C108.35 99.49 106.923 100.821 105.088 101.332C104.068 101.64 102.947 101.537 101.928 101.23C101.316 101.025 100.806 100.821 100.297 100.411C100.195 100.309 99.991 100.207 99.889 100.104C100.195 99.183 100.705 98.4665 101.418 97.8523C102.03 97.2382 102.845 96.8288 103.763 96.5217C105.597 96.1123 107.534 96.5217 108.961 97.75ZM101.01 95.9076C101.622 94.1675 102.03 92.3251 102.335 90.4827L103.049 89.7662L103.559 89.2544C103.355 91.3016 102.947 93.2463 102.437 95.0887C101.928 95.3958 101.418 95.6005 101.01 95.9076ZM107.636 37.9742V82.6013L101.724 88.538L97.1368 83.932C96.1174 85.0579 94.7923 85.8767 93.3652 86.3885C93.8748 87.105 94.2826 87.9238 94.5884 88.7427L94.9961 89.9709L93.9768 90.8922C92.5497 92.2228 90.6129 92.9393 88.7781 92.9393C88.1665 92.9393 87.4529 92.8369 86.8413 92.6322C86.6374 92.5298 86.4335 92.5298 86.2297 92.4275C86.2297 92.6322 86.1277 92.8369 86.1277 93.0416C85.4142 95.6005 83.5794 97.6476 81.031 98.4665L79.8077 98.8759L78.8903 97.8523C77.5652 96.317 76.8516 94.4746 76.8516 92.5298C75.1187 93.144 73.2839 93.451 71.449 93.451C69.6142 93.451 67.7794 93.144 66.0465 92.5298C66.0465 94.4746 65.3329 96.4194 64.0077 97.8523L63.0903 98.8759L61.8671 98.4665C59.3187 97.6476 57.4839 95.6005 56.7703 93.0416C56.6684 92.8369 56.6684 92.6322 56.6684 92.4275C56.4645 92.5298 56.2606 92.5298 56.0568 92.6322C55.4452 92.8369 54.7316 92.9393 54.12 92.9393C52.1832 92.9393 50.3484 92.2228 48.9213 90.8922L47.9019 89.9709L48.3097 88.7427C48.6155 87.9238 49.0232 87.105 49.5329 86.3885C48.1058 85.8767 46.8826 85.0579 45.7613 83.932L41.1742 88.538L35.2619 82.6013V37.9742H46.9845V40.6354C47.6981 40.0213 48.6155 39.6119 49.431 39.3048C48.9213 38.5883 48.5135 37.7695 48.2077 36.9506L47.8 35.7224L48.8194 34.8012C50.2465 33.4705 52.0813 32.754 54.0181 32.754C54.7316 32.754 55.3432 32.8564 56.0568 33.0611C56.2606 33.1635 56.4645 33.1635 56.6684 33.2658C56.6684 33.0611 56.7703 32.8564 56.7703 32.6517C57.4839 30.0928 59.3187 28.0457 61.8671 27.2268L63.0903 26.8174L64.0077 27.841C65.3329 29.3763 66.0465 31.2187 66.0465 33.1635C67.7794 32.5493 69.6142 32.2423 71.449 32.2423C73.2839 32.2423 75.1187 32.5493 76.8516 33.1635C76.8516 31.2187 77.5652 29.2739 78.8903 27.841L79.8077 26.8174L81.031 27.2268C83.5794 28.0457 85.4142 30.0928 86.1277 32.6517C86.2297 32.8564 86.2297 33.0611 86.2297 33.2658C86.4335 33.1635 86.6374 33.1635 86.8413 33.0611C87.5548 32.8564 88.1665 32.754 88.88 32.754C90.8168 32.754 92.6516 33.4705 94.0787 34.8012L95.0981 35.7224L94.6903 36.9506C94.3845 37.7695 93.9768 38.5883 93.4671 39.3048C94.3845 39.6119 95.2 40.1237 95.9135 40.6354V37.9742H107.636ZM101.01 29.9904C101.418 30.2975 101.928 30.6046 102.335 30.8093C102.845 32.5493 103.151 34.2894 103.457 36.1318H102.437C102.234 33.9823 101.724 31.9352 101.01 29.9904ZM103.865 29.3763C102.947 29.1716 102.132 28.6598 101.52 28.0457C100.806 27.4315 100.297 26.6127 99.991 25.7938C100.093 25.6915 100.297 25.5891 100.399 25.4868C100.908 25.1797 101.418 24.8726 102.03 24.6679C103.049 24.3609 104.068 24.3609 105.088 24.5656C106.923 25.0774 108.35 26.408 108.961 28.148C107.534 29.3763 105.699 29.8881 103.865 29.3763Z" fill="#072119"/>
<path d="M81.5404 100.104L80.3172 100.513L79.1959 100.923L78.3804 100.002L77.463 98.978C76.3417 97.7497 75.6282 96.3168 75.2204 94.6791C74.0991 95.0885 72.774 95.1909 71.4488 95.1909C70.1237 95.1909 68.9004 95.0885 67.5753 94.7814C67.1675 96.3168 66.454 97.8521 65.3327 99.0804L64.4153 100.104L63.5998 100.923L62.4785 100.513L61.2553 100.104C58.7069 99.2851 56.6682 97.4427 55.5469 95.0885C57.1778 102.458 63.5998 107.678 71.3469 107.678C78.992 107.678 85.414 102.356 87.1469 95.0885C86.1275 97.545 84.0888 99.2851 81.5404 100.104Z" fill="#F9F9F4"/>
<path d="M71.5493 18.2194C64.108 18.2194 57.8899 23.1324 55.9531 30.0926C57.0744 27.9432 59.0112 26.3055 61.4576 25.4866L62.6809 25.0772L63.8022 24.6678L64.6176 25.589L65.5351 26.6125C66.6564 27.8408 67.3699 29.2738 67.7776 30.9115C69.0009 30.6044 70.326 30.5021 71.6512 30.5021C72.9764 30.5021 74.1996 30.6044 75.5247 30.9115C75.9325 29.3761 76.646 27.8408 77.7673 26.6125L78.6847 25.589L79.5002 24.7701L80.6215 25.1796L81.8448 25.589C84.2912 26.4078 86.228 28.0455 87.3493 30.195C85.2086 23.2348 78.8886 18.2194 71.5493 18.2194Z" fill="#F9F9F4"/>
</g>
<defs>
<linearGradient id="paint0_linear_3023_5264" x1="19" y1="39.4835" x2="76.6095" y2="110.876" gradientUnits="userSpaceOnUse">
<stop stop-color="#C5E0DB"/>
<stop offset="1" stop-color="#89B6AD"/>
</linearGradient>
<clipPath id="clip0_3023_5264">
<rect width="79" height="126" fill="white" transform="translate(32)"/>
</clipPath>
</defs>
</svg>
