<svg width="29" height="29" viewBox="0 0 29 29" fill="none" xmlns="http://www.w3.org/2000/svg">
<path fill-rule="evenodd" clip-rule="evenodd" d="M14.4615 0C22.4431 0 28.9231 6.35624 28.9231 14.1853C28.9231 22.0144 22.4431 28.3706 14.4615 28.3706C6.48002 28.3706 0 22.0144 0 14.1853C0 6.35624 6.48002 0 14.4615 0ZM14.4615 5.31949C12.0069 5.31949 11.6991 5.32968 10.735 5.37285C9.77296 5.4159 9.11592 5.56579 8.54096 5.78494C7.94662 6.01152 7.44256 6.31468 6.94007 6.80756C6.43759 7.30044 6.12853 7.79488 5.89754 8.37786C5.67412 8.94178 5.52137 9.58627 5.47742 10.5299C5.43347 11.4756 5.42308 11.7775 5.42308 14.1853C5.42308 16.5931 5.43347 16.895 5.47742 17.8407C5.52137 18.7843 5.67412 19.4288 5.89754 19.9927C6.12853 20.5757 6.43759 21.0702 6.94007 21.5631C7.44256 22.056 7.94662 22.3591 8.54096 22.5857C9.11592 22.8048 9.77296 22.9547 10.735 22.9978C11.6991 23.0409 12.0069 23.0511 14.4615 23.0511C16.9162 23.0511 17.224 23.0409 18.1881 22.9978C19.1501 22.9547 19.8072 22.8048 20.3821 22.5857C20.9764 22.3591 21.4805 22.056 21.983 21.5631C22.4855 21.0702 22.7946 20.5757 23.0256 19.9927C23.2489 19.4288 23.4017 18.7843 23.4456 17.8407C23.4896 16.895 23.5 16.5931 23.5 14.1853C23.5 11.7775 23.4896 11.4756 23.4456 10.5299C23.4017 9.58627 23.2489 8.94178 23.0256 8.37786C22.7946 7.79488 22.4855 7.30044 21.983 6.80756C21.4805 6.31468 20.9764 6.01152 20.3821 5.78494C19.8072 5.56579 19.1501 5.4159 18.1881 5.37285C17.224 5.32968 16.9162 5.31949 14.4615 5.31949ZM14.4615 6.91694C16.8749 6.91694 17.1608 6.92597 18.1139 6.96864C18.9951 7.00809 19.4737 7.1525 19.7922 7.2739C20.2141 7.43471 20.5152 7.62687 20.8314 7.93712C21.1478 8.24731 21.3436 8.54271 21.5075 8.95652C21.6313 9.26893 21.7786 9.73832 21.8187 10.6027C21.8622 11.5376 21.8715 11.818 21.8715 14.1853C21.8715 16.5526 21.8622 16.833 21.8187 17.7679C21.7786 18.6323 21.6313 19.1017 21.5075 19.4141C21.3436 19.828 21.1478 20.1233 20.8314 20.4335C20.5152 20.7438 20.2141 20.9359 19.7922 21.0967C19.4737 21.2181 18.9951 21.3626 18.1139 21.402C17.1609 21.4446 16.8751 21.4537 14.4615 21.4537C12.048 21.4537 11.7622 21.4446 10.8092 21.402C9.92797 21.3626 9.44944 21.2181 9.13094 21.0967C8.70901 20.9359 8.40792 20.7438 8.09163 20.4335C7.77534 20.1233 7.57949 19.828 7.41555 19.4141C7.29178 19.1017 7.14451 18.6323 7.10429 17.7679C7.06079 16.833 7.05164 16.5526 7.05164 14.1853C7.05164 11.818 7.06079 11.5376 7.10429 10.6027C7.14451 9.73832 7.29178 9.26893 7.41555 8.95652C7.57949 8.54271 7.77534 8.24731 8.09163 7.93712C8.40792 7.62687 8.70901 7.43471 9.13094 7.2739C9.44944 7.1525 9.92797 7.00809 10.8092 6.96864C11.7623 6.92597 12.0482 6.91694 14.4615 6.91694ZM14.4615 9.6326C11.8982 9.6326 9.82018 11.6709 9.82018 14.1853C9.82018 16.6997 11.8982 18.738 14.4615 18.738C17.0249 18.738 19.1029 16.6997 19.1029 14.1853C19.1029 11.6709 17.0249 9.6326 14.4615 9.6326ZM14.4615 17.1406C12.7976 17.1406 11.4487 15.8174 11.4487 14.1853C11.4487 12.5532 12.7976 11.2301 14.4615 11.2301C16.1255 11.2301 17.4744 12.5532 17.4744 14.1853C17.4744 15.8174 16.1255 17.1406 14.4615 17.1406ZM20.371 9.45273C20.371 10.0403 19.8853 10.5166 19.2863 10.5166C18.6873 10.5166 18.2017 10.0403 18.2017 9.45273C18.2017 8.86515 18.6873 8.38883 19.2863 8.38883C19.8853 8.38883 20.371 8.86515 20.371 9.45273Z" fill="#1D2926"/>
</svg>
