<svg xmlns="http://www.w3.org/2000/svg" width="96.542" height="50" viewBox="0 0 96.542 50"><defs><style>.a{fill:none;}.b,.c{fill:#7c878e;}.b{fill-rule:evenodd;}</style></defs><rect class="a" width="96.542" height="50"/><g transform="translate(3.644 3.643)"><path class="b" d="M238.093,189.665v-8.735L213.984,197.81l23.981,17.122v-7.916l-12.111-9.081Z" transform="translate(-213.962 -180.929)"/><path class="b" d="M213.97,180.973H220.5v9.307l-6.527,4.193Z" transform="translate(-213.949 -180.968)"/><path class="b" d="M213.97,369.664H220.5v-9.009l-6.527-4.611Z" transform="translate(-213.949 -335.647)"/><path class="b" d="M437.97,244.111h6.4V225.268l-6.4-11.329Z" transform="translate(-411.858 -210.094)"/><path class="b" d="M645.373,244.108h-6.4V225.264l6.4-11.329Z" transform="translate(-589.446 -210.091)"/><path class="b" d="M445.592,180.933h-7.661l15.033,24.1,14.787-24.081H460.81l-7.735,12.276Z" transform="translate(-411.823 -180.933)"/><path class="b" d="M731.324,213.6a18.626,18.626,0,0,1-6.994,1.384,16.83,16.83,0,1,1,0-33.658,18.528,18.528,0,0,1,7.544,1.409,19.389,19.389,0,0,1,5.4,3.582c-.012,0-4.574,5.261-4.578,5.25a11.85,11.85,0,0,0-8.371-3.66c-5.629,0-9.534,4.619-9.534,10.248s3.69,10.249,9.319,10.249a12.116,12.116,0,0,0,7.206-2.525C731.317,205.884,731.324,213.6,731.324,213.6Z" transform="translate(-649.993 -181.279)"/><path class="c" d="M0,5.945V0H5.942V.005L0,5.944Z" transform="translate(83.313 17.096)"/><path class="c" d="M5.939,10.95H0V0L5.939,5.939v5.01Z" transform="translate(83.313 23.043)"/><path class="c" d="M10.019,5.945H0V0H4.107l5.912,5.912v.033Z" transform="translate(73.301 17.096)"/><path class="c" d="M-485.954-50.946h-1.018v-5.017h1.018v2.206l.679-.074.826-2.132h1.158l-1.092,2.516,1.122,2.5h-1.173l-.841-2-.679.074Zm3.5,0v-5.017h3.246v.885h-2.228V-53.9h1.785v.871h-1.785v1.2h2.228v.886Zm6.249,0h-1.018v-2.029l-1.549-2.988h1.129l.922,2,.922-2h1.129l-1.535,2.988Zm3.992,0v-5.017h1.734l.885,3.66.885-3.66h1.734v5.017H-468v-3.881h-.111l-.981,3.66h-1.018l-.981-3.66h-.111v3.881Zm6.05,0,1.129-5.017h1.933l1.129,5.017h-1.018l-.2-.908h-1.756l-.2.908Zm1.918-4.176-.509,2.383h1.372l-.509-2.383Zm3.084,4.176v-5.017h1.719l1.21,4.132h.074v-4.132h1.018v5.017h-1.675l-1.254-4.132h-.074v4.132Zm4.833,0,1.129-5.017h1.933l1.129,5.017h-1.018l-.2-.908h-1.756l-.2.908Zm1.918-4.176-.509,2.383h1.372l-.509-2.383Zm5.1,2.376v-.885h1.461v2.6a11.27,11.27,0,0,1-1.712.17,1.838,1.838,0,0,1-1.612-.627,3.536,3.536,0,0,1-.439-1.992,3.311,3.311,0,0,1,.457-1.97,1.831,1.831,0,0,1,1.557-.605,7.8,7.8,0,0,1,1.483.155l.266.052-.03.789a14,14,0,0,0-1.45-.1,1.694,1.694,0,0,0-.793.133.8.8,0,0,0-.336.491,4.824,4.824,0,0,0-.107,1.225,2.469,2.469,0,0,0,.214,1.214.964.964,0,0,0,.885.347l.612-.03v-.974Zm2.56,1.8v-5.017h3.247v.885h-2.228V-53.9h1.785v.871h-1.785v1.2h2.228v.886Zm4.228,0v-5.017h1.734l.885,3.66.885-3.66h1.734v5.017h-1.019v-3.881h-.11l-.981,3.66h-1.018l-.981-3.66h-.111v3.881Zm6.471,0v-5.017h3.246v.885h-2.228V-53.9h1.785v.871h-1.785v1.2h2.228v.886Zm4.228,0v-5.017h1.719l1.21,4.132h.074v-4.132h1.018v5.017h-1.675l-1.254-4.132h-.074v4.132Zm4.8-4.117v-.9h3.689v.9h-1.328v4.117h-1.018v-4.117Zm8.323,2.317v-.885h1.461v2.6a11.271,11.271,0,0,1-1.712.17,1.838,1.838,0,0,1-1.612-.627A3.534,3.534,0,0,1-421-53.477a3.311,3.311,0,0,1,.457-1.97,1.831,1.831,0,0,1,1.557-.605,7.8,7.8,0,0,1,1.483.155l.266.052-.03.789a14,14,0,0,0-1.45-.1,1.7,1.7,0,0,0-.793.133.8.8,0,0,0-.336.491,4.821,4.821,0,0,0-.107,1.225,2.468,2.468,0,0,0,.214,1.214.964.964,0,0,0,.885.347l.612-.03v-.974Zm3.578.118v1.682h-1.018v-5.017h1.948q1.771,0,1.771,1.653a1.587,1.587,0,0,1-.738,1.446l.716,1.918h-1.114l-.583-1.682Zm.944-.871a.648.648,0,0,0,.539-.221.905.905,0,0,0,.177-.583.84.84,0,0,0-.188-.576.684.684,0,0,0-.542-.214h-.93V-53.5Zm3.8,1.369a.852.852,0,0,0,.815.387.852.852,0,0,0,.815-.387,2.822,2.822,0,0,0,.218-1.3,2.957,2.957,0,0,0-.221-1.325.837.837,0,0,0-.812-.413.837.837,0,0,0-.812.413,2.954,2.954,0,0,0-.221,1.324A2.824,2.824,0,0,0-410.382-52.13Zm2.428.649a1.892,1.892,0,0,1-1.612.624,1.892,1.892,0,0,1-1.612-.624,3.262,3.262,0,0,1-.468-1.952,3.37,3.37,0,0,1,.468-1.974,1.861,1.861,0,0,1,1.612-.646,1.861,1.861,0,0,1,1.612.646,3.37,3.37,0,0,1,.469,1.974A3.261,3.261,0,0,1-407.954-51.481Zm2.453-1.14a.783.783,0,0,0,.893.878.783.783,0,0,0,.893-.878v-3.342h1.018v3.32a1.743,1.743,0,0,1-.476,1.354,2.077,2.077,0,0,1-1.435.432,2.077,2.077,0,0,1-1.435-.432,1.743,1.743,0,0,1-.476-1.354v-3.32h1.018Zm5.836.214h-.826v1.461h-1.018v-5.017h1.844a1.559,1.559,0,0,1,1.785,1.741,1.858,1.858,0,0,1-.454,1.347A1.771,1.771,0,0,1-399.665-52.407Zm-.826-.871h.819q.76,0,.76-.944a.981.981,0,0,0-.184-.668.74.74,0,0,0-.576-.2h-.819Z" transform="translate(486.972 93.571)"/><path class="c" d="M5.939,5.939H0L5.939,0Z" transform="translate(83.313 17.101)"/><path class="c" d="M5.939,5.939H0L5.939,0Z" transform="translate(83.313 28.983) rotate(-90)"/><path class="c" d="M5.912,5.912h0L0,0H5.912Z" transform="translate(77.408 17.096)"/></g></svg>