<svg xmlns="http://www.w3.org/2000/svg" width="122.993" height="58.736" viewBox="0 0 122.993 58.736"><defs><style>.a{fill-rule:evenodd;}.b{fill:#eabd5a;}.c{fill:#456abb;}.d{fill:#d57f2e;}.e{fill:#6aa163;}.f{fill:#5b86e3;}.g{fill:#ed9f39;}</style></defs><g transform="translate(-1267.791 -919.632)"><path class="a" d="M247.206,192.941V180.929l-33.222,23.214,33.046,23.546V216.8l-16.689-12.487Z" transform="translate(1053.838 738.703)"/><path class="a" d="M213.97,180.973h8.995v12.8l-8.995,5.766Z" transform="translate(1053.85 738.666)"/><path class="a" d="M213.97,374.773h8.995V362.385l-8.995-6.341Z" transform="translate(1053.85 591.636)"/><path class="a" d="M437.97,255.43h8.822V229.518l-8.822-15.579Z" transform="translate(865.804 710.98)"/><path class="a" d="M647.793,255.426h-8.822V229.514l8.822-15.579Z" transform="translate(697.065 710.983)"/><path class="a" d="M448.487,180.933H437.931l20.716,33.135,20.377-33.114h-9.566L458.8,197.835Z" transform="translate(865.837 738.699)"/><path class="a" d="M740.329,225.707a25.713,25.713,0,0,1-9.638,1.9,23.144,23.144,0,1,1,0-46.284,25.579,25.579,0,0,1,10.4,1.938,26.723,26.723,0,0,1,7.447,4.926c-.016,0-6.3,7.235-6.308,7.219a16.346,16.346,0,0,0-11.535-5.033c-7.756,0-13.138,6.352-13.138,14.092s5.085,14.093,12.841,14.093a16.717,16.717,0,0,0,9.93-3.472C740.32,215.1,740.329,225.713,740.329,225.707Z" transform="translate(639.535 738.37)"/><path class="b" d="M0,8.175V0H8.188V.007L0,8.174Z" transform="translate(1382.596 943.14)"/><path class="c" d="M8.184,15.057H0V0L8.184,8.167v6.89Z" transform="translate(1382.595 951.319)"/><path class="d" d="M13.806,8.175H0V0H5.66l8.146,8.129v.045Z" transform="translate(1368.799 943.14)"/><path d="M-485.569-49.031h-1.4v-6.9h1.4V-52.9l.935-.1,1.139-2.932h1.6l-1.5,3.46,1.545,3.44h-1.617l-1.159-2.75-.935.1Zm4.819,0v-6.9h4.474v1.218h-3.07V-53.1h2.46v1.2h-2.46v1.653h3.07v1.218Zm8.612,0h-1.4v-2.79l-2.135-4.109h1.556l1.271,2.75,1.271-2.75h1.556l-2.115,4.109Zm5.5,0v-6.9h2.389l1.22,5.032,1.22-5.032h2.389v6.9h-1.4v-5.337h-.152l-1.352,5.032h-1.4l-1.352-5.032h-.152v5.337Zm8.337,0,1.556-6.9h2.664l1.556,6.9h-1.4l-.275-1.248h-2.42l-.275,1.248Zm2.643-5.743-.7,3.277h1.891l-.7-3.277Zm4.25,5.743v-6.9h2.369l1.667,5.682h.1V-55.93h1.4v6.9h-2.308l-1.728-5.682h-.1v5.682Zm6.66,0,1.556-6.9h2.664l1.556,6.9h-1.4l-.274-1.248h-2.42l-.274,1.248Zm2.643-5.743-.7,3.277h1.891l-.7-3.277Zm7.026,3.267v-1.218h2.013v3.582a15.563,15.563,0,0,1-2.359.233,2.536,2.536,0,0,1-2.222-.862,4.855,4.855,0,0,1-.6-2.739,4.546,4.546,0,0,1,.63-2.709,2.525,2.525,0,0,1,2.145-.832,10.769,10.769,0,0,1,2.044.213l.366.071-.041,1.086a19.328,19.328,0,0,0-2-.132,2.339,2.339,0,0,0-1.093.183,1.1,1.1,0,0,0-.463.675,6.62,6.62,0,0,0-.147,1.684,3.389,3.389,0,0,0,.295,1.669,1.33,1.33,0,0,0,1.22.477l.844-.041v-1.339Zm3.528,2.476v-6.9h4.474v1.218h-3.071V-53.1h2.46v1.2h-2.46v1.653h3.071v1.218Zm5.826,0v-6.9h2.389l1.22,5.033,1.22-5.032h2.389v6.9h-1.4v-5.337h-.152l-1.352,5.032h-1.4l-1.352-5.032h-.152v5.337Zm8.917,0v-6.9h4.474v1.218h-3.07V-53.1h2.46v1.2h-2.46v1.653h3.07v1.218Zm5.826,0v-6.9h2.369l1.667,5.682h.1V-55.93h1.4v6.9h-2.308l-1.728-5.682h-.1v5.682Zm6.619-5.662V-55.93h5.084v1.238h-1.83v5.662h-1.4v-5.662Zm11.469,3.186v-1.218h2.013v3.582a15.563,15.563,0,0,1-2.359.233,2.536,2.536,0,0,1-2.222-.862,4.85,4.85,0,0,1-.6-2.739,4.545,4.545,0,0,1,.63-2.709,2.525,2.525,0,0,1,2.145-.832,10.769,10.769,0,0,1,2.044.213l.366.071-.041,1.086a19.324,19.324,0,0,0-2-.132,2.339,2.339,0,0,0-1.093.183,1.1,1.1,0,0,0-.463.675,6.617,6.617,0,0,0-.147,1.684,3.388,3.388,0,0,0,.3,1.669,1.33,1.33,0,0,0,1.22.477l.844-.041v-1.339Zm4.931.163v2.313h-1.4v-6.9h2.684q2.44,0,2.44,2.273a2.181,2.181,0,0,1-1.017,1.989l.986,2.638h-1.535l-.8-2.313Zm1.3-1.2a.894.894,0,0,0,.742-.3,1.243,1.243,0,0,0,.244-.8,1.154,1.154,0,0,0-.259-.791.943.943,0,0,0-.747-.294h-1.281v2.192Zm5.231,1.882a1.175,1.175,0,0,0,1.124.533,1.174,1.174,0,0,0,1.123-.533,3.874,3.874,0,0,0,.3-1.786,4.059,4.059,0,0,0-.305-1.822,1.155,1.155,0,0,0-1.118-.568,1.154,1.154,0,0,0-1.118.568,4.054,4.054,0,0,0-.305,1.821A3.877,3.877,0,0,0-381.432-50.659Zm3.345.893a2.61,2.61,0,0,1-2.222.857,2.61,2.61,0,0,1-2.222-.857,4.479,4.479,0,0,1-.646-2.684,4.627,4.627,0,0,1,.646-2.714,2.566,2.566,0,0,1,2.222-.888,2.566,2.566,0,0,1,2.222.888,4.627,4.627,0,0,1,.646,2.714A4.478,4.478,0,0,1-378.086-49.767Zm3.38-1.568a1.077,1.077,0,0,0,1.23,1.207,1.077,1.077,0,0,0,1.23-1.207v-4.6h1.4v4.566A2.394,2.394,0,0,1-371.5-49.5a2.866,2.866,0,0,1-1.978.593,2.866,2.866,0,0,1-1.977-.593,2.394,2.394,0,0,1-.656-1.862V-55.93h1.4Zm8.042.294H-367.8v2.009h-1.4v-6.9h2.542a2.146,2.146,0,0,1,2.46,2.394,2.552,2.552,0,0,1-.625,1.852A2.443,2.443,0,0,1-366.664-51.04Zm-1.139-1.2h1.129q1.047,0,1.047-1.3a1.347,1.347,0,0,0-.254-.918,1.021,1.021,0,0,0-.793-.279H-367.8Z" transform="translate(1754.763 1027.277)"/><path class="e" d="M8.184,8.167H0L8.184,0Z" transform="translate(1382.596 943.148)"/><path class="f" d="M8.167,8.184H0L8.167,0Z" transform="translate(1382.596 959.486) rotate(-90)"/><path class="g" d="M8.146,8.129h0L0,0H8.146Z" transform="translate(1374.459 943.14)"/></g></svg>