<svg xmlns="http://www.w3.org/2000/svg" width="25" height="25" viewBox="0 0 25 25"><defs><style>.a{fill:#fff;}.b{fill:#006a4e;}</style></defs><g transform="translate(-1642 -9782)"><g transform="translate(251 -82)"><rect class="a" width="25" height="25" rx="5" transform="translate(1391 9864)"/><g transform="translate(1306.27 9792.916)"><path class="b" d="M94.4,79.417a1.259,1.259,0,0,1-1.333,1.334,1.282,1.282,0,0,1-1.334-1.267,1.352,1.352,0,0,1,1.334-1.4A1.3,1.3,0,0,1,94.4,79.417Z" transform="translate(0)"/><rect class="b" width="2.667" height="8.667" transform="translate(91.73 81.417)"/><path class="b" d="M108.06,87.952a2.92,2.92,0,0,0-2.533,1.333h-.067l-.133-1.133h-2.4c0,.734.067,1.6.067,2.6v5.733h2.666V91.752a2.053,2.053,0,0,1,.067-.667,1.434,1.434,0,0,1,1.267-1.067c.933,0,1.333.8,1.333,1.866v4.6h2.667V91.552C110.994,89.085,109.727,87.952,108.06,87.952Z" transform="translate(-7.264 -6.401)"/></g></g></g></svg>