<svg width="30" height="29" viewBox="0 0 30 29" fill="none" xmlns="http://www.w3.org/2000/svg">
<path fill-rule="evenodd" clip-rule="evenodd" d="M15.3834 0C23.365 0 29.845 6.35624 29.845 14.1853C29.845 22.0144 23.365 28.3706 15.3834 28.3706C7.40189 28.3706 0.921875 22.0144 0.921875 14.1853C0.921875 6.35624 7.40189 0 15.3834 0ZM10.8621 22.1574V11.0795H7.10752V22.1574H10.8621ZM24.3983 22.1574V15.8047C24.3983 12.4019 22.5462 10.819 20.0763 10.819C18.0847 10.819 17.1926 11.8934 16.6932 12.648V11.0795H12.9395C12.9893 12.1188 12.9395 22.1574 12.9395 22.1574H16.6931V15.9707C16.6931 15.6396 16.7174 15.3085 16.8169 15.0719C17.0877 14.4106 17.7059 13.7254 18.7429 13.7254C20.1006 13.7254 20.6445 14.7417 20.6445 16.2303V22.1574H24.3983ZM9.01017 5.73784C7.72558 5.73784 6.8863 6.56624 6.8863 7.65203C6.8863 8.71493 7.70005 9.56616 8.96046 9.56616H8.9847C10.2939 9.56616 11.1087 8.71493 11.1087 7.65203C11.0844 6.56624 10.2939 5.73784 9.01017 5.73784Z" fill="#1D2926"/>
</svg>
