<svg width="27" height="26" viewBox="0 0 27 26" fill="none" xmlns="http://www.w3.org/2000/svg">
<path d="M22.4286 0.456543H4.57143C2.59898 0.456543 1 2.69512 1 5.45654V20.4565C1 23.218 2.59898 25.4565 4.57143 25.4565H22.4286C24.401 25.4565 26 23.218 26 20.4565V5.45654C26 2.69512 24.401 0.456543 22.4286 0.456543Z" fill="white"/>
<path d="M22.4285 1.45654H4.57138C2.99342 1.45654 1.71423 3.2474 1.71423 5.45654V20.4565C1.71423 22.6657 2.99342 24.4565 4.57138 24.4565H22.4285C24.0065 24.4565 25.2857 22.6657 25.2857 20.4565V5.45654C25.2857 3.2474 24.0065 1.45654 22.4285 1.45654Z" stroke="white" stroke-width="2"/>
<path d="M6.71423 6.45654C6.71423 6.45654 12.8953 13.4565 13.9026 13.4565C14.9099 13.4565 20.9999 6.45654 20.9999 6.45654" stroke="#015942" stroke-width="2" stroke-miterlimit="10" stroke-linecap="round" stroke-linejoin="round"/>
</svg>
