<svg width="27" height="19" viewBox="0 0 27 19" fill="none" xmlns="http://www.w3.org/2000/svg">
<path d="M22.3935 0H3.73225C1.67098 0 0 1.67098 0 3.73225V14.929C0 16.9903 1.67098 18.6612 3.73225 18.6612H22.3935C24.4548 18.6612 26.1257 16.9903 26.1257 14.929V3.73225C26.1257 1.67098 24.4548 0 22.3935 0Z" fill="white"/>
<path d="M22.3936 0.746582H3.73238C2.08337 0.746582 0.746582 2.08337 0.746582 3.73238V14.9291C0.746582 16.5781 2.08337 17.9149 3.73238 17.9149H22.3936C24.0426 17.9149 25.3794 16.5781 25.3794 14.9291V3.73238C25.3794 2.08337 24.0426 0.746582 22.3936 0.746582Z" stroke="white" stroke-width="1.27658"/>
<path d="M7.09131 4.6792C7.09131 4.6792 12.1619 8.58388 12.9883 8.58388C13.8146 8.58388 18.8106 4.6792 18.8106 4.6792" stroke="#015942" stroke-width="1.27658" stroke-miterlimit="10" stroke-linecap="round" stroke-linejoin="round"/>
</svg>
