<svg xmlns="http://www.w3.org/2000/svg" width="32" height="52" viewBox="0 0 32 52"><defs><style>.a{fill:#006a4e;stroke:#006a4e;}.a,.b{stroke-linecap:round;stroke-linejoin:round;stroke-miterlimit:10;stroke-width:2px;}.b{fill:none;stroke:#fff;}</style></defs><g transform="translate(-900 -274)"><path class="a" d="M20,50H10A10.029,10.029,0,0,1,0,40V10A10.029,10.029,0,0,1,10,0H20A10.029,10.029,0,0,1,30,10V40A10.029,10.029,0,0,1,20,50Z" transform="translate(901 275)"/><path class="b" d="M0,0V5" transform="translate(916 295)"/><path class="b" d="M0,0V5" transform="translate(916 280)"/><path class="b" d="M5,0A5,5,0,1,1,0,5,5,5,0,0,1,5,0Z" transform="translate(911 285)"/></g></svg>