<svg xmlns="http://www.w3.org/2000/svg" width="66.331" height="50" viewBox="0 0 66.331 50"><defs><style>.a,.b{fill:#7c878e;}.b{fill-rule:evenodd;}</style></defs><g transform="translate(11.608)"><path class="a" d="M0,13.43,7.8,0l7.781,7.725Z" transform="translate(43.115 20.725) rotate(180)"/><path class="a" d="M1101,730.906l7.473-12.866,7.454,7.4Z" transform="translate(-1101 -704.594)"/><path class="a" d="M1172.662,602.387l7.762-13.447,20.348,20.294-7.737,13.385Z" transform="translate(-1165.198 -588.94)"/></g><path class="b" d="M371.291,84.129a.5.5,0,0,1,.506.333l1.968,4.819c.058.13.174.1.174-.043V84.563a.39.39,0,0,1,.434-.434h1.621a.384.384,0,0,1,.434.434v9.261a.39.39,0,0,1-.434.434h-2.127a.5.5,0,0,1-.506-.333l-1.968-4.819c-.058-.13-.174-.1-.174.043v4.674a.39.39,0,0,1-.434.434h-1.621a.4.4,0,0,1-.434-.434V84.563a.39.39,0,0,1,.434-.434Zm15.11,0a.384.384,0,0,1,.434.434v1.621a.39.39,0,0,1-.434.434h-3.5a.39.39,0,0,0-.434.434v.463a.4.4,0,0,0,.434.434h2.243a.384.384,0,0,1,.434.434V90a.39.39,0,0,1-.434.434H382.9a.39.39,0,0,0-.434.434v.463a.4.4,0,0,0,.434.434h3.5a.384.384,0,0,1,.434.434v1.621a.384.384,0,0,1-.434.434h-6.078a.4.4,0,0,1-.434-.434V84.563a.39.39,0,0,1,.434-.434Zm10.682,3.256c0-.955-.2-3.516-3.632-3.516s-3.632,2.561-3.632,3.516V91c0,.955.2,3.516,3.632,3.516s3.632-2.561,3.632-3.516Zm-2.489,2.851c0,1.114-.072,1.794-1.143,1.794s-1.143-.68-1.143-1.794V88.151c0-1.114.072-1.794,1.143-1.794s1.143.68,1.143,1.794Zm12.593-6.106a.4.4,0,0,0-.434.449v9.247a.4.4,0,0,0,.434.434h1.62a.383.383,0,0,0,.434-.434V91.508a.39.39,0,0,1,.434-.434h.695c2.576,0,3.618-1.1,3.618-3.473s-1.042-3.473-3.618-3.473h-3.183Zm2.489,4.457a.4.4,0,0,1-.434-.434v-1.1a.39.39,0,0,1,.434-.434h.782c.695,0,1.042.087,1.042.984s-.347.984-1.042.984Zm14.241,5.18c0,.318-.144.492-.434.492h-1.62a.39.39,0,0,1-.434-.434V92.565a.384.384,0,0,0-.434-.434H419.75a.39.39,0,0,0-.434.434v1.259a.384.384,0,0,1-.434.434h-1.621c-.275,0-.434-.174-.434-.492V87.63c0-1.823.289-3.762,3.545-3.762s3.545,1.939,3.545,3.762Zm-2.488-6.136c0-.695-.1-1.042-1.057-1.042s-1.056.347-1.056,1.042v1.577a.4.4,0,0,0,.434.434h1.244a.4.4,0,0,0,.434-.449Zm7.845-3.5a.471.471,0,0,1,.492.333l1.071,2.691c.058.13.145.13.2,0l1.071-2.691a.471.471,0,0,1,.492-.333h2.069c.333,0,.478.2.333.506l-2.59,5.788a.37.37,0,0,0-.029.174v3.227a.39.39,0,0,1-.434.434h-2.026a.4.4,0,0,1-.434-.434V90.6a.369.369,0,0,0-.029-.174l-2.6-5.788c-.145-.3,0-.506.333-.506h2.084Z" transform="translate(-368.73 -44.518)"/></svg>