<svg width="217" height="423" viewBox="0 0 217 423" fill="none" xmlns="http://www.w3.org/2000/svg">
<g clip-path="url(#clip0_1898_3437)">
<path d="M35.7913 337.094C36.1355 336.75 36.8238 336.407 37.1679 336.063C36.1355 332.971 34.4147 330.565 32.0057 328.503C29.9408 326.442 27.1877 325.067 24.0904 324.38C17.8957 322.662 11.7011 324.38 6.88306 328.16C8.94793 334.001 13.766 338.469 19.9606 340.187C23.4021 341.217 27.1877 340.874 30.285 339.843C32.3499 339.156 34.0706 338.469 35.7913 337.094Z" fill="#E08433"/>
<path d="M25.4668 121.299H28.9083C29.9407 114.083 31.3173 107.21 33.7263 100.682C32.3497 101.713 30.629 102.743 29.2524 103.431C27.1875 109.272 26.1551 115.114 25.4668 121.299Z" fill="#006A4E"/>
<path d="M45.7715 361.491C46.4598 359.086 46.4598 356.337 46.1157 353.932C45.7715 350.496 44.0508 347.059 41.9859 344.31C41.2976 344.654 40.9535 344.654 40.2652 344.998C38.5444 346.028 36.8237 347.059 35.103 348.434C32.694 350.839 30.9732 353.932 29.9408 357.368C28.2201 363.553 29.9408 369.738 33.7264 374.549C39.2327 372.487 43.3625 368.02 45.4274 362.522C45.4274 362.179 45.7715 361.835 45.7715 361.491Z" fill="#006A4E"/>
<path d="M29.2526 303.763L26.8435 301.358L25.1228 299.639C25.8111 306.512 27.1877 313.041 28.9084 319.226C30.6291 319.913 32.0057 320.944 33.3823 321.975C31.6616 316.133 29.9408 309.948 29.2526 303.763Z" fill="#006A4E"/>
<path d="M24.0904 98.62C27.1877 97.9327 29.9408 96.2146 32.0057 94.1529C34.4147 92.0911 36.1355 89.3422 37.1679 86.5932C36.8238 86.2495 36.1355 85.9059 35.7913 85.5623C34.0706 84.5314 32.3499 83.5006 30.285 82.8133C26.8435 81.7824 23.4021 81.7824 19.6165 82.4697C13.766 84.5314 8.94793 88.9985 6.88306 94.8401C11.7011 98.62 18.2399 100.338 24.0904 98.62Z" fill="#006A4E"/>
<path d="M108.406 28.5206C105.653 29.2079 103.244 29.8951 100.491 30.5824C99.8025 32.3005 99.1142 34.0186 98.0818 35.7367C102.9 34.0186 107.718 32.6441 112.88 31.6132C111.503 30.926 109.783 29.8951 108.406 28.5206Z" fill="#006A4E"/>
<path d="M35.103 74.5663C36.4796 75.9408 38.2003 77.3153 40.2652 78.0025C40.9535 78.3461 41.2977 78.6898 41.9859 78.6898C44.395 75.9408 45.7716 72.5045 46.1157 69.0683C46.4598 66.663 46.4599 63.914 45.7716 61.5086C45.7716 61.165 45.4274 60.8214 45.4274 60.4777C43.7067 54.9798 39.2328 50.5127 33.7264 48.4509C29.5967 53.2617 28.2201 59.7905 29.9408 65.6321C30.9733 69.0683 32.694 72.1609 35.103 74.5663Z" fill="#E08433"/>
<path d="M56.4401 48.7945C56.7842 48.7945 57.4725 49.1382 57.8167 49.1382C60.2257 49.8254 62.2906 49.8254 64.6996 49.8254C68.4852 49.4818 72.2708 47.7637 75.3681 45.3583C75.024 44.6711 74.6798 43.6402 74.3357 42.953C73.3032 41.2348 72.2708 39.5167 70.5501 38.1422C68.141 36.0805 65.3879 34.3624 62.2906 33.3315C56.0959 31.6134 49.9013 33.3315 45.0833 37.1114C46.804 42.6093 50.9337 46.7328 56.4401 48.7945Z" fill="#006A4E"/>
<path d="M81.5628 38.4859C81.9069 39.1732 82.5952 39.8604 83.2835 40.5477C87.0691 39.1732 90.5106 36.4242 92.5755 33.3316C93.6079 31.6135 94.6403 29.5517 95.3286 27.49C95.3286 26.8027 95.6728 26.1155 95.6728 25.4283C96.3611 20.2739 94.9845 14.7759 91.543 10.3088C85.6925 12.3706 81.2186 17.1813 79.4979 23.3665C78.8096 26.4591 78.8096 29.8954 79.4979 32.6443C79.8421 35.0497 80.5303 36.7678 81.5628 38.4859Z" fill="#E08433"/>
<path d="M231.611 301.701L231.266 301.357L219.566 289.674C218.533 290.705 217.156 291.392 215.78 292.08C216.124 293.111 216.812 294.485 217.156 295.516L218.533 299.639L219.91 303.419L217.156 306.168L213.715 309.261C213.027 309.604 212.683 310.292 211.994 310.635C207.52 350.839 173.794 380.734 133.185 380.734C92.5756 380.734 58.8493 350.496 54.3754 310.635C53.6871 310.292 53.3429 309.604 52.6546 309.261L49.2132 306.168L46.46 303.419L47.8366 299.639L49.2132 295.516C49.5573 294.485 49.9015 293.111 50.5898 292.08C49.2132 291.392 48.1807 290.362 46.8041 289.674L35.1032 301.357L34.759 301.701C41.642 350.496 83.2836 386.576 133.185 386.576C183.086 386.92 224.728 350.496 231.611 301.701Z" fill="#E08433"/>
<path d="M116.666 395.854C114.945 396.885 113.224 397.916 111.503 399.29C111.159 399.634 110.471 400.321 110.127 400.665C106.685 405.132 105.309 410.63 105.997 416.128C112.192 417.159 118.386 415.097 122.86 410.973C125.269 408.568 126.646 405.819 127.678 403.07C128.367 401.008 128.711 398.947 128.367 396.885C128.367 395.854 128.367 394.823 128.022 394.136C124.581 393.449 120.451 394.136 116.666 395.854Z" fill="#E08433"/>
<path d="M113.224 391.043C108.062 390.013 103.244 388.638 98.4258 386.92C99.4582 388.638 100.147 390.356 100.835 392.074C103.244 392.762 105.997 393.449 108.75 394.136C109.783 393.105 111.503 392.074 113.224 391.043Z" fill="#006A4E"/>
<path d="M111.848 23.3663C113.224 24.7408 114.945 26.1153 117.01 26.8025C120.795 28.5207 124.925 29.2079 129.055 28.5207C129.055 27.4898 129.399 26.4589 129.399 25.7717C129.399 23.7099 129.055 21.6482 128.711 19.5865C127.678 16.4938 126.302 13.7449 123.893 11.6831C119.419 7.21602 113.224 5.15429 107.03 6.52878C105.997 12.0267 107.374 17.5247 111.159 21.9918C110.815 22.3354 111.159 22.6791 111.848 23.3663Z" fill="#006A4E"/>
<path d="M95.3285 395.167C94.6403 393.105 93.952 391.043 92.5754 389.325C90.1663 385.889 87.069 383.484 83.2834 382.109C82.5951 382.796 82.251 383.484 81.5627 384.171C80.5303 385.889 79.842 387.951 79.1537 389.669C78.4654 392.761 78.4654 395.854 79.1537 398.947C80.8744 405.132 85.3483 409.943 91.1988 412.004C94.6402 407.881 96.361 402.039 95.3285 396.541C95.6727 396.541 95.3285 395.854 95.3285 395.167Z" fill="#006A4E"/>
<path d="M57.8168 373.518C57.4727 373.518 56.7844 373.862 56.4402 373.862C50.9339 375.923 46.8041 380.047 44.7393 385.545C49.5573 389.668 56.0961 391.043 61.9466 389.325C65.0439 388.637 67.7971 386.919 70.2061 384.514C71.5827 383.14 72.9592 381.421 73.9917 379.703C74.3358 379.016 74.68 377.985 75.0241 377.298C71.9268 374.893 68.4853 373.174 64.3556 372.831C62.2907 372.831 60.2258 373.174 57.8168 373.518Z" fill="#E08433"/>
<path d="M35.103 121.299H47.8364L46.804 117.863L49.5572 115.114L52.9986 112.021C53.6869 111.334 54.3752 110.99 54.7194 110.647C59.8815 71.1301 92.9196 41.5785 133.185 41.5785C173.45 41.5785 206.832 71.1301 211.65 110.647C212.338 110.99 213.027 111.678 213.371 112.021L216.812 115.114L219.565 117.863L218.533 121.299H231.266C224.383 72.5046 182.742 36.0806 132.841 36.0806C83.2835 36.0806 41.6418 72.5046 35.103 121.299Z" fill="#E08433"/>
<path d="M149.704 26.8027C151.425 25.7718 153.145 24.741 154.866 23.3665C155.21 23.0228 155.898 22.3356 156.243 21.992C159.684 17.5249 161.061 12.0269 160.372 6.52894C154.178 5.49807 147.983 7.55981 143.509 11.6833C141.1 14.0886 139.724 16.8376 138.691 19.5866C138.003 21.6484 137.659 23.7101 137.659 25.7718C137.659 26.8027 137.659 27.8336 138.003 28.5208C142.133 29.2081 146.262 28.5208 149.704 26.8027Z" fill="#E08433"/>
<path d="M80.1862 86.2494L71.5826 81.4387C68.1411 86.5931 65.7321 92.091 63.6672 98.2763L74.6799 100.338C76.0565 95.1836 77.7772 90.3729 80.1862 86.2494Z" fill="#E08433"/>
<path d="M61.6021 106.867C63.3228 106.18 65.3877 105.492 67.1084 105.149L61.9462 104.118C61.9462 104.805 61.9462 105.836 61.6021 106.867Z" fill="#006A4E"/>
<path d="M153.49 31.9571C158.652 32.988 163.47 34.3625 168.288 36.0806C167.255 34.3625 166.567 32.6444 165.879 30.9262C163.47 30.239 160.717 29.5517 157.963 28.8645C156.931 29.8954 155.21 30.9262 153.49 31.9571Z" fill="#006A4E"/>
<path d="M93.2638 70.0994L87.7574 63.5706C83.2835 67.3504 78.8096 71.4739 75.3682 76.2846L83.6277 81.0953C86.3808 76.9719 89.4782 73.5356 93.2638 70.0994Z" fill="#006A4E"/>
<path d="M171.385 27.8336C172.073 29.8954 172.762 31.9571 174.138 33.6752C176.547 37.1114 179.645 39.5168 183.43 40.8913C184.119 40.204 184.463 39.5168 185.151 38.8296C186.183 37.1114 186.872 35.0497 187.56 33.3316C188.248 30.239 188.248 27.1464 187.56 24.0538C185.839 17.5249 181.021 12.3706 175.171 10.3088C171.729 14.4323 170.009 20.2739 171.041 25.7719C171.041 26.4591 171.385 27.1464 171.385 27.8336Z" fill="#006A4E"/>
<path d="M208.897 49.1384C209.241 49.1384 209.929 48.7947 210.273 48.7947C215.78 46.733 219.909 42.6095 221.974 37.1116C217.156 32.9881 210.617 31.6136 204.767 33.3317C201.67 34.0189 198.917 35.7371 196.507 38.1424C195.131 39.5169 193.754 41.235 192.722 42.9531C192.378 43.6404 192.034 44.6713 191.689 45.3585C194.787 47.7639 198.228 49.482 202.358 49.8256C204.423 50.1692 206.488 49.8256 208.897 49.1384Z" fill="#E08433"/>
<path d="M63.6673 56.0106C63.3231 56.0106 62.979 56.0106 62.6348 56.0106C61.2583 56.0106 59.5375 55.667 58.1609 55.667C56.0961 57.7287 54.0312 59.7905 51.9663 62.1958C52.3105 63.9139 52.3105 65.9757 52.3105 67.6938C55.7519 63.2267 59.5375 59.4468 63.6673 56.0106Z" fill="#006A4E"/>
<path d="M203.735 56.0105C203.39 56.0105 203.046 56.0105 202.702 56.0105C206.832 59.4467 210.617 63.5702 214.059 67.6937C214.059 65.9756 214.059 63.9138 214.403 62.1957C212.338 60.134 210.273 57.7286 208.208 56.0105C206.832 55.6669 205.455 56.0105 203.735 56.0105Z" fill="#006A4E"/>
<path d="M202.702 97.9325C200.637 92.0909 198.228 86.2493 194.787 81.095L186.183 85.9057C188.592 90.0292 190.313 94.8399 191.689 99.6506L202.702 97.9325Z" fill="#006A4E"/>
<path d="M158.996 52.2306L156.242 59.4467C160.716 61.1648 164.846 63.5701 168.976 66.3191L174.138 60.1339C169.32 57.0413 164.158 54.2923 158.996 52.2306Z" fill="#006A4E"/>
<path d="M178.956 63.9141L173.45 70.4429C177.235 73.5355 180.333 77.3154 183.086 81.4388L191.345 76.6281C187.904 71.8174 183.774 67.3503 178.956 63.9141Z" fill="#E08433"/>
<path d="M204.423 103.774L199.605 104.805C201.67 105.149 203.391 105.836 205.111 106.523C204.767 105.836 204.767 104.805 204.423 103.774Z" fill="#E08433"/>
<path d="M130.432 47.7638C124.581 48.1074 119.075 48.7947 113.913 50.5128L116.322 57.3852C120.796 56.0107 125.614 55.3235 130.432 54.9799V47.7638V47.7638Z" fill="#006A4E"/>
<path d="M110.471 59.4467L107.718 52.2306C102.212 54.2923 97.0493 56.6977 92.5754 60.1339L97.7376 66.3191C101.867 63.5701 105.997 61.1648 110.471 59.4467Z" fill="#E08433"/>
<path d="M136.282 47.7638V54.9799C141.1 55.3235 145.918 56.0107 150.392 57.3852L152.801 50.5128C147.639 49.1383 142.132 48.1074 136.282 47.7638Z" fill="#E08433"/>
<path d="M63.6673 366.99C59.5375 363.553 55.7519 359.43 52.3105 355.306C52.3105 357.025 52.3105 359.086 51.9663 360.804C54.0312 362.866 56.0961 365.271 58.1609 367.333C60.2258 366.99 61.9465 366.99 63.6673 366.99Z" fill="#006A4E"/>
<path d="M191.001 131.608C195.819 130.233 199.605 127.141 201.326 122.674C197.54 119.925 192.378 118.894 187.904 120.268C183.086 121.643 179.3 124.735 177.58 129.202C181.365 131.951 186.183 132.982 191.001 131.608Z" fill="#E08433"/>
<path d="M174.138 210.985C174.138 224.386 167.599 236.069 157.619 243.629C175.17 238.131 191.001 226.791 201.67 210.985C191.001 195.178 175.514 183.839 157.619 178.341C167.599 185.9 174.138 197.583 174.138 210.985Z" fill="#E08433"/>
<path d="M65.0437 210.985C75.7122 226.791 91.1988 238.131 109.094 243.629C99.1142 236.069 92.5754 224.386 92.5754 210.985C92.5754 197.583 99.1142 185.9 109.094 178.341C91.1988 183.839 75.7122 195.178 65.0437 210.985Z" fill="#E08433"/>
<path d="M98.7703 210.985C98.7703 230.228 114.257 245.691 133.529 245.691C152.801 245.691 168.288 230.228 168.288 210.985C168.288 191.742 152.801 176.279 133.529 176.279C114.257 176.279 98.7703 191.742 98.7703 210.985ZM133.185 188.306C145.574 188.306 155.899 198.271 155.899 210.985C155.899 223.355 145.918 233.664 133.185 233.664C120.796 233.664 110.471 223.699 110.471 210.985C110.815 198.271 120.796 188.306 133.185 188.306Z" fill="#F9F9F4"/>
<path d="M104.62 114.77C105.997 109.959 104.965 105.149 102.211 101.369C97.7375 103.431 94.6402 107.21 93.2636 111.678C91.887 116.488 92.9194 121.299 95.6726 125.079C100.146 123.361 103.588 119.581 104.62 114.77Z" fill="#E08433"/>
<path d="M170.696 125.423C173.45 121.643 174.482 116.488 173.105 112.021C171.729 107.211 168.632 103.431 164.158 101.713C161.405 105.493 160.372 110.647 161.749 115.114C163.125 119.581 166.567 123.361 170.696 125.423Z" fill="#E08433"/>
<path d="M71.2383 227.822C66.7644 223.355 62.2905 218.201 58.849 212.359L57.8166 210.641L58.849 208.923C62.6346 203.425 66.7644 198.271 71.5824 193.46C61.6022 193.46 52.9985 188.649 47.4922 181.433V239.849C52.6544 232.633 61.258 227.822 71.2383 227.822Z" fill="#006A4E"/>
<path d="M215.78 136.418C213.371 134.356 210.273 132.982 207.52 131.951C209.241 129.546 210.618 126.797 211.65 124.048L213.027 119.924L209.585 116.832C204.767 112.365 198.572 109.959 192.034 109.959C189.625 109.959 187.56 110.303 185.151 110.99C184.462 111.334 183.774 111.334 183.086 111.677C183.086 110.99 182.742 110.303 182.742 109.616C180.333 101.025 174.138 94.1525 165.534 91.4035L161.405 90.0291L158.307 93.4653C153.833 98.6196 151.424 104.805 151.424 111.334C145.574 109.272 139.379 108.241 133.185 108.241C126.99 108.241 120.795 109.272 114.945 111.334C114.945 104.805 112.536 98.276 108.062 93.4653L104.965 90.0291L100.835 91.4035C92.2313 94.1525 86.0367 101.025 83.6276 109.616C83.2835 110.303 83.2835 110.99 83.2835 111.677C82.5952 111.334 81.9069 111.334 81.2186 110.99C78.8096 110.303 76.7447 109.959 74.3357 109.959C67.7969 109.959 61.6023 112.365 56.7842 116.832L53.3428 119.924L54.7194 124.048C55.7518 126.797 57.1284 129.546 58.8491 131.951C55.7518 132.982 52.9986 134.7 50.5896 136.418V127.484H11.3569V277.304L30.9733 297.234L46.4598 281.771C49.9013 285.551 54.3752 288.3 59.1933 290.018C57.4725 292.423 56.0959 295.172 55.0635 297.921L53.6869 302.044L57.1284 305.137C61.9464 309.604 68.4852 312.01 74.6798 312.01C76.7447 312.01 79.1537 311.666 81.2186 310.979C81.9069 310.635 82.5952 310.635 83.2835 310.291C83.2835 310.979 83.6276 311.666 83.6276 312.353C86.0367 320.944 92.2313 327.816 100.835 330.565L104.965 331.94L108.062 328.503C112.536 323.349 114.945 317.164 114.945 310.635C120.795 312.697 126.99 313.728 133.185 313.728C139.379 313.728 145.574 312.697 151.424 310.635C151.424 317.164 153.833 323.693 158.307 328.503L161.405 331.94L165.534 330.565C174.138 327.816 180.333 320.944 182.742 312.353C183.086 311.666 183.086 310.979 183.086 310.291C183.774 310.635 184.462 310.635 185.151 310.979C187.216 311.666 189.625 312.01 191.69 312.01C198.228 312.01 204.423 309.604 209.241 305.137L212.682 302.044L211.306 297.921C210.273 295.172 208.897 292.423 207.176 290.018C211.994 288.3 216.124 285.551 219.91 281.771L235.396 297.234L255.357 277.304V127.484H215.78V136.418ZM219.565 145.696V131.264H251.571V275.929L235.396 292.079L219.565 276.273C215.091 282.458 207.864 286.925 199.949 288.3C203.735 291.049 206.488 294.828 207.864 299.295L208.553 301.014L207.176 302.388C203.046 306.168 197.54 308.23 192.378 308.23C190.313 308.23 188.592 307.886 186.527 307.542C184.118 306.855 182.053 305.824 179.989 304.45C179.989 306.855 179.989 309.261 179.3 311.666C177.235 318.882 171.729 324.724 164.502 327.129L162.781 327.816L161.405 326.442C156.242 320.944 154.522 313.04 156.242 305.824C156.242 305.481 156.587 305.137 156.587 304.793C149.704 308.23 141.788 310.291 133.529 310.291C125.269 310.291 117.354 308.23 110.471 304.793C110.471 305.137 110.815 305.481 110.815 305.824C112.88 313.04 110.815 320.944 105.653 326.442L104.276 327.816L102.556 327.129C95.3286 324.724 89.8223 318.882 87.7574 311.666C87.0691 309.261 87.0691 306.855 87.0691 304.45C85.0042 305.824 82.9393 306.855 80.5303 307.542C78.4654 307.886 76.7447 308.23 74.6798 308.23C69.1735 308.23 64.0113 306.168 59.8815 302.388L58.505 301.014L59.1933 299.295C60.5698 294.828 63.323 291.049 67.1086 288.3C59.1933 286.925 51.9662 282.802 47.4923 276.273L30.9733 291.736L14.7984 275.585V274.211V131.264H46.804V145.696C51.2779 139.511 58.505 135.387 66.4203 134.013C62.6347 131.264 59.8815 127.484 58.505 123.017L57.8167 121.299L59.1933 119.924C64.6996 114.77 72.615 113.052 79.842 114.77C82.2511 115.457 84.3159 116.488 86.3808 117.863C86.3808 115.457 86.3808 113.052 87.0691 110.646C89.134 103.43 94.6403 97.5888 101.867 95.1834L103.588 94.4961L104.965 95.8706C110.127 101.369 111.848 109.272 110.127 116.488C110.127 116.832 109.783 117.175 109.783 117.519C116.666 114.083 124.581 112.021 132.841 112.021C141.1 112.021 149.015 114.083 155.898 117.519C155.898 117.175 155.554 116.832 155.554 116.488C153.489 109.272 155.554 101.369 160.716 95.8706L162.093 94.4961L163.814 95.1834C171.041 97.5888 176.547 103.43 178.612 110.646C179.3 113.052 179.3 115.457 179.3 117.863C181.365 116.488 183.43 115.457 185.839 114.77C193.066 112.708 200.981 114.77 206.488 119.924L207.864 121.299L207.176 123.017C205.8 127.484 203.046 131.264 199.261 134.013C207.864 135.044 215.091 139.511 219.565 145.696Z" fill="#006A4E"/>
<path d="M179.644 145.353L176.547 148.102L174.826 144.322C167.255 128.171 151.08 117.863 133.529 117.863C115.977 117.863 99.4583 128.171 92.2312 144.322L90.5105 148.102L87.4131 145.353C82.9392 141.573 77.4329 139.511 71.5824 139.511C58.1607 139.511 47.4922 150.163 47.4922 163.565C47.4922 176.966 58.1607 187.618 71.5824 187.618C73.3031 187.618 74.6797 187.618 76.4005 187.275C78.1212 186.931 79.8419 186.244 81.2185 185.557C83.9717 183.495 86.7248 181.777 89.478 180.059C79.4978 179.028 70.55 172.499 66.0761 163.565L71.5824 161.159C75.368 169.406 83.6275 174.561 92.5753 174.561C100.491 174.561 107.718 170.437 112.192 163.908C109.438 161.159 107.029 158.067 105.309 154.63L110.815 152.225C114.945 161.159 123.893 166.657 133.529 166.657C143.165 166.657 152.113 160.816 156.242 152.225L161.749 154.63C160.028 158.067 157.963 161.159 155.21 163.908C159.34 170.437 166.911 174.904 174.826 174.904C183.774 174.904 192.034 169.75 195.819 161.503L201.326 163.908C196.852 173.186 187.904 179.371 177.924 180.746C180.677 182.464 183.43 184.182 186.183 186.244C187.904 186.931 189.28 187.618 191.001 187.962C192.378 188.306 194.098 188.306 195.819 188.306C209.241 188.306 219.909 177.653 219.909 164.252C219.909 150.851 209.241 140.198 195.819 140.198C189.625 139.511 184.118 141.573 179.644 145.353Z" fill="#F9F9F4"/>
<path d="M75.7123 290.018C70.8943 291.392 67.1087 294.485 65.3879 298.952C69.1735 301.701 74.3357 302.732 78.8096 301.358C83.6277 299.983 87.4133 296.89 89.134 292.423C85.3484 289.674 80.5304 288.987 75.7123 290.018Z" fill="#E08433"/>
<path d="M162.093 306.856C160.716 311.666 161.749 316.477 164.502 320.257C168.976 318.195 172.073 314.415 173.45 309.948C174.826 305.137 173.794 300.327 171.041 296.547C166.567 298.265 163.125 302.045 162.093 306.856Z" fill="#E08433"/>
<path d="M96.0168 296.203C93.2637 299.983 92.2312 305.137 93.6078 309.604C94.9844 314.415 98.0817 318.195 102.556 319.913C105.309 316.133 106.341 310.979 104.965 306.512C103.588 302.045 100.147 298.265 96.0168 296.203Z" fill="#E08433"/>
<path d="M191.001 290.018C186.183 288.643 181.365 289.674 177.58 292.423C179.644 296.89 183.43 299.983 187.904 301.357C192.722 302.732 197.54 301.701 201.326 298.952C199.261 294.485 195.475 291.392 191.001 290.018Z" fill="#E08433"/>
<path d="M195.475 234.007C193.754 234.007 192.378 234.007 190.657 234.351C188.936 234.695 187.216 235.382 185.495 236.069C182.742 238.131 179.989 239.849 177.235 241.224C187.216 242.254 196.164 248.44 200.637 258.061L195.131 260.466C191.345 252.219 183.086 247.065 174.138 247.065C166.223 247.065 158.996 251.189 154.522 257.717C157.275 260.466 159.684 263.559 161.405 266.995L155.898 269.401C151.769 260.466 142.821 254.968 133.185 254.968C123.549 254.968 114.601 260.81 110.471 269.401L104.965 266.995C106.686 263.559 108.75 260.466 111.504 257.717C107.374 251.189 99.8026 246.722 91.8872 246.722C82.9395 246.722 74.6799 251.876 70.8943 260.123L65.388 257.717C69.8619 248.44 78.8097 242.254 88.7899 240.88C86.0368 239.162 83.2836 237.444 80.5304 235.726C78.8097 235.038 77.089 234.351 75.3682 234.007C73.9916 233.664 72.2709 233.664 70.5502 233.664C57.1285 233.664 46.46 244.316 46.46 257.717C46.46 271.119 57.1285 281.771 70.5502 281.771C76.4007 281.771 81.907 279.709 86.3809 275.929L89.4782 273.18L91.199 276.96C98.7702 293.111 114.945 303.419 132.496 303.419C150.048 303.419 166.567 293.111 173.794 276.96L175.515 273.18L178.612 275.929C183.086 279.709 188.592 281.771 194.443 281.771C207.864 281.771 218.533 271.119 218.533 257.717C219.565 244.66 208.897 234.007 195.475 234.007Z" fill="#F9F9F4"/>
<path d="M195.475 193.803C199.949 198.271 204.423 203.425 207.865 209.266L208.897 210.985L207.865 212.703C204.079 218.544 199.949 223.355 195.131 228.166C205.111 228.166 213.715 232.976 219.221 240.193V181.777C214.059 188.993 205.455 193.803 195.475 193.803Z" fill="#006A4E"/>
<path d="M75.7123 131.608C80.5304 132.982 85.3484 131.951 89.134 129.202C87.0691 124.735 83.2835 121.643 78.8096 120.268C73.9916 118.894 69.1735 119.925 65.3879 122.674C67.4528 127.141 71.2384 130.233 75.7123 131.608Z" fill="#E08433"/>
<path d="M154.866 399.634C153.489 398.259 151.769 396.885 149.704 396.198C145.918 394.479 141.788 393.792 137.659 394.479C137.659 395.51 137.314 396.541 137.314 397.228C137.314 399.29 137.659 401.352 138.003 403.414C139.035 406.506 140.412 409.255 142.821 411.317C147.295 415.784 153.489 417.846 159.684 416.471C160.716 410.973 158.996 405.475 155.554 401.008C155.898 400.665 155.554 399.977 154.866 399.634Z" fill="#006A4E"/>
<path d="M210.274 374.206C209.929 374.206 209.241 373.862 208.897 373.862C206.488 373.175 204.423 373.175 202.014 373.175C198.228 373.518 194.443 375.237 191.345 377.642C191.69 378.329 192.034 379.36 192.378 380.047C193.41 381.765 194.443 383.484 196.164 384.858C198.573 386.92 201.326 388.638 204.423 389.669C210.618 391.387 216.812 389.669 221.63 385.889C219.91 380.047 215.78 375.924 210.274 374.206Z" fill="#006A4E"/>
<path d="M185.151 384.171C184.807 383.484 184.119 382.796 183.43 382.109C179.645 383.484 176.203 386.233 174.138 389.325C173.106 391.043 172.073 393.105 171.385 395.167C171.385 395.854 171.041 396.541 171.041 397.229C170.009 402.727 171.729 408.224 175.171 412.692C181.021 410.63 185.495 405.819 187.216 399.634C187.904 396.541 187.904 393.105 187.216 390.356C186.872 387.951 186.183 385.889 185.151 384.171Z" fill="#E08433"/>
<path d="M158.307 394.48C161.061 393.792 163.47 393.105 166.223 392.418C166.911 390.7 167.599 388.982 168.632 387.263C163.814 388.982 158.996 390.356 153.833 391.387C155.21 392.074 156.931 393.105 158.307 394.48Z" fill="#006A4E"/>
<path d="M203.046 366.99C204.767 366.99 206.832 366.99 208.553 367.333C210.618 365.271 212.682 363.21 214.747 360.804C214.403 359.086 214.403 357.025 214.403 355.306C210.962 359.43 207.176 363.553 203.046 366.99Z" fill="#006A4E"/>
<path d="M191.345 346.372L183.086 341.561C180.333 345.685 176.891 349.121 173.45 352.557L178.956 359.086C183.774 355.306 187.904 351.183 191.345 346.372Z" fill="#E08433"/>
<path d="M205.111 314.759C202.358 316.133 199.261 316.821 196.163 317.164L204.423 318.539C204.767 317.508 205.111 316.133 205.111 314.759Z" fill="#E08433"/>
<path d="M186.527 336.751L195.131 341.561C198.572 336.407 200.981 330.909 203.046 324.724L192.034 323.006C190.657 327.816 188.936 332.283 186.527 336.751Z" fill="#006A4E"/>
<path d="M156.242 363.209L158.996 370.425C164.502 368.364 169.664 365.958 174.138 362.522L168.976 356.337C164.846 359.086 160.716 361.491 156.242 363.209Z" fill="#006A4E"/>
<path d="M136.282 374.893C142.132 374.549 147.639 373.862 152.801 372.144L150.392 365.271C145.918 366.646 141.1 367.333 136.282 367.677V374.893V374.893Z" fill="#E08433"/>
<path d="M130.432 374.893V367.677C125.614 367.333 120.796 366.646 116.322 365.271L113.913 372.144C119.075 373.862 124.581 374.549 130.432 374.893Z" fill="#006A4E"/>
<path d="M83.2834 341.905L75.0239 346.716C78.4654 351.526 82.9393 355.65 87.4132 359.43L92.9195 352.901C89.4781 349.465 86.3808 345.685 83.2834 341.905Z" fill="#006A4E"/>
<path d="M62.2903 318.882L70.5499 317.508C67.4525 317.164 64.3552 316.133 61.6021 315.103C61.6021 316.133 61.9462 317.508 62.2903 318.882Z" fill="#006A4E"/>
<path d="M64.0112 324.724C66.0761 330.565 68.4851 336.407 71.9266 341.561L80.5302 336.751C78.1212 332.627 76.4005 327.816 75.0239 323.006L64.0112 324.724Z" fill="#E08433"/>
<path d="M110.471 363.209C105.997 361.491 101.867 359.086 97.7376 356.337L92.5754 362.522C97.3935 365.615 102.556 368.364 107.718 370.425L110.471 363.209Z" fill="#E08433"/>
<path d="M40.9536 137.106H20.9932V148.102H40.9536V137.106Z" fill="#F9F9F4"/>
<path d="M34.0706 259.092C36.4796 259.779 38.8886 260.81 40.9535 262.528V258.405V163.565V154.287H34.0706V259.092Z" fill="#E08433"/>
<path d="M27.8761 154.287H20.9932V261.841C23.058 260.123 25.4671 259.092 27.8761 258.748V154.287Z" fill="#E08433"/>
<path d="M30.9733 264.59C25.8111 264.59 22.0255 268.37 21.3372 273.18L30.9733 283.145L40.6093 273.524C40.2652 268.713 36.1354 264.59 30.9733 264.59Z" fill="#F9F9F4"/>
<path d="M133.185 233.32C145.574 233.32 155.898 223.355 155.898 210.641C155.898 198.27 145.918 187.962 133.185 187.962C120.795 187.962 110.471 197.927 110.471 210.641C110.815 223.355 120.795 233.32 133.185 233.32Z" fill="#072119"/>
<path d="M219.565 131.264V145.696C215.091 139.511 207.864 135.387 199.949 134.013C203.735 131.264 206.488 127.484 207.864 123.017L208.553 121.299L207.176 119.924C201.67 114.77 193.754 113.052 186.527 114.77C184.118 115.457 182.053 116.488 179.989 117.863C179.989 115.457 179.989 113.052 179.3 110.647C177.235 103.431 171.729 97.5889 164.502 95.1836L162.781 94.4963L161.405 95.8708C156.242 101.369 154.522 109.272 156.242 116.488C156.242 116.832 156.587 117.175 156.587 117.519C149.704 114.083 141.788 112.021 133.529 112.021C125.269 112.021 117.354 114.083 110.471 117.519C110.471 117.175 110.815 116.832 110.815 116.488C112.88 109.272 110.815 101.369 105.653 95.8708L104.276 94.4963L102.556 95.1836C95.3286 97.5889 89.8223 103.431 87.7574 110.647C87.0691 113.052 87.0691 115.457 87.0691 117.863C85.0042 116.488 82.9394 115.457 80.5303 114.77C73.3033 112.708 65.3879 114.77 59.8816 119.924L58.505 121.299L59.1933 123.017C60.5699 127.484 63.323 131.264 67.1086 134.013C59.1933 135.387 52.3104 139.511 47.4923 145.696V131.264H15.1426V274.555V275.929L30.9733 291.736L46.804 275.929C51.2779 282.115 58.505 286.582 66.4204 287.956C62.6347 290.705 59.8816 294.485 58.505 298.952L57.8167 300.67L59.1933 302.045C63.323 305.825 68.8294 307.886 73.9916 307.886C76.0564 307.886 77.7772 307.543 79.8421 307.199C82.2511 306.512 84.316 305.481 86.3808 304.106C86.3808 306.512 86.3808 308.917 87.0691 311.322C89.134 318.539 94.6403 324.38 101.867 326.786L103.588 327.473L104.965 326.098C110.127 320.6 111.848 312.697 110.127 305.481C110.127 305.137 109.783 304.794 109.783 304.45C116.666 307.886 124.581 309.948 132.841 309.948C141.1 309.948 149.015 307.886 155.898 304.45C155.898 304.794 155.554 305.137 155.554 305.481C153.489 312.697 155.554 320.6 160.716 326.098L162.093 327.473L163.814 326.786C171.041 324.38 176.547 318.539 178.612 311.322C179.3 308.917 179.3 306.512 179.3 304.106C181.365 305.481 183.43 306.512 185.839 307.199C187.904 307.543 189.625 307.886 191.69 307.886C197.196 307.886 202.358 305.825 206.488 302.045L207.864 300.67V298.952C206.488 294.485 203.735 290.705 199.949 287.956C207.864 286.582 215.091 282.458 219.565 275.929L235.396 291.736L251.571 275.586V131.264H219.565ZM20.9931 154.287H27.876V258.748C25.467 259.092 23.0579 260.466 20.9931 261.841V154.287ZM30.9733 283.145L20.9931 273.18C21.6814 268.37 25.8111 264.59 30.9733 264.59C36.1355 264.59 40.2652 268.37 40.6094 273.524L30.9733 283.145ZM40.9535 163.565V258.061V262.184C38.8887 260.466 36.4796 259.435 34.0706 258.748V154.287H40.9535V163.565ZM40.9535 148.445H20.9931V137.449H40.9535V148.445V148.445ZM187.904 120.612C192.722 119.237 197.54 120.268 201.326 123.017C199.261 127.484 195.475 130.577 191.001 131.951C186.183 133.326 181.365 132.295 177.58 129.546C179.644 125.079 183.43 121.643 187.904 120.612ZM164.502 101.369C168.976 103.431 172.073 107.21 173.45 111.677C174.826 116.488 173.794 121.299 171.041 125.079C166.567 123.017 163.47 119.237 162.093 114.77C160.716 110.303 161.749 105.492 164.502 101.369ZM93.6079 112.021C94.9845 107.21 98.0818 103.431 102.556 101.712C105.309 105.492 106.341 110.647 104.965 115.114C103.588 119.924 100.491 123.704 96.0169 125.422C93.2638 121.643 92.2313 116.488 93.6079 112.021ZM65.3879 123.017C69.1735 120.268 74.3357 119.237 78.8096 120.612C83.6277 121.986 87.4133 125.079 89.134 129.546C85.3484 132.295 80.1862 133.326 75.7123 131.951C71.2384 130.233 67.4528 127.141 65.3879 123.017ZM47.1482 181.777C52.6545 188.993 61.2582 193.803 71.2384 193.803C66.4204 198.271 62.2906 203.425 58.505 209.266L57.4726 210.985L58.505 212.703C62.2906 218.544 66.4204 223.355 71.2384 228.166C61.2582 228.166 52.6545 232.976 47.1482 240.193V181.777ZM167.943 210.985C167.943 230.227 152.457 245.69 133.185 245.69C113.913 245.69 98.4259 230.227 98.4259 210.985C98.4259 191.742 113.913 176.279 133.185 176.279C152.457 176.279 167.943 191.742 167.943 210.985ZM157.619 178.34C175.171 183.838 191.001 195.178 201.67 210.985C191.001 226.791 175.515 238.131 157.619 243.629C167.599 236.069 174.138 224.386 174.138 210.985C174.138 197.583 167.599 185.9 157.619 178.34ZM149.36 252.219C149.36 252.219 149.704 252.219 149.36 252.219C149.704 252.219 149.36 252.219 149.36 252.219ZM117.01 251.876C117.01 251.876 116.666 251.876 117.01 251.876C116.666 251.876 117.01 251.876 117.01 251.876ZM92.5755 210.985C92.5755 224.386 99.1142 236.069 109.094 243.629C91.543 238.131 75.7123 226.791 65.0438 210.985C75.7123 195.178 91.1989 183.838 109.094 178.34C99.1142 185.9 92.5755 197.583 92.5755 210.985ZM78.8096 301.357C73.9916 302.388 69.1735 301.701 65.3879 298.952C67.4528 294.485 71.2384 291.392 75.7123 290.018C80.5303 288.643 85.3484 289.674 89.134 292.423C87.0691 296.89 83.2835 299.983 78.8096 301.357ZM102.212 320.257C97.7377 318.195 94.6403 314.415 93.2638 309.948C91.8872 305.137 92.9196 300.327 95.6728 296.547C100.147 298.608 103.244 302.388 104.621 306.855C105.997 311.323 104.965 316.477 102.212 320.257ZM173.106 309.948C171.729 314.759 168.632 318.539 164.158 320.257C161.405 316.477 160.372 311.323 161.749 306.855C163.125 302.045 166.223 298.265 170.697 296.547C173.45 300.327 174.482 305.137 173.106 309.948ZM201.326 298.952C197.54 301.701 192.378 302.732 187.904 301.357C183.086 299.983 179.3 296.89 177.58 292.423C181.365 289.674 186.527 288.643 191.001 290.018C195.475 291.392 199.261 294.485 201.326 298.952ZM195.475 282.115C189.625 282.115 184.118 280.053 179.644 276.273L176.547 273.524L174.826 277.304C167.255 293.454 151.08 303.763 133.529 303.763C115.977 303.763 99.4584 293.454 92.2313 277.304L90.5106 273.524L87.4133 276.273C82.9394 280.053 77.433 282.115 71.5825 282.115C58.1608 282.115 47.4923 271.462 47.4923 258.061C47.4923 244.66 58.1608 234.007 71.5825 234.007C73.3033 234.007 74.6799 234.007 76.4006 234.351C78.1213 234.695 79.8421 235.382 81.5628 236.069C84.316 238.131 87.0691 239.849 89.8223 241.223C79.8421 242.254 70.8943 248.439 66.4204 258.061L71.9267 260.466C75.7123 252.219 83.9718 247.065 92.9196 247.065C100.835 247.065 108.406 251.188 112.536 258.061C109.783 260.81 107.374 263.903 105.997 267.339L111.504 269.744C115.633 260.81 124.581 255.312 134.217 255.312C143.853 255.312 152.801 261.154 156.931 269.744L162.437 267.339C160.716 263.903 158.307 260.466 155.554 258.061C159.684 251.532 167.255 247.409 175.171 247.409C184.118 247.409 192.378 252.563 196.163 260.81L201.67 258.405C197.196 249.127 188.248 242.942 178.268 241.567C181.021 239.849 183.774 238.131 186.527 236.413C188.248 235.725 189.969 235.038 191.69 234.695C193.066 234.351 194.787 234.351 196.508 234.351C209.929 234.351 220.598 245.003 220.598 258.405C219.565 271.462 208.897 282.115 195.475 282.115ZM219.565 239.849C214.059 232.633 205.455 227.822 195.475 227.822C200.293 223.355 204.423 218.201 208.209 212.359L209.241 210.641L208.209 208.923C204.423 203.425 200.293 198.271 195.475 193.46C205.455 193.46 214.059 188.649 219.565 181.433V239.849ZM195.475 187.618C193.754 187.618 192.378 187.618 190.657 187.275C188.936 186.931 187.216 186.244 185.839 185.556C183.086 183.495 180.333 181.777 177.58 180.058C187.56 179.028 196.508 172.842 200.981 163.221L195.475 160.816C191.69 169.063 183.43 174.217 174.482 174.217C166.567 174.217 158.996 170.093 154.866 163.221C157.619 160.472 160.028 157.379 161.405 153.943L155.898 151.538C151.769 160.472 142.821 165.97 133.185 165.97C123.549 165.97 114.601 160.128 110.471 151.538L104.965 153.943C106.685 157.379 109.094 160.816 111.848 163.221C107.718 169.75 100.147 173.873 92.2313 173.873C83.2835 173.873 75.024 168.719 71.2384 160.472L65.7321 162.877C70.206 172.155 78.8096 178.34 89.134 179.371C86.3808 181.089 83.6277 182.807 80.8745 184.869C79.1538 185.556 77.7772 186.244 76.0564 186.587C74.6799 186.931 72.9591 186.931 71.2384 186.931C57.8167 186.931 47.1482 176.279 47.1482 162.877C47.1482 149.476 57.8167 138.824 71.2384 138.824C77.0889 138.824 82.5952 140.885 87.0691 144.665L90.1664 147.414L91.8872 143.634C99.4584 127.484 115.633 117.175 133.185 117.175C150.736 117.175 167.255 127.484 174.482 143.634L176.203 147.414L179.3 144.665C183.774 140.885 189.281 138.824 195.131 138.824C208.553 138.824 219.221 149.476 219.221 162.877C219.565 176.966 208.897 187.618 195.475 187.618ZM225.76 258.061V163.565V154.287H232.643V258.748C230.234 259.092 227.825 260.466 225.76 261.841V258.061ZM235.74 283.145L225.76 273.18C226.448 268.37 230.578 264.59 235.396 264.59C240.558 264.59 244.688 268.37 245.032 273.524L235.74 283.145ZM245.72 262.184C243.656 260.466 241.247 259.435 238.838 258.748V154.287H245.72V262.184ZM245.72 148.445H225.76V137.449H245.72V148.445Z" fill="#072119"/>
<path d="M265.337 97.9346L266.713 96.5601L266.369 94.842C263.96 85.9078 257.077 79.0354 248.473 76.9736C245.032 75.9428 241.591 75.9428 238.149 76.2864C240.214 73.5374 241.935 70.4448 242.967 67.0086C245.376 58.418 242.623 48.7965 236.428 42.6113L235.052 41.2368L233.331 41.5804C229.201 42.6113 225.76 44.6731 222.663 47.422C225.416 44.3294 227.481 40.8932 228.513 36.7697L228.857 35.0516L227.481 33.6771C221.286 27.8355 211.65 25.0865 203.046 27.4919C199.605 28.5228 196.507 29.8973 193.754 32.3026C194.443 28.8664 194.098 25.4302 193.066 21.9939C190.657 13.4034 183.774 6.53089 175.17 4.12553L173.45 3.43828L172.073 4.81277C168.976 7.56176 166.911 11.3416 165.878 15.1215C166.567 11.3416 166.567 7.21814 165.534 3.09466L165.19 1.37654L163.469 1.03292C154.866 -1.37244 145.23 1.03292 139.035 7.56176C136.626 9.96712 134.561 13.0597 133.529 16.1523C132.152 13.0597 130.431 9.96712 128.022 7.56176C121.484 1.03292 112.192 -1.37244 103.588 1.03292L101.867 1.37654L101.523 3.09466C99.8024 6.87451 99.8024 10.998 100.835 15.1215C99.4582 11.3416 97.3934 7.90538 94.6402 4.81277L93.2636 3.43828L91.5429 3.78191C82.5951 6.18727 75.7121 13.0597 73.6473 21.9939C72.6148 25.4302 72.6148 28.8664 72.959 32.3026C70.2058 30.2409 67.1085 28.5228 63.667 27.4919C55.0634 25.0865 45.4273 27.8355 39.2327 34.0207L37.8561 35.3952L38.2002 37.1133C39.2327 41.2368 41.2975 44.6731 44.0507 47.7657C40.9534 45.0167 37.5119 42.9549 33.3822 41.9241L31.6614 41.5804L30.2849 42.9549C24.0902 49.1402 21.6812 58.418 24.0902 67.0086C25.1227 70.4448 26.4993 73.5374 28.9083 76.2864C25.4668 75.5991 22.0254 75.9428 18.5839 76.9736C9.98024 79.379 3.09732 86.2515 0.688292 94.842L0 96.5601L1.37658 97.9346C6.19463 102.745 12.7334 105.494 19.2722 105.494C20.3046 105.494 21.3371 105.494 22.3695 105.151C20.9929 110.305 19.9605 115.803 19.2722 121.301H11.3568H5.16219V127.486V277.306V279.711L6.88292 281.773L18.928 293.8V299.985V300.329C19.6163 306.17 20.6488 312.012 22.0254 317.51C14.4541 316.823 6.88292 319.572 1.37658 325.07L0 326.1L0.344146 327.819C2.75317 336.753 9.63609 343.625 18.2397 345.687C20.3046 346.374 22.7136 346.374 24.7785 346.374C26.1551 346.374 27.1875 346.374 28.5641 346.031C26.4993 348.78 24.7785 351.872 23.7461 355.308C21.3371 363.899 24.0902 373.52 30.2849 379.706L31.6614 381.08L33.3822 380.736C37.5119 379.706 40.9534 377.644 44.0507 374.895C41.2975 377.987 39.2327 381.424 38.2002 385.547L37.8561 387.265L39.2327 388.64C44.0507 393.451 50.5895 396.2 57.1283 396.2C59.1931 396.2 61.6022 395.856 63.667 395.512C67.1085 394.481 70.2058 393.107 72.959 390.702C72.2707 394.138 72.6148 397.574 73.6473 401.01C76.0563 409.601 82.9392 416.473 91.5429 418.879L93.2636 419.222L94.6402 417.848C97.7375 415.099 99.8024 411.319 100.835 407.539C100.147 411.319 100.147 415.442 101.179 419.566L101.523 421.284L103.244 421.628C105.309 422.315 107.718 422.658 109.783 422.658C116.321 422.658 122.86 419.91 127.678 415.442C130.087 413.037 132.152 409.944 133.185 406.852C134.561 409.944 136.282 413.037 138.691 415.442C143.509 420.253 150.048 422.658 156.586 422.658C158.651 422.658 161.06 422.315 163.125 421.628L164.846 421.284L165.19 419.566C166.223 415.442 166.223 411.319 165.534 407.539C166.911 411.319 168.976 414.755 171.729 417.848L173.106 419.222L174.826 418.879C183.774 416.473 190.657 409.601 192.722 401.01C193.754 397.574 193.754 394.138 193.41 390.702C196.163 392.763 199.261 394.481 202.702 395.512C204.767 396.2 207.176 396.2 209.241 396.2C215.78 396.2 222.318 393.451 227.136 388.64L228.513 387.265L228.169 385.547C227.136 381.424 225.072 377.987 222.318 374.895C225.416 377.644 228.857 379.706 232.987 380.736L234.708 381.08L236.084 379.706C242.623 373.177 245.032 363.899 242.623 355.308C241.591 351.872 240.214 348.78 237.805 346.031C239.182 346.374 240.214 346.374 241.591 346.374C243.655 346.374 246.064 346.031 248.129 345.687C256.733 343.282 263.616 336.409 266.025 327.819L266.369 326.1L264.993 324.726C259.486 319.228 251.571 316.479 244 317.51C245.376 311.668 246.409 305.827 247.097 299.641V293.456L259.142 281.429L260.863 279.711V277.306V127.486V121.301H254.668H246.753C246.064 115.803 245.032 110.305 243.655 105.151C244.688 105.151 245.72 105.494 246.409 105.494C253.98 105.494 260.519 102.745 265.337 97.9346ZM232.987 48.4529C237.117 53.2636 238.493 59.7925 236.773 65.6341C235.74 69.0703 234.019 72.1629 231.61 74.5683C230.234 75.9428 228.513 77.3173 226.448 78.0045C225.76 78.3481 225.416 78.6917 224.727 78.6917C222.318 75.9428 220.942 72.5065 220.598 69.0703C220.254 66.6649 220.254 63.9159 220.942 61.5106C220.942 61.167 221.286 60.8233 221.286 60.4797C223.351 54.6381 227.481 50.171 232.987 48.4529ZM216.812 55.3254C216.124 54.6381 215.435 53.9509 215.091 53.2636C217.156 52.2328 219.221 50.8583 220.942 49.1402C219.221 51.2019 217.845 52.92 216.812 55.3254ZM192.722 42.9549C193.754 41.2368 194.787 39.5187 196.507 38.1442C198.916 36.0825 201.67 34.3644 204.767 33.3335C210.962 31.6154 217.156 33.3335 221.974 37.1133C219.909 42.6113 215.78 46.7348 210.273 48.7965C209.929 48.7965 209.241 49.1402 208.897 49.1402C206.488 49.8274 204.423 49.8274 202.014 49.8274C198.228 49.4838 194.443 47.7657 191.345 45.3603C191.689 44.6731 192.034 43.6422 192.722 42.9549ZM214.747 61.8542C214.403 63.5723 214.403 65.6341 214.403 67.3522C210.962 63.2287 207.176 59.4489 203.046 55.669C203.39 55.669 203.735 55.669 204.079 55.669C205.455 55.669 207.176 55.3254 208.553 55.3254C210.617 57.3871 212.682 59.7925 214.747 61.8542ZM175.17 10.3107C181.021 12.3725 185.495 17.1832 187.216 23.3684C187.904 26.461 187.904 29.8973 187.216 32.6462C186.871 34.708 185.839 36.4261 184.806 38.1442C184.462 38.8315 183.774 39.5187 183.086 40.206C179.3 38.8315 175.859 36.0825 173.794 32.9899C172.761 31.2718 171.729 29.21 171.041 27.1483C171.041 26.461 170.696 25.7738 170.696 25.0865C170.352 20.2758 171.729 14.7778 175.17 10.3107ZM165.878 30.5845C166.567 32.3026 167.255 34.0207 168.287 35.7389C163.469 34.0207 158.651 32.6462 153.489 31.6154C155.21 30.5845 156.586 29.5536 158.307 28.1791C161.06 29.21 163.469 29.8973 165.878 30.5845ZM165.534 17.5268C165.19 19.5886 164.846 21.6503 164.846 24.0557C164.158 23.712 163.469 23.712 162.781 23.3684C163.814 21.3067 164.846 19.5886 165.534 17.5268ZM138.691 19.5886C139.723 16.496 141.1 13.747 143.509 11.6852C147.983 7.21814 154.177 5.1564 160.372 6.53089C161.405 12.0289 159.684 17.5268 156.242 21.9939C155.898 22.3376 155.554 23.0248 154.866 23.3684C153.489 24.7429 151.768 26.1174 149.704 26.8047C145.918 28.5228 141.788 29.21 137.658 28.5228C137.658 27.4919 137.658 26.8047 137.658 25.7738C137.658 23.712 138.003 21.6503 138.691 19.5886ZM133.529 36.0825C183.43 36.0825 225.072 72.5065 231.954 121.301H219.221L220.254 117.865L217.5 115.116L214.059 112.023C213.371 111.336 212.682 110.992 212.338 110.649C207.176 71.132 173.794 41.5804 133.873 41.5804C93.6078 41.5804 60.2256 71.132 55.4075 110.649C54.7192 110.992 54.0309 111.68 53.6868 112.023L50.2453 115.116L47.4922 117.865L48.5246 121.301H35.7912C41.6417 72.5065 83.2834 36.0825 133.529 36.0825ZM64.0112 97.9346C66.0761 92.093 68.4851 86.2515 71.9265 81.0971L80.5302 85.9078C78.1212 90.0313 76.4004 94.842 75.0239 99.6528L64.0112 97.9346ZM67.1085 104.807C65.0436 105.151 63.3229 105.838 61.6022 106.525C61.9463 105.494 61.9463 104.807 62.2905 103.776L67.1085 104.807ZM75.368 76.2864C78.8095 71.4757 83.2834 67.3522 87.7573 63.5723L93.2636 70.1012C89.478 73.1938 86.3807 76.9736 83.6275 81.0971L75.368 76.2864ZM92.5753 60.1361C97.3934 57.0435 102.556 54.2945 107.718 52.2328L110.471 59.4488C105.997 61.167 101.867 63.5723 97.7375 66.3213L92.5753 60.1361ZM133.529 61.167C158.651 61.167 179.644 77.6609 186.183 101.027C182.397 93.8112 175.859 87.9696 167.599 85.5642L163.469 84.1897L159.684 82.8152L156.931 85.9078L153.833 89.3441C150.048 93.4675 147.639 98.2783 146.262 103.776C142.132 102.745 137.658 102.402 133.185 102.402C128.711 102.402 124.581 102.745 120.107 103.776C118.73 98.6219 116.321 93.4675 112.536 89.3441L109.438 85.9078L106.685 82.8152L102.9 84.1897L98.7699 85.5642C90.5104 88.3132 83.9717 93.8112 80.186 101.027C87.069 77.6609 108.406 61.167 133.529 61.167ZM113.568 50.5146C118.73 49.1402 124.581 48.1093 130.087 47.7657V54.9817C125.269 55.3254 120.451 56.0126 115.977 57.3871L113.568 50.5146ZM136.282 55.3254V48.1093C142.132 48.4529 147.639 49.1402 152.801 50.8583L150.392 57.7307C145.918 56.3562 141.1 55.3254 136.282 55.3254ZM156.242 59.4488L158.996 52.2328C164.502 54.2945 169.664 56.6999 174.138 60.1361L168.976 66.3213C164.846 63.5723 160.716 61.5106 156.242 59.4488ZM183.43 81.0971C180.677 76.9736 177.235 73.5374 173.794 70.1012L179.3 63.5723C183.774 67.3522 188.248 71.4757 191.689 76.2864L183.43 81.0971ZM195.131 81.4407C198.572 86.5951 200.981 92.093 203.046 98.2783L192.034 100.34C190.657 95.5293 188.936 91.0622 186.527 86.5951L195.131 81.4407ZM204.423 103.776C204.767 104.807 204.767 105.494 205.111 106.525C203.39 105.838 201.325 105.151 199.605 104.807L204.423 103.776ZM49.9012 55.3254C48.8688 53.2636 47.4922 51.2019 45.7714 49.4838C47.4922 51.2019 49.557 52.2328 51.6219 53.6073C50.9336 53.9509 50.5895 54.6381 49.9012 55.3254ZM51.9661 61.8542C54.0309 59.7925 56.0958 57.3871 58.1607 55.3254C59.5373 55.669 61.258 55.669 62.6346 55.669C62.9787 55.669 63.3229 55.669 63.667 55.669C59.5373 59.1052 55.7517 63.2287 52.3102 67.3522C52.6544 65.6341 52.3102 63.5723 51.9661 61.8542ZM106.341 6.53089C112.536 5.50002 118.73 7.56176 123.204 11.6852C125.613 14.0906 126.99 16.8396 128.022 19.5886C128.711 21.6503 129.055 23.712 128.711 25.7738C128.711 26.8047 128.711 27.8355 128.367 28.5228C124.237 29.21 120.107 28.5228 116.321 26.8047C114.601 25.7738 112.88 24.7429 111.159 23.3684C110.815 23.0248 110.127 22.3376 109.783 21.9939C107.029 17.5268 105.653 11.6852 106.341 6.53089ZM103.932 23.3684C103.244 23.712 102.556 23.712 101.867 24.0557C101.867 21.9939 101.867 19.5886 101.179 17.5268C101.867 19.5886 102.9 21.3067 103.932 23.3684ZM100.835 30.5845C103.244 29.8973 105.997 29.21 108.75 28.5228C110.127 29.8973 111.847 30.9281 113.568 31.959C108.406 32.9899 103.588 34.3644 98.7699 36.0825C99.4582 34.0207 100.147 32.3026 100.835 30.5845ZM79.4978 23.3684C81.2185 17.1832 85.6924 12.3725 91.5429 10.3107C94.9843 14.4342 96.7051 20.2758 95.6726 25.7738C95.6726 26.461 95.3285 27.1483 95.3285 27.8355C94.6402 29.8973 93.9519 31.959 92.5753 33.6771C90.1663 37.1133 87.069 39.5187 83.2834 40.8932C82.5951 40.206 82.2509 39.5187 81.5626 38.8315C80.5302 37.1133 79.8419 35.0516 79.1536 33.3335C78.4653 29.8973 78.4653 26.461 79.4978 23.3684ZM62.2905 33.3335C65.3878 34.0207 68.1409 35.7389 70.55 38.1442C71.9265 39.5187 73.3031 41.2368 74.3356 42.9549C74.6797 43.6422 75.0239 44.6731 75.368 45.3603C72.2707 47.7657 68.8292 49.4838 64.6995 49.8274C62.2904 50.171 60.2256 49.8274 57.8165 49.1402C57.4724 49.1402 56.7841 48.7965 56.44 48.7965C50.9336 46.7348 46.8039 42.6113 44.739 37.1133C49.557 33.3335 56.0958 31.6154 62.2905 33.3335ZM33.7263 48.4529C39.2327 50.5146 43.3624 54.9817 45.4273 60.4797C45.4273 60.8233 45.7714 61.167 45.7714 61.5106C46.4597 63.9159 46.4597 66.6649 46.1156 69.0703C45.7714 72.5065 44.0507 75.9428 41.9858 78.6917C41.2975 78.3481 40.9534 78.3481 40.2651 78.0045C38.5444 76.9736 36.8236 75.9428 35.1029 74.5683C32.6939 72.1629 30.9732 69.0703 29.9407 65.6341C28.22 59.4489 29.5966 52.92 33.7263 48.4529ZM6.88292 94.842C8.9478 89.0004 13.7658 84.5333 19.9605 82.8152C23.4019 81.7844 27.1875 82.128 30.629 83.1588C32.6939 83.8461 34.4146 84.5333 36.1353 85.9078C36.4795 86.2515 37.1678 86.5951 37.5119 86.9387C36.4795 90.0313 34.7588 92.4367 32.3497 94.4984C30.2849 96.5601 27.5317 97.9346 24.4344 98.9655C18.2397 100.34 11.701 98.6219 6.88292 94.842ZM33.7263 100.684C31.6614 107.212 29.9407 114.085 28.9083 121.301H25.4668C26.1551 115.116 27.5317 109.274 28.9083 103.433C30.629 102.745 32.0056 101.714 33.7263 100.684ZM19.9605 340.189C13.7658 338.471 8.9478 334.004 6.88292 328.162C11.701 324.039 17.8956 322.664 24.0902 324.382C27.1875 325.07 29.5966 326.788 32.0056 328.506C34.4146 330.567 36.1353 333.316 37.1678 336.065C36.8236 336.409 36.1353 336.753 35.7912 337.096C34.0705 338.127 32.3497 339.158 30.2849 339.845C27.1875 340.876 23.4019 340.876 19.9605 340.189ZM25.1227 299.985L26.8434 301.703L29.2524 304.109C30.2849 310.294 31.6614 316.479 33.7263 322.321C32.3497 321.29 30.629 320.259 29.2524 319.572C27.1875 313.043 25.811 306.514 25.1227 299.985ZM33.7263 374.551C29.5966 369.741 28.22 363.212 29.9407 357.37C30.9732 353.934 32.6939 350.841 35.1029 348.436C36.4795 347.061 38.2002 345.687 40.2651 345C40.9534 344.656 41.2975 344.312 41.9858 344.312C44.3949 347.061 45.7714 350.498 46.1156 353.934C46.4597 356.339 46.4597 359.088 45.7714 361.494C45.7714 361.837 45.4273 362.181 45.4273 362.524C43.3624 368.022 39.2327 372.49 33.7263 374.551ZM49.9012 367.679C50.5895 368.366 51.2778 369.053 51.6219 369.741C49.557 370.771 47.4922 372.146 45.7714 373.864C47.4922 371.802 48.8688 369.741 49.9012 367.679ZM73.9914 379.706C72.959 381.424 71.9265 383.142 70.2058 384.516C67.7968 386.578 65.0436 388.296 61.9463 389.327C55.7517 391.045 49.557 389.327 44.739 385.547C46.8039 380.049 50.9336 375.926 56.44 373.864C56.7841 373.864 57.4724 373.52 57.8165 373.52C60.2256 372.833 62.2904 372.833 64.6995 372.833C68.4851 373.177 72.2707 374.895 75.368 377.3C75.0239 378.331 74.6797 379.018 73.9914 379.706ZM51.9661 361.15C52.3102 359.432 52.3102 357.37 52.3102 355.652C55.7517 359.775 59.5373 363.555 63.667 367.335C61.9463 367.335 59.8814 367.335 58.1607 367.679C56.0958 365.273 54.0309 363.212 51.9661 361.15ZM91.5429 412.35C85.6924 410.288 81.2185 405.477 79.4978 399.292C78.8095 396.199 78.8095 392.763 79.4978 390.014C79.8419 387.953 80.8743 386.234 81.9068 384.516C82.2509 383.829 82.9392 383.142 83.6275 382.455C87.4131 383.829 90.8546 386.578 92.9195 389.671C93.9519 391.389 94.9843 393.451 95.6726 395.512C95.6726 396.2 96.0168 396.887 96.0168 397.574C96.3609 402.385 94.9843 408.226 91.5429 412.35ZM100.835 392.42C100.147 390.702 99.4582 388.983 98.4258 387.265C103.244 388.983 108.062 390.358 113.224 391.389C111.503 392.42 110.127 393.451 108.406 394.825C105.997 393.794 103.244 393.107 100.835 392.42ZM101.179 405.477C101.523 403.416 101.867 401.354 101.867 398.948C102.556 399.292 103.244 399.292 103.932 399.636C102.9 401.354 101.867 403.416 101.179 405.477ZM128.022 403.072C126.99 406.165 125.613 408.914 123.204 410.975C118.73 415.442 112.536 417.504 106.341 416.13C105.309 410.632 106.685 405.134 110.471 400.667C110.815 400.323 111.159 399.636 111.847 399.292C113.224 397.918 114.945 396.543 117.01 395.856C120.795 394.138 124.925 393.451 129.055 394.138C129.055 395.169 129.399 396.2 129.399 396.887C129.055 399.292 128.711 401.354 128.022 403.072ZM133.185 386.922C83.2834 386.922 41.6417 350.498 34.7588 302.047L35.1029 301.703L46.8039 290.02C47.8363 291.051 49.2129 291.738 50.5895 292.425C50.2453 293.456 49.557 294.831 49.2129 295.862L47.8363 299.985L46.4597 303.765L49.2129 306.514L52.6544 309.606C53.3427 309.95 53.6868 310.637 54.3751 310.981C58.849 351.185 92.5753 381.08 133.185 381.08C173.794 381.08 207.52 350.841 211.994 310.981C212.682 310.637 213.026 309.95 213.715 309.606L217.156 306.514L219.909 303.765L218.533 299.985L217.156 295.862C216.812 294.831 216.468 293.456 215.78 292.425C217.156 291.738 218.189 290.707 219.565 290.02L231.266 301.703L231.61 302.047C224.727 350.498 183.086 386.922 133.185 386.922ZM202.702 324.726C200.637 330.567 198.228 336.409 194.787 341.563L186.527 336.753C188.936 332.629 190.657 327.819 192.034 323.008L202.702 324.726ZM196.163 317.51C199.261 317.166 202.358 316.135 205.111 315.104C204.767 316.479 204.767 317.853 204.423 319.228L196.163 317.51ZM173.45 352.559C177.235 349.467 180.333 345.687 183.086 341.563L191.345 346.374C187.904 351.185 183.43 355.308 178.956 359.088L173.45 352.559ZM174.138 362.868C169.32 365.961 164.158 368.71 158.996 370.771L156.242 363.555C160.716 361.837 164.846 359.432 168.976 356.683L174.138 362.868ZM133.185 361.837C107.374 361.837 85.3482 343.969 79.8419 319.572C83.6275 327.475 90.5104 333.66 99.1141 336.409L103.244 337.784L107.029 339.158L109.783 336.409L112.88 332.973C116.666 328.849 119.075 324.039 120.451 318.541C124.581 319.572 129.055 319.915 133.529 319.915C138.003 319.915 142.132 319.572 146.606 318.541C147.983 323.695 150.392 328.849 154.177 332.973L157.275 336.409L160.028 339.502L163.814 338.127L167.943 336.753C176.547 334.004 183.43 327.819 187.216 319.915C181.021 343.969 159.34 361.837 133.185 361.837ZM153.145 372.49C147.983 373.864 142.132 374.895 136.626 375.238V367.679C141.444 367.335 146.262 366.648 150.736 365.273L153.145 372.49ZM130.431 367.679V374.895C124.581 374.551 119.075 373.864 113.912 372.146L116.321 365.273C120.795 366.648 125.269 367.335 130.431 367.679ZM97.7375 356.339C101.523 359.088 105.997 361.494 110.471 363.212L107.718 370.428C102.211 368.366 97.0492 365.961 92.5753 362.524L97.7375 356.339ZM87.7573 359.088C83.2834 355.308 78.8095 351.185 75.368 346.374L83.6275 341.563C86.3807 345.687 89.8221 349.123 93.2636 352.559L87.7573 359.088ZM80.186 336.753L71.5824 341.563C68.1409 336.409 65.7319 330.911 63.667 324.726L74.6797 322.664C76.0563 327.819 77.777 332.286 80.186 336.753ZM62.2905 318.884C61.9463 317.51 61.6022 316.135 61.6022 314.761C64.3553 316.135 67.4526 316.823 70.55 317.166L62.2905 318.884ZM216.812 367.679C217.845 369.741 219.221 371.802 220.942 373.52C219.221 371.802 217.156 370.771 215.091 369.397C215.78 369.053 216.124 368.366 216.812 367.679ZM214.747 361.15C212.682 363.212 210.617 365.617 208.553 367.679C206.832 367.335 204.767 367.335 203.046 367.335C207.176 363.899 210.962 359.775 214.403 355.652C214.059 357.37 214.403 359.088 214.747 361.15ZM160.372 416.473C154.177 417.504 147.983 415.442 143.509 411.319C141.1 408.914 139.723 406.165 138.691 403.416C138.003 401.354 137.658 399.292 138.003 397.23C138.003 396.2 138.003 395.169 138.347 394.481C142.477 393.794 146.606 394.481 150.392 396.2C152.113 397.23 153.833 398.261 155.554 399.636C155.898 399.979 156.586 400.667 156.931 401.01C159.684 405.477 161.06 410.975 160.372 416.473ZM162.781 399.636C163.469 399.292 164.158 399.292 164.846 398.948C164.846 401.01 164.846 403.416 165.534 405.477C164.846 403.416 163.814 401.354 162.781 399.636ZM165.878 392.42C163.469 393.107 160.716 393.794 157.963 394.481C156.586 393.107 154.866 392.076 153.145 391.045C158.307 390.014 163.125 388.64 167.943 386.922C167.255 388.64 166.567 390.358 165.878 392.42ZM187.216 399.292C185.495 405.477 181.021 410.288 175.17 412.35C171.729 408.226 170.008 402.385 171.041 396.887C171.041 396.2 171.385 395.512 171.385 394.825C172.073 392.763 172.761 390.702 174.138 388.983C176.547 385.547 179.644 383.142 183.43 381.767C184.118 382.455 184.462 383.142 185.151 383.829C186.183 385.547 186.871 387.609 187.56 389.327C188.248 393.107 188.248 396.199 187.216 399.292ZM204.423 389.327C201.325 388.64 198.572 386.922 196.163 384.516C194.787 383.142 193.41 381.424 192.378 379.706C192.034 379.018 191.689 377.987 191.345 377.3C194.443 374.895 197.884 373.177 202.014 372.833C204.423 372.49 206.488 372.833 208.897 373.52C209.241 373.52 209.929 373.864 210.273 373.864C215.78 375.926 219.909 380.049 221.974 385.547C217.156 389.671 210.617 391.045 204.423 389.327ZM232.987 374.551C227.481 372.49 223.351 368.022 221.286 362.524C221.286 362.181 220.942 361.837 220.942 361.494C220.254 359.088 220.254 356.339 220.598 353.934C220.942 350.498 222.663 347.061 224.727 344.312C225.416 344.656 225.76 344.656 226.448 345C228.169 346.031 229.89 347.061 231.61 348.436C234.019 350.841 236.084 353.934 236.773 357.37C238.493 363.212 237.117 369.741 232.987 374.551ZM259.83 328.162C257.765 334.004 252.947 338.471 246.753 340.189C243.311 341.22 239.526 340.876 236.084 339.845C234.019 339.158 232.299 338.471 230.578 337.096C230.234 336.753 229.545 336.409 229.201 336.065C230.234 332.973 231.954 330.567 234.364 328.506C236.428 326.444 239.182 325.07 242.279 324.039C248.474 322.664 255.012 324.039 259.83 328.162ZM232.987 321.977C235.052 316.135 236.428 309.95 237.461 303.765L239.87 301.36L241.591 299.641C240.902 306.514 239.526 313.043 237.805 319.228C236.084 320.259 234.364 320.946 232.987 321.977ZM255.356 127.486V277.306L235.396 297.236L219.909 281.773C216.468 285.553 211.994 288.302 207.176 290.02C208.897 292.425 210.273 295.174 211.306 297.923L212.682 302.047L209.241 305.139C204.423 309.606 197.884 312.012 191.689 312.012C189.625 312.012 187.215 311.668 185.151 310.981C184.462 310.637 183.774 310.637 183.086 310.294C183.086 310.981 182.742 311.668 182.742 312.355C180.333 320.946 174.138 327.818 165.534 330.567L161.405 331.942L158.307 328.506C153.833 323.351 151.424 317.166 151.424 310.637C145.574 312.699 139.379 313.73 133.185 313.73C126.99 313.73 120.795 312.699 114.945 310.637C114.945 317.166 112.536 323.695 108.062 328.506L104.965 331.942L100.835 330.567C92.2312 327.818 86.0365 320.946 83.6275 312.355C83.2834 311.668 83.2834 310.981 83.2834 310.294C82.5951 310.637 81.9068 310.637 81.2185 310.981C79.1536 311.668 76.7446 312.012 74.6797 312.012C68.1409 312.012 61.9463 309.606 57.1283 305.139L53.6868 302.047L55.0634 297.923C56.0958 295.174 57.4724 292.425 59.1931 290.02C54.3751 288.302 50.2453 285.553 46.4597 281.773L30.9732 297.236L11.0127 277.306V127.486H50.5895V136.42C52.9985 134.359 56.0958 132.984 58.849 131.953C57.1283 129.548 55.7517 126.799 54.7192 124.05L53.3427 119.927L56.7841 116.834C61.6022 112.367 67.7968 109.961 74.3356 109.961C76.7446 109.961 78.8095 110.305 81.2185 110.992C81.9068 111.336 82.5951 111.336 83.2834 111.68C83.2834 110.992 83.6275 110.305 83.6275 109.618C86.0365 101.027 92.2312 94.1548 100.835 91.4058L104.965 90.0313L108.062 93.4675C112.536 98.6219 114.945 104.807 114.945 111.336C120.795 109.274 126.99 108.243 133.185 108.243C139.379 108.243 145.574 109.274 151.424 111.336C151.424 104.807 153.833 98.2783 158.307 93.4675L161.405 90.0313L165.534 91.4058C174.138 94.1548 180.333 101.027 182.742 109.618C183.086 110.305 183.086 110.992 183.086 111.68C183.774 111.336 184.462 111.336 185.151 110.992C187.56 110.305 189.625 109.961 192.034 109.961C198.572 109.961 204.767 112.367 209.585 116.834L213.026 119.927L211.65 124.05C210.617 126.799 209.241 129.548 207.52 131.953C210.617 132.984 213.371 134.702 215.78 136.42V127.486H255.356ZM232.987 100.684C234.364 101.714 236.084 102.745 237.461 103.433C239.182 109.274 240.214 115.116 241.246 121.301H237.805C237.117 114.085 235.396 107.212 232.987 100.684ZM242.623 98.6219C239.526 97.9346 236.773 96.2165 234.708 94.1548C232.299 92.093 230.578 89.3441 229.545 86.5951C229.89 86.2515 230.578 85.9078 230.922 85.5642C232.643 84.5333 234.364 83.5025 236.428 82.8152C239.87 81.7844 243.311 81.7844 246.753 82.4716C252.947 84.1897 257.765 88.6568 259.83 94.4984C255.012 98.6219 248.818 100.34 242.623 98.6219Z" fill="#072119"/>
<path d="M167.255 336.064L163.125 337.438L159.34 338.813L156.587 335.72L153.489 332.284C149.704 328.16 147.295 323.35 145.918 317.852C142.132 319.226 137.659 319.57 133.185 319.57C128.711 319.57 124.581 319.226 120.107 318.195C118.73 323.35 116.321 328.504 112.536 332.627L109.439 336.064L106.685 338.813L102.9 337.438L98.77 336.064C90.1663 333.315 83.2834 327.129 79.4978 319.226C85.0041 343.967 106.685 361.492 132.84 361.492C158.651 361.492 180.333 343.623 186.183 319.226C182.742 327.473 175.859 333.315 167.255 336.064Z" fill="#F9F9F4"/>
<path d="M133.529 61.165C108.406 61.165 87.4133 77.6589 80.8745 101.025C84.6601 93.8092 91.1989 88.3113 99.4584 85.5623L103.588 84.1878L107.374 82.8133L110.127 85.9059L113.224 89.3421C117.01 93.4656 119.419 98.2763 120.795 103.774C124.925 102.743 129.399 102.4 133.873 102.4C138.347 102.4 142.477 102.743 146.951 103.774C148.327 98.62 150.736 93.4656 154.522 89.3421L157.619 85.9059L160.372 83.1569L164.158 84.5314L168.288 85.9059C176.547 88.6549 183.086 94.1529 186.872 101.369C179.644 78.0026 158.307 61.165 133.529 61.165Z" fill="#F9F9F4"/>
</g>
<defs>
<clipPath id="clip0_1898_3437">
<rect width="266.713" height="423" fill="white"/>
</clipPath>
</defs>
</svg>
