<svg xmlns="http://www.w3.org/2000/svg" xmlns:xlink="http://www.w3.org/1999/xlink" width="95.863" height="72.262" viewBox="0 0 95.863 72.262"><defs><style>.a{fill:url(#a);}.b{fill:url(#b);}.c{fill:url(#c);}.d{fill-rule:evenodd;fill:url(#d);}</style><linearGradient id="a" x1="0.722" y1="0.295" x2="0" y2="1" gradientUnits="objectBoundingBox"><stop offset="0" stop-color="#a9294f"/><stop offset="0.522" stop-color="#d68060"/><stop offset="1" stop-color="#d68060"/></linearGradient><linearGradient id="b" x1="0.731" y1="0.287" x2="0" y2="1" gradientUnits="objectBoundingBox"><stop offset="0" stop-color="#a9294f"/><stop offset="0.542" stop-color="#d68060"/><stop offset="1" stop-color="#d68060"/></linearGradient><linearGradient id="c" x1="0.169" y1="0.211" x2="0.853" y2="0.799" gradientUnits="objectBoundingBox"><stop offset="0" stop-color="#583d72"/><stop offset="0.527" stop-color="#a9294f"/><stop offset="1" stop-color="#d68060"/></linearGradient><radialGradient id="d" cx="0.5" cy="0.5" r="3.438" gradientTransform="matrix(0, 1, -0.244, 0, 0.622, 0)" gradientUnits="objectBoundingBox"><stop offset="0" stop-color="#d68060"/><stop offset="0.596" stop-color="#a9294f"/><stop offset="1" stop-color="#583d72"/></radialGradient></defs><g transform="translate(-1524.556 -893.869)"><g transform="translate(1541.332 893.869)"><path class="a" d="M0,19.409,11.274,0,22.52,11.164Z" transform="translate(62.311 29.953) rotate(180)"/><path class="b" d="M1101,736.634l10.8-18.594,10.773,10.7Z" transform="translate(-1101 -698.607)"/><path class="c" d="M1172.662,608.373l11.218-19.433,29.407,29.329-11.181,19.344Z" transform="translate(-1161.875 -588.94)"/></g><path class="d" d="M372.432,84.245a.722.722,0,0,1,.732.481l2.844,6.964c.084.188.251.146.251-.063V84.872a.563.563,0,0,1,.627-.627h2.342a.555.555,0,0,1,.627.627V98.257a.563.563,0,0,1-.627.627h-3.074a.722.722,0,0,1-.732-.481l-2.844-6.964c-.084-.188-.251-.146-.251.063v6.755a.563.563,0,0,1-.627.627h-2.343a.572.572,0,0,1-.627-.627V84.872a.563.563,0,0,1,.627-.627Zm21.837,0a.555.555,0,0,1,.627.627v2.342a.563.563,0,0,1-.627.627h-5.061a.563.563,0,0,0-.627.627v.669a.572.572,0,0,0,.627.627h3.242a.555.555,0,0,1,.627.627v2.342a.563.563,0,0,1-.627.627h-3.242a.563.563,0,0,0-.627.627v.669a.572.572,0,0,0,.627.627h5.061a.555.555,0,0,1,.627.627v2.342a.555.555,0,0,1-.627.627h-8.783a.572.572,0,0,1-.627-.627V84.872a.563.563,0,0,1,.627-.627Zm15.437,4.706c0-1.38-.293-5.082-5.249-5.082s-5.249,3.7-5.249,5.082v5.228c0,1.38.293,5.082,5.249,5.082s5.249-3.7,5.249-5.082Zm-3.6,4.12c0,1.61-.1,2.593-1.652,2.593s-1.652-.983-1.652-2.593V90.058c0-1.61.1-2.593,1.652-2.593s1.652.983,1.652,2.593Zm18.2-8.825a.578.578,0,0,0-.627.648V98.256a.572.572,0,0,0,.627.627h2.342a.554.554,0,0,0,.627-.627V94.91a.563.563,0,0,1,.627-.627h1c3.723,0,5.229-1.589,5.229-5.019s-1.506-5.019-5.229-5.019h-4.6Zm3.6,6.441a.573.573,0,0,1-.627-.627V88.469a.563.563,0,0,1,.627-.627h1.13c1,0,1.506.125,1.506,1.422s-.5,1.422-1.506,1.422Zm20.582,7.487c0,.46-.208.711-.627.711H445.52a.563.563,0,0,1-.627-.627V96.437a.555.555,0,0,0-.627-.627h-1.8a.563.563,0,0,0-.627.627v1.819a.555.555,0,0,1-.627.627h-2.343c-.4,0-.627-.251-.627-.711V89.305c0-2.635.418-5.437,5.123-5.437s5.124,2.8,5.124,5.437Zm-3.6-8.867c0-1-.147-1.506-1.527-1.506s-1.526.5-1.526,1.506v2.28a.572.572,0,0,0,.627.627h1.8a.579.579,0,0,0,.627-.648Zm11.338-5.061a.681.681,0,0,1,.711.481l1.547,3.89c.084.188.209.188.293,0l1.547-3.89a.681.681,0,0,1,.711-.481h2.99c.481,0,.69.293.481.732l-3.743,8.365a.534.534,0,0,0-.042.251v4.664a.563.563,0,0,1-.627.627h-2.928a.573.573,0,0,1-.627-.627V93.593a.533.533,0,0,0-.042-.251l-3.765-8.365c-.209-.439,0-.732.481-.732h3.012Z" transform="translate(1155.826 866.871)"/></g></svg>