<svg xmlns="http://www.w3.org/2000/svg" width="165.868" height="64.88" viewBox="0 0 165.868 64.88"><defs><style>.a,.c{fill:#212841;}.a,.b{stroke:#212841;}.a{stroke-width:0.7px;}.b{fill:none;stroke-miterlimit:10;stroke-width:1.5px;}.c{font-size:19px;font-family:Roboto-Medium, Roboto;font-weight:500;letter-spacing:0.09em;}.d{letter-spacing:0.08em;}</style></defs><g transform="translate(-1211.318 -1097.813)"><g transform="translate(1211.668 1098.163)"><path class="a" d="M213.614,623.646a.969.969,0,1,1-.969.969.969.969,0,0,1,.969-.969m0-.646a1.614,1.614,0,1,0,1.614,1.614A1.614,1.614,0,0,0,213.614,623Z" transform="translate(-191.259 -562.048)"/><path class="a" d="M122.614,604.646a.969.969,0,1,1-.969.969.969.969,0,0,1,.969-.969m0-.646a1.614,1.614,0,1,0,1.614,1.614A1.614,1.614,0,0,0,122.614,604Z" transform="translate(-109.162 -544.907)"/><path class="a" d="M167.614,523.646a.969.969,0,1,1-.969.969.969.969,0,0,1,.969-.969m0-.646a1.614,1.614,0,1,0,1.614,1.614A1.614,1.614,0,0,0,167.614,523Z" transform="translate(-149.759 -471.832)"/><path class="a" d="M22.614,343.646a.969.969,0,1,1-.969.969.969.969,0,0,1,.969-.969m0-.646a1.614,1.614,0,1,0,1.614,1.614A1.614,1.614,0,0,0,22.614,343Z" transform="translate(-18.945 -309.442)"/><path class="a" d="M1.614,274.646a.969.969,0,1,1-.969.969.969.969,0,0,1,.969-.969m0-.646a1.614,1.614,0,1,0,1.614,1.614A1.614,1.614,0,0,0,1.614,274Z" transform="translate(0 -247.193)"/><path class="a" d="M1.614,194.646a.969.969,0,1,1-.969.969.969.969,0,0,1,.969-.969m0-.646a1.614,1.614,0,1,0,1.614,1.614A1.614,1.614,0,0,0,1.614,194Z" transform="translate(0 -175.02)"/><path class="a" d="M59.614,187.646a.969.969,0,1,1-.969.969.969.969,0,0,1,.969-.969m0-.646a1.614,1.614,0,1,0,1.614,1.614A1.614,1.614,0,0,0,59.614,187Z" transform="translate(-52.325 -168.705)"/><path class="a" d="M22.614,117.646a.969.969,0,1,1-.969.969.969.969,0,0,1,.969-.969m0-.646a1.614,1.614,0,1,0,1.614,1.614A1.614,1.614,0,0,0,22.614,117Z" transform="translate(-18.945 -105.553)"/><path class="a" d="M163.614,162.646a.969.969,0,1,1-.969.969.969.969,0,0,1,.969-.969m0-.646a1.614,1.614,0,1,0,1.614,1.614A1.614,1.614,0,0,0,163.614,162Z" transform="translate(-146.15 -146.151)"/><path class="a" d="M87.614,70.646a.969.969,0,1,1-.969.969.969.969,0,0,1,.969-.969m0-.646a1.614,1.614,0,1,0,1.614,1.614A1.614,1.614,0,0,0,87.614,70Z" transform="translate(-77.586 -63.152)"/><path class="a" d="M152.614,37.646a.969.969,0,1,1-.969.969.969.969,0,0,1,.969-.969m0-.646a1.614,1.614,0,1,0,1.614,1.614A1.614,1.614,0,0,0,152.614,37Z" transform="translate(-136.227 -33.38)"/><path class="a" d="M270.614.646a.969.969,0,1,1-.969.969.969.969,0,0,1,.969-.969m0-.646a1.614,1.614,0,1,0,1.614,1.614A1.614,1.614,0,0,0,270.614,0Z" transform="translate(-242.682 0)"/><path class="a" d="M329.614,101.646a.969.969,0,1,1-.969.969.969.969,0,0,1,.969-.969m0-.646a1.614,1.614,0,1,0,1.614,1.614A1.614,1.614,0,0,0,329.614,101Z" transform="translate(-295.91 -91.119)"/><path class="a" d="M308.614,42.646a.969.969,0,1,1-.969.969.969.969,0,0,1,.969-.969m0-.646a1.614,1.614,0,1,0,1.614,1.614A1.614,1.614,0,0,0,308.614,42Z" transform="translate(-276.964 -37.891)"/><path class="a" d="M350.614.646a.969.969,0,1,1-.969.969.969.969,0,0,1,.969-.969m0-.646a1.614,1.614,0,1,0,1.614,1.614A1.614,1.614,0,0,0,350.614,0Z" transform="translate(-314.855 0)"/><path class="a" d="M396.614,36.646a.969.969,0,1,1-.969.969.969.969,0,0,1,.969-.969m0-.646a1.614,1.614,0,1,0,1.614,1.614A1.614,1.614,0,0,0,396.614,36Z" transform="translate(-356.355 -32.478)"/><path class="a" d="M496.614,81.646a.969.969,0,1,1-.969.969.969.969,0,0,1,.969-.969m0-.646a1.614,1.614,0,1,0,1.614,1.614A1.614,1.614,0,0,0,496.614,81Z" transform="translate(-446.571 -73.075)"/><path class="a" d="M406.614,235.646a.969.969,0,1,1-.969.969.969.969,0,0,1,.969-.969m0-.646a1.614,1.614,0,1,0,1.614,1.614A1.614,1.614,0,0,0,406.614,235Z" transform="translate(-365.376 -212.009)"/><path class="a" d="M558.614,157.646a.969.969,0,1,1-.969.969.969.969,0,0,1,.969-.969m0-.646a1.614,1.614,0,1,0,1.614,1.614A1.614,1.614,0,0,0,558.614,157Z" transform="translate(-502.506 -141.64)"/><path class="a" d="M545.614,259.646a.969.969,0,1,1-.969.969.969.969,0,0,1,.969-.969m0-.646a1.614,1.614,0,1,0,1.614,1.614A1.614,1.614,0,0,0,545.614,259Z" transform="translate(-490.777 -233.66)"/><path class="a" d="M604.614,215.646a.969.969,0,1,1-.969.969.969.969,0,0,1,.969-.969m0-.646a1.614,1.614,0,1,0,1.614,1.614A1.614,1.614,0,0,0,604.614,215Z" transform="translate(-544.005 -193.965)"/><path class="a" d="M314.614,344.646a.969.969,0,1,1-.969.969.969.969,0,0,1,.969-.969m0-.646a1.614,1.614,0,1,0,1.614,1.614A1.614,1.614,0,0,0,314.614,344Z" transform="translate(-282.378 -310.344)"/><path class="a" d="M551.614,332.646a.969.969,0,1,1-.969.969.969.969,0,0,1,.969-.969m0-.646a1.614,1.614,0,1,0,1.614,1.614A1.614,1.614,0,0,0,551.614,332Z" transform="translate(-496.19 -299.518)"/><path class="a" d="M163.614,235.646a.969.969,0,1,1-.969.969.969.969,0,0,1,.969-.969m0-.646a1.614,1.614,0,1,0,1.614,1.614A1.614,1.614,0,0,0,163.614,235Z" transform="translate(-146.15 -212.009)"/><path class="a" d="M119.614,344.646a.969.969,0,1,1-.969.969.969.969,0,0,1,.969-.969m0-.646a1.614,1.614,0,1,0,1.614,1.614A1.614,1.614,0,0,0,119.614,344Z" transform="translate(-106.455 -310.344)"/><path class="a" d="M314.614,167.646a.969.969,0,1,1-.969.969.969.969,0,0,1,.969-.969m0-.646a1.614,1.614,0,1,0,1.614,1.614A1.614,1.614,0,0,0,314.614,167Z" transform="translate(-282.378 -150.661)"/><path class="b" d="M25.772,304.1V300.87L24.5,299.5" transform="translate(-22.103 -270.198)"/><path class="b" d="M37.5,146.5v1.761l2.642,2.837" transform="translate(-33.831 -132.167)"/><path class="b" d="M430.5,119.257l4.207-4.207V108.69L437.4,106" transform="translate(-388.382 -95.629)"/><path class="b" d="M187.5,186.5l.978,1.174.1,2.935-.978,1.37" transform="translate(-169.156 -168.254)"/><path class="b" d="M102.5,99.5v6.457l3.033,3.131.1,14.578" transform="translate(-92.472 -89.765)"/><path class="b" d="M25.5,219.5l5.723,5.723.147,9.539,4.99,4.99V257.46" transform="translate(-23.005 -198.025)"/><path class="b" d="M236.256,24.5,232,28.756l4.7,4.7h4.941" transform="translate(-209.302 -22.103)"/><path class="b" d="M167.5,66.5v3.424l7.827,7.925h6.653" transform="translate(-151.113 -59.994)"/><line class="b" x1="2.299" y2="2.299" transform="translate(32.481 2.495)"/><path class="b" d="M206.258,65.5V78.219l-4.892,4.99h-9.392L184,91.182V110.5" transform="translate(-165.998 -59.092)"/><path class="b" d="M228.5,226.39V200.757l6.164-5.968h14.871L261.324,183" transform="translate(-206.145 -165.096)"/><path class="b" d="M579.9,244.5v4.892l-4.4,4.3" transform="translate(-519.196 -220.579)"/><path class="b" d="M361.046,283.5l-7.436,7.436H340.5" transform="translate(-307.187 -255.763)"/></g><text class="c" transform="translate(1281.186 1136.701)"><tspan x="0" y="0">P</tspan><tspan class="d" y="0">r</tspan><tspan y="0">ecily AI</tspan></text></g></svg>