<svg xmlns="http://www.w3.org/2000/svg" width="244.288" height="50" viewBox="0 0 244.288 50"><defs><style>.a{fill:#7c878e;}</style></defs><g transform="translate(0)"><path class="a" d="M259.8,0a25,25,0,1,0,25,25h0A24.978,24.978,0,0,0,259.8,0Zm0,48.675A23.675,23.675,0,1,1,283.475,25h0A23.671,23.671,0,0,1,259.8,48.675ZM251.522,6.043a.3.3,0,0,0-.248.083A20.855,20.855,0,1,0,259.883,4.3h-.5a.676.676,0,0,0-.662.745.676.676,0,0,0,.662.745h.5a19.022,19.022,0,1,1-7.947,1.656.7.7,0,0,0,.331-.911.081.081,0,0,0-.083-.083.932.932,0,0,0-.662-.414Zm-.248,5.132a.632.632,0,0,0-.414.166,16.413,16.413,0,0,0-4.719,22.682,16.024,16.024,0,0,0,4.719,4.719c.166.083.248.166.414.166a1.1,1.1,0,0,0,.828-.5.8.8,0,0,0,0-1.159l-.083-.083a14.351,14.351,0,0,1-4.139-19.95,14.091,14.091,0,0,1,4.139-4.139.7.7,0,0,0,.331-.579,2.417,2.417,0,0,0-.166-.745,1.051,1.051,0,0,0-.911-.579Zm8.2,28.311a.752.752,0,0,0-.579.248,1.335,1.335,0,0,0-.248.745c0,.579.331.993.828.993h.331a16.354,16.354,0,0,0,0-32.7h-.331c-.5,0-.828.331-.828.993s.331.993.828.993h.331a14.45,14.45,0,0,1,0,28.891Zm-9.354-21.44a1.277,1.277,0,0,1,1.738,0,1.234,1.234,0,0,1,.166,1.407,9.443,9.443,0,0,0,0,11.093,1.232,1.232,0,0,1-.5,1.656,1.127,1.127,0,0,1-1.407-.248,11.934,11.934,0,0,1,0-13.907Z" transform="translate(-40.512)"/><path class="a" d="M263.795,32.463a1.418,1.418,0,0,1,0-2.815,3.851,3.851,0,0,0-.248-7.7,4.111,4.111,0,0,0-2.732.828V40.658c0,.828-.579,1.242-1.407,1.242S258,41.486,258,40.658V21.7c.083-.5.5-.911,1.159-1.407a9.049,9.049,0,0,1,4.636-1.242,6.681,6.681,0,0,1,6.457,6.954,6.751,6.751,0,0,1-6.457,6.457Zm0,5.215a1.418,1.418,0,0,1,0-2.815,9.069,9.069,0,0,0,0-18.129c-2.318,0-2.318.331-4.139.828a1.21,1.21,0,0,1-1.573-.828.9.9,0,0,1-.083-.414V5.642a1.418,1.418,0,0,1,2.815,0v8.609a11.916,11.916,0,0,1,5.878,23.1,10.713,10.713,0,0,1-2.9.331Z" transform="translate(-44.506 -0.758)"/><path class="a" d="M173.279,35a8.46,8.46,0,0,0,4.884,1.242c3.974,0,6.374-2.07,6.374-5.381,0-2.649-1.407-3.974-5.132-5.215-2.483-.828-3.56-1.573-3.56-2.815,0-1.573,1.325-2.318,3.228-2.318a9.221,9.221,0,0,1,4.884,1.325V19.523a9.732,9.732,0,0,0-4.8-1.325c-3.725,0-5.96,1.738-5.96,4.636,0,2.235,1.325,3.808,4.47,4.884,3.063.993,4.139,1.656,4.139,3.311,0,1.821-1.407,2.9-3.725,2.9A9.221,9.221,0,0,1,173.2,32.6ZM158.13,25.649c.331-3.146,1.987-5.05,4.967-5.05s4.636,1.656,4.719,5.05Zm12,7.119a14.263,14.263,0,0,1-5.629,1.159c-4.222,0-6.291-1.987-6.457-5.96h12.417c0-.5.083-1.407.083-1.821,0-4.884-2.483-7.864-7.2-7.864-5.3,0-8.03,3.891-8.03,9.023,0,5.795,3.063,9.023,8.858,9.023a12.467,12.467,0,0,0,5.96-1.242Zm-21.109,3.063,4.967-17.219h-2.649l-3.56,13.493-3.974-13.493h-2.98l-3.974,13.659L133.3,18.7h-2.98l4.967,17.219H138.1l4.139-13.659,3.974,13.659h2.815Zm-27.98-1.9c-3.477,0-5.381-2.649-5.381-6.623s1.9-6.705,5.381-6.705,5.381,2.649,5.381,6.623S124.438,33.927,121.044,33.927Zm0,2.318c5.464,0,8.2-3.974,8.2-9.023s-2.318-9.023-8.2-9.023c-5.464,0-8.2,3.974-8.2,9.023S115.249,36.245,121.044,36.245ZM97.534,21.51a7.691,7.691,0,0,1,4.056-.911c3.725,0,5.877,2.483,5.877,6.126,0,4.636-2.566,7.2-6.954,7.2a9.375,9.375,0,0,1-2.98-.5ZM94.885,35.334a17.189,17.189,0,0,0,5.464.911c6.291,0,10.017-3.477,10.017-9.6,0-5.3-3.228-8.444-8.444-8.444a9.587,9.587,0,0,0-4.3.911V10.5H94.885ZM78,44.606l3.311-8.775,6.871-17.219H85.2L79.984,32.685,74.852,18.613H71.789L78.66,35.831l-3.311,8.775H78ZM57.881,25.649c.331-3.146,1.987-5.05,4.967-5.05s4.636,1.656,4.719,5.05ZM69.8,32.768a14.263,14.263,0,0,1-5.629,1.159c-4.222,0-6.291-1.987-6.457-5.96H70.133c0-.5.083-1.407.083-1.821,0-4.884-2.483-7.864-7.2-7.864-5.3,0-8.03,3.891-8.03,9.023,0,5.795,3.063,9.023,8.858,9.023a12.467,12.467,0,0,0,5.96-1.242ZM52.087,35.831V24.573c0-4.884-2.98-6.374-6.705-6.374a24.438,24.438,0,0,0-7.7,1.49V35.831h2.732v-14.4a13.2,13.2,0,0,1,4.387-.745c3.146,0,4.636,1.076,4.636,4.884V35.914h2.649Zm-16.97-2.318a9.45,9.45,0,0,1-3.063.414c-1.242,0-2.152-.331-2.152-2.566V20.93h4.553V18.7H29.9V14.474H27.252V18.7h-2.9V20.93h2.9V31.858c0,3.063,1.656,4.387,4.139,4.387a10.829,10.829,0,0,0,3.642-.579ZM20.133,15.384a1.7,1.7,0,0,0,1.738-1.738h0a1.749,1.749,0,0,0-1.738-1.738,1.806,1.806,0,0,0-1.738,1.738,1.7,1.7,0,0,0,1.738,1.738ZM21.458,18.7H18.726V35.914h2.732ZM2.749,21.675A7.125,7.125,0,0,1,6.805,20.6c3.725,0,5.795,2.483,5.795,6.126,0,4.636-2.566,7.2-6.954,7.2a6.906,6.906,0,0,1-2.9-.5Zm0,22.93V35.914a10.491,10.491,0,0,0,2.815.331c6.126,0,9.934-3.477,9.934-9.6,0-5.215-3.311-8.444-8.361-8.444A10.91,10.91,0,0,0,.1,20.682V44.523Z" transform="translate(-0.1 -1.808)"/></g></svg>