<svg xmlns="http://www.w3.org/2000/svg" xmlns:xlink="http://www.w3.org/1999/xlink" width="292.488" height="59.865" viewBox="0 0 292.488 59.865"><defs><style>.a{fill:url(#a);}.b{fill:#005baa;}.c{fill:#4d4d4f;}</style><linearGradient id="a" x1="0.068" y1="0.235" x2="0.924" y2="0.735" gradientUnits="objectBoundingBox"><stop offset="0" stop-color="#c96aaa"/><stop offset="0.527" stop-color="#4c75ba"/><stop offset="1" stop-color="#00bdf2"/></linearGradient></defs><g transform="translate(-1388 -641.067)"><path class="a" d="M264.733,0a29.933,29.933,0,1,0,29.933,29.933h0A29.906,29.906,0,0,0,264.733,0Zm0,58.279a28.347,28.347,0,1,1,28.347-28.347h0a28.341,28.341,0,0,1-28.347,28.347ZM254.821,7.235a.364.364,0,0,0-.3.1,24.969,24.969,0,1,0,10.308-2.181h-.595a.81.81,0,0,0-.793.892.81.81,0,0,0,.793.892h.595a22.776,22.776,0,1,1-9.515,1.982.833.833,0,0,0,.4-1.09.1.1,0,0,0-.1-.1,1.116,1.116,0,0,0-.793-.5Zm-.3,6.145a.757.757,0,0,0-.5.2,19.652,19.652,0,0,0-5.65,27.157,19.186,19.186,0,0,0,5.65,5.65c.2.1.3.2.5.2a1.314,1.314,0,0,0,.991-.595.958.958,0,0,0,0-1.388l-.1-.1a17.183,17.183,0,0,1-4.956-23.887,16.871,16.871,0,0,1,4.956-4.956.834.834,0,0,0,.4-.694,2.894,2.894,0,0,0-.2-.892,1.258,1.258,0,0,0-1.09-.694Zm9.812,33.9a.9.9,0,0,0-.694.3,1.6,1.6,0,0,0-.3.892c0,.694.4,1.189.991,1.189h.4a19.58,19.58,0,0,0,0-39.15h-.4c-.595,0-.991.4-.991,1.189s.4,1.189.991,1.189h.4a17.3,17.3,0,0,1,0,34.591Zm-11.2-25.671a1.529,1.529,0,0,1,2.081,0,1.478,1.478,0,0,1,.2,1.685,11.306,11.306,0,0,0,0,13.281,1.476,1.476,0,0,1-.595,1.982,1.349,1.349,0,0,1-1.685-.3,14.288,14.288,0,0,1,0-16.651Z" transform="translate(1385.822 641.067)"/><path class="b" d="M264.938,38a1.7,1.7,0,0,1,0-3.37,4.611,4.611,0,1,0-.3-9.218,4.922,4.922,0,0,0-3.271.991V47.812c0,.991-.694,1.487-1.685,1.487S258,48.8,258,47.812v-22.7c.1-.595.595-1.09,1.388-1.685a10.834,10.834,0,0,1,5.55-1.487,8,8,0,0,1,7.731,8.326A8.083,8.083,0,0,1,264.938,38Zm0,6.244a1.7,1.7,0,0,1,0-3.37,10.859,10.859,0,0,0,0-21.706c-2.775,0-2.775.4-4.956.991a1.448,1.448,0,0,1-1.883-.991,1.078,1.078,0,0,1-.1-.5V5.887a1.7,1.7,0,0,1,3.37,0V16.195a14.267,14.267,0,0,1,7.037,27.653,12.826,12.826,0,0,1-3.469.4Z" transform="translate(1385.617 641.029)"/><path class="c" d="M207.448,39.838a10.129,10.129,0,0,0,5.848,1.487c4.758,0,7.632-2.478,7.632-6.442,0-3.172-1.685-4.758-6.145-6.244-2.973-.991-4.262-1.883-4.262-3.37,0-1.883,1.586-2.775,3.865-2.775a11.04,11.04,0,0,1,5.848,1.586V21.3a11.652,11.652,0,0,0-5.749-1.586c-4.46,0-7.136,2.081-7.136,5.55,0,2.676,1.586,4.559,5.352,5.848,3.667,1.189,4.956,1.982,4.956,3.965,0,2.181-1.685,3.469-4.46,3.469a11.04,11.04,0,0,1-5.848-1.586Zm-18.138-11.2c.4-3.766,2.379-6.046,5.947-6.046s5.55,1.982,5.65,6.046Zm14.372,8.524a17.077,17.077,0,0,1-6.74,1.388c-5.055,0-7.533-2.379-7.731-7.136h14.867c0-.595.1-1.685.1-2.181,0-5.848-2.973-9.416-8.623-9.416-6.343,0-9.614,4.658-9.614,10.8,0,6.938,3.667,10.8,10.605,10.8a14.927,14.927,0,0,0,7.136-1.487Zm-25.274,3.667,5.947-20.616h-3.172l-4.262,16.156-4.758-16.156H168.6l-4.758,16.354-4.262-16.255h-3.568l5.947,20.616h3.37l4.956-16.354,4.758,16.354h3.37Zm-33.5-2.28c-4.163,0-6.442-3.172-6.442-7.929s2.28-8.028,6.442-8.028,6.442,3.172,6.442,7.929S148.97,38.549,144.907,38.549Zm0,2.775c6.542,0,9.812-4.758,9.812-10.8s-2.775-10.8-9.812-10.8c-6.542,0-9.812,4.758-9.812,10.8S137.969,41.325,144.907,41.325ZM116.758,23.682a9.209,9.209,0,0,1,4.857-1.09c4.46,0,7.037,2.973,7.037,7.334,0,5.55-3.073,8.623-8.326,8.623a11.225,11.225,0,0,1-3.568-.595Zm-3.172,16.552a20.581,20.581,0,0,0,6.542,1.09c7.533,0,11.993-4.163,11.993-11.5,0-6.343-3.865-10.11-10.11-10.11a11.479,11.479,0,0,0-5.154,1.09V10.5h-3.271Zm-20.219,11.1,3.965-10.506,8.227-20.616H101.99L95.746,37.063,89.6,20.213H85.933L94.16,40.829,90.2,51.335h3.172Zm-24.085-22.7c.4-3.766,2.379-6.046,5.947-6.046s5.55,1.982,5.65,6.046Zm14.273,8.524a17.077,17.077,0,0,1-6.74,1.388c-5.055,0-7.533-2.379-7.731-7.136H83.951c0-.595.1-1.685.1-2.181,0-5.848-2.973-9.416-8.623-9.416-6.343,0-9.614,4.658-9.614,10.8,0,6.938,3.667,10.8,10.605,10.8a14.927,14.927,0,0,0,7.136-1.487ZM62.344,40.829V27.349c0-5.848-3.568-7.632-8.028-7.632A29.26,29.26,0,0,0,45.1,21.5V40.829h3.271V23.583a15.81,15.81,0,0,1,5.253-.892c3.766,0,5.55,1.288,5.55,5.848V40.928h3.172ZM42.026,38.054a11.314,11.314,0,0,1-3.667.5c-1.487,0-2.577-.4-2.577-3.073V22.988h5.451V20.312H35.781V15.258H32.61v5.055H29.141v2.676H32.61V36.072c0,3.667,1.982,5.253,4.956,5.253a12.966,12.966,0,0,0,4.361-.694ZM24.086,16.348a2.032,2.032,0,0,0,2.081-2.081h0a2.094,2.094,0,0,0-2.081-2.081A2.162,2.162,0,0,0,22,14.266a2.032,2.032,0,0,0,2.081,2.081Zm1.586,3.965H22.4V40.928h3.271ZM3.272,23.88a8.53,8.53,0,0,1,4.857-1.288c4.46,0,6.938,2.973,6.938,7.334,0,5.55-3.073,8.623-8.326,8.623a8.268,8.268,0,0,1-3.469-.595Zm0,27.455V40.928a12.561,12.561,0,0,0,3.37.4c7.334,0,11.894-4.163,11.894-11.5,0-6.244-3.965-10.11-10.011-10.11A13.062,13.062,0,0,0,.1,22.691V51.236Z" transform="translate(1387.9 640.975)"/></g></svg>