<svg xmlns="http://www.w3.org/2000/svg" xmlns:xlink="http://www.w3.org/1999/xlink" width="118" height="118" viewBox="0 0 118 118"><defs><style>.a{fill:#E14B2C;}.b{fill:#fff;}.c{filter:url(#a);}</style><filter id="a" x="0" y="0" width="118" height="118" filterUnits="userSpaceOnUse"><feOffset dy="3" input="SourceAlpha"/><feGaussianBlur stdDeviation="3" result="b"/><feFlood flood-opacity="0.161"/><feComposite operator="in" in2="b"/><feComposite in="SourceGraphic"/></filter></defs><g transform="translate(-901 -1564)"><g class="c" transform="matrix(1, 0, 0, 1, 901, 1564)"><path class="a" d="M50,0A50,50,0,1,1,0,50,50,50,0,0,1,50,0Z" transform="translate(9 6)"/></g><path class="b" d="M16.738,4.474a3,3,0,0,1,5.19,0L36.054,28.828a3,3,0,0,1-2.6,4.505H5.208a3,3,0,0,1-2.6-4.505Z" transform="translate(980.333 1600.667) rotate(90)"/></g></svg>