<svg xmlns="http://www.w3.org/2000/svg" width="129.409" height="50.5" viewBox="0 0 129.409 50.5"><defs><style>.a,.c{fill:#7c878e;}.a,.b{stroke:#7c878e;}.a{stroke-width:0.5px;}.b{fill:none;stroke-miterlimit:10;}.c{font-size:15px;font-family:Roboto-Regular, Roboto;letter-spacing:0.09em;}.d{letter-spacing:0.08em;}</style></defs><g transform="translate(0.25 0.25)"><g transform="translate(6469 -869)"><path class="a" d="M213.258,623.5a.755.755,0,1,1-.755.755.755.755,0,0,1,.755-.755m0-.5a1.258,1.258,0,1,0,1.258,1.258A1.258,1.258,0,0,0,213.258,623Z" transform="translate(-6664.841 293.485)"/><path class="a" d="M122.258,604.5a.755.755,0,1,1-.755.755.755.755,0,0,1,.755-.755m0-.5a1.258,1.258,0,1,0,1.258,1.258A1.258,1.258,0,0,0,122.258,604Z" transform="translate(-6580.777 311.037)"/><path class="a" d="M167.258,523.5a.755.755,0,1,1-.755.755.755.755,0,0,1,.755-.755m0-.5a1.258,1.258,0,1,0,1.258,1.258A1.258,1.258,0,0,0,167.258,523Z" transform="translate(-6622.348 385.863)"/><path class="a" d="M22.258,343.5a.755.755,0,1,1-.755.755.755.755,0,0,1,.755-.755m0-.5a1.258,1.258,0,1,0,1.258,1.258A1.258,1.258,0,0,0,22.258,343Z" transform="translate(-6488.399 552.143)"/><path class="a" d="M1.258,274.5a.755.755,0,1,1-.755.755.755.755,0,0,1,.755-.755m0-.5a1.258,1.258,0,1,0,1.258,1.258A1.258,1.258,0,0,0,1.258,274Z" transform="translate(-6469 615.884)"/><path class="a" d="M1.258,194.5a.755.755,0,1,1-.755.755.755.755,0,0,1,.755-.755m0-.5a1.258,1.258,0,1,0,1.258,1.258A1.258,1.258,0,0,0,1.258,194Z" transform="translate(-6469 689.787)"/><path class="a" d="M59.258,187.5a.755.755,0,1,1-.755.755.755.755,0,0,1,.755-.755m0-.5a1.258,1.258,0,1,0,1.258,1.258A1.258,1.258,0,0,0,59.258,187Z" transform="translate(-6522.579 696.253)"/><path class="a" d="M22.258,117.5a.755.755,0,1,1-.755.755.755.755,0,0,1,.755-.755m0-.5a1.258,1.258,0,1,0,1.258,1.258A1.258,1.258,0,0,0,22.258,117Z" transform="translate(-6488.399 760.918)"/><path class="a" d="M163.258,162.5a.755.755,0,1,1-.755.755.755.755,0,0,1,.755-.755m0-.5a1.258,1.258,0,1,0,1.258,1.258A1.258,1.258,0,0,0,163.258,162Z" transform="translate(-6618.652 719.348)"/><path class="a" d="M87.258,70.5a.755.755,0,1,1-.755.755.755.755,0,0,1,.755-.755m0-.5a1.258,1.258,0,1,0,1.258,1.258A1.258,1.258,0,0,0,87.258,70Z" transform="translate(-6548.445 804.335)"/><path class="a" d="M152.258,37.5a.755.755,0,1,1-.755.755.755.755,0,0,1,.755-.755m0-.5a1.258,1.258,0,1,0,1.258,1.258A1.258,1.258,0,0,0,152.258,37Z" transform="translate(-6608.491 834.82)"/><path class="a" d="M270.258.5a.755.755,0,1,1-.755.755A.755.755,0,0,1,270.258.5m0-.5a1.258,1.258,0,1,0,1.258,1.258A1.258,1.258,0,0,0,270.258,0Z" transform="translate(-6717.497 869)"/><path class="a" d="M329.258,101.5a.755.755,0,1,1-.755.755.755.755,0,0,1,.755-.755m0-.5a1.258,1.258,0,1,0,1.258,1.258A1.258,1.258,0,0,0,329.258,101Z" transform="translate(-6772 775.698)"/><path class="a" d="M308.258,42.5a.755.755,0,1,1-.755.755.755.755,0,0,1,.755-.755m0-.5a1.258,1.258,0,1,0,1.258,1.258A1.258,1.258,0,0,0,308.258,42Z" transform="translate(-6752.601 830.201)"/><path class="a" d="M350.258.5a.755.755,0,1,1-.755.755A.755.755,0,0,1,350.258.5m0-.5a1.258,1.258,0,1,0,1.258,1.258A1.258,1.258,0,0,0,350.258,0Z" transform="translate(-6791.399 869)"/><path class="a" d="M396.258,36.5a.755.755,0,1,1-.755.755.755.755,0,0,1,.755-.755m0-.5a1.258,1.258,0,1,0,1.258,1.258A1.258,1.258,0,0,0,396.258,36Z" transform="translate(-6833.894 835.744)"/><path class="a" d="M496.258,81.5a.755.755,0,1,1-.755.755.755.755,0,0,1,.755-.755m0-.5a1.258,1.258,0,1,0,1.258,1.258A1.258,1.258,0,0,0,496.258,81Z" transform="translate(-6926.271 794.174)"/><path class="a" d="M406.258,235.5a.755.755,0,1,1-.755.755.755.755,0,0,1,.755-.755m0-.5a1.258,1.258,0,1,0,1.258,1.258A1.258,1.258,0,0,0,406.258,235Z" transform="translate(-6843.131 651.912)"/><path class="a" d="M558.258,157.5a.755.755,0,1,1-.755.755.755.755,0,0,1,.755-.755m0-.5a1.258,1.258,0,1,0,1.258,1.258A1.258,1.258,0,0,0,558.258,157Z" transform="translate(-6983.546 723.966)"/><path class="a" d="M545.258,259.5a.755.755,0,1,1-.755.755.755.755,0,0,1,.755-.755m0-.5a1.258,1.258,0,1,0,1.258,1.258A1.258,1.258,0,0,0,545.258,259Z" transform="translate(-6971.537 629.741)"/><path class="a" d="M604.258,215.5a.755.755,0,1,1-.755.755.755.755,0,0,1,.755-.755m0-.5a1.258,1.258,0,1,0,1.258,1.258A1.258,1.258,0,0,0,604.258,215Z" transform="translate(-7026.04 670.387)"/><path class="a" d="M314.258,344.5a.755.755,0,1,1-.755.755.755.755,0,0,1,.755-.755m0-.5a1.258,1.258,0,1,0,1.258,1.258A1.258,1.258,0,0,0,314.258,344Z" transform="translate(-6758.144 551.22)"/><path class="a" d="M551.258,332.5a.755.755,0,1,1-.755.755.755.755,0,0,1,.755-.755m0-.5a1.258,1.258,0,1,0,1.258,1.258A1.258,1.258,0,0,0,551.258,332Z" transform="translate(-6977.079 562.305)"/><path class="a" d="M163.258,235.5a.755.755,0,1,1-.755.755.755.755,0,0,1,.755-.755m0-.5a1.258,1.258,0,1,0,1.258,1.258A1.258,1.258,0,0,0,163.258,235Z" transform="translate(-6618.652 651.912)"/><path class="a" d="M119.258,344.5a.755.755,0,1,1-.755.755.755.755,0,0,1,.755-.755m0-.5a1.258,1.258,0,1,0,1.258,1.258A1.258,1.258,0,0,0,119.258,344Z" transform="translate(-6578.006 551.22)"/><path class="a" d="M314.258,167.5a.755.755,0,1,1-.755.755.755.755,0,0,1,.755-.755m0-.5a1.258,1.258,0,1,0,1.258,1.258A1.258,1.258,0,0,0,314.258,167Z" transform="translate(-6758.144 714.729)"/><path class="b" d="M25.491,303.082v-2.515L24.5,299.5" transform="translate(-6491.633 592.328)"/><path class="b" d="M37.5,146.5v1.372l2.058,2.21" transform="translate(-6503.642 733.666)"/><path class="b" d="M430.5,116.328l3.277-3.277V108.1l2.1-2.1" transform="translate(-6866.688 771.079)"/><path class="b" d="M187.5,186.5l.762.915.076,2.287-.762,1.067" transform="translate(-6642.209 696.715)"/><path class="b" d="M102.5,99.5v5.03l2.363,2.439.076,11.357" transform="translate(-6563.688 777.084)"/><path class="b" d="M25.5,219.5l4.459,4.459.114,7.431,3.887,3.887v13.8" transform="translate(-6492.557 666.23)"/><path class="b" d="M235.316,24.5,232,27.816l3.659,3.659h3.849" transform="translate(-6683.317 846.367)"/><path class="b" d="M167.5,66.5v2.668l6.1,6.174h5.183" transform="translate(-6623.733 807.569)"/><line class="b" x1="1.791" y2="1.791" transform="translate(-6443.695 870.944)"/><path class="b" d="M201.34,65.5v9.909L197.529,79.3h-7.317L184,85.508v15.053" transform="translate(-6638.976 808.492)"/><path class="b" d="M228.5,216.8v-19.97l4.8-4.649h11.585L254.072,183" transform="translate(-6680.084 699.948)"/><path class="b" d="M578.93,244.5v3.811l-3.43,3.354" transform="translate(-7000.636 643.136)"/><path class="b" d="M356.506,283.5l-5.793,5.793H340.5" transform="translate(-6783.547 607.108)"/></g><text class="c" transform="translate(54.159 30)"><tspan x="0" y="0">P</tspan><tspan class="d" y="0">r</tspan><tspan y="0">ecily AI</tspan></text></g></svg>