<svg width="89" height="120" viewBox="0 0 89 120" fill="none" xmlns="http://www.w3.org/2000/svg">
<g clip-path="url(#clip0)">
<path d="M88.3721 42.0191C88.3794 47.9361 87.0457 53.7777 84.4715 59.1039C81.8973 64.4301 78.1496 69.1021 73.5107 72.7679C72.8827 73.9007 72.226 75.0287 71.5548 76.1279L67.6429 82.5599C65.7182 85.7199 63.0149 88.3316 59.7922 90.1446C56.5694 91.9576 52.9355 92.9111 49.2389 92.9135C45.5439 92.9094 41.9119 91.9552 38.691 90.1423C35.4701 88.3293 32.7682 85.7185 30.8444 82.5599L26.9325 76.1279C26.2614 75.0143 25.6046 73.8863 24.9766 72.7679C17.4902 66.8402 12.4234 58.3792 10.7285 48.9747C9.03358 39.5702 10.8271 29.8696 15.7721 21.6959C19.2624 15.937 24.1759 11.1759 30.0388 7.87162C35.9016 4.56738 42.5159 2.83154 49.2437 2.83154C55.9715 2.83154 62.5858 4.56738 68.4486 7.87162C74.3114 11.1759 79.2249 15.937 82.7152 21.6959C86.428 27.822 88.3851 34.8532 88.3721 42.0191Z" fill="#E08433"/>
<path d="M78.3047 39.1931C78.311 45.11 76.9768 50.9512 74.4027 56.2772C71.8286 61.6032 68.0815 66.2753 63.4434 69.9419C62.8106 71.0747 62.1586 72.2027 61.4875 73.3019L51.2763 90.1019H27.0332L16.8268 73.3019C16.1509 72.1883 15.4989 71.0603 14.8709 69.9419C7.38538 64.0136 2.31904 55.553 0.623332 46.1491C-1.07238 36.7451 0.719204 27.0448 5.66163 18.8699C9.15343 13.1122 14.0678 8.35236 19.9308 5.04907C25.7939 1.74578 32.408 0.010498 39.1355 0.010498C45.8631 0.010498 52.4772 1.74578 58.3403 5.04907C64.2033 8.35236 69.1177 13.1122 72.6095 18.8699C76.3364 24.9918 78.3069 32.0235 78.3047 39.1931Z" fill="#015123"/>
<path d="M53.6731 86.0591H24.2141C21.7624 86.0591 19.7749 88.0491 19.7749 90.5039C19.7749 92.9587 21.7624 94.9487 24.2141 94.9487H53.6731C56.1248 94.9487 58.1123 92.9587 58.1123 90.5039C58.1123 88.0491 56.1248 86.0591 53.6731 86.0591Z" fill="#015123"/>
<path d="M29.9671 98.9905H47.9397C49.4655 98.9905 50.9287 99.5973 52.0075 100.678C53.0864 101.758 53.6925 103.223 53.6925 104.75V107.52C53.6925 109.159 53.3701 110.782 52.7437 112.296C52.1173 113.81 51.1992 115.186 50.0418 116.345C48.8844 117.504 47.5103 118.423 45.9981 119.05C44.4858 119.677 42.865 120 41.2282 120H36.6787C33.3729 120 30.2026 118.685 27.8651 116.345C25.5276 114.004 24.2144 110.83 24.2144 107.52V104.75C24.2144 103.223 24.8204 101.758 25.8993 100.678C26.9782 99.5973 28.4414 98.9905 29.9671 98.9905Z" fill="#E08433"/>
<path d="M43.6682 77.5777H34.8521C34.1091 77.5777 33.3888 77.3214 32.8125 76.8519C32.2362 76.3825 31.8391 75.7284 31.6881 75.0001L25.4895 45.1201C25.402 44.705 25.397 44.2767 25.4748 43.8597C25.5526 43.4427 25.7116 43.0451 25.9429 42.6896C26.1742 42.3342 26.4731 42.0278 26.8226 41.788C27.1721 41.5482 27.5654 41.3797 27.98 41.2921C28.3945 41.2044 28.8222 41.1994 29.2387 41.2773C29.6552 41.3552 30.0523 41.5145 30.4074 41.7461C30.7624 41.9776 31.0683 42.2769 31.3078 42.6269C31.5473 42.9768 31.7156 43.3706 31.8031 43.7857L37.4744 71.1121H41.0172L46.4631 43.8097C46.6566 42.9946 47.1584 42.2864 47.8628 41.8342C48.5672 41.382 49.4193 41.2211 50.2399 41.3853C51.0604 41.5495 51.7854 42.026 52.2621 42.7145C52.7388 43.403 52.9302 44.2499 52.796 45.0769L46.8322 74.9761C46.6852 75.7085 46.29 76.3675 45.7134 76.8416C45.1368 77.3157 44.4143 77.5757 43.6682 77.5777Z" fill="white"/>
<path d="M58.1029 39.36C57.5968 39.3561 57.1007 39.2187 56.6647 38.9615L45.8495 32.568L39.0516 36.0719L31.1224 32.544L21.3379 38.88C20.7043 39.2157 19.9683 39.3024 19.2741 39.1231C18.58 38.9438 17.9777 38.5114 17.5853 37.9107C17.193 37.31 17.0388 36.5842 17.1529 35.8756C17.2671 35.167 17.6415 34.5266 18.2026 34.08L30.5855 26.0303L38.8503 29.7024L46.0412 26.0063L59.589 34.0128C60.1333 34.3337 60.5569 34.8252 60.7945 35.4112C61.0321 35.9972 61.0704 36.6453 60.9035 37.2553C60.7366 37.8653 60.3738 38.4033 59.8711 38.7863C59.3684 39.1693 58.7538 39.376 58.1221 39.3744L58.1029 39.36Z" fill="white"/>
</g>
<defs>
<clipPath id="clip0">
<rect width="88.3721" height="120" fill="white"/>
</clipPath>
</defs>
</svg>
