<svg width="64" height="64" viewBox="0 0 64 64" fill="none" xmlns="http://www.w3.org/2000/svg">
<path d="M32.0007 48C31.4732 48 30.9577 48.1564 30.5191 48.4494C30.0806 48.7424 29.7388 49.1589 29.537 49.6461C29.3351 50.1334 29.2823 50.6696 29.3852 51.1869C29.4881 51.7041 29.7421 52.1793 30.115 52.5522C30.488 52.9252 30.9631 53.1792 31.4804 53.2821C31.9977 53.3849 32.5339 53.3321 33.0211 53.1303C33.5084 52.9285 33.9249 52.5867 34.2179 52.1481C34.5109 51.7096 34.6673 51.194 34.6673 50.6666C34.6673 49.9594 34.3864 49.2811 33.8863 48.781C33.3862 48.2809 32.7079 48 32.0007 48ZM48.0007 2.66663H16.0007C15.2934 2.66663 14.6151 2.94758 14.115 3.44767C13.6149 3.94777 13.334 4.62605 13.334 5.33329V29.3333C13.334 31.455 14.1768 33.4899 15.6771 34.9901C17.1774 36.4904 19.2123 37.3333 21.334 37.3333H24.0007V43.6533C22.6429 45.1929 21.7582 47.0915 21.4527 49.1215C21.1473 51.1514 21.4341 53.2263 22.2786 55.0973C23.1232 56.9683 24.4898 58.5558 26.2142 59.6694C27.9387 60.783 29.9479 61.3753 32.0007 61.3753C34.0534 61.3753 36.0626 60.783 37.7871 59.6694C39.5115 58.5558 40.8781 56.9683 41.7227 55.0973C42.5672 53.2263 42.854 51.1514 42.5486 49.1215C42.2431 47.0915 41.3584 45.1929 40.0007 43.6533V37.3333H42.6673C44.7891 37.3333 46.8239 36.4904 48.3242 34.9901C49.8245 33.4899 50.6673 31.455 50.6673 29.3333V5.33329C50.6673 4.62605 50.3864 3.94777 49.8863 3.44767C49.3862 2.94758 48.7079 2.66663 48.0007 2.66663ZM32.0007 56C30.9276 55.9918 29.882 55.6602 29.0004 55.0484C28.1188 54.4366 27.4422 53.5731 27.0592 52.5708C26.6761 51.5684 26.6043 50.4738 26.8531 49.43C27.102 48.3862 27.6599 47.4417 28.454 46.72C28.7302 46.4706 28.9512 46.1663 29.1028 45.8264C29.2544 45.4866 29.3331 45.1187 29.334 44.7466V37.3333H34.6673V44.7466C34.6682 45.1187 34.747 45.4866 34.8985 45.8264C35.0501 46.1663 35.2711 46.4706 35.5473 46.72C36.3414 47.4417 36.8994 48.3862 37.1482 49.43C37.397 50.4738 37.3252 51.5684 36.9421 52.5708C36.5591 53.5731 35.8825 54.4366 35.0009 55.0484C34.1193 55.6602 33.0737 55.9918 32.0007 56ZM45.334 29.3333C45.334 30.0405 45.053 30.7188 44.5529 31.2189C44.0528 31.719 43.3746 32 42.6673 32H21.334C20.6267 32 19.9485 31.719 19.4484 31.2189C18.9483 30.7188 18.6673 30.0405 18.6673 29.3333V26.6666H45.334V29.3333ZM45.334 21.3333H18.6673V7.99996H45.334V21.3333Z" fill="#A0BDB7"/>
</svg>
