<svg width="36" height="36" viewBox="0 0 36 36" fill="none" xmlns="http://www.w3.org/2000/svg">
<path d="M18 27C17.7033 27 17.4133 27.088 17.1666 27.2528C16.92 27.4176 16.7277 27.6519 16.6142 27.926C16.5006 28.2001 16.4709 28.5017 16.5288 28.7926C16.5867 29.0836 16.7296 29.3509 16.9393 29.5607C17.1491 29.7704 17.4164 29.9133 17.7074 29.9712C17.9983 30.0291 18.2999 29.9994 18.574 29.8858C18.8481 29.7723 19.0824 29.58 19.2472 29.3334C19.412 29.0867 19.5 28.7967 19.5 28.5C19.5 28.1022 19.342 27.7206 19.0607 27.4393C18.7794 27.158 18.3978 27 18 27ZM27 1.5H9C8.60218 1.5 8.22064 1.65804 7.93934 1.93934C7.65804 2.22064 7.5 2.60218 7.5 3V16.5C7.5 17.6935 7.97411 18.8381 8.81802 19.682C9.66193 20.5259 10.8065 21 12 21H13.5V24.555C12.7362 25.421 12.2386 26.489 12.0668 27.6308C11.895 28.7727 12.0563 29.9398 12.5314 30.9923C13.0065 32.0447 13.7751 32.9377 14.7451 33.5641C15.7152 34.1904 16.8453 34.5236 18 34.5236C19.1547 34.5236 20.2848 34.1904 21.2549 33.5641C22.2249 32.9377 22.9935 32.0447 23.4686 30.9923C23.9437 29.9398 24.105 28.7727 23.9332 27.6308C23.7614 26.489 23.2638 25.421 22.5 24.555V21H24C25.1935 21 26.3381 20.5259 27.182 19.682C28.0259 18.8381 28.5 17.6935 28.5 16.5V3C28.5 2.60218 28.342 2.22064 28.0607 1.93934C27.7794 1.65804 27.3978 1.5 27 1.5ZM18 31.5C17.3964 31.4954 16.8082 31.3089 16.3123 30.9648C15.8165 30.6206 15.4359 30.1349 15.2204 29.5711C15.0049 29.0073 14.9645 28.3915 15.1045 27.8044C15.2445 27.2172 15.5583 26.686 16.005 26.28C16.1604 26.1398 16.2847 25.9685 16.37 25.7774C16.4552 25.5862 16.4995 25.3793 16.5 25.17V21H19.5V25.17C19.5005 25.3793 19.5448 25.5862 19.63 25.7774C19.7153 25.9685 19.8396 26.1398 19.995 26.28C20.4417 26.686 20.7555 27.2172 20.8955 27.8044C21.0355 28.3915 20.9951 29.0073 20.7796 29.5711C20.5641 30.1349 20.1835 30.6206 19.6877 30.9648C19.1918 31.3089 18.6036 31.4954 18 31.5ZM25.5 16.5C25.5 16.8978 25.342 17.2794 25.0607 17.5607C24.7794 17.842 24.3978 18 24 18H12C11.6022 18 11.2206 17.842 10.9393 17.5607C10.658 17.2794 10.5 16.8978 10.5 16.5V15H25.5V16.5ZM25.5 12H10.5V4.5H25.5V12Z" fill="#A0BDB7"/>
</svg>
