<svg width="36" height="36" viewBox="0 0 36 36" fill="none" xmlns="http://www.w3.org/2000/svg">
<path d="M31.6099 25.2449L28.5049 22.0649C27.837 21.43 26.9945 21.0094 26.0857 20.857C25.1769 20.7047 24.2433 20.8276 23.4049 21.2099L22.0549 19.8599C23.6457 17.7343 24.3722 15.0849 24.0882 12.4452C23.8041 9.8054 22.5306 7.37125 20.524 5.63271C18.5174 3.89417 15.9267 2.98035 13.2734 3.07519C10.6201 3.17003 8.10119 4.2665 6.22382 6.14387C4.34645 8.02123 3.24999 10.5401 3.15514 13.1934C3.0603 15.8467 3.97413 18.4374 5.71267 20.4441C7.4512 22.4507 9.88536 23.7242 12.5251 24.0082C15.1649 24.2923 17.8142 23.5657 19.9399 21.9749L21.2749 23.3099C20.8475 24.1494 20.6943 25.1018 20.837 26.0329C20.9796 26.964 21.4108 27.8269 22.0699 28.4999L25.2499 31.6799C26.0936 32.5226 27.2374 32.996 28.4299 32.996C29.6224 32.996 30.7661 32.5226 31.6099 31.6799C32.0385 31.2608 32.379 30.7603 32.6115 30.2078C32.844 29.6553 32.9638 29.0619 32.9638 28.4624C32.9638 27.863 32.844 27.2696 32.6115 26.717C32.379 26.1645 32.0385 25.664 31.6099 25.2449ZM18.8899 18.8849C17.8402 19.9319 16.5038 20.6443 15.0495 20.9322C13.5951 21.22 12.0881 21.0704 10.7188 20.5022C9.34943 19.934 8.17921 18.9727 7.35594 17.7397C6.53266 16.5068 6.09328 15.0575 6.09328 13.5749C6.09328 12.0924 6.53266 10.6431 7.35594 9.41011C8.17921 8.17715 9.34943 7.21585 10.7188 6.64763C12.0881 6.07942 13.5951 5.92979 15.0495 6.21764C16.5038 6.50549 17.8402 7.21792 18.8899 8.26491C19.5883 8.9616 20.1425 9.78923 20.5206 10.7004C20.8987 11.6116 21.0933 12.5884 21.0933 13.5749C21.0933 14.5614 20.8987 15.5382 20.5206 16.4494C20.1425 17.3606 19.5883 18.1882 18.8899 18.8849ZM29.4949 29.4899C29.3554 29.6305 29.1895 29.7421 29.0067 29.8182C28.8239 29.8944 28.6279 29.9336 28.4299 29.9336C28.2319 29.9336 28.0358 29.8944 27.853 29.8182C27.6702 29.7421 27.5043 29.6305 27.3649 29.4899L24.1849 26.3099C24.0443 26.1705 23.9327 26.0046 23.8565 25.8218C23.7804 25.639 23.7412 25.4429 23.7412 25.2449C23.7412 25.0469 23.7804 24.8508 23.8565 24.668C23.9327 24.4853 24.0443 24.3194 24.1849 24.1799C24.3243 24.0393 24.4902 23.9277 24.673 23.8516C24.8558 23.7754 25.0519 23.7362 25.2499 23.7362C25.4479 23.7362 25.6439 23.7754 25.8267 23.8516C26.0095 23.9277 26.1754 24.0393 26.3149 24.1799L29.4949 27.3599C29.6355 27.4994 29.7471 27.6653 29.8232 27.848C29.8994 28.0308 29.9386 28.2269 29.9386 28.4249C29.9386 28.6229 29.8994 28.819 29.8232 29.0018C29.7471 29.1846 29.6355 29.3505 29.4949 29.4899Z" fill="#A0BDB7"/>
</svg>
