<svg width="64" height="64" viewBox="0 0 64 64" fill="none" xmlns="http://www.w3.org/2000/svg">
<path d="M56.1879 44.88L50.6679 39.2266C49.4806 38.098 47.9828 37.3501 46.3672 37.0793C44.7515 36.8084 43.0918 37.0269 41.6013 37.7066L39.2013 35.3066C42.0294 31.5277 43.321 26.8178 42.8161 22.1249C42.3111 17.432 40.0471 13.1046 36.4798 10.0138C32.9124 6.9231 28.3067 5.29852 23.5897 5.46712C18.8727 5.63573 14.3947 7.58501 11.0572 10.9226C7.71965 14.2601 5.77037 18.7381 5.60177 23.4551C5.43316 28.1721 7.05774 32.7778 10.1485 36.3451C13.2392 39.9124 17.5666 42.1765 22.2595 42.6814C26.9524 43.1864 31.6624 41.8948 35.4413 39.0666L37.8146 41.44C37.0548 42.9323 36.7826 44.6255 37.0361 46.2808C37.2897 47.9361 38.0563 49.4701 39.2279 50.6666L44.8813 56.32C46.3813 57.8181 48.4146 58.6596 50.5346 58.6596C52.6546 58.6596 54.6879 57.8181 56.1879 56.32C56.9499 55.5749 57.5553 54.6851 57.9687 53.7029C58.382 52.7206 58.5949 51.6657 58.5949 50.6C58.5949 49.5343 58.382 48.4793 57.9687 47.4971C57.5553 46.5148 56.9499 45.625 56.1879 44.88V44.88ZM33.5746 33.5733C31.7086 35.4346 29.3327 36.7012 26.7472 37.2129C24.1618 37.7246 21.4826 37.4586 19.0482 36.4485C16.6138 35.4383 14.5334 33.7293 13.0698 31.5374C11.6062 29.3455 10.8251 26.7689 10.8251 24.1333C10.8251 21.4977 11.6062 18.9211 13.0698 16.7292C14.5334 14.5373 16.6138 12.8283 19.0482 11.8181C21.4826 10.808 24.1618 10.542 26.7472 11.0537C29.3327 11.5654 31.7086 12.832 33.5746 14.6933C34.8163 15.9319 35.8014 17.4032 36.4736 19.0231C37.1458 20.6429 37.4918 22.3795 37.4918 24.1333C37.4918 25.8871 37.1458 27.6237 36.4736 29.2435C35.8014 30.8634 34.8163 32.3348 33.5746 33.5733V33.5733ZM52.4279 52.4266C52.18 52.6766 51.8851 52.875 51.5601 53.0103C51.2352 53.1457 50.8866 53.2154 50.5346 53.2154C50.1826 53.2154 49.834 53.1457 49.5091 53.0103C49.1841 52.875 48.8892 52.6766 48.6413 52.4266L42.9879 46.7733C42.738 46.5254 42.5396 46.2305 42.4042 45.9055C42.2688 45.5805 42.1991 45.232 42.1991 44.88C42.1991 44.5279 42.2688 44.1794 42.4042 43.8544C42.5396 43.5295 42.738 43.2345 42.9879 42.9866C43.2358 42.7367 43.5308 42.5383 43.8557 42.4029C44.1807 42.2675 44.5292 42.1978 44.8813 42.1978C45.2333 42.1978 45.5819 42.2675 45.9068 42.4029C46.2318 42.5383 46.5267 42.7367 46.7746 42.9866L52.4279 48.64C52.6779 48.8879 52.8763 49.1828 53.0116 49.5078C53.147 49.8327 53.2167 50.1813 53.2167 50.5333C53.2167 50.8853 53.147 51.2339 53.0116 51.5588C52.8763 51.8838 52.6779 52.1787 52.4279 52.4266V52.4266Z" fill="#A0BDB7"/>
</svg>
