<svg width="64" height="64" viewBox="0 0 64 64" fill="none" xmlns="http://www.w3.org/2000/svg">
<path d="M45.5725 7.51998C43.12 5.50287 40.248 4.05872 37.1663 3.2929C34.0845 2.52707 30.8707 2.45888 27.7592 3.09331C23.6162 3.93017 19.8152 5.97884 16.8383 8.97939C13.8615 11.9799 11.8431 15.7971 11.0392 19.9466C10.4521 23.0579 10.5588 26.2604 11.3516 29.3257C12.1445 32.391 13.6039 35.2435 15.6259 37.68C17.5024 39.7975 18.578 42.5054 18.6659 45.3333V53.3333C18.6659 55.455 19.5087 57.4899 21.009 58.9902C22.5093 60.4905 24.5441 61.3333 26.6659 61.3333H37.3325C39.4543 61.3333 41.4891 60.4905 42.9894 58.9902C44.4897 57.4899 45.3325 55.455 45.3325 53.3333V45.84C45.422 42.7178 46.5691 39.7185 48.5859 37.3333C52.1195 32.9621 53.7852 27.3728 53.221 21.7803C52.6567 16.1878 49.9081 11.0439 45.5725 7.46665V7.51998ZM39.9992 53.3333C39.9992 54.0406 39.7182 54.7188 39.2181 55.2189C38.718 55.719 38.0398 56 37.3325 56H26.6659C25.9586 56 25.2803 55.719 24.7802 55.2189C24.2801 54.7188 23.9992 54.0406 23.9992 53.3333V50.6666H39.9992V53.3333ZM44.4525 34.0266C41.7712 37.2069 40.2068 41.1787 39.9992 45.3333H34.6659V37.3333C34.6659 36.6261 34.3849 35.9478 33.8848 35.4477C33.3847 34.9476 32.7064 34.6666 31.9992 34.6666C31.292 34.6666 30.6137 34.9476 30.1136 35.4477C29.6135 35.9478 29.3325 36.6261 29.3325 37.3333V45.3333H23.9992C23.9288 41.2482 22.4177 37.3193 19.7325 34.24C17.9609 32.1173 16.7696 29.5718 16.2747 26.8516C15.7798 24.1314 15.9983 21.3294 16.9088 18.7187C17.8193 16.1081 19.3907 13.778 21.4699 11.9555C23.5491 10.1331 26.0651 8.88051 28.7725 8.31998C31.0993 7.8409 33.5036 7.88596 35.8108 8.4519C38.1181 9.01784 40.2703 10.0904 42.1113 11.5919C43.9523 13.0933 45.4359 14.9858 46.4543 17.132C47.4728 19.2783 48.0005 21.6244 47.9992 24C48.0189 27.6529 46.7648 31.1986 44.4525 34.0266Z" fill="#A0BDB7"/>
</svg>
