<svg width="36" height="36" viewBox="0 0 36 36" fill="none" xmlns="http://www.w3.org/2000/svg">
<path d="M25.6349 4.22998C24.2554 3.09536 22.6399 2.28302 20.9064 1.85225C19.1729 1.42147 17.3651 1.38311 15.6149 1.73998C13.2845 2.21071 11.1464 3.36309 9.47194 5.0509C7.79748 6.73871 6.66212 8.88588 6.20991 11.22C5.87968 12.9701 5.93969 14.7715 6.38566 16.4957C6.83162 18.2199 7.65256 19.8245 8.78991 21.195C9.84544 22.3861 10.4505 23.9093 10.4999 25.5V30C10.4999 31.1935 10.974 32.338 11.8179 33.182C12.6618 34.0259 13.8064 34.5 14.9999 34.5H20.9999C22.1934 34.5 23.338 34.0259 24.1819 33.182C25.0258 32.338 25.4999 31.1935 25.4999 30V25.785C25.5503 24.0287 26.1955 22.3416 27.3299 21C29.3176 18.5412 30.2546 15.3972 29.9372 12.2514C29.6198 9.10563 28.0737 6.21221 25.6349 4.19998V4.22998ZM22.4999 30C22.4999 30.3978 22.3419 30.7793 22.0606 31.0606C21.7793 31.3419 21.3977 31.5 20.9999 31.5H14.9999C14.6021 31.5 14.2206 31.3419 13.9393 31.0606C13.6579 30.7793 13.4999 30.3978 13.4999 30V28.5H22.4999V30ZM25.0049 19.14C23.4967 20.9289 22.6167 23.163 22.4999 25.5H19.4999V21C19.4999 20.6022 19.3419 20.2206 19.0606 19.9393C18.7793 19.658 18.3977 19.5 17.9999 19.5C17.6021 19.5 17.2206 19.658 16.9393 19.9393C16.6579 20.2206 16.4999 20.6022 16.4999 21V25.5H13.4999C13.4603 23.2021 12.6103 20.9921 11.0999 19.26C10.1034 18.066 9.43325 16.6341 9.15488 15.104C8.87651 13.5739 8.99939 11.9978 9.51154 10.5293C10.0237 9.0608 10.9076 7.7501 12.0772 6.72497C13.2467 5.69984 14.662 4.99528 16.1849 4.67998C17.4937 4.4105 18.8462 4.43584 20.144 4.75418C21.4418 5.07253 22.6524 5.67587 23.688 6.52041C24.7236 7.36495 25.5581 8.4295 26.1309 9.63676C26.7038 10.844 27.0006 12.1637 26.9999 13.5C27.011 15.5548 26.3055 17.5492 25.0049 19.14Z" fill="#A0BDB7"/>
</svg>
