<svg width="48" height="43" viewBox="0 0 48 43" fill="none" xmlns="http://www.w3.org/2000/svg">
<path d="M30.5333 23.2667C30 22.7334 29.2 22.7334 28.6666 23.2667L24 27.9334L19.3333 23.2667C18.8 22.7334 18 22.7334 17.4667 23.2667C16.9333 23.8 16.9333 24.6 17.4667 25.1334L23.0667 30.7334C23.3333 31 23.6 31.1334 24 31.1334C24.4 31.1334 24.6667 31 24.9333 30.7334L30.5333 25.1334C31.0666 24.6 31.0666 23.8 30.5333 23.2667Z" fill="black"/>
<path d="M5.51582 9.1C5.51582 6.52 1.75582 7.64 1.75582 5.84C1.75582 5.09 2.34582 4.7 3.09582 4.72C3.94582 4.73 4.38582 5.26 4.44582 5.73H5.44582C5.33582 4.67 4.46582 3.94 3.13582 3.94C1.75582 3.94 0.82582 4.72 0.82582 5.87C0.82582 8.46 4.59582 7.26 4.59582 9.14C4.59582 9.8 4.07582 10.3 3.19582 10.3C2.22582 10.3 1.81582 9.72 1.75582 9.14H0.78582C0.80582 10.29 1.79582 11.07 3.19582 11.07C4.70582 11.07 5.51582 10.09 5.51582 9.1ZM9.18496 6.2C10.125 6.2 10.925 6.79 10.915 7.86H7.45496C7.55496 6.79 8.29496 6.2 9.18496 6.2ZM11.745 9.31H10.765C10.565 9.9 10.045 10.32 9.22496 10.32C8.29496 10.32 7.51496 9.71 7.44496 8.6H11.825C11.845 8.41 11.855 8.25 11.855 8.05C11.855 6.55 10.815 5.43 9.22496 5.43C7.62496 5.43 6.51496 6.52 6.51496 8.25C6.51496 9.99 7.66496 11.09 9.22496 11.09C10.585 11.09 11.465 10.31 11.745 9.31ZM15.3861 6.2C16.3261 6.2 17.1261 6.79 17.1161 7.86H13.6561C13.7561 6.79 14.4961 6.2 15.3861 6.2ZM17.9461 9.31H16.9661C16.7661 9.9 16.2461 10.32 15.4261 10.32C14.4961 10.32 13.7161 9.71 13.6461 8.6H18.0261C18.0461 8.41 18.0561 8.25 18.0561 8.05C18.0561 6.55 17.0161 5.43 15.4261 5.43C13.8261 5.43 12.7161 6.52 12.7161 8.25C12.7161 9.99 13.8661 11.09 15.4261 11.09C16.7861 11.09 17.6661 10.31 17.9461 9.31ZM29.8333 11H30.7333V7.77C30.7333 6.2 29.7633 5.42 28.5133 5.42C27.6733 5.42 26.8933 5.85 26.5733 6.64C26.2133 5.82 25.4633 5.42 24.5633 5.42C23.8433 5.42 23.1933 5.73 22.8333 6.31V5.52H21.9233V11H22.8333V7.98C22.8333 6.8 23.4633 6.21 24.3833 6.21C25.2833 6.21 25.8833 6.78 25.8833 7.9V11H26.7833V7.98C26.7833 6.8 27.4133 6.21 28.3333 6.21C29.2333 6.21 29.8333 6.78 29.8333 7.9V11ZM37.4261 8.25C37.4261 6.52 36.2161 5.43 34.6561 5.43C33.1061 5.43 31.8861 6.52 31.8861 8.25C31.8861 9.99 33.0661 11.09 34.6161 11.09C36.1761 11.09 37.4261 9.99 37.4261 8.25ZM32.8161 8.25C32.8161 6.87 33.6861 6.22 34.6461 6.22C35.5861 6.22 36.4961 6.87 36.4961 8.25C36.4961 9.64 35.5661 10.29 34.6161 10.29C33.6661 10.29 32.8161 9.64 32.8161 8.25ZM39.5325 8.02C39.5325 6.75 40.1925 6.36 41.0625 6.36H41.3025V5.42C40.4325 5.42 39.8425 5.8 39.5325 6.41V5.52H38.6225V11H39.5325V8.02ZM44.683 6.2C45.623 6.2 46.423 6.79 46.413 7.86H42.953C43.053 6.79 43.793 6.2 44.683 6.2ZM47.243 9.31H46.263C46.063 9.9 45.543 10.32 44.723 10.32C43.793 10.32 43.013 9.71 42.943 8.6H47.323C47.343 8.41 47.353 8.25 47.353 8.05C47.353 6.55 46.313 5.43 44.723 5.43C43.123 5.43 42.013 6.52 42.013 8.25C42.013 9.99 43.163 11.09 44.723 11.09C46.083 11.09 46.963 10.31 47.243 9.31Z" fill="black"/>
</svg>
