<svg xmlns="http://www.w3.org/2000/svg" xmlns:xlink="http://www.w3.org/1999/xlink" width="299.489" height="265" viewBox="0 0 299.489 265"><defs><style>.a{fill:#ffddd6;}.b,.c,.e{fill:#fff;}.b,.c,.d{stroke:#e14b2c;stroke-width:1.5px;}.b,.d{stroke-linecap:round;}.b{stroke-linejoin:round;stroke-miterlimit:10;}.d,.g,.i,.j,.k{fill:none;}.f,.h{stroke:none;}.h{fill:#e14b2c;}.i{clip-path:url(#b);}.j{clip-path:url(#d);}.k{clip-path:url(#f);}</style><clipPath id="b"><use xlink:href="#a"/></clipPath><clipPath id="d"><use xlink:href="#c"/></clipPath><clipPath id="f"><use xlink:href="#e"/></clipPath></defs><g transform="translate(-896 -2376.266)"><path class="a" d="M120,31.69c29.835,80.942,125.861,59.126,125.861,114.792S154.079,267.9,99.977,280.672,5.164,255.054.188,146.483,90.16-49.252,120,31.69Z" transform="translate(1195.49 2396.009) rotate(94)"/><g transform="translate(916.026 2422.828)"><g transform="translate(196.365 0)"><path class="b" d="M56.1,33.663V22.442H50.382a3.659,3.659,0,0,1-2.573-6.212l4.047-4.047L43.922,4.249,39.875,8.3a3.659,3.659,0,0,1-6.212-2.573V0H22.442V5.723A3.659,3.659,0,0,1,16.23,8.3L12.183,4.249,4.249,12.183,8.3,16.23a3.659,3.659,0,0,1-2.573,6.212H0V33.663H5.723A3.659,3.659,0,0,1,8.3,39.875L4.249,43.922l7.934,7.934,4.047-4.047a3.659,3.659,0,0,1,6.212,2.573V56.1H33.663V50.382a3.659,3.659,0,0,1,6.212-2.572l4.047,4.047,7.934-7.934-4.047-4.047a3.66,3.66,0,0,1,2.573-6.213Z" transform="translate(0 0)"/><path class="b" d="M7.481,0A7.481,7.481,0,1,1,0,7.481,7.481,7.481,0,0,1,7.481,0Z" transform="translate(20.449 20.449)"/></g><g class="c" transform="translate(14.727 28.05)"><rect class="f" width="210.393" height="140.262" rx="5"/><rect class="g" x="0.75" y="0.75" width="208.893" height="138.762" rx="4.25"/></g><g class="c" transform="translate(21.739 33.661)"><circle class="f" cx="3.857" cy="3.857" r="3.857"/><circle class="g" cx="3.857" cy="3.857" r="3.107"/></g><g class="c" transform="translate(33.664 33.661)"><circle class="f" cx="3.857" cy="3.857" r="3.857"/><circle class="g" cx="3.857" cy="3.857" r="3.107"/></g><g class="c" transform="translate(45.585 33.661)"><circle class="f" cx="3.857" cy="3.857" r="3.857"/><circle class="g" cx="3.857" cy="3.857" r="3.107"/></g><line class="d" x2="208.289" transform="translate(15.778 47.333)"/><g transform="translate(166.912 134.643)"><line class="d" x2="36.468" transform="translate(0 0)"/><line class="d" x2="18.294" transform="translate(0.439 15.277)"/><line class="d" x2="29.002" transform="translate(0.439 7.639)"/><line class="d" x2="14.99" transform="translate(0.439 22.916)"/></g><line class="d" x2="19.637" transform="translate(24.898 157.79)"/><line class="d" y2="119.924" transform="translate(49.442 47.333)"/><g class="c" transform="translate(63.818 112.909)"><rect class="f" width="92.573" height="44.884" rx="4"/><rect class="g" x="0.75" y="0.75" width="91.073" height="43.384" rx="3.25"/></g><g class="c" transform="translate(63.818 86.957)"><rect class="f" width="92.573" height="17.533" rx="4"/><rect class="g" x="0.75" y="0.75" width="91.073" height="16.033" rx="3.25"/></g><g class="c" transform="translate(166.912 58.199)"><rect class="f" width="47.689" height="66.624" rx="4"/><rect class="g" x="0.75" y="0.75" width="46.189" height="65.124" rx="3.25"/></g><g transform="translate(0 75.736)"><g class="e" transform="translate(0 0)"><path class="f" d="M 63.11776351928711 104.4462814331055 L 7.013079166412354 104.4462814331055 C 3.559607744216919 104.4462814331055 0.7500077486038208 101.6366653442383 0.7500077486038208 98.18318176269531 L 0.7500077486038208 7.013079643249512 C 0.7500077486038208 3.559608221054077 3.559607744216919 0.7500083446502686 7.013079166412354 0.7500083446502686 L 63.11776351928711 0.7500083446502686 C 66.57123565673828 0.7500083446502686 69.38085174560547 3.559608221054077 69.38085174560547 7.013079643249512 L 69.38085174560547 98.18318176269531 C 69.38085174560547 101.6366653442383 66.57123565673828 104.4462814331055 63.11776351928711 104.4462814331055 Z"/><path class="h" d="M 7.013080596923828 1.499992370605469 C 3.973152160644531 1.499992370605469 1.499992370605469 3.973152160644531 1.499992370605469 7.013076782226562 L 1.499992370605469 98.18318176269531 C 1.499992370605469 101.2231063842773 3.973152160644531 103.6962661743164 7.013080596923828 103.6962661743164 L 63.11776351928711 103.6962661743164 C 66.15767669677734 103.6962661743164 68.63083648681641 101.2231063842773 68.63083648681641 98.18318176269531 L 68.63083648681641 7.013076782226562 C 68.63083648681641 3.973152160644531 66.15767669677734 1.499992370605469 63.11776351928711 1.499992370605469 L 7.013080596923828 1.499992370605469 M 7.013080596923828 -7.62939453125e-06 L 63.11776351928711 -7.62939453125e-06 C 66.99098205566406 -7.62939453125e-06 70.13083648681641 3.139862060546875 70.13083648681641 7.013076782226562 L 70.13083648681641 98.18318176269531 C 70.13083648681641 102.056396484375 66.99098205566406 105.1962661743164 63.11776351928711 105.1962661743164 L 7.013080596923828 105.1962661743164 C 3.139862060546875 105.1962661743164 -7.62939453125e-06 102.056396484375 -7.62939453125e-06 98.18318176269531 L -7.62939453125e-06 7.013076782226562 C -7.62939453125e-06 3.139862060546875 3.139862060546875 -7.62939453125e-06 7.013080596923828 -7.62939453125e-06 Z"/></g><g class="c" transform="translate(6.312 11.922)"><rect class="f" width="58.209" height="74.339" rx="2"/><rect class="g" x="0.75" y="0.75" width="56.709" height="72.839" rx="1.25"/></g><g class="c" transform="translate(30.156 90.469)"><circle class="f" cx="5.26" cy="5.26" r="5.26"/><circle class="g" cx="5.26" cy="5.26" r="4.51"/></g><line class="d" x2="12.624" transform="translate(29.104 5.961)"/></g><g transform="translate(206.887 117.812)"><g class="c" transform="translate(0.701 0)"><rect class="f" width="35.065" height="63.118" rx="3"/><rect class="g" x="0.75" y="0.75" width="33.565" height="61.618" rx="2.25"/></g><g class="c" transform="translate(9.117 0)"><path class="f" d="M0,0H18.935a0,0,0,0,1,0,0V.909a4,4,0,0,1-4,4H4a4,4,0,0,1-4-4V0A0,0,0,0,1,0,0Z"/><path class="g" d="M1.389.75H17.546a.639.639,0,0,1,.639.639v0a2.77,2.77,0,0,1-2.77,2.77H3.52A2.77,2.77,0,0,1,.75,1.389v0A.639.639,0,0,1,1.389.75Z"/></g><g class="c" transform="translate(35.065 11.221) rotate(-90)"><path id="a" class="f" d="M0,0H5.61a0,0,0,0,1,0,0V0a1.4,1.4,0,0,1-1.4,1.4H1.4A1.4,1.4,0,0,1,0,0V0A0,0,0,0,1,0,0Z"/><path class="i" d="M0,0.6526165008544922h5.610466003417969M4.860466003417969,0v1.4026165008544922M5.610466003417969,0.75h-5.610466003417969M0.75,1.4026165008544922v-1.4026165008544922"/></g><g class="c" transform="translate(1.403 5.61) rotate(90)"><path id="c" class="f" d="M0,0H7.013a0,0,0,0,1,0,0V0a1.4,1.4,0,0,1-1.4,1.4H1.4A1.4,1.4,0,0,1,0,0V0A0,0,0,0,1,0,0Z"/><path class="j" d="M0,0.6526165008544922h7.013082504272461M6.263082504272461,0v1.4026165008544922M7.013082504272461,0.75h-7.013082504272461M0.75,1.4026165008544922v-1.4026165008544922"/></g><g class="c" transform="translate(35.065 18.234) rotate(-90)"><path id="e" class="f" d="M0,0H5.61a0,0,0,0,1,0,0V0a1.4,1.4,0,0,1-1.4,1.4H1.4A1.4,1.4,0,0,1,0,0V0A0,0,0,0,1,0,0Z"/><path class="k" d="M0,0.6526165008544922h5.610466003417969M4.860466003417969,0v1.4026165008544922M5.610466003417969,0.75h-5.610466003417969M0.75,1.4026165008544922v-1.4026165008544922"/></g><line class="d" x2="10.52" transform="translate(12.974 56.455)"/></g></g></g></svg>