<svg width="91" height="120" viewBox="0 0 91 120" fill="none" xmlns="http://www.w3.org/2000/svg">
<path d="M85.4497 14.1C80.8512 10.3179 75.4663 7.61015 69.688 6.17423C63.9097 4.7383 57.8837 4.61045 52.0497 5.80001C44.2816 7.36912 37.1547 11.2104 31.5731 16.8364C25.9916 22.4624 22.2071 29.6197 20.6997 37.4C19.5989 43.2336 19.799 49.2383 21.2855 54.9857C22.7721 60.7331 25.5085 66.0817 29.2997 70.65C32.8181 74.6203 34.8349 79.6976 34.9997 85V100C34.9997 103.978 36.5801 107.794 39.3931 110.607C42.2062 113.42 46.0215 115 49.9997 115H69.9997C73.978 115 77.7933 113.42 80.6063 110.607C83.4194 107.794 84.9997 103.978 84.9997 100V85.95C85.1675 80.0958 87.3183 74.4722 91.0997 70C97.7253 61.8039 100.849 51.3241 99.7906 40.8381C98.7326 30.3522 93.579 20.7074 85.4497 14V14.1ZM74.9997 100C74.9997 101.326 74.4729 102.598 73.5352 103.536C72.5976 104.473 71.3258 105 69.9997 105H49.9997C48.6736 105 47.4019 104.473 46.4642 103.536C45.5265 102.598 44.9997 101.326 44.9997 100V95H74.9997V100ZM83.3497 63.8C78.3222 69.763 75.389 77.2102 74.9997 85H64.9997V70C64.9997 68.6739 64.4729 67.4022 63.5352 66.4645C62.5976 65.5268 61.3258 65 59.9997 65C58.6736 65 57.4019 65.5268 56.4642 66.4645C55.5265 67.4022 54.9997 68.6739 54.9997 70V85H44.9997C44.8678 77.3405 42.0344 69.9738 36.9997 64.2C33.6779 60.22 31.4442 55.4471 30.5163 50.3467C29.5884 45.2464 29.998 39.9926 31.7051 35.0977C33.4123 30.2027 36.3588 25.8337 40.2573 22.4166C44.1558 18.9995 48.8733 16.651 53.9497 15.6C58.3125 14.7017 62.8205 14.7862 67.1466 15.8474C71.4726 16.9085 75.5081 18.9196 78.96 21.7348C82.4119 24.5499 85.1936 28.0984 87.1031 32.1226C89.0127 36.1468 90.0021 40.5457 89.9997 45C90.0367 51.8493 87.6852 58.4973 83.3497 63.8V63.8Z" fill="#A0BDB7" fill-opacity="0.4"/>
</svg>
