<svg width="86" height="124" viewBox="0 0 86 124" fill="none" xmlns="http://www.w3.org/2000/svg">
<g clip-path="url(#clip0)">
<path d="M58.8124 38.4983H27.6238L16.0883 39.8412C14.672 39.8412 13.3136 39.2753 12.312 38.2679C11.3105 37.2605 10.7478 35.8941 10.7478 34.4694L7.1875 23.7257C7.1875 22.301 7.75016 20.9347 8.75169 19.9272C9.75323 18.9198 11.1116 18.3539 12.528 18.3539L21.954 18.5329L57.4773 5.81958C58.8937 5.81958 60.2521 6.38554 61.2536 7.39295C62.2551 8.40037 62.8178 9.76672 62.8178 11.1914L64.1529 33.1264C64.1529 34.5511 63.5903 35.9175 62.5887 36.9249C61.5872 37.9323 60.2288 38.4983 58.8124 38.4983Z" fill="#015123"/>
<path d="M57.4772 11.6389L49.4664 37.5715L17.0806 68.6252C15.046 70.5769 13.8651 73.2614 13.7975 76.0886C13.7299 78.9158 14.7811 81.6543 16.7202 83.7022L61.4825 98.036L68.1582 103.408L85.7507 43.1806C86.18 40.9675 86.0483 38.6813 85.368 36.5329L78.3942 16.5631L57.4772 11.6389Z" fill="#E08433"/>
<path d="M31.4417 31.7834L35.6696 38.4982L3.28387 69.5564C1.24951 71.5073 0.0687166 74.1911 0.00111683 77.0176C-0.0664829 79.844 0.984649 82.5818 2.92339 84.6289L15.6427 98.0585H61.4821L71.9539 44.1028C72.3826 41.8882 72.251 39.6007 71.5712 37.4507L59.7019 0L31.4417 31.7834Z" fill="#015123"/>
<path d="M58.8123 41.6317C58.2086 41.6318 57.618 41.4556 57.112 41.1243C56.6061 40.793 56.2068 40.3211 55.9626 39.7658C55.7184 39.2105 55.6398 38.5958 55.7365 37.9964C55.8331 37.397 56.1008 36.8388 56.507 36.3896L67.8556 23.8554C68.1273 23.5383 68.4594 23.2793 68.8324 23.0935C69.2053 22.9078 69.6114 22.7991 70.0268 22.7738C70.4422 22.7485 70.8584 22.8072 71.2508 22.9464C71.6433 23.0856 72.0041 23.3025 72.3118 23.5842C72.6196 23.8659 72.8681 24.2069 73.0427 24.5868C73.2173 24.9668 73.3145 25.3781 73.3285 25.7964C73.3424 26.2147 73.2729 26.6317 73.1241 27.0226C72.9752 27.4134 72.75 27.7704 72.4617 28.0723L61.1176 40.6066C60.8256 40.9296 60.4696 41.1876 60.0726 41.3641C59.6757 41.5406 59.2464 41.6318 58.8123 41.6317Z" fill="white"/>
<path d="M61.2156 50.1372C60.47 50.1402 59.7479 49.874 59.1808 49.3871C58.6136 48.9002 58.2388 48.2248 58.1246 47.4835C58.0104 46.7423 58.1644 45.9845 58.5584 45.3477C58.9525 44.7109 59.5605 44.2375 60.2721 44.0133L74.1752 39.5726C74.9576 39.3384 75.8001 39.4224 76.5215 39.8065C77.2429 40.1907 77.7856 40.8443 78.0329 41.6268C78.2801 42.4092 78.2122 43.2581 77.8436 43.9907C77.4751 44.7233 76.8354 45.2812 76.0622 45.5443L62.1591 49.985C61.8546 50.0856 61.5361 50.137 61.2156 50.1372Z" fill="white"/>
<path d="M75.279 60.3078H75.1366L60.8953 59.6632C60.069 59.6258 59.2914 59.2597 58.7335 58.6456C58.1755 58.0315 57.883 57.2196 57.9201 56.3886C57.9573 55.5575 58.3212 54.7753 58.9317 54.2141C59.5423 53.6529 60.3494 53.3586 61.1756 53.396L75.417 54.0406C76.2432 54.0584 77.0286 54.4056 77.6003 55.0059C78.172 55.6062 78.4832 56.4103 78.4655 57.2413C78.4478 58.0724 78.1026 58.8624 77.5059 59.4374C76.9091 60.0125 76.1097 60.3256 75.2835 60.3078H75.279Z" fill="white"/>
<path d="M70.5615 76.2399C70.1567 76.2396 69.7559 76.159 69.3821 76.0027L55.697 70.3577C55.3095 70.2082 54.9556 69.9822 54.6561 69.6931C54.3566 69.4041 54.1176 69.0577 53.953 68.6745C53.7885 68.2912 53.7017 67.8787 53.6979 67.4612C53.694 67.0437 53.7732 66.6296 53.9306 66.2433C54.0881 65.857 54.3207 65.5063 54.6149 65.2117C54.909 64.9171 55.2587 64.6846 55.6434 64.5278C56.0281 64.3711 56.44 64.2932 56.8551 64.2989C57.2701 64.3045 57.6798 64.3935 58.0602 64.5606L71.7542 70.2056C72.423 70.4804 72.9761 70.9806 73.3187 71.6204C73.6613 72.2603 73.7721 73 73.6323 73.713C73.4924 74.426 73.1105 75.0679 72.5519 75.5289C71.9933 75.9899 71.2928 76.2412 70.5703 76.2399H70.5615Z" fill="white"/>
<path d="M69.9385 98.0361H12.528C9.57853 98.0361 7.1875 100.441 7.1875 103.408V118.628C7.1875 121.595 9.57853 124 12.528 124H69.9385C72.888 124 75.279 121.595 75.279 118.628V103.408C75.279 100.441 72.888 98.0361 69.9385 98.0361Z" fill="#E08433"/>
<path d="M35.6703 25.5162C35.0736 25.518 34.4936 25.3187 34.0227 24.9501C33.5517 24.5816 33.2171 24.065 33.0722 23.4828C32.9272 22.9006 32.9803 22.2864 33.2229 21.7381C33.4656 21.1898 33.8837 20.739 34.4108 20.4577L41.5315 16.6482C42.157 16.3134 42.8892 16.2423 43.5669 16.4505C44.2447 16.6587 44.8124 17.1291 45.1452 17.7584C45.4781 18.3876 45.5488 19.1241 45.3418 19.8058C45.1348 20.4875 44.6671 21.0585 44.0415 21.3933L36.9208 25.2028C36.5353 25.4074 36.1062 25.5149 35.6703 25.5162Z" fill="white"/>
</g>
<defs>
<clipPath id="clip0">
<rect width="86" height="124" fill="white"/>
</clipPath>
</defs>
</svg>
