<svg width="258" height="200" viewBox="0 0 258 200" fill="none" xmlns="http://www.w3.org/2000/svg">
<g opacity="0.5" filter="url(#filter0_f)">
<path fill-rule="evenodd" clip-rule="evenodd" d="M35 80.7086C35 79.9941 35.3812 79.3339 36 78.9766L120.36 30.2714C121.693 29.5016 123.36 30.4639 123.36 32.0035V51.072C123.36 51.7866 122.979 52.4468 122.36 52.8041L49.6679 94.7728C48.3346 95.5426 48.3346 97.4671 49.6679 98.2369L122.36 140.206C122.979 140.563 123.36 141.223 123.36 141.938V161.006C123.36 162.546 121.693 163.508 120.36 162.738L36 114.033C35.3812 113.676 35 113.016 35 112.301V80.7086Z" fill="#D68060"/>
<path fill-rule="evenodd" clip-rule="evenodd" d="M227.999 112.3C227.999 113.015 227.618 113.675 226.999 114.032L142.639 162.738C141.306 163.507 139.639 162.545 139.639 161.006L139.639 141.937C139.639 141.222 140.02 140.562 140.639 140.205L213.331 98.2363C214.664 97.4665 214.664 95.542 213.331 94.7722L140.639 52.8035C140.02 52.4462 139.639 51.786 139.639 51.0714L139.639 32.0029C139.639 30.4633 141.306 29.501 142.639 30.2709L226.999 78.9761C227.618 79.3334 227.999 79.9936 227.999 80.7082L227.999 112.3Z" fill="#D68060"/>
<path fill-rule="evenodd" clip-rule="evenodd" d="M227.999 119.076C227.999 119.79 227.618 120.451 226.999 120.808L142.639 169.513C141.306 170.283 139.639 169.321 139.639 167.781L139.639 148.713C139.639 147.998 140.02 147.338 140.639 146.981L213.331 105.012C214.664 104.242 214.664 102.318 213.331 101.548L140.639 59.5791C140.02 59.2219 139.639 58.5616 139.639 57.8471L139.639 38.7785C139.639 37.2389 141.306 36.2767 142.639 37.0465L226.999 85.7517C227.618 86.109 227.999 86.7693 227.999 87.4838L227.999 119.076Z" fill="#AF6143"/>
<path fill-rule="evenodd" clip-rule="evenodd" d="M35 87.4833C35 86.7688 35.3812 86.1085 36 85.7513L120.36 37.0461C121.693 36.2763 123.36 37.2385 123.36 38.7781V57.8467C123.36 58.5612 122.979 59.2215 122.36 59.5787L49.668 101.547C48.3346 102.317 48.3346 104.242 49.668 105.012L122.36 146.98C122.979 147.337 123.36 147.998 123.36 148.712V167.781C123.36 169.32 121.693 170.283 120.36 169.513L36 120.808C35.3812 120.45 35 119.79 35 119.076V87.4833Z" fill="#AF6143"/>
<rect x="40.646" y="91.0217" width="13.1741" height="27.4773" fill="#AF6143"/>
<rect x="205.886" y="91.0217" width="13.1741" height="27.4773" fill="#AF6143"/>
</g>
<g filter="url(#filter1_d)">
<path fill-rule="evenodd" clip-rule="evenodd" d="M4 80.7086C4 79.9941 4.3812 79.3339 5 78.9766L89.3598 30.2714C90.6932 29.5016 92.3598 30.4639 92.3598 32.0035V51.072C92.3598 51.7866 91.9786 52.4468 91.3598 52.8041L18.6679 94.7728C17.3346 95.5426 17.3346 97.4671 18.6679 98.2369L91.3598 140.206C91.9786 140.563 92.3598 141.223 92.3598 141.938V161.006C92.3598 162.546 90.6932 163.508 89.3598 162.738L5 114.033C4.3812 113.676 4 113.016 4 112.301V80.7086Z" fill="#D68060"/>
<path fill-rule="evenodd" clip-rule="evenodd" d="M196.999 112.3C196.999 113.015 196.618 113.675 195.999 114.032L111.639 162.738C110.306 163.507 108.639 162.545 108.639 161.006L108.639 141.937C108.639 141.222 109.02 140.562 109.639 140.205L182.331 98.2363C183.664 97.4665 183.664 95.542 182.331 94.7722L109.639 52.8035C109.02 52.4462 108.639 51.786 108.639 51.0714L108.639 32.0029C108.639 30.4633 110.306 29.501 111.639 30.2709L195.999 78.9761C196.618 79.3334 196.999 79.9936 196.999 80.7082L196.999 112.3Z" fill="#D68060"/>
<path fill-rule="evenodd" clip-rule="evenodd" d="M196.999 119.076C196.999 119.79 196.618 120.451 195.999 120.808L111.639 169.513C110.306 170.283 108.639 169.321 108.639 167.781L108.639 148.713C108.639 147.998 109.02 147.338 109.639 146.981L182.331 105.012C183.664 104.242 183.664 102.318 182.331 101.548L109.639 59.5791C109.02 59.2219 108.639 58.5616 108.639 57.8471L108.639 38.7785C108.639 37.2389 110.306 36.2767 111.639 37.0465L195.999 85.7517C196.618 86.109 196.999 86.7693 196.999 87.4838L196.999 119.076Z" fill="#AF6143"/>
<path fill-rule="evenodd" clip-rule="evenodd" d="M4 87.4833C4 86.7688 4.3812 86.1085 5 85.7513L89.3599 37.0461C90.6932 36.2763 92.3599 37.2385 92.3599 38.7781V57.8467C92.3599 58.5612 91.9787 59.2215 91.3599 59.5787L18.668 101.547C17.3346 102.317 17.3346 104.242 18.668 105.012L91.3599 146.98C91.9787 147.337 92.3599 147.998 92.3599 148.712V167.781C92.3599 169.32 90.6932 170.283 89.3599 169.513L5 120.808C4.3812 120.45 4 119.79 4 119.076L4 87.4833Z" fill="#AF6143"/>
<rect x="9.646" y="91.0217" width="13.1741" height="27.4773" fill="#AF6143"/>
<rect x="174.886" y="91.0217" width="13.1741" height="27.4773" fill="#AF6143"/>
</g>
<defs>
<filter id="filter0_f" x="5" y="0" width="252.999" height="199.784" filterUnits="userSpaceOnUse" color-interpolation-filters="sRGB">
<feFlood flood-opacity="0" result="BackgroundImageFix"/>
<feBlend mode="normal" in="SourceGraphic" in2="BackgroundImageFix" result="shape"/>
<feGaussianBlur stdDeviation="15" result="effect1_foregroundBlur"/>
</filter>
<filter id="filter1_d" x="0" y="30" width="200.999" height="147.784" filterUnits="userSpaceOnUse" color-interpolation-filters="sRGB">
<feFlood flood-opacity="0" result="BackgroundImageFix"/>
<feColorMatrix in="SourceAlpha" type="matrix" values="0 0 0 0 0 0 0 0 0 0 0 0 0 0 0 0 0 0 127 0" result="hardAlpha"/>
<feOffset dy="4"/>
<feGaussianBlur stdDeviation="2"/>
<feComposite in2="hardAlpha" operator="out"/>
<feColorMatrix type="matrix" values="0 0 0 0 0 0 0 0 0 0 0 0 0 0 0 0 0 0 0.25 0"/>
<feBlend mode="normal" in2="BackgroundImageFix" result="effect1_dropShadow"/>
<feBlend mode="normal" in="SourceGraphic" in2="effect1_dropShadow" result="shape"/>
</filter>
</defs>
</svg>
