<svg width="110" height="121" viewBox="0 0 110 121" fill="none" xmlns="http://www.w3.org/2000/svg">
<g clip-path="url(#clip0)">
<path d="M90.0513 87.2553C86.3984 83.622 80.4759 83.622 76.8231 87.2553C73.1702 90.8886 73.1702 96.7794 76.8231 100.413L94.0363 117.534C97.6891 121.167 103.612 121.167 107.264 117.534C110.917 113.9 110.917 108.01 107.264 104.376L90.0513 87.2553Z" fill="#E08433"/>
<path d="M56.1227 82.8024C79.1111 82.8024 97.7468 64.2665 97.7468 41.4012C97.7468 18.536 79.1111 0 56.1227 0C33.1343 0 14.4985 18.536 14.4985 41.4012C14.4985 64.2665 33.1343 82.8024 56.1227 82.8024Z" fill="#E08433"/>
<path d="M41.6242 87.9194C64.6125 87.9194 83.2483 69.3834 83.2483 46.5182C83.2483 23.6529 64.6125 5.11694 41.6242 5.11694C18.6358 5.11694 0 23.6529 0 46.5182C0 69.3834 18.6358 87.9194 41.6242 87.9194Z" fill="#015123"/>
<path d="M41.507 70.2425C35.5253 70.2425 29.5482 69.3121 24.89 67.4048C17.5754 64.4323 16.4717 60.3248 16.4717 58.1384C16.4717 55.9521 17.5614 51.8445 24.89 48.872C25.5027 48.6254 26.1435 48.4068 26.8029 48.1742C25.3735 45.6253 24.6387 42.7491 24.6713 39.8306C24.7039 36.9122 25.5027 34.0529 26.9887 31.5362C28.4746 29.0194 30.596 26.9327 33.1427 25.4827C35.6893 24.0328 38.5727 23.27 41.507 23.27C44.4413 23.27 47.3247 24.0328 49.8713 25.4827C52.4179 26.9327 54.5394 29.0194 56.0253 31.5362C57.5112 34.0529 58.3101 36.9122 58.3427 39.8306C58.3753 42.7491 57.6404 45.6253 56.2111 48.1742C56.8705 48.3928 57.5113 48.6394 58.1239 48.872C65.4385 51.8445 66.5423 55.9521 66.5423 58.1384C66.5423 60.3248 65.4526 64.4323 58.1239 67.4048C53.4658 69.3121 47.484 70.2425 41.507 70.2425ZM41.507 29.7716C39.4725 29.7719 37.4837 30.372 35.792 31.4963C34.1003 32.6205 32.7817 34.2184 32.0029 36.0879C31.224 37.9574 31.0199 40.0145 31.4163 41.9994C31.8127 43.9843 32.7917 45.8077 34.2298 47.2392C34.3794 47.3834 34.5338 47.523 34.6975 47.6625C35.1549 48.0677 35.4888 48.5925 35.6613 49.1771C35.8338 49.7617 35.838 50.3827 35.6733 50.9695C35.5086 51.5564 35.1818 52.0855 34.7298 52.4967C34.2779 52.9079 33.719 53.1848 33.1167 53.2959C31.1515 53.6335 29.2258 54.1681 27.3688 54.8914C23.8284 56.3335 23.0333 57.7477 23.0333 58.1477C23.0333 58.5478 23.8284 59.9433 27.3688 61.404C35.0342 64.5161 47.9798 64.5161 55.6452 61.404C59.1856 59.9619 59.9806 58.5478 59.9806 58.1477C59.9806 57.7477 59.1856 56.3521 55.6452 54.8914C53.7917 54.1639 51.8691 53.6247 49.9067 53.2819C49.3044 53.1709 48.7455 52.894 48.2935 52.4828C47.8416 52.0715 47.5147 51.5424 47.35 50.9556C47.1853 50.3687 47.1895 49.7477 47.362 49.1631C47.5345 48.5785 47.8685 48.0538 48.3259 47.6486C48.4802 47.509 48.6345 47.3694 48.7936 47.2252C50.2274 45.7924 51.2024 43.9694 51.5957 41.986C51.989 40.0027 51.7829 37.9479 51.0035 36.0809C50.2241 34.2139 48.9062 32.6183 47.2161 31.4955C45.526 30.3726 43.5394 29.7728 41.507 29.7716Z" fill="white"/>
</g>
<defs>
<clipPath id="clip0">
<rect width="110" height="120.254" fill="white"/>
</clipPath>
</defs>
</svg>
