<svg width="126" height="120" viewBox="0 0 126 120" fill="none" xmlns="http://www.w3.org/2000/svg">
<g clip-path="url(#clip0)">
<path d="M124.008 90.992V46.8435C124.008 44.0608 123.269 41.3272 121.867 38.9173C120.465 36.5075 118.448 34.5063 116.02 33.1149L77.4931 11.0283C75.0645 9.63685 72.3095 8.9043 69.5051 8.9043C66.7008 8.9043 63.9458 9.63685 61.5172 11.0283L22.9953 33.1001C20.5668 34.4914 18.5502 36.4926 17.148 38.9025C15.7459 41.3123 15.0076 44.0459 15.0073 46.8287V90.992C15.0076 93.7747 15.7459 96.5084 17.148 98.9182C18.5502 101.328 20.5668 103.329 22.9953 104.721L61.5172 126.792C63.9458 128.184 66.7008 128.916 69.5051 128.916C72.3095 128.916 75.0645 128.184 77.4931 126.792L116.02 104.721C118.448 103.329 120.465 101.328 121.867 98.9182C123.269 96.5084 124.008 93.7747 124.008 90.992Z" fill="#E08433"/>
<path d="M109.006 79.5974V40.0268C109.006 36.5482 108.083 33.1309 106.33 30.1183C104.577 27.1058 102.056 24.6041 99.0207 22.8648L64.4878 3.10182C61.452 1.36247 58.0083 0.446777 54.5028 0.446777C50.9974 0.446777 47.5537 1.36247 44.5179 3.10182L9.98494 22.8847C6.94921 24.624 4.4283 27.1256 2.67558 30.1381C0.922865 33.1507 8.90501e-05 36.568 0 40.0466V79.5974C8.90501e-05 83.076 0.922865 86.4933 2.67558 89.5059C4.4283 92.5184 6.94921 95.0201 9.98494 96.7594L44.5179 116.557C47.5537 118.296 50.9974 119.212 54.5028 119.212C58.0083 119.212 61.452 118.296 64.4878 116.557L99.0207 96.7396C102.053 95.0019 104.573 92.5034 106.325 89.4947C108.078 86.4859 109.002 83.0727 109.006 79.5974Z" fill="#015123"/>
<path d="M52.0065 108.63C48.6773 108.633 45.4059 107.767 42.5208 106.118L17.4237 91.7502C14.5426 90.0943 12.1502 87.7168 10.4855 84.8555C8.82091 81.9942 7.94244 78.7493 7.93799 75.4453V46.7C7.94244 43.3961 8.82091 40.1512 10.4855 37.2899C12.1502 34.4285 14.5426 32.0511 17.4237 30.3952L42.5208 16.0275C45.4072 14.3819 48.6778 13.5159 52.0065 13.5159C55.3353 13.5159 58.6059 14.3819 61.4922 16.0275L86.5894 30.3952C89.4704 32.0511 91.8629 34.4285 93.5275 37.2899C95.1922 40.1512 96.0706 43.3961 96.0751 46.7V75.4354C96.0706 78.7394 95.1922 81.9843 93.5275 84.8456C91.8629 87.7069 89.4704 90.0844 86.5894 91.7403L61.4922 106.108C58.6082 107.76 55.3367 108.63 52.0065 108.63ZM52.0065 19.4163C49.7288 19.4157 47.4908 20.0085 45.5163 21.1354L20.4192 35.5031C18.448 36.6365 16.8112 38.2635 15.6723 40.2214C14.5333 42.1794 13.9322 44.3997 13.929 46.6604V75.3958C13.9322 77.6565 14.5333 79.8768 15.6723 81.8348C16.8112 83.7927 18.448 85.4197 20.4192 86.5531L45.5163 100.921C47.4907 102.048 49.7287 102.641 52.0065 102.641C54.2844 102.641 56.5223 102.048 58.4967 100.921L83.5939 86.5531C85.565 85.4197 87.2019 83.7927 88.3408 81.8348C89.4797 79.8768 90.0809 77.6565 90.0841 75.3958V46.7C90.0809 44.4393 89.4797 42.219 88.3408 40.2611C87.2019 38.3032 85.565 36.6762 83.5939 35.5428L58.4967 21.1751C56.5233 20.0451 54.2849 19.4505 52.0065 19.451V19.4163Z" fill="white"/>
<path d="M50.7985 76.5253H45.9259C45.661 76.5253 45.4071 76.4209 45.2198 76.2351C45.0326 76.0493 44.9274 75.7972 44.9274 75.5344C44.9242 75.3529 44.8708 75.1758 44.7731 75.0223C44.6754 74.8689 44.5371 74.745 44.3733 74.6642C44.2095 74.5834 44.0264 74.5489 43.8442 74.5643C43.6619 74.5797 43.4874 74.6445 43.3397 74.7517C41.4929 76.1454 39.2295 76.8866 36.9095 76.8573C30.6339 76.8573 26.1157 72.8095 26.1157 65.4622V50.7824C26.1157 50.5196 26.2209 50.2675 26.4082 50.0817C26.5954 49.8959 26.8494 49.7915 27.1142 49.7915H31.932C32.1968 49.7915 32.4507 49.8959 32.638 50.0817C32.8253 50.2675 32.9305 50.5196 32.9305 50.7824V64.5357C32.9305 68.8262 35.3119 71.1449 38.9214 71.1449C42.6158 71.1449 44.9473 68.8262 44.9473 64.5357V50.7824C44.9473 50.5196 45.0525 50.2675 45.2398 50.0817C45.427 49.8959 45.681 49.7915 45.9458 49.7915H50.8185C51.0833 49.7915 51.3373 49.8959 51.5245 50.0817C51.7118 50.2675 51.817 50.5196 51.817 50.7824V75.5543C51.8144 75.6844 51.786 75.8127 51.7334 75.932C51.6808 76.0512 51.605 76.159 51.5104 76.2492C51.4159 76.3394 51.3043 76.4102 51.1822 76.4575C51.06 76.5049 50.9296 76.528 50.7985 76.5253Z" fill="white"/>
<path d="M67.024 69.5893L63.2098 76.03C63.1227 76.1798 62.9976 76.3043 62.8469 76.3912C62.6963 76.4781 62.5253 76.5244 62.3511 76.5254H57.4585C57.281 76.5228 57.1074 76.4733 56.9556 76.382C56.8038 76.2907 56.6793 76.1609 56.5949 76.006C56.5105 75.851 56.4692 75.6766 56.4753 75.5005C56.4814 75.3245 56.5347 75.1533 56.6297 75.0044L64.0735 63.6589C64.1798 63.4977 64.2364 63.3091 64.2364 63.1164C64.2364 62.9237 64.1798 62.7352 64.0735 62.5739L56.5598 51.3275C56.4624 51.1789 56.407 51.0071 56.3994 50.83C56.3917 50.6529 56.432 50.477 56.5161 50.3206C56.6003 50.1643 56.7251 50.0332 56.8777 49.941C57.0303 49.8488 57.205 49.7989 57.3836 49.7966H62.6856C62.85 49.7974 63.0117 49.8386 63.1563 49.9163C63.3009 49.9941 63.4239 50.1062 63.5143 50.2425L67.8128 56.7377C67.906 56.876 68.0328 56.9888 68.1815 57.0657C68.3302 57.1426 68.496 57.181 68.6636 57.1776C68.8313 57.1741 68.9953 57.1288 69.1407 57.0459C69.286 56.963 69.408 56.845 69.4953 56.703L73.3545 50.2623C73.4412 50.1132 73.5655 49.9892 73.7152 49.9023C73.8649 49.8154 74.0348 49.7687 74.2082 49.7668H79.0958C79.2749 49.7683 79.4502 49.8176 79.6035 49.9094C79.7567 50.0012 79.8823 50.1322 79.967 50.2888C80.0518 50.4453 80.0925 50.6215 80.085 50.799C80.0776 50.9765 80.0222 51.1488 79.9246 51.2977L72.4359 62.5392C72.3285 62.701 72.2713 62.8905 72.2713 63.0842C72.2713 63.2779 72.3285 63.4674 72.4359 63.6292L79.9995 74.9698C80.0957 75.1186 80.1501 75.2904 80.1569 75.4672C80.1637 75.6439 80.1226 75.8193 80.0381 75.975C79.9535 76.1307 79.8285 76.2612 79.6759 76.3527C79.5234 76.4443 79.349 76.4937 79.1707 76.4957H73.9086C73.7446 76.4954 73.5832 76.455 73.4387 76.3781C73.2942 76.3012 73.1709 76.1902 73.0799 76.0548L68.7115 69.515C68.6153 69.3775 68.4855 69.2665 68.3344 69.1922C68.1832 69.1179 68.0156 69.0829 67.8471 69.0903C67.6786 69.0977 67.5147 69.1474 67.3708 69.2347C67.2269 69.3219 67.1076 69.4439 67.024 69.5893Z" fill="white"/>
</g>
<defs>
<clipPath id="clip0">
<rect width="126" height="120" fill="white"/>
</clipPath>
</defs>
</svg>
