<svg xmlns="http://www.w3.org/2000/svg" width="167.653" height="50" viewBox="0 0 167.653 50"><defs><style>.a{fill:#7c878e;}</style></defs><path class="a" d="M914.959,172.182q-.836,2.719-1.305,4.657c-.313,1.3-.462,1.985-.462,2.04l-.87-2.991-2.835-9.668h-5.153l-1.421,4.834q-1.87,6.54-2.284,7.825c0-.088-.156-.775-.469-2.04s-.748-2.855-1.305-4.657l-1.965-6.472H891.83l6.574,20.647h4.576l1.251-4.079c.476-1.482.993-3.243,1.564-5.283s.938-3.4,1.115-4.032q.258,1,1.142,4.079c.591,2.04,1.108,3.787,1.564,5.269l1.224,4.079h4.575l6.568-20.647h-5.024Z" transform="translate(-834.212 -148.316)"/><path class="a" d="M948.559,175.875a5.922,5.922,0,0,0-4.759-1.931,7.309,7.309,0,0,0-3.787.979,6.8,6.8,0,0,0-2.577,2.774,8.934,8.934,0,0,0-.918,4.14,8.744,8.744,0,0,0,.857,3.964,6.335,6.335,0,0,0,2.413,2.651,6.8,6.8,0,0,0,3.59.952,7.273,7.273,0,0,0,2.869-.564,4.955,4.955,0,0,0,2.04-1.53v1.679H952.6V174.461h-3.766Zm-1.435,8.458a3.4,3.4,0,0,1-2.556,1.013,3.29,3.29,0,0,1-2.5-1.013,4.235,4.235,0,0,1,0-5.316A3.27,3.27,0,0,1,944.582,178a3.4,3.4,0,0,1,2.556,1,3.583,3.583,0,0,1,.986,2.638A3.691,3.691,0,0,1,947.125,184.333Z" transform="translate(-848.516 -150.948)"/><path class="a" d="M970.954,175.05a2.8,2.8,0,0,0-1.272,1.564l-.292-1.965h-4.12v14.529h4.508v-6.8a3.793,3.793,0,0,1,1.047-2.849,4.08,4.08,0,0,1,2.978-1.02,5.327,5.327,0,0,1,.68.034v-3.9a6.717,6.717,0,0,0-1.36-.129,4.284,4.284,0,0,0-2.169.53Z" transform="translate(-857.721 -151.136)"/><path class="a" d="M990.5,185.381a3.971,3.971,0,0,1-1.836.4,3.4,3.4,0,0,1-2.3-.775,2.788,2.788,0,0,1-.952-2.04h10.307a8.805,8.805,0,0,0,.2-1.965,7.125,7.125,0,0,0-.918-3.624,6.466,6.466,0,0,0-2.6-2.5,7.907,7.907,0,0,0-3.834-.9,8.1,8.1,0,0,0-3.93.952,6.731,6.731,0,0,0-2.72,2.719,9.015,9.015,0,0,0,0,8.118,6.854,6.854,0,0,0,2.72,2.719,8.158,8.158,0,0,0,4.031.965,8.247,8.247,0,0,0,4.813-1.4,5.7,5.7,0,0,0,2.461-3.685h-4.378a2.264,2.264,0,0,1-1.061,1.013Zm-4.161-7.1a3.617,3.617,0,0,1,4.127,0,2.189,2.189,0,0,1,.836,1.74h-5.827a2.3,2.3,0,0,1,.85-1.74Z" transform="translate(-862.742 -150.963)"/><rect class="a" width="4.705" height="20.647" transform="translate(137.759 17.394)"/><path class="a" d="M1041.779,170.189a9.968,9.968,0,0,0-3.964-3.8,11.972,11.972,0,0,0-5.718-1.36,11.8,11.8,0,0,0-5.745,1.36,9.92,9.92,0,0,0-3.95,3.814,10.98,10.98,0,0,0-1.414,5.6,11.1,11.1,0,0,0,1.108,5.011,9.819,9.819,0,0,0,3.107,3.671,10.654,10.654,0,0,0,4.609,1.856v1.781q0,5.242,5.507,5.249a10.386,10.386,0,0,0,2.449-.293v-3.7a6.342,6.342,0,0,1-1.224.1c-.945,0-1.557-.19-1.836-.564a2.657,2.657,0,0,1-.421-1.6v-.931a10.715,10.715,0,0,0,4.657-1.87,10.074,10.074,0,0,0,3.141-3.692,11.673,11.673,0,0,0-.306-10.613Zm-4.331,8.927a5.594,5.594,0,0,1-2.176,2.25,6.248,6.248,0,0,1-3.175.809,6.425,6.425,0,0,1-3.2-.789,5.44,5.44,0,0,1-2.176-2.244,7.479,7.479,0,0,1,0-6.663,5.7,5.7,0,0,1,2.2-2.257,6.289,6.289,0,0,1,3.2-.8,6.118,6.118,0,0,1,3.154.8,5.622,5.622,0,0,1,2.162,2.257,7.547,7.547,0,0,1,0,6.635Z" transform="translate(-875.56 -148.098)"/><path class="a" d="M851.176,176.121V154.127a3,3,0,0,0-1.5-2.6l-19.036-11a3.052,3.052,0,0,0-3.012,0l-19.036,11a3.012,3.012,0,0,0-1.509,2.6v21.994a3.019,3.019,0,0,0,1.509,2.6l19.036,10.993a2.985,2.985,0,0,0,3.012,0l9.314-5.371a.279.279,0,0,1,.313,0l6.051,4.372a.279.279,0,0,0,.32,0l3.318-2.04a.292.292,0,0,0,0-.483l-5.541-4.011a.292.292,0,0,1,0-.49l5.228-3.019A3.012,3.012,0,0,0,851.176,176.121Zm-39.8-21.409,17.6-10.2a.285.285,0,0,1,.292,0l15.637,9.015a.292.292,0,0,1,0,.51l-17.676,9.729a.292.292,0,0,0-.156.245l-.374,19.811a.292.292,0,0,1-.435.252l-5.643-3.2a.3.3,0,0,1-.143-.252V161.157a.285.285,0,0,0-.19-.265l-3.576-1.414a.292.292,0,0,0-.394.272v18.132a.292.292,0,0,1-.442.252l-4.494-2.6a.285.285,0,0,1-.143-.252V155A.279.279,0,0,1,811.377,154.712Zm30.533,23.19v-7.057a.292.292,0,0,0-.408-.265l-3.576,1.543a.279.279,0,0,0-.177.265v8.247a.293.293,0,0,1-.15.258l-6.35,3.664a.292.292,0,0,1-.442-.258l.34-17.765a.285.285,0,0,1,.15-.252l15.29-8.4a.292.292,0,0,1,.428.258v17.146a.285.285,0,0,1-.143.252l-4.494,2.617a.292.292,0,0,1-.469-.252Z" transform="translate(-807.08 -140.125)"/></svg>