<svg xmlns="http://www.w3.org/2000/svg" width="157.545" height="250" viewBox="0 0 157.545 250"><defs><style>.a{opacity:0.1;}.b{fill:#e08433;}</style></defs><g class="a"><ellipse class="b" cx="13.335" cy="13.335" rx="13.335" ry="13.335" transform="translate(65.395 111.363)"/><path class="b" d="M107.6,994.825a17.808,17.808,0,0,0,11.628,7.054,13.418,13.418,0,0,0-4.655,6.525l-.346,1.118.854.772a13.153,13.153,0,0,0,12.2,2.968,13.4,13.4,0,0,0,3.944-1.809,12.929,12.929,0,0,0,.386,4.309,13.132,13.132,0,0,0,8.7,9.127l1.1.345.772-.854a13.091,13.091,0,0,0,2.968-12.2,4.351,4.351,0,0,0-.183-.549,30.494,30.494,0,0,0,27.281,0,4.337,4.337,0,0,0-.183.548,13.132,13.132,0,0,0,2.948,12.2l.793.854,1.1-.345a13.132,13.132,0,0,0,8.7-9.127,13.477,13.477,0,0,0,.386-4.31,13.394,13.394,0,0,0,3.944,1.809,13,13,0,0,0,3.395.447,13.154,13.154,0,0,0,8.844-3.416l.853-.772-.346-1.118a13.417,13.417,0,0,0-4.655-6.526,17.807,17.807,0,0,0,11.628-7.054l9.371,9.351,9.473-9.473V909.161H209.542v8.5a17.787,17.787,0,0,0-11.526-6.912,13.417,13.417,0,0,0,4.655-6.526l.346-1.118-.854-.772a13.09,13.09,0,0,0-12.2-2.968,13.4,13.4,0,0,0-3.944,1.809,12.927,12.927,0,0,0-.386-4.309,13.071,13.071,0,0,0-8.7-9.107l-1.1-.366-.793.854a13.173,13.173,0,0,0-2.948,12.2,5.4,5.4,0,0,0,.183.529,30.493,30.493,0,0,0-27.281,0,5.421,5.421,0,0,0,.183-.529,13.132,13.132,0,0,0-2.968-12.2l-.773-.854-1.1.366a13.071,13.071,0,0,0-8.7,9.107,12.928,12.928,0,0,0-.386,4.309,13.393,13.393,0,0,0-3.944-1.809,13.091,13.091,0,0,0-12.2,2.968l-.854.773.346,1.118a13.418,13.418,0,0,0,4.655,6.526,17.787,17.787,0,0,0-11.526,6.912v-8.5H88.71V994.7l9.473,9.473Zm111.46,4.269L213.3,993.28a5.753,5.753,0,0,1,11.445.183Zm5.875-12.359a9.312,9.312,0,0,0-4.066-2.033V922.944h4.066ZM213.18,912.76h11.75v6.586H213.18Zm0,71.495v-61.31h4.066v61.8a9.415,9.415,0,0,0-4.066,1.85Zm-86.822,25.532a9.554,9.554,0,0,1-7.948-1.4,9.473,9.473,0,0,1,6.1-5.183,9.575,9.575,0,0,1,7.948,1.4,9.554,9.554,0,0,1-6.1,5.183Zm13.9,11.221a9.554,9.554,0,0,1-3.781-14.23,9.554,9.554,0,0,1,3.781,14.23Zm41.856-6.1a9.514,9.514,0,0,1-5.184,6.1,9.554,9.554,0,0,1,3.781-14.23,9.574,9.574,0,0,1,1.4,8.05Zm16.669-6.444a9.555,9.555,0,0,1-14.23-3.781,9.574,9.574,0,0,1,7.948-1.4,9.472,9.472,0,0,1,6.281,5.1Zm10.754-34.843a17.869,17.869,0,0,0-14.23-7.156h0a53.314,53.314,0,0,0,7.481-9.107l.63-.976-.63-.976a53.126,53.126,0,0,0-7.44-9.087h0a17.869,17.869,0,0,0,14.23-7.156ZM158.6,976.855a20.43,20.43,0,1,0,0-.081Zm-14.413-1.24a48.645,48.645,0,0,1-25.959-19.23,48.788,48.788,0,0,1,25.959-19.332,23.967,23.967,0,0,0,0,38.481Zm38.5-19.23a24.09,24.09,0,0,0-9.676-19.251,48.79,48.79,0,0,1,26.061,19.17,48.645,48.645,0,0,1-25.959,19.23,24.007,24.007,0,0,0,9.575-19.23Zm8.131-53.463a9.554,9.554,0,0,1,7.948,1.4,9.473,9.473,0,0,1-6.1,5.184,9.575,9.575,0,0,1-7.948-1.4,9.554,9.554,0,0,1,6.221-5.245Zm-13.9-11.221a9.554,9.554,0,0,1,3.781,14.128,9.554,9.554,0,0,1-3.781-14.128Zm-41.856,6.1a9.575,9.575,0,0,1,5.184-6.1,9.554,9.554,0,0,1-3.781,14.128,9.574,9.574,0,0,1-1.382-8.03Zm-16.669,6.444a9.555,9.555,0,0,1,14.23,3.781,9.574,9.574,0,0,1-7.948,1.4,9.473,9.473,0,0,1-6.261-5.184Zm3.517,9.859a14.228,14.228,0,0,1,9.371,3.537l1.809,1.585,1.016-2.175a26.955,26.955,0,0,1,48.951,0l1.016,2.175,1.809-1.585a14.23,14.23,0,1,1,9.371,25,15.943,15.943,0,0,1-2.785-.265,14.679,14.679,0,0,1-2.907-.935,50.025,50.025,0,0,0-4.879-3.171,17.259,17.259,0,0,0,13.783-9.88l-3.253-1.5a13.579,13.579,0,0,1-23.865,1.484,18.647,18.647,0,0,0,3.944-5.529l-3.273-1.5a14.819,14.819,0,0,1-26.894,0l-3.253,1.5a18.055,18.055,0,0,0,4.066,5.57,13.6,13.6,0,0,1-23.845-1.525l-3.273,1.5a17.238,17.238,0,0,0,13.742,9.859,51.9,51.9,0,0,0-4.9,3.192,13.416,13.416,0,0,1-2.907.914,14.23,14.23,0,1,1-2.785-28.256Zm-14.23,24.983a17.868,17.868,0,0,0,14.23,7.156h0a52.191,52.191,0,0,0-7.44,9.087l-.63.976.63.976a53.3,53.3,0,0,0,7.481,9.107h0a17.868,17.868,0,0,0-14.23,7.156Zm14.23,30.9a14.232,14.232,0,0,1,5.773,1.24,50.4,50.4,0,0,0,4.838,3.13,17.238,17.238,0,0,0-13.823,9.879l3.253,1.5a13.579,13.579,0,0,1,23.866-1.484,18.641,18.641,0,0,0-3.944,5.529l3.273,1.5a14.82,14.82,0,0,1,26.894,0l3.253-1.5a18.053,18.053,0,0,0-4.066-5.57,13.6,13.6,0,0,1,23.845,1.525l3.273-1.5a17.218,17.218,0,0,0-13.783-9.859,55.239,55.239,0,0,0,4.858-3.151,13.832,13.832,0,0,1,2.988-.955,14.23,14.23,0,1,1-6.586,24.719l-1.809-1.586-1.016,2.175a26.956,26.956,0,0,1-48.951,0l-1.016-2.175-1.809,1.586a14.23,14.23,0,1,1-9.371-25Zm-17.869-41.612v58.362a9.252,9.252,0,0,0-4.066-2.033V922.944h4.066ZM92.288,912.76h11.75v6.586H92.308Zm0,10.164h4.066v61.8a9.493,9.493,0,0,0-4.066,1.85ZM98.1,988.238a5.794,5.794,0,0,1,5.733,5.285l-5.651,5.631-5.794-5.814a5.753,5.753,0,0,1,5.712-5.1Z" transform="translate(-79.867 -831.606)"/><path class="b" d="M228.752,1047.846a71.716,71.716,0,0,0,1.87-10.53v-3.639l7.156-7.156,1.037-1.037V931.649h-8.294a69.508,69.508,0,0,0-1.748-9.514,15.964,15.964,0,0,0,1.708.1,15.043,15.043,0,0,0,10.652-4.432l.732-.732-.264-1A14.824,14.824,0,0,0,224.91,905.1a14.88,14.88,0,0,0-1.159-19.962l-.712-.732-1,.264a15,15,0,0,0-6.241,3.415,15,15,0,0,0,3.415-6.241l.244-1-.711-.712a14.982,14.982,0,0,0-14.494-3.944,14.534,14.534,0,0,0-5.468,2.785,14.825,14.825,0,0,0-10.977-16.69l-1-.264-.732.732a14.8,14.8,0,0,0-3.679,6.1,15.327,15.327,0,0,0-.163-7.115l-.285-1-.976-.264a14.982,14.982,0,0,0-14.535,3.842,14.78,14.78,0,0,0-3.334,5.123,14.777,14.777,0,0,0-3.334-5.123,14.982,14.982,0,0,0-14.535-3.842l-.976.264-.285,1a15.328,15.328,0,0,0-.163,7.115,14.637,14.637,0,0,0-3.7-6.1l-.711-.732-1,.264a14.824,14.824,0,0,0-10.977,16.69,14.88,14.88,0,0,0-19.962,1.159l-.732.712.264,1a15,15,0,0,0,3.415,6.241,15,15,0,0,0-6.241-3.415l-1-.264-.712.732a14.982,14.982,0,0,0-3.944,14.494,14.533,14.533,0,0,0,2.785,5.468,14.825,14.825,0,0,0-16.69,10.977l-.264,1,.732.732a15.043,15.043,0,0,0,10.652,4.432,16.378,16.378,0,0,0,1.728-.1,69.5,69.5,0,0,0-1.748,9.513H87.389v93.835l1.057,1.037,7.156,7.156v3.9a70.846,70.846,0,0,0,1.85,10.164,14.962,14.962,0,0,0-12.36,4.33l-.732.732.264,1a15,15,0,0,0,10.591,10.652,14.55,14.55,0,0,0,3.842.508,16.885,16.885,0,0,0,2.277-.183,14.454,14.454,0,0,0-2.785,5.448,14.961,14.961,0,0,0,3.944,14.494l.712.732,1-.264a14.777,14.777,0,0,0,6.241-3.415,15.125,15.125,0,0,0-3.415,6.241l-.264,1,.732.732a14.962,14.962,0,0,0,10.652,4.432,15.435,15.435,0,0,0,3.842-.488,15.144,15.144,0,0,0,5.468-2.785,14.739,14.739,0,0,0,.3,6.1,14.961,14.961,0,0,0,10.672,10.591l1,.265.732-.712a14.942,14.942,0,0,0,3.679-6.1,15.327,15.327,0,0,0,.163,7.115l.285.976.976.285a15.466,15.466,0,0,0,3.944.528,14.84,14.84,0,0,0,13.925-9.514,14.84,14.84,0,0,0,13.925,9.514,15.466,15.466,0,0,0,3.944-.529l.976-.285.285-.976a15.409,15.409,0,0,0,.163-7.135,14.882,14.882,0,0,0,3.679,6.1l.732.711,1-.264a14.8,14.8,0,0,0,10.977-16.69,15.144,15.144,0,0,0,5.468,2.785,15.325,15.325,0,0,0,3.842.488,14.961,14.961,0,0,0,10.652-4.431l.712-.732-.244-1a15.122,15.122,0,0,0-3.415-6.241,14.782,14.782,0,0,0,6.241,3.415l.976.264.732-.732a14.962,14.962,0,0,0,3.944-14.494,14.758,14.758,0,0,0-2.785-5.448,16.924,16.924,0,0,0,2.277.183,14.57,14.57,0,0,0,3.842-.508,15,15,0,0,0,10.591-10.652l.264-1-.732-.732A15,15,0,0,0,228.752,1047.846Zm1.24-139a11.444,11.444,0,0,1,7.725,7.095,11.3,11.3,0,0,1-10.164,2.3h0a11.282,11.282,0,0,1-7.725-7.095c.244-.2.528-.386.793-.59a11.479,11.479,0,0,1,9.371-1.708Zm-3.171,22.768h-2.033a62.372,62.372,0,0,0-2.805-12.2,13.982,13.982,0,0,0,2.744,1.545,66.425,66.425,0,0,1,2.175,10.693Zm-4.96-43.1a11.424,11.424,0,0,1,2.277,10.164h0a11.4,11.4,0,0,1-6.1,7.278l-1.016.447a11.546,11.546,0,0,1-2.521-5.692,11.139,11.139,0,0,1,.244-4.553,2.177,2.177,0,0,1,.224-.671A11.363,11.363,0,0,1,221.861,888.513Zm-9.514,4.066-1.1-1.118a14.854,14.854,0,0,0,3.436-2.338,14.377,14.377,0,0,0-2.277,3.456Zm-14.23-7.237a11.343,11.343,0,0,1,17.32-3.395,11.343,11.343,0,0,1-6.912,6.81l-.813.285a11.794,11.794,0,0,1-4.066.325,11.527,11.527,0,0,1-6.22-2.6,11.3,11.3,0,0,1,.651-1.423Zm13.03,11.16a15.141,15.141,0,0,0-.224,3.313,62.186,62.186,0,0,0-6.668-6.83h.549a15.271,15.271,0,0,0,2.7-.284c1.22,1.24,2.439,2.5,3.6,3.8ZM187.933,866.01a11.445,11.445,0,0,1,7.095,7.725,11.722,11.722,0,0,1-2.317,10.225,11.46,11.46,0,0,1-7.339-8.843,11.445,11.445,0,0,1,2.521-8.965Zm-5.509,11.933a15.755,15.755,0,0,0,1.423,3.09,63.514,63.514,0,0,0-8.782-2.378,13.848,13.848,0,0,0,2.785-2.033c1.5.488,3.029.894,4.533,1.382Zm-.386-7.806a15.039,15.039,0,0,0-.325,3.822l-1.3-.346A14.655,14.655,0,0,0,182,870.218ZM166.2,871.478a11,11,0,0,1,2.805-4.716,11.4,11.4,0,0,1,10-3.151,11.4,11.4,0,0,1-2.358,9.127,10.79,10.79,0,0,1-.773.874,11.118,11.118,0,0,1-2.988,2.033,11.323,11.323,0,0,1-7.034,1.037,9.682,9.682,0,0,1-.142-1.708,10.57,10.57,0,0,1,.447-3.435Zm-3.049,9.656a58.464,58.464,0,0,1,58.1,50.455h-7.623l.651-2.033-1.728-1.565-2.033-1.769c-.346-.3-.712-.59-1.1-.895a46.755,46.755,0,0,0-92.779,0l-1.1.895-2.033,1.769-1.728,1.565.651,2.033h-7.44a58.424,58.424,0,0,1,58.119-50.394Zm-41.063,36.713a44.276,44.276,0,0,1,4.655-9.859l5.021,2.887a34.883,34.883,0,0,0-3.253,8.131Zm2.033,4.066a19.165,19.165,0,0,0-3.314,1.1,7.484,7.484,0,0,1,.346-1.626Zm4.737-16.852a42.48,42.48,0,0,1,7.339-7.46l3.212,3.842a35.126,35.126,0,0,0-5.712,6.424Zm10.164-9.595a42.4,42.4,0,0,1,9.026-4.594l1.545,4.228a36.593,36.593,0,0,0-7.44,4.066Zm24.069.63a32.1,32.1,0,0,1,31.082,23.622,18.926,18.926,0,0,0-10.977-9.209l-2.5-.813-2.216-.711-1.565,1.728-1.748,2.033a18.988,18.988,0,0,0-4.432,8.457,36.325,36.325,0,0,0-15.287,0,18.987,18.987,0,0,0-4.432-8.457l-1.748-2.033-1.565-1.728-2.216.711-2.5.813a18.885,18.885,0,0,0-10.957,9.168,32.058,32.058,0,0,1,31.062-23.56Zm-11.607-6.322a42.111,42.111,0,0,1,9.819-1.525v4.33a36.268,36.268,0,0,0-8.314,1.382Zm13.457,2.805v-4.289a42.472,42.472,0,0,1,9.819,1.525l-1.5,4.066a36.274,36.274,0,0,0-8.314-1.3Zm11.709,2.561,1.545-4.228a43.767,43.767,0,0,1,9.005,4.614l-3.11,3.72a36.3,36.3,0,0,0-7.481-4.127Zm15.958,12.766a34.378,34.378,0,0,0-5.712-6.424l3.232-3.842a43.955,43.955,0,0,1,7.318,7.481Zm6.912.163a42.563,42.563,0,0,1,4.655,9.859l-6.4,1.138a36.591,36.591,0,0,0-3.253-8.131Zm5.631,13.356c.122.549.264,1.077.366,1.626a19.383,19.383,0,0,0-3.334-1.1Zm-91.376-28.846a14.373,14.373,0,0,0-2.338-3.456,14.865,14.865,0,0,0,3.435,2.338Zm1.3,3.923c1.159-1.3,2.378-2.561,3.639-3.761a15.254,15.254,0,0,0,2.7.285h.549a62.42,62.42,0,0,0-6.688,6.83,15.121,15.121,0,0,0-.2-3.354Zm32.139-32.83a11.309,11.309,0,0,1,13.295,11.445,16.122,16.122,0,0,1-.142,1.707,11.465,11.465,0,0,1-7.034-1.016,11.673,11.673,0,0,1-2.988-2.033,10.767,10.767,0,0,1-.773-.874,11.4,11.4,0,0,1-2.358-9.229Zm-1.4,10-1.3.345a15.1,15.1,0,0,0-.325-3.821,14.656,14.656,0,0,0,1.626,3.476ZM143.78,878c1.525-.468,3.049-.894,4.594-1.26a13.835,13.835,0,0,0,2.785,2.033,63.517,63.517,0,0,0-8.782,2.378,14.581,14.581,0,0,0,1.4-3.151ZM131.2,873.8a11.4,11.4,0,0,1,7.095-7.725,11.445,11.445,0,0,1,2.521,9.107,11,11,0,0,1-.244,1.118,11.485,11.485,0,0,1-7.095,7.725,11.669,11.669,0,0,1-.935-1.3,11.934,11.934,0,0,1-1.382-3.334,11.321,11.321,0,0,1,.041-5.59Zm-10.164,5.875a11.427,11.427,0,0,1,4.9,2.785,11.973,11.973,0,0,1,2.826,4.309,11.466,11.466,0,0,1-6.22,2.6,11.794,11.794,0,0,1-4.066-.325l-.813-.284a11.344,11.344,0,0,1-6.912-6.81,11.424,11.424,0,0,1,10.286-2.277Zm-16.771,8.843a11.425,11.425,0,0,1,6.871,7.054,2.894,2.894,0,0,0,.224.671h0a11.14,11.14,0,0,1,.244,4.554,11.546,11.546,0,0,1-2.521,5.692L108.022,906a10.893,10.893,0,0,1-2.968-2.033,11.3,11.3,0,0,1-3.131-5.285,11.424,11.424,0,0,1,2.338-10.164Zm-15.876,27.5a11.323,11.323,0,0,1,17.177-5.387c.264.183.529.366.772.569a11.264,11.264,0,0,1-3.049,4.554,11.405,11.405,0,0,1-4.676,2.541h0a11.384,11.384,0,0,1-10.225-2.317Zm15.8,3.578a62.37,62.37,0,0,0-2.805,12.2H99.342a67.082,67.082,0,0,1,2.033-10.571,15.026,15.026,0,0,0,2.805-1.667ZM90.967,1024.021V935.268h23.439v5.367a19.655,19.655,0,0,1,4.919-2.7,15.448,15.448,0,0,1-2.439-4.655l-.793-2.5,2.033-1.748a15.327,15.327,0,0,1,10.327-4.066,15.822,15.822,0,0,1,4.066.529c.427.122.854.244,1.281.407a6.147,6.147,0,0,1,.285-1.321A15.389,15.389,0,0,1,144.247,913.9l2.48-.793,1.769,2.033a15.307,15.307,0,0,1,4.066,10.652,32.525,32.525,0,0,1,21.507,0,15.307,15.307,0,0,1,4.066-10.652l1.769-2.033,2.48.793a15.388,15.388,0,0,1,10.164,10.672c.1.447.2.874.285,1.322l1.281-.407a15.813,15.813,0,0,1,4.066-.528,15.328,15.328,0,0,1,10.327,4.066l2.033,1.748-.793,2.5a15.444,15.444,0,0,1-2.439,4.655,19.66,19.66,0,0,1,4.919,2.7v-5.367h23.439V1024l-11.709,11.729-9.229-9.229a20.026,20.026,0,0,1-7.42,4.919,15.451,15.451,0,0,1,2.439,4.655l.793,2.5-2.033,1.748a15.531,15.531,0,0,1-10.408,4.066,15.058,15.058,0,0,1-3.923-.508,13.322,13.322,0,0,1-1.281-.407,6.146,6.146,0,0,1-.285,1.321,15.389,15.389,0,0,1-10.164,10.672l-2.48.793-1.769-2.033a15.308,15.308,0,0,1-4.066-10.652,32.526,32.526,0,0,1-21.507,0,15.348,15.348,0,0,1-4.066,10.652l-1.769,2.033-2.48-.793a15.389,15.389,0,0,1-10.164-10.672,7.676,7.676,0,0,0-.285-1.321c-.427.163-.854.285-1.281.407a15.063,15.063,0,0,1-3.923.508,15.634,15.634,0,0,1-10.408-4.066l-2.033-1.748.793-2.5a15.452,15.452,0,0,1,2.439-4.655,20.026,20.026,0,0,1-7.42-4.919l-9.229,9.229Zm136.017,13.335a63.649,63.649,0,0,1-2.256,11.567,13.82,13.82,0,0,0-2.724,1.545,63.017,63.017,0,0,0,2.622-10.754l1.423-1.423Zm-63.892,36.591a32.119,32.119,0,0,1-31.448-25.085,18.824,18.824,0,0,0,11.343,10l2.5.813,2.216.712,1.565-1.728,1.748-1.931a19.189,19.189,0,0,0,4.432-8.457,36.331,36.331,0,0,0,15.287,0,18.987,18.987,0,0,0,4.432,8.457l1.748,1.931,1.565,1.728,2.216-.712,2.5-.813a18.866,18.866,0,0,0,11.323-9.941,32.1,32.1,0,0,1-31.428,24.943Zm11.607,6.322a44.39,44.39,0,0,1-9.758,1.362v-4.289a37.405,37.405,0,0,0,8.314-1.382Zm-13.417-2.765v4.127a44.732,44.732,0,0,1-9.819-1.525l1.5-4.066a36.282,36.282,0,0,0,8.314,1.382Zm-32.83-26.427a36.771,36.771,0,0,0,3.253,8.131l-5,2.887a42.159,42.159,0,0,1-4.655-9.859Zm-7.379-2.338q-.285-1.2-.488-2.378a18.059,18.059,0,0,0,5.346,1.5Zm12.543,13.518a34.931,34.931,0,0,0,5.712,6.4L136.1,1072.5a43.1,43.1,0,0,1-7.318-7.46Zm8.518,8.66a36.21,36.21,0,0,0,7.44,4.066l-1.545,4.229a42.691,42.691,0,0,1-9.005-4.594Zm41.9,0,3.131,3.72a42.889,42.889,0,0,1-9.026,4.594L176.59,1075a34.806,34.806,0,0,0,7.44-4.249Zm2.826-2.236a36.593,36.593,0,0,0,5.712-6.424l4.838,2.785a42.5,42.5,0,0,1-7.339,7.46Zm7.6-9.493a34.879,34.879,0,0,0,3.253-8.131l6.4,1.138a42.929,42.929,0,0,1-4.615,9.717Zm5.773-11.323a18.488,18.488,0,0,0,5.346-1.484c-.142.793-.3,1.565-.488,2.358Zm-96.072,2.541a15.544,15.544,0,0,0-2.724-1.525,63.67,63.67,0,0,1-2.277-11.567h0l.976.976,1.382,1.382a62.739,62.739,0,0,0,2.643,10.733Zm-8.131,10.672a11.343,11.343,0,0,1-7.725-7.094,11.424,11.424,0,0,1,10.164-2.3h0a11.4,11.4,0,0,1,7.725,7.094,7.272,7.272,0,0,1-.793.59,11.6,11.6,0,0,1-3.232,1.565,11.263,11.263,0,0,1-6.058.142Zm8.131,20.328a11.282,11.282,0,0,1,.833-15.449,11.63,11.63,0,0,1,2.968-2.033c.325-.142.671-.3,1.016-.427a11.465,11.465,0,0,1,2.521,5.692,11.058,11.058,0,0,1-.244,4.533,2.605,2.605,0,0,1-.224.671,11.363,11.363,0,0,1-6.769,7.094Zm9.514-4.066,1.1,1.118a14.238,14.238,0,0,0-3.435,2.338,14.779,14.779,0,0,0,2.439-3.395Zm14.23,7.237a11.123,11.123,0,0,1-2.175,2.866,11.263,11.263,0,0,1-4.9,2.805,11.425,11.425,0,0,1-10.164-2.277,11.384,11.384,0,0,1,6.912-6.83,5.462,5.462,0,0,1,.813-.264,10.819,10.819,0,0,1,4.066-.325,11.525,11.525,0,0,1,6.22,2.6,12.775,12.775,0,0,1-.569,1.484ZM115.076,1073.5a14.943,14.943,0,0,0,.2-3.293,64.449,64.449,0,0,0,6.708,6.83,13.592,13.592,0,0,0-3.273.244C117.455,1076.021,116.154,1074.781,115.076,1073.5Zm23.215,30.492a11.4,11.4,0,0,1-7.095-7.725h0a11.323,11.323,0,0,1,0-5.59,11.688,11.688,0,0,1,1.382-3.334,11.969,11.969,0,0,1,.935-1.322,11.485,11.485,0,0,1,7.095,7.725,7.5,7.5,0,0,1,.224,1.139A11.4,11.4,0,0,1,138.291,1103.992Zm5.489-11.933a13.721,13.721,0,0,0-1.4-3.09,63.452,63.452,0,0,0,8.782,2.358,14.67,14.67,0,0,0-2.765,2.032c-1.565-.487-3.09-.914-4.614-1.382Zm.407,7.786a14.882,14.882,0,0,0,.325-3.8l1.3.325a15.043,15.043,0,0,0-1.626,3.395Zm15.836-1.321a11.241,11.241,0,0,1-12.807,7.847,11.445,11.445,0,0,1,2.358-9.127c.244-.305.508-.59.772-.874a11.609,11.609,0,0,1,10.022-3.151,16.116,16.116,0,0,1,.142,1.707,11.321,11.321,0,0,1-.488,3.517Zm3.049-9.656a58.484,58.484,0,0,1-58.078-50.312l.224-.224,6.871-6.911a22.12,22.12,0,0,0,2.2,1.5c-.285.651-.549,1.342-.772,2.033l-.813,2.5-.712,2.216,1.728,1.565,2.033,1.748,1,.813a46.755,46.755,0,0,0,92.962,0l1.016-.833,2.033-1.748,1.728-1.565-.711-2.216-.813-2.5c-.224-.691-.488-1.382-.772-2.033a22.138,22.138,0,0,0,2.2-1.5l6.83,6.83.2.2a58.424,58.424,0,0,1-58.342,50.353Zm49.317-11.4a15.185,15.185,0,0,0,2.358,3.476,14.231,14.231,0,0,0-3.435-2.338c.386-.448.732-.834,1.077-1.22Zm-1.281-3.924c-1.159,1.322-2.378,2.562-3.639,3.781a14.741,14.741,0,0,0-3.273-.264,60.4,60.4,0,0,0,6.688-6.81,14.961,14.961,0,0,0,.224,3.252Zm-32.139,32.749a11.241,11.241,0,0,1-12.807-7.847,10.774,10.774,0,0,1-.488-3.6,9.677,9.677,0,0,1,.142-1.708,11.608,11.608,0,0,1,10.022,3.151c.264.285.528.569.772.874A11.425,11.425,0,0,1,178.968,1106.289Zm1.4-10,1.3-.325a14.88,14.88,0,0,0,.325,3.8A15.045,15.045,0,0,0,180.371,1096.288Zm2.033-4.31c-1.5.468-3.029.895-4.594,1.26a14.673,14.673,0,0,0-2.765-2.033,62.391,62.391,0,0,0,8.761-2.358,15.78,15.78,0,0,0-1.423,3.13Zm12.6,4.208a11.445,11.445,0,0,1-7.095,7.725,11.485,11.485,0,0,1-2.521-9.107,10.262,10.262,0,0,1,.244-1.139h0a11.123,11.123,0,0,1,1.565-3.374,11.385,11.385,0,0,1,5.529-4.35,11.95,11.95,0,0,1,.935,1.321,11.691,11.691,0,0,1,1.382,3.334,11.323,11.323,0,0,1-.061,5.59Zm10.164-5.875a11.262,11.262,0,0,1-4.9-2.805,11.122,11.122,0,0,1-2.175-2.866,12.806,12.806,0,0,1-.65-1.423,11.567,11.567,0,0,1,6.22-2.622,11.325,11.325,0,0,1,4.066.346,5.417,5.417,0,0,1,.813.264,11.445,11.445,0,0,1,6.912,6.83,11.424,11.424,0,0,1-10.306,2.277Zm16.771-8.823a11.364,11.364,0,0,1-6.871-7.054,6.469,6.469,0,0,1-.224-.671,11.139,11.139,0,0,1-.244-4.553,11.487,11.487,0,0,1,2.521-5.672c.346.122.671.285,1,.427a10.9,10.9,0,0,1,2.968,2.033,11.282,11.282,0,0,1,.854,15.47Zm8.131-20.328a11.262,11.262,0,0,1-6.1-.122,11.451,11.451,0,0,1-3.253-1.565l-.772-.59a11.4,11.4,0,0,1,7.725-7.094h0a11.424,11.424,0,0,1,10.164,2.277,11.343,11.343,0,0,1-7.847,7.013Z" transform="translate(-84.36 -859.948)"/><path class="b" d="M120.34,880.65h5.55a8.131,8.131,0,0,1,3.7.833,6.1,6.1,0,0,1,2.521,2.318,7.054,7.054,0,0,1,0,6.871,6.1,6.1,0,0,1-2.521,2.317,8.134,8.134,0,0,1-3.7.833h-5.55Zm5.428,11.526a6.22,6.22,0,0,0,2.826-.61,4.7,4.7,0,0,0,1.87-1.748,5.122,5.122,0,0,0,.651-2.582,5.063,5.063,0,0,0-.651-2.582,4.575,4.575,0,0,0-1.87-1.748,6.22,6.22,0,0,0-2.826-.63H122.21v9.9Z" transform="translate(-47.198 -838.567)"/><path class="b" d="M124.9,957.486H120.43V955.86h10.815v1.626h-4.472v11.445H124.9Z" transform="translate(-47.106 -760.888)"/></g></svg>