<svg xmlns="http://www.w3.org/2000/svg" width="78.743" height="250" viewBox="0 0 78.743 250"><defs><style>.a{fill:#fbf2e9;}</style></defs><g transform="translate(0 -0.002)"><g transform="translate(0 0.002)"><path class="a" d="M65.619,187.816a71.1,71.1,0,0,0,1.869-10.523v-3.636l7.151-7.07,1.036-1.056V71.712H67.387a69.195,69.195,0,0,0-1.747-9.528,16.027,16.027,0,0,0,1.707.1,15.034,15.034,0,0,0,10.645-4.429l.731-.731-.264-1a14.83,14.83,0,0,0-16.7-10.97,14.587,14.587,0,0,0,2.783-5.445A14.993,14.993,0,0,0,60.6,25.21L59.89,24.5l-1,.244a14.81,14.81,0,0,0-6.237,3.433,15.2,15.2,0,0,0,3.413-6.257l.264-.975-.731-.63a14.871,14.871,0,0,0-19.95-1.158,14.83,14.83,0,0,0-10.97-16.7l-1-.427-.731.731A14.932,14.932,0,0,0,19.28,8.856a15.318,15.318,0,0,0-.163-7.07l-.284-1L17.857.526A15.034,15.034,0,0,0,3.332,4.366,14.648,14.648,0,0,0,0,9.506V21.269H0A58.428,58.428,0,0,1,58.082,71.712H50.464l.65-2.032-1.727-1.564-1.93-1.747a11.681,11.681,0,0,0-1.1-.894A46.563,46.563,0,0,0,0,24.7H0V36.18H0A32.119,32.119,0,0,1,31.083,59.787a19.015,19.015,0,0,0-10.991-9.2l-2.5-.813-2.214-.711-1.564,1.727-1.747,2.032A18.812,18.812,0,0,0,7.639,61.25,36.954,36.954,0,0,0,0,60.356H0v3.6H0A32.5,32.5,0,0,1,10.746,65.78,15.338,15.338,0,0,1,14.81,55.135l1.767-1.93L19.056,54A15.379,15.379,0,0,1,29.214,64.683c.1.427.2.853.284,1.3l1.28-.406a15.806,15.806,0,0,1,4.063-.528,15.42,15.42,0,0,1,10.32,4.063l1.93,1.747-.792,2.5a14.973,14.973,0,0,1-2.438,4.652,19.645,19.645,0,0,1,4.9,2.641V75.308H72.08v88.657l-11.7,11.722-9.223-9.223a20.011,20.011,0,0,1-7.415,4.916,15.318,15.318,0,0,1,2.438,4.673l.792,2.479L45.04,180.3a15.6,15.6,0,0,1-10.4,4.063,15.055,15.055,0,0,1-3.921-.508,13.408,13.408,0,0,1-1.28-.406,5.891,5.891,0,0,1-.284,1.321A15.379,15.379,0,0,1,19,195.434l-2.479.813-1.767-2.032a15.3,15.3,0,0,1-4.063-10.625A32.972,32.972,0,0,1,0,185.378H0v3.555H0a35.612,35.612,0,0,0,7.639-.813,18.975,18.975,0,0,0,4.429,8.451l1.747,2.032,1.564,1.727,2.214-.711,2.5-.813a18.853,18.853,0,0,0,11.316-9.934A32.078,32.078,0,0,1,0,213.82V225.3a46.543,46.543,0,0,0,46.441-41.5l1.016-.833,1.93-1.747,1.727-1.564-.711-2.214-.813-2.5c-.223-.691-.488-1.361-.772-2.032a25.966,25.966,0,0,0,2.194-1.483l6.826,6.806.2.223A58.387,58.387,0,0,1,0,228.731v11.763a14.648,14.648,0,0,0,3.332,5.14A14.993,14.993,0,0,0,13.916,250a15.461,15.461,0,0,0,3.941-.528l.975-.264.284-1a15.318,15.318,0,0,0,.163-7.11,14.932,14.932,0,0,0,3.677,6.095l.731.711,1-.244a14.83,14.83,0,0,0,10.97-16.7,14.83,14.83,0,0,0,5.465,2.783,14.546,14.546,0,0,0,3.84.508A14.973,14.973,0,0,0,55.6,229.808l.731-.731-.264-1a15.257,15.257,0,0,0-3.413-6.237,14.546,14.546,0,0,0,6.257,3.393l1,.264.711-.711a14.851,14.851,0,0,0,1.158-19.95,16.9,16.9,0,0,0,2.275.183,14.545,14.545,0,0,0,3.84-.508A14.993,14.993,0,0,0,78.479,193.87l.264-1-.731-.731a14.993,14.993,0,0,0-12.393-4.327ZM10.158,34.006a36.243,36.243,0,0,0-8.309-1.381V28.44a42.439,42.439,0,0,1,9.812,1.524Zm10.828,5.282a35.268,35.268,0,0,0-7.436-4.063L15.094,31a42.663,42.663,0,0,1,9,4.591Zm8.472,8.654a35.7,35.7,0,0,0-5.709-6.42l3.23-3.819a43.069,43.069,0,0,1,7.314,7.456ZM34.537,59.1a36.568,36.568,0,0,0-3.25-8.126l5-2.905a42.663,42.663,0,0,1,4.652,9.873Zm4.408,2.885,2.966-.528c.122.549.264,1.077.366,1.646a17.837,17.837,0,0,0-3.25-1.117Zm-20.051-51.7a15.1,15.1,0,0,0-.325,3.819l-1.3-.345a14.648,14.648,0,0,0,1.625-3.474ZM2.641,16.9A9.67,9.67,0,0,1,2.5,15.194a10.645,10.645,0,0,1,.488-3.576,11.275,11.275,0,0,1,12.8-7.862,11.4,11.4,0,0,1-2.275,9.122c-.244.3-.508.609-.772.894A12.189,12.189,0,0,1,9.751,15.8a11.458,11.458,0,0,1-7.029,1.1Zm9.2,1.91a14.81,14.81,0,0,0,2.783-2.032c1.544.366,3.068.792,4.571,1.26a15.216,15.216,0,0,0,1.422,3.088,60.682,60.682,0,0,0-8.7-2.316Zm19.991.65a11.356,11.356,0,0,1-2.316,4.632,11.235,11.235,0,0,1-5.526-4.327,11.011,11.011,0,0,1-1.564-3.393,9.914,9.914,0,0,1-.081-1.117,11.438,11.438,0,0,1,2.438-9.162,11.438,11.438,0,0,1,7.09,7.72,11.316,11.316,0,0,1,.041,5.648Zm2.4,7.375a12.779,12.779,0,0,1,.65-1.422A11.335,11.335,0,0,1,52.191,22.02a11.3,11.3,0,0,1-6.907,6.806l-.813.284a10.849,10.849,0,0,1-4.063.325,11.519,11.519,0,0,1-6.095-2.6ZM47.681,39.878a60.215,60.215,0,0,0-6.664-6.806h.549a15.256,15.256,0,0,0,2.7-.284c1.26,1.2,2.478,2.458,3.636,3.758a16.517,16.517,0,0,0-.142,3.332Zm.427-8.35a14.851,14.851,0,0,0,3.433-2.336A14.769,14.769,0,0,0,49.2,32.645ZM53.9,46.5a11.539,11.539,0,0,1-2.519-5.688,11.133,11.133,0,0,1,.244-4.551,2.172,2.172,0,0,1,.223-.67,11.417,11.417,0,0,1,6.867-7.05A11.438,11.438,0,0,1,60.987,38.7h0a11.4,11.4,0,0,1-6.095,7.273,9.061,9.061,0,0,1-.914.528Zm7.72,25.212a62.979,62.979,0,0,0-2.8-12.189,13.977,13.977,0,0,0,2.743,1.544,66.189,66.189,0,0,1,2.133,10.564ZM64.36,58.3a11.3,11.3,0,0,1-7.72-7.07,7.273,7.273,0,0,1,.792-.589,11.113,11.113,0,0,1,3.23-1.585,11.275,11.275,0,0,1,13.916,6.968,11.3,11.3,0,0,1-10.158,2.3ZM1.788,221.662v-4.287a36.242,36.242,0,0,0,8.37-1.381l1.5,4.063A44.369,44.369,0,0,1,1.788,221.662Zm13.246-2.641-1.544-4.205a35.756,35.756,0,0,0,7.436-4.063l3.129,3.718a42.844,42.844,0,0,1-9.02,4.551Zm11.925-6.7-3.21-3.84a35.776,35.776,0,0,0,5.709-6.42l4.835,2.783a43.293,43.293,0,0,1-7.334,7.476Zm9.406-10.442-5.018-2.783a34.719,34.719,0,0,0,3.19-8.126l6.42,1.117a43.841,43.841,0,0,1-4.591,9.792Zm5.607-13.327-4.835-.853a19.239,19.239,0,0,0,5.323-1.5c-.142.711-.3,1.585-.488,2.357Zm19.523-8.9,1.422-1.422.935-.935A63.608,63.608,0,0,1,61.6,188.933a15.644,15.644,0,0,0-2.722,1.544A62.43,62.43,0,0,0,61.5,179.649ZM49.306,217.355a14.77,14.77,0,0,0,2.336,3.454,14.221,14.221,0,0,0-3.433-2.336Zm-1.524-7.232a15.216,15.216,0,0,0,.223,3.311c-1.158,1.3-2.377,2.539-3.636,3.758a14.708,14.708,0,0,0-3.271-.244,62.348,62.348,0,0,0,6.664-6.826Zm-31.916,36.1a11.235,11.235,0,0,1-12.8-7.842,10.645,10.645,0,0,1-.488-3.576,9.508,9.508,0,0,1,.142-1.707,11.458,11.458,0,0,1,7.029,1.016,12.19,12.19,0,0,1,2.986,2.032l.772.874a11.438,11.438,0,0,1,2.357,9.2Zm1.4-10,1.3-.325a14.871,14.871,0,0,0,.325,3.819,15.033,15.033,0,0,0-1.625-3.494Zm2.032-4.307c-1.5.467-3.027.894-4.591,1.26a14.668,14.668,0,0,0-2.763-2.032,59.728,59.728,0,0,0,8.756-2.357,15.764,15.764,0,0,0-1.422,3.129Zm12.6,4.205a11.438,11.438,0,0,1-7.11,7.659,11.336,11.336,0,0,1-2.275-10.158h0a11.112,11.112,0,0,1,1.564-3.372,11.377,11.377,0,0,1,5.526-4.348,11.925,11.925,0,0,1,.935,1.321,11.681,11.681,0,0,1,1.381,3.332,11.316,11.316,0,0,1-.041,5.566Zm10.158-5.871a11.417,11.417,0,0,1-4.916-2.722,11.58,11.58,0,0,1-2.174-2.885,12.777,12.777,0,0,1-.65-1.422,11.519,11.519,0,0,1,6.318-2.661,10.849,10.849,0,0,1,4.063.325,2.927,2.927,0,0,1,.813.264,11.438,11.438,0,0,1,6.907,6.826,11.417,11.417,0,0,1-10.381,2.275Zm16.74-8.817a11.438,11.438,0,0,1-6.867-7.07c0-.223-.163-.427-.223-.65a11.235,11.235,0,0,1-.244-4.571,11.478,11.478,0,0,1,2.519-5.668c.345.122.67.284,1,.427a10.95,10.95,0,0,1,2.966,2.032,11.194,11.194,0,0,1,3.129,5.343,11.438,11.438,0,0,1-2.275,10.158Zm8.248-20.316a11.072,11.072,0,0,1-6.2-.122,11.438,11.438,0,0,1-3.25-1.564,7.05,7.05,0,0,1-.772-.589,11.4,11.4,0,0,1,7.72-7.09h0A11.417,11.417,0,0,1,74.7,194.032,11.336,11.336,0,0,1,67.041,201.123Z" transform="translate(0 -0.002)"/><path class="a" d="M50.911,49.218V57.71A17.776,17.776,0,0,0,39.392,50.9a13.225,13.225,0,0,0,4.652-6.521l.345-1.117-.853-.772a13.083,13.083,0,0,0-12.189-2.966,13.388,13.388,0,0,0-3.941,1.808,12.921,12.921,0,0,0-.386-4.307,13.1,13.1,0,0,0-8.736-9.2l-1.1-.366-.772.874a13.083,13.083,0,0,0-2.966,12.189,5.424,5.424,0,0,0,.183.528A30.6,30.6,0,0,0,0,37.862v3.6A27.04,27.04,0,0,1,24.379,57.1l1.016,2.174L27.2,57.69a14.221,14.221,0,1,1,6.582,24.724,14.688,14.688,0,0,1-2.905-.935A47.66,47.66,0,0,0,26,78.31a17.268,17.268,0,0,0,13.774-9.853l-3.21-1.524a13.571,13.571,0,0,1-23.851,1.483A18.629,18.629,0,0,0,16.7,62.89l-3.271-1.5A14.851,14.851,0,0,1,0,69.981v5.892A20.478,20.478,0,0,1,20.458,96.33,20.478,20.478,0,0,1,0,116.808v5.912H0a14.891,14.891,0,0,1,13.449,8.573l3.25-1.5a18.04,18.04,0,0,0-4.063-5.566,13.591,13.591,0,0,1,23.932,1.524l3.271-1.5a17.207,17.207,0,0,0-13.774-9.853,48.409,48.409,0,0,0,4.815-3.149,13.836,13.836,0,0,1,2.986-.955,14.221,14.221,0,1,1-6.582,24.7l-1.808-1.585-1.1,2.194A27.06,27.06,0,0,1,0,151.223v3.6a30.331,30.331,0,0,0,13.632-3.23c0,.183-.142.366-.183.548a13.124,13.124,0,0,0,2.946,12.189l.792.853,1.1-.3a13.124,13.124,0,0,0,8.7-9.122,12.88,12.88,0,0,0,.386-4.307,12.433,12.433,0,0,0,3.941,1.808,13.043,13.043,0,0,0,3.413.467,13.246,13.246,0,0,0,8.817-3.433l.853-.772-.345-1.1a13.226,13.226,0,0,0-4.652-6.521,17.9,17.9,0,0,0,11.621-7.07l9.365,9.345,9.467-9.467V49.218ZM22.1,45.8a9.548,9.548,0,0,1-3.779-14.221A9.548,9.548,0,0,1,22.1,45.8Zm11.885,3.677a9.508,9.508,0,0,1-7.943-1.4A9.548,9.548,0,0,1,40.266,44.3a9.467,9.467,0,0,1-6.278,5.18ZM23.505,154.818a9.508,9.508,0,0,1-5.18,6.095,9.528,9.528,0,0,1,3.779-14.1,9.528,9.528,0,0,1,1.4,8Zm16.659-6.4a9.548,9.548,0,0,1-14.119-3.779,9.548,9.548,0,0,1,14.221,3.779ZM14.4,115.548a23.932,23.932,0,0,0,0-38.437A48.615,48.615,0,0,1,40.347,96.33,48.615,48.615,0,0,1,14.4,115.548Zm36.568-2.032a17.857,17.857,0,0,0-14.221-7.151h-.183a52.494,52.494,0,0,0,7.476-9.1l.63-.975-.63-.975a52.821,52.821,0,0,0-7.476-9.04h0a17.857,17.857,0,0,0,14.221-7.151Zm3.6,10.706V63.094h4.063v61.759a9.406,9.406,0,0,0-4.063,1.849Zm5.871,14.83-5.81-5.79a5.749,5.749,0,0,1,11.438.163ZM66.31,126.7a9.3,9.3,0,0,0-4.063-2.032V63.094H66.31Zm0-67.346h-11.8V52.814H66.249Z" transform="translate(0 28.323)"/><path class="a" d="M0,54.8V81.454A13.327,13.327,0,0,0,13.327,68.127,13.327,13.327,0,0,0,0,54.8Z" transform="translate(0 56.526)"/><path class="a" d="M6.095,23.869a6.1,6.1,0,0,0-2.438-2.316A8.126,8.126,0,0,0,0,20.72v1.646a6.1,6.1,0,0,1,2.661.609A4.571,4.571,0,0,1,4.53,24.722a5.445,5.445,0,0,1,0,5.16A4.693,4.693,0,0,1,2.661,31.63,6.1,6.1,0,0,1,0,32.239v1.646a8.126,8.126,0,0,0,3.657-.833,6.1,6.1,0,0,0,2.438-2.316,6.6,6.6,0,0,0,.975-3.352,6.643,6.643,0,0,0-.975-3.515Z" transform="translate(0 21.37)"/><path class="a" d="M0,95.93v13.083H.935V97.555H5.4V95.93Z" transform="translate(0 98.954)"/></g></g></svg>