<svg xmlns="http://www.w3.org/2000/svg" xmlns:xlink="http://www.w3.org/1999/xlink" width="230.199" height="68.653" viewBox="0 0 230.199 68.653"><defs><style>.a{fill:url(#a);}.b{fill:url(#g);}</style><linearGradient id="a" x1="0.5" y1="-1.876" x2="0.5" y2="1" gradientUnits="objectBoundingBox"><stop offset="0" stop-color="#95f5ff"/><stop offset="1" stop-color="#044d82"/></linearGradient><linearGradient id="g" x1="0.5" y1="0" y2="1.221" xlink:href="#a"/></defs><g transform="translate(-1613.901 -767.673)"><path class="a" d="M923.587,174.6q-1.148,3.734-1.792,6.394c-.429,1.783-.635,2.726-.635,2.8l-1.2-4.107-3.893-13.274H909l-1.951,6.637q-2.567,8.98-3.136,10.745c0-.121-.215-1.064-.644-2.8s-1.027-3.921-1.792-6.394l-2.7-8.887H891.83l9.027,28.35h6.283l1.718-5.6c.653-2.035,1.363-4.453,2.147-7.253s1.288-4.667,1.531-5.536q.354,1.372,1.568,5.6c.812,2.8,1.521,5.2,2.147,7.235l1.68,5.6h6.282l9.018-28.35h-6.9Z" transform="translate(801.184 625.846)"/><path class="a" d="M953.052,176.6a8.131,8.131,0,0,0-6.535-2.651,10.036,10.036,0,0,0-5.2,1.344,9.335,9.335,0,0,0-3.538,3.809,12.267,12.267,0,0,0-1.26,5.685,12.007,12.007,0,0,0,1.177,5.442,8.7,8.7,0,0,0,3.314,3.641,9.335,9.335,0,0,0,4.929,1.307,9.987,9.987,0,0,0,3.939-.775,6.8,6.8,0,0,0,2.8-2.1v2.306h5.928V174.658h-5.171Zm-1.97,11.613a4.667,4.667,0,0,1-3.51,1.391,4.518,4.518,0,0,1-3.435-1.391,5.815,5.815,0,0,1,0-7.3,4.49,4.49,0,0,1,3.454-1.391,4.667,4.667,0,0,1,3.51,1.372,4.919,4.919,0,0,1,1.354,3.622A5.068,5.068,0,0,1,951.082,188.213Z" transform="translate(798.216 625.3)"/><path class="a" d="M973.074,175.248a3.846,3.846,0,0,0-1.746,2.147l-.4-2.7H965.27v19.949h6.189v-9.335A5.209,5.209,0,0,1,972.9,181.4a5.6,5.6,0,0,1,4.089-1.4,7.318,7.318,0,0,1,.934.047V174.7a9.224,9.224,0,0,0-1.867-.177,5.882,5.882,0,0,0-2.978.728Z" transform="translate(796.303 625.26)"/><path class="a" d="M994.066,189.635a5.453,5.453,0,0,1-2.52.551,4.667,4.667,0,0,1-3.165-1.064,3.828,3.828,0,0,1-1.307-2.8h14.152a12.085,12.085,0,0,0,.271-2.7,9.783,9.783,0,0,0-1.26-4.976,8.877,8.877,0,0,0-3.566-3.426,10.857,10.857,0,0,0-5.265-1.242,11.119,11.119,0,0,0-5.4,1.307,9.242,9.242,0,0,0-3.734,3.734,12.378,12.378,0,0,0,0,11.146,9.41,9.41,0,0,0,3.734,3.734,11.2,11.2,0,0,0,5.536,1.326,11.324,11.324,0,0,0,6.609-1.923,7.833,7.833,0,0,0,3.379-5.06h-6.012a3.11,3.11,0,0,1-1.456,1.391Zm-5.713-9.755a4.966,4.966,0,0,1,5.666,0,3.006,3.006,0,0,1,1.149,2.39h-8a3.156,3.156,0,0,1,1.167-2.39Z" transform="translate(795.258 625.296)"/><rect class="a" width="6.46" height="28.35" transform="translate(1803.053 791.556)"/><path class="a" d="M1049.536,172.115a13.687,13.687,0,0,0-5.442-5.218,16.439,16.439,0,0,0-7.851-1.867,16.206,16.206,0,0,0-7.888,1.867,13.621,13.621,0,0,0-5.423,5.237,15.075,15.075,0,0,0-1.942,7.692,15.233,15.233,0,0,0,1.522,6.88,13.482,13.482,0,0,0,4.266,5.041,14.628,14.628,0,0,0,6.329,2.549v2.446q0,7.2,7.561,7.207a14.261,14.261,0,0,0,3.362-.4l0-5.087a8.708,8.708,0,0,1-1.68.14c-1.3,0-2.138-.261-2.52-.775a3.648,3.648,0,0,1-.579-2.194v-1.279a14.713,14.713,0,0,0,6.394-2.567,13.834,13.834,0,0,0,4.313-5.069,16.028,16.028,0,0,0-.42-14.572Zm-5.947,12.257a7.681,7.681,0,0,1-2.987,3.09,8.579,8.579,0,0,1-4.36,1.111,8.822,8.822,0,0,1-4.4-1.083,7.469,7.469,0,0,1-2.987-3.081,10.27,10.27,0,0,1,0-9.148,7.832,7.832,0,0,1,3.016-3.1,8.635,8.635,0,0,1,4.4-1.1,8.4,8.4,0,0,1,4.331,1.1,7.72,7.72,0,0,1,2.969,3.1,10.361,10.361,0,0,1,0,9.111Z" transform="translate(792.594 625.891)"/><path class="b" d="M867.627,189.549v-30.2a4.126,4.126,0,0,0-2.063-3.575l-26.138-15.1a4.191,4.191,0,0,0-4.135,0l-26.138,15.1a4.136,4.136,0,0,0-2.072,3.575v30.2a4.145,4.145,0,0,0,2.072,3.575l26.138,15.095a4.1,4.1,0,0,0,4.136,0l12.789-7.375a.383.383,0,0,1,.429,0l8.308,6a.383.383,0,0,0,.439,0l4.555-2.8a.4.4,0,0,0,0-.663l-7.608-5.508a.4.4,0,0,1,0-.672l7.179-4.145A4.136,4.136,0,0,0,867.627,189.549Zm-54.647-29.4,24.168-14a.392.392,0,0,1,.4,0l21.47,12.378a.4.4,0,0,1,0,.7l-24.271,13.358a.4.4,0,0,0-.215.336l-.513,27.2a.4.4,0,0,1-.6.345l-7.748-4.4a.411.411,0,0,1-.2-.345V169a.392.392,0,0,0-.261-.364l-4.91-1.942a.4.4,0,0,0-.541.373v24.9a.4.4,0,0,1-.607.345l-6.171-3.566a.392.392,0,0,1-.2-.345V160.545A.383.383,0,0,1,812.98,160.153ZM854.9,191.995v-9.69a.4.4,0,0,0-.56-.364l-4.91,2.119a.382.382,0,0,0-.243.364v11.323a.4.4,0,0,1-.205.355l-8.719,5.032a.4.4,0,0,1-.607-.355l.467-24.392a.392.392,0,0,1,.205-.345L861.326,164.5a.4.4,0,0,1,.588.355V188.4a.392.392,0,0,1-.2.345l-6.17,3.594a.4.4,0,0,1-.644-.345Z" transform="translate(806.821 627.548)"/></g></svg>