<svg width="384" height="779" viewBox="0 0 384 779" fill="none" xmlns="http://www.w3.org/2000/svg">
<g opacity="0.5" clip-path="url(#clip0_1915_3394)" filter="url(#filter0_f_1915_3394)">
<path d="M96.5822 599.451C97.1551 598.878 98.301 598.304 98.8739 597.731C97.1551 592.571 94.2906 588.557 90.2803 585.117C86.8429 581.677 82.2597 579.384 77.1035 578.237C66.7913 575.371 56.479 578.237 48.4584 584.544C51.8958 594.291 59.9164 601.744 70.2287 604.611C75.9577 606.331 82.2597 605.758 87.4158 604.038C90.8532 602.891 93.7177 601.744 96.5822 599.451Z" fill="#E08433"/>
<path d="M79.3951 239.391H85.1242C86.8429 227.35 89.1345 215.884 93.1448 204.99C90.8532 206.71 87.9887 208.43 85.6971 209.577C82.2597 219.324 80.5409 229.07 79.3951 239.391Z" fill="#006A4E"/>
<path d="M113.196 640.158C114.342 636.145 114.342 631.558 113.769 627.545C113.196 621.811 110.332 616.078 106.894 611.491C105.748 612.065 105.175 612.065 104.03 612.638C101.165 614.358 98.3005 616.078 95.436 618.371C91.4257 622.385 88.5612 627.545 86.8425 633.278C83.978 643.599 86.8425 653.919 93.1444 661.946C102.311 658.505 109.186 651.052 112.623 641.878C112.623 641.305 113.196 640.732 113.196 640.158Z" fill="#006A4E"/>
<path d="M85.6969 543.836L81.6865 539.823L78.822 536.956C79.9678 548.423 82.2594 559.317 85.124 569.637C87.9885 570.784 90.2801 572.504 92.5717 574.224C89.7072 564.477 86.8427 554.157 85.6969 543.836Z" fill="#006A4E"/>
<path d="M77.1035 201.55C82.2597 200.403 86.8429 197.537 90.2803 194.097C94.2906 190.657 97.1551 186.07 98.8739 181.483C98.301 180.91 97.1551 180.336 96.5822 179.763C93.7177 178.043 90.8532 176.323 87.4158 175.176C81.6868 173.456 75.9577 173.456 69.6558 174.603C59.9164 178.043 51.8958 185.496 48.4584 195.243C56.479 201.55 67.3642 204.417 77.1035 201.55Z" fill="#006A4E"/>
<path d="M217.464 84.5879C212.881 85.7346 208.871 86.8813 204.288 88.028C203.142 90.8947 201.996 93.7614 200.277 96.6281C208.298 93.7614 216.319 91.468 224.912 89.748C222.621 88.6013 219.756 86.8813 217.464 84.5879Z" fill="#006A4E"/>
<path d="M95.4364 161.416C97.728 163.709 100.593 166.002 104.03 167.149C105.176 167.723 105.749 168.296 106.894 168.296C110.905 163.709 113.196 157.976 113.769 152.242C114.342 148.229 114.342 143.642 113.196 139.629C113.196 139.055 112.623 138.482 112.623 137.909C109.759 128.735 102.311 121.282 93.1448 117.842C86.2699 125.868 83.9783 136.762 86.8428 146.509C88.5615 152.242 91.4261 157.402 95.4364 161.416Z" fill="#E08433"/>
<path d="M130.956 118.415C131.529 118.415 132.675 118.988 133.248 118.988C137.258 120.135 140.695 120.135 144.706 120.135C151.008 119.562 157.31 116.695 162.466 112.681C161.893 111.535 161.32 109.815 160.747 108.668C159.028 105.801 157.31 102.935 154.445 100.641C150.435 97.2011 145.852 94.3344 140.695 92.6143C130.383 89.7476 120.071 92.6143 112.05 98.9211C114.915 108.095 121.79 114.975 130.956 118.415Z" fill="#006A4E"/>
<path d="M172.778 101.214C173.351 102.361 174.497 103.508 175.643 104.655C181.945 102.361 187.674 97.7744 191.111 92.6143C192.83 89.7475 194.549 86.3075 195.694 82.8674C195.694 81.7207 196.267 80.574 196.267 79.4273C197.413 70.8272 195.121 61.6537 189.392 54.2002C179.653 57.6403 172.205 65.6671 169.341 75.9873C168.195 81.1474 168.195 86.8808 169.341 91.4676C169.914 95.481 171.06 98.3477 172.778 101.214Z" fill="#E08433"/>
<path d="M422.564 540.397L421.991 539.823L402.513 520.329C400.794 522.05 398.502 523.196 396.211 524.343C396.784 526.063 397.929 528.356 398.502 530.076L400.794 536.956L403.085 543.263L398.502 547.85L392.773 553.01C391.627 553.583 391.055 554.73 389.909 555.303C382.461 622.385 326.316 672.266 258.714 672.266C191.111 672.266 134.967 621.811 127.519 555.303C126.373 554.73 125.8 553.583 124.654 553.01L118.925 547.85L114.342 543.263L116.634 536.956L118.925 530.076C119.498 528.356 120.071 526.063 121.217 524.343C118.925 523.196 117.207 521.476 114.915 520.329L95.4364 539.823L94.8635 540.397C106.322 621.811 175.643 682.013 258.714 682.013C341.785 682.586 411.106 621.811 422.564 540.397Z" fill="#E08433"/>
<path d="M231.214 697.493C228.35 699.213 225.485 700.933 222.621 703.226C222.048 703.8 220.902 704.946 220.329 705.52C214.6 712.973 212.309 722.147 213.454 731.32C223.767 733.04 234.079 729.6 241.527 722.72C245.537 718.707 247.829 714.12 249.547 709.533C250.693 706.093 251.266 702.653 250.693 699.213C250.693 697.493 250.693 695.773 250.12 694.626C244.391 693.479 237.516 694.626 231.214 697.493Z" fill="#E08433"/>
<path d="M225.485 689.466C216.892 687.746 208.871 685.453 200.85 682.586C202.569 685.453 203.715 688.319 204.861 691.186C208.871 692.333 213.454 693.479 218.037 694.626C219.756 692.906 222.621 691.186 225.485 689.466Z" fill="#006A4E"/>
<path d="M223.194 75.9875C225.485 78.2809 228.35 80.5742 231.787 81.7209C238.089 84.5876 244.964 85.7343 251.839 84.5876C251.839 82.8676 252.412 81.1476 252.412 80.0009C252.412 76.5608 251.839 73.1207 251.266 69.6807C249.547 64.5206 247.256 59.9338 243.245 56.4938C235.798 49.0403 225.485 45.6002 215.173 47.8936C213.454 57.0671 215.746 66.2406 222.048 73.6941C221.475 74.2674 222.048 74.8408 223.194 75.9875Z" fill="#006A4E"/>
<path d="M195.695 696.346C194.549 692.906 193.403 689.466 191.111 686.599C187.101 680.866 181.945 676.852 175.643 674.559C174.497 675.706 173.924 676.852 172.778 677.999C171.06 680.866 169.914 684.306 168.768 687.172C167.622 692.333 167.622 697.493 168.768 702.653C171.633 712.973 179.08 721 188.82 724.44C194.549 717.56 197.413 707.813 195.695 698.639C196.267 698.639 195.695 697.493 195.695 696.346Z" fill="#006A4E"/>
<path d="M133.248 660.225C132.675 660.225 131.529 660.799 130.956 660.799C121.79 664.239 114.915 671.119 111.477 680.292C119.498 687.173 130.383 689.466 140.122 686.599C145.279 685.453 149.862 682.586 153.872 678.572C156.164 676.279 158.455 673.412 160.174 670.546C160.747 669.399 161.32 667.679 161.893 666.532C156.737 662.519 151.008 659.652 144.133 659.079C140.695 659.079 137.258 659.652 133.248 660.225Z" fill="#E08433"/>
<path d="M95.4365 239.391H116.634L114.915 233.657L119.498 229.07L125.227 223.91C126.373 222.764 127.519 222.19 128.092 221.617C136.686 155.682 191.684 106.375 258.714 106.375C325.744 106.375 381.315 155.682 389.336 221.617C390.482 222.19 391.628 223.337 392.2 223.91L397.929 229.07L402.513 233.657L400.794 239.391H421.991C410.533 157.976 341.212 97.2012 258.141 97.2012C175.643 97.2012 106.322 157.976 95.4365 239.391Z" fill="#E08433"/>
<path d="M286.213 81.721C289.077 80.0009 291.942 78.2809 294.806 75.9875C295.379 75.4142 296.525 74.2675 297.098 73.6941C302.827 66.2407 305.119 57.0672 303.973 47.8936C293.66 46.1736 283.348 49.6137 275.9 56.4938C271.89 60.5072 269.599 65.094 267.88 69.6807C266.734 73.1208 266.161 76.5609 266.161 80.0009C266.161 81.721 266.161 83.441 266.734 84.5877C273.609 85.7344 280.484 84.5877 286.213 81.721Z" fill="#E08433"/>
<path d="M170.486 180.91L156.164 172.883C150.435 181.483 146.424 190.656 142.987 200.977L161.32 204.417C163.611 195.817 166.476 187.79 170.486 180.91Z" fill="#E08433"/>
<path d="M139.55 215.31C142.414 214.164 145.851 213.017 148.716 212.444L140.122 210.724C140.122 211.87 140.122 213.59 139.55 215.31Z" fill="#006A4E"/>
<path d="M292.515 90.3212C301.109 92.0413 309.129 94.3346 317.15 97.2014C315.431 94.3346 314.285 91.4679 313.14 88.6012C309.129 87.4545 304.546 86.3078 299.963 85.1611C298.244 86.8812 295.38 88.6012 292.515 90.3212Z" fill="#006A4E"/>
<path d="M192.257 153.963L183.09 143.069C175.642 149.376 168.195 156.256 162.466 164.283L176.215 172.31C180.798 165.43 185.955 159.696 192.257 153.963Z" fill="#006A4E"/>
<path d="M322.306 83.4408C323.452 86.8808 324.597 90.3209 326.889 93.1876C330.899 98.9211 336.055 102.934 342.357 105.228C343.503 104.081 344.076 102.934 345.222 101.788C346.941 98.9211 348.086 95.481 349.232 92.6143C350.378 87.4542 350.378 82.2941 349.232 77.134C346.368 66.2404 338.347 57.6403 328.608 54.2002C322.879 61.0803 320.014 70.8272 321.733 80.0007C321.733 81.1474 322.306 82.2941 322.306 83.4408Z" fill="#006A4E"/>
<path d="M384.753 118.988C385.325 118.988 386.471 118.415 387.044 118.415C396.211 114.975 403.085 108.095 406.523 98.9213C398.502 92.0412 387.617 89.7478 377.878 92.6145C372.722 93.7612 368.138 96.6279 364.128 100.641C361.836 102.935 359.545 105.801 357.826 108.668C357.253 109.815 356.68 111.535 356.107 112.682C361.264 116.695 366.993 119.562 373.867 120.135C377.305 120.708 380.742 120.135 384.753 118.988Z" fill="#E08433"/>
<path d="M142.987 130.455C142.415 130.455 141.842 130.455 141.269 130.455C138.977 130.455 136.113 129.882 133.821 129.882C130.384 133.322 126.946 136.762 123.509 140.776C124.082 143.642 124.082 147.082 124.082 149.949C129.811 142.496 136.113 136.189 142.987 130.455Z" fill="#006A4E"/>
<path d="M376.159 130.455C375.586 130.455 375.013 130.455 374.44 130.455C381.315 136.189 387.617 143.069 393.346 149.949C393.346 147.082 393.346 143.642 393.919 140.775C390.481 137.335 387.044 133.322 383.606 130.455C381.315 129.882 379.023 130.455 376.159 130.455Z" fill="#006A4E"/>
<path d="M374.44 200.403C371.003 190.657 366.992 180.91 361.263 172.31L346.941 180.336C350.951 187.217 353.816 195.243 356.107 203.27L374.44 200.403Z" fill="#006A4E"/>
<path d="M301.682 124.148L297.098 136.189C304.546 139.055 311.421 143.069 318.296 147.656L326.889 137.335C318.869 132.175 310.275 127.589 301.682 124.148Z" fill="#006A4E"/>
<path d="M334.909 143.642L325.743 154.536C332.045 159.696 337.201 166.003 341.784 172.883L355.534 164.856C349.805 156.829 342.93 149.376 334.909 143.642Z" fill="#E08433"/>
<path d="M377.305 210.15L369.284 211.87C372.721 212.443 375.586 213.59 378.45 214.737C377.877 213.59 377.877 211.87 377.305 210.15Z" fill="#E08433"/>
<path d="M254.13 116.695C244.391 117.268 235.224 118.415 226.631 121.282L230.641 132.748C238.089 130.455 246.109 129.308 254.13 128.735V116.695Z" fill="#006A4E"/>
<path d="M220.902 136.189L216.319 124.148C207.152 127.589 198.559 131.602 191.111 137.335L199.704 147.656C206.579 143.069 213.454 139.055 220.902 136.189Z" fill="#E08433"/>
<path d="M263.87 116.695V128.735C271.891 129.308 279.911 130.455 287.359 132.748L291.369 121.282C282.776 118.988 273.609 117.268 263.87 116.695Z" fill="#E08433"/>
<path d="M142.987 649.332C136.113 643.599 129.811 636.718 124.082 629.838C124.082 632.705 124.082 636.145 123.509 639.012C126.946 642.452 130.384 646.465 133.821 649.905C137.258 649.332 140.123 649.332 142.987 649.332Z" fill="#006A4E"/>
<path d="M354.961 256.591C362.982 254.298 369.284 249.137 372.148 241.684C365.847 237.097 357.253 235.377 349.805 237.671C341.785 239.964 335.483 245.124 332.618 252.578C338.92 257.164 346.941 258.884 354.961 256.591Z" fill="#E08433"/>
<path d="M326.889 389.034C326.889 411.394 316.004 430.888 299.389 443.501C328.607 434.328 354.961 415.407 372.721 389.034C354.961 362.66 329.18 343.739 299.389 334.566C316.004 347.179 326.889 366.673 326.889 389.034Z" fill="#E08433"/>
<path d="M145.279 389.034C163.039 415.407 188.819 434.328 218.61 443.501C201.996 430.888 191.111 411.394 191.111 389.034C191.111 366.673 201.996 347.179 218.61 334.566C188.819 343.739 163.039 362.66 145.279 389.034Z" fill="#E08433"/>
<path d="M201.424 389.034C201.424 421.141 227.204 446.941 259.287 446.941C291.369 446.941 317.15 421.141 317.15 389.034C317.15 356.926 291.369 331.126 259.287 331.126C227.204 331.126 201.424 356.926 201.424 389.034ZM258.714 351.193C279.338 351.193 296.526 367.82 296.526 389.034C296.526 409.674 279.911 426.874 258.714 426.874C238.089 426.874 220.902 410.247 220.902 389.034C221.475 367.82 238.089 351.193 258.714 351.193Z" fill="#F9F9F4"/>
<path d="M211.163 228.497C213.454 220.471 211.735 212.444 207.152 206.137C199.704 209.577 194.548 215.884 192.257 223.337C189.965 231.364 191.684 239.391 196.267 245.698C203.715 242.831 209.444 236.524 211.163 228.497Z" fill="#E08433"/>
<path d="M321.16 246.271C325.743 239.964 327.462 231.364 325.17 223.91C322.879 215.883 317.723 209.577 310.275 206.71C305.692 213.017 303.973 221.617 306.265 229.07C308.556 236.524 314.285 242.831 321.16 246.271Z" fill="#E08433"/>
<path d="M155.591 417.128C148.143 409.674 140.696 401.074 134.967 391.327L133.248 388.46L134.967 385.594C141.269 376.42 148.143 367.82 156.164 359.793C139.55 359.793 125.227 351.766 116.061 339.726V437.195C124.654 425.154 138.977 417.128 155.591 417.128Z" fill="#006A4E"/>
<path d="M396.21 264.618C392.2 261.178 387.044 258.884 382.461 257.164C385.325 253.151 387.617 248.564 389.335 243.977L391.627 237.097L385.898 231.937C377.877 224.484 367.565 220.47 356.68 220.47C352.67 220.47 349.232 221.044 345.222 222.19C344.076 222.764 342.93 222.764 341.784 223.337C341.784 222.19 341.212 221.044 341.212 219.897C337.201 205.563 326.889 194.096 312.566 189.51L305.692 187.216L300.535 192.95C293.088 201.55 289.077 211.87 289.077 222.764C279.338 219.324 269.026 217.604 258.714 217.604C248.401 217.604 238.089 219.324 228.35 222.764C228.35 211.87 224.339 200.977 216.892 192.95L211.735 187.216L204.861 189.51C190.538 194.096 180.226 205.563 176.215 219.897C175.643 221.044 175.643 222.19 175.643 223.337C174.497 222.764 173.351 222.764 172.205 222.19C168.195 221.044 164.757 220.47 160.747 220.47C149.862 220.47 139.55 224.484 131.529 231.937L125.8 237.097L128.092 243.977C129.81 248.564 132.102 253.151 134.966 257.164C129.81 258.884 125.227 261.751 121.217 264.618V249.711H55.9058V499.689L88.5612 532.943L114.342 507.143C120.071 513.449 127.519 518.036 135.539 520.903C132.675 524.916 130.383 529.503 128.664 534.09L126.373 540.97L132.102 546.13C140.123 553.583 151.008 557.597 161.32 557.597C164.757 557.597 168.768 557.023 172.205 555.877C173.351 555.303 174.497 555.303 175.643 554.73C175.643 555.877 176.215 557.023 176.215 558.17C180.226 572.504 190.538 583.971 204.861 588.557L211.735 590.851L216.892 585.117C224.339 576.517 228.35 566.197 228.35 555.303C238.089 558.743 248.401 560.464 258.714 560.464C269.026 560.464 279.338 558.743 289.077 555.303C289.077 566.197 293.088 577.091 300.535 585.117L305.692 590.851L312.566 588.557C326.889 583.971 337.201 572.504 341.212 558.17C341.784 557.023 341.784 555.877 341.784 554.73C342.93 555.303 344.076 555.303 345.222 555.877C348.659 557.023 352.67 557.597 356.107 557.597C366.992 557.597 377.304 553.583 385.325 546.13L391.054 540.97L388.763 534.09C387.044 529.503 384.752 524.916 381.888 520.903C389.908 518.036 396.783 513.449 403.085 507.143L428.866 532.943L462.094 499.689V249.711H396.21V264.618ZM402.512 280.098V256.018H455.792V497.396L428.866 524.343L402.512 497.969C395.064 508.289 383.034 515.743 369.857 518.036C376.159 522.623 380.742 528.93 383.034 536.383L384.179 539.25L381.888 541.543C375.013 547.85 365.846 551.29 357.253 551.29C353.815 551.29 350.951 550.717 347.514 550.143C343.503 548.997 340.066 547.277 336.628 544.983C336.628 548.997 336.628 553.01 335.483 557.023C332.045 569.064 322.879 578.811 310.848 582.824L307.983 583.971L305.692 581.677C297.098 572.504 294.234 559.317 297.098 547.277C297.098 546.703 297.671 546.13 297.671 545.557C286.213 551.29 273.036 554.73 259.286 554.73C245.537 554.73 232.36 551.29 220.902 545.557C220.902 546.13 221.475 546.703 221.475 547.277C224.912 559.317 221.475 572.504 212.881 581.677L210.59 583.971L207.725 582.824C195.694 578.811 186.528 569.064 183.09 557.023C181.944 553.01 181.944 548.997 181.944 544.983C178.507 547.277 175.07 548.997 171.059 550.143C167.622 550.717 164.757 551.29 161.32 551.29C152.154 551.29 143.56 547.85 136.685 541.543L134.394 539.25L135.539 536.383C137.831 528.93 142.414 522.623 148.716 518.036C135.539 515.743 123.508 508.863 116.061 497.969L88.5612 523.77L61.6348 496.822V494.529V256.018H114.915V280.098C122.363 269.778 134.394 262.898 147.57 260.604C141.268 256.018 136.685 249.711 134.394 242.257L133.248 239.391L135.539 237.097C144.706 228.497 157.883 225.63 169.914 228.497C173.924 229.644 177.361 231.364 180.799 233.657C180.799 229.644 180.799 225.63 181.944 221.617C185.382 209.577 194.548 199.83 206.579 195.816L209.444 194.67L211.735 196.963C220.329 206.137 223.194 219.324 220.329 231.364C220.329 231.937 219.756 232.511 219.756 233.084C231.214 227.35 244.391 223.91 258.141 223.91C271.89 223.91 285.067 227.35 296.525 233.084C296.525 232.511 295.952 231.937 295.952 231.364C292.515 219.324 295.952 206.137 304.546 196.963L306.837 194.67L309.702 195.816C321.733 199.83 330.899 209.577 334.337 221.617C335.483 225.63 335.483 229.644 335.483 233.657C338.92 231.364 342.357 229.644 346.368 228.497C358.399 225.057 371.575 228.497 380.742 237.097L383.034 239.391L381.888 242.257C379.596 249.711 375.013 256.018 368.711 260.604C383.034 262.324 395.064 269.778 402.512 280.098Z" fill="#006A4E"/>
<path d="M336.056 279.525L330.9 284.112L328.035 277.805C315.431 250.858 288.505 233.657 259.287 233.657C230.069 233.657 202.569 250.858 190.538 277.805L187.674 284.112L182.518 279.525C175.07 273.218 165.903 269.778 156.164 269.778C133.821 269.778 116.061 287.552 116.061 309.912C116.061 332.273 133.821 350.046 156.164 350.046C159.029 350.046 161.32 350.046 164.185 349.473C167.049 348.9 169.914 347.753 172.205 346.606C176.789 343.166 181.372 340.3 185.955 337.433C169.341 335.713 154.445 324.819 146.998 309.912L156.164 305.899C162.466 319.659 176.216 328.259 191.111 328.259C204.288 328.259 216.319 321.379 223.767 310.486C219.183 305.899 215.173 300.739 212.309 295.005L221.475 290.992C228.35 305.899 243.245 315.072 259.287 315.072C275.328 315.072 290.223 305.326 297.098 290.992L306.265 295.005C303.4 300.739 299.963 305.899 295.38 310.486C302.254 321.379 314.858 328.833 328.035 328.833C342.93 328.833 356.68 320.232 362.982 306.472L372.149 310.486C364.701 325.966 349.805 336.286 333.191 338.579C337.774 341.446 342.358 344.313 346.941 347.753C349.805 348.9 352.097 350.046 354.961 350.62C357.253 351.193 360.118 351.193 362.982 351.193C385.325 351.193 403.085 333.419 403.085 311.059C403.085 288.699 385.325 270.925 362.982 270.925C352.67 269.778 343.503 273.218 336.056 279.525Z" fill="#F9F9F4"/>
<path d="M163.039 520.903C155.018 523.196 148.716 528.356 145.852 535.81C152.154 540.397 160.747 542.117 168.195 539.823C176.216 537.53 182.518 532.37 185.382 524.916C179.08 520.33 171.06 519.183 163.039 520.903Z" fill="#E08433"/>
<path d="M306.838 548.997C304.546 557.024 306.265 565.05 310.848 571.357C318.296 567.917 323.452 561.61 325.744 554.157C328.035 546.13 326.316 538.103 321.733 531.796C314.286 534.663 308.556 540.97 306.838 548.997Z" fill="#E08433"/>
<path d="M196.84 531.223C192.257 537.53 190.538 546.13 192.829 553.583C195.121 561.61 200.277 567.917 207.725 570.784C212.308 564.477 214.027 555.877 211.735 548.423C209.444 540.97 203.715 534.663 196.84 531.223Z" fill="#E08433"/>
<path d="M354.961 520.903C346.941 518.609 338.92 520.329 332.618 524.916C336.056 532.37 342.358 537.53 349.805 539.823C357.826 542.116 365.847 540.396 372.148 535.81C368.711 528.356 362.409 523.196 354.961 520.903Z" fill="#E08433"/>
<path d="M362.409 427.448C359.545 427.448 357.253 427.448 354.388 428.021C351.524 428.594 348.659 429.741 345.795 430.888C341.212 434.328 336.628 437.194 332.045 439.488C348.659 441.208 363.555 451.528 371.003 467.582L361.836 471.595C355.534 457.835 341.785 449.235 326.889 449.235C313.712 449.235 301.681 456.115 294.234 467.008C298.817 471.595 302.827 476.755 305.692 482.489L296.525 486.502C289.65 471.595 274.755 462.422 258.714 462.422C242.672 462.422 227.777 472.168 220.902 486.502L211.736 482.489C214.6 476.755 218.038 471.595 222.621 467.008C215.746 456.115 203.142 448.661 189.965 448.661C175.07 448.661 161.32 457.262 155.018 471.022L145.852 467.008C153.299 451.528 168.195 441.208 184.809 438.914C180.226 436.048 175.643 433.181 171.059 430.314C168.195 429.168 165.33 428.021 162.466 427.448C160.174 426.874 157.31 426.874 154.445 426.874C132.102 426.874 114.342 444.648 114.342 467.008C114.342 489.369 132.102 507.142 154.445 507.142C164.185 507.142 173.351 503.702 180.799 497.396L185.955 492.809L188.819 499.116C201.423 526.063 228.35 543.263 257.568 543.263C286.786 543.263 314.285 526.063 326.316 499.116L329.181 492.809L334.337 497.396C341.785 503.702 350.951 507.142 360.69 507.142C383.034 507.142 400.794 489.369 400.794 467.008C402.512 445.221 384.752 427.448 362.409 427.448Z" fill="#F9F9F4"/>
<path d="M362.409 360.366C369.857 367.82 377.305 376.42 383.034 386.167L384.753 389.034L383.034 391.9C376.732 401.647 369.857 409.674 361.836 417.701C378.451 417.701 392.773 425.728 401.94 437.768V340.299C393.346 352.34 379.024 360.366 362.409 360.366Z" fill="#006A4E"/>
<path d="M163.039 256.591C171.06 258.884 179.08 257.164 185.382 252.578C181.945 245.124 175.643 239.964 168.195 237.671C160.174 235.377 152.154 237.097 145.852 241.684C149.289 249.137 155.591 254.298 163.039 256.591Z" fill="#E08433"/>
<path d="M294.807 703.8C292.515 701.506 289.651 699.213 286.213 698.066C279.911 695.199 273.036 694.053 266.162 695.199C266.162 696.919 265.589 698.639 265.589 699.786C265.589 703.226 266.162 706.666 266.734 710.106C268.453 715.266 270.745 719.853 274.755 723.293C282.203 730.747 292.515 734.187 302.827 731.893C304.546 722.72 301.682 713.546 295.952 706.093C296.525 705.52 295.952 704.373 294.807 703.8Z" fill="#006A4E"/>
<path d="M387.044 661.372C386.471 661.372 385.325 660.799 384.753 660.799C380.742 659.652 377.305 659.652 373.294 659.652C366.993 660.226 360.691 663.092 355.534 667.106C356.107 668.253 356.68 669.973 357.253 671.119C358.972 673.986 360.691 676.853 363.555 679.146C367.565 682.586 372.149 685.453 377.305 687.173C387.617 690.04 397.929 687.173 405.95 680.866C403.085 671.119 396.211 664.239 387.044 661.372Z" fill="#006A4E"/>
<path d="M345.222 677.999C344.649 676.852 343.503 675.706 342.357 674.559C336.055 676.852 330.326 681.439 326.889 686.599C325.17 689.466 323.452 692.906 322.306 696.346C322.306 697.493 321.733 698.639 321.733 699.786C320.014 708.96 322.879 718.133 328.608 725.586C338.347 722.146 345.795 714.12 348.659 703.799C349.805 698.639 349.805 692.906 348.659 688.319C348.086 684.306 346.941 680.866 345.222 677.999Z" fill="#E08433"/>
<path d="M300.536 695.199C305.119 694.053 309.129 692.906 313.712 691.759C314.858 688.893 316.004 686.026 317.723 683.159C309.702 686.026 301.681 688.319 293.088 690.039C295.38 691.186 298.244 692.906 300.536 695.199Z" fill="#006A4E"/>
<path d="M375.013 649.332C377.878 649.332 381.315 649.332 384.18 649.905C387.617 646.465 391.054 643.025 394.492 639.012C393.919 636.145 393.919 632.705 393.919 629.838C388.19 636.718 381.888 643.599 375.013 649.332Z" fill="#006A4E"/>
<path d="M355.534 614.931L341.784 606.905C337.201 613.785 331.472 619.518 325.743 625.252L334.909 636.145C342.93 629.838 349.805 622.958 355.534 614.931Z" fill="#E08433"/>
<path d="M378.451 562.184C373.867 564.477 368.711 565.624 363.555 566.197L377.305 568.49C377.878 566.77 378.451 564.477 378.451 562.184Z" fill="#E08433"/>
<path d="M347.514 598.878L361.836 606.904C367.565 598.304 371.576 589.131 375.013 578.811L356.68 575.944C354.389 583.971 351.524 591.424 347.514 598.878Z" fill="#006A4E"/>
<path d="M297.098 643.025L301.682 655.065C310.848 651.625 319.442 647.612 326.889 641.878L318.296 631.558C311.421 636.145 304.546 640.158 297.098 643.025Z" fill="#006A4E"/>
<path d="M263.87 662.519C273.609 661.945 282.776 660.799 291.369 657.932L287.359 646.465C279.911 648.759 271.891 649.905 263.87 650.479V662.519Z" fill="#E08433"/>
<path d="M254.13 662.519V650.479C246.109 649.905 238.089 648.759 230.641 646.465L226.631 657.932C235.224 660.799 244.391 661.945 254.13 662.519Z" fill="#006A4E"/>
<path d="M175.642 607.478L161.893 615.505C167.622 623.532 175.069 630.412 182.517 636.718L191.684 625.825C185.955 620.091 180.798 613.785 175.642 607.478Z" fill="#006A4E"/>
<path d="M140.695 569.064L154.445 566.77C149.289 566.197 144.133 564.477 139.55 562.757C139.55 564.477 140.122 566.77 140.695 569.064Z" fill="#006A4E"/>
<path d="M143.56 578.811C146.997 588.557 151.008 598.304 156.737 606.904L171.059 598.878C167.049 591.997 164.185 583.971 161.893 575.944L143.56 578.811Z" fill="#E08433"/>
<path d="M220.902 643.025C213.454 640.158 206.579 636.145 199.704 631.558L191.111 641.878C199.131 647.039 207.725 651.625 216.319 655.065L220.902 643.025Z" fill="#E08433"/>
<path d="M105.176 265.765H71.9471V284.112H105.176V265.765Z" fill="#F9F9F4"/>
<path d="M93.717 469.302C97.7274 470.449 101.738 472.169 105.175 475.035V468.155V309.912V294.432H93.717V469.302Z" fill="#E08433"/>
<path d="M83.4052 294.432H71.9471V473.889C75.3846 471.022 79.3949 469.302 83.4052 468.729V294.432Z" fill="#E08433"/>
<path d="M88.5616 478.475C79.968 478.475 73.6661 484.782 72.5203 492.809L88.5616 509.436L104.603 493.382C104.03 485.355 97.1551 478.475 88.5616 478.475Z" fill="#F9F9F4"/>
<path d="M258.713 426.301C279.338 426.301 296.525 409.674 296.525 388.46C296.525 367.82 279.911 350.619 258.713 350.619C238.089 350.619 220.902 367.246 220.902 388.46C221.475 409.674 238.089 426.301 258.713 426.301Z" fill="#072119"/>
<path d="M402.512 256.017V280.098C395.065 269.778 383.034 262.897 369.857 260.604C376.159 256.017 380.742 249.711 383.034 242.257L384.18 239.39L381.888 237.097C372.721 228.497 359.545 225.63 347.514 228.497C343.503 229.643 340.066 231.363 336.629 233.657C336.629 229.643 336.629 225.63 335.483 221.617C332.045 209.576 322.879 199.83 310.848 195.816L307.983 194.669L305.692 196.963C297.098 206.136 294.234 219.323 297.098 231.363C297.098 231.937 297.671 232.51 297.671 233.084C286.213 227.35 273.036 223.91 259.287 223.91C245.537 223.91 232.36 227.35 220.902 233.084C220.902 232.51 221.475 231.937 221.475 231.363C224.912 219.323 221.475 206.136 212.881 196.963L210.59 194.669L207.725 195.816C195.694 199.83 186.528 209.576 183.09 221.617C181.945 225.63 181.945 229.643 181.945 233.657C178.507 231.363 175.07 229.643 171.06 228.497C159.029 225.057 145.852 228.497 136.685 237.097L134.394 239.39L135.54 242.257C137.831 249.711 142.414 256.017 148.716 260.604C135.54 262.897 124.081 269.778 116.061 280.098V256.017H62.2079V495.102V497.395L88.5614 523.769L114.915 497.395C122.363 507.716 134.394 515.169 147.57 517.462C141.269 522.049 136.685 528.356 134.394 535.809L133.248 538.676L135.54 540.97C142.414 547.276 151.581 550.716 160.174 550.716C163.612 550.716 166.476 550.143 169.914 549.57C173.924 548.423 177.361 546.703 180.799 544.41C180.799 548.423 180.799 552.436 181.945 556.45C185.382 568.49 194.549 578.237 206.58 582.25L209.444 583.397L211.736 581.104C220.329 571.93 223.194 558.743 220.329 546.703C220.329 546.13 219.756 545.556 219.756 544.983C231.214 550.716 244.391 554.156 258.141 554.156C271.89 554.156 285.067 550.716 296.525 544.983C296.525 545.556 295.952 546.13 295.952 546.703C292.515 558.743 295.952 571.93 304.546 581.104L306.838 583.397L309.702 582.25C321.733 578.237 330.9 568.49 334.337 556.45C335.483 552.436 335.483 548.423 335.483 544.41C338.92 546.703 342.358 548.423 346.368 549.57C349.805 550.143 352.67 550.716 356.107 550.716C365.274 550.716 373.867 547.276 380.742 540.97L383.034 538.676V535.809C380.742 528.356 376.159 522.049 369.857 517.462C383.034 515.169 395.065 508.289 402.512 497.395L428.866 523.769L455.792 496.822V256.017H402.512ZM71.9472 294.431H83.4053V468.728C79.395 469.301 75.3847 471.595 71.9472 473.888V294.431ZM88.5614 509.436L71.9472 492.809C73.093 484.782 79.9679 478.475 88.5614 478.475C97.155 478.475 104.03 484.782 104.603 493.382L88.5614 509.436ZM105.176 309.912V467.581V474.462C101.738 471.595 97.7279 469.875 93.7176 468.728V294.431H105.176V309.912ZM105.176 284.685H71.9472V266.338H105.176V284.685ZM349.805 238.244C357.826 235.95 365.847 237.67 372.149 242.257C368.711 249.711 362.409 254.871 354.961 257.164C346.941 259.457 338.92 257.737 332.618 253.151C336.056 245.697 342.358 239.964 349.805 238.244ZM310.848 206.136C318.296 209.576 323.452 215.883 325.743 223.337C328.035 231.363 326.316 239.39 321.733 245.697C314.285 242.257 309.129 235.95 306.838 228.497C304.546 221.043 306.265 213.016 310.848 206.136ZM192.83 223.91C195.121 215.883 200.278 209.576 207.725 206.71C212.309 213.016 214.027 221.617 211.736 229.07C209.444 237.097 204.288 243.404 196.84 246.27C192.257 239.964 190.538 231.363 192.83 223.91ZM145.852 242.257C152.154 237.67 160.747 235.95 168.195 238.244C176.216 240.537 182.518 245.697 185.382 253.151C179.08 257.737 170.487 259.457 163.039 257.164C155.591 254.297 149.289 249.137 145.852 242.257ZM115.488 340.299C124.654 352.339 138.977 360.366 155.591 360.366C147.57 367.82 140.696 376.42 134.394 386.167L132.675 389.033L134.394 391.9C140.696 401.647 147.57 409.674 155.591 417.7C138.977 417.7 124.654 425.727 115.488 437.768V340.299ZM316.577 389.033C316.577 421.141 290.796 446.941 258.714 446.941C226.631 446.941 200.85 421.141 200.85 389.033C200.85 356.926 226.631 331.125 258.714 331.125C290.796 331.125 316.577 356.926 316.577 389.033ZM299.39 334.566C328.608 343.739 354.961 362.659 372.721 389.033C354.961 415.407 329.181 434.327 299.39 443.501C316.004 430.887 326.889 411.394 326.889 389.033C326.889 366.673 316.004 347.179 299.39 334.566ZM285.64 457.835C285.64 457.835 286.213 457.835 285.64 457.835C286.213 457.835 285.64 457.835 285.64 457.835ZM231.787 457.261C231.787 457.261 231.214 457.261 231.787 457.261C231.214 457.261 231.787 457.261 231.787 457.261ZM191.111 389.033C191.111 411.394 201.996 430.887 218.61 443.501C189.392 434.327 163.039 415.407 145.279 389.033C163.039 362.659 188.82 343.739 218.61 334.566C201.996 347.179 191.111 366.673 191.111 389.033ZM168.195 539.823C160.174 541.543 152.154 540.396 145.852 535.809C149.289 528.356 155.591 523.196 163.039 520.902C171.06 518.609 179.08 520.329 185.382 524.916C181.945 532.369 175.643 537.529 168.195 539.823ZM207.152 571.357C199.705 567.917 194.549 561.61 192.257 554.156C189.965 546.13 191.684 538.103 196.267 531.796C203.715 535.236 208.871 541.543 211.163 548.996C213.454 556.45 211.736 565.05 207.152 571.357ZM325.17 554.156C322.879 562.183 317.723 568.49 310.275 571.357C305.692 565.05 303.973 556.45 306.265 548.996C308.556 540.97 313.712 534.663 321.16 531.796C325.743 538.103 327.462 546.13 325.17 554.156ZM372.149 535.809C365.847 540.396 357.253 542.116 349.805 539.823C341.785 537.529 335.483 532.369 332.618 524.916C338.92 520.329 347.514 518.609 354.961 520.902C362.409 523.196 368.711 528.356 372.149 535.809ZM362.409 507.716C352.67 507.716 343.503 504.276 336.056 497.969L330.9 493.382L328.035 499.689C315.431 526.636 288.505 543.836 259.287 543.836C230.069 543.836 202.569 526.636 190.538 499.689L187.674 493.382L182.518 497.969C175.07 504.276 165.903 507.716 156.164 507.716C133.821 507.716 116.061 489.942 116.061 467.581C116.061 445.221 133.821 427.447 156.164 427.447C159.029 427.447 161.32 427.447 164.185 428.021C167.049 428.594 169.914 429.741 172.778 430.887C177.361 434.327 181.945 437.194 186.528 439.488C169.914 441.208 155.018 451.528 147.57 467.581L156.737 471.595C163.039 457.835 176.789 449.234 191.684 449.234C204.861 449.234 217.465 456.115 224.34 467.581C219.756 472.168 215.746 477.328 213.454 483.062L222.621 487.075C229.496 472.168 244.391 462.995 260.432 462.995C276.474 462.995 291.369 472.742 298.244 487.075L307.41 483.062C304.546 477.328 300.536 471.595 295.952 467.581C302.827 456.688 315.431 449.808 328.608 449.808C343.503 449.808 357.253 458.408 363.555 472.168L372.721 468.155C365.274 452.674 350.378 442.354 333.764 440.061C338.347 437.194 342.93 434.327 347.514 431.461C350.378 430.314 353.243 429.167 356.107 428.594C358.399 428.021 361.263 428.021 364.128 428.021C386.471 428.021 404.231 445.794 404.231 468.155C402.512 489.942 384.752 507.716 362.409 507.716ZM402.512 437.194C393.346 425.154 379.023 417.127 362.409 417.127C370.43 409.674 377.305 401.073 383.607 391.327L385.325 388.46L383.607 385.593C377.305 376.42 370.43 367.819 362.409 359.793C379.023 359.793 393.346 351.766 402.512 339.726V437.194ZM362.409 350.046C359.545 350.046 357.253 350.046 354.389 349.472C351.524 348.899 348.66 347.752 346.368 346.606C341.785 343.166 337.201 340.299 332.618 337.432C349.232 335.712 364.128 325.392 371.576 309.338L362.409 305.325C356.107 319.085 342.358 327.685 327.462 327.685C314.285 327.685 301.681 320.805 294.807 309.338C299.39 304.752 303.4 299.591 305.692 293.858L296.525 289.845C289.65 304.752 274.755 313.925 258.714 313.925C242.672 313.925 227.777 304.178 220.902 289.845L211.736 293.858C214.6 299.591 218.61 305.325 223.194 309.338C216.319 320.232 203.715 327.112 190.538 327.112C175.643 327.112 161.893 318.512 155.591 304.752L146.425 308.765C153.872 324.245 168.195 334.566 185.382 336.286C180.799 339.152 176.216 342.019 171.632 345.459C168.768 346.606 166.476 347.752 163.612 348.326C161.32 348.899 158.456 348.899 155.591 348.899C133.248 348.899 115.488 331.125 115.488 308.765C115.488 286.405 133.248 268.631 155.591 268.631C165.33 268.631 174.497 272.071 181.945 278.378L187.101 282.965L189.965 276.658C202.569 249.711 229.496 232.51 258.714 232.51C287.932 232.51 315.431 249.711 327.462 276.658L330.327 282.965L335.483 278.378C342.93 272.071 352.097 268.631 361.836 268.631C384.18 268.631 401.94 286.405 401.94 308.765C402.512 332.272 384.752 350.046 362.409 350.046ZM412.825 467.581V309.912V294.431H424.283V468.728C420.272 469.301 416.262 471.595 412.825 473.888V467.581ZM429.439 509.436L412.825 492.809C413.97 484.782 420.845 478.475 428.866 478.475C437.46 478.475 444.334 484.782 444.907 493.382L429.439 509.436ZM446.053 474.462C442.616 471.595 438.605 469.875 434.595 468.728V294.431H446.053V474.462ZM446.053 284.685H412.825V266.338H446.053V284.685Z" fill="#072119"/>
<path d="M315.431 597.731L308.556 600.024L302.254 602.318L297.671 597.158L292.515 591.424C286.213 584.544 282.203 576.517 279.911 567.344C273.609 569.637 266.161 570.21 258.714 570.21C251.266 570.21 244.391 569.637 236.943 567.917C234.652 576.517 230.641 585.117 224.34 591.997L219.183 597.731L214.6 602.318L208.298 600.024L201.423 597.731C187.101 593.144 175.643 582.824 169.341 569.637C178.507 610.918 214.6 640.158 258.141 640.158C301.109 640.158 337.201 610.344 346.941 569.637C341.212 583.397 329.754 593.144 315.431 597.731Z" fill="#F9F9F4"/>
<path d="M259.287 139.055C217.465 139.055 182.517 166.576 171.632 205.563C177.934 193.523 188.819 184.35 202.569 179.763L209.444 177.47L215.746 175.176L220.329 180.336L225.485 186.07C231.787 192.95 235.797 200.977 238.089 210.15C244.964 208.43 252.412 207.857 259.859 207.857C267.307 207.857 274.182 208.43 281.63 210.15C283.921 201.55 287.932 192.95 294.234 186.07L299.39 180.336L303.973 175.749L310.275 178.043L317.15 180.336C330.899 184.923 341.785 194.096 348.087 206.137C336.056 167.149 300.536 139.055 259.287 139.055Z" fill="#F9F9F4"/>
<path d="M478.708 200.207L481 197.913L480.427 195.046C476.417 180.14 464.959 168.673 450.636 165.233C444.907 163.513 439.178 163.513 433.449 164.086C436.886 159.499 439.751 154.339 441.47 148.606C445.48 134.272 440.897 118.218 430.584 107.898L428.293 105.605L425.428 106.178C418.554 107.898 412.824 111.338 407.668 115.925C412.252 110.765 415.689 105.031 417.408 98.1513L417.981 95.2845L415.689 92.9912C405.377 83.2443 389.335 78.6576 375.013 82.671C369.284 84.391 364.128 86.6844 359.544 90.6978C360.69 84.9643 360.117 79.2309 358.399 73.4975C354.388 59.1638 342.93 47.697 328.608 43.6835L325.743 42.5369L323.452 44.8302C318.295 49.417 314.858 55.7238 313.139 62.0306C314.285 55.7238 314.285 48.8436 312.566 41.9635L311.994 39.0968L309.129 38.5234C294.806 34.51 278.765 38.5234 268.453 49.417C264.443 53.4304 261.005 58.5905 259.286 63.7506C256.995 58.5905 254.13 53.4304 250.12 49.417C239.235 38.5234 223.766 34.51 209.444 38.5234L206.579 39.0968L206.006 41.9635C203.142 48.2703 203.142 55.1504 204.861 62.0306C202.569 55.7238 199.132 49.9903 194.548 44.8302L192.257 42.5369L189.392 43.1102C174.497 47.1236 163.039 58.5905 159.601 73.4975C157.883 79.2309 157.883 84.9643 158.455 90.6978C153.872 87.2577 148.716 84.391 142.987 82.671C128.665 78.6576 112.623 83.2443 102.311 93.5645L100.019 95.8579L100.592 98.7246C102.311 105.605 105.748 111.338 110.332 116.498C105.175 111.912 99.4464 108.471 92.5716 106.751L89.7071 106.178L87.4155 108.471C77.1032 118.792 73.0929 134.272 77.1032 148.606C78.8219 154.339 81.1135 159.499 85.1239 164.086C79.3948 162.939 73.6658 163.513 67.9368 165.233C53.6142 169.246 42.1561 180.713 38.1458 195.046L37 197.913L39.2916 200.207C47.3123 208.233 58.1974 212.82 69.0826 212.82C70.8013 212.82 72.52 212.82 74.2387 212.247C71.9471 220.847 70.2284 230.021 69.0826 239.194H55.9058H45.5935V249.514V499.492V503.506L48.4581 506.946L68.5097 527.013V537.333V537.907C69.6555 547.653 71.3742 557.4 73.6658 566.574C61.0619 565.427 48.4581 570.014 39.2916 579.187L37 580.907L37.5729 583.774C41.5832 598.681 53.0413 610.148 67.3639 613.588C70.8013 614.735 74.8116 614.735 78.249 614.735C80.5406 614.735 82.2594 614.735 84.551 614.161C81.1135 618.748 78.249 623.908 76.5303 629.642C72.52 643.975 77.1032 660.029 87.4155 670.349L89.7071 672.643L92.5716 672.069C99.4464 670.349 105.175 666.909 110.332 662.322C105.748 667.482 102.311 673.216 100.592 680.096L100.019 682.963L102.311 685.256C110.332 693.283 121.217 697.87 132.102 697.87C135.539 697.87 139.55 697.296 142.987 696.723C148.716 695.003 153.872 692.71 158.455 688.696C157.31 694.43 157.883 700.163 159.601 705.896C163.612 720.23 175.07 731.697 189.392 735.71L192.257 736.284L194.548 733.99C199.705 729.404 203.142 723.097 204.861 716.79C203.715 723.097 203.715 729.977 205.434 736.857L206.006 739.724L208.871 740.297C212.308 741.444 216.319 742.017 219.756 742.017C230.641 742.017 241.526 737.43 249.547 729.977C253.557 725.964 256.995 720.803 258.714 715.643C261.005 720.803 263.87 725.964 267.88 729.977C275.901 738.004 286.786 742.017 297.671 742.017C301.108 742.017 305.119 741.444 308.556 740.297L311.421 739.724L311.994 736.857C313.712 729.977 313.712 723.097 312.566 716.79C314.858 723.097 318.295 728.83 322.879 733.99L325.17 736.284L328.035 735.71C342.93 731.697 354.388 720.23 357.826 705.896C359.544 700.163 359.544 694.43 358.972 688.696C363.555 692.136 368.711 695.003 374.44 696.723C377.877 697.87 381.888 697.87 385.325 697.87C396.21 697.87 407.095 693.283 415.116 685.256L417.408 682.963L416.835 680.096C415.116 673.216 411.679 667.482 407.095 662.322C412.252 666.909 417.981 670.349 424.855 672.069L427.72 672.643L430.012 670.349C440.897 659.456 444.907 643.975 440.897 629.642C439.178 623.908 436.886 618.748 432.876 614.161C435.168 614.735 436.886 614.735 439.178 614.735C442.615 614.735 446.626 614.161 450.063 613.588C464.386 609.575 475.844 598.108 479.854 583.774L480.427 580.907L478.135 578.614C468.969 569.44 455.792 564.854 443.188 566.574C445.48 556.827 447.199 547.08 448.345 536.76V526.44L468.396 506.373L471.261 503.506V499.492V249.514V239.194H460.948H447.772C446.626 230.021 444.907 220.847 442.615 212.247C444.334 212.247 446.053 212.82 447.199 212.82C459.803 212.82 470.688 208.233 478.708 200.207ZM424.855 117.645C431.73 125.672 434.022 136.565 431.157 146.312C429.439 152.046 426.574 157.206 422.564 161.219C420.272 163.513 417.408 165.806 413.97 166.953C412.825 167.526 412.252 168.099 411.106 168.099C407.095 163.513 404.804 157.779 404.231 152.046C403.658 148.032 403.658 143.445 404.804 139.432C404.804 138.859 405.377 138.285 405.377 137.712C408.814 127.965 415.689 120.512 424.855 117.645ZM397.929 129.112C396.783 127.965 395.637 126.818 395.065 125.672C398.502 123.952 401.939 121.658 404.804 118.792C401.939 122.232 399.648 125.098 397.929 129.112ZM357.826 108.471C359.544 105.605 361.263 102.738 364.128 100.445C368.138 97.0046 372.721 94.1379 377.877 92.4178C388.19 89.5511 398.502 92.4178 406.523 98.7246C403.085 107.898 396.21 114.778 387.044 118.218C386.471 118.218 385.325 118.792 384.752 118.792C380.742 119.938 377.305 119.938 373.294 119.938C366.992 119.365 360.69 116.498 355.534 112.485C356.107 111.338 356.68 109.618 357.826 108.471ZM394.492 140.005C393.919 142.872 393.919 146.312 393.919 149.179C388.19 142.299 381.888 135.992 375.013 129.685C375.586 129.685 376.159 129.685 376.732 129.685C379.023 129.685 381.888 129.112 384.179 129.112C387.617 132.552 391.054 136.565 394.492 140.005ZM328.608 54.0037C338.347 57.4438 345.795 65.4706 348.659 75.7908C349.805 80.9509 349.805 86.6844 348.659 91.2711C348.086 94.7112 346.368 97.5779 344.649 100.445C344.076 101.591 342.93 102.738 341.785 103.885C335.483 101.591 329.754 97.0046 326.316 91.8445C324.597 88.9778 322.879 85.5377 321.733 82.0976C321.733 80.9509 321.16 79.8042 321.16 78.6576C320.587 70.6307 322.879 61.4572 328.608 54.0037ZM313.139 87.8311C314.285 90.6978 315.431 93.5645 317.15 96.4312C309.129 93.5645 301.108 91.2711 292.515 89.5511C295.379 87.8311 297.671 86.111 300.535 83.8177C305.119 85.5377 309.129 86.6844 313.139 87.8311ZM312.566 66.044C311.994 69.484 311.421 72.9241 311.421 76.9375C310.275 76.3642 309.129 76.3642 307.983 75.7908C309.702 72.3508 311.421 69.484 312.566 66.044ZM267.88 69.484C269.599 64.3239 271.89 59.7372 275.901 56.2971C283.348 48.8436 293.661 45.4036 303.973 47.697C305.692 56.8705 302.827 66.044 297.098 73.4975C296.525 74.0708 295.952 75.2175 294.806 75.7908C292.515 78.0842 289.65 80.3776 286.213 81.5243C279.911 84.391 273.036 85.5377 266.161 84.391C266.161 82.671 266.161 81.5243 266.161 79.8042C266.161 76.3642 266.734 72.9241 267.88 69.484ZM259.286 97.0046C342.357 97.0046 411.679 157.779 423.137 239.194H401.939L403.658 233.461L399.075 228.874L393.346 223.714C392.2 222.567 391.054 221.994 390.481 221.42C381.888 155.486 326.316 106.178 259.859 106.178C192.83 106.178 137.258 155.486 129.237 221.42C128.092 221.994 126.946 223.14 126.373 223.714L120.644 228.874L116.061 233.461L117.779 239.194H96.5819C106.321 157.779 175.643 97.0046 259.286 97.0046ZM143.56 200.207C146.997 190.46 151.008 180.713 156.737 172.113L171.059 180.14C167.049 187.02 164.185 195.046 161.893 203.073L143.56 200.207ZM148.716 211.673C145.279 212.247 142.414 213.394 139.55 214.54C140.123 212.82 140.123 211.673 140.695 209.953L148.716 211.673ZM162.466 164.086C168.195 156.059 175.643 149.179 183.09 142.872L192.257 153.766C185.955 158.926 180.799 165.233 176.215 172.113L162.466 164.086ZM191.111 137.139C199.132 131.979 207.725 127.392 216.319 123.952L220.902 135.992C213.454 138.859 206.579 142.872 199.705 147.459L191.111 137.139ZM259.286 138.859C301.108 138.859 336.055 166.379 346.941 205.367C340.639 193.326 329.754 183.58 316.004 179.566L309.129 177.273L302.827 174.979L298.244 180.14L293.088 185.873C286.786 192.753 282.775 200.78 280.484 209.953C273.609 208.233 266.161 207.66 258.714 207.66C251.266 207.66 244.391 208.233 236.943 209.953C234.652 201.353 230.641 192.753 224.339 185.873L219.183 180.14L214.6 174.979L208.298 177.273L201.423 179.566C187.674 184.153 176.788 193.326 170.486 205.367C181.945 166.379 217.465 138.859 259.286 138.859ZM226.058 121.085C234.652 118.792 244.391 117.072 253.557 116.498V128.539C245.537 129.112 237.516 130.259 230.068 132.552L226.058 121.085ZM263.87 129.112V117.072C273.609 117.645 282.775 118.792 291.369 121.658L287.359 133.125C279.911 130.832 271.89 129.112 263.87 129.112ZM297.098 135.992L301.681 123.952C310.848 127.392 319.441 131.405 326.889 137.139L318.295 147.459C311.421 142.872 304.546 139.432 297.098 135.992ZM342.357 172.113C337.774 165.233 332.045 159.499 326.316 153.766L335.483 142.872C342.93 149.179 350.378 156.059 356.107 164.086L342.357 172.113ZM361.836 172.686C367.565 181.286 371.575 190.46 375.013 200.78L356.68 204.22C354.388 196.193 351.524 188.74 347.514 181.286L361.836 172.686ZM377.305 209.953C377.877 211.673 377.877 212.82 378.45 214.54C375.586 213.394 372.148 212.247 369.284 211.673L377.305 209.953ZM120.071 129.112C118.352 125.672 116.061 122.232 113.196 119.365C116.061 122.232 119.498 123.952 122.935 126.245C121.79 126.819 121.217 127.965 120.071 129.112ZM123.508 140.005C126.946 136.565 130.383 132.552 133.821 129.112C136.112 129.685 138.977 129.685 141.268 129.685C141.841 129.685 142.414 129.685 142.987 129.685C136.112 135.419 129.81 142.299 124.081 149.179C124.654 146.312 124.081 142.872 123.508 140.005ZM214.027 47.697C224.339 45.9769 234.652 49.417 242.099 56.2971C246.11 60.3105 248.401 64.8973 250.12 69.484C251.266 72.9241 251.839 76.3642 251.266 79.8042C251.266 81.5243 251.266 83.2443 250.693 84.391C243.818 85.5377 236.943 84.391 230.641 81.5243C227.777 79.8042 224.912 78.0842 222.048 75.7908C221.475 75.2175 220.329 74.0708 219.756 73.4975C215.173 66.044 212.881 56.2971 214.027 47.697ZM210.017 75.7908C208.871 76.3642 207.725 76.3642 206.579 76.9375C206.579 73.4975 206.579 69.484 205.434 66.044C206.579 69.484 208.298 72.3508 210.017 75.7908ZM204.861 87.8311C208.871 86.6844 213.454 85.5377 218.037 84.391C220.329 86.6844 223.194 88.4044 226.058 90.1245C217.465 91.8445 209.444 94.1379 201.423 97.0046C202.569 93.5645 203.715 90.6978 204.861 87.8311ZM169.341 75.7908C172.205 65.4706 179.653 57.4438 189.392 54.0037C195.121 60.8839 197.986 70.6307 196.267 79.8042C196.267 80.9509 195.694 82.0976 195.694 83.2443C194.548 86.6844 193.403 90.1245 191.111 92.9912C187.101 98.7246 181.945 102.738 175.643 105.031C174.497 103.885 173.924 102.738 172.778 101.591C171.059 98.7246 169.914 95.2845 168.768 92.4178C167.622 86.6844 167.622 80.9509 169.341 75.7908ZM140.695 92.4178C145.852 93.5645 150.435 96.4312 154.445 100.445C156.737 102.738 159.028 105.605 160.747 108.471C161.32 109.618 161.893 111.338 162.466 112.485C157.31 116.498 151.581 119.365 144.706 119.938C140.695 120.512 137.258 119.938 133.248 118.792C132.675 118.792 131.529 118.218 130.956 118.218C121.79 114.778 114.915 107.898 111.477 98.7246C119.498 92.4178 130.383 89.5511 140.695 92.4178ZM93.1445 117.645C102.311 121.085 109.186 128.539 112.623 137.712C112.623 138.285 113.196 138.859 113.196 139.432C114.342 143.445 114.342 148.032 113.769 152.046C113.196 157.779 110.332 163.513 106.894 168.099C105.748 167.526 105.175 167.526 104.03 166.953C101.165 165.233 98.3006 163.513 95.4361 161.219C91.4258 157.206 88.5613 152.046 86.8426 146.312C83.9781 135.992 86.2697 125.098 93.1445 117.645ZM48.4581 195.046C51.8955 185.3 59.9161 177.846 70.2284 174.979C75.9574 173.259 82.2593 173.833 87.9884 175.553C91.4258 176.699 94.2903 177.846 97.1548 180.14C97.7277 180.713 98.8735 181.286 99.4464 181.86C97.7277 187.02 94.8632 191.033 90.8529 194.473C87.4155 197.913 82.8323 200.207 77.6761 201.927C67.3639 204.22 56.4787 201.353 48.4581 195.046ZM93.1445 204.793C89.7071 215.687 86.8426 227.154 85.1239 239.194H79.3948C80.5406 228.874 82.8323 219.127 85.1239 209.38C87.9884 208.233 90.28 206.513 93.1445 204.793ZM70.2284 604.414C59.9161 601.548 51.8955 594.094 48.4581 584.347C56.4787 577.467 66.791 575.174 77.1032 578.041C82.2594 579.187 86.2697 582.054 90.28 584.921C94.2903 588.361 97.1548 592.948 98.8735 597.534C98.3006 598.108 97.1548 598.681 96.5819 599.254C93.7174 600.974 90.8529 602.694 87.4155 603.841C82.2594 605.561 75.9574 605.561 70.2284 604.414ZM78.8219 537.333L81.6865 540.2L85.6968 544.213C87.4155 554.534 89.7071 564.854 93.1445 574.601C90.8529 572.881 87.9884 571.161 85.6968 570.014C82.2594 559.12 79.9677 548.227 78.8219 537.333ZM93.1445 661.749C86.2697 653.722 83.9781 642.829 86.8426 633.082C88.5613 627.348 91.4258 622.188 95.4361 618.175C97.7277 615.881 100.592 613.588 104.03 612.441C105.175 611.868 105.748 611.295 106.894 611.295C110.905 615.881 113.196 621.615 113.769 627.348C114.342 631.362 114.342 635.948 113.196 639.962C113.196 640.535 112.623 641.109 112.623 641.682C109.186 650.855 102.311 658.309 93.1445 661.749ZM120.071 650.282C121.217 651.429 122.363 652.575 122.935 653.722C119.498 655.442 116.061 657.736 113.196 660.602C116.061 657.162 118.352 653.722 120.071 650.282ZM160.174 670.349C158.455 673.216 156.737 676.083 153.872 678.376C149.862 681.816 145.279 684.683 140.123 686.403C129.81 689.269 119.498 686.403 111.477 680.096C114.915 670.922 121.79 664.042 130.956 660.602C131.529 660.602 132.675 660.029 133.248 660.029C137.258 658.882 140.695 658.882 144.706 658.882C151.008 659.456 157.31 662.322 162.466 666.336C161.893 668.056 161.32 669.202 160.174 670.349ZM123.508 639.388C124.081 636.522 124.081 633.082 124.081 630.215C129.81 637.095 136.112 643.402 142.987 649.709C140.123 649.709 136.685 649.709 133.821 650.282C130.383 646.269 126.946 642.829 123.508 639.388ZM189.392 724.817C179.653 721.377 172.205 713.35 169.341 703.03C168.195 697.87 168.195 692.136 169.341 687.549C169.914 684.109 171.632 681.243 173.351 678.376C173.924 677.229 175.07 676.083 176.215 674.936C182.517 677.229 188.246 681.816 191.684 686.976C193.403 689.843 195.121 693.283 196.267 696.723C196.267 697.87 196.84 699.016 196.84 700.163C197.413 708.19 195.121 717.937 189.392 724.817ZM204.861 691.563C203.715 688.696 202.569 685.829 200.85 682.963C208.871 685.829 216.892 688.123 225.485 689.843C222.621 691.563 220.329 693.283 217.465 695.576C213.454 693.856 208.871 692.71 204.861 691.563ZM205.434 713.35C206.006 709.91 206.579 706.47 206.579 702.456C207.725 703.03 208.871 703.03 210.017 703.603C208.298 706.47 206.579 709.91 205.434 713.35ZM250.12 709.337C248.401 714.497 246.11 719.083 242.099 722.523C234.652 729.977 224.339 733.417 214.027 731.124C212.308 721.95 214.6 712.777 220.902 705.323C221.475 704.75 222.048 703.603 223.194 703.03C225.485 700.736 228.35 698.443 231.787 697.296C238.089 694.43 244.964 693.283 251.839 694.43C251.839 696.15 252.412 697.87 252.412 699.016C251.839 703.03 251.266 706.47 250.12 709.337ZM258.714 682.389C175.643 682.389 106.321 621.615 94.8632 540.773L95.4361 540.2L114.915 520.706C116.634 522.426 118.925 523.573 121.217 524.72C120.644 526.44 119.498 528.733 118.925 530.453L116.634 537.333L114.342 543.64L118.925 548.227L124.654 553.387C125.8 553.96 126.373 555.107 127.519 555.68C134.966 622.762 191.111 672.643 258.714 672.643C326.316 672.643 382.461 622.188 389.908 555.68C391.054 555.107 391.627 553.96 392.773 553.387L398.502 548.227L403.085 543.64L400.794 537.333L398.502 530.453C397.929 528.733 397.356 526.44 396.21 524.72C398.502 523.573 400.221 521.853 402.512 520.706L421.991 540.2L422.564 540.773C411.106 621.615 341.785 682.389 258.714 682.389ZM374.44 578.614C371.003 588.361 366.992 598.108 361.263 606.708L347.514 598.681C351.524 591.801 354.388 583.774 356.68 575.747L374.44 578.614ZM363.555 566.574C368.711 566 373.867 564.28 378.45 562.56C377.877 564.854 377.877 567.147 377.305 569.44L363.555 566.574ZM325.743 625.055C332.045 619.895 337.201 613.588 341.785 606.708L355.534 614.735C349.805 622.762 342.357 629.642 334.91 635.948L325.743 625.055ZM326.889 642.255C318.868 647.415 310.275 652.002 301.681 655.442L297.098 643.402C304.546 640.535 311.421 636.522 318.295 631.935L326.889 642.255ZM258.714 640.535C215.746 640.535 179.08 610.721 169.914 570.014C176.215 583.201 187.674 593.521 201.996 598.108L208.871 600.401L215.173 602.694L219.756 598.108L224.912 592.374C231.214 585.494 235.225 577.467 237.516 568.294C244.391 570.014 251.839 570.587 259.286 570.587C266.734 570.587 273.609 570.014 281.057 568.294C283.348 576.894 287.359 585.494 293.661 592.374L298.817 598.108L303.4 603.268L309.702 600.974L316.577 598.681C330.899 594.094 342.357 583.774 348.659 570.587C338.347 610.721 302.254 640.535 258.714 640.535ZM291.942 658.309C283.348 660.602 273.609 662.322 264.443 662.896V650.282C272.463 649.709 280.484 648.562 287.932 646.269L291.942 658.309ZM254.13 650.282V662.322C244.391 661.749 235.225 660.602 226.631 657.736L230.641 646.269C238.089 648.562 245.537 649.709 254.13 650.282ZM199.705 631.362C206.006 635.948 213.454 639.962 220.902 642.829L216.319 654.869C207.152 651.429 198.559 647.415 191.111 641.682L199.705 631.362ZM183.09 635.948C175.643 629.642 168.195 622.762 162.466 614.735L176.215 606.708C180.799 613.588 186.528 619.321 192.257 625.055L183.09 635.948ZM170.486 598.681L156.164 606.708C150.435 598.108 146.425 588.934 142.987 578.614L161.32 575.174C163.612 583.774 166.476 591.228 170.486 598.681ZM140.695 568.867C140.123 566.574 139.55 564.28 139.55 561.987C144.133 564.28 149.289 565.427 154.445 566L140.695 568.867ZM397.929 650.282C399.648 653.722 401.939 657.162 404.804 660.029C401.939 657.162 398.502 655.442 395.065 653.149C396.21 652.575 396.783 651.429 397.929 650.282ZM394.492 639.388C391.054 642.829 387.617 646.842 384.179 650.282C381.315 649.709 377.877 649.709 375.013 649.709C381.888 643.975 388.19 637.095 393.919 630.215C393.346 633.082 393.919 635.948 394.492 639.388ZM303.973 731.697C293.661 733.417 283.348 729.977 275.901 723.097C271.89 719.083 269.599 714.497 267.88 709.91C266.734 706.47 266.161 703.03 266.734 699.59C266.734 697.87 266.734 696.15 267.307 695.003C274.182 693.856 281.057 695.003 287.359 697.87C290.223 699.59 293.088 701.31 295.952 703.603C296.525 704.176 297.671 705.323 298.244 705.896C302.827 713.35 305.119 722.523 303.973 731.697ZM307.983 703.603C309.129 703.03 310.275 703.03 311.421 702.456C311.421 705.896 311.421 709.91 312.566 713.35C311.421 709.91 309.702 706.47 307.983 703.603ZM313.139 691.563C309.129 692.71 304.546 693.856 299.963 695.003C297.671 692.71 294.806 690.99 291.942 689.269C300.535 687.549 308.556 685.256 316.577 682.389C315.431 685.256 314.285 688.123 313.139 691.563ZM348.659 703.03C345.795 713.35 338.347 721.377 328.608 724.817C322.879 717.937 320.014 708.19 321.733 699.016C321.733 697.87 322.306 696.723 322.306 695.576C323.452 692.136 324.597 688.696 326.889 685.829C330.899 680.096 336.055 676.083 342.357 673.789C343.503 674.936 344.076 676.083 345.222 677.229C346.941 680.096 348.086 683.536 349.232 686.403C350.378 692.71 350.378 697.87 348.659 703.03ZM377.305 686.403C372.148 685.256 367.565 682.389 363.555 678.376C361.263 676.083 358.972 673.216 357.253 670.349C356.68 669.202 356.107 667.482 355.534 666.336C360.69 662.322 366.419 659.456 373.294 658.882C377.305 658.309 380.742 658.882 384.752 660.029C385.325 660.029 386.471 660.602 387.044 660.602C396.21 664.042 403.085 670.922 406.523 680.096C398.502 686.976 387.617 689.269 377.305 686.403ZM424.855 661.749C415.689 658.309 408.814 650.855 405.377 641.682C405.377 641.109 404.804 640.535 404.804 639.962C403.658 635.948 403.658 631.362 404.231 627.348C404.804 621.615 407.668 615.881 411.106 611.295C412.252 611.868 412.825 611.868 413.97 612.441C416.835 614.161 419.699 615.881 422.564 618.175C426.574 622.188 430.012 627.348 431.157 633.082C434.022 642.829 431.73 653.722 424.855 661.749ZM469.542 584.347C466.104 594.094 458.084 601.548 447.772 604.414C442.043 606.135 435.741 605.561 430.012 603.841C426.574 602.694 423.71 601.548 420.845 599.254C420.272 598.681 419.126 598.108 418.554 597.534C420.272 592.374 423.137 588.361 427.147 584.921C430.585 581.481 435.168 579.187 440.324 577.467C450.636 575.174 461.521 577.467 469.542 584.347ZM424.855 574.027C428.293 564.28 430.585 553.96 432.303 543.64L436.314 539.627L439.178 536.76C438.032 548.227 435.741 559.12 432.876 569.44C430.012 571.161 427.147 572.307 424.855 574.027ZM462.094 249.514V499.492L428.866 532.746L403.085 506.946C397.356 513.253 389.908 517.839 381.888 520.706C384.752 524.72 387.044 529.306 388.763 533.893L391.054 540.773L385.325 545.933C377.305 553.387 366.419 557.4 356.107 557.4C352.67 557.4 348.659 556.827 345.222 555.68C344.076 555.107 342.93 555.107 341.785 554.534C341.785 555.68 341.212 556.827 341.212 557.974C337.201 572.307 326.889 583.774 312.566 588.361L305.692 590.654L300.535 584.921C293.088 576.321 289.077 566 289.077 555.107C279.338 558.547 269.026 560.267 258.714 560.267C248.401 560.267 238.089 558.547 228.35 555.107C228.35 566 224.339 576.894 216.892 584.921L211.735 590.654L204.861 588.361C190.538 583.774 180.226 572.307 176.215 557.974C175.643 556.827 175.643 555.68 175.643 554.534C174.497 555.107 173.351 555.107 172.205 555.68C168.768 556.827 164.757 557.4 161.32 557.4C150.435 557.4 140.123 553.387 132.102 545.933L126.373 540.773L128.665 533.893C130.383 529.306 132.675 524.72 135.539 520.706C127.519 517.839 120.644 513.253 114.342 506.946L88.5613 532.746L55.3329 499.492V249.514H121.217V264.421C125.227 260.981 130.383 258.688 134.966 256.968C132.102 252.954 129.81 248.368 128.092 243.781L125.8 236.901L131.529 231.741C139.55 224.287 149.862 220.274 160.747 220.274C164.757 220.274 168.195 220.847 172.205 221.994C173.351 222.567 174.497 222.567 175.643 223.14C175.643 221.994 176.215 220.847 176.215 219.7C180.226 205.367 190.538 193.9 204.861 189.313L211.735 187.02L216.892 192.753C224.339 201.353 228.35 211.674 228.35 222.567C238.089 219.127 248.401 217.407 258.714 217.407C269.026 217.407 279.338 219.127 289.077 222.567C289.077 211.674 293.088 200.78 300.535 192.753L305.692 187.02L312.566 189.313C326.889 193.9 337.201 205.367 341.212 219.7C341.784 220.847 341.785 221.994 341.785 223.14C342.93 222.567 344.076 222.567 345.222 221.994C349.232 220.847 352.67 220.274 356.68 220.274C367.565 220.274 377.877 224.287 385.898 231.741L391.627 236.901L389.335 243.781C387.617 248.368 385.325 252.954 382.461 256.968C387.617 258.688 392.2 261.554 396.21 264.421V249.514H462.094ZM424.855 204.793C427.147 206.513 430.012 208.233 432.303 209.38C435.168 219.127 436.886 228.874 438.605 239.194H432.876C431.73 227.154 428.866 215.687 424.855 204.793ZM440.897 201.353C435.741 200.207 431.157 197.34 427.72 193.9C423.71 190.46 420.845 185.873 419.126 181.286C419.699 180.713 420.845 180.14 421.418 179.566C424.283 177.846 427.147 176.126 430.584 174.979C436.314 173.259 442.043 173.259 447.772 174.406C458.084 177.273 466.104 184.726 469.542 194.473C461.521 201.353 451.209 204.22 440.897 201.353Z" fill="black"/>
</g>
<defs>
<filter id="filter0_f_1915_3394" x="0.0961037" y="0.0961037" width="517.808" height="779.595" filterUnits="userSpaceOnUse" color-interpolation-filters="sRGB">
<feFlood flood-opacity="0" result="BackgroundImageFix"/>
<feBlend mode="normal" in="SourceGraphic" in2="BackgroundImageFix" result="shape"/>
<feGaussianBlur stdDeviation="18.4519" result="effect1_foregroundBlur_1915_3394"/>
</filter>
<clipPath id="clip0_1915_3394">
<rect width="444" height="705.787" fill="white" transform="translate(37 37)"/>
</clipPath>
</defs>
</svg>
