<svg width="147" height="170" viewBox="0 0 147 170" fill="none" xmlns="http://www.w3.org/2000/svg">
<circle cx="88.9684" cy="57.8619" r="57.8619" fill="#006A4E"/>
<path d="M138.395 22.054L138.141 18.8628L136.065 21.2987C129.833 28.6175 123.342 36.1351 116.77 43.6615L115.619 44.9778L114.789 45.9274C114.738 45.987 114.687 46.0466 114.634 46.1063C110.571 50.7462 106.355 55.5165 102.101 60.2978L101.688 60.7616C101.56 60.9051 101.434 61.0487 101.306 61.19L101.341 60.9162C103.369 58.6414 105.42 56.3292 107.477 54.0015L107.47 54.0192L109.089 52.1773L111.684 49.229C111.745 49.1606 111.805 49.0899 111.865 49.0214C112.748 48.0166 113.632 47.0117 114.515 46.0025C121.891 37.5816 129.252 29.0614 136.387 20.6759L137.565 19.2934L135.888 18.5956C134.877 18.1715 133.766 18.1649 132.766 18.5735C130.29 19.5761 126.71 21.0867 122.421 23.0633L122.472 22.9882L118.605 24.8587C118.411 24.9515 118.216 25.0443 118.022 25.1392L117.702 25.2938H117.699C112.58 27.7783 107.565 30.4152 102.788 33.136L102.214 33.4629L99.8397 51.8615L99.7889 51.7511V51.7621L94.6609 40.5012L94.6013 40.3687L94.5814 40.3245L94.524 40.2009L94.1375 39.3528L93.7819 38.571L92.7197 39.238L92.6998 39.249L92.6291 39.2954L92.6225 39.2998L92.4988 39.3771C92.4812 39.3904 92.4613 39.4036 92.4392 39.4169L92.3288 39.4897L92.3177 39.4964L91.8959 39.768V39.7724C91.8628 39.7945 91.8319 39.8144 91.801 39.8343L91.282 40.1744L91.2776 40.1788C90.7895 40.499 90.3014 40.8214 89.8134 41.1505C89.7537 41.188 89.6963 41.2278 89.6367 41.2676L82.7088 45.9009L83.2189 45.7573C82.2627 46.4574 81.3241 47.1597 80.4076 47.8598C80.1977 48.0188 79.9857 48.1822 79.2327 49.8143C79.0781 49.7303 78.9102 49.6773 78.7402 49.6575L79.4579 48.3611L73.8882 53.1225L73.7071 53.2793C71.7791 54.9335 69.9064 56.6318 68.1396 58.3278C64.8225 61.5169 61.8013 64.7809 59.1622 68.0274L58.9259 68.3211L57.4154 80.0458L54.6548 73.999L53.3452 76.0595C47.093 85.9092 43.8047 96.1012 43.575 106.353C43.5661 106.737 43.8289 108.153 44.2088 109.628C43.9129 109.842 43.6258 110.244 43.6744 110.993C43.8488 113.645 44.2309 116.344 44.8073 119.012L45.3329 121.443L47.0577 119.652C50.2975 116.284 53.6433 112.784 57.0289 109.208V109.213L58.1287 108.047L59.2307 106.878C59.3566 106.746 59.4803 106.613 59.6061 106.481C59.8115 106.262 60.0169 106.046 60.2201 105.827V105.838L62.7929 103.095C62.8989 102.981 63.0072 102.868 63.1132 102.753C65.1957 100.534 67.2916 98.2898 69.3808 96.0416V96.0549L71.5252 93.7338L72.7663 92.3932C72.8458 92.3071 72.9253 92.221 73.0048 92.1348C78.0268 86.7087 83.1107 81.1566 88.1548 75.5913V75.598L90.5753 72.9191C90.6835 72.7998 90.7917 72.6784 90.8999 72.5591C93.3115 69.8847 95.7099 67.2169 98.0619 64.5888V64.5976L99.6719 62.7867L100.94 61.3667C101.006 61.2916 101.072 61.2187 101.138 61.1436L101.209 61.2982C100.741 61.826 100.273 62.3494 99.8066 62.8728C99.3384 63.394 98.8746 63.9152 98.4109 64.4342C98.1657 64.7059 97.925 64.9775 97.6821 65.2469L96.6088 66.4461C93.3138 70.121 89.8796 73.9239 86.3858 77.7711C86.1871 77.9897 85.9883 78.2083 85.7918 78.4248C82.934 81.5696 80.3236 84.4251 77.8391 87.1305C77.7574 87.2188 77.6757 87.305 77.5962 87.3933L75.8096 89.3345C71.8962 93.5814 67.9497 97.8282 64.0473 101.991C63.8486 102.201 63.6498 102.413 63.4533 102.623L62.0664 104.102C59.3676 106.973 56.7042 109.787 54.1292 112.495C54.0077 112.623 53.8862 112.749 53.7648 112.877L51.7617 114.977L51.468 115.286C49.6703 117.163 47.8373 119.074 45.9866 120.99L45.5758 121.415C44.4054 122.627 43.2393 123.831 42.0799 125.023L34.5159 118.424L29.4011 124.407L36.5764 130.659C31.0663 136.273 25.7042 141.651 20.5541 146.723L0 169.126L22.4644 159.462L43.2172 136.198L48.0449 140.306L53.1398 134.343L48.5484 130.414L50.578 127.996L52.4508 125.907L52.6385 125.918L56.4856 126.16L56.3266 126.019C62.8504 125.988 69.193 124.791 75.2243 122.448L77.8215 121.441L70.0344 117.004L86.7304 116.388L87.0462 116.174C93.9122 111.49 100.447 105.07 106.476 97.0906H106.478L106.606 96.9184C107.457 95.792 108.296 94.6326 109.106 93.4732L110.177 91.9361L109.511 91.7528L100.522 89.2639L114.444 85.176L114.709 84.7255C117.32 80.2953 119.859 75.4434 122.26 70.3021C122.286 70.2469 122.311 70.1917 122.337 70.1364L126.418 61.3755L125.946 61.9276C126.034 61.7134 126.123 61.4992 126.211 61.285L128.726 55.2228L128.51 55.4569C129.342 53.2617 130.149 51.0377 130.917 48.8182C130.944 48.7387 130.972 48.6592 130.999 48.5797L131.215 47.9503L131.401 47.4115L133.327 41.8351L133.17 42.0206L133.704 40.3577L133.682 40.3665C134.645 37.246 135.475 34.3485 136.18 31.7469C137.09 28.3879 137.792 25.5235 138.307 23.3106C138.399 22.9087 138.428 22.4869 138.395 22.054ZM46.9208 115.968C46.8015 115.257 46.6977 114.546 46.6094 113.835L48.5131 114.31C47.9808 114.866 47.4486 115.419 46.9208 115.968ZM56.9935 95.304C56.9582 96.6445 56.9295 97.9917 56.9118 99.341V99.3477C56.8942 100.739 56.8875 102.133 56.8986 103.522C56.9008 103.692 56.903 103.86 56.9052 104.027C56.9074 104.359 56.914 104.688 56.9207 105.017C56.9229 105.165 56.9251 105.31 56.9295 105.456C54.3589 108.179 51.8037 110.867 49.2927 113.493L47.6407 111.631C47.2278 110.931 46.2759 107.17 46.2251 106.388C46.4327 97.36 49.1447 88.354 54.2948 79.5886L57.2563 86.0726C57.2365 86.9516 57.2122 87.8284 57.1879 88.7029C57.1614 89.5753 57.1349 90.4454 57.1106 91.3067C57.0708 92.6273 57.0289 93.9634 56.9935 95.304ZM63.0867 86.956C63.0116 87.2586 62.9365 87.5634 62.8636 87.8659C62.7664 88.2723 62.6715 88.6764 62.5787 89.085C62.5257 89.3058 62.4749 89.5289 62.4263 89.7519C62.2717 90.4366 62.1238 91.1256 61.9846 91.8146C61.9427 92.0156 61.9029 92.2144 61.8632 92.4153C61.8234 92.6075 61.7859 92.8018 61.7505 92.9939C61.6755 93.3893 61.6026 93.7846 61.5297 94.1799C61.4833 94.4383 61.4392 94.6989 61.395 94.9595C61.3354 95.3106 61.2779 95.6618 61.2227 96.0129C61.1896 96.2293 61.1543 96.448 61.1233 96.6666C61.099 96.8212 61.077 96.978 61.0549 97.1348C61.035 97.2805 61.0129 97.4263 60.993 97.5721C60.9688 97.7487 60.9445 97.9276 60.9224 98.1065C60.9113 98.1904 60.9003 98.2721 60.8892 98.3561C60.8539 98.6211 60.823 98.8861 60.7921 99.1511C60.7854 99.2041 60.7788 99.2571 60.7744 99.3101C60.7479 99.5265 60.7236 99.743 60.7015 99.9594C60.6839 100.11 60.6684 100.262 60.6552 100.412C60.6375 100.593 60.6198 100.772 60.6044 100.953C60.5933 101.05 60.5845 101.148 60.5779 101.245C60.5646 101.371 60.5536 101.494 60.5425 101.62C60.2113 101.974 59.8778 102.329 59.5443 102.682C59.5399 101.587 59.5465 100.492 59.562 99.394C59.562 99.3786 59.5642 99.3653 59.562 99.3499C59.5818 98.0204 59.6106 96.6931 59.6437 95.3724V95.3504C59.6658 94.467 59.6923 93.5858 59.7188 92.709C59.732 92.2674 59.7453 91.8279 59.7585 91.3884C59.8115 89.668 59.8645 87.9189 59.9043 86.1676C59.9109 85.9225 59.9153 85.6795 59.9197 85.4366C59.9529 83.926 59.9727 82.4155 59.975 80.9181L61.4568 69.4077C63.9722 66.3401 66.8344 63.2571 69.9748 60.2404C70.3746 59.8561 70.7787 59.4718 71.1895 59.0898C71.1828 59.1052 71.1784 59.1207 71.174 59.1361C71.1122 59.3371 71.0503 59.5403 70.9907 59.7435C70.9819 59.7766 70.9708 59.8119 70.962 59.8451C70.898 60.0659 70.8361 60.2867 70.7787 60.5076C69.7186 64.4696 68.4841 68.4779 67.2893 72.3537C67.0133 73.2504 66.735 74.1514 66.459 75.0525C66.311 75.5383 66.163 76.0242 66.0151 76.5123C65.7721 77.3139 65.5292 78.12 65.2907 78.9261C65.2267 79.1469 65.1604 79.37 65.0964 79.5908C65.008 79.8956 64.9175 80.2004 64.8313 80.5051C64.743 80.8099 64.6547 81.1147 64.5685 81.4194C64.3079 82.3359 64.0518 83.2569 63.8044 84.18C63.7227 84.487 63.641 84.7939 63.5593 85.1031C63.4798 85.4101 63.3981 85.7193 63.3208 86.0285C63.2412 86.3377 63.164 86.6468 63.0867 86.956ZM72.6978 81.9075C72.3622 83.2745 72.0331 84.6438 71.7107 86.013C71.5141 86.8434 71.3198 87.6738 71.1276 88.5019C70.9995 89.0518 70.8737 89.5995 70.7456 90.1472C70.6926 90.3813 70.6374 90.6176 70.5821 90.8517C68.2544 93.3672 65.9024 95.8958 63.5571 98.4024C63.5902 98.1441 63.6255 97.8879 63.6609 97.6295C63.7382 97.0796 63.8221 96.5319 63.9126 95.9842C63.9413 95.8031 63.9722 95.622 64.0032 95.4431C64.0363 95.2443 64.0694 95.0434 64.107 94.8424C64.16 94.5376 64.2152 94.2329 64.2726 93.9281C64.3212 93.6675 64.3698 93.4069 64.4228 93.1463C64.6017 92.221 64.796 91.2956 65.0036 90.3725C65.0632 90.1075 65.1229 89.8425 65.1847 89.5775C65.2465 89.3124 65.3084 89.0452 65.3724 88.7802C65.41 88.619 65.4497 88.4556 65.4895 88.2921C65.5336 88.1066 65.5778 87.9233 65.6242 87.74C65.6683 87.5567 65.7147 87.3756 65.7611 87.1945C65.8273 86.9295 65.8936 86.6645 65.9621 86.4017C66.0305 86.1345 66.099 85.8673 66.1697 85.6C66.3066 85.0766 66.4479 84.5554 66.5915 84.0342C66.6047 83.979 66.6202 83.9238 66.6356 83.8708C66.7571 83.4291 66.8808 82.9874 67.0045 82.5457C67.1348 82.0842 67.2651 81.6226 67.3998 81.1633C67.4572 80.9601 67.5168 80.7547 67.5764 80.5493C67.9541 79.2551 68.3428 77.9654 68.7337 76.6845C68.9059 76.1103 69.0804 75.5405 69.2571 74.9708C69.4448 74.3568 69.6347 73.7451 69.8224 73.1333C71.0238 69.2354 72.265 65.2028 73.3405 61.1878C73.3869 61.0111 73.4355 60.8344 73.4863 60.66C73.5503 60.4303 73.6188 60.2028 73.6894 59.9776C73.7314 59.8428 73.7734 59.7081 73.8175 59.5778C73.8617 59.4431 73.9059 59.3106 73.95 59.1803C74.1356 58.6414 74.3365 58.1114 74.5529 57.5858C74.5971 57.4798 74.6435 57.3716 74.6899 57.2656C74.829 56.9387 74.977 56.6119 75.1293 56.2917C75.1824 56.179 75.2354 56.0686 75.2906 55.9582C75.4275 55.6755 75.571 55.3972 75.719 55.1212C75.7455 55.0726 75.7698 55.0262 75.7985 54.9776C76.0194 54.7877 76.2446 54.5978 76.4677 54.4101C75.7499 57.3142 75.6351 58.3831 76.0679 59.1207L77.6028 61.7399L78.4796 58.8336C79.1024 56.7709 81.5427 50.9229 82.1677 49.8496C83.5259 48.8138 84.9305 47.7759 86.3704 46.7467C86.0568 47.226 85.7498 47.7096 85.4495 48.1955C85.328 48.3898 85.2087 48.5842 85.0917 48.7807C84.979 48.964 84.8686 49.1495 84.7582 49.3372C84.6522 49.5183 84.5462 49.6972 84.4424 49.8783C84.3298 50.0727 84.2171 50.2648 84.1089 50.4591C84.0758 50.5143 84.0449 50.5696 84.014 50.627C83.9124 50.8036 83.8152 50.9781 83.718 51.1548C83.6142 51.3381 83.5148 51.5214 83.4155 51.7069C83.3404 51.8438 83.2653 51.9808 83.1924 52.1199C83.0202 52.4423 82.8479 52.767 82.6801 53.0938C82.4548 53.5267 82.2339 53.9617 82.0197 54.4012C81.9402 54.5624 81.8607 54.7237 81.7834 54.8849C81.6929 55.0704 81.6023 55.2559 81.5162 55.4414C81.4654 55.5452 81.4146 55.649 81.366 55.755C81.2666 55.9648 81.1695 56.1746 81.0723 56.3844C80.4584 57.7139 79.8775 59.0611 79.3276 60.4215C79.2371 60.6445 79.1465 60.872 79.056 61.0972C78.9654 61.3247 78.8749 61.5544 78.7866 61.7841C78.6099 62.2412 78.4354 62.6984 78.2631 63.1577C77.9451 64.0124 77.6382 64.8715 77.3378 65.7328C77.2738 65.9227 77.2075 66.1126 77.1435 66.3026C77.0286 66.6427 76.9138 66.9806 76.8012 67.3207C76.6642 67.7381 76.5273 68.1555 76.3948 68.5751C76.3418 68.7385 76.2888 68.9019 76.238 69.0653C76.1784 69.2531 76.1187 69.4386 76.0613 69.6263C75.9774 69.8979 75.8935 70.1674 75.8118 70.4368C75.7278 70.7062 75.6461 70.9779 75.5666 71.2495C75.3215 72.0622 75.0852 72.8771 74.8533 73.6921C74.7274 74.1337 74.6037 74.5732 74.4845 75.0171C74.3785 75.3992 74.2747 75.7813 74.1709 76.1633C73.9522 76.9782 73.738 77.7954 73.526 78.6125C73.4001 79.1006 73.2765 79.5886 73.1528 80.0767C72.9982 80.6884 72.8458 81.298 72.6978 81.9075ZM74.2217 86.9119C74.3299 86.4525 74.4381 85.9909 74.5485 85.5316C74.7672 84.6106 74.988 83.6897 75.2155 82.771C75.2243 82.7335 75.2332 82.6981 75.242 82.6606C75.3392 82.2609 75.4385 81.8633 75.5379 81.4636C75.5732 81.3245 75.6086 81.1831 75.6439 81.0396C75.73 80.6973 75.8162 80.355 75.9045 80.0126C76.0459 79.4539 76.1916 78.893 76.3396 78.332C76.4301 77.9765 76.5251 77.6209 76.6223 77.2653C76.7437 76.8082 76.8674 76.351 76.9933 75.8939C77.0905 75.5383 77.1876 75.185 77.2892 74.8316C77.34 74.6505 77.3908 74.4694 77.4416 74.2883C77.5476 73.9129 77.6558 73.5375 77.7662 73.1642C77.8921 72.7292 78.0224 72.2941 78.1527 71.859C78.1638 71.8193 78.177 71.7795 78.1881 71.7398C78.3029 71.3599 78.4199 70.9801 78.537 70.6024C78.5635 70.5141 78.5922 70.4258 78.6209 70.3352C78.749 69.9244 78.8793 69.5137 79.0118 69.1051C79.0206 69.0764 79.0295 69.0499 79.0383 69.0212C79.1752 68.6016 79.3122 68.182 79.4535 67.7646C79.5993 67.3273 79.7472 66.8922 79.8974 66.4572C79.9107 66.424 79.9217 66.3931 79.9327 66.36C80.0785 65.9404 80.2265 65.5208 80.3788 65.1012C80.6593 64.326 80.9464 63.5553 81.2446 62.7889C81.2468 62.7845 81.249 62.7823 81.249 62.7779C81.3484 62.5239 81.4477 62.2699 81.5493 62.016C81.726 61.5699 81.9071 61.1237 82.0926 60.6799C82.3907 59.9577 82.6999 59.2377 83.0179 58.5244C83.1019 58.3345 83.188 58.1423 83.2763 57.9502C83.3713 57.7382 83.4685 57.5262 83.5678 57.3164C83.9102 56.5765 84.2657 55.8411 84.6323 55.1146C84.7295 54.918 84.8267 54.7237 84.9283 54.5293C85.0343 54.3173 85.1447 54.1075 85.2551 53.8977C85.529 53.3743 85.8094 52.8531 86.0965 52.3363C86.2268 52.1044 86.3549 51.8747 86.4874 51.6451C86.6221 51.4066 86.7591 51.1703 86.8982 50.9339C87.0064 50.7484 87.1146 50.5651 87.225 50.3818C87.3134 50.2361 87.4017 50.0903 87.4901 49.9446C87.5872 49.7811 87.6866 49.6199 87.7882 49.4587C87.9185 49.2489 88.0488 49.0413 88.1813 48.8337C88.3271 48.604 88.475 48.3744 88.623 48.1469L88.6274 48.1425C88.7776 47.9128 88.93 47.6853 89.0824 47.4578C89.2612 47.1884 89.4445 46.9234 89.6301 46.6584C89.7581 46.4707 89.8884 46.2874 90.021 46.1019C90.1601 45.9053 90.3014 45.7087 90.445 45.5144L89.9194 47.6058L90.2904 47.0714C90.2572 47.2458 90.2285 47.4203 90.1998 47.5948C90.1623 47.8112 90.127 48.0276 90.0916 48.2441C89.9569 49.0634 89.8332 49.8871 89.7206 50.7131C89.6963 50.8765 89.6742 51.04 89.6543 51.2034C89.6278 51.3999 89.6013 51.5987 89.577 51.7952C89.5373 52.1111 89.4975 52.4291 89.46 52.7471C89.4269 53.0143 89.396 53.2837 89.3672 53.5532C89.3253 53.922 89.2855 54.2908 89.248 54.6618C89.2149 54.982 89.1839 55.3023 89.153 55.6247C89.1221 55.9471 89.0934 56.2696 89.0647 56.5942C89.0382 56.8924 89.0117 57.1905 88.9874 57.4908C88.983 57.5372 88.9808 57.5836 88.9764 57.63C88.9521 57.9347 88.9278 58.2395 88.9057 58.5465C88.8262 59.5845 88.7577 60.6291 88.6959 61.6891C88.6804 61.9696 88.6628 62.2501 88.6495 62.5305C88.5501 64.3348 88.4706 66.1745 88.3999 68.0627C88.3823 68.5309 88.3668 69.0013 88.3491 69.4739C88.3271 70.1431 88.305 70.8211 88.2829 71.5035C83.6142 76.6668 78.9014 81.8324 74.2217 86.9119ZM91.0368 68.4492C91.0479 68.1753 91.0567 67.9037 91.0677 67.6321C91.07 67.5415 91.0744 67.4488 91.0788 67.356C91.0965 66.9077 91.1141 66.4616 91.1318 66.0177C91.1649 65.2558 91.2003 64.5005 91.2378 63.7518C91.2533 63.4183 91.2709 63.0849 91.2908 62.7536C91.3085 62.398 91.3284 62.0447 91.3504 61.6913C91.3681 61.3866 91.3858 61.0818 91.4056 60.7792C91.4277 60.4524 91.4476 60.1255 91.4719 59.8031C91.5382 58.8292 91.6132 57.8663 91.6972 56.9122C91.7237 56.6075 91.7502 56.3049 91.7789 56.0046C91.8407 55.3553 91.9048 54.7126 91.9754 54.0722C92.0439 53.445 92.1168 52.8222 92.1963 52.2016C92.236 51.8924 92.278 51.581 92.3199 51.2718C92.3531 51.0112 92.3906 50.7484 92.4282 50.4878C92.4436 50.3708 92.4613 50.2537 92.479 50.1345C92.5187 49.8673 92.5585 49.6023 92.6004 49.3372C92.6424 49.07 92.6843 48.805 92.7285 48.54C92.7727 48.275 92.8168 48.01 92.8632 47.7449C92.9361 47.3231 93.0112 46.8991 93.0929 46.4773C93.1371 46.2344 93.1835 45.9936 93.232 45.7507C93.3226 45.2936 93.4153 44.8386 93.5147 44.3815L99.122 56.7002L98.6913 59.9069C96.1936 62.7072 93.6296 65.5694 91.0368 68.4492ZM117.772 30.4108C117.861 30.2253 117.953 30.042 118.048 29.8587C118.112 29.735 118.177 29.6113 118.243 29.4877C118.318 29.3485 118.393 29.2072 118.47 29.0681C118.475 29.0592 118.481 29.0504 118.486 29.0416C118.556 28.9113 118.631 28.7832 118.704 28.6551C118.715 28.6352 118.729 28.6153 118.74 28.5954C118.815 28.4651 118.892 28.3348 118.972 28.2068C119.142 27.9241 119.318 27.6458 119.499 27.3698C124.508 24.9559 128.832 23.0699 131.982 21.7603C125.952 28.8185 119.782 35.9562 113.594 43.0321C113.662 42.7781 113.729 42.5242 113.797 42.2702C113.844 42.0979 113.888 41.9257 113.934 41.7556C114.051 41.3183 114.168 40.8833 114.285 40.4504C114.349 40.2031 114.418 39.9579 114.486 39.7128C114.533 39.5427 114.579 39.3749 114.625 39.2071C114.857 38.3656 115.098 37.5353 115.352 36.7159C115.4 36.5525 115.451 36.3891 115.504 36.2257C115.661 35.7265 115.825 35.2318 115.995 34.7416C116.045 34.5914 116.098 34.4412 116.154 34.291C116.215 34.1144 116.279 33.9399 116.346 33.7632C116.396 33.6219 116.449 33.4805 116.505 33.3414C116.564 33.1824 116.626 33.0256 116.688 32.871C116.977 32.1378 117.289 31.4156 117.627 30.7067C117.675 30.6073 117.722 30.508 117.772 30.4108ZM104.674 35.1126C108.113 33.1669 111.673 31.2677 115.301 29.4369C115.272 29.4965 115.244 29.5561 115.217 29.6158C115.131 29.7946 115.047 29.9735 114.968 30.1546C114.963 30.1612 114.961 30.1679 114.959 30.1745C114.848 30.4174 114.74 30.6604 114.636 30.9055C114.53 31.1506 114.429 31.398 114.327 31.6475V31.6519C114.226 31.8993 114.128 32.1488 114.033 32.3984C113.961 32.5839 113.892 32.7716 113.824 32.9594C113.784 33.0609 113.746 33.1647 113.709 33.2685C113.632 33.4805 113.556 33.6948 113.484 33.909C113.402 34.1431 113.322 34.3772 113.245 34.6113C113.154 34.8851 113.064 35.1612 112.978 35.435C112.901 35.6802 112.823 35.9275 112.748 36.1727C112.501 36.9809 112.267 37.7914 112.041 38.6042C111.913 39.0701 111.785 39.5361 111.659 40.0021C111.653 40.0286 111.644 40.0573 111.637 40.0882C111.549 40.4173 111.461 40.7464 111.372 41.0732C111.326 41.2455 111.282 41.4155 111.235 41.5878C111.101 42.0935 110.966 42.6015 110.829 43.1116C110.624 43.8757 110.412 44.6465 110.193 45.4106C110.14 45.5983 110.087 45.786 110.032 45.9716C109.899 46.4243 109.765 46.8748 109.625 47.3209C109.586 47.4446 109.548 47.5683 109.508 47.6897C106.984 50.5607 104.453 53.4251 101.944 56.2497L104.674 35.1126ZM116.626 47.8532C116.957 47.4755 117.287 47.0979 117.616 46.7202L117.737 46.5811C117.865 46.6032 117.991 46.6253 118.117 46.6451H118.121C118.249 46.665 118.375 46.6827 118.501 46.7003C118.671 46.7224 118.841 46.7423 119.009 46.76C119.122 46.771 119.234 46.7821 119.347 46.7909C119.479 46.8019 119.61 46.8108 119.742 46.8196C119.798 46.8218 119.853 46.824 119.906 46.8262C120.007 46.8328 120.109 46.8373 120.21 46.8395C120.394 46.8439 120.577 46.8483 120.76 46.8483C120.884 46.8483 121.01 46.8461 121.134 46.8439C121.237 46.8417 121.343 46.8395 121.447 46.8351C121.593 46.8284 121.739 46.8218 121.885 46.813C122.006 46.8063 122.13 46.7975 122.251 46.7865C122.375 46.7776 122.498 46.7666 122.62 46.7533C122.744 46.7423 122.867 46.7268 122.989 46.7136C123.267 46.6805 123.545 46.6407 123.821 46.5965C124.002 46.5678 124.186 46.5369 124.367 46.5038C124.515 46.4751 124.661 46.4464 124.808 46.4155C124.93 46.3912 125.049 46.3647 125.168 46.3382C125.173 46.3382 125.177 46.3382 125.18 46.336C125.297 46.3094 125.411 46.2829 125.528 46.2564C125.648 46.2277 125.767 46.199 125.884 46.1681C126.003 46.1372 126.123 46.1063 126.242 46.0754C126.246 46.0754 126.251 46.0754 126.253 46.0731C126.365 46.0422 126.48 46.0113 126.595 45.9782C126.712 45.9451 126.831 45.9119 126.948 45.8766C127.158 45.8148 127.368 45.7507 127.578 45.6845C127.719 45.6403 127.861 45.5939 128 45.5475C128.115 45.5078 128.232 45.468 128.346 45.4283C128.351 45.4283 128.357 45.4261 128.362 45.4239C128.472 45.3863 128.583 45.3466 128.693 45.3068C128.808 45.2671 128.923 45.2251 129.038 45.1831C129.1 45.1611 129.159 45.139 129.219 45.1169C129.278 45.0948 129.338 45.0727 129.398 45.0506C129.133 45.8501 128.857 46.6606 128.574 47.4799C128.408 47.6765 128.24 47.8708 128.07 48.063C127.989 48.1557 127.909 48.2463 127.827 48.3368C127.236 48.9971 126.63 49.6332 126.012 50.2427C125.895 50.3597 125.778 50.4746 125.661 50.5872C125.478 50.7639 125.294 50.9362 125.111 51.1084C125.003 51.21 124.892 51.3094 124.782 51.4088C123.035 52.9988 121.2 54.3924 119.301 55.5761C119.17 55.6578 119.038 55.7373 118.908 55.8168C117.991 56.3734 117.057 56.8813 116.114 57.3363C115.999 57.3937 115.882 57.4467 115.767 57.5019C115.613 57.5748 115.458 57.6454 115.301 57.7161C115.191 57.7669 115.078 57.8155 114.968 57.8641C114.398 58.1136 113.826 58.3433 113.252 58.5553C113.113 58.6061 112.976 58.6569 112.836 58.7055C112.7 58.7541 112.56 58.8005 112.423 58.8468C112.284 58.8932 112.145 58.9396 112.006 58.9838C111.885 59.0235 111.761 59.0633 111.637 59.0986C111.346 59.1891 111.05 59.2753 110.756 59.3526C110.617 59.3923 110.476 59.4277 110.337 59.4652C110.197 59.5005 110.058 59.5359 109.917 59.569C109.639 59.6353 109.358 59.6971 109.078 59.7567C108.939 59.7876 108.797 59.8141 108.656 59.8406C108.4 59.8914 108.144 59.9378 107.887 59.9776C107.717 60.0063 107.545 60.0328 107.373 60.0571C107.238 60.0769 107.101 60.0946 106.966 60.1123C106.754 60.1388 106.542 60.1653 106.33 60.1874C106.185 60.2028 106.039 60.2161 105.893 60.2293C105.827 60.2337 105.761 60.2404 105.694 60.2448C109.407 56.0664 113.073 51.9101 116.626 47.8532ZM122.62 56.55C123.298 56.9454 124.024 57.3628 124.778 57.7581C124.373 58.774 123.956 59.8031 123.525 60.8411C123.333 61.0465 123.137 61.2474 122.938 61.4418C122.739 61.6361 122.538 61.826 122.333 62.0115C122.238 62.0977 122.145 62.1816 122.05 62.2633C122.03 62.281 122.013 62.2964 121.995 62.3119C121.898 62.3958 121.803 62.4775 121.703 62.5615C121.597 62.6498 121.491 62.7381 121.383 62.8243C121.275 62.9126 121.167 62.9987 121.056 63.0826C120.966 63.1533 120.873 63.224 120.78 63.2947C120.635 63.4029 120.489 63.5089 120.343 63.6127C120.135 63.7629 119.923 63.9064 119.709 64.0477C119.594 64.125 119.477 64.2001 119.36 64.273C119.128 64.421 118.892 64.5623 118.656 64.7014C118.298 64.909 117.936 65.1056 117.569 65.2911C117.448 65.3551 117.324 65.417 117.2 65.4744C117.077 65.534 116.953 65.5914 116.827 65.6489C116.697 65.7107 116.564 65.7681 116.432 65.8255C116.215 65.9205 115.999 66.0111 115.778 66.0972C115.712 66.1237 115.646 66.1502 115.577 66.1745C115.489 66.2098 115.4 66.2429 115.312 66.2739C115.144 66.3357 114.976 66.3953 114.806 66.4527C114.718 66.4837 114.628 66.5124 114.539 66.5411C113.76 66.7928 112.969 66.9982 112.17 67.1528C110.933 67.3913 109.705 67.5106 108.495 67.5106C108.358 67.5106 108.223 67.5084 108.088 67.5062C108.022 67.504 107.958 67.5018 107.894 67.4996C107.786 67.4973 107.678 67.4929 107.569 67.4863C107.501 67.4841 107.43 67.4797 107.36 67.4753C107.059 67.4554 106.757 67.4289 106.458 67.3958C106.337 67.3825 106.216 67.367 106.096 67.3516C106.048 67.345 105.999 67.3383 105.951 67.3317C105.803 67.3096 105.655 67.2875 105.507 67.2632C105.359 67.239 105.211 67.2102 105.063 67.1815C104.917 67.155 104.771 67.1241 104.628 67.091C104.548 67.0755 104.469 67.0557 104.389 67.0358C103.936 66.932 103.49 66.8083 103.046 66.6648C102.927 66.6272 102.808 66.5875 102.691 66.5455C102.644 66.53 102.598 66.5146 102.552 66.4969C102.437 66.4572 102.324 66.4174 102.212 66.3732C102.008 66.2982 101.807 66.2187 101.609 66.1325C101.494 66.0861 101.381 66.0376 101.269 65.9868C101.249 65.9801 101.231 65.9713 101.211 65.9603C101.081 65.9028 100.951 65.8432 100.822 65.7814C100.807 65.7747 100.794 65.7681 100.778 65.7615C101.606 64.8362 102.432 63.9108 103.261 62.9811C103.528 62.9833 103.797 62.9833 104.064 62.9788C104.186 62.9766 104.305 62.9744 104.427 62.97C104.484 62.97 104.542 62.9678 104.597 62.9634C104.701 62.9634 104.804 62.9568 104.908 62.9523C105.08 62.9457 105.248 62.9347 105.418 62.9236C105.557 62.9148 105.699 62.906 105.84 62.8927C105.856 62.8927 105.873 62.8927 105.889 62.8905C106.001 62.8817 106.114 62.8706 106.227 62.8596C106.375 62.8486 106.525 62.8331 106.673 62.8176C106.829 62.8022 106.984 62.7823 107.141 62.7624C107.249 62.7514 107.36 62.7359 107.468 62.7205C107.583 62.7072 107.697 62.6895 107.814 62.6719C107.936 62.6564 108.057 62.6365 108.179 62.6167C108.325 62.5946 108.47 62.5703 108.614 62.5438C108.771 62.5173 108.93 62.4886 109.087 62.4577C109.215 62.4334 109.343 62.4091 109.471 62.3826C109.508 62.3759 109.544 62.3693 109.581 62.3583C109.685 62.3384 109.791 62.3163 109.895 62.292C109.972 62.2766 110.049 62.2589 110.127 62.2412C110.228 62.2191 110.332 62.1949 110.434 62.1706C110.471 62.1617 110.507 62.1529 110.544 62.1441C110.772 62.091 110.999 62.0336 111.224 61.9718C111.54 61.8901 111.854 61.8017 112.167 61.709C112.351 61.6538 112.536 61.5964 112.719 61.5389C112.733 61.5345 112.746 61.5301 112.759 61.5257C112.931 61.4705 113.106 61.4153 113.278 61.3556C113.704 61.2121 114.131 61.0597 114.557 60.8963C114.749 60.8234 114.943 60.7461 115.135 60.6688C115.144 60.6644 115.153 60.6622 115.162 60.6578C115.325 60.5915 115.489 60.5231 115.65 60.4546C115.915 60.3442 116.178 60.2293 116.441 60.1079C116.602 60.0372 116.761 59.9621 116.92 59.887C117.448 59.6397 117.971 59.3769 118.49 59.0986C118.601 59.0434 118.711 58.9838 118.819 58.9241C118.961 58.8468 119.1 58.7695 119.241 58.69C119.378 58.6127 119.515 58.5354 119.652 58.4559C119.687 58.4361 119.722 58.414 119.758 58.3941C119.899 58.3124 120.04 58.2285 120.182 58.1423C120.325 58.0562 120.467 57.9701 120.606 57.8839C120.888 57.7095 121.169 57.5306 121.449 57.3473C121.562 57.2722 121.675 57.1993 121.787 57.122C121.898 57.0492 122.006 56.9763 122.114 56.9012C122.225 56.8261 122.335 56.7488 122.445 56.6715C122.505 56.6318 122.562 56.592 122.62 56.55ZM126.412 53.509C126.191 54.0987 125.97 54.6861 125.745 55.2714C125.462 55.119 125.18 54.9622 124.903 54.8054C124.981 54.7435 125.056 54.6795 125.133 54.6176C125.263 54.5094 125.392 54.4012 125.52 54.2908C125.82 54.0368 126.116 53.7762 126.412 53.509ZM98.9475 67.8065C99.0403 67.8551 99.133 67.9037 99.2258 67.9501C99.3737 68.0252 99.5217 68.098 99.6719 68.1709C99.7271 68.1974 99.7823 68.2217 99.8375 68.2482C99.9413 68.2968 100.045 68.3454 100.151 68.3918C101.165 68.8467 102.209 69.2133 103.274 69.4938C103.358 69.5159 103.44 69.538 103.523 69.5578C103.808 69.6285 104.095 69.6948 104.385 69.7522C104.497 69.7765 104.608 69.7963 104.72 69.8184C104.84 69.8405 104.961 69.8626 105.083 69.8825C105.299 69.9178 105.518 69.9509 105.734 69.9796C106.096 70.0282 106.458 70.068 106.825 70.0967C106.918 70.1033 107.011 70.1099 107.103 70.1166C107.218 70.1254 107.333 70.132 107.448 70.1364C107.558 70.1431 107.671 70.1475 107.781 70.1519C108.015 70.1585 108.252 70.1629 108.488 70.1629C109.866 70.1629 111.266 70.026 112.673 69.7544C112.788 69.7323 112.903 69.708 113.018 69.6837C113.104 69.666 113.188 69.6484 113.274 69.6285C113.378 69.6064 113.484 69.5821 113.585 69.5578C113.729 69.5247 113.872 69.4894 114.016 69.4518C114.025 69.4496 114.031 69.4474 114.04 69.4452C114.19 69.4077 114.34 69.3657 114.491 69.3237C114.641 69.2818 114.791 69.2376 114.941 69.1934C115.241 69.1007 115.542 69.0035 115.84 68.8997C116.308 68.7385 116.772 68.5596 117.231 68.3653C117.333 68.3233 117.432 68.2813 117.532 68.2372C117.567 68.2217 117.602 68.2063 117.635 68.1908C117.759 68.1378 117.883 68.0804 118.006 68.023C118.137 67.9633 118.267 67.9015 118.397 67.8374C118.477 67.7999 118.559 67.7602 118.638 67.7204C118.729 67.674 118.819 67.6299 118.91 67.5835C120.937 66.5389 122.828 65.2006 124.504 63.6105L120.131 68.7164C119.462 69.4982 118.486 70.4942 117.15 71.541C117.09 71.5896 117.03 71.636 116.968 71.6824C116.847 71.7773 116.723 71.8701 116.595 71.9628C116.531 72.0114 116.467 72.0578 116.401 72.1042C115.747 72.579 115.021 73.0582 114.215 73.5242C114.106 73.586 113.996 73.6501 113.885 73.7119C113.773 73.7738 113.66 73.8378 113.545 73.8997C113.203 74.0852 112.845 74.2707 112.476 74.4496C112.384 74.4959 112.291 74.5401 112.196 74.5865C112.141 74.613 112.083 74.6395 112.026 74.666C111.924 74.7124 111.823 74.7609 111.719 74.8073C111.591 74.8647 111.461 74.9244 111.328 74.9818C110.92 75.1607 110.496 75.3352 110.056 75.503C109.787 75.6068 109.511 75.7084 109.23 75.8055C109.184 75.8232 109.14 75.8387 109.093 75.8541C108.841 75.9425 108.585 76.0264 108.325 76.1103C108.015 76.2097 107.702 76.3047 107.382 76.3974C107.379 76.3974 107.377 76.3974 107.377 76.3996C107.22 76.4438 107.064 76.488 106.905 76.5321C106.737 76.5763 106.569 76.6205 106.399 76.6646C106.063 76.7508 105.723 76.8325 105.376 76.912C105.202 76.9517 105.027 76.9893 104.849 77.0268C104.685 77.0622 104.519 77.0953 104.352 77.1284C104.338 77.1306 104.325 77.1328 104.314 77.135C104.133 77.1704 103.95 77.2057 103.766 77.2388C103.603 77.2675 103.437 77.2985 103.269 77.325C103.21 77.336 103.15 77.347 103.088 77.3559C102.943 77.3802 102.792 77.4023 102.642 77.4266C102.452 77.4553 102.26 77.4818 102.066 77.5083C101.872 77.537 101.675 77.5613 101.478 77.5856C101.308 77.6076 101.138 77.6275 100.968 77.6452C100.869 77.6562 100.769 77.6673 100.668 77.6783C100.582 77.6871 100.496 77.696 100.41 77.7048C100.301 77.7136 100.193 77.7247 100.083 77.7335C99.6873 77.7711 99.2832 77.802 98.8724 77.8285C98.709 77.8395 98.5434 77.8484 98.3777 77.8572C98.2099 77.866 98.0398 77.8749 97.8698 77.8815C97.5871 77.8947 97.3 77.9036 97.0085 77.9102C96.8075 77.9168 96.6021 77.9212 96.3968 77.9235C95.4935 77.9367 94.5615 77.9235 93.5964 77.8859C93.4175 77.8793 93.2365 77.8727 93.0532 77.8638C92.0925 77.8174 91.1009 77.7446 90.0784 77.6452C93.1084 74.3038 96.0832 71.0044 98.9475 67.8065ZM33.1224 124.133L34.7898 122.181L40.227 126.925C39.6307 127.541 39.0322 128.153 38.4337 128.762L33.1224 124.133ZM48.8686 125.933L48.5882 126.244L46.9429 128.206L46.8501 128.186L44.6858 130.597L49.4053 134.637L47.749 136.573L42.9632 132.501L20.8765 157.258L10.3135 161.803L22.4379 148.587C27.6255 143.477 33.0274 138.062 38.5795 132.406C40.397 130.553 42.2322 128.674 44.0807 126.77C45.0701 125.752 46.0617 124.729 47.0577 123.698C47.071 123.698 47.0842 123.698 47.0975 123.7C47.1218 123.7 47.1483 123.705 47.1726 123.707C47.241 123.711 47.3073 123.718 47.3735 123.727C47.4398 123.733 47.506 123.74 47.5701 123.751C47.6518 123.76 47.7313 123.771 47.8086 123.784C47.877 123.793 47.9433 123.804 48.0096 123.817C48.0449 123.822 48.0802 123.826 48.1133 123.835C48.2083 123.85 48.3011 123.868 48.3938 123.89C48.4579 123.903 48.5219 123.917 48.586 123.934C48.6257 123.941 48.6633 123.95 48.7008 123.963C48.7693 123.976 48.8355 123.994 48.9018 124.016C48.9857 124.036 49.0674 124.06 49.1469 124.087C49.2573 124.12 49.3655 124.155 49.4715 124.195C49.5687 124.228 49.6659 124.266 49.7586 124.305C49.8315 124.332 49.9022 124.363 49.9729 124.396C50.0016 124.407 50.0303 124.418 50.059 124.433C50.07 124.438 50.0833 124.445 50.0943 124.451L48.8554 125.924L48.8686 125.933ZM71.5782 120.935C65.7059 122.839 59.5509 123.632 53.2348 123.296C53.1795 123.252 53.1221 123.208 53.0647 123.164C53.0051 123.117 52.9454 123.071 52.8858 123.029C52.6871 122.881 52.4839 122.744 52.2741 122.614C52.1614 122.543 52.0444 122.475 51.9273 122.408C51.8677 122.373 51.8081 122.34 51.7463 122.307C51.5917 122.223 51.4349 122.146 51.2759 122.068C51.1522 122.011 51.0285 121.956 50.9026 121.903H50.9004C50.7591 121.843 50.6177 121.786 50.472 121.733C50.3991 121.706 50.3262 121.68 50.2533 121.655C49.9442 121.549 49.6261 121.454 49.2971 121.375C51.3399 119.252 53.354 117.148 55.3129 115.094C55.3703 115.092 55.43 115.09 55.4874 115.09C55.6177 115.087 55.748 115.085 55.8783 115.085C56.5165 115.085 57.1503 115.114 57.7753 115.165C57.8968 115.173 58.0183 115.184 58.1397 115.198C58.3495 115.218 58.5593 115.24 58.7691 115.266C58.8994 115.282 59.0297 115.299 59.16 115.317C59.297 115.335 59.4339 115.355 59.5708 115.374C59.615 115.381 59.6569 115.388 59.7011 115.394C60.1251 115.463 60.5447 115.538 60.9599 115.62C61.2603 115.679 61.5562 115.743 61.8499 115.809C62.2828 115.907 62.7112 116.013 63.133 116.125L71.5782 120.935ZM85.8668 113.769L66.8985 114.469C66.5782 114.365 66.247 114.261 65.9069 114.158C65.7059 114.098 65.5027 114.038 65.2973 113.976C64.8733 113.853 64.436 113.729 63.9877 113.612C63.8751 113.581 63.7624 113.552 63.6498 113.524C63.4245 113.464 63.1949 113.409 62.963 113.354C62.7311 113.298 62.497 113.243 62.2607 113.192C62.1437 113.166 62.0244 113.139 61.9051 113.115C61.6666 113.064 61.4259 113.016 61.183 112.972C60.6993 112.879 60.2046 112.795 59.7033 112.724C59.5796 112.707 59.4538 112.689 59.3279 112.673C59.2042 112.656 59.0805 112.64 58.9569 112.625C58.8089 112.607 58.6609 112.592 58.5107 112.576C58.4334 112.57 58.3562 112.561 58.2766 112.554C58.2016 112.545 58.1243 112.539 58.047 112.534C57.9542 112.525 57.8615 112.517 57.7687 112.51C60.0677 110.09 62.4219 107.594 64.8004 105.061C64.8203 105.068 64.838 105.074 64.8578 105.079C65.0058 105.127 65.1516 105.176 65.2995 105.222C65.5447 105.299 65.792 105.377 66.0371 105.45C66.2602 105.516 66.4833 105.58 66.7063 105.642C66.8167 105.673 66.9294 105.704 67.042 105.735C67.1767 105.772 67.3136 105.807 67.4506 105.843C67.5257 105.863 67.6007 105.882 67.6758 105.9C67.8083 105.935 67.9408 105.969 68.0711 106C68.3052 106.055 68.5371 106.11 68.7712 106.163C68.9148 106.194 69.0583 106.227 69.1997 106.256C69.5022 106.322 69.8048 106.382 70.1051 106.439C70.3723 106.49 70.6418 106.536 70.909 106.583C71.2314 106.638 71.5561 106.689 71.8785 106.735C71.9801 106.748 72.0817 106.764 72.1833 106.777C72.2274 106.784 72.2738 106.79 72.3202 106.795C72.5123 106.821 72.7067 106.845 72.8988 106.867C73.1351 106.896 73.3714 106.923 73.6055 106.945C73.6894 106.954 73.7756 106.962 73.8617 106.969C74.0406 106.987 74.2173 107.002 74.3961 107.015C74.9748 107.062 75.5512 107.095 76.1232 107.115C76.2932 107.121 76.4633 107.126 76.6311 107.13C76.6731 107.13 76.715 107.13 76.757 107.13C76.8365 107.132 76.916 107.135 76.9955 107.135C77.1876 107.137 77.3798 107.139 77.5719 107.139C77.764 107.139 77.9429 107.137 78.1284 107.135C78.3029 107.132 78.4774 107.13 78.6518 107.124C78.9588 107.117 79.2636 107.106 79.5683 107.088C79.7185 107.082 79.8687 107.075 80.0167 107.064C80.1757 107.055 80.3325 107.046 80.4893 107.033C80.5886 107.026 80.6858 107.02 80.7852 107.011C80.9619 106.998 81.1363 106.982 81.3108 106.967C81.3991 106.958 81.4875 106.951 81.5736 106.94C81.7724 106.923 81.9711 106.903 82.1699 106.878C82.4217 106.852 82.6712 106.821 82.9186 106.788C83.1571 106.757 83.3912 106.724 83.6275 106.689C84.0648 106.625 84.4976 106.554 84.9305 106.477C85.0564 106.454 85.1822 106.432 85.3081 106.408C85.4936 106.373 85.6769 106.337 85.8602 106.3C85.8867 106.295 85.9132 106.289 85.9397 106.284C86.154 106.24 86.3682 106.196 86.5802 106.15C86.7789 106.106 86.9777 106.061 87.1743 106.015C88.1924 105.779 89.1928 105.509 90.1733 105.213C90.308 105.171 90.4428 105.132 90.5753 105.087C90.816 105.015 91.0545 104.937 91.293 104.858C91.4299 104.811 91.5669 104.767 91.7038 104.721C92.1896 104.555 92.6733 104.383 93.1481 104.204C93.3027 104.147 93.4529 104.089 93.6053 104.032C93.899 103.919 94.1927 103.802 94.482 103.685C94.4953 103.681 94.5063 103.676 94.5196 103.67C95.0893 103.44 95.6503 103.201 96.2024 102.952C96.2532 102.932 96.3018 102.91 96.3504 102.888C96.6132 102.769 96.8738 102.649 97.1322 102.528C97.3839 102.411 97.6313 102.292 97.8786 102.172C97.967 102.13 98.0553 102.086 98.1436 102.042C98.3579 101.936 98.5721 101.83 98.7841 101.722C98.8018 101.715 98.8172 101.706 98.8327 101.697C99.0049 101.609 99.175 101.523 99.345 101.432C99.4532 101.379 99.5593 101.322 99.6653 101.267C95.266 106.273 90.6459 110.463 85.8668 113.767V113.769ZM105.845 93.4864C105.443 94.0452 105.032 94.6017 104.623 95.1494C104.568 95.1869 104.515 95.2245 104.462 95.262C104.409 95.2996 104.354 95.3371 104.299 95.3746C103.978 95.5933 103.652 95.8119 103.318 96.0306C103.152 96.141 102.985 96.2492 102.815 96.3574C102.587 96.5054 102.355 96.6511 102.123 96.7947C101.891 96.9404 101.655 97.084 101.419 97.2275C101.18 97.3711 100.942 97.5146 100.699 97.656C100.456 97.7995 100.211 97.9409 99.9634 98.08C99.7161 98.2213 99.4665 98.3605 99.2147 98.4996C98.9608 98.6387 98.7068 98.7757 98.4506 98.9104C98.2739 99.0053 98.095 99.0981 97.914 99.1909C97.7859 99.2571 97.6556 99.3234 97.5253 99.3896C97.3133 99.4978 97.099 99.6038 96.8826 99.7098C96.6154 99.8401 96.3482 99.9682 96.0765 100.094C95.5355 100.35 94.9878 100.595 94.429 100.834C94.3871 100.854 94.3429 100.871 94.3009 100.889C94.0646 100.991 93.8261 101.088 93.5854 101.187C93.3027 101.302 93.0178 101.415 92.7307 101.525C92.5894 101.58 92.4436 101.636 92.2979 101.689C92.1543 101.744 92.0086 101.799 91.8628 101.85C91.7855 101.879 91.7082 101.907 91.6287 101.934C91.5249 101.974 91.4211 102.011 91.3151 102.046C91.2047 102.086 91.0943 102.124 90.9838 102.161C90.8359 102.212 90.6879 102.263 90.5399 102.311C90.4273 102.349 90.3125 102.386 90.1998 102.422C90.0143 102.481 89.8288 102.541 89.6411 102.598C89.4909 102.645 89.3407 102.691 89.1884 102.735C89.0382 102.782 88.8858 102.826 88.7334 102.868C88.1261 103.042 87.5077 103.206 86.8849 103.354C86.7281 103.391 86.5714 103.429 86.4145 103.464C86.3417 103.482 86.2688 103.497 86.1937 103.515C85.953 103.568 85.7123 103.619 85.4693 103.67C85.2396 103.716 85.01 103.76 84.7759 103.804C84.5285 103.851 84.279 103.895 84.0316 103.937C83.548 104.016 83.0599 104.089 82.5696 104.153C82.4437 104.171 82.3157 104.186 82.1898 104.202C82.1412 104.206 82.0904 104.213 82.0396 104.22C81.7238 104.257 81.408 104.29 81.09 104.319C80.9089 104.334 80.7278 104.35 80.5445 104.365C80.2971 104.385 80.0476 104.401 79.798 104.416C79.7273 104.42 79.6589 104.425 79.5882 104.427C79.4756 104.434 79.3652 104.44 79.2525 104.443C78.6894 104.469 78.1218 104.482 77.5498 104.482C77.17 104.482 76.7879 104.476 76.4058 104.465C76.3219 104.462 76.2358 104.46 76.1519 104.456C75.9796 104.449 75.8074 104.443 75.6351 104.434C75.4672 104.425 75.2994 104.416 75.1293 104.403C75.041 104.398 74.9527 104.392 74.8621 104.385C74.8224 104.385 74.7826 104.381 74.7407 104.376C74.5949 104.365 74.4492 104.354 74.3034 104.341C74.0715 104.321 73.8418 104.299 73.6099 104.275C73.3913 104.25 73.1705 104.226 72.9496 104.197C72.6206 104.158 72.2893 104.113 71.958 104.063C71.7482 104.03 71.5362 103.996 71.3264 103.961C70.7169 103.86 70.1029 103.74 69.4868 103.603C69.3012 103.564 69.1135 103.522 68.928 103.477C68.8816 103.466 68.8353 103.455 68.7911 103.444C68.6343 103.407 68.4753 103.369 68.3185 103.327C68.091 103.27 67.8635 103.21 67.6361 103.148C67.5301 103.12 67.4219 103.091 67.3158 103.06C67.148 103.014 66.9802 102.965 66.8123 102.914C70.9355 98.5107 75.1029 94.0209 79.2216 89.5399L79.279 89.5532H79.4248C83.0003 89.5112 86.3682 89.8116 89.6234 90.1009C89.8774 90.1229 90.1314 90.145 90.3853 90.1671C90.6415 90.1914 90.8977 90.2135 91.1539 90.2356C92.4745 90.3482 93.8173 90.4564 95.1644 90.5315L105.845 93.4864ZM112.691 82.93L95.7408 87.9079H95.7386C95.0496 87.8725 94.3672 87.8306 93.6848 87.7798C93.4661 87.7643 93.2475 87.7489 93.0311 87.7312C92.6755 87.7047 92.3177 87.6738 91.96 87.6451C91.5337 87.6097 91.1031 87.5722 90.6702 87.5324C90.4008 87.5103 90.1314 87.4861 89.8597 87.4618C89.1994 87.4021 88.5325 87.3425 87.8633 87.2873C87.5475 87.2608 87.2295 87.2343 86.9114 87.2078C86.8916 87.2056 86.8717 87.2056 86.8518 87.2034C86.5117 87.1769 86.1716 87.1504 85.8293 87.1261C85.7896 87.1239 85.7498 87.1195 85.7101 87.1172C84.7626 87.051 83.7997 86.9936 82.8214 86.9538C82.5166 86.9428 82.2097 86.9317 81.9005 86.9251C81.8121 86.9207 81.7238 86.9185 81.6332 86.9163C83.6054 84.763 85.6703 82.5016 87.8832 80.0657C88.5015 80.1429 89.1199 80.2114 89.7361 80.271C89.778 80.2755 89.82 80.2777 89.8619 80.2821C90.1689 80.3108 90.4759 80.3373 90.7829 80.3616C91.0876 80.3859 91.3946 80.408 91.6994 80.4256C91.7126 80.4278 91.7237 80.4278 91.7347 80.4278C91.96 80.4433 92.1852 80.4566 92.4083 80.4676C92.5805 80.4764 92.7506 80.4853 92.9229 80.4919C93.1525 80.5029 93.38 80.5118 93.6075 80.5184C93.8924 80.5272 94.175 80.5361 94.4577 80.5405C94.5461 80.5405 94.6344 80.5427 94.725 80.5449C94.9745 80.5449 95.2241 80.5493 95.4714 80.5493C96.4365 80.5493 97.3928 80.525 98.3358 80.4764C98.7686 80.4521 99.1993 80.4256 99.6277 80.3925C100.127 80.355 100.624 80.3086 101.114 80.2556C101.54 80.2114 101.96 80.1606 102.377 80.1032C103.705 79.9265 104.996 79.6946 106.242 79.412C106.496 79.3545 106.746 79.2949 106.995 79.2331C107.189 79.1845 107.382 79.1359 107.574 79.0829C107.706 79.0498 107.837 79.0144 107.967 78.9769C108.088 78.946 108.208 78.9106 108.327 78.8753C108.42 78.851 108.512 78.8245 108.605 78.7958C108.824 78.7317 109.038 78.6677 109.252 78.5992C109.495 78.5219 109.736 78.4446 109.974 78.3629C110.211 78.2834 110.445 78.2017 110.677 78.1178C110.681 78.1178 110.683 78.1178 110.685 78.1134C110.915 78.0317 111.14 77.9455 111.366 77.8594C111.372 77.8572 111.381 77.855 111.388 77.8506C111.613 77.7622 111.838 77.6739 112.059 77.5811C112.51 77.3956 112.951 77.2013 113.384 76.9959C113.592 76.8987 113.799 76.7994 114.003 76.6978C114.025 76.6867 114.047 76.6757 114.067 76.6646C114.232 76.5829 114.396 76.4968 114.559 76.4107C114.802 76.2848 115.041 76.1567 115.277 76.022C115.48 75.9071 115.681 75.7923 115.88 75.6753C115.884 75.6708 115.891 75.6686 115.895 75.6642C116.074 75.556 116.253 75.4478 116.43 75.3374C116.465 75.3153 116.498 75.2954 116.529 75.2733C116.673 75.1828 116.812 75.0922 116.951 74.9995C116.984 74.9796 117.017 74.9575 117.05 74.9354C115.63 77.7225 114.17 80.3947 112.691 82.93ZM130.469 41.7622C130.177 41.8859 129.886 42.0074 129.594 42.1266C129.398 42.2061 129.203 42.2834 129.007 42.3607C128.907 42.4005 128.81 42.438 128.711 42.4756C128.611 42.5131 128.514 42.5507 128.415 42.5882C128.216 42.6611 128.017 42.734 127.819 42.8046C127.52 42.9106 127.22 43.0144 126.92 43.1094C126.719 43.1757 126.518 43.2375 126.317 43.2971C126.164 43.3435 126.014 43.3877 125.862 43.4296C125.557 43.5135 125.252 43.5931 124.945 43.6659C124.791 43.7035 124.638 43.7366 124.484 43.7697C124.382 43.7918 124.278 43.8139 124.177 43.8338C123.971 43.8757 123.766 43.9155 123.559 43.9486C123.247 43.9994 122.938 44.0436 122.624 44.0811C122.505 44.0944 122.386 44.1076 122.269 44.1187C122.178 44.1253 122.09 44.1341 121.999 44.1407C121.896 44.1496 121.79 44.1562 121.686 44.1628C121.48 44.1761 121.277 44.1827 121.072 44.1893H121.056C120.654 44.196 120.252 44.1893 119.848 44.165C124.875 38.4032 129.846 32.6524 134.687 26.9965C133.68 30.9828 132.289 36.0424 130.471 41.7622H130.469Z" fill="white"/>
</svg>
