<svg width="482" height="87" viewBox="0 0 482 87" fill="none" xmlns="http://www.w3.org/2000/svg">
<path d="M23.7255 2.19067C26.535 2.19067 29.0325 2.81657 31.5299 3.75542C34.0273 4.69427 35.9004 6.25903 37.7734 8.13672C39.6465 10.0144 40.8952 12.2051 41.8317 14.7087C42.7682 17.2123 43.3926 19.7159 43.3926 22.5324V45.3777C43.3926 48.1943 42.7682 50.6979 41.8317 53.2015C40.8952 55.7051 39.3343 57.8957 37.7734 59.7734C35.9004 61.6511 34.0273 63.2159 31.5299 64.1547C29.0325 65.0936 26.535 65.7195 23.7255 65.7195L0 65.7195C0.312177 65.0936 0.936531 64.1547 1.24871 62.9029C1.56088 61.9641 1.87306 60.3993 2.18524 58.5216C2.49742 56.6439 2.49742 54.4533 2.49742 51.9497L2.49742 16.2734C2.49742 13.7698 2.49742 11.2662 2.18524 9.70147C1.87306 8.13672 1.56088 6.57197 1.24871 5.32017C0.936531 4.06837 0.312177 2.81657 0 2.19067L23.7255 2.19067ZM10.3018 80.4281C8.74096 80.4281 7.18007 80.7411 5.61919 81.054C4.0583 81.367 2.80959 81.9929 1.87306 82.6188C2.18524 80.7411 3.12177 79.4893 4.37048 78.2374C5.61919 76.9856 6.86789 76.0468 8.1166 75.4209C9.36531 74.795 10.9262 74.1691 12.1749 73.8562C13.4236 73.5432 14.6723 73.2303 15.6088 73.2303C17.1697 73.2303 18.7306 73.2303 19.9793 73.5432C21.228 73.8562 22.4767 74.1691 24.0376 74.4821C25.2863 74.795 26.535 75.108 28.0959 75.4209C29.3446 75.7339 31.2177 75.7339 32.7786 75.7339C34.3395 75.7339 35.5882 75.4209 36.8369 74.795C38.0856 74.4821 39.0221 73.8562 40.2708 73.2303C39.6465 75.108 39.0221 76.6727 37.7734 77.9245C36.5247 79.1763 35.276 80.1152 34.0273 80.7411C32.7786 81.367 31.2177 81.9929 29.969 82.3058C28.7203 82.6188 27.4716 82.6188 26.8472 82.6188C25.2863 82.6188 23.7255 82.6188 22.4767 82.3058C21.228 81.9929 19.9793 81.6799 18.7306 81.3669C17.4819 81.054 16.2332 80.7411 14.9845 80.4281C13.7358 80.4281 12.1749 80.1152 10.3018 80.4281ZM31.2177 22.5324C31.2177 21.2806 30.9055 19.4029 30.5933 17.5252C30.2812 15.6475 29.6568 13.4569 28.4081 11.5792C27.1594 9.70147 25.9107 8.13672 24.3498 6.88492C22.4767 5.63312 20.2915 5.00723 17.4819 5.00723L14.3601 5.00723L14.3601 50.3849C15.2967 49.759 15.921 49.4461 16.5454 49.1331C17.7941 48.8202 19.0428 48.8202 20.2915 49.1331C21.5402 49.4461 22.4767 50.3849 22.7889 51.6367C21.5402 51.3238 20.2915 51.6367 19.355 51.9497C18.1063 52.2626 17.4819 53.2015 16.5454 53.8274C15.921 54.7662 15.2967 55.7051 15.2967 56.9569C14.9845 58.2087 15.2967 59.1475 15.6088 60.3993C15.921 61.0252 16.2332 61.6511 17.1697 61.9641C18.1063 62.59 19.0428 62.9029 20.2915 62.9029H21.228C22.7889 62.9029 24.3498 62.277 25.5985 61.0252C26.8472 59.7734 27.7838 58.2087 28.7203 56.331C29.6568 54.4533 29.969 52.5756 30.5933 50.3849C30.9055 48.5072 31.2177 46.6295 31.2177 45.3777V22.5324Z" fill="url(#paint0_linear_503_1669)"/>
<path d="M88.3458 83.2447L49.948 83.2447C50.2602 82.6188 50.8845 81.6799 51.1967 80.4281C51.5089 79.4893 51.8211 77.9245 52.1332 76.0468C52.4454 74.1691 52.4454 71.9785 52.4454 69.4749V16.2735C52.4454 13.7699 52.4454 11.2663 52.1332 9.70151C51.8211 7.82382 51.5089 6.57201 51.1967 5.32021C50.8845 4.06842 50.2602 3.12956 49.948 2.50366L87.0971 2.50366L86.1605 13.4569L83.6631 13.4569C83.3509 11.8922 83.0388 10.6404 82.4144 9.70151C82.1022 8.76267 81.4779 7.82381 80.8535 7.19791C80.2292 6.57201 78.9805 5.94611 77.4196 5.63316C75.8587 5.32021 73.9856 5.32021 71.4882 5.32021L64.6203 5.32021V30.0432C66.8056 30.0432 68.9908 30.0432 70.8639 30.0432C72.7369 30.0432 74.2978 29.7303 75.8587 29.7303C77.4196 29.4173 78.9805 29.1044 79.917 28.7914C79.917 29.1044 79.917 29.7303 79.917 30.3562C79.917 31.295 79.6048 32.2339 79.2926 33.4857C78.9805 34.7375 78.0439 35.3634 76.7952 35.6763C75.5465 35.9893 74.2978 35.9893 73.0491 35.6763L64.6203 33.1727V75.4209C64.6203 75.7339 64.6203 76.3598 64.9325 76.9857C65.2447 77.6116 65.5568 78.2375 65.869 78.5504C66.4934 79.1763 67.1177 79.4893 68.0543 79.8022C68.9908 80.1152 70.2395 80.4281 71.4882 80.4281H75.5465C77.4196 80.4281 78.6683 80.1152 79.6048 79.4893C80.5413 78.8634 81.4779 77.9245 82.1022 76.9857C82.7266 76.0468 83.3509 74.795 83.6631 73.2303C83.9753 71.9785 84.2875 70.4137 84.5996 69.162H87.4092L88.3458 83.2447Z" fill="url(#paint1_linear_503_1669)"/>
<path d="M105.827 15.0216C105.827 18.1511 106.451 20.9676 108.012 23.4712C109.573 25.9748 111.446 28.4784 113.631 30.982C115.817 33.4856 118.314 35.6763 120.811 38.1799C123.309 40.6835 125.806 42.8741 127.992 45.6907C130.177 48.1943 132.05 51.0108 133.611 54.1403C135.172 57.2698 135.796 60.3993 135.796 64.1547C135.796 71.3525 133.923 76.9856 130.489 81.054C127.055 85.1223 121.748 87 114.568 87C112.07 87 109.261 86.687 106.763 86.0611C104.266 85.4352 102.081 84.1834 100.208 82.6187C98.3347 81.054 96.7738 79.1763 95.5251 77.2986C94.2764 75.1079 93.9642 72.6043 93.9642 69.7878C93.9642 67.2842 94.2764 65.0935 95.2129 62.9029C96.1495 61.0252 97.086 59.4604 98.3347 58.2086C99.5834 56.9568 101.144 56.018 102.705 55.3921C104.266 54.7662 105.827 54.4532 107.076 54.4532C111.134 54.4532 114.256 55.3921 115.817 56.9568C117.69 58.5216 118.626 60.7122 118.626 62.9029C117.378 62.5899 115.817 62.277 114.256 62.277C112.695 62.277 111.446 62.5899 110.197 63.2158C108.949 63.8417 107.7 64.4676 106.763 65.4065C105.827 66.3453 104.89 67.5971 104.578 68.8489C103.954 70.4137 103.642 72.2914 103.954 74.1691C104.266 76.0468 104.578 77.6115 105.515 78.8633C106.451 80.4281 107.7 81.3669 108.949 82.3058C110.51 83.2446 112.07 83.5576 114.256 83.5576C116.441 83.5576 118.314 83.2446 119.875 82.6187C121.436 81.9928 122.685 81.0539 123.621 79.8021C124.558 78.5504 125.494 77.2986 125.806 76.0468C126.118 74.482 126.431 73.2302 126.431 71.6655C126.431 68.223 125.806 65.0935 124.245 62.277C122.685 59.4604 120.811 56.6439 118.626 54.1403C116.441 51.6367 113.944 49.1331 111.134 46.6295C108.324 44.1259 105.827 41.6223 103.642 39.1187C101.456 36.6151 99.5834 33.7986 98.0225 30.6691C96.4616 27.5396 95.8373 24.4101 95.8373 20.6547C95.8373 17.8381 96.4617 15.0216 97.3982 12.518C98.3347 10.0144 99.8956 7.82375 101.769 5.94605C103.642 4.06835 105.827 2.81655 108.324 1.56475C110.822 0.31295 113.944 0 116.753 0C120.187 0 122.997 0.625899 125.182 1.56475C127.367 2.81655 129.24 4.06835 130.801 5.6331C132.362 7.19785 133.299 9.07554 133.923 10.6403C134.547 12.518 134.859 14.0827 134.859 15.6475C134.859 18.1511 134.547 20.3417 133.611 21.9065C132.674 23.7842 131.738 25.036 130.489 26.2878C129.24 27.5396 127.992 28.1655 126.743 28.7914C125.494 29.4173 123.933 29.7302 122.997 29.7302C121.436 29.7302 120.187 29.4173 118.938 29.1043C117.69 28.7914 116.441 28.1655 115.504 27.5396C114.568 26.9137 113.631 25.9748 113.007 25.036C112.383 24.0971 112.071 23.1583 112.071 22.2194C113.319 22.5324 114.568 22.8453 116.129 22.8453C117.378 22.8453 118.626 22.5324 119.875 21.9065C121.124 21.2806 122.06 20.6547 122.997 19.7158C123.933 18.777 124.558 17.8381 125.182 16.5863C125.494 15.6475 125.806 14.3957 125.806 12.831C125.806 11.2662 125.494 9.70145 124.87 8.44965C124.245 6.88491 123.309 5.63309 122.06 4.69424C120.811 3.7554 118.938 3.1295 116.753 3.1295C114.88 3.1295 113.319 3.44246 112.071 4.06835C110.822 4.69425 109.573 5.63311 108.637 6.88491C107.7 8.1367 107.076 9.38849 106.451 10.6403C105.827 12.205 105.827 13.4568 105.827 15.0216Z" fill="url(#paint2_linear_503_1669)"/>
<path d="M154.839 69.1619C154.839 71.9785 154.839 74.1691 155.151 75.7339C155.463 77.6116 155.775 78.8634 156.087 80.1152C156.399 81.367 156.712 82.3058 157.336 82.9317L140.166 82.9317C140.478 82.3058 141.103 81.367 141.415 80.1152C141.727 79.1763 142.039 77.6116 142.351 75.7339C142.664 73.8562 142.664 71.6655 142.664 69.1619V16.2735C142.664 13.7699 142.664 11.2663 142.351 9.70151C142.039 8.13677 141.727 6.57201 141.415 5.32021C141.103 4.06842 140.478 3.12956 140.166 2.50366L157.336 2.50366C156.712 3.12956 156.399 4.06842 156.087 5.32021C155.775 6.25906 155.463 7.82382 155.151 9.70151C154.839 11.5792 154.839 13.7699 154.839 16.2735V69.1619Z" fill="url(#paint3_linear_503_1669)"/>
<path d="M203.853 83.2445C201.355 83.2445 199.482 82.9315 198.546 82.6186C197.609 82.3056 196.672 81.6798 196.048 81.0539C194.487 81.9927 192.614 82.9316 190.741 83.2445C188.868 83.8704 186.683 84.1833 184.498 84.1833C181.688 84.1833 178.878 83.8704 176.693 82.9315C174.196 81.9927 172.323 80.7409 170.45 79.1762C168.889 77.6114 167.328 75.7337 166.391 73.856C165.455 71.6654 164.83 69.4747 164.83 67.2841V18.4639C164.83 15.9603 165.143 13.7697 166.079 11.892C167.016 9.70135 168.264 7.82365 169.825 6.2589C171.386 4.69415 173.571 3.44236 176.381 2.50351C178.878 1.56466 182 1.25171 185.434 1.25171C189.18 1.25171 192.302 1.87761 194.799 2.81646C197.297 4.06826 199.17 5.32006 200.731 6.88481C201.98 8.44956 203.228 10.3272 203.54 12.2049C204.165 14.0826 204.477 15.6474 204.477 17.2121C204.477 19.7157 204.165 21.5934 203.228 23.4711C202.604 25.0359 201.667 26.6006 200.419 27.5395C199.17 28.7913 197.921 29.4172 196.672 30.0431C195.424 30.669 194.175 30.9819 192.926 30.9819C189.492 30.9819 186.683 30.0431 184.81 28.4783C182.937 26.9136 181.688 25.0359 181.688 22.8452C182.937 23.1582 184.185 23.4711 185.434 23.4711C186.683 23.4711 187.932 23.1582 189.18 22.5323C190.429 21.9064 191.365 21.2805 192.302 20.6546C193.239 19.7157 193.863 18.7769 194.487 17.5251C194.799 16.5863 195.112 15.3344 195.112 13.7697C195.112 12.2049 194.799 10.6402 194.175 9.38839C193.551 7.82365 192.614 6.57186 191.365 5.63301C190.117 4.69416 188.244 4.06826 186.058 4.06826C184.185 4.06826 182.937 4.38122 181.688 5.00712C180.439 5.63302 179.815 6.25891 178.878 7.19776C178.254 8.1366 177.63 9.07546 177.318 10.0143C177.005 10.9532 177.005 11.892 177.005 12.8309V71.9783C177.005 72.9172 177.005 73.856 177.318 74.7949C177.63 75.7337 177.942 76.9855 178.566 77.6114C179.191 78.5503 179.815 79.1761 180.751 79.802C181.688 80.4279 182.937 80.7409 184.498 80.7409C186.058 80.7409 186.995 80.4279 187.932 79.802C188.868 79.1761 189.492 78.5503 190.117 77.6114C190.741 76.6726 191.053 75.7337 191.053 74.7949C191.365 73.856 191.365 72.6042 191.365 71.9783V53.8272C191.365 51.3237 191.053 48.8201 191.053 47.2553C190.741 45.3776 190.429 44.1258 190.117 42.874C189.805 41.6222 189.492 40.6834 188.868 40.0575L203.54 40.0575V83.2445H203.853Z" fill="url(#paint4_linear_503_1669)"/>
<path d="M253.8 2.19067C253.488 2.81657 253.176 3.44246 252.864 4.38131C252.551 5.00721 252.239 5.63313 252.239 6.57197C251.927 7.51082 251.927 8.44965 251.927 9.3885V83.2447H248.181L216.963 16.5864V76.0468C216.963 76.9856 216.963 77.9245 217.275 78.8633C217.588 79.8022 217.588 80.4281 217.9 81.054C218.212 81.6799 218.524 82.6188 218.836 83.2447H211.344C211.656 82.6188 211.968 81.9928 212.281 81.054C212.593 80.4281 212.593 79.8022 212.905 78.8633C213.217 77.9245 213.217 76.9856 213.217 76.0468V14.7087C213.217 12.2051 212.905 10.3274 212.593 8.76261C212.281 7.19786 211.968 5.94608 211.656 5.00723C211.344 3.75543 211.032 3.12952 210.408 2.50362L222.895 2.50362L247.869 55.0792V9.3885C247.869 8.44965 247.869 7.51082 247.557 6.57197C247.244 5.63313 247.244 5.00721 246.932 4.38131C246.62 3.75541 246.308 2.81657 245.996 2.19067L253.8 2.19067Z" fill="url(#paint5_linear_503_1669)"/>
<path d="M317.484 2.50366L316.547 13.7698L314.05 13.7698C313.737 12.2051 313.425 10.9533 313.113 10.0145C312.801 9.07561 312.177 8.13675 311.552 7.51085C310.616 6.88495 309.679 6.25905 308.43 5.9461C307.182 5.63315 305.309 5.32021 302.811 5.32021V41.3094L310.616 41.3094V44.7519L302.811 44.7519V69.4749C302.811 71.9785 302.811 74.1691 303.123 76.0468C303.123 76.9857 303.436 77.6116 303.436 78.5504C303.436 79.4893 303.748 79.8022 303.748 80.4281C304.06 81.9929 304.684 82.9317 304.996 83.2447L287.827 83.2447C288.139 82.9317 288.451 82.3058 288.451 81.6799C288.451 81.054 288.763 80.7411 289.075 80.1152C289.075 79.4893 289.388 78.8634 289.388 78.2375C289.388 77.6116 289.7 76.6727 289.7 75.7339C290.012 73.8562 290.012 71.6656 290.012 69.162V44.7519L282.208 44.7519V41.3094L290.324 41.3094V5.32021C287.827 5.32021 285.954 5.63315 284.705 5.9461C283.456 6.25905 282.52 6.88495 281.583 7.51085C280.959 8.13675 280.334 9.07561 280.022 10.0145C280.022 10.6404 279.71 11.2663 279.398 11.8922C279.086 12.5181 279.086 13.1439 278.774 14.0828L276.276 14.0828L275.34 2.81661L317.484 2.81661V2.50366Z" fill="url(#paint6_linear_503_1669)"/>
<path d="M362.749 70.4137C363.686 73.8561 364.622 76.3597 365.559 78.2374C366.495 80.1151 367.744 81.3669 369.617 82.6187C368.68 83.2446 367.432 83.8705 365.871 83.8705C364.31 84.1835 363.373 84.1835 362.437 84.1835C359.627 83.8705 357.442 83.2446 355.257 81.6799C353.384 80.1152 351.823 77.9245 351.198 74.795L344.331 40.6835C342.145 40.6835 340.272 39.7446 338.399 38.4928V69.1619C338.399 71.9785 338.399 74.1691 338.711 75.7338C339.024 77.6115 339.336 78.8633 339.648 80.1152C339.96 81.367 340.272 82.3058 340.897 82.9317L323.727 82.9317C324.039 82.3058 324.663 81.367 324.976 80.1152C325.288 79.1763 325.6 77.6115 325.912 75.7338C326.224 73.8561 326.224 71.6655 326.224 69.1619V15.9605C326.224 13.4569 326.224 10.9533 325.912 9.3885C325.6 7.82375 325.288 6.25902 324.976 5.00723C324.663 3.75543 324.039 2.81657 323.727 2.19067L343.706 2.19067C346.828 2.19067 349.638 2.50361 351.823 3.12951C354.32 3.75541 356.505 5.00721 358.066 6.25901C359.939 7.82375 361.188 9.70146 362.125 11.8921C363.061 14.3957 363.686 17.2123 363.686 20.6547C363.686 25.9749 362.437 30.3561 359.627 33.7986C356.818 37.241 353.072 39.4317 348.389 40.0576C349.325 40.3705 350.262 40.9964 351.198 41.6223C352.135 42.2482 353.072 43.1871 354.008 44.1259C354.945 45.0648 355.881 46.3166 356.505 47.8813C357.442 49.4461 358.066 51.0108 358.379 53.2015L362.749 70.4137ZM339.336 35.3633C339.648 35.9892 340.272 36.6151 341.209 37.241C342.145 37.8669 343.082 38.1799 344.331 38.1799C345.891 38.1799 347.14 37.8669 348.077 36.9281C349.013 35.9892 349.95 34.7374 350.262 33.1727C350.886 31.6079 351.198 29.7302 351.511 27.8525C351.823 25.6619 351.823 23.4712 351.823 21.2806C351.823 18.1511 351.511 15.9605 350.886 13.7698C350.262 11.8921 349.325 10.0144 348.389 8.76261C347.452 7.51081 346.204 6.57196 344.955 5.94606C343.706 5.32016 342.458 5.00723 340.897 5.00723L338.087 5.00723V25.349C338.711 24.7231 339.336 24.4101 340.272 24.0972C341.209 23.7842 341.833 23.7842 342.77 23.7842C343.706 23.7842 344.331 24.0971 344.955 24.4101C345.579 24.723 346.204 25.3489 346.516 26.2878C345.267 25.9748 344.018 26.2878 343.082 26.6007C341.833 26.9137 341.209 27.8526 340.272 28.4785C339.648 29.4173 339.024 30.3561 339.024 31.6079C339.024 32.8597 339.024 34.1115 339.336 35.3633Z" fill="url(#paint7_linear_503_1669)"/>
<path d="M386.475 69.1619C386.475 71.9785 386.475 74.1691 386.788 75.7339C387.1 77.2986 387.412 78.8634 387.724 80.1152C388.036 81.367 388.348 82.3058 388.973 82.9317L371.803 82.9317C372.115 82.3058 372.74 81.367 373.052 80.1152C373.364 79.1763 373.676 77.6116 373.988 75.7339C374.301 73.8562 374.301 71.6655 374.301 69.1619V16.2735C374.301 13.7699 374.301 11.2663 373.988 9.70151C373.676 8.13677 373.364 6.57201 373.052 5.32021C372.74 4.06842 372.115 3.12956 371.803 2.50366L388.973 2.50366C388.348 3.12956 388.036 4.06842 387.724 5.32021C387.412 6.25906 387.1 7.82382 386.788 9.70151C386.475 11.5792 386.475 13.7699 386.475 16.2735V69.1619Z" fill="url(#paint8_linear_503_1669)"/>
<path d="M423.937 39.4318C426.122 40.0577 427.995 40.9965 429.868 42.2483C431.741 43.5001 433.302 44.7519 434.551 46.6296C435.799 48.1943 437.048 50.385 437.672 52.5756C438.609 54.7663 438.921 57.5828 438.921 60.3994C438.921 64.4677 438.297 68.2231 437.048 71.0397C435.799 73.8562 434.238 76.3598 432.053 78.2375C429.868 80.1152 427.37 81.367 424.873 82.3058C422.063 83.2447 418.942 83.5576 415.82 83.5576L394.904 83.5576C395.216 82.9317 395.841 81.9929 396.153 80.7411C396.465 79.8022 396.777 78.2375 397.089 76.3598C397.401 74.4821 397.401 72.2915 397.401 69.7878V16.5864C397.401 14.0828 397.401 11.5792 397.089 10.0145C396.777 8.1368 396.465 6.885 396.153 5.6332C395.841 4.3814 395.528 3.44255 394.904 2.81665L414.883 2.81665C418.005 2.81665 420.815 3.12961 423 3.75551C425.497 4.38141 427.683 5.63321 429.244 6.885C431.117 8.44975 432.365 10.3274 433.302 12.5181C434.238 15.0217 434.863 17.8382 434.863 21.2807C434.863 25.9749 433.926 29.7303 432.053 32.8598C430.18 35.9893 427.683 37.867 423.937 39.4318ZM409.264 37.867H415.508C417.069 37.867 418.317 37.5541 419.254 36.6152C420.19 35.6764 421.127 34.4245 421.439 32.8598C422.063 31.2951 422.376 29.4174 422.688 27.5397C423 25.349 423 23.1584 423 20.9677C423 17.8382 422.688 15.6476 422.063 13.4569C421.439 11.5792 420.503 9.70155 419.566 8.44975C418.629 7.19795 417.381 6.2591 416.132 5.6332C414.883 5.0073 413.635 4.69434 412.074 4.69434L409.264 4.69434V37.867ZM415.508 80.4281C417.069 80.4281 418.63 79.8022 419.878 78.8634C421.127 77.9245 422.376 76.3598 423.624 74.4821C424.561 72.6044 425.497 70.4137 426.122 68.2231C426.746 65.7195 427.058 63.2159 427.058 60.3994C427.058 57.2699 426.434 54.4533 425.497 51.9497C424.561 49.4461 423.312 47.5684 422.063 46.0037C420.503 44.4389 418.942 43.1871 417.381 42.2483C415.508 41.3094 413.947 40.9965 412.074 40.9965H409.264V67.9102C409.889 67.2843 410.825 66.9713 411.449 66.6584C412.698 66.3454 413.947 66.3454 415.196 66.6584C416.444 66.9713 417.381 67.9102 417.693 69.162C416.444 68.849 415.196 69.162 414.259 69.4749C413.322 69.7879 412.386 70.7267 411.449 71.3526C410.825 72.2915 410.201 73.2303 410.201 74.4821C409.889 75.7339 410.201 76.6727 410.513 77.9245C410.825 78.5504 411.449 79.1763 412.074 79.8022C413.322 80.1152 414.259 80.4281 415.508 80.4281Z" fill="url(#paint9_linear_503_1669)"/>
<path d="M482 83.2447L443.602 83.2447C443.914 82.6188 444.539 81.6799 444.851 80.4281C445.163 79.4893 445.475 77.9245 445.788 76.0468C446.1 74.1691 446.1 71.9785 446.1 69.4749V16.2735C446.1 13.7699 446.1 11.2663 445.788 9.70151C445.475 8.13677 445.163 6.57201 444.851 5.32021C444.539 4.06842 443.914 3.12956 443.602 2.50366L480.751 2.50366L479.815 13.7698L477.317 13.7698C477.005 12.2051 476.693 10.9533 476.069 10.0145C475.757 9.07561 475.132 8.13675 474.508 7.51085C473.883 6.88495 472.635 6.25905 471.074 5.9461C469.513 5.63315 467.64 5.63316 465.142 5.63316L458.275 5.63316V30.3562C460.46 30.3562 462.645 30.3562 464.518 30.3562C466.391 30.3562 467.952 30.0432 469.513 30.0432C471.074 29.7303 472.635 29.4173 473.571 29.1044C473.571 29.4173 473.571 30.0432 473.571 30.6691C473.571 31.608 473.259 32.5468 472.947 33.7986C472.635 35.0504 471.698 35.6763 470.449 35.9893C469.201 36.3022 467.952 36.3022 466.703 35.9893L458.275 33.4857V75.7339C458.275 76.0468 458.275 76.6727 458.587 77.2986C458.899 77.9245 459.211 78.5504 459.523 78.8634C460.148 79.4893 460.772 79.8022 461.709 80.1152C462.645 80.4281 463.894 80.7411 465.142 80.7411H469.201C471.074 80.7411 472.323 80.4281 473.259 79.8022C474.196 79.1763 475.132 78.2375 475.756 77.2986C476.381 76.3598 477.005 75.108 477.317 73.5432C477.63 72.2914 477.942 70.7267 478.254 69.4749H480.751L482 83.2447Z" fill="url(#paint10_linear_503_1669)"/>
<defs>
<linearGradient id="paint0_linear_503_1669" x1="21.6963" y1="2.19067" x2="21.6963" y2="82.6188" gradientUnits="userSpaceOnUse">
<stop stop-color="#006A4E"/>
<stop offset="1" stop-color="#003F2E"/>
</linearGradient>
<linearGradient id="paint1_linear_503_1669" x1="69.1469" y1="2.50366" x2="69.1469" y2="83.2447" gradientUnits="userSpaceOnUse">
<stop stop-color="#006A4E"/>
<stop offset="1" stop-color="#003F2E"/>
</linearGradient>
<linearGradient id="paint2_linear_503_1669" x1="114.88" y1="0" x2="114.88" y2="87" gradientUnits="userSpaceOnUse">
<stop stop-color="#006A4E"/>
<stop offset="1" stop-color="#003F2E"/>
</linearGradient>
<linearGradient id="paint3_linear_503_1669" x1="148.751" y1="2.50366" x2="148.751" y2="82.9317" gradientUnits="userSpaceOnUse">
<stop stop-color="#006A4E"/>
<stop offset="1" stop-color="#003F2E"/>
</linearGradient>
<linearGradient id="paint4_linear_503_1669" x1="184.654" y1="1.25171" x2="184.654" y2="84.1833" gradientUnits="userSpaceOnUse">
<stop stop-color="#006A4E"/>
<stop offset="1" stop-color="#003F2E"/>
</linearGradient>
<linearGradient id="paint5_linear_503_1669" x1="232.104" y1="2.19067" x2="232.104" y2="83.2447" gradientUnits="userSpaceOnUse">
<stop stop-color="#006A4E"/>
<stop offset="1" stop-color="#003F2E"/>
</linearGradient>
<linearGradient id="paint6_linear_503_1669" x1="296.412" y1="2.50366" x2="296.412" y2="83.2447" gradientUnits="userSpaceOnUse">
<stop stop-color="#006A4E"/>
<stop offset="1" stop-color="#003F2E"/>
</linearGradient>
<linearGradient id="paint7_linear_503_1669" x1="346.672" y1="2.19067" x2="346.672" y2="84.1835" gradientUnits="userSpaceOnUse">
<stop stop-color="#006A4E"/>
<stop offset="1" stop-color="#003F2E"/>
</linearGradient>
<linearGradient id="paint8_linear_503_1669" x1="380.388" y1="2.50366" x2="380.388" y2="82.9317" gradientUnits="userSpaceOnUse">
<stop stop-color="#006A4E"/>
<stop offset="1" stop-color="#003F2E"/>
</linearGradient>
<linearGradient id="paint9_linear_503_1669" x1="416.913" y1="2.81665" x2="416.913" y2="83.5576" gradientUnits="userSpaceOnUse">
<stop stop-color="#006A4E"/>
<stop offset="1" stop-color="#003F2E"/>
</linearGradient>
<linearGradient id="paint10_linear_503_1669" x1="462.801" y1="2.50366" x2="462.801" y2="83.2447" gradientUnits="userSpaceOnUse">
<stop stop-color="#006A4E"/>
<stop offset="1" stop-color="#003F2E"/>
</linearGradient>
</defs>
</svg>
