<svg width="211" height="335" viewBox="0 0 211 335" fill="none" xmlns="http://www.w3.org/2000/svg">
<g clip-path="url(#clip0)">
<path d="M28.3022 266.966C28.5743 266.694 29.1186 266.422 29.3908 266.149C28.5744 263.7 27.2137 261.795 25.3087 260.162C23.6759 258.53 21.4988 257.441 19.0496 256.897C14.1511 255.536 9.25266 256.897 5.44275 259.89C7.07557 264.517 10.8855 268.054 15.7839 269.415C18.5053 270.232 21.4988 269.959 23.948 269.143C25.5808 268.599 26.9415 268.054 28.3022 266.966Z" fill="#E08433"/>
<path d="M20.1381 96.0643H22.8595C23.6759 90.3494 24.7644 84.9067 26.6694 79.7361C25.5809 80.5525 24.2202 81.3689 23.1316 81.9132C21.4988 86.5395 20.6824 91.1658 20.1381 96.0643Z" fill="#006A4E"/>
<path d="M36.1942 286.288C36.7385 284.383 36.7385 282.206 36.4663 280.301C36.1942 277.579 34.8335 274.858 33.2007 272.681C32.6564 272.953 32.3843 272.953 31.84 273.225C30.4793 274.042 29.1187 274.858 27.758 275.947C25.853 277.852 24.4923 280.301 23.6759 283.022C22.3152 287.921 23.6759 292.819 26.6694 296.629C31.0236 294.996 34.2893 291.458 35.9221 287.104C35.9221 286.832 36.1942 286.56 36.1942 286.288Z" fill="#006A4E"/>
<path d="M23.1316 240.569L21.2266 238.664L19.8659 237.303C20.4102 242.746 21.4988 247.917 22.8594 252.815C24.2201 253.359 25.3087 254.176 26.3972 254.992C25.0365 250.366 23.6758 245.467 23.1316 240.569Z" fill="#006A4E"/>
<path d="M19.0496 78.1033C21.4988 77.5591 23.6759 76.1984 25.3087 74.5656C27.2137 72.9327 28.5744 70.7557 29.3908 68.5786C29.1186 68.3064 28.5743 68.0343 28.3022 67.7621C26.9415 66.9457 25.5808 66.1293 23.948 65.5851C21.2267 64.7686 18.5053 64.7686 15.5118 65.3129C10.8855 66.9457 7.07557 70.4835 5.44275 75.1098C9.25266 78.1033 14.4233 79.464 19.0496 78.1033Z" fill="#006A4E"/>
<path d="M85.723 22.5874C83.5459 23.1317 81.6409 23.6759 79.4639 24.2202C78.9196 25.5809 78.3753 26.9416 77.5589 28.3023C81.3688 26.9416 85.1787 25.853 89.2608 25.0366C88.1722 24.4924 86.8115 23.6759 85.723 22.5874Z" fill="#006A4E"/>
<path d="M27.7579 59.0537C28.8465 60.1423 30.2072 61.2308 31.84 61.7751C32.3843 62.0472 32.6564 62.3193 33.2007 62.3193C35.1056 60.1423 36.1942 57.4209 36.4663 54.6995C36.7384 52.7946 36.7384 50.6175 36.1942 48.7125C36.1942 48.4404 35.922 48.1683 35.922 47.8961C34.5613 43.5419 31.0236 40.0042 26.6694 38.3713C23.4038 42.1812 22.3152 47.3518 23.6759 51.9782C24.4923 54.6995 25.853 57.1488 27.7579 59.0537Z" fill="#E08433"/>
<path d="M44.6304 38.6435C44.9025 38.6435 45.4468 38.9156 45.7189 38.9156C47.6239 39.4599 49.2567 39.4599 51.1617 39.4599C54.1552 39.1878 57.1487 37.8271 59.5979 35.9221C59.3258 35.3778 59.0536 34.5614 58.7815 34.0172C57.9651 32.6565 57.1487 31.2958 55.788 30.2072C53.883 28.5744 51.706 27.2137 49.2567 26.3973C44.3583 25.0367 39.4598 26.3973 35.6499 29.3908C37.0106 33.745 40.2762 37.0107 44.6304 38.6435Z" fill="#006A4E"/>
<path d="M64.4964 30.4795C64.7685 31.0238 65.3128 31.568 65.8571 32.1123C68.8506 31.0238 71.572 28.8467 73.2048 26.3974C74.0212 25.0368 74.8376 23.4039 75.3819 21.7711C75.3819 21.2269 75.654 20.6826 75.654 20.1383C76.1983 16.0563 75.1097 11.7021 72.3884 8.16431C67.762 9.79713 64.2243 13.607 62.8636 18.5055C62.3193 20.9547 62.3193 23.6761 62.8636 25.8532C63.1357 27.7581 63.68 29.1188 64.4964 30.4795Z" fill="#E08433"/>
<path d="M183.148 238.936L182.876 238.664L173.623 229.411C172.807 230.228 171.718 230.772 170.63 231.316C170.902 232.132 171.446 233.221 171.718 234.037L172.807 237.303L173.895 240.297L171.718 242.474L168.997 244.923C168.453 245.195 168.18 245.739 167.636 246.011C164.098 277.851 137.429 301.527 105.317 301.527C73.2048 301.527 46.5354 277.579 42.9976 246.011C42.4533 245.739 42.1812 245.195 41.6369 244.923L38.9156 242.474L36.7385 240.297L37.827 237.303L38.9156 234.037C39.1877 233.221 39.4598 232.132 40.0041 231.316C38.9156 230.772 38.0992 229.955 37.0106 229.411L27.758 238.664L27.4858 238.936C32.9286 277.579 65.8571 306.154 105.317 306.154C144.777 306.426 177.705 277.579 183.148 238.936Z" fill="#E08433"/>
<path d="M92.2543 313.501C90.8936 314.318 89.5329 315.134 88.1723 316.223C87.9001 316.495 87.3559 317.039 87.0837 317.311C84.3623 320.849 83.2738 325.203 83.8181 329.557C88.7165 330.374 93.615 328.741 97.1528 325.475C99.0577 323.57 100.146 321.393 100.963 319.216C101.507 317.583 101.779 315.951 101.507 314.318C101.507 313.501 101.507 312.685 101.235 312.141C98.5134 311.596 95.2478 312.141 92.2543 313.501Z" fill="#E08433"/>
<path d="M89.533 309.691C85.4509 308.875 81.641 307.786 77.8311 306.426C78.6475 307.786 79.1918 309.147 79.736 310.508C81.641 311.052 83.8181 311.596 85.9952 312.141C86.8116 311.324 88.1723 310.508 89.533 309.691Z" fill="#006A4E"/>
<path d="M88.4444 18.5053C89.5329 19.5938 90.8936 20.6823 92.5264 21.2266C95.5199 22.5873 98.7856 23.1316 102.051 22.5873C102.051 21.7709 102.323 20.9545 102.323 20.4102C102.323 18.7774 102.051 17.1446 101.779 15.5118C100.963 13.0625 99.8741 10.8854 97.9692 9.25261C94.4314 5.71484 89.5329 4.08202 84.6345 5.17057C83.8181 9.52475 84.9066 13.8789 87.9001 17.4167C87.628 17.6888 87.9001 17.961 88.4444 18.5053Z" fill="#006A4E"/>
<path d="M75.3819 312.957C74.8376 311.324 74.2933 309.692 73.2048 308.331C71.2998 305.609 68.8506 303.705 65.8571 302.616C65.3128 303.16 65.0407 303.705 64.4964 304.249C63.68 305.609 63.1357 307.242 62.5914 308.603C62.0472 311.052 62.0472 313.501 62.5914 315.951C63.9521 320.849 67.4899 324.659 72.1162 326.292C74.8376 323.026 76.1983 318.4 75.3819 314.046C75.654 314.046 75.3819 313.501 75.3819 312.957Z" fill="#006A4E"/>
<path d="M45.7189 295.812C45.4468 295.812 44.9025 296.084 44.6304 296.084C40.2762 297.717 37.0106 300.983 35.3777 305.337C39.1877 308.603 44.3583 309.691 48.9846 308.331C51.4338 307.786 53.6109 306.426 55.5158 304.521C56.6044 303.432 57.6929 302.071 58.5093 300.711C58.7815 300.167 59.0536 299.35 59.3258 298.806C56.8765 296.901 54.1552 295.54 50.8895 295.268C49.2567 295.268 47.6239 295.54 45.7189 295.812Z" fill="#E08433"/>
<path d="M27.758 96.0643H37.827L37.0106 93.3429L39.1877 91.1659L41.9091 88.7166C42.4534 88.1723 42.9976 87.9002 43.2698 87.6281C47.3518 56.3324 73.4769 32.9286 105.317 32.9286C137.157 32.9286 163.554 56.3324 167.364 87.6281C167.908 87.9002 168.453 88.4445 168.725 88.7166L171.446 91.1659L173.623 93.3429L172.807 96.0643H182.876C177.433 57.4209 144.505 28.5745 105.045 28.5745C65.8571 28.5745 32.9286 57.4209 27.758 96.0643Z" fill="#E08433"/>
<path d="M118.379 21.2267C119.74 20.4103 121.101 19.5939 122.461 18.5054C122.734 18.2332 123.278 17.689 123.55 17.4168C126.271 13.8791 127.36 9.52488 126.816 5.1707C121.917 4.35429 117.019 5.98711 113.481 9.25274C111.576 11.1577 110.487 13.3348 109.671 15.5119C109.127 17.1447 108.855 18.7775 108.855 20.4103C108.855 21.2267 108.855 22.0432 109.127 22.5874C112.392 23.1317 115.658 22.5874 118.379 21.2267Z" fill="#E08433"/>
<path d="M63.4078 68.3062L56.6044 64.4963C53.883 68.5784 51.9781 72.9326 50.3453 77.831L59.0536 79.4638C60.1422 75.3818 61.5029 71.5719 63.4078 68.3062Z" fill="#E08433"/>
<path d="M48.7124 84.6346C50.0731 84.0903 51.7059 83.5461 53.0666 83.2739L48.9845 82.4575C48.9845 83.0018 48.9845 83.8182 48.7124 84.6346Z" fill="#006A4E"/>
<path d="M121.373 25.3088C125.455 26.1253 129.265 27.2138 133.075 28.5745C132.258 27.2138 131.714 25.8531 131.17 24.4924C129.265 23.9482 127.088 23.4039 124.911 22.8596C124.094 23.676 122.734 24.4924 121.373 25.3088Z" fill="#006A4E"/>
<path d="M174.712 48.7125C174.167 50.6175 174.167 52.7946 174.439 54.6995C174.712 57.4209 176.072 60.1423 177.705 62.3193C178.249 62.0472 178.521 62.0472 179.066 61.7751C180.426 60.9587 181.787 60.1423 183.148 59.0537C185.053 57.1488 186.686 54.6995 187.23 51.9782C188.591 47.0797 187.23 42.1812 184.236 38.3713C179.882 40.0042 176.617 43.5419 174.984 47.8961C174.984 47.8961 174.712 48.1683 174.712 48.7125Z" fill="#006A4E"/>
<path d="M73.749 55.5161L69.3948 50.3455C65.857 53.339 62.3192 56.6046 59.5979 60.4145L66.1291 64.2244C68.3062 60.9588 70.7555 58.2374 73.749 55.5161Z" fill="#006A4E"/>
<path d="M135.524 22.0433C136.068 23.6761 136.613 25.3089 137.701 26.6696C139.606 29.391 142.055 31.2959 145.049 32.3845C145.593 31.8402 145.865 31.2959 146.409 30.7516C147.226 29.391 147.77 27.7581 148.314 26.3975C148.859 23.9482 148.859 21.499 148.314 19.0498C146.954 13.8792 143.144 9.79713 138.518 8.16431C135.796 11.4299 134.435 16.0563 135.252 20.4104C135.252 20.9547 135.524 21.499 135.524 22.0433Z" fill="#006A4E"/>
<path d="M165.187 38.9157C165.459 38.9157 166.003 38.6435 166.275 38.6435C170.63 37.0107 173.895 33.7451 175.528 29.3909C171.718 26.1253 166.548 25.0367 161.921 26.3974C159.472 26.9417 157.295 28.3023 155.39 30.2073C154.301 31.2958 153.213 32.6565 152.396 34.0172C152.124 34.5615 151.852 35.3779 151.58 35.9222C154.029 37.8271 156.751 39.1878 160.016 39.4599C161.649 39.7321 163.282 39.4599 165.187 38.9157Z" fill="#E08433"/>
<path d="M50.3453 44.3583C50.0732 44.3583 49.801 44.3583 49.5289 44.3583C48.4403 44.3583 47.0797 44.0862 45.9911 44.0862C44.3583 45.719 42.7255 47.3518 41.0927 49.2568C41.3648 50.6175 41.3648 52.2503 41.3648 53.611C44.0862 50.0732 47.0797 47.0797 50.3453 44.3583Z" fill="#006A4E"/>
<path d="M161.105 44.3583C160.833 44.3583 160.561 44.3583 160.288 44.3583C163.554 47.0796 166.548 50.3453 169.269 53.6109C169.269 52.2502 169.269 50.6174 169.541 49.2567C167.908 47.6239 166.275 45.7189 164.643 44.3583C163.554 44.0861 162.466 44.3583 161.105 44.3583Z" fill="#006A4E"/>
<path d="M160.288 77.5591C158.656 72.9327 156.751 68.3064 154.029 64.2244L147.226 68.0343C149.131 71.2999 150.492 75.1098 151.58 78.9197L160.288 77.5591Z" fill="#006A4E"/>
<path d="M125.727 41.3647L123.55 47.0796C127.088 48.4403 130.353 50.3452 133.619 52.5223L137.701 47.6239C133.891 45.1747 129.809 42.9976 125.727 41.3647Z" fill="#006A4E"/>
<path d="M141.511 50.6174L137.157 55.788C140.15 58.2373 142.6 61.2308 144.777 64.4964L151.308 60.6865C148.587 56.8766 145.321 53.3388 141.511 50.6174Z" fill="#E08433"/>
<path d="M161.649 82.1853L157.839 83.0017C159.472 83.2738 160.833 83.8181 162.193 84.3624C161.921 83.8181 161.921 83.0017 161.649 82.1853Z" fill="#E08433"/>
<path d="M103.14 37.8271C98.5134 38.0993 94.1593 38.6436 90.0772 40.0042L91.9822 45.447C95.5199 44.3584 99.3299 43.8142 103.14 43.542V37.8271Z" fill="#006A4E"/>
<path d="M87.3558 47.0796L85.1787 41.3647C80.8245 42.9976 76.7425 44.9025 73.2047 47.6239L77.2868 52.5223C80.5524 50.3452 83.818 48.4403 87.3558 47.0796Z" fill="#E08433"/>
<path d="M107.766 37.8271V43.542C111.576 43.8142 115.386 44.3584 118.924 45.447L120.829 40.0042C116.747 38.9157 112.392 38.0993 107.766 37.8271Z" fill="#E08433"/>
<path d="M50.3453 290.642C47.0797 287.92 44.0862 284.655 41.3648 281.389C41.3648 282.75 41.3648 284.383 41.0927 285.743C42.7255 287.376 44.3583 289.281 45.9911 290.914C47.6239 290.642 48.9846 290.642 50.3453 290.642Z" fill="#006A4E"/>
<path d="M151.036 104.228C154.846 103.14 157.839 100.691 159.2 97.1528C156.206 94.9757 152.124 94.1593 148.587 95.2479C144.777 96.3364 141.783 98.7857 140.422 102.323C143.416 104.501 147.226 105.317 151.036 104.228Z" fill="#E08433"/>
<path d="M137.701 167.092C137.701 177.705 132.53 186.958 124.638 192.945C138.517 188.591 151.036 179.61 159.472 167.092C151.036 154.574 138.79 145.593 124.638 141.239C132.53 147.226 137.701 156.479 137.701 167.092Z" fill="#E08433"/>
<path d="M51.4338 167.092C59.87 179.61 72.1162 188.591 86.2673 192.945C78.3753 186.958 73.2047 177.705 73.2047 167.092C73.2047 156.479 78.3753 147.226 86.2673 141.239C72.1162 145.593 59.87 154.574 51.4338 167.092Z" fill="#E08433"/>
<path d="M78.1032 167.092C78.1032 182.332 90.3494 194.578 105.589 194.578C120.829 194.578 133.075 182.332 133.075 167.092C133.075 151.852 120.829 139.606 105.589 139.606C90.3494 139.606 78.1032 151.852 78.1032 167.092ZM105.317 149.131C115.114 149.131 123.278 157.023 123.278 167.092C123.278 176.889 115.386 185.053 105.317 185.053C95.52 185.053 87.3559 177.161 87.3559 167.092C87.628 157.023 95.52 149.131 105.317 149.131Z" fill="#F9F9F4"/>
<path d="M82.7295 90.8936C83.818 87.0837 83.0016 83.2738 80.8245 80.2803C77.2867 81.9131 74.8375 84.9066 73.749 88.4444C72.6604 92.2543 73.4768 96.0642 75.6539 99.0577C79.1917 97.697 81.913 94.7035 82.7295 90.8936Z" fill="#E08433"/>
<path d="M134.98 99.3299C137.157 96.3364 137.973 92.2544 136.885 88.7166C135.796 84.9067 133.347 81.9132 129.809 80.5525C127.632 83.546 126.816 87.628 127.904 91.1658C128.993 94.7036 131.714 97.6971 134.98 99.3299Z" fill="#E08433"/>
<path d="M56.3322 180.427C52.7945 176.889 49.2567 172.807 46.5353 168.181L45.7189 166.82L46.5353 165.459C49.5288 161.105 52.7944 157.023 56.6044 153.213C48.7124 153.213 41.909 149.403 37.5548 143.688V189.951C41.6369 184.237 48.4403 180.427 56.3322 180.427Z" fill="#006A4E"/>
<path d="M188.046 81.9132C186.686 81.3689 185.597 80.5525 184.509 79.7361C186.141 84.9067 187.502 90.3494 188.318 96.0643H191.04C190.223 91.1658 189.407 86.5395 188.046 81.9132Z" fill="#006A4E"/>
<path d="M170.63 108.038C168.725 106.405 166.275 105.317 164.098 104.5C165.459 102.596 166.547 100.418 167.364 98.2413L168.452 94.9757L165.731 92.5264C161.921 88.9887 157.023 87.0837 151.852 87.0837C149.947 87.0837 148.314 87.3559 146.409 87.9001C145.865 88.1723 145.321 88.1723 144.777 88.4444C144.777 87.9001 144.504 87.3559 144.504 86.8116C142.599 80.0082 137.701 74.5654 130.898 72.3883L127.632 71.2998L125.183 74.0212C121.645 78.1032 119.74 83.0017 119.74 88.1723C115.114 86.5395 110.215 85.723 105.317 85.723C100.418 85.723 95.5199 86.5395 90.8936 88.1723C90.8936 83.0017 88.9886 77.8311 85.4508 74.0212L83.0016 71.2998L79.736 72.3883C72.9325 74.5654 68.0341 80.0082 66.1291 86.8116C65.857 87.3559 65.857 87.9001 65.857 88.4444C65.3127 88.1723 64.7684 88.1723 64.2242 87.9001C62.3192 87.3559 60.6864 87.0837 58.7814 87.0837C53.6109 87.0837 48.7124 88.9887 44.9025 92.5264L42.1811 94.9757L43.2697 98.2413C44.0861 100.418 45.1746 102.596 46.5353 104.5C44.0861 105.317 41.909 106.678 40.004 108.038V100.963H8.98047V219.614L24.4922 235.398L36.7384 223.152C39.4598 226.145 42.9975 228.323 46.8074 229.683C45.4468 231.588 44.3582 233.765 43.5418 235.942L42.4533 239.208L45.1746 241.657C48.9845 245.195 54.1551 247.1 59.0536 247.1C60.6864 247.1 62.5914 246.828 64.2242 246.284C64.7684 246.011 65.3127 246.011 65.857 245.739C65.857 246.284 66.1291 246.828 66.1291 247.372C68.0341 254.176 72.9325 259.618 79.736 261.795L83.0016 262.884L85.4508 260.163C88.9886 256.08 90.8936 251.182 90.8936 246.011C95.5199 247.644 100.418 248.461 105.317 248.461C110.215 248.461 115.114 247.644 119.74 246.011C119.74 251.182 121.645 256.353 125.183 260.163L127.632 262.884L130.898 261.795C137.701 259.618 142.599 254.176 144.504 247.372C144.777 246.828 144.777 246.284 144.777 245.739C145.321 246.011 145.865 246.011 146.409 246.284C148.042 246.828 149.947 247.1 151.58 247.1C156.751 247.1 161.649 245.195 165.459 241.657L168.18 239.208L167.092 235.942C166.275 233.765 165.187 231.588 163.826 229.683C167.636 228.323 170.902 226.145 173.895 223.152L186.141 235.398L201.925 219.614V100.963H170.63V108.038ZM173.623 115.386V103.956H198.932V218.526L186.141 231.316L173.623 218.798C170.085 223.696 164.37 227.234 158.111 228.323C161.105 230.5 163.282 233.493 164.37 237.031L164.915 238.392L163.826 239.48C160.56 242.474 156.206 244.106 152.124 244.106C150.491 244.106 149.131 243.834 147.498 243.562C145.593 243.018 143.96 242.202 142.327 241.113C142.327 243.018 142.327 244.923 141.783 246.828C140.15 252.543 135.796 257.169 130.081 259.074L128.721 259.618L127.632 258.53C123.55 254.176 122.189 247.916 123.55 242.202C123.55 241.929 123.822 241.657 123.822 241.385C118.379 244.106 112.12 245.739 105.589 245.739C99.0576 245.739 92.7985 244.106 87.3558 241.385C87.3558 241.657 87.6279 241.929 87.6279 242.202C89.2607 247.916 87.6279 254.176 83.5459 258.53L82.4573 259.618L81.0966 259.074C75.3818 257.169 71.0276 252.543 69.3948 246.828C68.8505 244.923 68.8505 243.018 68.8505 241.113C67.2177 242.202 65.5849 243.018 63.6799 243.562C62.0471 243.834 60.6864 244.106 59.0536 244.106C54.6994 244.106 50.6173 242.474 47.3517 239.48L46.2632 238.392L46.8074 237.031C47.896 233.493 50.0731 230.5 53.0666 228.323C46.8074 227.234 41.0926 223.968 37.5548 218.798L24.4922 231.044L11.7018 218.254V217.165V103.956H37.0105V115.386C40.5483 110.487 46.2632 107.222 52.5223 106.133C49.5288 103.956 47.3517 100.963 46.2632 97.4249L45.7189 96.0642L46.8074 94.9757C51.1616 90.8936 57.4208 89.533 63.1356 90.8936C65.0406 91.4379 66.6734 92.2543 68.3062 93.3429C68.3062 91.4379 68.3062 89.5329 68.8505 87.628C70.4833 81.9131 74.8375 77.2868 80.5524 75.3819L81.913 74.8376L83.0016 75.9261C87.0836 80.2803 88.4443 86.5395 87.0836 92.2543C87.0836 92.5265 86.8115 92.7986 86.8115 93.0707C92.2542 90.3494 98.5134 88.7165 105.045 88.7165C111.576 88.7165 117.835 90.3494 123.278 93.0707C123.278 92.7986 123.006 92.5265 123.006 92.2543C121.373 86.5395 123.006 80.2803 127.088 75.9261L128.176 74.8376L129.537 75.3819C135.252 77.2868 139.606 81.9131 141.239 87.628C141.783 89.5329 141.783 91.4379 141.783 93.3429C143.416 92.2543 145.049 91.4379 146.954 90.8936C152.669 89.2608 158.928 90.8936 163.282 94.9757L164.37 96.0642L163.826 97.4249C162.738 100.963 160.56 103.956 157.567 106.133C164.37 106.95 170.085 110.487 173.623 115.386Z" fill="#006A4E"/>
<path d="M142.055 115.114L139.606 117.291L138.245 114.298C132.258 101.507 119.468 93.343 105.589 93.343C91.71 93.343 78.6474 101.507 72.9325 114.298L71.5719 117.291L69.1226 115.114C65.5849 112.12 61.2307 110.488 56.6044 110.488C45.991 110.488 37.5548 118.924 37.5548 129.537C37.5548 140.15 45.991 148.587 56.6044 148.587C57.965 148.587 59.0536 148.587 60.4143 148.315C61.775 148.042 63.1356 147.498 64.2242 146.954C66.4013 145.321 68.5784 143.96 70.7555 142.6C62.8635 141.783 55.788 136.613 52.2502 129.537L56.6044 127.632C59.5979 134.163 66.1291 138.246 73.2047 138.246C79.4638 138.246 85.1787 134.98 88.7165 129.809C86.5394 127.632 84.6344 125.183 83.2737 122.462L87.6279 120.557C90.8936 127.632 97.9691 131.986 105.589 131.986C113.209 131.986 120.284 127.36 123.55 120.557L127.904 122.462C126.543 125.183 124.911 127.632 122.734 129.809C125.999 134.98 131.986 138.518 138.245 138.518C145.321 138.518 151.852 134.436 154.846 127.904L159.2 129.809C155.662 137.157 148.586 142.055 140.695 143.144C142.872 144.505 145.049 145.865 147.226 147.498C148.586 148.042 149.675 148.587 151.036 148.859C152.124 149.131 153.485 149.131 154.846 149.131C165.459 149.131 173.895 140.695 173.895 130.081C173.895 119.468 165.459 111.032 154.846 111.032C149.947 110.488 145.593 112.12 142.055 115.114Z" fill="#F9F9F4"/>
<path d="M195.122 65.585C192.4 64.7686 189.407 65.0407 186.958 65.8571C185.325 66.4014 183.964 66.9457 182.604 68.0342C182.331 68.3063 181.787 68.5785 181.515 68.8506C182.331 71.2998 183.692 73.2048 185.597 74.8376C187.23 76.4704 189.407 77.559 191.856 78.1033C196.755 79.4639 201.653 78.1033 205.463 75.1098C203.83 70.4834 200.02 66.9457 195.122 65.585Z" fill="#E08433"/>
<path d="M59.8701 229.683C56.0601 230.772 53.0666 233.221 51.706 236.759C54.6995 238.936 58.7815 239.752 62.3193 238.664C66.1292 237.575 69.1227 235.126 70.4834 231.588C67.4899 229.411 63.68 228.867 59.8701 229.683Z" fill="#E08433"/>
<path d="M128.176 243.018C127.088 246.828 127.904 250.638 130.081 253.631C133.619 251.999 136.068 249.005 137.157 245.467C138.245 241.657 137.429 237.848 135.252 234.854C131.714 236.215 128.993 239.208 128.176 243.018Z" fill="#E08433"/>
<path d="M75.9261 234.582C73.749 237.575 72.9326 241.657 74.0211 245.195C75.1097 249.005 77.5589 251.999 81.0967 253.359C83.2737 250.366 84.0902 246.284 83.0016 242.746C81.9131 239.208 79.1917 236.215 75.9261 234.582Z" fill="#E08433"/>
<path d="M151.036 229.683C147.226 228.595 143.416 229.411 140.422 231.588C142.055 235.126 145.049 237.575 148.587 238.664C152.396 239.752 156.206 238.936 159.2 236.759C157.567 233.221 154.574 230.772 151.036 229.683Z" fill="#E08433"/>
<path d="M154.574 185.325C153.213 185.325 152.124 185.325 150.764 185.597C149.403 185.869 148.042 186.414 146.682 186.958C144.504 188.591 142.327 189.951 140.15 191.04C148.042 191.856 155.118 196.755 158.656 204.375L154.301 206.28C151.308 199.748 144.777 195.666 137.701 195.666C131.442 195.666 125.727 198.932 122.189 204.103C124.366 206.28 126.271 208.729 127.632 211.45L123.278 213.355C120.012 206.28 112.937 201.925 105.317 201.925C97.697 201.925 90.6215 206.552 87.3558 213.355L83.0016 211.45C84.3623 208.729 85.9951 206.28 88.1722 204.103C84.9066 198.932 78.9196 195.394 72.6604 195.394C65.5849 195.394 59.0536 199.476 56.0601 206.007L51.7059 204.103C55.2437 196.755 62.3193 191.856 70.2112 190.768C68.0341 189.407 65.857 188.046 63.6799 186.686C62.3193 186.142 60.9586 185.597 59.5979 185.325C58.5093 185.053 57.1487 185.053 55.788 185.053C45.1747 185.053 36.7384 193.489 36.7384 204.103C36.7384 214.716 45.1747 223.152 55.788 223.152C60.4143 223.152 64.7685 221.519 68.3063 218.526L70.7555 216.349L72.1162 219.342C78.1032 232.133 90.8936 240.297 104.773 240.297C118.652 240.297 131.714 232.133 137.429 219.342L138.79 216.349L141.239 218.526C144.777 221.519 149.131 223.152 153.757 223.152C164.37 223.152 172.807 214.716 172.807 204.103C173.623 193.761 165.187 185.325 154.574 185.325Z" fill="#F9F9F4"/>
<path d="M154.574 153.485C158.111 157.023 161.649 161.105 164.37 165.731L165.187 167.092L164.37 168.452C161.377 173.079 158.111 176.889 154.301 180.699C162.193 180.699 168.997 184.509 173.351 190.223V143.96C169.269 149.675 162.465 153.485 154.574 153.485Z" fill="#006A4E"/>
<path d="M59.8701 104.228C63.68 105.317 67.4899 104.501 70.4834 102.323C68.8506 98.7857 65.8571 96.3364 62.3193 95.2479C58.5094 94.1593 54.6995 94.9757 51.706 97.1528C53.3388 100.691 56.3323 103.14 59.8701 104.228Z" fill="#E08433"/>
<path d="M183.148 275.947C182.059 274.858 180.699 273.769 179.066 273.225C178.521 272.953 178.249 272.681 177.705 272.681C175.8 274.858 174.712 277.579 174.439 280.301C174.167 282.206 174.167 284.383 174.712 286.288C174.712 286.56 174.984 286.832 174.984 287.104C176.344 291.458 179.882 294.996 184.236 296.629C187.502 292.819 188.591 287.648 187.23 283.022C186.413 280.301 185.053 277.852 183.148 275.947Z" fill="#E08433"/>
<path d="M122.461 316.495C121.373 315.406 120.012 314.318 118.379 313.773C115.386 312.413 112.12 311.868 108.855 312.413C108.855 313.229 108.582 314.045 108.582 314.59C108.582 316.223 108.855 317.855 109.127 319.488C109.943 321.937 111.032 324.115 112.937 325.747C116.474 329.285 121.373 330.918 126.271 329.829C127.088 325.475 125.727 321.121 123.006 317.583C123.278 317.311 123.006 316.767 122.461 316.495Z" fill="#006A4E"/>
<path d="M166.275 296.357C166.003 296.357 165.459 296.085 165.187 296.085C163.282 295.54 161.649 295.54 159.744 295.54C156.751 295.812 153.757 297.173 151.308 299.078C151.58 299.622 151.852 300.439 152.124 300.983C152.941 302.344 153.757 303.704 155.118 304.793C157.023 306.426 159.2 307.786 161.649 308.603C166.548 309.964 171.446 308.603 175.256 305.609C173.895 300.983 170.63 297.717 166.275 296.357Z" fill="#006A4E"/>
<path d="M146.409 304.249C146.137 303.705 145.593 303.16 145.049 302.616C142.055 303.705 139.334 305.882 137.701 308.331C136.885 309.692 136.068 311.324 135.524 312.957C135.524 313.501 135.252 314.046 135.252 314.59C134.435 318.944 135.796 323.298 138.518 326.836C143.144 325.203 146.682 321.393 148.042 316.495C148.587 314.046 148.587 311.324 148.042 309.147C147.77 307.242 147.226 305.609 146.409 304.249Z" fill="#E08433"/>
<path d="M125.183 312.413C127.36 311.869 129.265 311.324 131.442 310.78C131.986 309.419 132.531 308.059 133.347 306.698C129.537 308.059 125.727 309.147 121.645 309.964C122.734 310.508 124.094 311.324 125.183 312.413Z" fill="#006A4E"/>
<path d="M183.964 122.189H178.521V129.537V204.375V207.64C180.154 206.28 182.059 205.463 183.964 205.191V122.189Z" fill="#E08433"/>
<path d="M160.561 290.642C161.921 290.642 163.554 290.642 164.915 290.914C166.548 289.281 168.18 287.648 169.813 285.743C169.541 284.383 169.541 282.75 169.541 281.389C166.82 284.655 163.826 287.92 160.561 290.642Z" fill="#006A4E"/>
<path d="M151.308 274.314L144.777 270.504C142.6 273.769 139.878 276.491 137.157 279.212L141.511 284.383C145.321 281.389 148.587 278.123 151.308 274.314Z" fill="#E08433"/>
<path d="M162.193 249.277C160.016 250.366 157.567 250.91 155.118 251.182L161.649 252.271C161.921 251.454 162.193 250.366 162.193 249.277Z" fill="#E08433"/>
<path d="M147.498 266.694L154.301 270.504C157.023 266.422 158.928 262.067 160.561 257.169L151.852 255.808C150.764 259.618 149.403 263.156 147.498 266.694Z" fill="#006A4E"/>
<path d="M123.55 287.648L125.727 293.363C130.081 291.73 134.163 289.825 137.701 287.104L133.619 282.206C130.353 284.383 127.088 286.288 123.55 287.648Z" fill="#006A4E"/>
<path d="M107.766 296.901C112.392 296.629 116.747 296.085 120.829 294.724L118.924 289.281C115.386 290.37 111.576 290.914 107.766 291.186V296.901Z" fill="#E08433"/>
<path d="M103.14 296.901V291.186C99.3299 290.914 95.5199 290.37 91.9822 289.281L90.0772 294.724C94.1593 296.085 98.5134 296.629 103.14 296.901Z" fill="#006A4E"/>
<path d="M65.857 270.776L59.3257 274.586C62.0471 278.396 65.5849 281.661 69.1227 284.655L73.4768 279.484C70.7555 276.763 68.3063 273.769 65.857 270.776Z" fill="#006A4E"/>
<path d="M49.2567 252.543L55.788 251.454C53.3388 251.182 50.8895 250.366 48.7124 249.549C48.7124 250.366 48.9846 251.454 49.2567 252.543Z" fill="#006A4E"/>
<path d="M50.6174 257.169C52.2503 261.795 54.1552 266.422 56.8766 270.504L63.68 266.694C61.775 263.428 60.4143 259.618 59.3258 255.808L50.6174 257.169Z" fill="#E08433"/>
<path d="M87.3558 287.648C83.818 286.288 80.5524 284.383 77.2868 282.206L73.2047 287.104C77.0146 289.553 81.0967 291.73 85.1787 293.363L87.3558 287.648Z" fill="#E08433"/>
<path d="M32.3843 108.583H16.6003V117.291H32.3843V108.583Z" fill="#F9F9F4"/>
<path d="M188.863 205.191C190.768 205.735 192.673 206.552 194.305 207.912V122.189H188.863V205.191Z" fill="#E08433"/>
<path d="M194.305 108.583H178.521V117.291H194.305V108.583Z" fill="#F9F9F4"/>
<path d="M26.9415 205.191C28.8465 205.735 30.7514 206.552 32.3842 207.912V204.647V129.537V122.189H26.9415V205.191Z" fill="#E08433"/>
<path d="M186.141 209.545C182.059 209.545 179.066 212.539 178.521 216.349L186.413 224.241L194.033 216.621C193.489 212.811 190.223 209.545 186.141 209.545Z" fill="#F9F9F4"/>
<path d="M22.0431 122.189H16.6003V207.368C18.2332 206.007 20.1381 205.191 22.0431 204.919V122.189Z" fill="#E08433"/>
<path d="M191.04 237.575L189.679 238.936L187.774 240.569C186.958 245.467 185.869 250.366 184.236 254.992C185.325 254.176 186.686 253.359 187.774 252.815C189.407 247.916 190.496 242.746 191.04 237.575Z" fill="#006A4E"/>
<path d="M191.856 256.897C189.407 257.441 187.23 258.802 185.597 260.435C183.692 262.068 182.331 264.245 181.515 266.422C181.787 266.694 182.331 266.966 182.604 267.238C183.964 268.055 185.325 268.871 186.958 269.415C189.679 270.232 192.4 270.232 195.394 269.687C200.292 268.327 204.102 264.789 205.735 260.163C201.653 256.625 196.483 255.536 191.856 256.897Z" fill="#006A4E"/>
<path d="M24.4923 209.545C20.4103 209.545 17.4168 212.539 16.8725 216.349L24.4923 224.241L32.1122 216.621C31.84 212.811 28.5744 209.545 24.4923 209.545Z" fill="#F9F9F4"/>
<path d="M105.317 184.781C115.114 184.781 123.278 176.889 123.278 166.82C123.278 157.023 115.386 148.859 105.317 148.859C95.5199 148.859 87.3558 156.751 87.3558 166.82C87.6279 176.889 95.5199 184.781 105.317 184.781Z" fill="#072119"/>
<path d="M173.623 103.956V115.386C170.085 110.488 164.37 107.222 158.111 106.133C161.105 103.956 163.282 100.963 164.37 97.425L164.915 96.0643L163.826 94.9758C159.472 90.8937 153.213 89.533 147.498 90.8937C145.593 91.438 143.96 92.2544 142.327 93.3429C142.327 91.438 142.327 89.533 141.783 87.6281C140.15 81.9132 135.796 77.2869 130.081 75.3819L128.721 74.8376L127.632 75.9262C123.55 80.2804 122.189 86.5395 123.55 92.2544C123.55 92.5265 123.822 92.7987 123.822 93.0708C118.379 90.3494 112.12 88.7166 105.589 88.7166C99.0577 88.7166 92.7986 90.3494 87.3558 93.0708C87.3558 92.7987 87.628 92.5265 87.628 92.2544C89.2608 86.5395 87.628 80.2804 83.5459 75.9262L82.4574 74.8376L81.0967 75.3819C75.3818 77.2869 71.0276 81.9132 69.3948 87.6281C68.8506 89.533 68.8506 91.438 68.8506 93.3429C67.2177 92.2544 65.5849 91.438 63.68 90.8937C57.9651 89.2609 51.706 90.8937 47.3518 94.9758L46.2632 96.0643L46.8075 97.425C47.896 100.963 50.0731 103.956 53.0666 106.133C46.8075 107.222 41.3648 110.488 37.5549 115.386V103.956H11.974V217.437V218.526L24.4923 231.044L37.0106 218.526C40.5484 223.424 46.2632 226.962 52.5224 228.051C49.5289 230.228 47.3518 233.221 46.2632 236.759L45.719 238.12L46.8075 239.208C50.0731 242.202 54.4273 243.834 58.5094 243.834C60.1422 243.834 61.5029 243.562 63.1357 243.29C65.0406 242.746 66.6735 241.929 68.3063 240.841C68.3063 242.746 68.3063 244.651 68.8506 246.556C70.4834 252.271 74.8376 256.897 80.5524 258.802L81.9131 259.346L83.0016 258.258C87.0837 253.903 88.4444 247.644 87.0837 241.929C87.0837 241.657 86.8116 241.385 86.8116 241.113C92.2543 243.834 98.5134 245.467 105.045 245.467C111.576 245.467 117.835 243.834 123.278 241.113C123.278 241.385 123.006 241.657 123.006 241.929C121.373 247.644 123.006 253.903 127.088 258.258L128.176 259.346L129.537 258.802C135.252 256.897 139.606 252.271 141.239 246.556C141.783 244.651 141.783 242.746 141.783 240.841C143.416 241.929 145.049 242.746 146.954 243.29C148.587 243.562 149.947 243.834 151.58 243.834C155.934 243.834 160.016 242.202 163.282 239.208L164.37 238.12V236.759C163.282 233.221 161.105 230.228 158.111 228.051C164.37 226.962 170.085 223.696 173.623 218.526L186.141 231.044L198.932 218.254V103.956H173.623ZM16.6003 122.189H22.0431V204.919C20.1381 205.191 18.2332 206.28 16.6003 207.368V122.189ZM24.4923 224.241L16.6003 216.349C17.1446 212.539 20.4103 209.545 24.4923 209.545C28.5744 209.545 31.84 212.539 32.1121 216.621L24.4923 224.241ZM32.3843 129.537V204.375V207.64C30.7514 206.28 28.8465 205.463 26.9415 204.919V122.189H32.3843V129.537ZM32.3843 117.563H16.6003V108.855H32.3843V117.563ZM148.587 95.52C152.396 94.4315 156.206 95.2479 159.2 97.425C157.567 100.963 154.574 103.412 151.036 104.501C147.226 105.589 143.416 104.773 140.422 102.596C142.055 99.0578 145.049 96.3364 148.587 95.52ZM130.081 80.2804C133.619 81.9132 136.068 84.9067 137.157 88.4445C138.245 92.2544 137.429 96.0643 135.252 99.0578C131.714 97.425 129.265 94.4315 128.176 90.8937C127.088 87.3559 127.904 83.546 130.081 80.2804ZM74.0211 88.7166C75.1097 84.9067 77.5589 81.9132 81.0967 80.5525C83.2738 83.546 84.0902 87.6281 83.0016 91.1658C81.9131 94.9757 79.4639 97.9692 75.9261 99.3299C73.749 96.3364 72.9326 92.2544 74.0211 88.7166ZM51.706 97.425C54.6995 95.2479 58.7815 94.4315 62.3193 95.52C66.1292 96.6086 69.1227 99.0578 70.4834 102.596C67.4899 104.773 63.4078 105.589 59.87 104.501C56.3323 103.14 53.3388 100.691 51.706 97.425ZM37.2827 143.96C41.6369 149.675 48.4403 153.485 56.3323 153.485C52.5224 157.023 49.2567 161.105 46.2632 165.731L45.4468 167.092L46.2632 168.453C49.2567 173.079 52.5224 176.889 56.3323 180.699C48.4403 180.699 41.6369 184.509 37.2827 190.224V143.96ZM132.803 167.092C132.803 182.332 120.556 194.578 105.317 194.578C90.0772 194.578 77.8311 182.332 77.8311 167.092C77.8311 151.852 90.0772 139.606 105.317 139.606C120.556 139.606 132.803 151.852 132.803 167.092ZM124.639 141.239C138.517 145.593 151.036 154.574 159.472 167.092C151.036 179.61 138.79 188.591 124.639 192.945C132.53 186.958 137.701 177.705 137.701 167.092C137.701 156.479 132.53 147.226 124.639 141.239ZM118.107 199.748C118.107 199.748 118.379 199.748 118.107 199.748C118.379 199.748 118.107 199.748 118.107 199.748ZM92.5264 199.476C92.5264 199.476 92.2543 199.476 92.5264 199.476C92.2543 199.476 92.5264 199.476 92.5264 199.476ZM73.2047 167.092C73.2047 177.705 78.3753 186.958 86.2673 192.945C72.3883 188.591 59.87 179.61 51.4338 167.092C59.87 154.574 72.1162 145.593 86.2673 141.239C78.3753 147.226 73.2047 156.479 73.2047 167.092ZM62.3193 238.664C58.5094 239.48 54.6995 238.936 51.706 236.759C53.3388 233.221 56.3323 230.772 59.87 229.683C63.68 228.595 67.4899 229.411 70.4834 231.588C68.8506 235.126 65.8571 237.575 62.3193 238.664ZM80.8246 253.631C77.2868 251.999 74.8376 249.005 73.749 245.467C72.6605 241.657 73.4769 237.847 75.654 234.854C79.1917 236.487 81.641 239.48 82.7295 243.018C83.8181 246.556 83.0017 250.638 80.8246 253.631ZM136.885 245.467C135.796 249.277 133.347 252.271 129.809 253.631C127.632 250.638 126.816 246.556 127.904 243.018C128.993 239.208 131.442 236.215 134.98 234.854C137.157 237.847 137.973 241.657 136.885 245.467ZM159.2 236.759C156.206 238.936 152.124 239.752 148.587 238.664C144.777 237.575 141.783 235.126 140.422 231.588C143.416 229.411 147.498 228.595 151.036 229.683C154.574 230.772 157.567 233.221 159.2 236.759ZM154.574 223.424C149.947 223.424 145.593 221.791 142.055 218.798L139.606 216.621L138.245 219.614C132.258 232.405 119.468 240.569 105.589 240.569C91.71 240.569 78.6475 232.405 72.9326 219.614L71.5719 216.621L69.1227 218.798C65.5849 221.791 61.2307 223.424 56.6044 223.424C45.9911 223.424 37.5549 214.988 37.5549 204.375C37.5549 193.761 45.9911 185.325 56.6044 185.325C57.9651 185.325 59.0536 185.325 60.4143 185.597C61.775 185.869 63.1357 186.414 64.4964 186.958C66.6735 188.591 68.8506 189.951 71.0276 191.04C63.1357 191.856 56.0601 196.755 52.5224 204.375L56.8765 206.28C59.87 199.748 66.4013 195.666 73.4769 195.666C79.736 195.666 85.723 198.932 88.9887 204.375C86.8116 206.552 84.9066 209.001 83.8181 211.722L88.1722 213.627C91.4379 206.552 98.5134 202.198 106.133 202.198C113.753 202.198 120.829 206.824 124.094 213.627L128.448 211.722C127.088 209.001 125.183 206.28 123.006 204.375C126.271 199.204 132.258 195.938 138.517 195.938C145.593 195.938 152.124 200.02 155.118 206.552L159.472 204.647C155.934 197.299 148.859 192.401 140.967 191.312C143.144 189.951 145.321 188.591 147.498 187.23C148.859 186.686 150.219 186.141 151.58 185.869C152.669 185.597 154.029 185.597 155.39 185.597C166.003 185.597 174.439 194.033 174.439 204.647C173.623 214.988 165.187 223.424 154.574 223.424ZM173.623 189.951C169.269 184.237 162.465 180.427 154.574 180.427C158.383 176.889 161.649 172.807 164.643 168.18L165.459 166.82L164.643 165.459C161.649 161.105 158.383 157.023 154.574 153.213C162.465 153.213 169.269 149.403 173.623 143.688V189.951ZM154.574 148.587C153.213 148.587 152.124 148.587 150.764 148.314C149.403 148.042 148.042 147.498 146.954 146.954C144.777 145.321 142.6 143.96 140.422 142.6C148.314 141.783 155.39 136.885 158.928 129.265L154.574 127.36C151.58 133.891 145.049 137.973 137.973 137.973C131.714 137.973 125.727 134.708 122.461 129.265C124.639 127.088 126.543 124.639 127.632 121.917L123.278 120.012C120.012 127.088 112.937 131.442 105.317 131.442C97.697 131.442 90.6215 126.816 87.3558 120.012L83.0016 121.917C84.3623 124.639 86.2673 127.36 88.4444 129.265C85.1787 134.436 79.1917 137.701 72.9326 137.701C65.8571 137.701 59.3258 133.619 56.3323 127.088L51.9781 128.993C55.5159 136.34 62.3193 141.239 70.4834 142.055C68.3063 143.416 66.1292 144.777 63.9521 146.41C62.5914 146.954 61.5029 147.498 60.1422 147.77C59.0536 148.042 57.693 148.042 56.3323 148.042C45.719 148.042 37.2827 139.606 37.2827 128.993C37.2827 118.379 45.719 109.943 56.3323 109.943C60.9586 109.943 65.3128 111.576 68.8506 114.57L71.2998 116.747L72.6605 113.753C78.6475 100.963 91.4379 92.7987 105.317 92.7987C119.196 92.7987 132.258 100.963 137.973 113.753L139.334 116.747L141.783 114.57C145.321 111.576 149.675 109.943 154.301 109.943C164.915 109.943 173.351 118.379 173.351 128.993C173.623 140.15 165.187 148.587 154.574 148.587ZM178.522 204.375V129.537V122.189H183.964V204.919C182.059 205.191 180.154 206.28 178.522 207.368V204.375ZM186.413 224.241L178.522 216.349C179.066 212.539 182.331 209.545 186.141 209.545C190.223 209.545 193.489 212.539 193.761 216.621L186.413 224.241ZM194.305 207.64C192.673 206.28 190.768 205.463 188.863 204.919V122.189H194.305V207.64ZM194.305 117.563H178.522V108.855H194.305V117.563Z" fill="#072119"/>
<path d="M209.817 77.5598L210.906 76.4713L210.634 75.1106C208.729 68.035 203.286 62.5923 196.483 60.9595C193.761 60.1431 191.04 60.1431 188.318 60.4152C189.951 58.2381 191.312 55.7889 192.128 53.0675C194.033 46.2641 191.856 38.6443 186.958 33.7459L185.869 32.6573L184.509 32.9294C181.243 33.7459 178.521 35.3787 176.072 37.5558C178.249 35.1065 179.882 32.3852 180.699 29.1195L180.971 27.7589L179.882 26.6703C174.984 22.044 167.364 19.8669 160.561 21.7718C157.839 22.5883 155.39 23.6768 153.213 25.5818C153.757 22.8604 153.485 20.139 152.669 17.4177C150.764 10.6143 145.321 5.17152 138.517 3.26657L137.157 2.72229L136.068 3.81084C133.619 5.98793 131.986 8.98143 131.17 11.9749C131.714 8.98143 131.714 5.71579 130.898 2.45016L130.625 1.08947L129.265 0.817337C122.461 -1.08762 114.842 0.817337 109.943 5.98793C108.038 7.89289 106.405 10.3421 105.589 12.7913C104.5 10.3421 103.14 7.89289 101.235 5.98793C96.0642 0.817337 88.7165 -1.08762 81.9131 0.817337L80.5524 1.08947L80.2802 2.45016C78.9196 5.44366 78.9195 8.7093 79.736 11.9749C78.6474 8.98143 77.0146 6.26007 74.8375 3.81084L73.749 2.72229L72.3883 2.99443C65.3127 4.89938 59.87 10.3421 58.2372 17.4177C57.4208 20.139 57.4208 22.8604 57.6929 25.5818C55.5158 23.9489 53.0666 22.5883 50.3452 21.7718C43.5418 19.8669 35.922 22.044 31.0235 26.9424L29.935 28.031L30.2071 29.3917C31.0235 32.6573 32.6563 35.3787 34.8334 37.8279C32.3842 35.6508 29.6628 34.018 26.3972 33.2016L25.0365 32.9294L23.948 34.018C19.0495 38.9164 17.1446 46.2641 19.0495 53.0675C19.8659 55.7889 20.9545 58.2381 22.8594 60.4152C20.1381 59.871 17.4167 60.1431 14.6953 60.9595C7.89193 62.8645 2.4492 68.3072 0.544243 75.1106L-3.05176e-05 76.4713L1.08852 77.5598C4.89843 81.3697 10.069 83.5468 15.2396 83.5468C16.056 83.5468 16.8724 83.5468 17.6888 83.2747C16.6003 87.3567 15.7839 91.7109 15.2396 96.0651H8.98047H4.08202V100.964V219.615V221.52L5.4427 223.153L14.9675 232.678V237.576V237.848C15.5118 242.475 16.3282 247.101 17.4167 251.455C11.4297 250.911 5.4427 253.088 1.08852 257.442L-3.05176e-05 258.258L0.272106 259.619C2.17706 266.695 7.61979 272.137 14.4232 273.77C16.056 274.315 17.961 274.315 19.5938 274.315C20.6823 274.315 21.4988 274.315 22.5873 274.042C20.9545 276.219 19.5938 278.669 18.7774 281.39C16.8724 288.193 19.0495 295.813 23.948 300.712L25.0365 301.8L26.3972 301.528C29.6628 300.712 32.3842 299.079 34.8334 296.902C32.6563 299.351 31.0235 302.072 30.2071 305.338L29.935 306.699L31.0235 307.787C34.8334 311.597 40.004 313.774 45.1746 313.774C46.8074 313.774 48.7124 313.502 50.3452 313.23C53.0666 312.414 55.5158 311.325 57.6929 309.42C57.1486 312.141 57.4208 314.863 58.2372 317.584C60.1421 324.388 65.5849 329.83 72.3883 331.735L73.749 332.007L74.8375 330.919C77.2867 328.742 78.9195 325.748 79.736 322.755C79.1917 325.748 79.1917 329.014 80.0081 332.28L80.2802 333.64L81.6409 333.912C83.2737 334.457 85.1787 334.729 86.8115 334.729C91.9821 334.729 97.1527 332.552 100.963 329.014C102.868 327.109 104.5 324.66 105.317 322.211C106.405 324.66 107.766 327.109 109.671 329.014C113.481 332.824 118.651 334.729 123.822 334.729C125.455 334.729 127.36 334.457 128.993 333.912L130.353 333.64L130.625 332.28C131.442 329.014 131.442 325.748 130.898 322.755C131.986 325.748 133.619 328.47 135.796 330.919L136.885 332.007L138.245 331.735C145.321 329.83 150.764 324.388 152.396 317.584C153.213 314.863 153.213 312.141 152.941 309.42C155.118 311.053 157.567 312.414 160.288 313.23C161.921 313.774 163.826 313.774 165.459 313.774C170.63 313.774 175.8 311.597 179.61 307.787L180.699 306.699L180.426 305.338C179.61 302.072 177.977 299.351 175.8 296.902C178.249 299.079 180.971 300.712 184.236 301.528L185.597 301.8L186.686 300.712C191.856 295.541 193.761 288.193 191.856 281.39C191.04 278.669 189.951 276.219 188.046 274.042C189.135 274.315 189.951 274.315 191.04 274.315C192.673 274.315 194.578 274.042 196.21 273.77C203.014 271.865 208.457 266.423 210.361 259.619L210.634 258.258L209.545 257.17C205.191 252.816 198.932 250.639 192.945 251.455C194.033 246.829 194.85 242.202 195.394 237.304V232.406L204.919 222.881L206.279 221.52V219.615V100.964V96.0651H201.381H195.122C194.578 91.7109 193.761 87.3567 192.673 83.2747C193.489 83.2747 194.305 83.5468 194.85 83.5468C200.837 83.5468 206.007 81.3697 209.817 77.5598ZM184.236 38.3722C187.502 42.1821 188.591 47.3527 187.23 51.979C186.413 54.7004 185.053 57.1496 183.148 59.0546C182.059 60.1431 180.699 61.2316 179.066 61.7759C178.522 62.048 178.249 62.3202 177.705 62.3202C175.8 60.1431 174.712 57.4217 174.439 54.7004C174.167 52.7954 174.167 50.6183 174.712 48.7134C174.712 48.4412 174.984 48.1691 174.984 47.8969C176.617 43.2706 179.882 39.7329 184.236 38.3722ZM171.446 43.8149C170.902 43.2706 170.357 42.7264 170.085 42.1821C171.718 41.3657 173.351 40.2771 174.712 38.9164C173.351 40.5493 172.262 41.91 171.446 43.8149ZM152.396 34.018C153.213 32.6573 154.029 31.2966 155.39 30.2081C157.295 28.5753 159.472 27.2146 161.921 26.3982C166.82 25.0375 171.718 26.3982 175.528 29.3917C173.895 33.7459 170.63 37.0115 166.275 38.6443C166.003 38.6443 165.459 38.9164 165.187 38.9164C163.282 39.4607 161.649 39.4607 159.744 39.4607C156.751 39.1886 153.757 37.8279 151.308 35.9229C151.58 35.3787 151.852 34.5623 152.396 34.018ZM169.813 48.9855C169.541 50.3462 169.541 51.979 169.541 53.3397C166.82 50.074 163.826 47.0805 160.561 44.087C160.833 44.087 161.105 44.087 161.377 44.087C162.465 44.087 163.826 43.8149 164.915 43.8149C166.548 45.4477 168.18 47.3527 169.813 48.9855ZM138.517 8.16502C143.144 9.79784 146.682 13.6078 148.042 18.5062C148.587 20.9554 148.587 23.6768 148.042 25.8539C147.77 27.4867 146.954 28.8474 146.137 30.2081C145.865 30.7524 145.321 31.2966 144.777 31.8409C141.783 30.7523 139.062 28.5753 137.429 26.126C136.612 24.7653 135.796 23.1325 135.252 21.4997C135.252 20.9554 134.98 20.4112 134.98 19.8669C134.708 16.057 135.796 11.7028 138.517 8.16502ZM131.17 24.2211C131.714 25.5818 132.258 26.9424 133.075 28.3031C129.265 26.9424 125.455 25.8539 121.373 25.0375C122.734 24.2211 123.822 23.4047 125.183 22.3161C127.36 23.1325 129.265 23.6768 131.17 24.2211ZM130.898 13.8799C130.625 15.5127 130.353 17.1455 130.353 19.0505C129.809 18.7783 129.265 18.7783 128.721 18.5062C129.537 16.8734 130.353 15.5127 130.898 13.8799ZM109.671 15.5127C110.487 13.0635 111.576 10.8864 113.481 9.25357C117.019 5.71579 121.917 4.08298 126.816 5.17152C127.632 9.52571 126.271 13.8799 123.55 17.4177C123.278 17.6898 123.006 18.2341 122.461 18.5062C121.373 19.5948 120.012 20.6833 118.379 21.2276C115.386 22.5883 112.12 23.1325 108.855 22.5883C108.855 21.7718 108.855 21.2276 108.855 20.4112C108.855 18.7783 109.127 17.1455 109.671 15.5127ZM105.589 28.5753C145.049 28.5753 177.977 57.4217 183.42 96.0651H173.351L174.167 93.3438L171.99 91.1667L169.269 88.7174C168.725 88.1732 168.18 87.901 167.908 87.6289C163.826 56.3332 137.429 32.9294 105.861 32.9294C74.0211 32.9294 47.6239 56.3332 43.8139 87.6289C43.2697 87.901 42.7254 88.4453 42.4533 88.7174L39.7319 91.1667L37.5548 93.3438L38.3712 96.0651H28.3022C32.9285 57.4217 65.857 28.5753 105.589 28.5753ZM50.6174 77.5598C52.2502 72.9335 54.1551 68.3072 56.8765 64.2251L63.6799 68.035C61.775 71.3007 60.4143 75.1106 59.3257 78.9205L50.6174 77.5598ZM53.0666 83.0026C51.4338 83.2747 50.0731 83.819 48.7124 84.3632C48.9845 83.5468 48.9845 83.0026 49.2567 82.1861L53.0666 83.0026ZM59.5979 60.4152C62.3192 56.6053 65.857 53.3397 69.3948 50.3462L73.749 55.5168C70.7555 57.966 68.3062 60.9595 66.1291 64.2251L59.5979 60.4152ZM73.2047 47.6248C77.0146 45.1756 81.0966 42.9985 85.1787 41.3657L87.3558 47.0805C83.818 48.4412 80.5524 50.3462 77.2867 52.5233L73.2047 47.6248ZM105.589 48.4412C125.455 48.4412 142.055 61.5038 147.226 80.0091C144.232 74.2942 139.062 69.6679 132.53 67.7629L129.265 66.6744L126.271 65.5858L124.094 68.035L121.645 70.7564C118.651 74.0221 116.747 77.832 115.658 82.1861C112.392 81.3697 108.855 81.0976 105.317 81.0976C101.779 81.0976 98.5134 81.3697 94.9756 82.1861C93.8871 78.1041 91.9821 74.0221 88.9886 70.7564L86.5394 68.035L84.3623 65.5858L81.3688 66.6744L78.1031 67.7629C71.5719 69.94 66.4013 74.2942 63.4078 80.0091C68.8505 61.5038 85.723 48.4412 105.589 48.4412ZM89.805 40.005C93.8871 38.9164 98.5134 38.1 102.868 37.8279V43.5428C99.0577 43.8149 95.2477 44.3592 91.71 45.4477L89.805 40.005ZM107.766 43.8149V38.1C112.392 38.3722 116.747 38.9164 120.829 40.2771L118.924 45.7199C115.386 44.6313 111.576 43.8149 107.766 43.8149ZM123.55 47.0805L125.727 41.3657C130.081 42.9985 134.163 44.9035 137.701 47.6248L133.619 52.5233C130.353 50.3462 127.088 48.7134 123.55 47.0805ZM145.049 64.2251C142.872 60.9595 140.15 58.2381 137.429 55.5168L141.783 50.3462C145.321 53.3397 148.859 56.6053 151.58 60.4152L145.049 64.2251ZM154.301 64.4973C157.023 68.5793 158.928 72.9335 160.561 77.832L151.852 79.4648C150.764 75.6549 149.403 72.1171 147.498 68.5793L154.301 64.4973ZM161.649 82.1861C161.921 83.0026 161.921 83.5468 162.193 84.3632C160.833 83.819 159.2 83.2747 157.839 83.0026L161.649 82.1861ZM39.4598 43.8149C38.6434 42.1821 37.5548 40.5493 36.1941 39.1886C37.5548 40.5493 39.1876 41.3657 40.8204 42.4542C40.2762 42.7264 40.004 43.2706 39.4598 43.8149ZM41.0926 48.9855C42.7254 47.3527 44.3582 45.4477 45.991 43.8149C47.0796 44.087 48.4403 44.087 49.5288 44.087C49.8009 44.087 50.0731 44.087 50.3452 44.087C47.0796 46.8084 44.0861 50.074 41.3647 53.3397C41.6369 51.979 41.3647 50.3462 41.0926 48.9855ZM84.0901 5.17152C88.9886 4.35511 93.8871 5.98793 97.4248 9.25357C99.3298 11.1585 100.418 13.3356 101.235 15.5127C101.779 17.1455 102.051 18.7783 101.779 20.4112C101.779 21.2276 101.779 22.044 101.507 22.5883C98.2412 23.1325 94.9756 22.5883 91.9821 21.2276C90.6214 20.4112 89.2607 19.5948 87.9001 18.5062C87.6279 18.2341 87.0836 17.6898 86.8115 17.4177C84.6344 13.8799 83.5459 9.25357 84.0901 5.17152ZM82.1852 18.5062C81.6409 18.7783 81.0966 18.7783 80.5524 19.0505C80.5524 17.4177 80.5524 15.5127 80.0081 13.8799C80.5524 15.5127 81.3688 16.8734 82.1852 18.5062ZM79.736 24.2211C81.6409 23.6768 83.818 23.1325 85.9951 22.5883C87.0836 23.6768 88.4443 24.4932 89.805 25.3096C85.723 26.126 81.9131 27.2146 78.1031 28.5753C78.6474 26.9424 79.1917 25.5818 79.736 24.2211ZM62.8635 18.5062C64.2242 13.6078 67.762 9.79784 72.3883 8.16502C75.1096 11.4307 76.4703 16.057 75.6539 20.4112C75.6539 20.9554 75.3818 21.4997 75.3818 22.044C74.8375 23.6768 74.2932 25.3096 73.2047 26.6703C71.2997 29.3917 68.8505 31.2966 65.857 32.3852C65.3127 31.8409 65.0406 31.2966 64.4963 30.7524C63.6799 29.3917 63.1356 27.7589 62.5914 26.3982C62.0471 23.6768 62.0471 20.9554 62.8635 18.5062ZM49.2567 26.3982C51.7059 26.9424 53.883 28.3031 55.788 30.2081C56.8765 31.2966 57.965 32.6573 58.7815 34.018C59.0536 34.5623 59.3257 35.3787 59.5979 35.9229C57.1486 37.8279 54.4273 39.1886 51.1616 39.4607C49.2567 39.7329 47.6239 39.4607 45.7189 38.9164C45.4468 38.9164 44.9025 38.6443 44.6304 38.6443C40.2762 37.0115 37.0105 33.7459 35.3777 29.3917C39.1876 26.3982 44.3582 25.0375 49.2567 26.3982ZM26.6693 38.3722C31.0235 40.005 34.2892 43.5428 35.922 47.8969C35.922 48.1691 36.1941 48.4412 36.1941 48.7134C36.7384 50.6183 36.7384 52.7954 36.4663 54.7004C36.1941 57.4217 34.8334 60.1431 33.2006 62.3202C32.6563 62.048 32.3842 62.048 31.8399 61.7759C30.4793 60.9595 29.1186 60.1431 27.7579 59.0546C25.8529 57.1496 24.4923 54.7004 23.6758 51.979C22.3152 47.0805 23.4037 41.91 26.6693 38.3722ZM5.4427 75.1106C7.07552 70.4843 10.8854 66.9465 15.7839 65.5858C18.5053 64.7694 21.4988 65.0415 24.2201 65.858C25.8529 66.4022 27.2136 66.9465 28.5743 68.035C28.8464 68.3072 29.3907 68.5793 29.6628 68.8515C28.8464 71.3007 27.4858 73.2056 25.5808 74.8385C23.948 76.4713 21.7709 77.5598 19.3217 78.3762C14.4232 79.4648 9.25261 78.1041 5.4427 75.1106ZM26.6693 79.7369C25.0365 84.9075 23.6758 90.3503 22.8594 96.0651H20.1381C20.6823 91.1667 21.7709 86.5403 22.8594 81.914C24.2201 81.3697 25.3087 80.5533 26.6693 79.7369ZM15.7839 269.416C10.8854 268.055 7.07552 264.518 5.4427 259.891C9.25261 256.626 14.1511 255.537 19.0495 256.898C21.4988 257.442 23.4037 258.803 25.3087 260.163C27.2136 261.796 28.5743 263.973 29.3907 266.15C29.1186 266.423 28.5743 266.695 28.3022 266.967C26.9415 267.783 25.5808 268.6 23.948 269.144C21.4988 269.96 18.5053 269.96 15.7839 269.416ZM19.8659 237.576L21.2266 238.937L23.1316 240.842C23.948 245.74 25.0365 250.639 26.6693 255.265C25.5808 254.449 24.2201 253.632 23.1316 253.088C21.4988 247.917 20.4102 242.747 19.8659 237.576ZM26.6693 296.63C23.4037 292.82 22.3152 287.649 23.6758 283.023C24.4923 280.302 25.8529 277.852 27.7579 275.947C28.8464 274.859 30.2071 273.77 31.8399 273.226C32.3842 272.954 32.6563 272.682 33.2006 272.682C35.1056 274.859 36.1941 277.58 36.4663 280.302C36.7384 282.206 36.7384 284.384 36.1941 286.289C36.1941 286.561 35.922 286.833 35.922 287.105C34.2892 291.459 31.0235 294.997 26.6693 296.63ZM39.4598 291.187C40.004 291.731 40.5483 292.276 40.8204 292.82C39.1876 293.636 37.5548 294.725 36.1941 296.085C37.5548 294.453 38.6434 292.82 39.4598 291.187ZM58.5093 300.712C57.6929 302.072 56.8765 303.433 55.5158 304.522C53.6109 306.155 51.4338 307.515 48.9845 308.332C44.0861 309.692 39.1876 308.332 35.3777 305.338C37.0105 300.984 40.2762 297.718 44.6304 296.085C44.9025 296.085 45.4468 295.813 45.7189 295.813C47.6239 295.269 49.2567 295.269 51.1616 295.269C54.1551 295.541 57.1486 296.902 59.5979 298.807C59.3257 299.623 59.0536 300.167 58.5093 300.712ZM41.0926 286.016C41.3647 284.656 41.3647 283.023 41.3647 281.662C44.0861 284.928 47.0796 287.921 50.3452 290.915C48.9845 290.915 47.3517 290.915 45.991 291.187C44.3582 289.282 42.7254 287.649 41.0926 286.016ZM72.3883 326.565C67.762 324.932 64.2242 321.122 62.8635 316.224C62.3192 313.774 62.3192 311.053 62.8635 308.876C63.1356 307.243 63.952 305.882 64.7685 304.522C65.0406 303.977 65.5849 303.433 66.1291 302.889C69.1226 303.977 71.844 306.155 73.4768 308.604C74.2932 309.964 75.1096 311.597 75.6539 313.23C75.6539 313.774 75.926 314.319 75.926 314.863C76.1982 318.673 75.1096 323.299 72.3883 326.565ZM79.736 310.781C79.1917 309.42 78.6474 308.059 77.831 306.699C81.6409 308.059 85.4508 309.148 89.5329 309.964C88.1722 310.781 87.0836 311.597 85.723 312.686C83.818 311.869 81.6409 311.325 79.736 310.781ZM80.0081 321.122C80.2802 319.489 80.5524 317.856 80.5524 315.951C81.0966 316.224 81.6409 316.224 82.1852 316.496C81.3688 317.856 80.5524 319.489 80.0081 321.122ZM101.235 319.217C100.418 321.666 99.3298 323.843 97.4248 325.476C93.8871 329.014 88.9886 330.647 84.0901 329.558C83.2737 325.204 84.3623 320.85 87.3558 317.312C87.6279 317.04 87.9001 316.496 88.4443 316.224C89.5329 315.135 90.8936 314.046 92.5264 313.502C95.5199 312.141 98.7855 311.597 102.051 312.141C102.051 312.958 102.323 313.774 102.323 314.319C102.051 316.224 101.779 317.856 101.235 319.217ZM105.317 306.427C65.857 306.427 32.9285 277.58 27.4858 239.209L27.7579 238.937L37.0105 229.684C37.8269 230.501 38.9155 231.045 40.004 231.589C39.7319 232.406 39.1876 233.494 38.9155 234.31L37.8269 237.576L36.7384 240.57L38.9155 242.747L41.6369 245.196C42.1811 245.468 42.4533 246.012 42.9975 246.284C46.5353 278.124 73.2047 301.8 105.317 301.8C137.429 301.8 164.098 277.852 167.636 246.284C168.18 246.012 168.452 245.468 168.997 245.196L171.718 242.747L173.895 240.57L172.807 237.576L171.718 234.31C171.446 233.494 171.174 232.406 170.63 231.589C171.718 231.045 172.535 230.228 173.623 229.684L182.876 238.937L183.148 239.209C177.705 277.58 144.777 306.427 105.317 306.427ZM160.288 257.17C158.656 261.796 156.751 266.423 154.029 270.505L147.498 266.695C149.403 263.429 150.764 259.619 151.852 255.809L160.288 257.17ZM155.118 251.455C157.567 251.183 160.016 250.367 162.193 249.55C161.921 250.639 161.921 251.727 161.649 252.816L155.118 251.455ZM137.157 279.213C140.15 276.764 142.6 273.77 144.777 270.505L151.308 274.315C148.586 278.124 145.049 281.39 141.511 284.384L137.157 279.213ZM137.701 287.377C133.891 289.826 129.809 292.003 125.727 293.636L123.55 287.921C127.088 286.561 130.353 284.656 133.619 282.479L137.701 287.377ZM105.317 286.561C84.9066 286.561 67.4898 272.41 63.1356 253.088C66.1291 259.347 71.5719 264.245 78.3753 266.423L81.6409 267.511L84.6344 268.6L86.8115 266.423L89.2607 263.701C92.2542 260.436 94.1592 256.626 95.2477 252.271C98.5134 253.088 102.051 253.36 105.589 253.36C109.127 253.36 112.392 253.088 115.93 252.271C117.019 256.354 118.924 260.436 121.917 263.701L124.366 266.423L126.543 268.872L129.537 267.783L132.803 266.695C139.606 264.518 145.049 259.619 148.042 253.36C143.144 272.41 125.999 286.561 105.317 286.561ZM121.101 294.997C117.019 296.085 112.392 296.902 108.038 297.174V291.187C111.848 290.915 115.658 290.371 119.196 289.282L121.101 294.997ZM103.14 291.187V296.902C98.5134 296.63 94.1592 296.085 90.0771 294.725L91.9821 289.282C95.5199 290.371 99.0577 290.915 103.14 291.187ZM77.2867 282.206C80.2802 284.384 83.818 286.289 87.3558 287.649L85.1787 293.364C80.8245 291.731 76.7425 289.826 73.2047 287.105L77.2867 282.206ZM69.3948 284.384C65.857 281.39 62.3192 278.124 59.5979 274.315L66.1291 270.505C68.3062 273.77 71.0276 276.492 73.749 279.213L69.3948 284.384ZM63.4078 266.695L56.6044 270.505C53.883 266.423 51.978 262.068 50.3452 257.17L59.0536 255.537C60.1421 259.619 61.5028 263.157 63.4078 266.695ZM49.2567 252.544C48.9845 251.455 48.7124 250.367 48.7124 249.278C50.8895 250.367 53.3387 250.911 55.788 251.183L49.2567 252.544ZM171.446 291.187C172.262 292.82 173.351 294.453 174.712 295.813C173.351 294.453 171.718 293.636 170.085 292.548C170.63 292.276 170.902 291.731 171.446 291.187ZM169.813 286.016C168.18 287.649 166.548 289.554 164.915 291.187C163.554 290.915 161.921 290.915 160.561 290.915C163.826 288.193 166.82 284.928 169.541 281.662C169.269 283.023 169.541 284.384 169.813 286.016ZM126.816 329.83C121.917 330.647 117.019 329.014 113.481 325.748C111.576 323.843 110.487 321.666 109.671 319.489C109.127 317.856 108.855 316.224 109.127 314.591C109.127 313.774 109.127 312.958 109.399 312.414C112.664 311.869 115.93 312.414 118.924 313.774C120.284 314.591 121.645 315.407 123.006 316.496C123.278 316.768 123.822 317.312 124.094 317.584C126.271 321.122 127.36 325.476 126.816 329.83ZM128.721 316.496C129.265 316.224 129.809 316.224 130.353 315.951C130.353 317.584 130.353 319.489 130.898 321.122C130.353 319.489 129.537 317.856 128.721 316.496ZM131.17 310.781C129.265 311.325 127.088 311.869 124.911 312.414C123.822 311.325 122.461 310.509 121.101 309.692C125.183 308.876 128.993 307.787 132.803 306.427C132.258 307.787 131.714 309.148 131.17 310.781ZM148.042 316.224C146.682 321.122 143.144 324.932 138.517 326.565C135.796 323.299 134.435 318.673 135.252 314.319C135.252 313.774 135.524 313.23 135.524 312.686C136.068 311.053 136.612 309.42 137.701 308.059C139.606 305.338 142.055 303.433 145.049 302.345C145.593 302.889 145.865 303.433 146.409 303.977C147.226 305.338 147.77 306.971 148.314 308.332C148.859 311.325 148.859 313.774 148.042 316.224ZM161.649 308.332C159.2 307.787 157.023 306.427 155.118 304.522C154.029 303.433 152.941 302.072 152.124 300.712C151.852 300.167 151.58 299.351 151.308 298.807C153.757 296.902 156.478 295.541 159.744 295.269C161.649 294.997 163.282 295.269 165.187 295.813C165.459 295.813 166.003 296.085 166.275 296.085C170.63 297.718 173.895 300.984 175.528 305.338C171.718 308.604 166.548 309.692 161.649 308.332ZM184.236 296.63C179.882 294.997 176.617 291.459 174.984 287.105C174.984 286.833 174.712 286.561 174.712 286.289C174.167 284.384 174.167 282.206 174.439 280.302C174.712 277.58 176.072 274.859 177.705 272.682C178.249 272.954 178.522 272.954 179.066 273.226C180.426 274.042 181.787 274.859 183.148 275.947C185.053 277.852 186.686 280.302 187.23 283.023C188.591 287.649 187.502 292.82 184.236 296.63ZM205.463 259.891C203.83 264.518 200.02 268.055 195.122 269.416C192.4 270.232 189.407 269.96 186.686 269.144C185.053 268.6 183.692 268.055 182.331 266.967C182.059 266.695 181.515 266.423 181.243 266.15C182.059 263.701 183.42 261.796 185.325 260.163C186.958 258.531 189.135 257.442 191.584 256.626C196.483 255.537 201.653 256.626 205.463 259.891ZM184.236 254.993C185.869 250.367 186.958 245.468 187.774 240.57L189.679 238.665L191.04 237.304C190.496 242.747 189.407 247.917 188.046 252.816C186.686 253.632 185.325 254.176 184.236 254.993ZM201.925 100.964V219.615L186.141 235.399L173.895 223.153C171.174 226.146 167.636 228.323 163.826 229.684C165.187 231.589 166.275 233.766 167.092 235.943L168.18 239.209L165.459 241.658C161.649 245.196 156.478 247.101 151.58 247.101C149.947 247.101 148.042 246.829 146.409 246.284C145.865 246.012 145.321 246.012 144.777 245.74C144.777 246.284 144.504 246.829 144.504 247.373C142.599 254.176 137.701 259.619 130.898 261.796L127.632 262.885L125.183 260.163C121.645 256.081 119.74 251.183 119.74 246.012C115.114 247.645 110.215 248.462 105.317 248.462C100.418 248.462 95.5199 247.645 90.8936 246.012C90.8936 251.183 88.9886 256.354 85.4508 260.163L83.0016 262.885L79.736 261.796C72.9325 259.619 68.0341 254.176 66.1291 247.373C65.857 246.829 65.857 246.284 65.857 245.74C65.3127 246.012 64.7685 246.012 64.2242 246.284C62.5914 246.829 60.6864 247.101 59.0536 247.101C53.883 247.101 48.9845 245.196 45.1746 241.658L42.4533 239.209L43.5418 235.943C44.3582 233.766 45.4468 231.589 46.8074 229.684C42.9975 228.323 39.7319 226.146 36.7384 223.153L24.4923 235.399L8.70834 219.615V100.964H40.004V108.039C41.909 106.406 44.3582 105.318 46.5353 104.501C45.1746 102.596 44.0861 100.419 43.2697 98.2422L42.1811 94.9766L44.9025 92.5273C48.7124 88.9896 53.6109 87.0846 58.7815 87.0846C60.6864 87.0846 62.3192 87.3567 64.2242 87.901C64.7685 88.1732 65.3127 88.1732 65.857 88.4453C65.857 87.901 66.1291 87.3567 66.1291 86.8125C68.0341 80.0091 72.9325 74.5663 79.736 72.3892L83.0016 71.3007L85.4508 74.0221C88.9886 78.1041 90.8936 83.0026 90.8936 88.1732C95.5199 86.5403 100.418 85.7239 105.317 85.7239C110.215 85.7239 115.114 86.5403 119.74 88.1732C119.74 83.0026 121.645 77.832 125.183 74.0221L127.632 71.3007L130.898 72.3892C137.701 74.5663 142.599 80.0091 144.504 86.8125C144.777 87.3567 144.777 87.901 144.777 88.4453C145.321 88.1732 145.865 88.1732 146.409 87.901C148.314 87.3567 149.947 87.0846 151.852 87.0846C157.023 87.0846 161.921 88.9896 165.731 92.5273L168.452 94.9766L167.364 98.2422C166.548 100.419 165.459 102.596 164.098 104.501C166.548 105.318 168.725 106.678 170.63 108.039V100.964H201.925ZM184.236 79.7369C185.325 80.5533 186.686 81.3697 187.774 81.914C189.135 86.5403 189.951 91.1667 190.768 96.0651H188.046C187.502 90.3503 186.141 84.9075 184.236 79.7369ZM191.856 78.1041C189.407 77.5598 187.23 76.1991 185.597 74.5663C183.692 72.9335 182.331 70.7564 181.515 68.5793C181.787 68.3072 182.331 68.035 182.604 67.7629C183.964 66.9465 185.325 66.1301 186.958 65.5858C189.679 64.7694 192.4 64.7694 195.122 65.3137C200.02 66.6744 203.83 70.2121 205.463 74.8385C201.653 78.1041 196.755 79.4648 191.856 78.1041Z" fill="#072119"/>
<path d="M132.258 266.15L128.993 267.238L125.999 268.327L123.822 265.877L121.373 263.156C118.379 259.89 116.474 256.081 115.386 251.726C112.392 252.815 108.855 253.087 105.317 253.087C101.779 253.087 98.5134 252.815 94.9757 251.998C93.8871 256.08 91.9822 260.163 88.9887 263.428L86.5394 266.15L84.3623 268.327L81.3688 267.238L78.1032 266.15C71.2998 263.972 65.8571 259.074 62.8636 252.815C67.2177 272.409 84.3623 286.288 105.045 286.288C125.455 286.288 142.6 272.137 147.226 252.815C144.505 259.346 139.062 263.972 132.258 266.15Z" fill="#F9F9F4"/>
<path d="M105.589 48.4404C85.723 48.4404 69.1226 61.503 63.9521 80.0083C66.9456 74.2934 72.1161 69.9392 78.6474 67.7621L81.9131 66.6736L84.9066 65.585L87.0837 68.0343L89.5329 70.7556C92.5264 74.0213 94.4313 77.8312 95.5199 82.1854C98.7855 81.3689 102.323 81.0968 105.861 81.0968C109.399 81.0968 112.664 81.3689 116.202 82.1854C117.291 78.1033 119.196 74.0213 122.189 70.7556L124.638 68.0343L126.816 65.8572L129.809 66.9457L133.075 68.0343C139.606 70.2114 144.777 74.5655 147.77 80.2804C142.055 61.7751 125.183 48.4404 105.589 48.4404Z" fill="#F9F9F4"/>
</g>
<defs>
<clipPath id="clip0">
<rect width="210.906" height="335" fill="white"/>
</clipPath>
</defs>
</svg>
