<svg width="116" height="170" viewBox="0 0 116 170" fill="none" xmlns="http://www.w3.org/2000/svg">
<circle cx="57.8619" cy="57.8619" r="57.8619" fill="#006A4E"/>
<g clip-path="url(#clip0_3064_5263)">
<path d="M96.1045 156.193C97.6986 154.862 98.7158 152.86 98.7158 150.623C98.7158 145.978 95.0916 143.891 92.1792 142.212C91.8865 142.044 91.5959 141.878 91.3116 141.707C89.9828 140.921 88.6814 140.048 87.4473 139.115C86.2175 138.184 85.0277 137.173 83.9095 136.11C83.3367 135.564 82.7744 134.996 82.2332 134.421C82.1637 134.347 81.951 134.107 81.692 133.816L84.1727 130.82L84.2464 130.689C84.716 129.857 84.7855 128.893 84.4612 128.023C87.2431 126.406 89.1489 123.415 89.2099 120V119.924L89.2057 119.848C89.1741 119.41 89.1468 118.97 89.1194 118.53C88.9699 116.066 88.894 113.655 88.894 111.366C88.894 101.782 89.888 92.4278 91.7664 84.3182C92.1855 82.5135 92.653 80.7467 93.1563 79.0662C95.8455 70.11 95.5591 60.7979 92.3519 52.8441C89.7869 46.4865 85.531 40.9291 80.041 36.7764C77.3961 34.7758 74.3931 33.0869 71.1164 31.7581C69.8171 31.2317 67.606 30.5747 65.2032 29.9998C64.6241 29.8608 64.1187 29.7449 63.6722 29.6502C63.0426 29.5154 62.594 28.9616 62.594 28.3172V21.0541C62.594 20.1717 62.2044 19.3146 61.4906 18.7945C60.6903 18.2112 59.6606 18.1122 58.7719 18.5249C54.0927 20.6961 50.618 24.8741 49.2871 29.8502C46.221 30.3304 44.3426 32.3794 43.1528 33.9777L25.491 56.1397C25.4825 56.1524 25.472 56.1629 25.4636 56.1755C23.9621 57.9697 23.244 60.2462 23.4462 62.5879C23.8084 66.8206 27.2767 70.2595 31.5137 70.588C32.674 70.6786 33.8175 70.5438 34.9105 70.1921L35.5464 69.9857L35.8686 69.4003C37.6544 66.151 40.7247 63.7482 44.292 62.8069C45.0165 62.6489 45.8083 62.6426 46.4906 62.7774C46.6295 62.8048 46.8064 62.8637 46.996 62.9248C47.175 62.9838 47.3771 63.0512 47.5982 63.108C48.6006 63.3691 49.6304 63.5018 50.6559 63.5018C53.7916 63.5018 56.725 62.3057 58.9383 60.282C58.4771 64.778 56.9946 69.1118 54.5812 72.9634C54.3222 73.3151 53.3262 74.6376 51.8963 76.2296C50.0958 78.2028 48.0152 79.8496 45.8104 81.5911C44.0857 82.9557 42.302 84.3645 40.6658 85.9481C32.6403 93.7082 27.8348 104.564 27.4747 115.738V115.748C27.4115 116.774 27.4199 117.789 27.4262 118.772C27.4284 119.088 27.4305 119.404 27.4305 119.72C27.4305 123.287 29.4226 126.532 32.4635 128.208C32.215 129.03 32.3055 129.916 32.7414 130.691L32.8151 130.822L35.2958 133.818C35.0389 134.109 34.8241 134.349 34.7546 134.423C34.2134 135 33.649 135.568 33.0784 136.112C31.9602 137.175 30.7703 138.186 29.5405 139.117C28.3065 140.052 27.0051 140.924 25.6763 141.709C25.3899 141.878 25.0993 142.046 24.8087 142.214C21.8963 143.891 18.2721 145.98 18.2721 150.625C18.2721 152.862 19.2892 154.862 20.8855 156.195C19.6851 157.2 18.8407 158.566 18.4764 160.078H18.2721V169.018H98.7158V160.078H98.5157C98.1472 158.535 97.2838 157.181 96.1024 156.193H96.1045ZM81.0582 129.299L78.6722 132.18H38.3156L35.9297 129.299H36.5235C36.8478 129.314 37.1616 129.32 37.4396 129.32C37.8839 129.32 38.2377 129.308 38.4104 129.299H81.0561H81.0582ZM30.7956 118.747C30.7893 117.801 30.783 116.906 30.8335 116.016L30.8419 115.891C31.162 105.568 35.597 95.5382 43.0096 88.3698C44.5258 86.9042 46.1663 85.607 47.9015 84.2339C50.1126 82.4861 52.4017 80.6772 54.3959 78.4892C55.9753 76.7308 57.043 75.303 57.3336 74.9071L57.401 74.8081C60.7135 69.5456 62.4635 63.4744 62.4635 57.2495C62.4635 57.2411 62.4635 57.2306 62.4635 57.2221C62.4593 55.548 62.1181 53.8928 61.4779 52.345C60.9978 51.1868 60.5008 50.0054 60.5008 50.0054L59.0772 54.1244C57.8348 57.717 54.4507 60.1324 50.6559 60.1324C49.9168 60.1324 49.1734 60.0356 48.449 59.8481C48.3311 59.8166 48.1942 59.7723 48.0489 59.7239C47.7857 59.6376 47.4866 59.5386 47.1455 59.4712C45.9978 59.2438 44.7174 59.2585 43.5297 59.5238L43.4708 59.5386C39.2359 60.6463 35.5612 63.3965 33.2868 67.1386C32.7941 67.2376 32.2887 67.2671 31.7748 67.2292C29.1636 67.027 27.0282 64.9085 26.8029 62.3015C26.6787 60.8526 27.1209 59.4438 28.0496 58.3361L29.0414 57.1527L29.0141 57.1253C32.6488 52.564 45.6566 36.2436 45.8083 36.052L45.8441 36.0057C47.3371 33.9946 48.7649 33.1269 50.6096 33.1122H50.6159L53.2272 33.0933C52.6439 31.7455 52.6123 30.2124 53.1851 28.8605C54.3938 26.0028 56.5165 23.6022 59.231 22.0733V27.8181C59.231 29.4838 59.5805 31.1243 60.1955 32.6721C60.4882 33.4049 60.6672 34.2831 60.3934 35.1001C60.3934 35.1001 61.7601 34.2936 62.354 32.8174C64.3166 33.2028 67.9218 34.0914 69.855 34.8748C72.858 36.092 75.604 37.6335 78.0131 39.4571C83.0166 43.2435 86.8956 48.306 89.2331 54.0992C92.156 61.3454 92.4045 69.8678 89.9343 78.0933C89.41 79.8411 88.9235 81.6774 88.4876 83.5538C86.5502 91.9098 85.5268 101.527 85.5268 111.364C85.5268 113.722 85.6047 116.201 85.7584 118.734C85.7837 119.16 85.8111 119.585 85.8406 120.008C85.7437 123.281 83.0208 125.932 79.7399 125.932H36.5972C36.0939 125.909 35.6307 125.862 35.359 125.785C32.674 125.012 30.7977 122.516 30.7977 119.72C30.7977 119.395 30.7956 119.071 30.7935 118.749L30.7956 118.747ZM26.4934 145.133C26.7966 144.958 27.0977 144.786 27.3947 144.609C28.833 143.758 30.2418 142.813 31.579 141.802C32.9099 140.795 34.1966 139.702 35.4053 138.55C36.0223 137.963 36.633 137.348 37.2185 136.722C37.3596 136.573 37.8439 136.025 38.2293 135.589H78.7649C79.1503 136.027 79.6367 136.573 79.7757 136.722C80.359 137.346 80.9697 137.961 81.5888 138.55C82.7976 139.7 84.0864 140.795 85.4152 141.802C86.7524 142.813 88.1591 143.758 89.5974 144.609C89.8943 144.784 90.1955 144.958 90.4987 145.133C93.5164 146.87 95.3485 148.109 95.3485 150.625C95.3485 152.767 93.6048 154.511 91.4632 154.511H25.5268C23.3851 154.511 21.6415 152.767 21.6415 150.625C21.6415 148.109 23.4736 146.873 26.4912 145.133H26.4934ZM23.5788 158.402C24.1685 158.059 24.8424 157.878 25.5289 157.878H91.4611C93.0005 157.878 94.3335 158.777 94.961 160.078H22.0289C22.3617 159.39 22.8966 158.798 23.5767 158.402H23.5788ZM95.3485 165.646H21.6415V163.446H95.3464V165.646H95.3485Z" fill="#F9F9F9"/>
</g>
<defs>
<clipPath id="clip0_3064_5263">
<rect width="80.4437" height="150.746" fill="white" transform="translate(18.2721 18.2722)"/>
</clipPath>
</defs>
</svg>
