<svg width="156" height="48" viewBox="0 0 156 48" fill="none" xmlns="http://www.w3.org/2000/svg">
<path d="M31.73 0.183105L31.0249 6.71827H29.1446C28.9096 5.81061 28.6746 5.08449 28.4395 4.53989C28.2045 3.99529 27.7344 3.45069 27.2643 3.08762C26.5592 2.72456 25.8541 2.36149 24.914 2.17996C23.9738 1.99843 22.5636 1.8169 20.6833 1.8169V22.6931H26.5592V24.69H20.6833V39.0311C20.6833 40.4833 20.6833 41.754 20.9183 42.8432C20.9183 43.3878 21.1534 43.7509 21.1534 44.2955C21.1534 44.8401 21.3884 45.0216 21.3884 45.3847C21.6235 46.2924 22.0935 46.837 22.3285 47.0185H9.40149C9.63653 46.837 9.87158 46.4739 9.87158 46.1108C9.87158 45.7478 10.1066 45.5662 10.3416 45.2032C10.3416 44.8401 10.5767 44.477 10.5767 44.114C10.5767 43.7509 10.8117 43.2063 10.8117 42.6617C11.0468 41.5725 11.0468 40.3018 11.0468 38.8495V24.69H5.17083V22.6931H11.2818V1.8169C9.4015 1.8169 7.99127 1.99843 7.05112 2.17996C6.11097 2.36149 5.40586 2.72456 4.70075 3.08762C4.23067 3.45069 3.7606 3.99529 3.52556 4.53989C3.52556 4.90295 3.29053 5.26602 3.05549 5.62908C2.82046 5.99215 2.82046 6.3552 2.58543 6.8998H0.705119L0 0.364635H31.73V0.183105Z" fill="url(#paint0_linear)"/>
<path d="M65.8104 39.574C66.5155 41.5709 67.2206 43.0232 67.9258 44.1123C68.6309 45.2015 69.571 45.9277 70.9812 46.6538C70.2761 47.0169 69.336 47.3799 68.1608 47.3799C66.9856 47.5615 66.2805 47.5615 65.5754 47.5615C63.4601 47.3799 61.8148 47.0169 60.1695 46.1092C58.7593 45.2015 57.5841 43.9308 57.1141 42.1155L51.9432 22.3285C50.298 22.3285 48.8878 21.7839 47.4775 21.0577V38.8479C47.4775 40.4817 47.4775 41.7524 47.7126 42.6601C47.9476 43.7493 48.1827 44.4754 48.4177 45.2015C48.6527 45.9277 48.8878 46.4723 49.3578 46.8353H36.4308C36.6658 46.4723 37.1359 45.9277 37.3709 45.2015C37.606 44.657 37.841 43.7493 38.0761 42.6601C38.3111 41.5709 38.3111 40.3002 38.3111 38.8479V7.98742C38.3111 6.53517 38.3111 5.0829 38.0761 4.17524C37.841 3.26757 37.606 2.35992 37.3709 1.63379C37.1359 0.907664 36.6658 0.363065 36.4308 0H51.4732C53.8235 0 55.9389 0.181524 57.5841 0.544589C59.4644 0.907653 61.1097 1.63378 62.2849 2.35991C63.6951 3.26757 64.6352 4.35677 65.3404 5.6275C66.0455 7.07976 66.5155 8.71355 66.5155 10.7104C66.5155 13.7965 65.5754 16.3379 63.46 18.3348C61.3447 20.3316 58.5243 21.6023 54.9987 21.9654C55.7038 22.1469 56.4089 22.51 57.1141 22.8731C57.8192 23.2361 58.5243 23.7807 59.2294 24.3253C59.9345 24.8699 60.6396 25.5961 61.1097 26.5037C61.8148 27.4114 62.2849 28.319 62.5199 29.5898L65.8104 39.574ZM48.1826 19.2424C48.4177 19.6055 48.8878 19.9685 49.5929 20.3316C50.298 20.6947 51.0031 20.8762 51.9432 20.8762C53.1184 20.8762 54.0586 20.6947 54.7637 20.1501C55.4688 19.6055 56.1739 18.8794 56.4089 17.9717C56.879 17.064 57.1141 15.9748 57.3491 14.8856C57.5841 13.6149 57.5841 12.3442 57.5841 11.0735C57.5841 9.25815 57.3491 7.98742 56.879 6.71669C56.4089 5.6275 55.7038 4.53831 54.9987 3.81218C54.2936 3.08605 53.3535 2.54145 52.4133 2.17838C51.4732 1.81532 50.533 1.63379 49.3578 1.63379H47.2425V13.4334C47.7126 13.0703 48.1826 12.8888 48.8878 12.7073C49.5929 12.5257 50.063 12.5257 50.7681 12.5257C51.4732 12.5257 51.9432 12.7073 52.4133 12.8888C52.8834 13.0703 53.3535 13.4334 53.5885 13.978C52.6484 13.7965 51.7082 13.978 51.0031 14.1595C50.0629 14.341 49.5929 14.8857 48.8878 15.2487C48.4177 15.7933 47.9476 16.3379 47.9476 17.064C47.9476 17.7902 47.9476 18.5163 48.1826 19.2424Z" fill="url(#paint1_linear)"/>
<path d="M83.6733 38.8495C83.6733 40.4833 83.6733 41.754 83.9083 42.6617C84.1433 43.5693 84.3784 44.477 84.6134 45.2031C84.8484 45.9293 85.0835 46.4739 85.5536 46.8369H72.6265C72.8616 46.4739 73.3316 45.9293 73.5667 45.2031C73.8017 44.6585 74.0368 43.7509 74.2718 42.6617C74.5068 41.5725 74.5068 40.3018 74.5068 38.8495V8.17053C74.5068 6.71827 74.5068 5.26602 74.2718 4.35836C74.0368 3.45069 73.8017 2.54303 73.5667 1.8169C73.3316 1.09077 72.8616 0.54617 72.6265 0.183105H85.5536C85.0835 0.54617 84.8484 1.09077 84.6134 1.8169C84.3784 2.3615 84.1433 3.26916 83.9083 4.35836C83.6733 5.44755 83.6733 6.71827 83.6733 8.17053V38.8495Z" fill="url(#paint2_linear)"/>
<path d="M111.878 21.6042C113.523 21.9673 114.933 22.5119 116.343 23.238C117.754 23.9641 118.929 24.6903 119.869 25.7795C120.809 26.6871 121.749 27.9579 122.219 29.2286C122.924 30.4993 123.16 32.1331 123.16 33.7669C123.16 36.1268 122.689 38.3052 121.749 39.939C120.809 41.5728 119.634 43.025 117.989 44.1142C116.343 45.2034 114.463 45.9295 112.583 46.4741C110.468 47.0187 108.117 47.2003 105.767 47.2003H90.0193C90.2543 46.8372 90.7244 46.2926 90.9594 45.5665C91.1945 45.0219 91.4295 44.1142 91.6645 43.025C91.8996 41.9358 91.8996 40.6651 91.8996 39.2128V8.3524C91.8996 6.90015 91.8996 5.44789 91.6645 4.54023C91.4295 3.45104 91.1945 2.72491 90.9594 1.99878C90.7244 1.27265 90.4894 0.728054 90.0193 0.36499H105.062C107.412 0.36499 109.527 0.546528 111.173 0.909592C113.053 1.27266 114.698 1.99878 115.873 2.72491C117.284 3.63257 118.224 4.72176 118.929 5.99248C119.634 7.44474 120.104 9.07853 120.104 11.0754C120.104 13.7984 119.399 15.9767 117.989 17.7921C116.578 19.6074 114.698 20.6966 111.878 21.6042ZM100.831 20.6966H105.532C106.707 20.6966 107.647 20.515 108.352 19.9705C109.057 19.4259 109.762 18.6997 109.997 17.7921C110.468 16.8844 110.703 15.7952 110.938 14.706C111.173 13.4353 111.173 12.1646 111.173 10.8939C111.173 9.07853 110.938 7.80781 110.468 6.53708C109.997 5.44789 109.292 4.3587 108.587 3.63257C107.882 2.90644 106.942 2.36185 106.002 1.99878C105.062 1.63572 104.122 1.45418 102.946 1.45418H100.831V20.6966ZM105.532 45.3849C106.707 45.3849 107.882 45.0219 108.822 44.4773C109.762 43.9327 110.703 43.025 111.643 41.9358C112.348 40.8466 113.053 39.5759 113.523 38.3052C113.993 36.8529 114.228 35.4007 114.228 33.7669C114.228 31.9516 113.758 30.3178 113.053 28.8655C112.348 27.4133 111.408 26.3241 110.468 25.4164C109.292 24.5088 108.117 23.7826 106.942 23.238C105.532 22.6934 104.357 22.5119 102.946 22.5119H100.831V38.1237C101.301 37.7606 102.006 37.5791 102.476 37.3975C103.416 37.216 104.357 37.216 105.297 37.3975C106.237 37.5791 106.942 38.1237 107.177 38.8498C106.237 38.6683 105.297 38.8498 104.592 39.0313C103.886 39.2128 103.181 39.7574 102.476 40.1205C102.006 40.6651 101.536 41.2097 101.536 41.9358C101.301 42.662 101.536 43.2065 101.771 43.9327C102.006 44.2957 102.476 44.6588 102.946 45.0219C103.886 45.2034 104.592 45.3849 105.532 45.3849Z" fill="url(#paint3_linear)"/>
<path d="M155.595 47.0185H126.685C126.92 46.6554 127.39 46.1108 127.625 45.3847C127.86 44.8401 128.095 43.9324 128.33 42.8432C128.565 41.754 128.565 40.4833 128.565 39.0311V8.17054C128.565 6.71828 128.565 5.26602 128.33 4.35836C128.095 3.4507 127.86 2.54303 127.625 1.8169C127.39 1.09077 126.92 0.54617 126.685 0.183105H154.655L153.949 6.71827H152.069C151.834 5.81061 151.599 5.08449 151.129 4.53989C150.894 3.99529 150.424 3.45069 149.954 3.08762C149.484 2.72456 148.544 2.36149 147.368 2.17996C146.193 1.99843 144.783 1.99843 142.903 1.99843H137.732V16.3395C139.377 16.3395 141.022 16.3395 142.433 16.3395C143.843 16.3395 145.018 16.158 146.193 16.158C147.368 15.9764 148.544 15.7949 149.249 15.6134C149.249 15.7949 149.249 16.158 149.249 16.521C149.249 17.0656 149.014 17.6102 148.779 18.3364C148.544 19.0625 147.838 19.4255 146.898 19.6071C145.958 19.7886 145.018 19.7886 144.078 19.6071L137.732 18.1548V42.6617C137.732 42.8432 137.732 43.2063 137.967 43.5694C138.202 43.9324 138.437 44.2955 138.672 44.477C139.142 44.8401 139.612 45.0216 140.317 45.2032C141.022 45.3847 141.963 45.5662 142.903 45.5662H145.958C147.368 45.5662 148.309 45.3847 149.014 45.0216C149.719 44.6586 150.424 44.114 150.894 43.5694C151.364 43.0248 151.834 42.2986 152.069 41.391C152.304 40.6648 152.539 39.7572 152.774 39.0311H154.655L155.595 47.0185Z" fill="url(#paint4_linear)"/>
<defs>
<linearGradient id="paint0_linear" x1="15.865" y1="0.183105" x2="15.865" y2="47.0185" gradientUnits="userSpaceOnUse">
<stop stop-color="#006A4E"/>
<stop offset="1" stop-color="#003F2E"/>
</linearGradient>
<linearGradient id="paint1_linear" x1="53.706" y1="0" x2="53.706" y2="47.5615" gradientUnits="userSpaceOnUse">
<stop stop-color="#006A4E"/>
<stop offset="1" stop-color="#003F2E"/>
</linearGradient>
<linearGradient id="paint2_linear" x1="79.09" y1="0.183105" x2="79.09" y2="46.8369" gradientUnits="userSpaceOnUse">
<stop stop-color="#006A4E"/>
<stop offset="1" stop-color="#003F2E"/>
</linearGradient>
<linearGradient id="paint3_linear" x1="106.589" y1="0.36499" x2="106.589" y2="47.2003" gradientUnits="userSpaceOnUse">
<stop stop-color="#006A4E"/>
<stop offset="1" stop-color="#003F2E"/>
</linearGradient>
<linearGradient id="paint4_linear" x1="141.14" y1="0.183105" x2="141.14" y2="47.0185" gradientUnits="userSpaceOnUse">
<stop stop-color="#006A4E"/>
<stop offset="1" stop-color="#003F2E"/>
</linearGradient>
</defs>
</svg>
